# Parametric PetalDock simulation geometry; SI units
v -0.0368095794829 0.0338386592271 0.014
v -0.0368095794829 0.0338386592271 0.0140433978315
v -0.036753540235 0.0337871429359 0.014044374751
v -0.0365939539586 0.0336404369507 0.0140452029433
v -0.0363910317518 0.0342883771566 0.014
v -0.0363910317518 0.0342883771566 0.0140108494579
v -0.0363551162177 0.0334208759278 0.0140457563238
v -0.0363356297049 0.0342361762107 0.0140110936877
v -0.0361778580233 0.0340875204936 0.0140113007358
v -0.0360733878933 0.0331618860426 0.0140459506451
v -0.0359417360156 0.0338650414907 0.0140114390809
v -0.0356632111168 0.0336026096135 0.0140114876613
v -0.0242943224587 0.0223335150899 0.0140459506451
v -0.0240180809562 0.0226303289234 0.0140114876613
v -0.0240125941343 0.0220745252047 0.0140457563238
v -0.0237737563934 0.0218549641818 0.0140452029433
v -0.0237395560575 0.0223678970462 0.0140114390809
v -0.023614170117 0.0217082581966 0.014044374751
v -0.0235581308691 0.0216567419054 0.014
v -0.0235581308691 0.0216567419054 0.0140433978315
v -0.0235034340497 0.0221454180433 0.0140113007358
v -0.0233456623682 0.0219967623262 0.0140110936877
v -0.0232902603212 0.0219445613802 0.014
v -0.0232902603212 0.0219445613802 0.0140108494579
f 14 23 5
f 3 2 1
f 3 1 19
f 9 14 5
f 15 10 3
f 15 3 19
f 15 19 20
f 6 2 3
f 6 9 5
f 24 18 20
f 12 14 9
f 12 15 14
f 13 9 10
f 13 10 15
f 4 6 3
f 4 3 10
f 4 10 7
f 8 9 6
f 8 10 9
f 8 7 10
f 8 4 7
f 8 6 4
f 21 23 14
f 11 12 9
f 11 15 12
f 11 9 13
f 11 13 15
f 22 24 23
f 22 23 21
f 22 18 24
f 17 14 15
f 17 21 14
f 17 15 21
f 16 18 22
f 16 20 18
f 16 15 20
f 16 21 15
f 16 22 21
f 19 5 23
f 19 1 5
f 6 5 1
f 6 1 2
f 24 19 23
f 24 20 19
