# Parametric PetalDock simulation geometry; SI units
v -0.0033763861024 0.0498858699121 0.014
v -0.0033763861024 0.0498858699121 0.0308194358237
v -0.0033712458606 0.0498099231973 0.0311980546138
v -0.0033566076905 0.0495936452519 0.0315190321253
v -0.0033347001208 0.0492699624324 0.0317335024417
v -0.0033088583803 0.0488881525139 0.0318088144016
v -0.0027631930898 0.0499235892535 0.014
v -0.0027631930898 0.0499235892535 0.030897108079
v -0.0027589863789 0.0498475851144 0.0312774753329
v -0.0027470066795 0.0496311436384 0.0315999351205
v -0.0027290777924 0.0493072160782 0.0318153958621
v -0.002707929228 0.0489251174684 0.0318910556131
v -0.0022284148276 0.032924674142 0.0318088144016
v -0.0022025730871 0.0325428642235 0.0317335024417
v -0.0021806655174 0.032219181404 0.0315190321253
v -0.0021660273473 0.0320029034585 0.0311980546138
v -0.0021608871055 0.0319269567437 0.014
v -0.0021608871055 0.0319269567437 0.0308194358237
v -0.0018237074393 0.0329495689073 0.0318910556131
v -0.001802558875 0.0325674702975 0.0318153958621
v -0.0017846299879 0.0322435427372 0.0315999351205
v -0.0017726502885 0.0320271012613 0.0312774753329
v -0.0017684435775 0.0319510971222 0.014
v -0.0017684435775 0.0319510971222 0.030897108079
f 12 23 7
f 8 12 7
f 13 1 17
f 2 1 13
f 10 12 8
f 24 23 12
f 19 24 12
f 19 12 6
f 19 6 13
f 20 15 21
f 20 19 13
f 11 12 10
f 11 10 4
f 9 8 2
f 9 10 8
f 5 13 6
f 5 2 13
f 5 11 4
f 5 6 12
f 5 12 11
f 14 13 15
f 14 15 20
f 14 20 13
f 22 24 19
f 22 19 20
f 22 20 21
f 22 18 24
f 3 9 2
f 3 5 4
f 3 2 5
f 3 4 10
f 3 10 9
f 16 17 18
f 16 15 13
f 16 13 17
f 16 18 22
f 16 21 15
f 16 22 21
f 17 7 23
f 17 1 7
f 2 7 1
f 2 8 7
f 18 17 23
f 18 23 24
