# Parametric PetalDock simulation geometry; SI units
v -0.0165751278677 0.0471727160144 0.014
v -0.0165751278677 0.0471727160144 0.0242734219269
v -0.016549893738 0.0471008998304 0.0245046847719
v -0.0164780330166 0.0468963846417 0.0247007399452
v -0.0163704858468 0.0465903060316 0.0248317398238
v -0.0162436253103 0.0462292616941 0.0248777408638
v -0.0159942745422 0.047372810576 0.014
v -0.0159942745422 0.047372810576 0.0246710299003
v -0.0159699247091 0.0473006897663 0.024911243215
v -0.0159005822511 0.0470953070765 0.02511488623
v -0.0157968039289 0.0467879301595 0.0252509561424
v -0.0156743890513 0.0464253543645 0.0252987375415
v -0.0109395843927 0.0311339925695 0.0248777408638
v -0.0108127238562 0.0307729482319 0.0248317398238
v -0.0107051766864 0.0304668696219 0.0247007399452
v -0.0106333159649 0.0302623544331 0.0245046847719
v -0.0106080818353 0.0301905382492 0.014
v -0.0106080818353 0.0301905382492 0.0242734219269
v -0.0105562211978 0.0312660549802 0.0252987375415
v -0.0104338063202 0.0309034791851 0.0252509561424
v -0.0103300279981 0.0305961022681 0.02511488623
v -0.0102606855401 0.0303907195784 0.024911243215
v -0.010236335707 0.0303185987686 0.014
v -0.010236335707 0.0303185987686 0.0246710299003
f 11 12 7
f 10 11 7
f 5 12 11
f 9 7 8
f 9 10 7
f 13 1 17
f 4 11 10
f 4 5 11
f 24 23 22
f 19 22 23
f 19 23 7
f 19 7 12
f 20 15 21
f 20 19 13
f 20 21 22
f 20 22 19
f 14 17 15
f 14 13 17
f 14 15 20
f 14 20 13
f 3 10 9
f 3 4 10
f 18 15 17
f 18 24 22
f 6 5 13
f 6 13 19
f 6 12 5
f 6 19 12
f 2 9 8
f 2 3 9
f 2 1 13
f 2 13 5
f 2 5 4
f 2 4 3
f 16 15 18
f 16 18 22
f 16 21 15
f 16 22 21
f 17 7 23
f 17 1 7
f 18 17 23
f 18 23 24
f 2 7 1
f 2 8 7
