# Parametric PetalDock simulation geometry; SI units
v 0.029632920741 0.0120784936294 0.014
v 0.029632920741 0.0120784936294 0.0226829900332
v 0.0297034104842 0.0121072255226 0.0228784509996
v 0.0297790900212 0.0117134878457 0.014
v 0.0297790900212 0.0117134878457 0.0230805980066
v 0.0298499274666 0.0117413514761 0.0232850094427
v 0.0299041482891 0.0121890470318 0.0230441548058
v 0.030051655444 0.0118207003819 0.0234583010906
v 0.0302045736448 0.0123115015741 0.0231548745493
v 0.0303535626974 0.0119394544117 0.0235740908679
v 0.0305589495142 0.0124559465553 0.0231937541528
v 0.0307096865843 0.0120795343409 0.0236147508306
v 0.0453754098847 0.01849519337 0.0231937541528
v 0.0455992315949 0.0179362782638 0.0236147508306
v 0.0457297857541 0.0186396383512 0.0231548745493
v 0.0459553554818 0.018076358193 0.0235740908679
v 0.0460302111098 0.0187620928935 0.0230441548058
v 0.0462309489148 0.0188439144027 0.0228784509996
v 0.0462572627353 0.0181951122227 0.0234583010906
v 0.0463014386579 0.0188726462959 0.014
v 0.0463014386579 0.0188726462959 0.0226829900332
v 0.0464589907126 0.0182744611286 0.0232850094427
v 0.0465298281581 0.018302324759 0.014
v 0.0465298281581 0.018302324759 0.0230805980066
f 4 23 19
f 13 20 1
f 14 13 12
f 22 19 23
f 22 23 24
f 21 22 24
f 16 14 19
f 17 21 20
f 17 20 13
f 17 16 19
f 9 13 1
f 2 9 1
f 8 5 4
f 8 4 19
f 15 17 13
f 15 16 17
f 15 13 14
f 15 14 16
f 18 22 21
f 18 21 17
f 18 19 22
f 18 17 19
f 11 12 13
f 11 13 9
f 10 8 19
f 10 14 12
f 10 19 14
f 10 12 11
f 10 11 9
f 10 9 7
f 10 7 8
f 6 2 5
f 6 5 8
f 3 2 6
f 3 7 9
f 3 9 2
f 3 8 7
f 3 6 8
f 4 20 23
f 4 1 20
f 21 23 20
f 21 24 23
f 2 1 4
f 2 4 5
