# Parametric PetalDock simulation geometry; SI units
v 0.0319849038604 -0.0009828148565 0.014
v 0.0319849038604 -0.0009828148565 0.0309873558423
v 0.0319945651162 -0.0005897482709 0.014
v 0.0319945651162 -0.0005897482709 0.0309999313503
v 0.0320609884177 -0.0009851527417 0.0313697546447
v 0.0320706726554 -0.0005911511432 0.0313826132373
v 0.0322776589055 -0.0009918104755 0.0316939366958
v 0.03228740859 -0.0005951461856 0.031707035276
v 0.0326019292062 -0.0010017744782 0.0319105482172
v 0.0326117768388 -0.000601125189 0.031923807152
v 0.032984432106 -0.0010135278208 0.0319866120683
v 0.0329943952761 -0.0006081779044 0.0319999273121
v 0.0489768840362 -0.001504935249 0.0319866120683
v 0.0489916778342 -0.0009030520399 0.0319999273121
v 0.049359386936 -0.0015166885916 0.0319105482172
v 0.0493742962716 -0.0009101047552 0.031923807152
v 0.0496836572367 -0.0015266525943 0.0316939366958
v 0.0496986645203 -0.0009160837587 0.031707035276
v 0.0499003277245 -0.0015333103281 0.0313697546447
v 0.0499154004549 -0.000920078801 0.0313826132373
v 0.0499764122818 -0.0015356482133 0.014
v 0.0499764122818 -0.0015356482133 0.0309873558423
v 0.0499915079941 -0.0009214816733 0.014
v 0.0499915079941 -0.0009214816733 0.0309999313503
f 7 1 21
f 10 11 12
f 10 6 8
f 10 8 7
f 22 7 21
f 22 24 20
f 4 6 3
f 9 7 11
f 9 11 10
f 9 10 7
f 19 22 20
f 19 18 17
f 19 20 18
f 16 17 18
f 16 18 20
f 16 6 10
f 16 10 12
f 16 12 14
f 16 20 24
f 16 24 23
f 16 23 3
f 16 3 6
f 2 1 7
f 2 6 4
f 15 11 19
f 15 19 17
f 15 17 16
f 15 16 14
f 5 2 7
f 5 6 2
f 5 7 8
f 5 8 6
f 13 11 15
f 13 15 14
f 13 12 11
f 13 14 12
f 3 23 21
f 3 21 1
f 22 21 23
f 22 23 24
f 19 7 22
f 19 11 7
f 2 3 1
f 2 4 3
