# Parametric PetalDock simulation geometry; SI units
v -0.0455744722006 -0.0205661732863 0.014
v -0.0455744722006 -0.0205661732863 0.021490166113
v -0.045505089198 -0.0205348631518 0.0216587756704
v -0.0453183393422 -0.0211245856591 0.014
v -0.0453183393422 -0.0211245856591 0.0210925581395
v -0.0453075031234 -0.0204456994324 0.0218017159512
v -0.0452493462786 -0.0210924253924 0.0212522172274
v -0.0450528706565 -0.0210008407013 0.0213875696664
v -0.0450117946655 -0.0203122564962 0.0218972255934
v -0.0447588241083 -0.0208637745249 0.0214780092747
v -0.0446629827566 -0.0201548498205 0.0219307641196
v -0.0444119725553 -0.0207020939459 0.0215097674419
v -0.0300791516524 -0.0135736743689 0.0219307641196
v -0.0299101039658 -0.013942226535 0.0215097674419
v -0.0297303397434 -0.0134162676933 0.0218972255934
v -0.0295632524129 -0.0137805459561 0.0214780092747
v -0.0294346312855 -0.0132828247571 0.0218017159512
v -0.0292692058646 -0.0136434797796 0.0213875696664
v -0.0292370452109 -0.0131936610377 0.0216587756704
v -0.0291676622084 -0.0131623509032 0.014
v -0.0291676622084 -0.0131623509032 0.021490166113
v -0.0290727302425 -0.0135518950885 0.0212522172274
v -0.029003737179 -0.0135197348218 0.014
v -0.029003737179 -0.0135197348218 0.0210925581395
f 20 1 11
f 6 1 2
f 6 11 1
f 9 11 6
f 9 6 8
f 3 2 5
f 3 6 2
f 24 16 23
f 13 11 12
f 13 12 14
f 13 21 20
f 13 20 11
f 10 9 8
f 10 12 11
f 10 11 9
f 10 16 14
f 10 14 12
f 7 3 5
f 7 5 4
f 7 8 6
f 7 6 3
f 7 10 8
f 7 16 10
f 7 4 23
f 7 23 16
f 19 24 21
f 19 22 24
f 19 21 13
f 15 19 13
f 15 14 16
f 15 13 14
f 17 22 19
f 17 19 15
f 18 22 17
f 18 16 24
f 18 24 22
f 18 15 16
f 18 17 15
f 20 23 4
f 20 4 1
f 5 1 4
f 5 2 1
f 24 23 20
f 24 20 21
