# Parametric PetalDock simulation geometry; SI units
v -0.0154110065392 0.0475657531996 0.014
v -0.0154110065392 0.0475657531996 0.0250686378738
v -0.0153875446788 0.0474933386522 0.0253178016581
v -0.015320730953 0.0472871194684 0.0255290325149
v -0.015220737146 0.0469784906496 0.0256701724611
v -0.0151027864084 0.0466144381356 0.0257197342193
v -0.0148254119155 0.0477515147565 0.014
v -0.0148254119155 0.0477515147565 0.0254662458472
v -0.0148028415698 0.0476788174039 0.0257243601011
v -0.0147385666632 0.0474717928592 0.0259431787997
v -0.0146423724676 0.0471619587327 0.0260893887797
v -0.0145289036772 0.0467964844613 0.026140730897
v -0.0101712643159 0.0313933971118 0.0257197342193
v -0.0100533135783 0.0310293445978 0.0256701724611
v -0.0099533197713 0.030720715779 0.0255290325149
v -0.0098865060455 0.0305144965952 0.0253178016581
v -0.0098630441851 0.0304420820478 0.014
v -0.0098630441851 0.0304420820478 0.0250686378738
v -0.0097847718642 0.0315159997393 0.026140730897
v -0.0096713030739 0.0311505254679 0.0260893887797
v -0.0095751088782 0.0308406913413 0.0259431787997
v -0.0095108339716 0.0306336667967 0.0257243601011
v -0.0094882636259 0.0305609694441 0.014
v -0.0094882636259 0.0305609694441 0.0254662458472
f 10 12 8
f 9 10 8
f 22 7 8
f 22 23 7
f 11 12 10
f 11 10 4
f 3 10 9
f 3 4 10
f 3 1 17
f 24 23 22
f 13 3 17
f 5 11 4
f 5 4 3
f 5 12 11
f 5 6 12
f 5 13 6
f 5 3 13
f 2 9 8
f 2 3 9
f 2 1 3
f 18 13 17
f 18 24 22
f 19 21 22
f 19 12 6
f 19 6 13
f 19 8 12
f 19 22 8
f 20 15 21
f 20 21 19
f 20 19 13
f 14 18 15
f 14 13 18
f 14 15 20
f 14 20 13
f 16 15 18
f 16 18 22
f 16 21 15
f 16 22 21
f 17 7 23
f 17 1 7
f 2 7 1
f 2 8 7
f 18 17 23
f 18 23 24
