# Parametric PetalDock simulation geometry; SI units
v 0.0186061306963 -0.0260348209234 0.014
v 0.0186061306963 -0.0260348209234 0.0155623219346
v 0.0186503903015 -0.026096751634 0.0155974910358
v 0.0187764309934 -0.0262731153766 0.0156273059602
v 0.0189246110657 -0.0258042456974 0.014
v 0.0189246110657 -0.0258042456974 0.0153127844034
v 0.0189650642193 -0.02653706237 0.0156472276557
v 0.0189696282607 -0.0258656279238 0.0153423362176
v 0.019097826386 -0.0260404297156 0.015367389036
v 0.0191875722805 -0.0268484090773 0.0156542232249
v 0.019289688439 -0.0263020390844 0.0153841287941
v 0.0195160051615 -0.0266106283755 0.0153900070154
v 0.0284906376286 -0.039865819539 0.0156542232249
v 0.0287131456898 -0.0401771662462 0.0156472276557
v 0.0289017789157 -0.0404411132396 0.0156273059602
v 0.0289783106943 -0.0395127512242 0.0153900070154
v 0.0290278196077 -0.0406174769822 0.0155974910358
v 0.0290720792129 -0.0406794076928 0.014
v 0.0290720792129 -0.0406794076928 0.0155623219346
v 0.0292046274168 -0.0398213405152 0.0153841287941
v 0.0293964894698 -0.040082949884 0.015367389036
v 0.0295246875951 -0.0402577516758 0.0153423362176
v 0.0295697047901 -0.0403191339022 0.014
v 0.0295697047901 -0.0403191339022 0.0153127844034
f 10 1 18
f 13 10 18
f 13 18 19
f 4 2 1
f 4 1 10
f 20 23 5
f 20 21 23
f 20 5 6
f 3 6 2
f 3 2 4
f 7 4 10
f 22 24 23
f 22 23 21
f 22 21 15
f 12 7 10
f 14 13 15
f 14 20 13
f 14 15 21
f 14 21 20
f 17 19 24
f 17 24 22
f 17 22 15
f 17 15 13
f 17 13 19
f 16 12 10
f 16 20 12
f 16 10 13
f 16 13 20
f 11 20 6
f 11 12 20
f 11 7 12
f 8 6 3
f 8 3 4
f 9 8 4
f 9 4 7
f 9 7 11
f 9 11 6
f 9 6 8
f 5 23 18
f 5 18 1
f 2 5 1
f 2 6 5
f 24 18 23
f 24 19 18
