# Parametric PetalDock simulation geometry; SI units
v 0.0294822777384 -0.0124416759063 0.014
v 0.0294822777384 -0.0124416759063 0.0222853820598
v 0.0295524091372 -0.0124712717247 0.0224718925566
v 0.029632920741 -0.0120784936294 0.014
v 0.029632920741 -0.0120784936294 0.0226829900332
v 0.0297034104842 -0.0121072255226 0.0228784509996
v 0.0297521264641 -0.0125555534846 0.0226300085209
v 0.0299041482891 -0.0121890470318 0.0230441548058
v 0.0300510245665 -0.0126816900522 0.0227356582306
v 0.0302045736448 -0.0123115015741 0.0231548745493
v 0.0304035989177 -0.0128304782784 0.0227727574751
v 0.0305589495142 -0.0124559465553 0.0231937541528
v 0.0451447377869 -0.0190513162316 0.0227727574751
v 0.0453754098847 -0.01849519337 0.0231937541528
v 0.0454973121381 -0.0192001044578 0.0227356582306
v 0.0457297857541 -0.0186396383512 0.0231548745493
v 0.0457962102404 -0.0193262410254 0.0226300085209
v 0.0459959275673 -0.0194105227853 0.0224718925566
v 0.0460302111098 -0.0187620928935 0.0230441548058
v 0.0460660589662 -0.0194401186036 0.014
v 0.0460660589662 -0.0194401186036 0.0222853820598
v 0.0462309489148 -0.0188439144027 0.0228784509996
v 0.0463014386579 -0.0188726462959 0.014
v 0.0463014386579 -0.0188726462959 0.0226829900332
f 3 1 20
f 3 20 13
f 14 12 13
f 22 24 23
f 22 23 4
f 22 4 12
f 21 24 22
f 2 1 3
f 11 13 12
f 8 12 4
f 16 19 22
f 16 12 14
f 16 22 12
f 17 13 20
f 17 19 16
f 9 3 13
f 9 13 11
f 6 3 8
f 6 5 2
f 6 2 3
f 6 4 5
f 6 8 4
f 18 20 21
f 18 17 20
f 18 21 22
f 18 22 19
f 18 19 17
f 15 13 17
f 15 17 16
f 15 14 13
f 15 16 14
f 7 8 3
f 7 3 9
f 10 12 8
f 10 11 12
f 10 9 11
f 10 8 7
f 10 7 9
f 4 23 20
f 4 20 1
f 21 20 23
f 21 23 24
f 2 4 1
f 2 5 4
