# Parametric PetalDock simulation geometry; SI units
v 0.016972570271 -0.027128064037 0.014
v 0.016972570271 -0.027128064037 0.0171354933272
v 0.0170129440205 -0.0271925953157 0.0172060757594
v 0.0171279187315 -0.0273763648494 0.0172659126562
v 0.0172999905467 -0.0276513953926 0.0173058943924
v 0.0173046064199 -0.0269174775314 0.014
v 0.0173046064199 -0.0269174775314 0.0167774612171
v 0.0173457700052 -0.0269815078743 0.0168399840637
v 0.0174629939785 -0.0271638508638 0.0168929883737
v 0.0175029630919 -0.0279758160382 0.0173199341111
v 0.0176384320524 -0.0274367464326 0.0169284047213
v 0.0178453753705 -0.0277586487042 0.0169408412887
v 0.0259892482274 -0.0415398480567 0.0173199341111
v 0.0261922207727 -0.0418642687023 0.0173058943924
v 0.0263642925878 -0.0421392992455 0.0172659126562
v 0.0264792672989 -0.0423230687792 0.0172060757594
v 0.0264976785805 -0.0412173874699 0.0169408412887
v 0.0265196410484 -0.0423876000578 0.014
v 0.0265196410484 -0.0423876000578 0.0171354933272
v 0.0267046218986 -0.0415392897416 0.0169284047213
v 0.0268800599725 -0.0418121853104 0.0168929883737
v 0.0269972839458 -0.0419945282999 0.0168399840637
v 0.0270384475311 -0.0420585586428 0.014
v 0.0270384475311 -0.0420585586428 0.0167774612171
f 10 1 18
f 15 10 18
f 16 15 18
f 16 18 19
f 4 2 1
f 4 1 10
f 17 23 6
f 3 7 2
f 3 2 4
f 5 4 10
f 22 23 17
f 22 17 21
f 22 21 15
f 22 15 16
f 11 6 7
f 11 17 6
f 13 10 15
f 13 17 10
f 24 23 22
f 24 16 19
f 24 22 16
f 12 10 17
f 12 17 11
f 12 5 10
f 12 11 5
f 9 11 7
f 9 4 5
f 9 5 11
f 14 15 21
f 14 13 15
f 8 7 3
f 8 9 7
f 8 3 4
f 8 4 9
f 20 17 13
f 20 13 14
f 20 21 17
f 20 14 21
f 6 23 18
f 6 18 1
f 2 6 1
f 2 7 6
f 24 18 23
f 24 19 18
