# Parametric PetalDock simulation geometry; SI units
v 0.0319945651162 0.0005897482709 0.014
v 0.0319945651162 0.0005897482709 0.0309999313503
v 0.0319993961088 0.0001965926503 0.014
v 0.0319993961088 0.0001965926503 0.031
v 0.0320706726554 0.0005911511432 0.0313826132373
v 0.0320755151398 0.0001970602979 0.0313826834324
v 0.03228740859 0.0005951461856 0.031707035276
v 0.0322922838003 0.0001983920457 0.0317071067812
v 0.0326117768388 0.000601125189 0.031923807152
v 0.0326167010267 0.0002003851471 0.0319238795325
v 0.0329943952761 0.0006081779044 0.0319999273121
v 0.0329993772372 0.0002027361706 0.032
v 0.0489916778342 0.0009030520399 0.0319999273121
v 0.0489990752916 0.0003010324957 0.032
v 0.0493742962716 0.0009101047552 0.031923807152
v 0.0493817515022 0.0003033835192 0.0319238795325
v 0.0496986645203 0.0009160837587 0.031707035276
v 0.0497061687286 0.0003053766206 0.0317071067812
v 0.0499154004549 0.000920078801 0.0313826132373
v 0.0499229373891 0.0003067083684 0.0313826834324
v 0.0499915079941 0.0009214816733 0.014
v 0.0499915079941 0.0009214816733 0.0309999313503
v 0.04999905642 0.000307176016 0.014
v 0.04999905642 0.000307176016 0.031
f 10 3 23
f 10 23 24
f 17 21 1
f 17 1 13
f 14 13 12
f 14 12 10
f 14 24 18
f 14 10 24
f 7 13 1
f 6 4 3
f 6 3 10
f 22 21 17
f 16 18 17
f 16 14 18
f 2 7 1
f 2 4 6
f 11 12 13
f 11 13 7
f 11 10 12
f 8 10 7
f 8 6 10
f 19 17 18
f 19 22 17
f 15 13 14
f 15 14 16
f 15 17 13
f 15 16 17
f 5 7 2
f 5 2 6
f 5 8 7
f 5 6 8
f 9 7 10
f 9 10 11
f 9 11 7
f 20 24 22
f 20 22 19
f 20 18 24
f 20 19 18
f 3 21 23
f 3 1 21
f 22 23 21
f 22 24 23
f 2 1 3
f 2 3 4
