# Parametric PetalDock simulation geometry; SI units
v 0.0248433446633 -0.0201694874982 0.014
v 0.0248433446633 -0.0201694874982 0.0145316234361
v 0.0249024411324 -0.0202174659612 0.0145435906997
v 0.0250707336378 -0.0203540970643 0.0145537360559
v 0.0250892879822 -0.0198627195657 0.014
v 0.0250892879822 -0.0198627195657 0.0146943653043
v 0.0251489694926 -0.0199099683 0.0147099960159
v 0.0253189280546 -0.0200445213115 0.0147232470934
v 0.0253226011713 -0.0205585799605 0.0145605149662
v 0.0255732890179 -0.020245894124 0.0147321011803
v 0.025619699184 -0.0207997839825 0.0145628954029
v 0.0258733282317 -0.0204834295521 0.0147352103222
v 0.0380413715157 -0.0308845277316 0.0145628954029
v 0.0383384695284 -0.0311257317536 0.0145605149662
v 0.0384179722228 -0.0304147893349 0.0147352103222
v 0.0385903370619 -0.0313302146498 0.0145537360559
v 0.0387180114366 -0.030652324763 0.0147321011803
v 0.0387586295674 -0.0314668457529 0.0145435906997
v 0.0388177260364 -0.0315148242159 0.014
v 0.0388177260364 -0.0315148242159 0.0145316234361
v 0.0389723723999 -0.0308536975755 0.0147232470934
v 0.0391423309619 -0.030988250587 0.0147099960159
v 0.0392020124722 -0.0310354993214 0.014
v 0.0392020124722 -0.0310354993214 0.0146943653043
f 4 1 19
f 22 24 23
f 7 5 6
f 7 8 5
f 10 11 12
f 10 12 8
f 10 8 4
f 2 1 4
f 2 7 6
f 20 4 19
f 20 24 22
f 9 11 10
f 9 10 4
f 3 2 4
f 3 7 2
f 3 4 8
f 3 8 7
f 13 11 9
f 13 9 4
f 13 12 11
f 13 15 12
f 17 16 21
f 17 21 22
f 17 22 23
f 17 23 5
f 17 5 8
f 17 8 12
f 17 12 15
f 18 20 22
f 18 4 20
f 18 13 4
f 18 21 16
f 18 22 21
f 14 18 16
f 14 13 18
f 14 16 17
f 14 15 13
f 14 17 15
f 5 23 19
f 5 19 1
f 2 5 1
f 2 6 5
f 20 19 23
f 20 23 24
