# Parametric PetalDock simulation geometry; SI units
v -0.0315148242159 -0.0388177260364 0.014
v -0.0315148242159 -0.0388177260364 0.0145316234361
v -0.0314668457529 -0.0387586295674 0.0145435906997
v -0.0313302146498 -0.0385903370619 0.0145537360559
v -0.0311257317536 -0.0383384695284 0.0145605149662
v -0.0310354993214 -0.0392020124722 0.014
v -0.0310354993214 -0.0392020124722 0.0146943653043
v -0.030988250587 -0.0391423309619 0.0147099960159
v -0.0308845277316 -0.0380413715157 0.0145628954029
v -0.0308536975755 -0.0389723723999 0.0147232470934
v -0.030652324763 -0.0387180114366 0.0147321011803
v -0.0304147893349 -0.0384179722228 0.0147352103222
v -0.0207997839825 -0.025619699184 0.0145628954029
v -0.0205585799605 -0.0253226011713 0.0145605149662
v -0.0204834295521 -0.0258733282317 0.0147352103222
v -0.0203540970643 -0.0250707336378 0.0145537360559
v -0.020245894124 -0.0255732890179 0.0147321011803
v -0.0202174659612 -0.0249024411324 0.0145435906997
v -0.0201694874982 -0.0248433446633 0.014
v -0.0201694874982 -0.0248433446633 0.0145316234361
v -0.0200445213115 -0.0253189280546 0.0147232470934
v -0.0199099683 -0.0251489694926 0.0147099960159
v -0.0198627195657 -0.0250892879822 0.014
v -0.0198627195657 -0.0250892879822 0.0146943653043
f 19 1 16
f 11 6 23
f 11 23 21
f 2 16 1
f 15 12 11
f 15 11 21
f 8 7 6
f 8 6 11
f 8 2 7
f 22 21 23
f 22 23 24
f 20 19 16
f 20 22 24
f 9 12 15
f 17 21 16
f 17 15 21
f 10 11 4
f 10 8 11
f 3 2 8
f 3 10 4
f 3 8 10
f 3 16 2
f 3 9 16
f 18 20 16
f 18 22 20
f 18 16 21
f 18 21 22
f 5 11 12
f 5 12 9
f 5 4 11
f 5 3 4
f 5 9 3
f 13 15 17
f 13 9 15
f 14 17 16
f 14 13 17
f 14 16 9
f 14 9 13
f 19 23 6
f 19 6 1
f 2 1 6
f 2 6 7
f 20 23 19
f 20 24 23
