# Parametric PetalDock simulation geometry; SI units
v -0.0469654997233 0.0171534788234 0.014
v -0.0469654997233 0.0171534788234 0.0238758139535
v -0.0468939990074 0.0171273642069 0.0240981263288
v -0.0467511929864 0.017729240095 0.014
v -0.0467511929864 0.017729240095 0.0234782059801
v -0.0466903821955 0.0170529960709 0.0242865936603
v -0.0466800185331 0.0177022489341 0.0236915678858
v -0.0464773308385 0.017625384611 0.0238724473755
v -0.0463856481015 0.01694169629 0.0244125235052
v -0.0461739872667 0.0175103490221 0.0239933071865
v -0.0460261897288 0.0168104092469 0.024456744186
v -0.0458161691267 0.0173746552931 0.0240357475083
v -0.0309972298173 0.0113212960234 0.024456744186
v -0.030855787371 0.0117012984627 0.0240357475083
v -0.0306377714446 0.0111900089804 0.0244125235052
v -0.0304979692311 0.0115656047336 0.0239933071865
v -0.0303330373506 0.0110787091995 0.0242865936603
v -0.0301946256593 0.0114505691448 0.0238724473755
v -0.0301294205388 0.0110043410635 0.0240981263288
v -0.0300579198229 0.010978226447 0.014
v -0.0300579198229 0.010978226447 0.0238758139535
v -0.0299919379646 0.0113737048217 0.0236915678858
v -0.0299207635113 0.0113467136608 0.014
v -0.0299207635113 0.0113467136608 0.0234782059801
f 2 1 11
f 22 23 4
f 5 22 4
f 6 2 11
f 12 14 22
f 12 22 5
f 9 6 11
f 9 8 6
f 3 5 2
f 3 2 6
f 24 23 22
f 10 12 8
f 10 8 9
f 10 11 12
f 10 9 11
f 7 5 3
f 7 8 12
f 7 12 5
f 7 6 8
f 7 3 6
f 18 22 14
f 17 22 18
f 17 18 15
f 13 14 12
f 13 15 14
f 13 12 11
f 13 17 15
f 16 14 15
f 16 18 14
f 16 15 18
f 19 22 17
f 19 21 24
f 19 24 22
f 19 20 21
f 19 17 13
f 19 1 20
f 19 11 1
f 19 13 11
f 20 4 23
f 20 1 4
f 5 4 1
f 5 1 2
f 24 20 23
f 24 21 20
