# Parametric PetalDock simulation geometry; SI units
v -0.0494114190723 0.0076492918142 0.014
v -0.0494114190723 0.0076492918142 0.0296681603956
v -0.0493361946659 0.0076376464608 0.0300208630661
v -0.0493137038319 0.0082558230591 0.014
v -0.0493137038319 0.0082558230591 0.0294168968142
v -0.0492386281881 0.0082432543169 0.029763943343
v -0.0491219736808 0.0076044833002 0.0303198699523
v -0.0490248308429 0.0082074615673 0.0300581551838
v -0.0488013693199 0.0075548511229 0.0305196599663
v -0.0487048605041 0.0081538939321 0.0302547412508
v -0.0484231906909 0.0074963059779 0.0305898168894
v -0.0483274297552 0.008090706598 0.0303237730974
v -0.0326115365877 0.0050485325974 0.0305898168894
v -0.032547044529 0.005448843219 0.0303237730974
v -0.0322333579588 0.0049899874524 0.0305196599663
v -0.0321696137801 0.0053856558849 0.0302547412508
v -0.0319127535979 0.0049403552751 0.0303198699523
v -0.0318496434413 0.0053320882496 0.0300581551838
v -0.0316985326127 0.0049071921145 0.0300208630661
v -0.0316358460962 0.0052962955001 0.029763943343
v -0.0316233082063 0.0048955467611 0.014
v -0.0316233082063 0.0048955467611 0.0296681603956
v -0.0315607704524 0.0052837267579 0.014
v -0.0315607704524 0.0052837267579 0.0294168968142
f 12 23 4
f 22 17 21
f 13 12 11
f 10 12 4
f 10 11 12
f 20 18 17
f 15 13 11
f 15 11 1
f 15 17 18
f 15 1 21
f 15 21 17
f 6 4 5
f 6 10 4
f 19 17 22
f 19 20 17
f 24 23 12
f 24 12 20
f 24 19 22
f 24 20 19
f 14 13 15
f 14 12 13
f 14 20 12
f 3 5 2
f 3 6 5
f 3 2 1
f 3 1 11
f 16 15 18
f 16 14 15
f 16 18 20
f 16 20 14
f 9 11 10
f 7 3 11
f 7 11 9
f 7 6 3
f 8 10 6
f 8 6 7
f 8 9 10
f 8 7 9
f 21 4 23
f 21 1 4
f 5 4 1
f 5 1 2
f 24 21 23
f 24 22 21
