# Parametric PetalDock simulation geometry; SI units
v 0.0216567419054 -0.0235581308691 0.014
v 0.0216567419054 -0.0235581308691 0.0140433978315
v 0.0217082581966 -0.023614170117 0.014044374751
v 0.0218549641818 -0.0237737563934 0.0140452029433
v 0.0219445613802 -0.0232902603212 0.014
v 0.0219445613802 -0.0232902603212 0.0140108494579
v 0.0219967623262 -0.0233456623682 0.0140110936877
v 0.0220745252047 -0.0240125941343 0.0140457563238
v 0.0221454180433 -0.0235034340497 0.0140113007358
v 0.0223335150899 -0.0242943224587 0.0140459506451
v 0.0223678970462 -0.0237395560575 0.0140114390809
v 0.0226303289234 -0.0240180809562 0.0140114876613
v 0.0331618860426 -0.0360733878933 0.0140459506451
v 0.0334208759278 -0.0363551162177 0.0140457563238
v 0.0336026096135 -0.0356632111168 0.0140114876613
v 0.0336404369507 -0.0365939539586 0.0140452029433
v 0.0337871429359 -0.036753540235 0.014044374751
v 0.0338386592271 -0.0368095794829 0.014
v 0.0338386592271 -0.0368095794829 0.0140433978315
v 0.0338650414907 -0.0359417360156 0.0140114390809
v 0.0340875204936 -0.0361778580233 0.0140113007358
v 0.0342361762107 -0.0363356297049 0.0140110936877
v 0.0342883771566 -0.0363910317518 0.014
v 0.0342883771566 -0.0363910317518 0.0140108494579
f 17 1 18
f 19 17 18
f 13 21 10
f 24 23 21
f 24 17 19
f 3 6 2
f 3 2 4
f 12 23 5
f 12 21 23
f 16 13 17
f 16 17 24
f 14 13 16
f 9 12 5
f 15 21 12
f 22 16 24
f 22 14 16
f 22 24 21
f 22 21 13
f 22 13 14
f 7 4 9
f 7 6 3
f 7 3 4
f 7 5 6
f 7 9 5
f 8 9 4
f 8 4 2
f 8 15 12
f 8 13 10
f 8 17 13
f 8 2 1
f 8 1 17
f 11 12 9
f 11 8 12
f 11 9 8
f 20 21 15
f 20 15 8
f 20 10 21
f 20 8 10
f 5 23 18
f 5 18 1
f 2 5 1
f 2 6 5
f 24 18 23
f 24 19 18
