# Parametric PetalDock simulation geometry; SI units
v -0.0338386592271 0.0368095794829 0.014
v -0.0338386592271 0.0368095794829 0.0140433978315
v -0.0337871429359 0.036753540235 0.014044374751
v -0.0336404369507 0.0365939539586 0.0140452029433
v -0.0334208759278 0.0363551162177 0.0140457563238
v -0.033383832629 0.0372225700214 0.014
v -0.033383832629 0.0372225700214 0.0140976451209
v -0.03333300877 0.0371659020328 0.0140998431897
v -0.0331882746651 0.0370045252545 0.0141017066225
v -0.0331618860426 0.0360733878933 0.0140459506451
v -0.0329716647695 0.0367630078382 0.0141029517285
v -0.0327161559764 0.036478118621 0.0141033889516
v -0.0223335150899 0.0242943224587 0.0140459506451
v -0.0220745252047 0.0240125941343 0.0140457563238
v -0.0220333295351 0.0245668962142 0.0141033889516
v -0.0218549641818 0.0237737563934 0.0140452029433
v -0.021777820742 0.024282006997 0.0141029517285
v -0.0217082581966 0.023614170117 0.014044374751
v -0.0216567419054 0.0235581308691 0.014
v -0.0216567419054 0.0235581308691 0.0140433978315
v -0.0215612108464 0.0240404895806 0.0141017066225
v -0.0214164767415 0.0238791128023 0.0140998431897
v -0.0213656528825 0.0238224448137 0.014
v -0.0213656528825 0.0238224448137 0.0140976451209
f 19 18 1
f 8 6 7
f 20 18 19
f 11 23 6
f 11 6 8
f 11 4 12
f 2 8 7
f 16 18 21
f 16 21 17
f 16 13 18
f 9 11 8
f 15 21 24
f 15 17 21
f 15 24 23
f 15 23 11
f 15 11 12
f 22 21 18
f 22 24 21
f 22 20 24
f 22 18 20
f 10 13 17
f 10 17 15
f 14 17 13
f 14 16 17
f 14 13 16
f 3 8 2
f 3 9 8
f 3 2 4
f 3 4 11
f 3 11 9
f 5 10 15
f 5 12 4
f 5 15 12
f 5 4 2
f 5 2 1
f 5 1 18
f 5 18 13
f 5 13 10
f 19 6 23
f 19 1 6
f 2 6 1
f 2 7 6
f 24 19 23
f 24 20 19
