# Parametric PetalDock simulation geometry; SI units
v 0.0314214107873 -0.0060576351934 0.014
v 0.0314214107873 -0.0060576351934 0.0288492729043
v 0.0314934679258 -0.0056711090632 0.014
v 0.0314934679258 -0.0056711090632 0.0291439343171
v 0.0314961549272 -0.0060720448816 0.0291835417703
v 0.0315683834727 -0.0056845992967 0.0294848362444
v 0.0317090082293 -0.0061130802018 0.0294669212317
v 0.0317817249006 -0.0057230162315 0.0297738389436
v 0.0320275657078 -0.0061744938985 0.0296562693342
v 0.0321010129109 -0.0057805112376 0.0299669443734
v 0.0324033298744 -0.0062469362932 0.0297227595457
v 0.0324776387985 -0.0058483312214 0.0300347539828
v 0.048114035268 -0.0092757538899 0.0297227595457
v 0.0482243727614 -0.008683885753 0.0300347539828
v 0.0484897994346 -0.0093481962845 0.0296562693342
v 0.048600998649 -0.0087517057368 0.0299669443734
v 0.0488083569131 -0.0094096099812 0.0294669212317
v 0.0489202866593 -0.0088092007428 0.0297738389436
v 0.0490212102152 -0.0094506453014 0.0291835417703
v 0.0490959543552 -0.0094650549896 0.014
v 0.0490959543552 -0.0094650549896 0.0288492729043
v 0.0491336280872 -0.0088476176777 0.0294848362444
v 0.0492085436341 -0.0088611079112 0.014
v 0.0492085436341 -0.0088611079112 0.0291439343171
f 13 1 20
f 24 23 18
f 14 18 12
f 14 12 13
f 16 18 14
f 17 18 16
f 22 21 24
f 22 24 18
f 11 1 13
f 11 13 12
f 2 1 11
f 8 12 18
f 8 23 3
f 8 18 23
f 19 20 21
f 19 17 20
f 19 21 22
f 19 18 17
f 19 22 18
f 15 13 20
f 15 20 17
f 15 17 16
f 15 14 13
f 15 16 14
f 6 3 4
f 6 8 3
f 6 4 2
f 10 11 12
f 10 12 8
f 10 8 7
f 5 6 2
f 5 11 7
f 5 2 11
f 5 7 8
f 5 8 6
f 9 7 11
f 9 10 7
f 9 11 10
f 3 23 20
f 3 20 1
f 21 20 23
f 21 23 24
f 2 3 1
f 2 4 3
