# Parametric PetalDock simulation geometry; SI units
v -0.000307176016 0.04999905642 0.014
v -0.000307176016 0.04999905642 0.031
v -0.0003067083684 0.0499229373891 0.0313826834324
v -0.0003053766206 0.0497061687286 0.0317071067812
v -0.0003033835192 0.0493817515022 0.0319238795325
v -0.0003010324957 0.0489990752916 0.032
v -0.0002027361706 0.0329993772372 0.032
v -0.0002003851471 0.0326167010267 0.0319238795325
v -0.0001983920457 0.0322922838003 0.0317071067812
v -0.0001970602979 0.0320755151398 0.0313826834324
v -0.0001965926503 0.0319993961088 0.014
v -0.0001965926503 0.0319993961088 0.031
v 0.0001965926503 0.0319993961088 0.014
v 0.0001965926503 0.0319993961088 0.031
v 0.0001970602979 0.0320755151398 0.0313826834324
v 0.0001983920457 0.0322922838003 0.0317071067812
v 0.0002003851471 0.0326167010267 0.0319238795325
v 0.0002027361706 0.0329993772372 0.032
v 0.0003010324957 0.0489990752916 0.032
v 0.0003033835192 0.0493817515022 0.0319238795325
v 0.0003053766206 0.0497061687286 0.0317071067812
v 0.0003067083684 0.0499229373891 0.0313826834324
v 0.000307176016 0.04999905642 0.014
v 0.000307176016 0.04999905642 0.031
f 14 18 16
f 17 16 18
f 7 12 9
f 5 7 6
f 5 12 7
f 5 11 12
f 5 1 11
f 3 2 1
f 3 1 5
f 3 5 4
f 10 9 12
f 8 7 9
f 22 23 24
f 20 13 23
f 20 22 21
f 20 23 22
f 20 14 13
f 20 18 14
f 20 19 18
f 15 14 16
f 13 11 1
f 13 1 23
f 24 23 1
f 24 1 2
f 14 11 13
f 14 12 11
f 7 18 19
f 7 19 6
f 8 16 17
f 8 9 16
f 8 18 7
f 8 17 18
f 22 24 2
f 22 2 3
f 22 3 4
f 22 4 21
f 20 6 19
f 20 5 6
f 20 21 4
f 20 4 5
f 15 16 9
f 15 9 10
f 15 12 14
f 15 10 12
