# Parametric PetalDock simulation geometry; SI units
v -0.0445090499704 -0.0227803527351 0.014
v -0.0445090499704 -0.0227803527351 0.0198997342193
v -0.0444412889766 -0.0227456717131 0.0200325418982
v -0.0442483219921 -0.0226469085183 0.0201451308118
v -0.0442257923366 -0.0233255073299 0.014
v -0.0442257923366 -0.0233255073299 0.0195021262458
v -0.0441584625769 -0.0232899963594 0.0196259834551
v -0.0439667236432 -0.0231888696714 0.019730984527
v -0.0439595264913 -0.0224990989519 0.0202203603188
v -0.0436797660501 -0.0230375228874 0.0198011440002
v -0.043618868971 -0.0223247456804 0.0202467774086
v -0.0433412764899 -0.0228589971833 0.0198257807309
v -0.0293759729805 -0.0150350328051 0.0202467774086
v -0.0291890229422 -0.0153948348377 0.0198257807309
v -0.0290353154602 -0.0148606795336 0.0202203603188
v -0.028850533382 -0.0152163091336 0.0198011440002
v -0.0287465199593 -0.0147128699672 0.0201451308118
v -0.0285635757889 -0.0150649623496 0.019730984527
v -0.0285535529749 -0.0146141067724 0.0200325418982
v -0.028485791981 -0.0145794257504 0.014
v -0.028485791981 -0.0145794257504 0.0198997342193
v -0.0283718368552 -0.0149638356616 0.0196259834551
v -0.0283045070955 -0.0149283246911 0.014
v -0.0283045070955 -0.0149283246911 0.0195021262458
f 22 5 23
f 6 5 22
f 24 22 23
f 9 4 8
f 7 8 4
f 7 6 8
f 16 14 12
f 18 6 22
f 18 12 6
f 18 16 12
f 18 22 17
f 13 20 1
f 13 9 11
f 13 11 12
f 13 12 14
f 10 12 11
f 10 11 9
f 10 9 8
f 10 8 6
f 10 6 12
f 3 2 6
f 3 6 7
f 3 7 4
f 3 4 9
f 3 1 2
f 3 13 1
f 3 9 13
f 19 20 13
f 19 22 24
f 19 17 22
f 15 17 19
f 15 19 13
f 15 18 17
f 15 16 18
f 15 14 16
f 15 13 14
f 21 20 19
f 21 19 24
f 20 23 5
f 20 5 1
f 6 1 5
f 6 2 1
f 21 23 20
f 21 24 23
