# Parametric PetalDock simulation geometry; SI units
v -0.0112679588888 -0.0487137876015 0.014
v -0.0112679588888 -0.0487137876015 0.0278350951711
v -0.0112508044428 -0.0486396252758 0.0281465340951
v -0.0112019527138 -0.0484284288404 0.0284105592661
v -0.0111288409347 -0.0481123510383 0.0285869752452
v -0.011042599711 -0.0477395118494 0.0286489242988
v -0.0106685713267 -0.0488485576639 0.014
v -0.0106685713267 -0.0488485576639 0.0281948533313
v -0.010652329394 -0.048774190163 0.0285143906957
v -0.0106060762828 -0.0485624094382 0.0287852813929
v -0.01053685361 -0.0482454571849 0.0289662847701
v -0.0104551999002 -0.0478715865107 0.0290298447037
v -0.0074368528666 -0.032151099817 0.0286489242988
v -0.0073506116429 -0.0317782606281 0.0285869752452
v -0.0072774998638 -0.031462182826 0.0284105592661
v -0.0072286481348 -0.0312509863906 0.0281465340951
v -0.0072114936888 -0.0311768240649 0.014
v -0.0072114936888 -0.0311768240649 0.0278350951711
v -0.0070412570756 -0.0322400480582 0.0290298447037
v -0.0069596033657 -0.0318661773839 0.0289662847701
v -0.006890380693 -0.0315492251307 0.0287852813929
v -0.0068441275818 -0.0313374444058 0.0285143906957
v -0.0068278856491 -0.0312630769049 0.014
v -0.0068278856491 -0.0312630769049 0.0281948533313
f 9 8 10
f 11 10 8
f 11 8 7
f 19 12 11
f 5 11 12
f 20 21 15
f 20 19 11
f 20 7 23
f 20 11 7
f 6 12 19
f 6 5 12
f 4 10 11
f 4 11 5
f 22 20 23
f 22 21 20
f 22 23 24
f 22 24 18
f 16 18 17
f 16 22 18
f 16 17 1
f 16 1 5
f 16 15 21
f 16 21 22
f 13 5 6
f 13 15 16
f 13 16 5
f 13 6 19
f 13 19 20
f 3 9 10
f 3 10 4
f 14 20 15
f 14 15 13
f 14 13 20
f 2 8 9
f 2 9 3
f 2 3 4
f 2 5 1
f 2 4 5
f 17 23 7
f 17 7 1
f 18 23 17
f 18 24 23
f 2 1 7
f 2 7 8
