# Parametric PetalDock simulation geometry; SI units
v -0.0410335400576 0.0285700645841 0.014
v -0.0410335400576 0.0285700645841 0.0158335583816
v -0.0409710702126 0.0285265692507 0.0158748332296
v -0.0407931711451 0.0284027050206 0.0159098243561
v -0.0406794076928 0.0290720792129 0.014
v -0.0406794076928 0.0290720792129 0.0155623219346
v -0.0406174769822 0.0290278196077 0.0155974910358
v -0.0405269263755 0.0282173291 0.0159332046793
v -0.0404411132396 0.0289017789157 0.0156273059602
v -0.0402128692565 0.0279986632924 0.015941414757
v -0.0401771662462 0.0287131456898 0.0156472276557
v -0.039865819539 0.0284906376286 0.0156542232249
v -0.027082136438 0.0188562426255 0.015941414757
v -0.0268484090773 0.0191875722805 0.0156542232249
v -0.026768079319 0.018637576818 0.0159332046793
v -0.02653706237 0.0189650642193 0.0156472276557
v -0.0265018345494 0.0184522008974 0.0159098243561
v -0.0263239354819 0.0183283366673 0.0158748332296
v -0.0262731153766 0.0187764309934 0.0156273059602
v -0.0262614656369 0.0182848413338 0.014
v -0.0262614656369 0.0182848413338 0.0158335583816
v -0.026096751634 0.0186503903015 0.0155974910358
v -0.0260348209234 0.0186061306963 0.014
v -0.0260348209234 0.0186061306963 0.0155623219346
f 2 1 10
f 20 10 1
f 21 10 20
f 13 12 10
f 13 10 21
f 13 21 17
f 3 2 10
f 3 6 2
f 3 7 6
f 4 7 3
f 4 3 10
f 4 10 8
f 18 21 24
f 18 17 21
f 11 10 12
f 11 8 10
f 14 12 13
f 14 11 12
f 14 16 11
f 15 13 17
f 15 17 19
f 15 19 16
f 15 14 13
f 15 16 14
f 22 24 7
f 22 11 16
f 22 16 19
f 22 18 24
f 22 19 17
f 22 17 18
f 9 22 7
f 9 11 22
f 9 7 4
f 9 4 8
f 9 8 11
f 20 5 23
f 20 1 5
f 6 5 1
f 6 1 2
f 24 20 23
f 24 21 20
f 24 23 5
f 24 5 6
f 24 6 7
