# Parametric PetalDock simulation geometry; SI units
v 0.0192402343607 -0.0255697747692 0.014
v 0.0192402343607 -0.0255697747692 0.0150849457879
v 0.0192860023493 -0.0256305992444 0.0151093687749
v 0.0194163385536 -0.0258038126953 0.0151300735835
v 0.0195529529312 -0.025331443537 0.014
v 0.0195529529312 -0.025331443537 0.0148788060882
v 0.0195994648036 -0.0253917010784 0.0148985887077
v 0.0196114004681 -0.026063044944 0.0151439080943
v 0.01973191941 -0.0255633000381 0.0149153596026
v 0.0198414916845 -0.0263688302307 0.0151487661284
v 0.0199301517372 -0.0258201160301 0.0149265655563
v 0.0201639827103 -0.0261230511476 0.014930500564
v 0.0294616088648 -0.0391537176153 0.0151487661284
v 0.0296917000812 -0.0394595029019 0.0151439080943
v 0.0298867619957 -0.0397187351507 0.0151300735835
v 0.0299404591759 -0.0387887729161 0.014930500564
v 0.0300170982 -0.0398919486015 0.0151093687749
v 0.0300628661886 -0.0399527730768 0.014
v 0.0300628661886 -0.0399527730768 0.0150849457879
v 0.0301742901491 -0.0390917080336 0.0149265655563
v 0.0303725224762 -0.0393485240255 0.0149153596026
v 0.0305049770826 -0.0395201229852 0.0148985887077
v 0.030551488955 -0.0395803805266 0.014
v 0.030551488955 -0.0395803805266 0.0148788060882
f 13 1 18
f 2 1 13
f 16 10 13
f 4 13 10
f 4 2 13
f 12 10 16
f 3 6 2
f 3 2 4
f 8 4 10
f 8 10 12
f 7 6 3
f 7 3 4
f 15 13 18
f 20 16 13
f 14 13 15
f 14 20 13
f 14 15 21
f 14 21 20
f 9 6 7
f 9 4 8
f 9 7 4
f 11 5 6
f 11 6 9
f 11 12 16
f 11 16 20
f 11 8 12
f 11 9 8
f 22 24 23
f 22 23 5
f 22 20 21
f 22 5 11
f 22 11 20
f 22 21 15
f 17 19 24
f 17 24 22
f 17 22 15
f 17 18 19
f 17 15 18
f 5 23 18
f 5 18 1
f 2 5 1
f 2 6 5
f 24 18 23
f 24 19 18
