# Parametric PetalDock simulation geometry; SI units
v -0.0295697047901 0.0403191339022 0.014
v -0.0295697047901 0.0403191339022 0.0153127844034
v -0.0295246875951 0.0402577516758 0.0153423362176
v -0.0293964894698 0.040082949884 0.015367389036
v -0.0292046274168 0.0398213405152 0.0153841287941
v -0.0290720792129 0.0406794076928 0.014
v -0.0290720792129 0.0406794076928 0.0155623219346
v -0.0290278196077 0.0406174769822 0.0155974910358
v -0.0289783106943 0.0395127512242 0.0153900070154
v -0.0289017789157 0.0404411132396 0.0156273059602
v -0.0287131456898 0.0401771662462 0.0156472276557
v -0.0284906376286 0.039865819539 0.0156542232249
v -0.0195160051615 0.0266106283755 0.0153900070154
v -0.019289688439 0.0263020390844 0.0153841287941
v -0.0191875722805 0.0268484090773 0.0156542232249
v -0.019097826386 0.0260404297156 0.015367389036
v -0.0189696282607 0.0258656279238 0.0153423362176
v -0.0189650642193 0.02653706237 0.0156472276557
v -0.0189246110657 0.0258042456974 0.014
v -0.0189246110657 0.0258042456974 0.0153127844034
v -0.0187764309934 0.0262731153766 0.0156273059602
v -0.0186503903015 0.026096751634 0.0155974910358
v -0.0186061306963 0.0260348209234 0.014
v -0.0186061306963 0.0260348209234 0.0155623219346
f 7 12 6
f 15 23 6
f 15 21 23
f 15 6 12
f 24 23 21
f 8 12 7
f 8 10 12
f 8 7 2
f 11 12 10
f 11 10 4
f 9 15 12
f 18 16 21
f 18 21 15
f 3 8 2
f 3 2 1
f 3 1 4
f 3 4 10
f 3 10 8
f 5 12 11
f 5 9 12
f 5 11 4
f 5 19 20
f 5 1 19
f 5 4 1
f 13 15 9
f 13 18 15
f 13 9 5
f 17 21 16
f 17 16 20
f 14 16 18
f 14 18 13
f 14 13 5
f 14 20 16
f 14 5 20
f 22 20 24
f 22 17 20
f 22 24 21
f 22 21 17
f 19 6 23
f 19 1 6
f 2 6 1
f 2 7 6
f 20 19 23
f 20 23 24
