# Parametric PetalDock simulation geometry; SI units
v 0.0232902603212 -0.0219445613802 0.014
v 0.0232902603212 -0.0219445613802 0.0140108494579
v 0.0233456623682 -0.0219967623262 0.0140110936877
v 0.0235034340497 -0.0221454180433 0.0140113007358
v 0.0235581308691 -0.0216567419054 0.014
v 0.0235581308691 -0.0216567419054 0.0140433978315
v 0.023614170117 -0.0217082581966 0.014044374751
v 0.0237395560575 -0.0223678970462 0.0140114390809
v 0.0237737563934 -0.0218549641818 0.0140452029433
v 0.0240125941343 -0.0220745252047 0.0140457563238
v 0.0240180809562 -0.0226303289234 0.0140114876613
v 0.0242943224587 -0.0223335150899 0.0140459506451
v 0.0356632111168 -0.0336026096135 0.0140114876613
v 0.0359417360156 -0.0338650414907 0.0140114390809
v 0.0360733878933 -0.0331618860426 0.0140459506451
v 0.0361778580233 -0.0340875204936 0.0140113007358
v 0.0363356297049 -0.0342361762107 0.0140110936877
v 0.0363551162177 -0.0334208759278 0.0140457563238
v 0.0363910317518 -0.0342883771566 0.014
v 0.0363910317518 -0.0342883771566 0.0140108494579
v 0.0365939539586 -0.0336404369507 0.0140452029433
v 0.036753540235 -0.0337871429359 0.014044374751
v 0.0368095794829 -0.0338386592271 0.014
v 0.0368095794829 -0.0338386592271 0.0140433978315
f 11 1 19
f 16 11 19
f 15 12 16
f 15 10 12
f 22 24 23
f 22 23 5
f 22 5 10
f 22 15 21
f 22 10 15
f 20 16 19
f 20 24 22
f 20 22 21
f 6 10 5
f 6 2 7
f 13 11 16
f 13 10 11
f 4 1 11
f 17 20 21
f 17 15 16
f 17 16 20
f 14 13 16
f 14 10 13
f 14 16 12
f 14 12 10
f 3 2 1
f 3 1 4
f 3 7 2
f 8 11 10
f 8 4 11
f 8 10 4
f 18 21 15
f 18 17 21
f 18 15 17
f 9 7 3
f 9 6 7
f 9 10 6
f 9 4 10
f 9 3 4
f 5 23 19
f 5 19 1
f 20 19 23
f 20 23 24
f 6 5 1
f 6 1 2
