# Parametric PetalDock simulation geometry; SI units
v 0.0219445613802 0.0232902603212 0.014
v 0.0219445613802 0.0232902603212 0.0140108494579
v 0.0219967623262 0.0233456623682 0.0140110936877
v 0.0221454180433 0.0235034340497 0.0140113007358
v 0.0222290678547 0.0230188736108 0.014
v 0.0222819455746 0.0230736300927 0.014
v 0.0223678970462 0.0237395560575 0.0140114390809
v 0.0224325285808 0.0232295633604 0.014
v 0.0226303289234 0.0240180809562 0.0140114876613
v 0.0226578919756 0.0234629339873 0.014
v 0.0229237262251 0.0237382134112 0.014
v 0.0336026096135 0.0356632111168 0.0140114876613
v 0.0338650414907 0.0359417360156 0.0140114390809
v 0.0340382601525 0.0352476502166 0.014
v 0.0340875204936 0.0361778580233 0.0140113007358
v 0.0342361762107 0.0363356297049 0.0140110936877
v 0.0342883771566 0.0363910317518 0.014
v 0.0342883771566 0.0363910317518 0.0140108494579
v 0.034304094402 0.0355229296404 0.014
v 0.0345294577969 0.0357563002674 0.014
v 0.034680040803 0.035912233535 0.014
v 0.0347329185229 0.0359669900169 0.014
f 13 17 1
f 2 1 5
f 2 13 1
f 7 22 9
f 18 22 17
f 12 9 22
f 12 22 13
f 12 7 9
f 12 13 7
f 20 22 7
f 20 7 5
f 4 5 7
f 15 13 22
f 3 4 7
f 3 13 2
f 3 7 13
f 3 2 5
f 3 5 4
f 16 13 15
f 16 17 13
f 16 18 17
f 16 22 18
f 16 15 22
f 20 17 22
f 20 1 17
f 20 5 1
