# Parametric PetalDock simulation geometry; SI units
v -0.0254700958929 -0.0430264362364 0.014
v -0.0254700958929 -0.0430264362364 0.0179116943522
v -0.0254313199808 -0.0429609323876 0.0179997496828
v -0.0253208955256 -0.0427743932083 0.0180743993876
v -0.0251556336495 -0.0424952175977 0.0181242787257
v -0.0249606939751 -0.0421659075117 0.0181417940199
v -0.0249395156714 -0.0433361345539 0.014
v -0.0249395156714 -0.0433361345539 0.0183093023256
v -0.0249015475196 -0.0432701592175 0.0184063081259
v -0.024793423371 -0.0430822773551 0.0184885456724
v -0.0246316041472 -0.0428010922772 0.0185434950443
v -0.024440725358 -0.0424694118628 0.0185627906977
v -0.0168102632893 -0.028397447916 0.0181417940199
v -0.016615323615 -0.02806813783 0.0181242787257
v -0.0164600803432 -0.0286018488056 0.0185627906977
v -0.0164500617389 -0.0277889622194 0.0180743993876
v -0.0163396372836 -0.0276024230401 0.0179997496828
v -0.0163008613715 -0.0275369191913 0.014
v -0.0163008613715 -0.0275369191913 0.0179116943522
v -0.016269201554 -0.0282701683912 0.0185434950443
v -0.0161073823301 -0.0279889833133 0.0184885456724
v -0.0159992581816 -0.0278011014509 0.0184063081259
v -0.0159612900297 -0.0277351261145 0.014
v -0.0159612900297 -0.0277351261145 0.0183093023256
f 21 10 8
f 21 7 23
f 21 8 7
f 9 8 10
f 11 21 12
f 11 10 21
f 15 12 21
f 24 21 23
f 5 11 12
f 20 21 16
f 20 15 21
f 6 12 15
f 6 5 12
f 4 10 11
f 4 11 5
f 4 18 1
f 17 16 21
f 17 19 16
f 14 5 6
f 14 4 5
f 14 16 19
f 14 20 16
f 14 19 18
f 14 18 4
f 3 9 10
f 3 10 4
f 22 24 19
f 22 19 17
f 22 21 24
f 22 17 21
f 13 6 15
f 13 14 6
f 13 15 20
f 13 20 14
f 2 8 9
f 2 9 3
f 2 4 1
f 2 3 4
f 18 23 7
f 18 7 1
f 19 23 18
f 19 24 23
f 2 1 7
f 2 7 8
