# Parametric PetalDock simulation geometry; SI units
v 0.0294822777384 0.0124416759063 0.014
v 0.0294822777384 0.0124416759063 0.0222853820598
v 0.0295524091372 0.0124712717247 0.0224718925566
v 0.029632920741 0.0120784936294 0.014
v 0.029632920741 0.0120784936294 0.0226829900332
v 0.0297034104842 0.0121072255226 0.0228784509996
v 0.0297521264641 0.0125555534846 0.0226300085209
v 0.0299041482891 0.0121890470318 0.0230441548058
v 0.0300510245665 0.0126816900522 0.0227356582306
v 0.0302045736448 0.0123115015741 0.0231548745493
v 0.0304035989177 0.0128304782784 0.0227727574751
v 0.0305589495142 0.0124559465553 0.0231937541528
v 0.0451447377869 0.0190513162316 0.0227727574751
v 0.0453754098847 0.01849519337 0.0231937541528
v 0.0454973121381 0.0192001044578 0.0227356582306
v 0.0457297857541 0.0186396383512 0.0231548745493
v 0.0457962102404 0.0193262410254 0.0226300085209
v 0.0459959275673 0.0194105227853 0.0224718925566
v 0.0460302111098 0.0187620928935 0.0230441548058
v 0.0460660589662 0.0194401186036 0.014
v 0.0460660589662 0.0194401186036 0.0222853820598
v 0.0462309489148 0.0188439144027 0.0228784509996
v 0.0463014386579 0.0188726462959 0.014
v 0.0463014386579 0.0188726462959 0.0226829900332
f 3 20 1
f 3 13 20
f 14 13 12
f 22 23 24
f 22 4 23
f 22 12 4
f 21 22 24
f 2 3 1
f 11 12 13
f 8 4 12
f 16 22 19
f 16 14 12
f 16 12 22
f 17 20 13
f 17 16 19
f 9 13 3
f 9 11 13
f 6 8 3
f 6 2 5
f 6 3 2
f 6 5 4
f 6 4 8
f 18 21 20
f 18 20 17
f 18 22 21
f 18 19 22
f 18 17 19
f 15 17 13
f 15 16 17
f 15 13 14
f 15 14 16
f 7 3 8
f 7 9 3
f 10 8 12
f 10 12 11
f 10 11 9
f 10 7 8
f 10 9 7
f 4 20 23
f 4 1 20
f 21 23 20
f 21 24 23
f 2 1 4
f 2 4 5
