# Parametric PetalDock simulation geometry; SI units
v -0.017729240095 0.0467511929864 0.014
v -0.017729240095 0.0467511929864 0.0234782059801
v -0.0177022489341 0.0466800185331 0.0236915678858
v -0.017625384611 0.0464773308385 0.0238724473755
v -0.0175103490221 0.0461739872667 0.0239933071865
v -0.0173746552931 0.0458161691267 0.0240357475083
v -0.0171534788234 0.0469654997233 0.014
v -0.0171534788234 0.0469654997233 0.0238758139535
v -0.0171273642069 0.0468939990074 0.0240981263288
v -0.0170529960709 0.0466903821955 0.0242865936603
v -0.01694169629 0.0463856481015 0.0244125235052
v -0.0168104092469 0.0460261897288 0.024456744186
v -0.0117012984627 0.030855787371 0.0240357475083
v -0.0115656047336 0.0304979692311 0.0239933071865
v -0.0114505691448 0.0301946256593 0.0238724473755
v -0.0113737048217 0.0299919379646 0.0236915678858
v -0.0113467136608 0.0299207635113 0.014
v -0.0113467136608 0.0299207635113 0.0234782059801
v -0.0113212960234 0.0309972298173 0.024456744186
v -0.0111900089804 0.0306377714446 0.0244125235052
v -0.0110787091995 0.0303330373506 0.0242865936603
v -0.0110043410635 0.0301294205388 0.0240981263288
v -0.010978226447 0.0300579198229 0.014
v -0.010978226447 0.0300579198229 0.0238758139535
f 8 12 7
f 10 12 8
f 9 10 8
f 22 23 7
f 22 7 12
f 11 12 10
f 11 10 4
f 3 10 9
f 3 4 10
f 3 6 4
f 24 23 22
f 5 11 4
f 5 4 6
f 5 12 11
f 5 6 12
f 2 9 8
f 2 3 9
f 2 6 3
f 18 24 22
f 19 22 12
f 19 21 22
f 19 12 6
f 19 6 13
f 20 15 21
f 20 21 19
f 20 19 13
f 16 17 18
f 16 15 13
f 16 18 22
f 16 1 17
f 16 21 15
f 16 22 21
f 16 2 1
f 16 13 6
f 16 6 2
f 14 13 15
f 14 15 20
f 14 20 13
f 17 7 23
f 17 1 7
f 2 7 1
f 2 8 7
f 18 17 23
f 18 23 24
