# Parametric PetalDock simulation geometry; SI units
v 0.0297790900212 -0.0117134878457 0.014
v 0.0297790900212 -0.0117134878457 0.0230805980066
v 0.0298499274666 -0.0117413514761 0.0232850094427
v 0.0299207635113 -0.0113467136608 0.014
v 0.0299207635113 -0.0113467136608 0.0234782059801
v 0.0299919379646 -0.0113737048217 0.0236915678858
v 0.030051655444 -0.0118207003819 0.0234583010906
v 0.0301946256593 -0.0114505691448 0.0238724473755
v 0.0303535626974 -0.0119394544117 0.0235740908679
v 0.0304979692311 -0.0115656047336 0.0239933071865
v 0.0307096865843 -0.0120795343409 0.0236147508306
v 0.030855787371 -0.0117012984627 0.0240357475083
v 0.0455992315949 -0.0179362782638 0.0236147508306
v 0.0458161691267 -0.0173746552931 0.0240357475083
v 0.0459553554818 -0.018076358193 0.0235740908679
v 0.0461739872667 -0.0175103490221 0.0239933071865
v 0.0462572627353 -0.0181951122227 0.0234583010906
v 0.0464589907126 -0.0182744611286 0.0232850094427
v 0.0464773308385 -0.017625384611 0.0238724473755
v 0.0465298281581 -0.018302324759 0.014
v 0.0465298281581 -0.018302324759 0.0230805980066
v 0.0466800185331 -0.0177022489341 0.0236915678858
v 0.0467511929864 -0.017729240095 0.014
v 0.0467511929864 -0.017729240095 0.0234782059801
f 3 1 20
f 22 23 19
f 22 24 23
f 2 1 3
f 10 11 12
f 10 4 5
f 21 24 22
f 14 10 12
f 9 3 11
f 9 11 10
f 6 10 5
f 6 5 2
f 6 2 3
f 15 20 21
f 15 3 20
f 15 11 3
f 18 21 22
f 18 19 17
f 18 22 19
f 18 17 15
f 18 15 21
f 7 3 9
f 7 9 10
f 13 12 11
f 13 11 15
f 13 14 12
f 13 15 14
f 16 17 19
f 16 15 17
f 16 14 15
f 16 10 14
f 16 19 23
f 16 23 4
f 16 4 10
f 8 10 6
f 8 7 10
f 8 6 3
f 8 3 7
f 4 23 20
f 4 20 1
f 2 4 1
f 2 5 4
f 21 20 23
f 21 23 24
