# Parametric PetalDock simulation geometry; SI units
v 0.0120784936294 -0.029632920741 0.014
v 0.0120784936294 -0.029632920741 0.0226829900332
v 0.0121072255226 -0.0297034104842 0.0228784509996
v 0.0121890470318 -0.0299041482891 0.0230441548058
v 0.0123115015741 -0.0302045736448 0.0231548745493
v 0.0124416759063 -0.0294822777384 0.014
v 0.0124416759063 -0.0294822777384 0.0222853820598
v 0.0124559465553 -0.0305589495142 0.0231937541528
v 0.0124712717247 -0.0295524091372 0.0224718925566
v 0.0125555534846 -0.0297521264641 0.0226300085209
v 0.0126816900522 -0.0300510245665 0.0227356582306
v 0.0128304782784 -0.0304035989177 0.0227727574751
v 0.01849519337 -0.0453754098847 0.0231937541528
v 0.0186396383512 -0.0457297857541 0.0231548745493
v 0.0187620928935 -0.0460302111098 0.0230441548058
v 0.0188439144027 -0.0462309489148 0.0228784509996
v 0.0188726462959 -0.0463014386579 0.014
v 0.0188726462959 -0.0463014386579 0.0226829900332
v 0.0190513162316 -0.0451447377869 0.0227727574751
v 0.0192001044578 -0.0454973121381 0.0227356582306
v 0.0193262410254 -0.0457962102404 0.0226300085209
v 0.0194105227853 -0.0459959275673 0.0224718925566
v 0.0194401186036 -0.0460660589662 0.014
v 0.0194401186036 -0.0460660589662 0.0222853820598
f 16 1 17
f 16 8 1
f 14 8 16
f 14 16 15
f 14 15 21
f 18 16 17
f 4 1 8
f 9 23 6
f 9 6 7
f 13 8 14
f 24 16 18
f 19 21 23
f 19 23 9
f 19 8 13
f 5 4 8
f 3 7 2
f 3 9 7
f 3 4 9
f 3 2 1
f 3 1 4
f 22 24 23
f 22 23 21
f 22 16 24
f 22 15 16
f 22 21 15
f 12 8 19
f 12 5 8
f 20 14 21
f 20 21 19
f 20 13 14
f 20 19 13
f 11 19 9
f 11 12 19
f 11 5 12
f 10 9 4
f 10 11 9
f 10 4 5
f 10 5 11
f 6 23 17
f 6 17 1
f 2 6 1
f 2 7 6
f 24 17 23
f 24 18 17
