# Parametric PetalDock simulation geometry; SI units
v -0.0498406192327 0.0039890693772 0.014
v -0.0498406192327 0.0039890693772 0.0307200646527
v -0.0497878440469 0.0046011504169 0.014
v -0.0497878440469 0.0046011504169 0.0305989945659
v -0.049764741408 0.0039829963807 0.0310964465192
v -0.0497120465676 0.0045941455825 0.0309726510491
v -0.0495486596449 0.0039657019499 0.0314155276585
v -0.0494961936089 0.0045741975018 0.0312894217199
v -0.0492252704329 0.0039398190049 0.0316287308595
v -0.049173146827 0.0045443430892 0.0315010811153
v -0.0488438068481 0.0039092879897 0.0317035978676
v -0.048792087166 0.0045091274085 0.031575406011
v -0.0328948086936 0.002632785789 0.0317035978676
v -0.032859977071 0.0030367592751 0.031575406011
v -0.0325133451088 0.0026022547738 0.0316287308595
v -0.03247891741 0.0030015435945 0.0315010811153
v -0.0321899558969 0.0025763718288 0.0314155276585
v -0.032155870628 0.0029716891819 0.0312894217199
v -0.0319738741337 0.002559077398 0.0310964465192
v -0.0319400176693 0.0029517411012 0.0309726510491
v -0.031897996309 0.0025530044014 0.014
v -0.031897996309 0.0025530044014 0.0307200646527
v -0.03186422019 0.0029447362668 0.014
v -0.03186422019 0.0029447362668 0.0305989945659
f 16 23 3
f 16 12 14
f 16 8 12
f 13 12 11
f 13 14 12
f 5 4 2
f 9 8 7
f 9 7 5
f 9 5 2
f 9 13 11
f 24 23 16
f 15 16 14
f 15 14 13
f 6 4 5
f 6 3 4
f 6 7 8
f 6 5 7
f 6 16 3
f 6 8 16
f 10 12 8
f 10 8 9
f 10 11 12
f 10 9 11
f 17 13 9
f 17 15 13
f 17 9 2
f 19 22 24
f 19 17 22
f 18 16 15
f 18 15 17
f 20 19 24
f 20 24 16
f 20 16 18
f 20 17 19
f 20 18 17
f 21 3 23
f 21 1 3
f 4 3 1
f 4 1 2
f 24 21 23
f 24 22 21
f 17 1 21
f 17 2 1
f 17 21 22
