# Parametric PetalDock simulation geometry; SI units
v -0.0460660589662 -0.0194401186036 0.014
v -0.0460660589662 -0.0194401186036 0.0222853820598
v -0.0459959275673 -0.0194105227853 0.0224718925566
v -0.0458237246186 -0.0200046560101 0.014
v -0.0458237246186 -0.0200046560101 0.0218877740864
v -0.0457962102404 -0.0193262410254 0.0226300085209
v -0.0457539621518 -0.0199742007347 0.0220653341135
v -0.0455552954545 -0.0198874714483 0.0222158622361
v -0.0454973121381 -0.0192001044578 0.0227356582306
v -0.0452579697306 -0.0197576718984 0.022316441912
v -0.0451447377869 -0.0190513162316 0.0227727574751
v -0.0449072501262 -0.0196045628899 0.0223517607973
v -0.0304035989177 -0.0128304782784 0.0227727574751
v -0.0302436582483 -0.0132030729667 0.0223517607973
v -0.0300510245665 -0.0126816900522 0.0227356582306
v -0.0298929386438 -0.0130499639582 0.022316441912
v -0.0297521264641 -0.0125555534846 0.0226300085209
v -0.0295956129199 -0.0129201644083 0.0222158622361
v -0.0295524091372 -0.0124712717247 0.0224718925566
v -0.0294822777384 -0.0124416759063 0.014
v -0.0294822777384 -0.0124416759063 0.0222853820598
v -0.0293969462227 -0.0128334351218 0.0220653341135
v -0.0293271837559 -0.0128029798465 0.014
v -0.0293271837559 -0.0128029798465 0.0218877740864
f 8 4 23
f 13 11 12
f 13 17 21
f 13 12 14
f 5 4 8
f 10 12 11
f 10 8 12
f 16 12 8
f 16 14 12
f 16 8 23
f 3 2 5
f 9 10 11
f 9 6 8
f 9 8 10
f 9 11 13
f 9 2 3
f 9 3 6
f 9 21 2
f 9 13 21
f 15 13 14
f 15 14 16
f 15 17 13
f 15 18 17
f 15 16 18
f 7 5 8
f 7 3 5
f 7 8 6
f 7 6 3
f 22 17 18
f 19 21 17
f 19 17 22
f 24 22 18
f 24 21 19
f 24 19 22
f 20 23 4
f 20 4 1
f 21 20 1
f 21 1 2
f 5 1 4
f 5 2 1
f 24 23 20
f 24 20 21
f 24 18 16
f 24 16 23
