# Parametric PetalDock simulation geometry; SI units
v -0.0249395156714 0.0433361345539 0.014
v -0.0249395156714 0.0433361345539 0.0183093023256
v -0.0249015475196 0.0432701592175 0.0184063081259
v -0.024793423371 0.0430822773551 0.0184885456724
v -0.0246316041472 0.0428010922772 0.0185434950443
v -0.024440725358 0.0424694118628 0.0185627906977
v -0.0244051702972 0.0436392903559 0.014
v -0.0244051702972 0.0436392903559 0.018706910299
v -0.0243680156377 0.0435728534922 0.0188128665689
v -0.0242622081195 0.0433836573115 0.0189026919573
v -0.024103855978 0.0431005052172 0.0189627113629
v -0.0239170668912 0.0427665045488 0.0189837873754
v -0.0164600803432 0.0286018488056 0.0185627906977
v -0.016269201554 0.0282701683912 0.0185434950443
v -0.0161074123961 0.0288019316349 0.0189837873754
v -0.0161073823301 0.0279889833133 0.0184885456724
v -0.0159992581816 0.0278011014509 0.0184063081259
v -0.0159612900297 0.0277351261145 0.014
v -0.0159612900297 0.0277351261145 0.0183093023256
v -0.0159206233094 0.0284679309665 0.0189627113629
v -0.0157622711679 0.0281847788722 0.0189026919573
v -0.0156564636496 0.0279955826914 0.0188128665689
v -0.0156193089902 0.0279291458278 0.014
v -0.0156193089902 0.0279291458278 0.018706910299
f 12 23 7
f 9 12 7
f 9 7 8
f 9 10 12
f 11 12 10
f 11 10 4
f 3 10 9
f 3 4 10
f 3 1 6
f 24 23 22
f 5 11 4
f 5 4 3
f 5 3 6
f 5 12 11
f 5 6 12
f 2 9 8
f 2 3 9
f 2 1 3
f 19 24 22
f 14 13 6
f 15 6 13
f 15 12 6
f 15 21 22
f 15 23 12
f 15 22 23
f 17 16 14
f 17 19 22
f 17 18 19
f 17 21 16
f 17 22 21
f 17 1 18
f 17 6 1
f 17 14 6
f 20 13 14
f 20 15 13
f 20 21 15
f 20 16 21
f 20 14 16
f 18 7 23
f 18 1 7
f 2 7 1
f 2 8 7
f 19 18 23
f 19 23 24
