# Parametric PetalDock simulation geometry; SI units
v 0.0117134878457 0.0297790900212 0.014
v 0.0117134878457 0.0297790900212 0.0230805980066
v 0.0117413514761 0.0298499274666 0.0232850094427
v 0.0118207003819 0.030051655444 0.0234583010906
v 0.0119394544117 0.0303535626974 0.0235740908679
v 0.0120784936294 0.029632920741 0.014
v 0.0120784936294 0.029632920741 0.0226829900332
v 0.0120795343409 0.0307096865843 0.0236147508306
v 0.0121072255226 0.0297034104842 0.0228784509996
v 0.0121890470318 0.0299041482891 0.0230441548058
v 0.0123115015741 0.0302045736448 0.0231548745493
v 0.0124559465553 0.0305589495142 0.0231937541528
v 0.0179362782638 0.0455992315949 0.0236147508306
v 0.018076358193 0.0459553554818 0.0235740908679
v 0.0181951122227 0.0462572627353 0.0234583010906
v 0.0182744611286 0.0464589907126 0.0232850094427
v 0.018302324759 0.0465298281581 0.014
v 0.018302324759 0.0465298281581 0.0230805980066
v 0.01849519337 0.0453754098847 0.0231937541528
v 0.0186396383512 0.0457297857541 0.0231548745493
v 0.0187620928935 0.0460302111098 0.0230441548058
v 0.0188439144027 0.0462309489148 0.0228784509996
v 0.0188726462959 0.0463014386579 0.014
v 0.0188726462959 0.0463014386579 0.0226829900332
f 15 17 1
f 19 6 23
f 4 1 2
f 4 15 1
f 12 19 8
f 13 8 19
f 3 2 7
f 3 4 2
f 11 19 12
f 11 7 6
f 11 6 19
f 14 15 13
f 21 23 24
f 21 19 23
f 21 15 14
f 16 24 18
f 16 18 17
f 16 17 15
f 5 15 4
f 5 12 8
f 5 11 12
f 5 4 10
f 5 10 11
f 5 8 13
f 5 13 15
f 20 19 21
f 20 21 14
f 20 13 19
f 20 14 13
f 22 21 24
f 22 24 16
f 22 15 21
f 22 16 15
f 9 4 3
f 9 10 4
f 9 3 7
f 9 7 11
f 9 11 10
f 6 17 23
f 6 1 17
f 2 1 6
f 2 6 7
f 24 23 17
f 24 17 18
