# Parametric PetalDock simulation geometry; SI units
v -0.0384275792354 0.0319893912744 0.014
v -0.0384275792354 0.0319893912744 0.0143905804837
v -0.0383690767295 0.031940690326 0.014399372759
v -0.0382024756879 0.0318020017588 0.01440682649
v -0.0380316309702 0.0324591288507 0.014
v -0.0380316309702 0.0324591288507 0.014271236447
v -0.0379737312596 0.0324097127694 0.0142773421937
v -0.0379531396091 0.0315944396499 0.0144118069139
v -0.037808846834 0.0322689876761 0.0142825183959
v -0.0376590276507 0.0313496034489 0.0144135558062
v -0.0375620798524 0.0320583776905 0.0142859770236
v -0.0372709983508 0.0318099462737 0.0142871915321
v -0.0253622022954 0.0211129982411 0.0144135558062
v -0.0251008764403 0.0214230250415 0.0142871915321
v -0.025068090337 0.0208681620401 0.0144118069139
v -0.0248187542581 0.0206605999312 0.01440682649
v -0.0248097949388 0.0211745936247 0.0142859770236
v -0.0246521532166 0.020521911364 0.014399372759
v -0.0245936507107 0.0204732104156 0.014
v -0.0245936507107 0.0204732104156 0.0143905804837
v -0.0245630279572 0.020963983639 0.0142825183959
v -0.0243981435315 0.0208232585457 0.0142773421937
v -0.0243402438209 0.0207738424644 0.014
v -0.0243402438209 0.0207738424644 0.014271236447
f 14 23 5
f 8 1 19
f 20 8 19
f 3 2 1
f 3 1 8
f 13 10 8
f 13 8 20
f 4 3 8
f 4 7 3
f 6 2 3
f 6 3 7
f 11 8 10
f 11 6 7
f 18 20 24
f 18 13 20
f 9 8 11
f 9 11 7
f 9 4 8
f 9 7 4
f 12 10 13
f 12 11 10
f 12 13 14
f 12 6 11
f 12 5 6
f 12 14 5
f 15 13 18
f 15 18 16
f 15 14 13
f 15 16 21
f 22 16 18
f 22 21 16
f 22 18 24
f 22 24 23
f 22 23 14
f 17 14 15
f 17 15 21
f 17 22 14
f 17 21 22
f 19 5 23
f 19 1 5
f 24 19 23
f 24 20 19
f 6 5 1
f 6 1 2
