# Parametric PetalDock simulation geometry; SI units
v -0.0450553647121 -0.0216798088244 0.014
v -0.0450553647121 -0.0216798088244 0.0206949501661
v -0.0449867720036 -0.0216468032807 0.0208456587843
v -0.0447914364962 -0.0215528114446 0.0209734233815
v -0.044785588012 -0.0222317589592 0.014
v -0.044785588012 -0.0222317589592 0.0202973421927
v -0.044717406014 -0.0221979131215 0.0204391003412
v -0.0445232401114 -0.0221015283304 0.0205592770967
v -0.0444990962501 -0.021412142721 0.0210587929561
v -0.0442326503025 -0.0219572782966 0.0206395766375
v -0.0441542574178 -0.0212462126479 0.0210887707641
v -0.0438898762517 -0.0217871237801 0.0206677740864
v -0.02973654071 -0.0143086738241 0.0210887707641
v -0.0295584880879 -0.0146729609131 0.0206677740864
v -0.0293917018777 -0.014142743751 0.0210587929561
v -0.0292157140371 -0.0145028063966 0.0206395766375
v -0.0290993616316 -0.0140020750274 0.0209734233815
v -0.0289251242282 -0.0143585563627 0.0205592770967
v -0.0289040261242 -0.0139080831913 0.0208456587843
v -0.0288354334157 -0.0138750776476 0.014
v -0.0288354334157 -0.0138750776476 0.0206949501661
v -0.0287309583256 -0.0142621715716 0.0204391003412
v -0.0286627763277 -0.0142283257339 0.014
v -0.0286627763277 -0.0142283257339 0.0202973421927
f 12 5 23
f 13 11 12
f 10 5 12
f 10 12 11
f 22 17 18
f 15 11 13
f 15 21 20
f 15 17 21
f 15 18 17
f 7 6 5
f 7 5 10
f 19 21 17
f 19 17 22
f 24 22 23
f 24 21 19
f 24 19 22
f 14 15 13
f 14 13 12
f 3 2 6
f 3 6 7
f 3 11 15
f 3 1 2
f 3 20 1
f 3 15 20
f 16 18 15
f 16 15 14
f 16 22 18
f 16 23 22
f 16 12 23
f 16 14 12
f 9 10 11
f 4 11 3
f 4 9 11
f 4 3 7
f 8 7 10
f 8 4 7
f 8 10 9
f 8 9 4
f 20 23 5
f 20 5 1
f 6 1 5
f 6 2 1
f 24 23 20
f 24 20 21
