# Parametric PetalDock simulation geometry; SI units
v -0.0475657531996 -0.0154110065392 0.014
v -0.0475657531996 -0.0154110065392 0.0250686378738
v -0.0474933386522 -0.0153875446788 0.0253178016581
v -0.047372810576 -0.0159942745422 0.014
v -0.047372810576 -0.0159942745422 0.0246710299003
v -0.0473006897663 -0.0159699247091 0.024911243215
v -0.0472871194684 -0.015320730953 0.0255290325149
v -0.0470953070765 -0.0159005822511 0.02511488623
v -0.0469784906496 -0.015220737146 0.0256701724611
v -0.0467879301595 -0.0157968039289 0.0252509561424
v -0.0466144381356 -0.0151027864084 0.0257197342193
v -0.0464253543645 -0.0156743890513 0.0252987375415
v -0.0313933971118 -0.0101712643159 0.0257197342193
v -0.0312660549802 -0.0105562211978 0.0252987375415
v -0.0310293445978 -0.0100533135783 0.0256701724611
v -0.0309034791851 -0.0104338063202 0.0252509561424
v -0.030720715779 -0.0099533197713 0.0255290325149
v -0.0305961022681 -0.0103300279981 0.02511488623
v -0.0305144965952 -0.0098865060455 0.0253178016581
v -0.0304420820478 -0.0098630441851 0.014
v -0.0304420820478 -0.0098630441851 0.0250686378738
v -0.0303907195784 -0.0102606855401 0.024911243215
v -0.0303185987686 -0.010236335707 0.014
v -0.0303185987686 -0.010236335707 0.0246710299003
f 2 11 1
f 18 4 23
f 13 11 12
f 5 4 18
f 9 11 2
f 9 2 7
f 24 18 23
f 15 11 13
f 15 18 17
f 8 9 7
f 3 2 5
f 3 7 2
f 22 17 18
f 22 18 24
f 14 15 13
f 14 12 18
f 14 13 12
f 10 18 12
f 10 8 18
f 10 9 8
f 10 12 11
f 10 11 9
f 6 5 18
f 6 18 8
f 6 3 5
f 6 8 7
f 6 7 3
f 19 24 21
f 19 22 24
f 19 17 22
f 19 21 20
f 19 20 1
f 19 1 11
f 19 11 15
f 19 15 17
f 16 18 15
f 16 14 18
f 16 15 14
f 20 23 4
f 20 4 1
f 5 1 4
f 5 2 1
f 24 23 20
f 24 20 21
