# Parametric PetalDock simulation geometry; SI units
v -0.042710242159 0.0259968308592 0.014
v -0.042710242159 0.0259968308592 0.0175152243529
v -0.042645219687 0.0259572530409 0.0175943548306
v -0.0424600513529 0.0258445449498 0.0176614384104
v -0.0423876000578 0.0265196410484 0.014
v -0.0423876000578 0.0265196410484 0.0171354933272
v -0.0423230687792 0.0264792672989 0.0172060757594
v -0.0421829273571 0.0256758653713 0.0177062622254
v -0.0421392992455 0.0263642925878 0.0172659126562
v -0.0418642687023 0.0261922207727 0.0173058943924
v -0.0418560373158 0.025476894242 0.017722002256
v -0.0415398480567 0.0259892482274 0.0173199341111
v -0.0281887598249 0.0171579083671 0.017722002256
v -0.0279758160382 0.0175029630919 0.0173199341111
v -0.0278618697836 0.0169589372378 0.0177062622254
v -0.0276513953926 0.0172999905467 0.0173058943924
v -0.0275847457878 0.0167902576593 0.0176614384104
v -0.0273995774537 0.0166775495683 0.0175943548306
v -0.0273763648494 0.0171279187315 0.0172659126562
v -0.0273345549817 0.0166379717499 0.014
v -0.0273345549817 0.0166379717499 0.0175152243529
v -0.0271925953157 0.0170129440205 0.0172060757594
v -0.027128064037 0.016972570271 0.014
v -0.027128064037 0.016972570271 0.0171354933272
f 2 1 11
f 10 11 12
f 21 17 20
f 13 12 11
f 6 10 5
f 4 2 11
f 15 13 11
f 15 11 1
f 15 1 20
f 15 20 17
f 15 17 19
f 15 19 16
f 8 11 10
f 8 4 11
f 3 6 2
f 3 2 4
f 9 8 10
f 9 4 8
f 18 21 24
f 18 17 21
f 14 10 12
f 14 16 10
f 14 12 13
f 14 13 15
f 14 15 16
f 22 24 10
f 22 10 16
f 22 16 19
f 22 18 24
f 22 19 17
f 22 17 18
f 7 3 4
f 7 4 9
f 7 6 3
f 7 10 6
f 7 9 10
f 20 5 23
f 20 1 5
f 6 5 1
f 6 1 2
f 24 20 23
f 24 21 20
f 24 23 5
f 24 5 10
