# Parametric PetalDock simulation geometry; SI units
v -0.0118656453117 0.0485716631519 0.014
v -0.0118656453117 0.0485716631519 0.0274536380952
v -0.0118475809423 0.0484977171977 0.027756490119
v -0.0117961379707 0.0482871369366 0.0280132356675
v -0.0117191481229 0.0479719813042 0.0281847875584
v -0.0116283324054 0.0476002298888 0.0282450285714
v -0.0112679588888 0.0487137876015 0.014
v -0.0112679588888 0.0487137876015 0.0278350951711
v -0.0112508044428 0.0486396252758 0.0281465340951
v -0.0112019527138 0.0484284288404 0.0284105592661
v -0.0111288409347 0.0481123510383 0.0285869752452
v -0.011042599711 0.0477395118494 0.0286489242988
v -0.0078313259057 0.0320572976802 0.0282450285714
v -0.0077405101882 0.0316855462648 0.0281847875584
v -0.0076635203404 0.0313703906325 0.0280132356675
v -0.0076120773688 0.0311598103713 0.027756490119
v -0.0075940129995 0.0310858644172 0.014
v -0.0075940129995 0.0310858644172 0.0274536380952
v -0.0074368528666 0.032151099817 0.0286489242988
v -0.0073506116429 0.0317782606281 0.0285869752452
v -0.0072774998638 0.031462182826 0.0284105592661
v -0.0072286481348 0.0312509863906 0.0281465340951
v -0.0072114936888 0.0311768240649 0.014
v -0.0072114936888 0.0311768240649 0.0278350951711
f 9 7 8
f 9 23 7
f 5 12 11
f 10 11 12
f 10 12 9
f 2 9 8
f 18 13 2
f 20 15 21
f 20 19 13
f 20 21 24
f 20 24 23
f 20 23 9
f 20 9 12
f 20 12 19
f 4 5 11
f 4 11 10
f 4 2 13
f 14 13 18
f 14 15 20
f 14 20 13
f 16 21 15
f 16 15 14
f 16 14 18
f 6 13 19
f 6 5 4
f 6 4 13
f 6 12 5
f 6 19 12
f 3 10 9
f 3 4 10
f 3 9 2
f 3 2 4
f 22 18 24
f 22 16 18
f 22 24 21
f 22 21 16
f 17 7 23
f 17 1 7
f 2 7 1
f 2 8 7
f 18 17 23
f 18 23 24
f 18 1 17
f 18 2 1
