# Parametric PetalDock simulation geometry; SI units
v -0.0285700645841 -0.0410335400576 0.014
v -0.0285700645841 -0.0410335400576 0.0158335583816
v -0.0285265692507 -0.0409710702126 0.0158748332296
v -0.0284027050206 -0.0407931711451 0.0159098243561
v -0.0282173291 -0.0405269263755 0.0159332046793
v -0.0280637366936 -0.0413814775327 0.014
v -0.0280637366936 -0.0413814775327 0.0161264937444
v -0.0280210121985 -0.0413184779844 0.0161743627988
v -0.0279986632924 -0.0402128692565 0.015941414757
v -0.0278993431302 -0.0411390704497 0.0162149442236
v -0.0277172525014 -0.0408705680992 0.0162420598647
v -0.0275024619597 -0.0405538479821 0.0162515816117
v -0.0188562426255 -0.027082136438 0.015941414757
v -0.018637576818 -0.026768079319 0.0159332046793
v -0.0185220662178 -0.0273117751716 0.0162515816117
v -0.0184522008974 -0.0265018345494 0.0159098243561
v -0.0183283366673 -0.0263239354819 0.0158748332296
v -0.0183072756761 -0.0269950550544 0.0162420598647
v -0.0182848413338 -0.0262614656369 0.014
v -0.0182848413338 -0.0262614656369 0.0158335583816
v -0.0181251850473 -0.026726552704 0.0162149442236
v -0.018003515979 -0.0265471451693 0.0161743627988
v -0.0179607914839 -0.0264841456209 0.014
v -0.0179607914839 -0.0264841456209 0.0161264937444
f 7 6 12
f 10 7 12
f 8 7 10
f 22 21 12
f 22 6 23
f 22 12 6
f 11 10 12
f 11 4 10
f 3 8 10
f 3 10 4
f 3 4 1
f 24 22 23
f 5 4 11
f 5 11 12
f 5 12 9
f 15 9 12
f 2 7 8
f 2 8 3
f 2 3 1
f 20 22 24
f 13 5 9
f 13 9 15
f 17 20 19
f 17 22 20
f 17 16 21
f 17 21 22
f 14 4 5
f 14 5 13
f 14 16 17
f 14 1 4
f 14 19 1
f 14 17 19
f 18 13 15
f 18 14 13
f 18 12 21
f 18 15 12
f 18 21 16
f 18 16 14
f 19 23 6
f 19 6 1
f 2 1 6
f 2 6 7
f 20 23 19
f 20 24 23
