# Parametric PetalDock simulation geometry; SI units
v -0.0489759529928 0.0100675731158 0.014
v -0.0489759529928 0.0100675731158 0.0285329125757
v -0.0489013915441 0.0100522461484 0.0288600599208
v -0.0488485576639 0.0106685713267 0.014
v -0.0488485576639 0.0106685713267 0.0281948533313
v -0.048774190163 0.010652329394 0.0285143906957
v -0.0486890585025 0.0100085986379 0.0291374020482
v -0.0485624094382 0.0106060762828 0.0287852813929
v -0.0483712796489 0.0099432755222 0.0293227161331
v -0.0482454571849 0.01053685361 0.0289662847701
v -0.047996433933 0.0098662216535 0.029387789786
v -0.0478715865107 0.0104551999002 0.0290298447037
v -0.0323241289753 0.0066445982564 0.029387789786
v -0.0322400480582 0.0070412570756 0.0290298447037
v -0.0319492832594 0.0065675443877 0.0293227161331
v -0.0318661773839 0.0069596033657 0.0289662847701
v -0.0316315044058 0.006502221272 0.0291374020482
v -0.0315492251307 0.006890380693 0.0287852813929
v -0.0314191713642 0.0064585737616 0.0288600599208
v -0.0313446099154 0.0064432467941 0.014
v -0.0313446099154 0.0064432467941 0.0285329125757
v -0.0313374444058 0.0068441275818 0.0285143906957
v -0.0312630769049 0.0068278856491 0.014
v -0.0312630769049 0.0068278856491 0.0281948533313
f 6 23 4
f 21 17 20
f 13 12 11
f 5 6 4
f 3 5 2
f 3 6 5
f 10 11 12
f 22 18 17
f 15 13 17
f 15 17 18
f 8 12 6
f 8 10 12
f 19 17 21
f 19 22 17
f 24 18 22
f 24 19 21
f 24 22 19
f 24 23 6
f 24 6 12
f 24 12 18
f 14 13 15
f 14 18 12
f 14 12 13
f 9 11 10
f 9 10 8
f 9 13 11
f 9 1 13
f 9 2 1
f 16 15 18
f 16 18 14
f 16 14 15
f 7 9 8
f 7 6 3
f 7 8 6
f 7 3 2
f 7 2 9
f 20 4 23
f 20 1 4
f 13 1 20
f 13 20 17
f 5 4 1
f 5 1 2
f 24 20 23
f 24 21 20
