# Parametric PetalDock simulation geometry; SI units
v 0.0319510971222 0.0017684435775 0.014
v 0.0319510971222 0.0017684435775 0.030897108079
v 0.0319704137998 0.0013757330651 0.014
v 0.0319704137998 0.0013757330651 0.0309530814185
v 0.0320271012613 0.0017726502885 0.0312774753329
v 0.0320464638887 0.0013790056103 0.0313347086766
v 0.0322435427372 0.0017846299879 0.0315999351205
v 0.0322630362187 0.0013883250303 0.031658236644
v 0.0325674702975 0.001802558875 0.0318153958621
v 0.0325871596159 0.0014022725281 0.0318744111206
v 0.0329495689073 0.0018237074393 0.0318910556131
v 0.0329694892311 0.0014187247234 0.031950321502
v 0.0489251174684 0.002707929228 0.0318910556131
v 0.048954696131 0.002106591256 0.031950321502
v 0.0493072160782 0.0027290777924 0.0318153958621
v 0.0493370257462 0.0021230434514 0.0318744111206
v 0.0496311436384 0.0027470066795 0.0315999351205
v 0.0496611491434 0.0021369909491 0.031658236644
v 0.0498475851144 0.0027589863789 0.0312774753329
v 0.0498777214734 0.0021463103692 0.0313347086766
v 0.0499235892535 0.0027631930898 0.014
v 0.0499235892535 0.0027631930898 0.030897108079
v 0.0499537715623 0.0021495829143 0.014
v 0.0499537715623 0.0021495829143 0.0309530814185
f 3 23 18
f 24 18 23
f 4 18 12
f 4 3 18
f 19 21 1
f 14 12 18
f 22 21 19
f 20 18 24
f 20 19 18
f 20 24 22
f 20 22 19
f 16 14 18
f 13 11 12
f 13 12 14
f 15 11 13
f 15 14 16
f 15 13 14
f 7 1 2
f 7 2 5
f 7 19 1
f 7 15 19
f 6 2 4
f 6 5 2
f 17 18 19
f 17 19 15
f 17 16 18
f 17 15 16
f 9 11 15
f 9 15 7
f 8 4 12
f 8 6 4
f 8 7 5
f 8 5 6
f 10 9 7
f 10 7 8
f 10 8 12
f 10 12 11
f 10 11 9
f 3 21 23
f 3 1 21
f 2 1 3
f 2 3 4
f 22 23 21
f 22 24 23
