# Parametric PetalDock simulation geometry; SI units
v -0.0372225700214 -0.033383832629 0.014
v -0.0372225700214 -0.033383832629 0.0140976451209
v -0.0371659020328 -0.03333300877 0.0140998431897
v -0.0370045252545 -0.0331882746651 0.0141017066225
v -0.0368095794829 -0.0338386592271 0.014
v -0.0368095794829 -0.0338386592271 0.0140433978315
v -0.0367630078382 -0.0329716647695 0.0141029517285
v -0.036753540235 -0.0337871429359 0.014044374751
v -0.0365939539586 -0.0336404369507 0.0140452029433
v -0.036478118621 -0.0327161559764 0.0141033889516
v -0.0363551162177 -0.0334208759278 0.0140457563238
v -0.0360733878933 -0.0331618860426 0.0140459506451
v -0.0245668962142 -0.0220333295351 0.0141033889516
v -0.0242943224587 -0.0223335150899 0.0140459506451
v -0.024282006997 -0.021777820742 0.0141029517285
v -0.0240404895806 -0.0215612108464 0.0141017066225
v -0.0240125941343 -0.0220745252047 0.0140457563238
v -0.0238791128023 -0.0214164767415 0.0140998431897
v -0.0238224448137 -0.0213656528825 0.014
v -0.0238224448137 -0.0213656528825 0.0140976451209
v -0.0237737563934 -0.0218549641818 0.0140452029433
v -0.023614170117 -0.0217082581966 0.014044374751
v -0.0235581308691 -0.0216567419054 0.014
v -0.0235581308691 -0.0216567419054 0.0140433978315
f 3 1 2
f 22 5 23
f 11 5 22
f 11 22 14
f 7 19 1
f 7 1 3
f 6 3 2
f 6 5 11
f 9 11 10
f 9 10 7
f 9 6 11
f 24 22 23
f 4 7 3
f 17 15 14
f 12 11 14
f 12 14 15
f 13 10 11
f 13 7 10
f 13 11 12
f 13 12 15
f 13 15 16
f 13 16 20
f 13 20 19
f 13 19 7
f 8 6 9
f 8 3 6
f 8 4 3
f 8 9 7
f 8 7 4
f 18 16 22
f 18 20 16
f 18 24 20
f 18 22 24
f 21 15 17
f 21 16 15
f 21 22 16
f 21 14 22
f 21 17 14
f 19 23 5
f 19 5 1
f 6 1 5
f 6 2 1
f 24 23 19
f 24 19 20
