# Parametric PetalDock simulation geometry; SI units
v -0.0009214816733 0.0499915079941 0.014
v -0.0009214816733 0.0499915079941 0.0309999313503
v -0.000920078801 0.0499154004549 0.0313826132373
v -0.0009160837587 0.0496986645203 0.031707035276
v -0.0009101047552 0.0493742962716 0.031923807152
v -0.0009030520399 0.0489916778342 0.0319999273121
v -0.0006081779044 0.0329943952761 0.0319999273121
v -0.000601125189 0.0326117768388 0.031923807152
v -0.0005951461856 0.03228740859 0.031707035276
v -0.0005911511432 0.0320706726554 0.0313826132373
v -0.0005897482709 0.0319945651162 0.014
v -0.0005897482709 0.0319945651162 0.0309999313503
v -0.000307176016 0.04999905642 0.014
v -0.000307176016 0.04999905642 0.031
v -0.0003067083684 0.0499229373891 0.0313826834324
v -0.0003053766206 0.0497061687286 0.0317071067812
v -0.0003033835192 0.0493817515022 0.0319238795325
v -0.0003010324957 0.0489990752916 0.032
v -0.0002027361706 0.0329993772372 0.032
v -0.0002003851471 0.0326167010267 0.0319238795325
v -0.0001983920457 0.0322922838003 0.0317071067812
v -0.0001970602979 0.0320755151398 0.0313826834324
v -0.0001965926503 0.0319993961088 0.014
v -0.0001965926503 0.0319993961088 0.031
f 4 1 11
f 6 11 9
f 6 4 11
f 2 1 4
f 16 18 14
f 5 6 18
f 5 4 6
f 7 6 9
f 15 14 2
f 15 16 14
f 22 24 23
f 12 9 11
f 12 24 22
f 17 16 4
f 17 4 5
f 17 18 16
f 17 5 18
f 19 18 6
f 19 6 7
f 20 9 21
f 20 19 7
f 20 18 19
f 20 14 18
f 20 13 14
f 20 23 13
f 20 22 23
f 20 21 22
f 3 2 4
f 3 15 2
f 3 4 16
f 3 16 15
f 10 9 12
f 10 12 22
f 10 21 9
f 10 22 21
f 8 7 9
f 8 9 20
f 8 20 7
f 11 13 23
f 11 1 13
f 2 13 1
f 2 14 13
f 12 11 23
f 12 23 24
