# Parametric PetalDock simulation geometry; SI units
v 0.0159612900297 0.0277351261145 0.014
v 0.0159612900297 0.0277351261145 0.0183093023256
v 0.0159992581816 0.0278011014509 0.0184063081259
v 0.0161073823301 0.0279889833133 0.0184885456724
v 0.016269201554 0.0282701683912 0.0185434950443
v 0.0163008613715 0.0275369191913 0.014
v 0.0163008613715 0.0275369191913 0.0179116943522
v 0.0163396372836 0.0276024230401 0.0179997496828
v 0.0164500617389 0.0277889622194 0.0180743993876
v 0.0164600803432 0.0286018488056 0.0185627906977
v 0.016615323615 0.02806813783 0.0181242787257
v 0.0168102632893 0.028397447916 0.0181417940199
v 0.024440725358 0.0424694118628 0.0185627906977
v 0.0246316041472 0.0428010922772 0.0185434950443
v 0.024793423371 0.0430822773551 0.0184885456724
v 0.0249015475196 0.0432701592175 0.0184063081259
v 0.0249395156714 0.0433361345539 0.014
v 0.0249395156714 0.0433361345539 0.0183093023256
v 0.0249606939751 0.0421659075117 0.0181417940199
v 0.0251556336495 0.0424952175977 0.0181242787257
v 0.0253208955256 0.0427743932083 0.0180743993876
v 0.0254313199808 0.0429609323876 0.0179997496828
v 0.0254700958929 0.0430264362364 0.014
v 0.0254700958929 0.0430264362364 0.0179116943522
f 4 17 1
f 4 1 2
f 4 18 17
f 12 19 10
f 13 10 19
f 13 4 10
f 21 6 23
f 21 23 24
f 3 2 7
f 3 4 2
f 5 10 4
f 5 12 10
f 8 3 7
f 8 4 3
f 11 7 6
f 11 6 21
f 11 19 12
f 11 12 5
f 14 4 13
f 16 24 18
f 9 8 7
f 9 7 11
f 9 4 8
f 9 5 4
f 9 11 5
f 20 19 11
f 20 11 21
f 20 21 14
f 20 13 19
f 20 14 13
f 22 21 24
f 22 24 16
f 15 16 18
f 15 18 4
f 15 4 14
f 15 14 21
f 15 21 22
f 15 22 16
f 6 17 23
f 6 1 17
f 2 1 6
f 2 6 7
f 24 23 17
f 24 17 18
