# Parametric PetalDock simulation geometry; SI units
v 0.0013757330651 0.0319704137998 0.014
v 0.0013757330651 0.0319704137998 0.0309530814185
v 0.0013790056103 0.0320464638887 0.0313347086766
v 0.0013883250303 0.0322630362187 0.031658236644
v 0.0014022725281 0.0325871596159 0.0318744111206
v 0.0014187247234 0.0329694892311 0.031950321502
v 0.0017684435775 0.0319510971222 0.014
v 0.0017684435775 0.0319510971222 0.030897108079
v 0.0017726502885 0.0320271012613 0.0312774753329
v 0.0017846299879 0.0322435427372 0.0315999351205
v 0.001802558875 0.0325674702975 0.0318153958621
v 0.0018237074393 0.0329495689073 0.0318910556131
v 0.002106591256 0.048954696131 0.031950321502
v 0.0021230434514 0.0493370257462 0.0318744111206
v 0.0021369909491 0.0496611491434 0.031658236644
v 0.0021463103692 0.0498777214734 0.0313347086766
v 0.0021495829143 0.0499537715623 0.014
v 0.0021495829143 0.0499537715623 0.0309530814185
v 0.002707929228 0.0489251174684 0.0318910556131
v 0.0027290777924 0.0493072160782 0.0318153958621
v 0.0027470066795 0.0496311436384 0.0315999351205
v 0.0027589863789 0.0498475851144 0.0312774753329
v 0.0027631930898 0.0499235892535 0.014
v 0.0027631930898 0.0499235892535 0.030897108079
f 15 17 1
f 2 15 1
f 2 6 15
f 18 17 15
f 18 15 16
f 13 15 6
f 4 6 2
f 22 7 23
f 22 16 15
f 22 15 21
f 14 15 13
f 14 21 15
f 3 2 8
f 3 4 2
f 24 22 23
f 24 18 16
f 24 16 22
f 10 8 7
f 10 7 22
f 5 6 4
f 5 12 6
f 5 4 10
f 19 13 6
f 19 6 12
f 20 22 21
f 20 10 22
f 20 19 12
f 20 21 14
f 20 14 13
f 20 13 19
f 9 3 8
f 9 8 10
f 9 4 3
f 9 10 4
f 11 20 12
f 11 10 20
f 11 12 5
f 11 5 10
f 7 17 23
f 7 1 17
f 2 1 7
f 2 7 8
f 24 23 17
f 24 17 18
