# Parametric PetalDock simulation geometry; SI units
v 0.0301905382492 0.0106080818353 0.014
v 0.0301905382492 0.0106080818353 0.0242734219269
v 0.0302623544331 0.0106333159649 0.0245046847719
v 0.0303185987686 0.010236335707 0.014
v 0.0303185987686 0.010236335707 0.0246710299003
v 0.0303907195784 0.0102606855401 0.024911243215
v 0.0304668696219 0.0107051766864 0.0247007399452
v 0.0305961022681 0.0103300279981 0.02511488623
v 0.0307729482319 0.0108127238562 0.0248317398238
v 0.0309034791851 0.0104338063202 0.0252509561424
v 0.0311339925695 0.0109395843927 0.0248777408638
v 0.0312660549802 0.0105562211978 0.0252987375415
v 0.0462292616941 0.0162436253103 0.0248777408638
v 0.0464253543645 0.0156743890513 0.0252987375415
v 0.0465903060316 0.0163704858468 0.0248317398238
v 0.0467879301595 0.0157968039289 0.0252509561424
v 0.0468963846417 0.0164780330166 0.0247007399452
v 0.0470953070765 0.0159005822511 0.02511488623
v 0.0471008998304 0.016549893738 0.0245046847719
v 0.0471727160144 0.0165751278677 0.014
v 0.0471727160144 0.0165751278677 0.0242734219269
v 0.0473006897663 0.0159699247091 0.024911243215
v 0.047372810576 0.0159942745422 0.014
v 0.047372810576 0.0159942745422 0.0246710299003
f 4 23 12
f 11 20 1
f 22 18 23
f 22 23 24
f 21 20 11
f 21 22 24
f 14 12 23
f 13 11 12
f 13 12 14
f 9 11 1
f 15 21 11
f 15 17 21
f 15 11 13
f 15 13 14
f 19 21 17
f 19 22 21
f 19 17 18
f 19 18 22
f 7 1 2
f 7 9 1
f 16 15 14
f 16 23 18
f 16 14 23
f 16 18 17
f 16 17 15
f 6 2 5
f 6 5 4
f 6 4 12
f 3 7 2
f 3 2 6
f 8 7 3
f 8 3 6
f 10 6 12
f 10 8 6
f 10 12 11
f 10 11 9
f 10 9 7
f 10 7 8
f 4 20 23
f 4 1 20
f 2 1 4
f 2 4 5
f 21 23 20
f 21 24 23
