# Parametric PetalDock simulation geometry; SI units
v 0.0138750776476 -0.0288354334157 0.014
v 0.0138750776476 -0.0288354334157 0.0206949501661
v 0.0139080831913 -0.0289040261242 0.0208456587843
v 0.0140020750274 -0.0290993616316 0.0209734233815
v 0.014142743751 -0.0293917018777 0.0210587929561
v 0.0142283257339 -0.0286627763277 0.014
v 0.0142283257339 -0.0286627763277 0.0202973421927
v 0.0142621715716 -0.0287309583256 0.0204391003412
v 0.0143086738241 -0.02973654071 0.0210887707641
v 0.0143585563627 -0.0289251242282 0.0205592770967
v 0.0145028063966 -0.0292157140371 0.0206395766375
v 0.0146729609131 -0.0295584880879 0.0206677740864
v 0.0212462126479 -0.0441542574178 0.0210887707641
v 0.021412142721 -0.0444990962501 0.0210587929561
v 0.0215528114446 -0.0447914364962 0.0209734233815
v 0.0216468032807 -0.0449867720036 0.0208456587843
v 0.0216798088244 -0.0450553647121 0.014
v 0.0216798088244 -0.0450553647121 0.0206949501661
v 0.0217871237801 -0.0438898762517 0.0206677740864
v 0.0219572782966 -0.0442326503025 0.0206395766375
v 0.0221015283304 -0.0445232401114 0.0205592770967
v 0.0221979131215 -0.044717406014 0.0204391003412
v 0.0222317589592 -0.044785588012 0.014
v 0.0222317589592 -0.044785588012 0.0202973421927
f 16 1 17
f 18 16 17
f 19 23 6
f 24 16 18
f 3 7 2
f 3 2 4
f 5 4 2
f 5 2 1
f 5 1 16
f 20 23 19
f 11 19 6
f 13 19 9
f 13 9 5
f 13 20 19
f 13 16 15
f 13 5 16
f 22 24 23
f 22 23 20
f 22 20 21
f 22 16 24
f 22 15 16
f 22 21 15
f 8 6 7
f 8 11 6
f 8 7 3
f 8 3 4
f 12 9 19
f 12 19 11
f 12 5 9
f 12 11 5
f 14 13 15
f 14 20 13
f 14 15 21
f 14 21 20
f 10 8 4
f 10 11 8
f 10 4 5
f 10 5 11
f 6 23 17
f 6 17 1
f 2 6 1
f 2 7 6
f 24 17 23
f 24 18 17
