# Parametric PetalDock simulation geometry; SI units
v 0.0277351261145 -0.0159612900297 0.014
v 0.0277351261145 -0.0159612900297 0.0183093023256
v 0.0278011014509 -0.0159992581816 0.0184063081259
v 0.0279291458278 -0.0156193089902 0.014
v 0.0279291458278 -0.0156193089902 0.018706910299
v 0.0279889833133 -0.0161073823301 0.0184885456724
v 0.0279955826914 -0.0156564636496 0.0188128665689
v 0.0281847788722 -0.0157622711679 0.0189026919573
v 0.0282701683912 -0.016269201554 0.0185434950443
v 0.0284679309665 -0.0159206233094 0.0189627113629
v 0.0286018488056 -0.0164600803432 0.0185627906977
v 0.0288019316349 -0.0161074123961 0.0189837873754
v 0.0424694118628 -0.024440725358 0.0185627906977
v 0.0427665045488 -0.0239170668912 0.0189837873754
v 0.0428010922772 -0.0246316041472 0.0185434950443
v 0.0430822773551 -0.024793423371 0.0184885456724
v 0.0431005052172 -0.024103855978 0.0189627113629
v 0.0432701592175 -0.0249015475196 0.0184063081259
v 0.0433361345539 -0.0249395156714 0.014
v 0.0433361345539 -0.0249395156714 0.0183093023256
v 0.0433836573115 -0.0242622081195 0.0189026919573
v 0.0435728534922 -0.0243680156377 0.0188128665689
v 0.0436392903559 -0.0244051702972 0.014
v 0.0436392903559 -0.0244051702972 0.018706910299
f 3 1 19
f 22 24 23
f 2 1 3
f 10 11 12
f 20 24 22
f 13 3 19
f 13 12 11
f 8 10 12
f 8 3 6
f 8 6 10
f 18 19 20
f 18 13 19
f 18 20 22
f 18 21 16
f 18 22 21
f 9 13 11
f 9 3 13
f 9 6 3
f 9 11 10
f 9 10 6
f 17 16 21
f 7 3 8
f 7 5 2
f 7 2 3
f 7 8 12
f 7 4 5
f 7 12 4
f 15 18 16
f 15 13 18
f 15 16 17
f 14 12 13
f 14 13 15
f 14 15 17
f 14 22 23
f 14 21 22
f 14 17 21
f 14 23 4
f 14 4 12
f 4 23 19
f 4 19 1
f 2 4 1
f 2 5 4
f 20 19 23
f 20 23 24
