# Parametric PetalDock simulation geometry; SI units
v 0.0279291458278 0.0156193089902 0.014
v 0.0279291458278 0.0156193089902 0.018706910299
v 0.0279955826914 0.0156564636496 0.0188128665689
v 0.0281189490397 0.0152749698822 0.014
v 0.0281189490397 0.0152749698822 0.0191045182724
v 0.0281847788722 0.0157622711679 0.0189026919573
v 0.0281858374005 0.01531130544 0.019219425012
v 0.0283763193364 0.0154147803539 0.0193168382421
v 0.0284679309665 0.0159206233094 0.0189627113629
v 0.0286613956993 0.0155696415065 0.0193819276816
v 0.0288019316349 0.0161074123961 0.0189837873754
v 0.0289976661972 0.015752312691 0.0194047840532
v 0.0427665045488 0.0239170668912 0.0189837873754
v 0.0430571407171 0.0233897976321 0.0194047840532
v 0.0431005052172 0.024103855978 0.0189627113629
v 0.0433836573115 0.0242622081195 0.0189026919573
v 0.043393411215 0.0235724688166 0.0193819276816
v 0.0435728534922 0.0243680156377 0.0188128665689
v 0.0436392903559 0.0244051702972 0.014
v 0.0436392903559 0.0244051702972 0.018706910299
v 0.0436784875779 0.0237273299692 0.0193168382421
v 0.0438689695137 0.0238308048832 0.019219425012
v 0.0439358578746 0.0238671404409 0.014
v 0.0439358578746 0.0238671404409 0.0191045182724
f 8 4 23
f 8 23 24
f 8 5 4
f 6 19 1
f 13 11 12
f 10 12 11
f 10 6 8
f 2 6 1
f 22 21 24
f 20 19 6
f 20 22 24
f 15 11 13
f 14 13 12
f 14 15 13
f 14 12 10
f 14 10 8
f 14 8 24
f 3 8 6
f 3 6 2
f 9 11 15
f 9 10 11
f 9 6 10
f 9 20 6
f 9 15 20
f 16 20 15
f 17 24 21
f 17 14 24
f 17 15 14
f 17 21 16
f 17 16 15
f 7 2 5
f 7 3 2
f 7 5 8
f 7 8 3
f 18 22 20
f 18 20 16
f 18 21 22
f 18 16 21
f 4 19 23
f 4 1 19
f 2 1 4
f 2 4 5
f 20 23 19
f 20 24 23
