# Parametric PetalDock simulation geometry; SI units
v -0.0423876000578 0.0265196410484 0.014
v -0.0423876000578 0.0265196410484 0.0171354933272
v -0.0423230687792 0.0264792672989 0.0172060757594
v -0.0421392992455 0.0263642925878 0.0172659126562
v -0.0420585586428 0.0270384475311 0.014
v -0.0420585586428 0.0270384475311 0.0167774612171
v -0.0419945282999 0.0269972839458 0.0168399840637
v -0.0418642687023 0.0261922207727 0.0173058943924
v -0.0418121853104 0.0268800599725 0.0168929883737
v -0.0415398480567 0.0259892482274 0.0173199341111
v -0.0415392897416 0.0267046218986 0.0169284047213
v -0.0412173874699 0.0264976785805 0.0169408412887
v -0.0279758160382 0.0175029630919 0.0173199341111
v -0.0277586487042 0.0178453753705 0.0169408412887
v -0.0276513953926 0.0172999905467 0.0173058943924
v -0.0274367464326 0.0176384320524 0.0169284047213
v -0.0273763648494 0.0171279187315 0.0172659126562
v -0.0271925953157 0.0170129440205 0.0172060757594
v -0.0271638508638 0.0174629939785 0.0168929883737
v -0.027128064037 0.016972570271 0.014
v -0.027128064037 0.016972570271 0.0171354933272
v -0.0269815078743 0.0173457700052 0.0168399840637
v -0.0269174775314 0.0173046064199 0.014
v -0.0269174775314 0.0173046064199 0.0167774612171
f 12 23 5
f 21 17 20
f 13 12 10
f 13 1 20
f 13 20 17
f 7 5 6
f 7 12 5
f 22 19 17
f 15 17 19
f 15 13 17
f 11 10 12
f 3 6 2
f 3 7 6
f 3 2 1
f 18 17 21
f 18 22 17
f 24 19 22
f 24 18 21
f 24 22 18
f 14 13 15
f 14 12 13
f 4 3 1
f 4 1 13
f 4 13 10
f 4 7 3
f 16 15 19
f 16 14 15
f 16 12 14
f 16 23 12
f 16 24 23
f 16 19 24
f 8 10 11
f 8 4 10
f 9 7 4
f 9 12 7
f 9 11 12
f 9 8 11
f 9 4 8
f 20 5 23
f 20 1 5
f 6 5 1
f 6 1 2
f 24 20 23
f 24 21 20
