# Parametric PetalDock simulation geometry; SI units
v 0.0207738424644 -0.0243402438209 0.014
v 0.0207738424644 -0.0243402438209 0.014271236447
v 0.0208232585457 -0.0243981435315 0.0142773421937
v 0.020963983639 -0.0245630279572 0.0142825183959
v 0.0210713382579 -0.0240831622513 0.014
v 0.0210713382579 -0.0240831622513 0.0141735913261
v 0.0211214620116 -0.0241404504253 0.014177499004
v 0.0211745936247 -0.0248097949388 0.0142859770236
v 0.0212642023856 -0.0243035933423 0.0141808117734
v 0.0214230250415 -0.0251008764403 0.0142871915321
v 0.0214778284519 -0.0245477539719 0.0141830252951
v 0.0217298175784 -0.0248357610717 0.0141838025805
v 0.0318099462737 -0.0372709983508 0.0142871915321
v 0.0320583776905 -0.0375620798524 0.0142859770236
v 0.0322654867074 -0.0368773421973 0.0141838025805
v 0.0322689876761 -0.037808846834 0.0142825183959
v 0.0324097127694 -0.0379737312596 0.0142773421937
v 0.0324591288507 -0.0380316309702 0.014
v 0.0324591288507 -0.0380316309702 0.014271236447
v 0.0325174758339 -0.0371653492971 0.0141830252951
v 0.0327311019002 -0.0374095099267 0.0141808117734
v 0.0328738422742 -0.0375726528436 0.014177499004
v 0.0329239660279 -0.0376299410177 0.014
v 0.0329239660279 -0.0376299410177 0.0141735913261
f 16 1 18
f 4 2 1
f 4 1 16
f 13 20 10
f 3 6 2
f 3 2 4
f 15 10 20
f 15 12 10
f 15 23 5
f 15 22 23
f 8 10 12
f 8 13 10
f 14 20 13
f 14 4 16
f 14 8 4
f 14 13 8
f 17 22 16
f 17 16 18
f 17 18 19
f 24 23 22
f 24 17 19
f 24 22 17
f 7 5 6
f 7 15 5
f 7 6 3
f 7 3 4
f 21 20 14
f 21 15 20
f 21 22 15
f 21 16 22
f 21 14 16
f 11 12 15
f 11 15 7
f 11 8 12
f 9 7 4
f 9 11 7
f 9 4 8
f 9 8 11
f 5 23 18
f 5 18 1
f 2 5 1
f 2 6 5
f 24 18 23
f 24 19 18
