# Parametric PetalDock simulation geometry; SI units
v 0.0106080818353 -0.0301905382492 0.014
v 0.0106080818353 -0.0301905382492 0.0242734219269
v 0.0106333159649 -0.0302623544331 0.0245046847719
v 0.0107051766864 -0.0304668696219 0.0247007399452
v 0.0108127238562 -0.0307729482319 0.0248317398238
v 0.0109395843927 -0.0311339925695 0.0248777408638
v 0.010978226447 -0.0300579198229 0.014
v 0.010978226447 -0.0300579198229 0.0238758139535
v 0.0110043410635 -0.0301294205388 0.0240981263288
v 0.0110787091995 -0.0303330373506 0.0242865936603
v 0.0111900089804 -0.0306377714446 0.0244125235052
v 0.0113212960234 -0.0309972298173 0.024456744186
v 0.0162436253103 -0.0462292616941 0.0248777408638
v 0.0163704858468 -0.0465903060316 0.0248317398238
v 0.0164780330166 -0.0468963846417 0.0247007399452
v 0.016549893738 -0.0471008998304 0.0245046847719
v 0.0165751278677 -0.0471727160144 0.014
v 0.0165751278677 -0.0471727160144 0.0242734219269
v 0.0168104092469 -0.0460261897288 0.024456744186
v 0.01694169629 -0.0463856481015 0.0244125235052
v 0.0170529960709 -0.0466903821955 0.0242865936603
v 0.0171273642069 -0.0468939990074 0.0240981263288
v 0.0171534788234 -0.0469654997233 0.014
v 0.0171534788234 -0.0469654997233 0.0238758139535
f 13 1 17
f 19 6 13
f 12 6 19
f 21 23 7
f 3 8 2
f 3 2 1
f 3 1 13
f 3 13 6
f 5 6 12
f 5 3 6
f 5 4 3
f 9 8 3
f 9 3 4
f 11 7 8
f 11 21 7
f 11 5 12
f 14 13 15
f 14 15 21
f 10 8 9
f 10 11 8
f 10 9 4
f 10 4 5
f 10 5 11
f 20 21 11
f 20 14 21
f 20 12 19
f 20 11 12
f 20 19 13
f 20 13 14
f 16 13 17
f 16 15 13
f 16 17 18
f 16 18 24
f 22 16 24
f 22 24 23
f 22 23 21
f 22 21 15
f 22 15 16
f 7 23 17
f 7 17 1
f 2 7 1
f 2 8 7
f 24 17 23
f 24 18 17
