# Parametric PetalDock simulation geometry; SI units
v 0.0149283246911 0.0283045070955 0.014
v 0.0149283246911 0.0283045070955 0.0195021262458
v 0.0149638356616 0.0283718368552 0.0196259834551
v 0.0150649623496 0.0285635757889 0.019730984527
v 0.0152163091336 0.028850533382 0.0198011440002
v 0.0152749698822 0.0281189490397 0.014
v 0.0152749698822 0.0281189490397 0.0191045182724
v 0.01531130544 0.0281858374005 0.019219425012
v 0.0153948348377 0.0291890229422 0.0198257807309
v 0.0154147803539 0.0283763193364 0.0193168382421
v 0.0155696415065 0.0286613956993 0.0193819276816
v 0.015752312691 0.0289976661972 0.0194047840532
v 0.0228589971833 0.0433412764899 0.0198257807309
v 0.0230375228874 0.0436797660501 0.0198011440002
v 0.0231888696714 0.0439667236432 0.019730984527
v 0.0232899963594 0.0441584625769 0.0196259834551
v 0.0233255073299 0.0442257923366 0.014
v 0.0233255073299 0.0442257923366 0.0195021262458
v 0.0233897976321 0.0430571407171 0.0194047840532
v 0.0235724688166 0.043393411215 0.0193819276816
v 0.0237273299692 0.0436784875779 0.0193168382421
v 0.0238308048832 0.0438689695137 0.019219425012
v 0.0238671404409 0.0439358578746 0.014
v 0.0238671404409 0.0439358578746 0.0191045182724
f 16 17 1
f 2 16 1
f 18 17 16
f 12 19 9
f 13 9 19
f 22 6 23
f 3 2 7
f 3 4 2
f 5 12 9
f 5 9 2
f 5 2 4
f 10 5 4
f 8 7 6
f 8 6 22
f 8 22 12
f 8 3 7
f 8 4 3
f 8 10 4
f 20 19 12
f 20 12 22
f 20 13 19
f 24 22 23
f 24 18 16
f 24 16 22
f 11 8 12
f 11 10 8
f 11 12 5
f 11 5 10
f 14 13 20
f 14 9 13
f 21 20 22
f 21 14 20
f 15 14 21
f 15 9 14
f 15 22 16
f 15 21 22
f 15 2 9
f 15 16 2
f 6 17 23
f 6 1 17
f 2 1 6
f 2 6 7
f 24 23 17
f 24 17 18
