# Parametric PetalDock simulation geometry; SI units
v 0.010236335707 0.0303185987686 0.014
v 0.010236335707 0.0303185987686 0.0246710299003
v 0.0102606855401 0.0303907195784 0.024911243215
v 0.0103300279981 0.0305961022681 0.02511488623
v 0.0104338063202 0.0309034791851 0.0252509561424
v 0.0105562211978 0.0312660549802 0.0252987375415
v 0.0106080818353 0.0301905382492 0.014
v 0.0106080818353 0.0301905382492 0.0242734219269
v 0.0106333159649 0.0302623544331 0.0245046847719
v 0.0107051766864 0.0304668696219 0.0247007399452
v 0.0108127238562 0.0307729482319 0.0248317398238
v 0.0109395843927 0.0311339925695 0.0248777408638
v 0.0156743890513 0.0464253543645 0.0252987375415
v 0.0157968039289 0.0467879301595 0.0252509561424
v 0.0159005822511 0.0470953070765 0.02511488623
v 0.0159699247091 0.0473006897663 0.024911243215
v 0.0159942745422 0.047372810576 0.014
v 0.0159942745422 0.047372810576 0.0246710299003
v 0.0162436253103 0.0462292616941 0.0248777408638
v 0.0163704858468 0.0465903060316 0.0248317398238
v 0.0164780330166 0.0468963846417 0.0247007399452
v 0.016549893738 0.0471008998304 0.0245046847719
v 0.0165751278677 0.0471727160144 0.014
v 0.0165751278677 0.0471727160144 0.0242734219269
f 6 17 1
f 13 17 6
f 16 17 15
f 16 18 17
f 14 15 17
f 14 17 13
f 14 21 15
f 12 7 23
f 22 15 21
f 22 16 15
f 3 2 8
f 3 1 2
f 3 6 1
f 24 12 23
f 24 22 21
f 24 18 16
f 24 16 22
f 11 7 12
f 19 6 12
f 19 13 6
f 20 24 21
f 20 12 24
f 20 19 12
f 20 21 14
f 20 14 13
f 20 13 19
f 10 8 7
f 10 7 11
f 5 6 3
f 5 3 4
f 5 12 6
f 5 11 12
f 5 4 10
f 5 10 11
f 9 3 8
f 9 8 10
f 9 4 3
f 9 10 4
f 7 17 23
f 7 1 17
f 2 1 7
f 2 7 8
f 24 23 17
f 24 17 18
