# Parametric PetalDock simulation geometry; SI units
v -0.0124615403619 -0.0484222057718 0.014
v -0.0124615403619 -0.0484222057718 0.0270566777409
v -0.0124425687963 -0.048348487353 0.0273505938734
v -0.0123885423485 -0.0481385550576 0.0275997639391
v -0.0123076860554 -0.0478243691745 0.0277662540542
v -0.0122123095546 -0.0474537616564 0.027824717608
v -0.0118656453117 -0.0485716631519 0.014
v -0.0118656453117 -0.0485716631519 0.0274536380952
v -0.0118475809423 -0.0484977171977 0.027756490119
v -0.0117961379707 -0.0482871369366 0.0280132356675
v -0.0117191481229 -0.0479719813042 0.0281847875584
v -0.0116283324054 -0.0476002298888 0.0282450285714
v -0.0082246166388 -0.0319586558094 0.027824717608
v -0.0081292401381 -0.0315880482913 0.0277662540542
v -0.008048383845 -0.0312738624082 0.0275997639391
v -0.0079943573972 -0.0310639301128 0.0273505938734
v -0.0079753858316 -0.030990211694 0.014
v -0.0079753858316 -0.030990211694 0.0270566777409
v -0.0078313259057 -0.0320572976802 0.0282450285714
v -0.0077405101882 -0.0316855462648 0.0281847875584
v -0.0076635203404 -0.0313703906325 0.0280132356675
v -0.0076120773688 -0.0311598103713 0.027756490119
v -0.0075940129995 -0.0310858644172 0.014
v -0.0075940129995 -0.0310858644172 0.0274536380952
f 11 7 12
f 17 1 15
f 21 7 23
f 21 12 7
f 9 8 7
f 9 7 11
f 5 11 12
f 4 11 5
f 22 21 23
f 22 23 24
f 18 22 24
f 19 12 21
f 20 21 15
f 20 19 21
f 20 13 19
f 14 15 5
f 14 20 15
f 14 13 20
f 10 9 11
f 10 11 4
f 2 8 9
f 2 4 5
f 2 15 1
f 2 5 15
f 16 18 17
f 16 17 15
f 16 22 18
f 16 15 21
f 16 21 22
f 6 19 13
f 6 14 5
f 6 13 14
f 6 5 12
f 6 12 19
f 3 2 9
f 3 4 2
f 3 9 10
f 3 10 4
f 17 23 7
f 17 7 1
f 18 23 17
f 18 24 23
f 2 1 7
f 2 7 8
