# Parametric PetalDock simulation geometry; SI units
v -0.044785588012 -0.0222317589592 0.014
v -0.044785588012 -0.0222317589592 0.0202973421927
v -0.044717406014 -0.0221979131215 0.0204391003412
v -0.0445232401114 -0.0221015283304 0.0205592770967
v -0.0445090499704 -0.0227803527351 0.014
v -0.0445090499704 -0.0227803527351 0.0198997342193
v -0.0444412889766 -0.0227456717131 0.0200325418982
v -0.0442483219921 -0.0226469085183 0.0201451308118
v -0.0442326503025 -0.0219572782966 0.0206395766375
v -0.0439595264913 -0.0224990989519 0.0202203603188
v -0.0438898762517 -0.0217871237801 0.0206677740864
v -0.043618868971 -0.0223247456804 0.0202467774086
v -0.0295584880879 -0.0146729609131 0.0206677740864
v -0.0293759729805 -0.0150350328051 0.0202467774086
v -0.0292157140371 -0.0145028063966 0.0206395766375
v -0.0290353154602 -0.0148606795336 0.0202203603188
v -0.0289251242282 -0.0143585563627 0.0205592770967
v -0.0287465199593 -0.0147128699672 0.0201451308118
v -0.0287309583256 -0.0142621715716 0.0204391003412
v -0.0286627763277 -0.0142283257339 0.014
v -0.0286627763277 -0.0142283257339 0.0202973421927
v -0.0285535529749 -0.0146141067724 0.0200325418982
v -0.028485791981 -0.0145794257504 0.014
v -0.028485791981 -0.0145794257504 0.0198997342193
f 18 5 23
f 21 2 17
f 13 11 12
f 8 6 12
f 24 18 23
f 14 13 12
f 7 6 8
f 4 11 13
f 4 7 8
f 4 17 2
f 4 13 17
f 10 12 11
f 10 8 12
f 22 17 18
f 22 18 24
f 16 12 18
f 16 14 12
f 3 4 2
f 3 7 4
f 3 2 6
f 3 6 7
f 9 11 4
f 9 10 11
f 9 4 8
f 9 8 10
f 19 24 21
f 19 22 24
f 19 21 17
f 19 17 22
f 15 13 14
f 15 14 16
f 15 17 13
f 15 18 17
f 15 16 18
f 20 23 5
f 20 5 1
f 6 1 5
f 6 2 1
f 6 5 18
f 6 18 12
f 21 20 1
f 21 1 2
f 24 23 20
f 24 20 21
