# Parametric PetalDock simulation geometry; SI units
v 0.0142283257339 -0.0286627763277 0.014
v 0.0142283257339 -0.0286627763277 0.0202973421927
v 0.0142621715716 -0.0287309583256 0.0204391003412
v 0.0143585563627 -0.0289251242282 0.0205592770967
v 0.0145028063966 -0.0292157140371 0.0206395766375
v 0.0145794257504 -0.028485791981 0.014
v 0.0145794257504 -0.028485791981 0.0198997342193
v 0.0146141067724 -0.0285535529749 0.0200325418982
v 0.0146729609131 -0.0295584880879 0.0206677740864
v 0.0147128699672 -0.0287465199593 0.0201451308118
v 0.0148606795336 -0.0290353154602 0.0202203603188
v 0.0150350328051 -0.0293759729805 0.0202467774086
v 0.0217871237801 -0.0438898762517 0.0206677740864
v 0.0219572782966 -0.0442326503025 0.0206395766375
v 0.0221015283304 -0.0445232401114 0.0205592770967
v 0.0221979131215 -0.044717406014 0.0204391003412
v 0.0222317589592 -0.044785588012 0.014
v 0.0222317589592 -0.044785588012 0.0202973421927
v 0.0223247456804 -0.043618868971 0.0202467774086
v 0.0224990989519 -0.0439595264913 0.0202203603188
v 0.0226469085183 -0.0442483219921 0.0201451308118
v 0.0227456717131 -0.0444412889766 0.0200325418982
v 0.0227803527351 -0.0445090499704 0.014
v 0.0227803527351 -0.0445090499704 0.0198997342193
f 4 2 18
f 4 15 9
f 4 18 15
f 10 23 6
f 10 6 7
f 22 21 15
f 13 9 15
f 3 7 2
f 3 2 4
f 24 23 10
f 24 21 22
f 16 15 18
f 16 22 15
f 16 18 24
f 16 24 22
f 14 15 21
f 14 13 15
f 8 10 7
f 8 7 3
f 8 4 10
f 8 3 4
f 19 21 24
f 19 24 10
f 19 12 9
f 19 9 13
f 5 10 4
f 5 4 9
f 5 9 12
f 20 14 21
f 20 21 19
f 20 13 14
f 20 19 13
f 11 10 5
f 11 5 12
f 11 19 10
f 11 12 19
f 6 23 17
f 6 17 1
f 2 6 1
f 2 7 6
f 2 1 17
f 2 17 18
f 24 17 23
f 24 18 17
