# Parametric PetalDock simulation geometry; SI units
v 0.0072114936888 -0.0311768240649 0.014
v 0.0072114936888 -0.0311768240649 0.0278350951711
v 0.0072286481348 -0.0312509863906 0.0281465340951
v 0.0072774998638 -0.031462182826 0.0284105592661
v 0.0073506116429 -0.0317782606281 0.0285869752452
v 0.0074368528666 -0.032151099817 0.0286489242988
v 0.0075940129995 -0.0310858644172 0.014
v 0.0075940129995 -0.0310858644172 0.0274536380952
v 0.0076120773688 -0.0311598103713 0.027756490119
v 0.0076635203404 -0.0313703906325 0.0280132356675
v 0.0077405101882 -0.0316855462648 0.0281847875584
v 0.0078313259057 -0.0320572976802 0.0282450285714
v 0.011042599711 -0.0477395118494 0.0286489242988
v 0.0111288409347 -0.0481123510383 0.0285869752452
v 0.0112019527138 -0.0484284288404 0.0284105592661
v 0.0112508044428 -0.0486396252758 0.0281465340951
v 0.0112679588888 -0.0487137876015 0.014
v 0.0112679588888 -0.0487137876015 0.0278350951711
v 0.0116283324054 -0.0476002298888 0.0282450285714
v 0.0117191481229 -0.0479719813042 0.0281847875584
v 0.0117961379707 -0.0482871369366 0.0280132356675
v 0.0118475809423 -0.0484977171977 0.027756490119
v 0.0118656453117 -0.0485716631519 0.014
v 0.0118656453117 -0.0485716631519 0.0274536380952
f 16 1 17
f 18 16 17
f 24 16 18
f 12 24 8
f 12 21 24
f 15 14 13
f 15 13 16
f 15 21 14
f 3 8 2
f 3 2 4
f 22 16 24
f 22 24 21
f 22 15 16
f 22 21 15
f 5 6 12
f 5 4 2
f 5 13 6
f 5 16 13
f 5 2 1
f 5 1 16
f 10 4 5
f 19 6 13
f 19 12 6
f 19 21 12
f 9 8 3
f 9 3 4
f 9 4 10
f 11 5 12
f 11 10 5
f 11 12 8
f 11 8 9
f 11 9 10
f 20 14 21
f 20 21 19
f 20 13 14
f 20 19 13
f 7 23 17
f 7 17 1
f 2 7 1
f 2 8 7
f 24 23 7
f 24 7 8
f 24 17 23
f 24 18 17
