# Parametric PetalDock simulation geometry; SI units
v 0.0163008613715 0.0275369191913 0.014
v 0.0163008613715 0.0275369191913 0.0179116943522
v 0.0163396372836 0.0276024230401 0.0179997496828
v 0.0164500617389 0.0277889622194 0.0180743993876
v 0.016615323615 0.02806813783 0.0181242787257
v 0.0166379717499 0.0273345549817 0.014
v 0.0166379717499 0.0273345549817 0.0175152243529
v 0.0166775495683 0.0273995774537 0.0175943548306
v 0.0167902576593 0.0275847457878 0.0176614384104
v 0.0168102632893 0.028397447916 0.0181417940199
v 0.0169589372378 0.0278618697836 0.0177062622254
v 0.0171579083671 0.0281887598249 0.017722002256
v 0.0249606939751 0.0421659075117 0.0181417940199
v 0.0251556336495 0.0424952175977 0.0181242787257
v 0.0253208955256 0.0427743932083 0.0180743993876
v 0.0254313199808 0.0429609323876 0.0179997496828
v 0.0254700958929 0.0430264362364 0.014
v 0.0254700958929 0.0430264362364 0.0179116943522
v 0.025476894242 0.0418560373158 0.017722002256
v 0.0256758653713 0.0421829273571 0.0177062622254
v 0.0258445449498 0.0424600513529 0.0176614384104
v 0.0259572530409 0.042645219687 0.0175943548306
v 0.0259968308592 0.042710242159 0.014
v 0.0259968308592 0.042710242159 0.0175152243529
f 10 17 1
f 18 17 10
f 13 18 10
f 16 18 13
f 16 24 18
f 3 2 7
f 3 4 10
f 3 1 2
f 3 10 1
f 5 10 4
f 22 23 24
f 22 21 20
f 22 24 16
f 22 6 23
f 22 15 21
f 22 16 15
f 14 15 16
f 14 16 13
f 14 13 20
f 14 21 15
f 14 20 21
f 8 7 6
f 8 6 22
f 8 3 7
f 8 4 3
f 19 13 10
f 19 20 13
f 9 5 4
f 9 11 5
f 9 4 8
f 12 22 20
f 12 8 22
f 12 20 19
f 12 11 9
f 12 9 8
f 12 19 10
f 12 10 5
f 12 5 11
f 6 17 23
f 6 1 17
f 2 1 6
f 2 6 7
f 24 23 17
f 24 17 18
