# Parametric PetalDock simulation geometry; SI units
v -0.0342883771566 -0.0363910317518 0.014
v -0.0342883771566 -0.0363910317518 0.0140108494579
v -0.0342361762107 -0.0363356297049 0.0140110936877
v -0.0340875204936 -0.0361778580233 0.0140113007358
v -0.0338650414907 -0.0359417360156 0.0140114390809
v -0.0338386592271 -0.0368095794829 0.014
v -0.0338386592271 -0.0368095794829 0.0140433978315
v -0.0337871429359 -0.036753540235 0.014044374751
v -0.0336404369507 -0.0365939539586 0.0140452029433
v -0.0336026096135 -0.0356632111168 0.0140114876613
v -0.0334208759278 -0.0363551162177 0.0140457563238
v -0.0331618860426 -0.0360733878933 0.0140459506451
v -0.0226303289234 -0.0240180809562 0.0140114876613
v -0.0223678970462 -0.0237395560575 0.0140114390809
v -0.0223335150899 -0.0242943224587 0.0140459506451
v -0.0221454180433 -0.0235034340497 0.0140113007358
v -0.0220745252047 -0.0240125941343 0.0140457563238
v -0.0219967623262 -0.0233456623682 0.0140110936877
v -0.0219445613802 -0.0232902603212 0.014
v -0.0219445613802 -0.0232902603212 0.0140108494579
v -0.0218549641818 -0.0237737563934 0.0140452029433
v -0.0217082581966 -0.023614170117 0.014044374751
v -0.0216567419054 -0.0235581308691 0.014
v -0.0216567419054 -0.0235581308691 0.0140433978315
f 8 7 6
f 8 6 23
f 8 23 17
f 8 17 12
f 24 17 23
f 24 21 17
f 24 22 21
f 24 20 22
f 15 12 17
f 16 17 21
f 9 12 11
f 9 8 12
f 18 16 21
f 18 21 22
f 18 22 20
f 18 20 19
f 18 19 16
f 4 12 15
f 13 16 19
f 13 19 1
f 13 1 4
f 3 11 12
f 3 12 4
f 3 9 11
f 14 17 16
f 14 13 17
f 14 16 13
f 10 17 13
f 10 13 4
f 2 8 9
f 2 9 3
f 2 7 8
f 2 4 1
f 2 3 4
f 5 17 10
f 5 10 4
f 5 15 17
f 5 4 15
f 19 23 6
f 19 6 1
f 24 23 19
f 24 19 20
f 2 1 6
f 2 6 7
