# Parametric PetalDock simulation geometry; SI units
v -0.0403191339022 0.0295697047901 0.014
v -0.0403191339022 0.0295697047901 0.0153127844034
v -0.0402577516758 0.0295246875951 0.0153423362176
v -0.040082949884 0.0293964894698 0.015367389036
v -0.0399527730768 0.0300628661886 0.014
v -0.0399527730768 0.0300628661886 0.0150849457879
v -0.0398919486015 0.0300170982 0.0151093687749
v -0.0398213405152 0.0292046274168 0.0153841287941
v -0.0397187351507 0.0298867619957 0.0151300735835
v -0.0395127512242 0.0289783106943 0.0153900070154
v -0.0394595029019 0.0296917000812 0.0151439080943
v -0.0391537176153 0.0294616088648 0.0151487661284
v -0.0266106283755 0.0195160051615 0.0153900070154
v -0.0263688302307 0.0198414916845 0.0151487661284
v -0.0263020390844 0.019289688439 0.0153841287941
v -0.026063044944 0.0196114004681 0.0151439080943
v -0.0260404297156 0.019097826386 0.015367389036
v -0.0258656279238 0.0189696282607 0.0153423362176
v -0.0258042456974 0.0189246110657 0.014
v -0.0258042456974 0.0189246110657 0.0153127844034
v -0.0258038126953 0.0194163385536 0.0151300735835
v -0.0256305992444 0.0192860023493 0.0151093687749
v -0.0255697747692 0.0192402343607 0.014
v -0.0255697747692 0.0192402343607 0.0150849457879
f 2 1 10
f 22 23 5
f 3 4 7
f 3 6 2
f 3 7 6
f 3 2 10
f 3 10 4
f 9 7 4
f 24 23 22
f 11 12 14
f 11 14 16
f 11 10 12
f 11 16 22
f 11 6 7
f 11 7 9
f 11 5 6
f 11 22 5
f 18 22 17
f 18 20 24
f 18 24 22
f 18 19 20
f 18 17 19
f 21 22 16
f 21 17 22
f 15 16 14
f 15 21 16
f 15 17 21
f 8 9 4
f 8 11 9
f 8 4 10
f 8 10 11
f 13 14 12
f 13 15 14
f 13 12 10
f 13 1 19
f 13 10 1
f 13 19 17
f 13 17 15
f 19 5 23
f 19 1 5
f 6 5 1
f 6 1 2
f 24 19 23
f 24 20 19
