# Parametric PetalDock simulation geometry; SI units
v -0.0222317589592 -0.044785588012 0.014
v -0.0222317589592 -0.044785588012 0.0202973421927
v -0.0221979131215 -0.044717406014 0.0204391003412
v -0.0221015283304 -0.0445232401114 0.0205592770967
v -0.0219572782966 -0.0442326503025 0.0206395766375
v -0.0217871237801 -0.0438898762517 0.0206677740864
v -0.0216798088244 -0.0450553647121 0.014
v -0.0216798088244 -0.0450553647121 0.0206949501661
v -0.0216468032807 -0.0449867720036 0.0208456587843
v -0.0215528114446 -0.0447914364962 0.0209734233815
v -0.021412142721 -0.0444990962501 0.0210587929561
v -0.0212462126479 -0.0441542574178 0.0210887707641
v -0.0146729609131 -0.0295584880879 0.0206677740864
v -0.0145028063966 -0.0292157140371 0.0206395766375
v -0.0143585563627 -0.0289251242282 0.0205592770967
v -0.0143086738241 -0.02973654071 0.0210887707641
v -0.0142621715716 -0.0287309583256 0.0204391003412
v -0.0142283257339 -0.0286627763277 0.014
v -0.0142283257339 -0.0286627763277 0.0202973421927
v -0.014142743751 -0.0293917018777 0.0210587929561
v -0.0140020750274 -0.0290993616316 0.0209734233815
v -0.0139080831913 -0.0289040261242 0.0208456587843
v -0.0138750776476 -0.0288354334157 0.014
v -0.0138750776476 -0.0288354334157 0.0206949501661
f 9 8 7
f 9 7 23
f 9 12 10
f 11 10 12
f 5 11 12
f 20 21 15
f 20 9 23
f 20 12 9
f 20 16 12
f 6 12 16
f 6 5 12
f 6 18 1
f 6 1 5
f 4 10 11
f 4 11 5
f 24 20 23
f 24 21 20
f 24 22 21
f 24 19 22
f 17 22 19
f 17 19 18
f 17 15 21
f 17 21 22
f 13 6 16
f 13 16 20
f 3 9 10
f 3 10 4
f 3 5 1
f 3 4 5
f 14 20 15
f 14 13 20
f 14 15 17
f 14 17 18
f 14 18 6
f 14 6 13
f 2 8 9
f 2 9 3
f 2 3 1
f 18 23 7
f 18 7 1
f 24 23 18
f 24 18 19
f 2 1 7
f 2 7 8
