# Parametric PetalDock simulation geometry; SI units
v 0.0176340300687 -0.0267028272573 0.014
v 0.0176340300687 -0.0267028272573 0.0164411280229
v 0.0176759772754 -0.0267663469978 0.0164960797435
v 0.0177954328133 -0.0269472359144 0.0165426655628
v 0.0179607914839 -0.0264841456209 0.014
v 0.0179607914839 -0.0264841456209 0.0161264937444
v 0.0179742106598 -0.0272179553095 0.0165737932121
v 0.018003515979 -0.0265471451693 0.0161743627988
v 0.0181251850473 -0.026726552704 0.0162149442236
v 0.0181850935084 -0.0275372906091 0.0165847237889
v 0.0183072756761 -0.0269950550544 0.0162420598647
v 0.0185220662178 -0.0273117751716 0.0162515816117
v 0.0270021085427 -0.0408887042378 0.0165847237889
v 0.0272129913913 -0.0412080395375 0.0165737932121
v 0.0273917692378 -0.0414787589325 0.0165426655628
v 0.0275024619597 -0.0405538479821 0.0162515816117
v 0.0275112247757 -0.0416596478492 0.0164960797435
v 0.0275531719824 -0.0417231675896 0.014
v 0.0275531719824 -0.0417231675896 0.0164411280229
v 0.0277172525014 -0.0408705680992 0.0162420598647
v 0.0278993431302 -0.0411390704497 0.0162149442236
v 0.0280210121985 -0.0413184779844 0.0161743627988
v 0.0280637366936 -0.0413814775327 0.014
v 0.0280637366936 -0.0413814775327 0.0161264937444
f 17 1 18
f 19 17 18
f 12 10 16
f 13 16 10
f 3 6 2
f 3 2 4
f 7 10 12
f 7 13 10
f 7 17 13
f 7 1 17
f 7 2 1
f 7 4 2
f 9 4 7
f 20 16 13
f 20 12 16
f 8 6 3
f 8 9 6
f 8 3 4
f 8 4 9
f 11 7 12
f 11 9 7
f 11 12 6
f 11 6 9
f 14 20 13
f 14 13 17
f 14 17 15
f 14 15 21
f 14 21 20
f 22 6 12
f 22 12 20
f 22 5 6
f 22 23 5
f 22 20 21
f 22 15 17
f 22 21 15
f 24 23 22
f 24 17 19
f 24 22 17
f 5 23 18
f 5 18 1
f 2 5 1
f 2 6 5
f 24 18 23
f 24 19 18
