# Parametric PetalDock simulation geometry; SI units
v 0.0317340523512 -0.004117028221 0.014
v 0.0317340523512 -0.004117028221 0.030105590811
v 0.031782242023 -0.0037268072118 0.014
v 0.031782242023 -0.0037268072118 0.0302917576451
v 0.0318095401918 -0.0041268216621 0.0304681403858
v 0.0318578444955 -0.0037356724089 0.0306584979824
v 0.0320245113743 -0.0041547110225 0.0307754950744
v 0.0320731421219 -0.0037609183543 0.0309694054279
v 0.0323462384848 -0.0041964504001 0.0309808629115
v 0.0323953577904 -0.0037987015816 0.0311771471413
v 0.0327257414871 -0.0042456853529 0.0310529785058
v 0.0327754370862 -0.0038432699371 0.0312500963301
v 0.0485927676627 -0.0063041994635 0.0310529785058
v 0.0486665580977 -0.005706673543 0.0312500963301
v 0.0489722706651 -0.0063534344163 0.0309808629115
v 0.0490466373935 -0.0057512418985 0.0311771471413
v 0.0492939977756 -0.0063951737939 0.0307754950744
v 0.0493688530619 -0.0057890251259 0.0309694054279
v 0.0495089689581 -0.0064230631543 0.0304681403858
v 0.0495841506884 -0.0058142710713 0.0306584979824
v 0.0495844567987 -0.0064328565954 0.014
v 0.0495844567987 -0.0064328565954 0.030105590811
v 0.0496597531609 -0.0058231362684 0.014
v 0.0496597531609 -0.0058231362684 0.0302917576451
f 10 23 3
f 10 3 4
f 5 1 21
f 5 21 13
f 14 12 13
f 14 10 12
f 14 24 23
f 14 23 10
f 22 13 21
f 2 1 5
f 11 13 12
f 11 12 10
f 17 13 22
f 17 18 16
f 6 10 4
f 6 8 10
f 6 5 8
f 6 4 2
f 6 2 5
f 9 5 13
f 9 13 11
f 9 11 10
f 20 16 18
f 20 22 24
f 15 13 17
f 15 17 16
f 15 16 14
f 15 14 13
f 7 8 5
f 7 5 9
f 7 10 8
f 7 9 10
f 19 18 17
f 19 20 18
f 19 17 22
f 19 22 20
f 3 23 21
f 3 21 1
f 22 21 23
f 22 23 24
f 2 3 1
f 2 4 3
f 20 14 16
f 20 24 14
