# Parametric PetalDock simulation geometry; SI units
v -0.0499915079941 -0.0009214816733 0.014
v -0.0499915079941 -0.0009214816733 0.0309999313503
v -0.0499764122818 -0.0015356482133 0.014
v -0.0499764122818 -0.0015356482133 0.0309873558423
v -0.0499154004549 -0.000920078801 0.0313826132373
v -0.0499003277245 -0.0015333103281 0.0313697546447
v -0.0496986645203 -0.0009160837587 0.031707035276
v -0.0496836572367 -0.0015266525943 0.0316939366958
v -0.0493742962716 -0.0009101047552 0.031923807152
v -0.049359386936 -0.0015166885916 0.0319105482172
v -0.0489916778342 -0.0009030520399 0.0319999273121
v -0.0489768840362 -0.001504935249 0.0319866120683
v -0.0329943952761 -0.0006081779044 0.0319999273121
v -0.032984432106 -0.0010135278208 0.0319866120683
v -0.0326117768388 -0.000601125189 0.031923807152
v -0.0326019292062 -0.0010017744782 0.0319105482172
v -0.03228740859 -0.0005951461856 0.031707035276
v -0.0322776589055 -0.0009918104755 0.0316939366958
v -0.0320706726554 -0.0005911511432 0.0313826132373
v -0.0320609884177 -0.0009851527417 0.0313697546447
v -0.0319945651162 -0.0005897482709 0.014
v -0.0319945651162 -0.0005897482709 0.0309999313503
v -0.0319849038604 -0.0009828148565 0.014
v -0.0319849038604 -0.0009828148565 0.0309873558423
f 18 3 23
f 4 3 18
f 5 2 4
f 9 7 8
f 9 5 7
f 9 2 5
f 9 21 1
f 9 1 2
f 24 18 23
f 16 14 18
f 6 5 4
f 6 8 7
f 6 7 5
f 10 9 8
f 10 8 6
f 10 12 11
f 10 11 9
f 10 6 14
f 10 14 12
f 13 9 11
f 13 11 12
f 13 12 14
f 19 22 21
f 19 21 9
f 19 24 22
f 15 9 13
f 15 19 9
f 15 16 18
f 15 14 16
f 15 13 14
f 20 18 24
f 20 24 19
f 17 15 18
f 17 19 15
f 17 18 20
f 17 20 19
f 21 23 3
f 21 3 1
f 4 1 3
f 4 2 1
f 24 23 21
f 24 21 22
f 6 4 18
f 6 18 14
