# Parametric PetalDock simulation geometry; SI units
v 0.029003737179 -0.0135197348218 0.014
v 0.029003737179 -0.0135197348218 0.0210925581395
v 0.0290727302425 -0.0135518950885 0.0212522172274
v 0.0291676622084 -0.0131623509032 0.014
v 0.0291676622084 -0.0131623509032 0.021490166113
v 0.0292370452109 -0.0131936610377 0.0216587756704
v 0.0292692058646 -0.0136434797796 0.0213875696664
v 0.0294346312855 -0.0132828247571 0.0218017159512
v 0.0295632524129 -0.0137805459561 0.0214780092747
v 0.0297303397434 -0.0134162676933 0.0218972255934
v 0.0299101039658 -0.013942226535 0.0215097674419
v 0.0300791516524 -0.0135736743689 0.0219307641196
v 0.0444119725553 -0.0207020939459 0.0215097674419
v 0.0446629827566 -0.0201548498205 0.0219307641196
v 0.0447588241083 -0.0208637745249 0.0214780092747
v 0.0450117946655 -0.0203122564962 0.0218972255934
v 0.0450528706565 -0.0210008407013 0.0213875696664
v 0.0452493462786 -0.0210924253924 0.0212522172274
v 0.0453075031234 -0.0204456994324 0.0218017159512
v 0.0453183393422 -0.0211245856591 0.014
v 0.0453183393422 -0.0211245856591 0.0210925581395
v 0.045505089198 -0.0205348631518 0.0216587756704
v 0.0455744722006 -0.0205661732863 0.014
v 0.0455744722006 -0.0205661732863 0.021490166113
f 24 23 19
f 5 12 4
f 18 1 20
f 9 1 18
f 9 2 1
f 21 18 20
f 22 24 19
f 22 19 18
f 22 21 24
f 22 18 21
f 13 12 11
f 14 12 13
f 14 4 12
f 14 23 4
f 14 19 23
f 15 11 9
f 15 13 11
f 15 9 18
f 15 14 13
f 6 5 2
f 6 12 5
f 7 2 9
f 10 11 12
f 10 9 11
f 10 12 6
f 10 6 8
f 10 7 9
f 10 8 7
f 17 18 19
f 17 15 18
f 16 19 14
f 16 14 15
f 16 17 19
f 16 15 17
f 3 8 6
f 3 7 8
f 3 6 2
f 3 2 7
f 4 23 20
f 4 20 1
f 2 4 1
f 2 5 4
f 21 20 23
f 21 23 24
