# Parametric PetalDock simulation geometry; SI units
v -0.018302324759 -0.0465298281581 0.014
v -0.018302324759 -0.0465298281581 0.0230805980066
v -0.0182744611286 -0.0464589907126 0.0232850094427
v -0.0181951122227 -0.0462572627353 0.0234583010906
v -0.018076358193 -0.0459553554818 0.0235740908679
v -0.0179362782638 -0.0455992315949 0.0236147508306
v -0.017729240095 -0.0467511929864 0.014
v -0.017729240095 -0.0467511929864 0.0234782059801
v -0.0177022489341 -0.0466800185331 0.0236915678858
v -0.017625384611 -0.0464773308385 0.0238724473755
v -0.0175103490221 -0.0461739872667 0.0239933071865
v -0.0173746552931 -0.0458161691267 0.0240357475083
v -0.0120795343409 -0.0307096865843 0.0236147508306
v -0.0119394544117 -0.0303535626974 0.0235740908679
v -0.0118207003819 -0.030051655444 0.0234583010906
v -0.0117413514761 -0.0298499274666 0.0232850094427
v -0.0117134878457 -0.0297790900212 0.014
v -0.0117134878457 -0.0297790900212 0.0230805980066
v -0.0117012984627 -0.030855787371 0.0240357475083
v -0.0115656047336 -0.0304979692311 0.0239933071865
v -0.0114505691448 -0.0301946256593 0.0238724473755
v -0.0113737048217 -0.0299919379646 0.0236915678858
v -0.0113467136608 -0.0299207635113 0.014
v -0.0113467136608 -0.0299207635113 0.0234782059801
f 11 7 23
f 9 8 7
f 5 11 12
f 10 7 11
f 10 9 7
f 2 8 9
f 2 5 1
f 20 21 15
f 20 13 19
f 20 12 11
f 20 19 12
f 20 23 24
f 20 11 23
f 3 5 2
f 3 9 10
f 3 2 9
f 16 15 21
f 16 18 17
f 16 17 1
f 16 1 5
f 16 5 13
f 6 13 5
f 6 19 13
f 6 5 12
f 6 12 19
f 14 20 15
f 14 13 20
f 14 15 16
f 14 16 13
f 4 5 3
f 4 3 10
f 4 11 5
f 4 10 11
f 22 24 18
f 22 18 16
f 22 16 21
f 22 21 20
f 22 20 24
f 17 23 7
f 17 7 1
f 2 1 7
f 2 7 8
f 18 23 17
f 18 24 23
