# Parametric PetalDock simulation geometry; SI units
v 0.031897996309 0.0025530044014 0.014
v 0.031897996309 0.0025530044014 0.0307200646527
v 0.0319269567437 0.0021608871055 0.014
v 0.0319269567437 0.0021608871055 0.0308194358237
v 0.0319738741337 0.002559077398 0.0310964465192
v 0.0320029034585 0.0021660273473 0.0311980546138
v 0.0321899558969 0.0025763718288 0.0314155276585
v 0.032219181404 0.0021806655174 0.0315190321253
v 0.0325133451088 0.0026022547738 0.0316287308595
v 0.0325428642235 0.0022025730871 0.0317335024417
v 0.0328948086936 0.002632785789 0.0317035978676
v 0.032924674142 0.0022284148276 0.0318088144016
v 0.0488438068481 0.0039092879897 0.0317035978676
v 0.0488881525139 0.0033088583803 0.0318088144016
v 0.0492252704329 0.0039398190049 0.0316287308595
v 0.0492699624324 0.0033347001208 0.0317335024417
v 0.0495486596449 0.0039657019499 0.0314155276585
v 0.0495936452519 0.0033566076905 0.0315190321253
v 0.049764741408 0.0039829963807 0.0310964465192
v 0.0498099231973 0.0033712458606 0.0311980546138
v 0.0498406192327 0.0039890693772 0.014
v 0.0498406192327 0.0039890693772 0.0307200646527
v 0.0498858699121 0.0033763861024 0.014
v 0.0498858699121 0.0033763861024 0.0308194358237
f 17 21 1
f 20 23 24
f 5 17 1
f 5 1 2
f 22 21 17
f 22 20 24
f 13 11 12
f 9 17 5
f 9 11 13
f 9 13 17
f 6 2 4
f 6 5 2
f 19 22 17
f 19 20 22
f 19 17 18
f 19 18 20
f 14 13 12
f 14 4 3
f 14 3 23
f 14 23 20
f 14 20 18
f 10 14 12
f 10 4 14
f 10 12 11
f 10 11 9
f 16 18 17
f 16 14 18
f 8 6 4
f 8 4 10
f 8 5 6
f 15 13 14
f 15 14 16
f 15 17 13
f 15 16 17
f 7 9 5
f 7 5 8
f 7 10 9
f 7 8 10
f 3 21 23
f 3 1 21
f 2 1 3
f 2 3 4
f 22 23 21
f 22 24 23
