# Parametric PetalDock simulation geometry; SI units
v 0.0283045070955 0.0149283246911 0.014
v 0.0283045070955 0.0149283246911 0.0195021262458
v 0.0283718368552 0.0149638356616 0.0196259834551
v 0.028485791981 0.0145794257504 0.014
v 0.028485791981 0.0145794257504 0.0198997342193
v 0.0285535529749 0.0146141067724 0.0200325418982
v 0.0285635757889 0.0150649623496 0.019730984527
v 0.0287465199593 0.0147128699672 0.0201451308118
v 0.028850533382 0.0152163091336 0.0198011440002
v 0.0290353154602 0.0148606795336 0.0202203603188
v 0.0291890229422 0.0153948348377 0.0198257807309
v 0.0293759729805 0.0150350328051 0.0202467774086
v 0.0433412764899 0.0228589971833 0.0198257807309
v 0.043618868971 0.0223247456804 0.0202467774086
v 0.0436797660501 0.0230375228874 0.0198011440002
v 0.0439595264913 0.0224990989519 0.0202203603188
v 0.0439667236432 0.0231888696714 0.019730984527
v 0.0441584625769 0.0232899963594 0.0196259834551
v 0.0442257923366 0.0233255073299 0.014
v 0.0442257923366 0.0233255073299 0.0195021262458
v 0.0442483219921 0.0226469085183 0.0201451308118
v 0.0444412889766 0.0227456717131 0.0200325418982
v 0.0445090499704 0.0227803527351 0.014
v 0.0445090499704 0.0227803527351 0.0198997342193
f 4 23 12
f 3 19 1
f 22 23 24
f 22 12 23
f 2 3 1
f 10 12 11
f 20 19 3
f 20 22 24
f 6 2 5
f 6 3 2
f 6 5 4
f 6 4 12
f 6 12 10
f 18 20 17
f 18 22 20
f 18 17 21
f 18 21 22
f 13 11 12
f 13 12 14
f 16 21 17
f 16 22 21
f 16 12 22
f 16 14 12
f 8 3 6
f 8 6 10
f 9 11 13
f 9 10 11
f 7 20 3
f 7 13 20
f 7 9 13
f 7 3 8
f 7 8 10
f 7 10 9
f 15 17 20
f 15 20 13
f 15 16 17
f 15 13 14
f 15 14 16
f 4 19 23
f 4 1 19
f 2 1 4
f 2 4 5
f 20 23 19
f 20 24 23
