# Parametric PetalDock simulation geometry; SI units
v 0.0275369191913 0.0163008613715 0.014
v 0.0275369191913 0.0163008613715 0.0179116943522
v 0.0276024230401 0.0163396372836 0.0179997496828
v 0.0277351261145 0.0159612900297 0.014
v 0.0277351261145 0.0159612900297 0.0183093023256
v 0.0277889622194 0.0164500617389 0.0180743993876
v 0.0278011014509 0.0159992581816 0.0184063081259
v 0.0279889833133 0.0161073823301 0.0184885456724
v 0.02806813783 0.016615323615 0.0181242787257
v 0.0282701683912 0.016269201554 0.0185434950443
v 0.028397447916 0.0168102632893 0.0181417940199
v 0.0286018488056 0.0164600803432 0.0185627906977
v 0.0421659075117 0.0249606939751 0.0181417940199
v 0.0424694118628 0.024440725358 0.0185627906977
v 0.0424952175977 0.0251556336495 0.0181242787257
v 0.0427743932083 0.0253208955256 0.0180743993876
v 0.0428010922772 0.0246316041472 0.0185434950443
v 0.0429609323876 0.0254313199808 0.0179997496828
v 0.0430264362364 0.0254700958929 0.014
v 0.0430264362364 0.0254700958929 0.0179116943522
v 0.0430822773551 0.024793423371 0.0184885456724
v 0.0432701592175 0.0249015475196 0.0184063081259
v 0.0433361345539 0.0249395156714 0.014
v 0.0433361345539 0.0249395156714 0.0183093023256
f 16 19 1
f 14 13 12
f 20 19 16
f 17 21 16
f 11 12 13
f 8 21 17
f 8 24 21
f 8 14 12
f 8 17 14
f 8 4 23
f 8 23 24
f 8 5 4
f 18 16 21
f 18 20 16
f 9 2 6
f 9 1 2
f 9 16 1
f 9 11 13
f 7 2 5
f 7 5 8
f 22 24 20
f 22 20 18
f 22 21 24
f 22 18 21
f 15 9 13
f 15 16 9
f 15 17 16
f 15 13 14
f 15 14 17
f 10 6 8
f 10 9 6
f 10 8 12
f 10 12 11
f 10 11 9
f 3 6 2
f 3 2 7
f 3 8 6
f 3 7 8
f 4 19 23
f 4 1 19
f 20 23 19
f 20 24 23
f 2 1 4
f 2 4 5
