# Parametric PetalDock simulation geometry; SI units
v -0.0436392903559 -0.0244051702972 0.014
v -0.0436392903559 -0.0244051702972 0.018706910299
v -0.0435728534922 -0.0243680156377 0.0188128665689
v -0.0433836573115 -0.0242622081195 0.0189026919573
v -0.0433361345539 -0.0249395156714 0.014
v -0.0433361345539 -0.0249395156714 0.0183093023256
v -0.0432701592175 -0.0249015475196 0.0184063081259
v -0.0431005052172 -0.024103855978 0.0189627113629
v -0.0430822773551 -0.024793423371 0.0184885456724
v -0.0428010922772 -0.0246316041472 0.0185434950443
v -0.0427665045488 -0.0239170668912 0.0189837873754
v -0.0424694118628 -0.024440725358 0.0185627906977
v -0.0288019316349 -0.0161074123961 0.0189837873754
v -0.0286018488056 -0.0164600803432 0.0185627906977
v -0.0284679309665 -0.0159206233094 0.0189627113629
v -0.0282701683912 -0.016269201554 0.0185434950443
v -0.0281847788722 -0.0157622711679 0.0189026919573
v -0.0279955826914 -0.0156564636496 0.0188128665689
v -0.0279889833133 -0.0161073823301 0.0184885456724
v -0.0279291458278 -0.0156193089902 0.014
v -0.0279291458278 -0.0156193089902 0.018706910299
v -0.0278011014509 -0.0159992581816 0.0184063081259
v -0.0277351261145 -0.0159612900297 0.014
v -0.0277351261145 -0.0159612900297 0.0183093023256
f 20 1 11
f 22 5 23
f 12 5 22
f 3 4 11
f 3 1 2
f 3 11 1
f 3 2 6
f 8 11 4
f 8 4 9
f 16 14 12
f 16 12 22
f 24 22 23
f 7 3 6
f 7 9 4
f 7 4 3
f 7 6 5
f 7 5 12
f 10 8 9
f 10 9 7
f 10 7 12
f 10 12 11
f 10 11 8
f 18 17 22
f 18 24 21
f 18 22 24
f 18 21 20
f 19 16 22
f 19 22 17
f 15 14 16
f 15 16 19
f 15 19 17
f 13 12 14
f 13 14 15
f 13 11 12
f 13 20 11
f 13 18 20
f 13 17 18
f 13 15 17
f 20 23 5
f 20 5 1
f 6 1 5
f 6 2 1
f 24 23 20
f 24 20 21
