# Parametric PetalDock simulation geometry; SI units
v -0.0058231362684 0.0496597531609 0.014
v -0.0058231362684 0.0496597531609 0.0302917576451
v -0.0058142710713 0.0495841506884 0.0306584979824
v -0.0057890251259 0.0493688530619 0.0309694054279
v -0.0057512418985 0.0490466373935 0.0311771471413
v -0.005706673543 0.0486665580977 0.0312500963301
v -0.0052125368145 0.0497275523222 0.014
v -0.0052125368145 0.0497275523222 0.0304562255634
v -0.0052046011998 0.0496518466316 0.0308266682035
v -0.0051820024808 0.0494362550649 0.0311407143098
v -0.0051481811078 0.0491135994839 0.0313505532093
v -0.0051082860782 0.0487330012758 0.0314242388318
v -0.0038432699371 0.0327754370862 0.0312500963301
v -0.0037987015816 0.0323953577904 0.0311771471413
v -0.0037609183543 0.0320731421219 0.0309694054279
v -0.0037356724089 0.0318578444955 0.0306584979824
v -0.0037268072118 0.031782242023 0.014
v -0.0037268072118 0.031782242023 0.0302917576451
v -0.0034402742976 0.0328201845327 0.0314242388318
v -0.003400379268 0.0324395863245 0.0313505532093
v -0.003366557895 0.0321169307435 0.0311407143098
v -0.0033439591761 0.0319013391768 0.0308266682035
v -0.0033360235613 0.0318256334862 0.014
v -0.0033360235613 0.0318256334862 0.0304562255634
f 8 12 7
f 4 1 17
f 4 17 15
f 21 23 7
f 21 7 12
f 2 1 4
f 24 23 21
f 5 4 15
f 5 15 6
f 5 6 12
f 13 6 15
f 9 8 2
f 9 10 8
f 11 10 4
f 11 4 5
f 11 5 12
f 11 12 8
f 11 8 10
f 20 15 21
f 3 2 4
f 3 9 2
f 3 4 10
f 3 10 9
f 16 17 18
f 16 15 17
f 16 21 15
f 14 13 15
f 14 15 20
f 14 20 13
f 19 13 20
f 19 12 6
f 19 6 13
f 19 21 12
f 19 20 21
f 22 18 24
f 22 16 18
f 22 24 21
f 22 21 16
f 17 7 23
f 17 1 7
f 2 7 1
f 2 8 7
f 18 17 23
f 18 23 24
