# Parametric PetalDock simulation geometry; SI units
v 0.0021608871055 -0.0319269567437 0.014
v 0.0021608871055 -0.0319269567437 0.0308194358237
v 0.0021660273473 -0.0320029034585 0.0311980546138
v 0.0021806655174 -0.032219181404 0.0315190321253
v 0.0022025730871 -0.0325428642235 0.0317335024417
v 0.0022284148276 -0.032924674142 0.0318088144016
v 0.0025530044014 -0.031897996309 0.014
v 0.0025530044014 -0.031897996309 0.0307200646527
v 0.002559077398 -0.0319738741337 0.0310964465192
v 0.0025763718288 -0.0321899558969 0.0314155276585
v 0.0026022547738 -0.0325133451088 0.0316287308595
v 0.002632785789 -0.0328948086936 0.0317035978676
v 0.0033088583803 -0.0488881525139 0.0318088144016
v 0.0033347001208 -0.0492699624324 0.0317335024417
v 0.0033566076905 -0.0495936452519 0.0315190321253
v 0.0033712458606 -0.0498099231973 0.0311980546138
v 0.0033763861024 -0.0498858699121 0.014
v 0.0033763861024 -0.0498858699121 0.0308194358237
v 0.0039092879897 -0.0488438068481 0.0317035978676
v 0.0039398190049 -0.0492252704329 0.0316287308595
v 0.0039657019499 -0.0495486596449 0.0314155276585
v 0.0039829963807 -0.049764741408 0.0310964465192
v 0.0039890693772 -0.0498406192327 0.014
v 0.0039890693772 -0.0498406192327 0.0307200646527
f 13 1 17
f 2 1 13
f 19 6 13
f 12 6 19
f 3 8 2
f 3 2 4
f 5 6 12
f 5 13 6
f 5 2 13
f 5 4 2
f 10 4 5
f 21 23 7
f 21 24 23
f 9 7 8
f 9 8 3
f 9 21 7
f 9 3 4
f 9 4 10
f 11 5 12
f 11 10 5
f 11 9 10
f 11 21 9
f 11 12 19
f 11 19 21
f 20 19 13
f 20 21 19
f 16 18 24
f 16 17 18
f 16 13 17
f 14 20 13
f 14 21 20
f 22 24 21
f 22 16 24
f 15 21 14
f 15 22 21
f 15 16 22
f 15 13 16
f 15 14 13
f 7 23 17
f 7 17 1
f 2 7 1
f 2 8 7
f 24 17 23
f 24 18 17
