# Parametric PetalDock simulation geometry; SI units
v 0.0124416759063 -0.0294822777384 0.014
v 0.0124416759063 -0.0294822777384 0.0222853820598
v 0.0124712717247 -0.0295524091372 0.0224718925566
v 0.0125555534846 -0.0297521264641 0.0226300085209
v 0.0126816900522 -0.0300510245665 0.0227356582306
v 0.0128029798465 -0.0293271837559 0.014
v 0.0128029798465 -0.0293271837559 0.0218877740864
v 0.0128304782784 -0.0304035989177 0.0227727574751
v 0.0128334351218 -0.0293969462227 0.0220653341135
v 0.0129201644083 -0.0295956129199 0.0222158622361
v 0.0130499639582 -0.0298929386438 0.022316441912
v 0.0132030729667 -0.0302436582483 0.0223517607973
v 0.0190513162316 -0.0451447377869 0.0227727574751
v 0.0192001044578 -0.0454973121381 0.0227356582306
v 0.0193262410254 -0.0457962102404 0.0226300085209
v 0.0194105227853 -0.0459959275673 0.0224718925566
v 0.0194401186036 -0.0460660589662 0.014
v 0.0194401186036 -0.0460660589662 0.0222853820598
v 0.0196045628899 -0.0449072501262 0.0223517607973
v 0.0197576718984 -0.0452579697306 0.022316441912
v 0.0198874714483 -0.0455552954545 0.0222158622361
v 0.0199742007347 -0.0457539621518 0.0220653341135
v 0.0200046560101 -0.0458237246186 0.014
v 0.0200046560101 -0.0458237246186 0.0218877740864
f 21 23 6
f 14 15 21
f 14 2 18
f 14 8 2
f 4 2 8
f 24 23 21
f 11 6 7
f 11 21 6
f 13 8 14
f 3 7 2
f 3 2 4
f 22 21 15
f 22 24 21
f 19 21 11
f 19 8 13
f 5 4 8
f 10 11 7
f 10 4 5
f 10 5 11
f 16 18 24
f 16 24 22
f 16 22 15
f 16 15 14
f 16 14 18
f 12 8 19
f 12 19 11
f 12 5 8
f 12 11 5
f 20 14 21
f 20 21 19
f 20 13 14
f 20 19 13
f 9 7 3
f 9 10 7
f 9 3 4
f 9 4 10
f 6 23 17
f 6 17 1
f 2 6 1
f 2 7 6
f 2 1 17
f 2 17 18
f 24 17 23
f 24 18 17
