# Parametric PetalDock simulation geometry; SI units
v 0.0179607914839 -0.0264841456209 0.014
v 0.0179607914839 -0.0264841456209 0.0161264937444
v 0.018003515979 -0.0265471451693 0.0161743627988
v 0.0181251850473 -0.026726552704 0.0162149442236
v 0.0182848413338 -0.0262614656369 0.014
v 0.0182848413338 -0.0262614656369 0.0158335583816
v 0.0183072756761 -0.0269950550544 0.0162420598647
v 0.0183283366673 -0.0263239354819 0.0158748332296
v 0.0184522008974 -0.0265018345494 0.0159098243561
v 0.0185220662178 -0.0273117751716 0.0162515816117
v 0.018637576818 -0.026768079319 0.0159332046793
v 0.0188562426255 -0.027082136438 0.015941414757
v 0.0275024619597 -0.0405538479821 0.0162515816117
v 0.0277172525014 -0.0408705680992 0.0162420598647
v 0.0278993431302 -0.0411390704497 0.0162149442236
v 0.0279986632924 -0.0402128692565 0.015941414757
v 0.0280210121985 -0.0413184779844 0.0161743627988
v 0.0280637366936 -0.0413814775327 0.014
v 0.0280637366936 -0.0413814775327 0.0161264937444
v 0.0282173291 -0.0405269263755 0.0159332046793
v 0.0284027050206 -0.0407931711451 0.0159098243561
v 0.0285265692507 -0.0409710702126 0.0158748332296
v 0.0285700645841 -0.0410335400576 0.014
v 0.0285700645841 -0.0410335400576 0.0158335583816
f 19 13 18
f 15 19 17
f 15 13 19
f 15 14 13
f 20 13 14
f 3 6 2
f 3 2 1
f 3 13 4
f 3 1 18
f 3 18 13
f 7 13 10
f 7 4 13
f 12 7 10
f 16 10 13
f 16 13 20
f 16 12 10
f 16 20 12
f 21 14 15
f 21 20 14
f 9 4 7
f 22 15 17
f 22 21 15
f 22 23 21
f 11 7 12
f 11 9 7
f 11 12 20
f 11 20 21
f 11 21 23
f 11 23 5
f 8 3 4
f 8 4 9
f 8 6 3
f 8 5 6
f 8 11 5
f 8 9 11
f 24 17 19
f 24 22 17
f 24 23 22
f 5 23 18
f 5 18 1
f 2 5 1
f 2 6 5
f 24 18 23
f 24 19 18
