# Parametric PetalDock simulation geometry; SI units
v -0.0481013835793 0.0136475967759 0.014
v -0.0481013835793 0.0136475967759 0.026261461794
v -0.0480281535832 0.0136268195469 0.0265374769873
v -0.0479300672018 0.0142375790791 0.014
v -0.0479300672018 0.0142375790791 0.0258638538206
v -0.0478570980193 0.0142159036556 0.0261309185442
v -0.047819612198 0.0135676510049 0.0267714713694
v -0.0476492993686 0.0141541772718 0.0263573250846
v -0.0475075079591 0.0134790990239 0.026927821417
v -0.0473383067103 0.0140617972101 0.0265086050983
v -0.0471393559077 0.0133746448403 0.0269827242525
v -0.0469714658577 0.0139528274975 0.0265617275748
v -0.0317469131623 0.0090074138721 0.0269827242525
v -0.0316338443532 0.0093968021922 0.0265617275748
v -0.0313787611109 0.0089029596885 0.026927821417
v -0.0312670035006 0.0092878324796 0.0265086050983
v -0.0310666568721 0.0088144077075 0.0267714713694
v -0.0309560108424 0.0091954524179 0.0263573250846
v -0.0308581154869 0.0087552391655 0.0265374769873
v -0.0307848854908 0.0087344619366 0.014
v -0.0307848854908 0.0087344619366 0.026261461794
v -0.0307482121916 0.0091337260341 0.0261309185442
v -0.0306752430091 0.0091120506106 0.014
v -0.0306752430091 0.0091120506106 0.0258638538206
f 20 11 1
f 17 11 20
f 6 23 4
f 13 12 11
f 5 6 4
f 3 2 1
f 3 1 11
f 3 5 2
f 3 6 5
f 16 6 12
f 16 23 6
f 22 18 17
f 15 11 17
f 15 13 11
f 15 17 18
f 15 18 16
f 9 3 11
f 10 12 6
f 10 6 8
f 10 8 9
f 10 11 12
f 10 9 11
f 14 12 13
f 14 16 12
f 14 13 15
f 14 15 16
f 19 22 17
f 19 17 20
f 19 20 21
f 24 23 16
f 24 19 21
f 24 22 19
f 24 16 18
f 24 18 22
f 7 3 9
f 7 9 8
f 7 6 3
f 7 8 6
f 20 4 23
f 20 1 4
f 5 4 1
f 5 1 2
f 24 20 23
f 24 21 20
