# Parametric PetalDock simulation geometry; SI units
v -0.0329239660279 0.0376299410177 0.014
v -0.0329239660279 0.0376299410177 0.0141735913261
v -0.0328738422742 0.0375726528436 0.014177499004
v -0.0327311019002 0.0374095099267 0.0141808117734
v -0.0325174758339 0.0371653492971 0.0141830252951
v -0.0324591288507 0.0380316309702 0.014
v -0.0324591288507 0.0380316309702 0.014271236447
v -0.0324097127694 0.0379737312596 0.0142773421937
v -0.0322689876761 0.037808846834 0.0142825183959
v -0.0322654867074 0.0368773421973 0.0141838025805
v -0.0320583776905 0.0375620798524 0.0142859770236
v -0.0318099462737 0.0372709983508 0.0142871915321
v -0.0217298175784 0.0248357610717 0.0141838025805
v -0.0214778284519 0.0245477539719 0.0141830252951
v -0.0214230250415 0.0251008764403 0.0142871915321
v -0.0212642023856 0.0243035933423 0.0141808117734
v -0.0211745936247 0.0248097949388 0.0142859770236
v -0.0211214620116 0.0241404504253 0.014177499004
v -0.0210713382579 0.0240831622513 0.014
v -0.0210713382579 0.0240831622513 0.0141735913261
v -0.020963983639 0.0245630279572 0.0142825183959
v -0.0208232585457 0.0243981435315 0.0142773421937
v -0.0207738424644 0.0243402438209 0.014
v -0.0207738424644 0.0243402438209 0.014271236447
f 9 23 6
f 9 21 23
f 24 23 21
f 11 9 4
f 11 21 9
f 3 4 9
f 3 2 1
f 8 6 7
f 8 9 6
f 8 3 9
f 8 7 2
f 8 2 3
f 5 15 12
f 5 12 11
f 5 11 4
f 17 21 11
f 17 12 15
f 17 11 12
f 17 16 21
f 17 14 16
f 18 19 20
f 18 16 14
f 18 21 16
f 10 15 5
f 10 18 14
f 10 4 3
f 10 5 4
f 10 19 18
f 10 1 19
f 10 3 1
f 22 20 24
f 22 18 20
f 22 24 21
f 22 21 18
f 13 17 15
f 13 15 10
f 13 14 17
f 13 10 14
f 19 6 23
f 19 1 6
f 2 6 1
f 2 7 6
f 20 19 23
f 20 23 24
