# Parametric PetalDock simulation geometry; SI units
v 0.0128029798465 -0.0293271837559 0.014
v 0.0128029798465 -0.0293271837559 0.0218877740864
v 0.0128334351218 -0.0293969462227 0.0220653341135
v 0.0129201644083 -0.0295956129199 0.0222158622361
v 0.0130499639582 -0.0298929386438 0.022316441912
v 0.0131623509032 -0.0291676622084 0.014
v 0.0131623509032 -0.0291676622084 0.021490166113
v 0.0131936610377 -0.0292370452109 0.0216587756704
v 0.0132030729667 -0.0302436582483 0.0223517607973
v 0.0132828247571 -0.0294346312855 0.0218017159512
v 0.0134162676933 -0.0297303397434 0.0218972255934
v 0.0135736743689 -0.0300791516524 0.0219307641196
v 0.0196045628899 -0.0449072501262 0.0223517607973
v 0.0197576718984 -0.0452579697306 0.022316441912
v 0.0198874714483 -0.0455552954545 0.0222158622361
v 0.0199742007347 -0.0457539621518 0.0220653341135
v 0.0200046560101 -0.0458237246186 0.014
v 0.0200046560101 -0.0458237246186 0.0218877740864
v 0.0201548498205 -0.0446629827566 0.0219307641196
v 0.0203122564962 -0.0450117946655 0.0218972255934
v 0.0204456994324 -0.0453075031234 0.0218017159512
v 0.0205348631518 -0.045505089198 0.0216587756704
v 0.0205661732863 -0.0455744722006 0.014
v 0.0205661732863 -0.0455744722006 0.021490166113
f 16 1 17
f 13 9 16
f 18 16 17
f 10 23 6
f 14 16 15
f 14 13 16
f 14 15 21
f 3 7 2
f 3 9 4
f 3 2 1
f 3 1 16
f 3 16 9
f 22 23 10
f 22 15 16
f 22 21 15
f 8 6 7
f 8 10 6
f 8 7 3
f 8 4 10
f 8 3 4
f 19 9 13
f 5 4 9
f 5 10 4
f 20 21 22
f 20 22 10
f 20 14 21
f 20 13 14
f 20 19 13
f 24 23 22
f 24 16 18
f 24 22 16
f 12 9 19
f 12 5 9
f 11 19 20
f 11 12 19
f 11 20 10
f 11 10 5
f 11 5 12
f 6 23 17
f 6 17 1
f 2 6 1
f 2 7 6
f 24 17 23
f 24 18 17
