# Parametric PetalDock simulation geometry; SI units
v -0.0270384475311 0.0420585586428 0.014
v -0.0270384475311 0.0420585586428 0.0167774612171
v -0.0269972839458 0.0419945282999 0.0168399840637
v -0.0268800599725 0.0418121853104 0.0168929883737
v -0.0267046218986 0.0415392897416 0.0169284047213
v -0.0265196410484 0.0423876000578 0.014
v -0.0265196410484 0.0423876000578 0.0171354933272
v -0.0264976785805 0.0412173874699 0.0169408412887
v -0.0264792672989 0.0423230687792 0.0172060757594
v -0.0263642925878 0.0421392992455 0.0172659126562
v -0.0261922207727 0.0418642687023 0.0173058943924
v -0.0259892482274 0.0415398480567 0.0173199341111
v -0.0178453753705 0.0277586487042 0.0169408412887
v -0.0176384320524 0.0274367464326 0.0169284047213
v -0.0175029630919 0.0279758160382 0.0173199341111
v -0.0174629939785 0.0271638508638 0.0168929883737
v -0.0173457700052 0.0269815078743 0.0168399840637
v -0.0173046064199 0.0269174775314 0.014
v -0.0173046064199 0.0269174775314 0.0167774612171
v -0.0172999905467 0.0276513953926 0.0173058943924
v -0.0171279187315 0.0273763648494 0.0172659126562
v -0.0170129440205 0.0271925953157 0.0172060757594
v -0.016972570271 0.027128064037 0.014
v -0.016972570271 0.027128064037 0.0171354933272
f 10 11 12
f 5 12 11
f 9 6 7
f 9 10 6
f 24 23 21
f 8 12 5
f 8 1 18
f 4 11 10
f 4 5 11
f 4 8 5
f 3 10 9
f 3 4 10
f 3 1 8
f 3 8 4
f 17 21 16
f 17 16 19
f 14 13 8
f 14 8 18
f 14 18 19
f 14 19 16
f 15 8 13
f 15 12 8
f 15 10 12
f 15 6 10
f 15 23 6
f 15 21 23
f 2 9 7
f 2 3 9
f 2 1 3
f 22 19 24
f 22 17 19
f 22 24 21
f 22 21 17
f 20 13 14
f 20 15 13
f 20 21 15
f 20 16 21
f 20 14 16
f 18 6 23
f 18 1 6
f 19 18 23
f 19 23 24
f 2 6 1
f 2 7 6
