# Parametric PetalDock simulation geometry; SI units
v -0.0244051702972 0.0436392903559 0.014
v -0.0244051702972 0.0436392903559 0.018706910299
v -0.0243680156377 0.0435728534922 0.0188128665689
v -0.0242622081195 0.0433836573115 0.0189026919573
v -0.024103855978 0.0431005052172 0.0189627113629
v -0.0239170668912 0.0427665045488 0.0189837873754
v -0.0238671404409 0.0439358578746 0.014
v -0.0238671404409 0.0439358578746 0.0191045182724
v -0.0238308048832 0.0438689695137 0.019219425012
v -0.0237273299692 0.0436784875779 0.0193168382421
v -0.0235724688166 0.043393411215 0.0193819276816
v -0.0233897976321 0.0430571407171 0.0194047840532
v -0.0161074123961 0.0288019316349 0.0189837873754
v -0.0159206233094 0.0284679309665 0.0189627113629
v -0.0157622711679 0.0281847788722 0.0189026919573
v -0.015752312691 0.0289976661972 0.0194047840532
v -0.0156564636496 0.0279955826914 0.0188128665689
v -0.0156193089902 0.0279291458278 0.014
v -0.0156193089902 0.0279291458278 0.018706910299
v -0.0155696415065 0.0286613956993 0.0193819276816
v -0.0154147803539 0.0283763193364 0.0193168382421
v -0.01531130544 0.0281858374005 0.019219425012
v -0.0152749698822 0.0281189490397 0.014
v -0.0152749698822 0.0281189490397 0.0191045182724
f 18 15 1
f 21 8 12
f 21 23 7
f 21 7 8
f 9 10 8
f 11 12 8
f 11 8 10
f 24 23 21
f 5 12 11
f 20 15 21
f 20 21 12
f 20 12 16
f 19 15 18
f 6 16 12
f 6 12 5
f 4 11 10
f 4 5 11
f 17 21 15
f 17 15 19
f 13 6 5
f 13 16 6
f 13 20 16
f 3 10 9
f 3 4 10
f 22 19 24
f 22 17 19
f 22 24 21
f 22 21 17
f 14 13 5
f 14 15 20
f 14 20 13
f 2 9 8
f 2 3 9
f 2 4 3
f 2 14 5
f 2 5 4
f 18 7 23
f 18 1 7
f 19 18 23
f 19 23 24
f 2 7 1
f 2 8 7
f 2 15 14
f 2 1 15
