# Parametric PetalDock simulation geometry; SI units
v 0.0182848413338 0.0262614656369 0.014
v 0.0182848413338 0.0262614656369 0.0158335583816
v 0.0183283366673 0.0263239354819 0.0158748332296
v 0.0184522008974 0.0265018345494 0.0159098243561
v 0.0186061306963 0.0260348209234 0.014
v 0.0186061306963 0.0260348209234 0.0155623219346
v 0.018637576818 0.026768079319 0.0159332046793
v 0.0186503903015 0.026096751634 0.0155974910358
v 0.0187764309934 0.0262731153766 0.0156273059602
v 0.0188562426255 0.027082136438 0.015941414757
v 0.0189650642193 0.02653706237 0.0156472276557
v 0.0191875722805 0.0268484090773 0.0156542232249
v 0.0279986632924 0.0402128692565 0.015941414757
v 0.0282173291 0.0405269263755 0.0159332046793
v 0.0284027050206 0.0407931711451 0.0159098243561
v 0.0284906376286 0.039865819539 0.0156542232249
v 0.0285265692507 0.0409710702126 0.0158748332296
v 0.0285700645841 0.0410335400576 0.014
v 0.0285700645841 0.0410335400576 0.0158335583816
v 0.0287131456898 0.0401771662462 0.0156472276557
v 0.0289017789157 0.0404411132396 0.0156273059602
v 0.0290278196077 0.0406174769822 0.0155974910358
v 0.0290720792129 0.0406794076928 0.014
v 0.0290720792129 0.0406794076928 0.0155623219346
f 13 18 1
f 2 13 1
f 2 10 13
f 19 18 13
f 16 13 10
f 4 10 2
f 12 16 10
f 3 2 6
f 3 4 2
f 7 10 4
f 7 12 10
f 9 7 4
f 8 6 22
f 8 3 6
f 8 4 3
f 8 9 4
f 20 16 12
f 20 13 16
f 17 15 22
f 17 24 19
f 17 22 24
f 17 19 13
f 17 13 15
f 21 8 22
f 21 20 8
f 21 22 15
f 11 20 12
f 11 8 20
f 11 9 8
f 11 12 7
f 11 7 9
f 14 15 13
f 14 13 20
f 14 21 15
f 14 20 21
f 5 18 23
f 5 1 18
f 2 1 5
f 2 5 6
f 24 23 18
f 24 18 19
f 24 5 23
f 24 22 6
f 24 6 5
