# Parametric PetalDock simulation geometry; SI units
v 0.0005897482709 -0.0319945651162 0.014
v 0.0005897482709 -0.0319945651162 0.0309999313503
v 0.0005911511432 -0.0320706726554 0.0313826132373
v 0.0005951461856 -0.03228740859 0.031707035276
v 0.000601125189 -0.0326117768388 0.031923807152
v 0.0006081779044 -0.0329943952761 0.0319999273121
v 0.0009030520399 -0.0489916778342 0.0319999273121
v 0.0009101047552 -0.0493742962716 0.031923807152
v 0.0009160837587 -0.0496986645203 0.031707035276
v 0.000920078801 -0.0499154004549 0.0313826132373
v 0.0009214816733 -0.0499915079941 0.014
v 0.0009214816733 -0.0499915079941 0.0309999313503
v 0.0009828148565 -0.0319849038604 0.014
v 0.0009828148565 -0.0319849038604 0.0309873558423
v 0.0009851527417 -0.0320609884177 0.0313697546447
v 0.0009918104755 -0.0322776589055 0.0316939366958
v 0.0010017744782 -0.0326019292062 0.0319105482172
v 0.0010135278208 -0.032984432106 0.0319866120683
v 0.001504935249 -0.0489768840362 0.0319866120683
v 0.0015166885916 -0.049359386936 0.0319105482172
v 0.0015266525943 -0.0496836572367 0.0316939366958
v 0.0015333103281 -0.0499003277245 0.0313697546447
v 0.0015356482133 -0.0499764122818 0.014
v 0.0015356482133 -0.0499764122818 0.0309873558423
f 8 1 11
f 12 8 11
f 7 6 8
f 21 8 9
f 10 9 8
f 10 8 12
f 16 23 13
f 16 13 14
f 3 14 2
f 3 2 1
f 3 1 8
f 24 23 16
f 24 10 12
f 15 16 14
f 15 14 3
f 15 4 16
f 15 3 4
f 17 18 16
f 20 7 8
f 20 8 21
f 5 16 4
f 5 17 16
f 5 4 3
f 5 6 18
f 5 18 17
f 5 8 6
f 5 3 8
f 22 18 20
f 22 20 21
f 22 10 24
f 22 21 9
f 22 9 10
f 19 7 20
f 19 20 18
f 19 6 7
f 19 18 6
f 13 23 11
f 13 11 1
f 2 13 1
f 2 14 13
f 24 11 23
f 24 12 11
f 22 16 18
f 22 24 16
