# Parametric PetalDock simulation geometry; SI units
v -0.0280637366936 0.0413814775327 0.014
v -0.0280637366936 0.0413814775327 0.0161264937444
v -0.0280210121985 0.0413184779844 0.0161743627988
v -0.0278993431302 0.0411390704497 0.0162149442236
v -0.0277172525014 0.0408705680992 0.0162420598647
v -0.0275531719824 0.0417231675896 0.014
v -0.0275531719824 0.0417231675896 0.0164411280229
v -0.0275112247757 0.0416596478492 0.0164960797435
v -0.0275024619597 0.0405538479821 0.0162515816117
v -0.0273917692378 0.0414787589325 0.0165426655628
v -0.0272129913913 0.0412080395375 0.0165737932121
v -0.0270021085427 0.0408887042378 0.0165847237889
v -0.0185220662178 0.0273117751716 0.0162515816117
v -0.0183072756761 0.0269950550544 0.0162420598647
v -0.0181850935084 0.0275372906091 0.0165847237889
v -0.0181251850473 0.026726552704 0.0162149442236
v -0.018003515979 0.0265471451693 0.0161743627988
v -0.0179742106598 0.0272179553095 0.0165737932121
v -0.0179607914839 0.0264841456209 0.014
v -0.0179607914839 0.0264841456209 0.0161264937444
v -0.0177954328133 0.0269472359144 0.0165426655628
v -0.0176759772754 0.0267663469978 0.0164960797435
v -0.0176340300687 0.0267028272573 0.014
v -0.0176340300687 0.0267028272573 0.0164411280229
f 8 6 7
f 8 23 6
f 11 12 8
f 11 8 10
f 11 10 4
f 3 10 8
f 3 4 10
f 3 1 19
f 20 3 19
f 5 11 4
f 5 12 11
f 5 9 12
f 5 4 3
f 15 12 9
f 2 8 7
f 2 3 8
f 2 1 3
f 17 21 16
f 17 16 20
f 13 9 5
f 13 15 9
f 13 3 20
f 13 5 3
f 22 20 24
f 22 17 20
f 22 24 21
f 22 21 17
f 14 20 16
f 14 13 20
f 18 15 13
f 18 13 14
f 18 12 15
f 18 16 21
f 18 14 16
f 18 8 12
f 18 23 8
f 18 24 23
f 18 21 24
f 19 6 23
f 19 1 6
f 20 19 23
f 20 23 24
f 2 6 1
f 2 7 6
