# Parametric PetalDock simulation geometry; SI units
v -0.0046011504169 -0.0497878440469 0.014
v -0.0046011504169 -0.0497878440469 0.0305989945659
v -0.0045941455825 -0.0497120465676 0.0309726510491
v -0.0045741975018 -0.0494961936089 0.0312894217199
v -0.0045443430892 -0.049173146827 0.0315010811153
v -0.0045091274085 -0.048792087166 0.031575406011
v -0.0039890693772 -0.0498406192327 0.014
v -0.0039890693772 -0.0498406192327 0.0307200646527
v -0.0039829963807 -0.049764741408 0.0310964465192
v -0.0039657019499 -0.0495486596449 0.0314155276585
v -0.0039398190049 -0.0492252704329 0.0316287308595
v -0.0039092879897 -0.0488438068481 0.0317035978676
v -0.0030367592751 -0.032859977071 0.031575406011
v -0.0030015435945 -0.03247891741 0.0315010811153
v -0.0029716891819 -0.032155870628 0.0312894217199
v -0.0029517411012 -0.0319400176693 0.0309726510491
v -0.0029447362668 -0.03186422019 0.014
v -0.0029447362668 -0.03186422019 0.0305989945659
v -0.002632785789 -0.0328948086936 0.0317035978676
v -0.0026022547738 -0.0325133451088 0.0316287308595
v -0.0025763718288 -0.0321899558969 0.0314155276585
v -0.002559077398 -0.0319738741337 0.0310964465192
v -0.0025530044014 -0.031897996309 0.014
v -0.0025530044014 -0.031897996309 0.0307200646527
f 14 4 6
f 14 6 13
f 14 17 1
f 19 6 12
f 19 13 6
f 9 2 8
f 11 4 10
f 11 10 9
f 11 19 12
f 11 21 19
f 11 8 21
f 11 9 8
f 18 17 14
f 20 14 13
f 20 13 19
f 20 19 21
f 20 21 15
f 20 15 14
f 3 2 9
f 3 1 2
f 3 10 4
f 3 9 10
f 3 14 1
f 3 4 14
f 5 6 4
f 5 4 11
f 5 12 6
f 5 11 12
f 16 14 15
f 16 18 14
f 16 15 21
f 22 24 18
f 22 18 16
f 22 21 24
f 22 16 21
f 17 23 7
f 17 7 1
f 2 1 7
f 2 7 8
f 24 7 23
f 24 8 7
f 24 21 8
f 18 23 17
f 18 24 23
