# Parametric PetalDock simulation geometry; SI units
v 0.0230188736108 0.0222290678547 0.014
v 0.0230736300927 0.0222819455746 0.014
v 0.0232295633604 0.0224325285808 0.014
v 0.0232902603212 0.0219445613802 0.014
v 0.0232902603212 0.0219445613802 0.0140108494579
v 0.0233456623682 0.0219967623262 0.0140110936877
v 0.0234629339873 0.0226578919756 0.014
v 0.0235034340497 0.0221454180433 0.0140113007358
v 0.0237382134112 0.0229237262251 0.014
v 0.0237395560575 0.0223678970462 0.0140114390809
v 0.0240180809562 0.0226303289234 0.0140114876613
v 0.0352476502166 0.0340382601525 0.014
v 0.0355229296404 0.034304094402 0.014
v 0.0356632111168 0.0336026096135 0.0140114876613
v 0.0357563002674 0.0345294577969 0.014
v 0.035912233535 0.034680040803 0.014
v 0.0359417360156 0.0338650414907 0.0140114390809
v 0.0359669900169 0.0347329185229 0.014
v 0.0361778580233 0.0340875204936 0.0140113007358
v 0.0363356297049 0.0342361762107 0.0140110936877
v 0.0363910317518 0.0342883771566 0.014
v 0.0363910317518 0.0342883771566 0.0140108494579
f 22 21 18
f 17 4 21
f 17 18 14
f 17 19 18
f 6 8 1
f 10 15 1
f 10 1 8
f 10 18 15
f 10 17 14
f 10 8 6
f 10 6 17
f 20 21 22
f 20 17 21
f 20 19 17
f 20 22 18
f 20 18 19
f 5 1 4
f 5 6 1
f 5 4 17
f 5 17 6
f 11 14 18
f 11 18 10
f 11 10 14
f 15 18 21
f 15 4 1
f 15 21 4
