# Parametric PetalDock simulation geometry; SI units
v -0.0027631930898 0.0499235892535 0.014
v -0.0027631930898 0.0499235892535 0.030897108079
v -0.0027589863789 0.0498475851144 0.0312774753329
v -0.0027470066795 0.0496311436384 0.0315999351205
v -0.0027290777924 0.0493072160782 0.0318153958621
v -0.002707929228 0.0489251174684 0.0318910556131
v -0.0021495829143 0.0499537715623 0.014
v -0.0021495829143 0.0499537715623 0.0309530814185
v -0.0021463103692 0.0498777214734 0.0313347086766
v -0.0021369909491 0.0496611491434 0.031658236644
v -0.0021230434514 0.0493370257462 0.0318744111206
v -0.002106591256 0.048954696131 0.031950321502
v -0.0018237074393 0.0329495689073 0.0318910556131
v -0.001802558875 0.0325674702975 0.0318153958621
v -0.0017846299879 0.0322435427372 0.0315999351205
v -0.0017726502885 0.0320271012613 0.0312774753329
v -0.0017684435775 0.0319510971222 0.014
v -0.0017684435775 0.0319510971222 0.030897108079
v -0.0014187247234 0.0329694892311 0.031950321502
v -0.0014022725281 0.0325871596159 0.0318744111206
v -0.0013883250303 0.0322630362187 0.031658236644
v -0.0013790056103 0.0320464638887 0.0313347086766
v -0.0013757330651 0.0319704137998 0.014
v -0.0013757330651 0.0319704137998 0.0309530814185
f 10 7 8
f 10 23 7
f 18 15 17
f 11 12 10
f 11 10 4
f 24 23 10
f 5 13 6
f 5 11 4
f 5 12 11
f 5 6 12
f 19 10 12
f 19 12 6
f 19 6 13
f 19 21 24
f 19 24 10
f 20 15 21
f 20 21 19
f 20 19 13
f 3 2 1
f 3 5 4
f 3 4 10
f 3 1 17
f 3 17 15
f 3 15 5
f 16 21 15
f 16 15 18
f 14 5 15
f 14 13 5
f 14 15 20
f 14 20 13
f 9 10 8
f 9 3 10
f 9 8 2
f 9 2 3
f 22 18 24
f 22 16 18
f 22 24 21
f 22 21 16
f 17 7 23
f 17 1 7
f 2 7 1
f 2 8 7
f 24 17 23
f 24 18 17
