# Parametric PetalDock simulation geometry; SI units
v -0.0420585586428 -0.0270384475311 0.014
v -0.0420585586428 -0.0270384475311 0.0167774612171
v -0.0419945282999 -0.0269972839458 0.0168399840637
v -0.0418121853104 -0.0268800599725 0.0168929883737
v -0.0417231675896 -0.0275531719824 0.014
v -0.0417231675896 -0.0275531719824 0.0164411280229
v -0.0416596478492 -0.0275112247757 0.0164960797435
v -0.0415392897416 -0.0267046218986 0.0169284047213
v -0.0414787589325 -0.0273917692378 0.0165426655628
v -0.0412173874699 -0.0264976785805 0.0169408412887
v -0.0412080395375 -0.0272129913913 0.0165737932121
v -0.0408887042378 -0.0270021085427 0.0165847237889
v -0.0277586487042 -0.0178453753705 0.0169408412887
v -0.0275372906091 -0.0181850935084 0.0165847237889
v -0.0274367464326 -0.0176384320524 0.0169284047213
v -0.0272179553095 -0.0179742106598 0.0165737932121
v -0.0271638508638 -0.0174629939785 0.0168929883737
v -0.0269815078743 -0.0173457700052 0.0168399840637
v -0.0269472359144 -0.0177954328133 0.0165426655628
v -0.0269174775314 -0.0173046064199 0.014
v -0.0269174775314 -0.0173046064199 0.0167774612171
v -0.0267663469978 -0.0176759772754 0.0164960797435
v -0.0267028272573 -0.0176340300687 0.014
v -0.0267028272573 -0.0176340300687 0.0164411280229
f 14 5 23
f 13 10 12
f 13 12 14
f 3 4 2
f 3 7 4
f 3 2 6
f 3 6 7
f 8 1 2
f 8 2 4
f 8 20 1
f 8 10 13
f 18 21 20
f 18 20 8
f 18 8 13
f 18 13 17
f 18 24 21
f 11 12 10
f 11 10 8
f 11 14 12
f 15 13 14
f 15 17 13
f 15 19 17
f 9 8 4
f 9 11 8
f 9 4 7
f 9 7 6
f 9 14 11
f 9 6 5
f 9 5 14
f 22 18 17
f 22 17 19
f 22 24 18
f 22 19 14
f 22 23 24
f 22 14 23
f 16 14 19
f 16 15 14
f 16 19 15
f 20 23 5
f 20 5 1
f 6 1 5
f 6 2 1
f 24 23 20
f 24 20 21
