# Parametric PetalDock simulation geometry; SI units
v -0.0376299410177 -0.0329239660279 0.014
v -0.0376299410177 -0.0329239660279 0.0141735913261
v -0.0375726528436 -0.0328738422742 0.014177499004
v -0.0374095099267 -0.0327311019002 0.0141808117734
v -0.0372225700214 -0.033383832629 0.014
v -0.0372225700214 -0.033383832629 0.0140976451209
v -0.0371659020328 -0.03333300877 0.0140998431897
v -0.0371653492971 -0.0325174758339 0.0141830252951
v -0.0370045252545 -0.0331882746651 0.0141017066225
v -0.0368773421973 -0.0322654867074 0.0141838025805
v -0.0367630078382 -0.0329716647695 0.0141029517285
v -0.036478118621 -0.0327161559764 0.0141033889516
v -0.0248357610717 -0.0217298175784 0.0141838025805
v -0.0245668962142 -0.0220333295351 0.0141033889516
v -0.0245477539719 -0.0214778284519 0.0141830252951
v -0.0243035933423 -0.0212642023856 0.0141808117734
v -0.024282006997 -0.021777820742 0.0141029517285
v -0.0241404504253 -0.0211214620116 0.014177499004
v -0.0240831622513 -0.0210713382579 0.014
v -0.0240831622513 -0.0210713382579 0.0141735913261
v -0.0240404895806 -0.0215612108464 0.0141017066225
v -0.0238791128023 -0.0214164767415 0.0140998431897
v -0.0238224448137 -0.0213656528825 0.014
v -0.0238224448137 -0.0213656528825 0.0140976451209
f 22 5 23
f 13 1 2
f 13 19 1
f 13 16 19
f 6 5 22
f 20 19 16
f 3 2 6
f 3 6 7
f 11 13 10
f 11 12 13
f 8 10 13
f 8 13 2
f 8 11 10
f 17 12 22
f 9 22 12
f 9 6 22
f 9 12 11
f 9 7 6
f 9 11 8
f 24 22 23
f 18 16 22
f 18 20 16
f 18 24 20
f 18 22 24
f 4 2 3
f 4 8 2
f 4 3 7
f 4 7 9
f 4 9 8
f 21 22 16
f 21 17 22
f 15 16 13
f 15 21 16
f 15 17 21
f 15 13 12
f 14 12 17
f 14 15 12
f 14 17 15
f 19 23 5
f 19 5 1
f 6 1 5
f 6 2 1
f 24 23 19
f 24 19 20
