# Parametric PetalDock simulation geometry; SI units
v 0.0281189490397 -0.0152749698822 0.014
v 0.0281189490397 -0.0152749698822 0.0191045182724
v 0.0281858374005 -0.01531130544 0.019219425012
v 0.0283045070955 -0.0149283246911 0.014
v 0.0283045070955 -0.0149283246911 0.0195021262458
v 0.0283718368552 -0.0149638356616 0.0196259834551
v 0.0283763193364 -0.0154147803539 0.0193168382421
v 0.0285635757889 -0.0150649623496 0.019730984527
v 0.0286613956993 -0.0155696415065 0.0193819276816
v 0.028850533382 -0.0152163091336 0.0198011440002
v 0.0289976661972 -0.015752312691 0.0194047840532
v 0.0291890229422 -0.0153948348377 0.0198257807309
v 0.0430571407171 -0.0233897976321 0.0194047840532
v 0.0433412764899 -0.0228589971833 0.0198257807309
v 0.043393411215 -0.0235724688166 0.0193819276816
v 0.0436784875779 -0.0237273299692 0.0193168382421
v 0.0436797660501 -0.0230375228874 0.0198011440002
v 0.0438689695137 -0.0238308048832 0.019219425012
v 0.0439358578746 -0.0238671404409 0.014
v 0.0439358578746 -0.0238671404409 0.0191045182724
v 0.0439667236432 -0.0231888696714 0.019730984527
v 0.0441584625769 -0.0232899963594 0.0196259834551
v 0.0442257923366 -0.0233255073299 0.014
v 0.0442257923366 -0.0233255073299 0.0195021262458
f 18 1 19
f 14 12 13
f 22 24 23
f 22 23 4
f 22 21 18
f 22 4 5
f 20 18 19
f 20 24 22
f 20 22 18
f 15 14 13
f 3 2 1
f 3 1 18
f 8 3 7
f 16 18 21
f 16 15 18
f 17 14 15
f 17 21 12
f 17 12 14
f 17 16 21
f 17 15 16
f 11 13 12
f 11 15 13
f 11 18 15
f 11 3 18
f 10 12 5
f 10 5 8
f 10 11 12
f 10 8 7
f 6 8 5
f 6 3 8
f 6 5 2
f 6 2 3
f 9 7 3
f 9 3 11
f 9 10 7
f 9 11 10
f 4 23 19
f 4 19 1
f 22 5 12
f 22 12 21
f 20 19 23
f 20 23 24
f 2 4 1
f 2 5 4
