# Parametric PetalDock simulation geometry; SI units
v -0.0487137876015 0.0112679588888 0.014
v -0.0487137876015 0.0112679588888 0.0278350951711
v -0.0486396252758 0.0112508044428 0.0281465340951
v -0.0485716631519 0.0118656453117 0.014
v -0.0485716631519 0.0118656453117 0.0274536380952
v -0.0484977171977 0.0118475809423 0.027756490119
v -0.0484284288404 0.0112019527138 0.0284105592661
v -0.0482871369366 0.0117961379707 0.0280132356675
v -0.0481123510383 0.0111288409347 0.0285869752452
v -0.0479719813042 0.0117191481229 0.0281847875584
v -0.0477395118494 0.011042599711 0.0286489242988
v -0.0476002298888 0.0116283324054 0.0282450285714
v -0.032151099817 0.0074368528666 0.0286489242988
v -0.0320572976802 0.0078313259057 0.0282450285714
v -0.0317782606281 0.0073506116429 0.0285869752452
v -0.0316855462648 0.0077405101882 0.0281847875584
v -0.031462182826 0.0072774998638 0.0284105592661
v -0.0313703906325 0.0076635203404 0.0280132356675
v -0.0312509863906 0.0072286481348 0.0281465340951
v -0.0311768240649 0.0072114936888 0.014
v -0.0311768240649 0.0072114936888 0.0278350951711
v -0.0311598103713 0.0076120773688 0.027756490119
v -0.0310858644172 0.0075940129995 0.014
v -0.0310858644172 0.0075940129995 0.0274536380952
f 5 8 14
f 12 14 8
f 13 12 11
f 13 14 12
f 24 5 14
f 9 7 11
f 9 8 7
f 6 8 5
f 6 7 8
f 15 13 11
f 15 20 21
f 15 14 13
f 10 12 8
f 10 8 9
f 10 11 12
f 10 9 11
f 3 11 7
f 3 15 11
f 3 2 1
f 3 1 20
f 3 20 15
f 3 7 6
f 3 5 2
f 3 6 5
f 19 21 24
f 19 24 22
f 16 14 15
f 16 24 14
f 16 22 24
f 17 19 22
f 17 15 21
f 17 21 19
f 18 16 15
f 18 15 17
f 18 22 16
f 18 17 22
f 20 4 23
f 20 1 4
f 5 4 1
f 5 1 2
f 24 23 4
f 24 4 5
f 24 20 23
f 24 21 20
