# Parametric PetalDock simulation geometry; SI units
v -0.0052125368145 0.0497275523222 0.014
v -0.0052125368145 0.0497275523222 0.0304562255634
v -0.0052046011998 0.0496518466316 0.0308266682035
v -0.0051820024808 0.0494362550649 0.0311407143098
v -0.0051481811078 0.0491135994839 0.0313505532093
v -0.0051082860782 0.0487330012758 0.0314242388318
v -0.0046011504169 0.0497878440469 0.014
v -0.0046011504169 0.0497878440469 0.0305989945659
v -0.0045941455825 0.0497120465676 0.0309726510491
v -0.0045741975018 0.0494961936089 0.0312894217199
v -0.0045443430892 0.049173146827 0.0315010811153
v -0.0045091274085 0.048792087166 0.031575406011
v -0.0034402742976 0.0328201845327 0.0314242388318
v -0.003400379268 0.0324395863245 0.0313505532093
v -0.003366557895 0.0321169307435 0.0311407143098
v -0.0033439591761 0.0319013391768 0.0308266682035
v -0.0033360235613 0.0318256334862 0.014
v -0.0033360235613 0.0318256334862 0.0304562255634
v -0.0030367592751 0.032859977071 0.031575406011
v -0.0030015435945 0.03247891741 0.0315010811153
v -0.0029716891819 0.032155870628 0.0312894217199
v -0.0029517411012 0.0319400176693 0.0309726510491
v -0.0029447362668 0.03186422019 0.014
v -0.0029447362668 0.03186422019 0.0305989945659
f 12 23 7
f 11 12 7
f 11 7 8
f 9 11 8
f 9 8 2
f 19 21 22
f 19 12 6
f 19 6 13
f 19 23 12
f 19 22 23
f 20 15 21
f 20 21 19
f 20 19 13
f 24 23 22
f 10 4 11
f 10 11 9
f 3 9 2
f 3 2 1
f 3 4 10
f 3 10 9
f 3 1 17
f 14 15 20
f 14 20 13
f 18 24 22
f 5 4 3
f 5 11 4
f 5 13 6
f 5 3 13
f 5 12 11
f 5 6 12
f 16 15 14
f 16 18 22
f 16 17 18
f 16 21 15
f 16 22 21
f 16 3 17
f 16 13 3
f 16 14 13
f 17 7 23
f 17 1 7
f 2 7 1
f 2 8 7
f 18 17 23
f 18 23 24
