# Parametric PetalDock simulation geometry; SI units
v 0.0060576351934 0.0314214107873 0.014
v 0.0060576351934 0.0314214107873 0.0288492729043
v 0.0060720448816 0.0314961549272 0.0291835417703
v 0.0061130802018 0.0317090082293 0.0294669212317
v 0.0061744938985 0.0320275657078 0.0296562693342
v 0.0062469362932 0.0324033298744 0.0297227595457
v 0.0064432467941 0.0313446099154 0.014
v 0.0064432467941 0.0313446099154 0.0285329125757
v 0.0064585737616 0.0314191713642 0.0288600599208
v 0.006502221272 0.0316315044058 0.0291374020482
v 0.0065675443877 0.0319492832594 0.0293227161331
v 0.0066445982564 0.0323241289753 0.029387789786
v 0.0092757538899 0.048114035268 0.0297227595457
v 0.0093481962845 0.0484897994346 0.0296562693342
v 0.0094096099812 0.0488083569131 0.0294669212317
v 0.0094506453014 0.0490212102152 0.0291835417703
v 0.0094650549896 0.0490959543552 0.014
v 0.0094650549896 0.0490959543552 0.0288492729043
v 0.0098662216535 0.047996433933 0.029387789786
v 0.0099432755222 0.0483712796489 0.0293227161331
v 0.0100085986379 0.0486890585025 0.0291374020482
v 0.0100522461484 0.0489013915441 0.0288600599208
v 0.0100675731158 0.0489759529928 0.014
v 0.0100675731158 0.0489759529928 0.0285329125757
f 4 1 2
f 24 18 16
f 9 7 23
f 9 8 7
f 22 23 24
f 22 9 23
f 22 24 16
f 22 15 21
f 22 16 15
f 3 2 8
f 3 8 9
f 3 4 2
f 3 9 4
f 14 21 15
f 19 22 21
f 19 9 22
f 19 13 6
f 19 6 12
f 5 12 6
f 5 6 13
f 5 13 14
f 5 14 15
f 5 15 16
f 5 16 18
f 5 18 17
f 5 17 1
f 5 1 4
f 10 4 9
f 10 5 4
f 11 9 19
f 11 19 12
f 11 10 9
f 11 12 5
f 11 5 10
f 20 21 14
f 20 19 21
f 20 14 13
f 20 13 19
f 7 17 23
f 7 1 17
f 2 1 7
f 2 7 8
f 24 23 17
f 24 17 18
