# Parametric PetalDock simulation geometry; SI units
v 0.0135197348218 -0.029003737179 0.014
v 0.0135197348218 -0.029003737179 0.0210925581395
v 0.0135518950885 -0.0290727302425 0.0212522172274
v 0.0136434797796 -0.0292692058646 0.0213875696664
v 0.0137805459561 -0.0295632524129 0.0214780092747
v 0.0138750776476 -0.0288354334157 0.014
v 0.0138750776476 -0.0288354334157 0.0206949501661
v 0.0139080831913 -0.0289040261242 0.0208456587843
v 0.013942226535 -0.0299101039658 0.0215097674419
v 0.0140020750274 -0.0290993616316 0.0209734233815
v 0.014142743751 -0.0293917018777 0.0210587929561
v 0.0143086738241 -0.02973654071 0.0210887707641
v 0.0207020939459 -0.0444119725553 0.0215097674419
v 0.0208637745249 -0.0447588241083 0.0214780092747
v 0.0210008407013 -0.0450528706565 0.0213875696664
v 0.0210924253924 -0.0452493462786 0.0212522172274
v 0.0211245856591 -0.0453183393422 0.014
v 0.0211245856591 -0.0453183393422 0.0210925581395
v 0.0212462126479 -0.0441542574178 0.0210887707641
v 0.021412142721 -0.0444990962501 0.0210587929561
v 0.0215528114446 -0.0447914364962 0.0209734233815
v 0.0216468032807 -0.0449867720036 0.0208456587843
v 0.0216798088244 -0.0450553647121 0.014
v 0.0216798088244 -0.0450553647121 0.0206949501661
f 4 13 9
f 8 23 6
f 8 6 7
f 15 18 16
f 15 13 18
f 15 16 22
f 15 22 21
f 20 23 8
f 5 4 9
f 3 7 2
f 3 8 7
f 3 4 8
f 3 13 4
f 3 18 13
f 3 1 17
f 3 2 1
f 3 17 18
f 24 23 20
f 24 20 21
f 24 21 22
f 24 16 18
f 24 22 16
f 12 20 8
f 12 5 9
f 14 13 15
f 14 20 13
f 14 15 21
f 14 21 20
f 19 12 9
f 19 20 12
f 19 9 13
f 19 13 20
f 11 5 12
f 10 4 5
f 10 5 11
f 10 8 4
f 10 12 8
f 10 11 12
f 6 23 17
f 6 17 1
f 2 6 1
f 2 7 6
f 24 17 23
f 24 18 17
