# Parametric PetalDock simulation geometry; SI units
v -0.0233255073299 0.0442257923366 0.014
v -0.0233255073299 0.0442257923366 0.0195021262458
v -0.0232899963594 0.0441584625769 0.0196259834551
v -0.0231888696714 0.0439667236432 0.019730984527
v -0.0230375228874 0.0436797660501 0.0198011440002
v -0.0228589971833 0.0433412764899 0.0198257807309
v -0.0227803527351 0.0445090499704 0.014
v -0.0227803527351 0.0445090499704 0.0198997342193
v -0.0227456717131 0.0444412889766 0.0200325418982
v -0.0226469085183 0.0442483219921 0.0201451308118
v -0.0224990989519 0.0439595264913 0.0202203603188
v -0.0223247456804 0.043618868971 0.0202467774086
v -0.0153948348377 0.0291890229422 0.0198257807309
v -0.0152163091336 0.028850533382 0.0198011440002
v -0.0150649623496 0.0285635757889 0.019730984527
v -0.0150350328051 0.0293759729805 0.0202467774086
v -0.0149638356616 0.0283718368552 0.0196259834551
v -0.0149283246911 0.0283045070955 0.014
v -0.0149283246911 0.0283045070955 0.0195021262458
v -0.0148606795336 0.0290353154602 0.0202203603188
v -0.0147128699672 0.0287465199593 0.0201451308118
v -0.0146141067724 0.0285535529749 0.0200325418982
v -0.0145794257504 0.028485791981 0.014
v -0.0145794257504 0.028485791981 0.0198997342193
f 9 7 8
f 22 24 23
f 2 9 8
f 19 24 22
f 11 9 10
f 11 10 4
f 3 9 2
f 3 2 4
f 3 10 9
f 3 4 10
f 20 15 21
f 20 21 22
f 17 18 19
f 17 1 18
f 17 19 22
f 17 2 1
f 17 21 15
f 17 22 21
f 5 2 6
f 5 4 2
f 5 11 4
f 5 12 11
f 5 6 12
f 14 6 15
f 14 13 6
f 14 15 20
f 14 20 13
f 16 6 13
f 16 13 20
f 16 12 6
f 16 11 12
f 16 9 11
f 16 7 9
f 16 23 7
f 16 22 23
f 16 20 22
f 18 7 23
f 18 1 7
f 2 7 1
f 2 8 7
f 19 18 23
f 19 23 24
f 17 6 2
f 17 15 6
