# Parametric PetalDock simulation geometry; SI units
v -0.0497878440469 0.0046011504169 0.014
v -0.0497878440469 0.0046011504169 0.0305989945659
v -0.0497275523222 0.0052125368145 0.014
v -0.0497275523222 0.0052125368145 0.0304562255634
v -0.0497120465676 0.0045941455825 0.0309726510491
v -0.0496518466316 0.0052046011998 0.0308266682035
v -0.0494961936089 0.0045741975018 0.0312894217199
v -0.0494362550649 0.0051820024808 0.0311407143098
v -0.049173146827 0.0045443430892 0.0315010811153
v -0.0491135994839 0.0051481811078 0.0313505532093
v -0.048792087166 0.0045091274085 0.031575406011
v -0.0487330012758 0.0051082860782 0.0314242388318
v -0.032859977071 0.0030367592751 0.031575406011
v -0.0328201845327 0.0034402742976 0.0314242388318
v -0.03247891741 0.0030015435945 0.0315010811153
v -0.0324395863245 0.003400379268 0.0313505532093
v -0.032155870628 0.0029716891819 0.0312894217199
v -0.0321169307435 0.003366557895 0.0311407143098
v -0.0319400176693 0.0029517411012 0.0309726510491
v -0.0319013391768 0.0033439591761 0.0308266682035
v -0.03186422019 0.0029447362668 0.014
v -0.03186422019 0.0029447362668 0.0305989945659
v -0.0318256334862 0.0033360235613 0.014
v -0.0318256334862 0.0033360235613 0.0304562255634
f 21 11 1
f 13 12 11
f 13 14 12
f 13 11 21
f 5 4 2
f 9 8 7
f 9 7 5
f 9 5 2
f 9 2 1
f 9 1 11
f 10 8 9
f 10 11 12
f 10 9 11
f 24 23 20
f 19 21 22
f 19 13 21
f 19 22 24
f 19 24 20
f 16 20 14
f 6 4 5
f 6 3 4
f 6 7 8
f 6 5 7
f 6 23 3
f 6 20 23
f 6 14 20
f 6 8 10
f 17 13 19
f 17 19 20
f 15 13 17
f 15 14 13
f 15 16 14
f 18 20 16
f 18 17 20
f 18 16 15
f 18 15 17
f 21 3 23
f 21 1 3
f 4 3 1
f 4 1 2
f 24 21 23
f 24 22 21
f 6 12 14
f 6 10 12
