# Parametric PetalDock simulation geometry; SI units
v -0.0015356482133 0.0499764122818 0.014
v -0.0015356482133 0.0499764122818 0.0309873558423
v -0.0015333103281 0.0499003277245 0.0313697546447
v -0.0015266525943 0.0496836572367 0.0316939366958
v -0.0015166885916 0.049359386936 0.0319105482172
v -0.001504935249 0.0489768840362 0.0319866120683
v -0.0010135278208 0.032984432106 0.0319866120683
v -0.0010017744782 0.0326019292062 0.0319105482172
v -0.0009918104755 0.0322776589055 0.0316939366958
v -0.0009851527417 0.0320609884177 0.0313697546447
v -0.0009828148565 0.0319849038604 0.014
v -0.0009828148565 0.0319849038604 0.0309873558423
v -0.0009214816733 0.0499915079941 0.014
v -0.0009214816733 0.0499915079941 0.0309999313503
v -0.000920078801 0.0499154004549 0.0313826132373
v -0.0009160837587 0.0496986645203 0.031707035276
v -0.0009101047552 0.0493742962716 0.031923807152
v -0.0009030520399 0.0489916778342 0.0319999273121
v -0.0006081779044 0.0329943952761 0.0319999273121
v -0.000601125189 0.0326117768388 0.031923807152
v -0.0005951461856 0.03228740859 0.031707035276
v -0.0005911511432 0.0320706726554 0.0313826132373
v -0.0005897482709 0.0319945651162 0.014
v -0.0005897482709 0.0319945651162 0.0309999313503
f 11 9 1
f 2 1 9
f 22 24 23
f 5 6 18
f 7 6 5
f 15 14 2
f 12 9 11
f 12 24 22
f 17 16 4
f 17 4 5
f 17 5 18
f 17 15 16
f 17 14 15
f 17 13 14
f 17 23 13
f 17 22 23
f 19 17 18
f 19 18 6
f 19 6 7
f 20 9 21
f 20 19 7
f 20 21 22
f 20 22 17
f 20 17 19
f 3 15 2
f 3 5 4
f 3 4 16
f 3 16 15
f 3 7 5
f 10 9 12
f 10 12 22
f 10 21 9
f 10 22 21
f 8 7 9
f 8 9 20
f 8 20 7
f 11 13 23
f 11 1 13
f 2 13 1
f 2 14 13
f 12 11 23
f 12 23 24
f 3 9 7
f 3 2 9
