# Parametric PetalDock simulation geometry; SI units
v 0.0204732104156 0.0245936507107 0.014
v 0.0204732104156 0.0245936507107 0.0143905804837
v 0.020521911364 0.0246521532166 0.014399372759
v 0.0206605999312 0.0248187542581 0.01440682649
v 0.0207738424644 0.0243402438209 0.014
v 0.0207738424644 0.0243402438209 0.014271236447
v 0.0208232585457 0.0243981435315 0.0142773421937
v 0.0208681620401 0.025068090337 0.0144118069139
v 0.020963983639 0.0245630279572 0.0142825183959
v 0.0211129982411 0.0253622022954 0.0144135558062
v 0.0211745936247 0.0248097949388 0.0142859770236
v 0.0214230250415 0.0251008764403 0.0142871915321
v 0.0313496034489 0.0376590276507 0.0144135558062
v 0.0315944396499 0.0379531396091 0.0144118069139
v 0.0318020017588 0.0382024756879 0.01440682649
v 0.0318099462737 0.0372709983508 0.0142871915321
v 0.031940690326 0.0383690767295 0.014399372759
v 0.0319893912744 0.0384275792354 0.014
v 0.0319893912744 0.0384275792354 0.0143905804837
v 0.0320583776905 0.0375620798524 0.0142859770236
v 0.0322689876761 0.037808846834 0.0142825183959
v 0.0324097127694 0.0379737312596 0.0142773421937
v 0.0324591288507 0.0380316309702 0.014
v 0.0324591288507 0.0380316309702 0.014271236447
f 14 18 1
f 2 14 1
f 2 10 14
f 12 5 23
f 13 14 10
f 13 20 14
f 3 2 6
f 3 10 2
f 8 12 10
f 8 10 3
f 8 3 4
f 9 8 4
f 16 13 10
f 16 20 13
f 16 10 12
f 16 12 23
f 17 18 14
f 17 19 18
f 21 14 20
f 21 20 22
f 24 16 23
f 24 19 17
f 24 17 22
f 24 22 20
f 24 20 16
f 7 6 5
f 7 5 12
f 7 3 6
f 7 4 3
f 7 9 4
f 11 12 8
f 11 8 9
f 11 7 12
f 11 9 7
f 15 17 14
f 15 22 17
f 15 14 21
f 15 21 22
f 5 18 23
f 5 1 18
f 2 1 5
f 2 5 6
f 24 23 18
f 24 18 19
