# Parametric PetalDock simulation geometry; SI units
v 0.0213656528825 -0.0238224448137 0.014
v 0.0213656528825 -0.0238224448137 0.0140976451209
v 0.0214164767415 -0.0238791128023 0.0140998431897
v 0.0215612108464 -0.0240404895806 0.0141017066225
v 0.0216567419054 -0.0235581308691 0.014
v 0.0216567419054 -0.0235581308691 0.0140433978315
v 0.0217082581966 -0.023614170117 0.014044374751
v 0.021777820742 -0.024282006997 0.0141029517285
v 0.0218549641818 -0.0237737563934 0.0140452029433
v 0.0220333295351 -0.0245668962142 0.0141033889516
v 0.0220745252047 -0.0240125941343 0.0140457563238
v 0.0223335150899 -0.0242943224587 0.0140459506451
v 0.0327161559764 -0.036478118621 0.0141033889516
v 0.0329716647695 -0.0367630078382 0.0141029517285
v 0.0331618860426 -0.0360733878933 0.0140459506451
v 0.0331882746651 -0.0370045252545 0.0141017066225
v 0.03333300877 -0.0371659020328 0.0140998431897
v 0.033383832629 -0.0372225700214 0.014
v 0.033383832629 -0.0372225700214 0.0140976451209
v 0.0334208759278 -0.0363551162177 0.0140457563238
v 0.0336404369507 -0.0365939539586 0.0140452029433
v 0.0337871429359 -0.036753540235 0.014044374751
v 0.0338386592271 -0.0368095794829 0.014
v 0.0338386592271 -0.0368095794829 0.0140433978315
f 14 1 18
f 14 10 1
f 2 1 10
f 13 10 14
f 4 2 10
f 21 13 14
f 3 6 2
f 3 2 4
f 8 4 10
f 17 16 14
f 17 14 18
f 17 18 19
f 20 10 13
f 20 13 21
f 22 14 16
f 22 21 14
f 22 16 17
f 24 17 19
f 24 22 17
f 24 21 22
f 24 23 20
f 24 20 21
f 15 12 8
f 15 20 12
f 15 8 10
f 15 10 20
f 9 4 8
f 11 8 12
f 11 9 8
f 11 12 9
f 7 4 9
f 7 6 3
f 7 3 4
f 7 5 6
f 7 23 5
f 7 20 23
f 7 12 20
f 7 9 12
f 5 23 18
f 5 18 1
f 2 5 1
f 2 6 5
f 24 18 23
f 24 19 18
