# Parametric PetalDock simulation geometry; SI units
v -0.0238671404409 0.0439358578746 0.014
v -0.0238671404409 0.0439358578746 0.0191045182724
v -0.0238308048832 0.0438689695137 0.019219425012
v -0.0237273299692 0.0436784875779 0.0193168382421
v -0.0235724688166 0.043393411215 0.0193819276816
v -0.0233897976321 0.0430571407171 0.0194047840532
v -0.0233255073299 0.0442257923366 0.014
v -0.0233255073299 0.0442257923366 0.0195021262458
v -0.0232899963594 0.0441584625769 0.0196259834551
v -0.0231888696714 0.0439667236432 0.019730984527
v -0.0230375228874 0.0436797660501 0.0198011440002
v -0.0228589971833 0.0433412764899 0.0198257807309
v -0.015752312691 0.0289976661972 0.0194047840532
v -0.0155696415065 0.0286613956993 0.0193819276816
v -0.0154147803539 0.0283763193364 0.0193168382421
v -0.0153948348377 0.0291890229422 0.0198257807309
v -0.01531130544 0.0281858374005 0.019219425012
v -0.0152749698822 0.0281189490397 0.014
v -0.0152749698822 0.0281189490397 0.0191045182724
v -0.0152163091336 0.028850533382 0.0198011440002
v -0.0150649623496 0.0285635757889 0.019730984527
v -0.0149638356616 0.0283718368552 0.0196259834551
v -0.0149283246911 0.0283045070955 0.014
v -0.0149283246911 0.0283045070955 0.0195021262458
f 9 7 8
f 9 23 7
f 2 9 8
f 24 23 9
f 3 9 2
f 3 2 1
f 3 1 18
f 16 12 6
f 5 6 12
f 5 4 3
f 11 12 16
f 11 5 12
f 11 4 5
f 10 24 9
f 10 16 24
f 10 11 16
f 10 4 11
f 10 9 3
f 10 3 4
f 20 21 24
f 20 24 16
f 20 15 21
f 13 16 6
f 13 20 16
f 13 6 5
f 13 5 3
f 22 19 24
f 22 24 21
f 14 15 20
f 14 20 13
f 17 13 3
f 17 18 19
f 17 3 18
f 17 14 13
f 17 15 14
f 17 19 22
f 17 21 15
f 17 22 21
f 18 7 23
f 18 1 7
f 2 7 1
f 2 8 7
f 19 18 23
f 19 23 24
