# Parametric PetalDock simulation geometry; SI units
v 0.0319704137998 -0.0013757330651 0.014
v 0.0319704137998 -0.0013757330651 0.0309530814185
v 0.0319849038604 -0.0009828148565 0.014
v 0.0319849038604 -0.0009828148565 0.0309873558423
v 0.0320464638887 -0.0013790056103 0.0313347086766
v 0.0320609884177 -0.0009851527417 0.0313697546447
v 0.0322630362187 -0.0013883250303 0.031658236644
v 0.0322776589055 -0.0009918104755 0.0316939366958
v 0.0325871596159 -0.0014022725281 0.0318744111206
v 0.0326019292062 -0.0010017744782 0.0319105482172
v 0.0329694892311 -0.0014187247234 0.031950321502
v 0.032984432106 -0.0010135278208 0.0319866120683
v 0.048954696131 -0.002106591256 0.031950321502
v 0.0489768840362 -0.001504935249 0.0319866120683
v 0.0493370257462 -0.0021230434514 0.0318744111206
v 0.049359386936 -0.0015166885916 0.0319105482172
v 0.0496611491434 -0.0021369909491 0.031658236644
v 0.0496836572367 -0.0015266525943 0.0316939366958
v 0.0498777214734 -0.0021463103692 0.0313347086766
v 0.0499003277245 -0.0015333103281 0.0313697546447
v 0.0499537715623 -0.0021495829143 0.014
v 0.0499537715623 -0.0021495829143 0.0309530814185
v 0.0499764122818 -0.0015356482133 0.014
v 0.0499764122818 -0.0015356482133 0.0309873558423
f 3 18 23
f 24 23 18
f 4 18 3
f 5 1 21
f 2 1 5
f 10 11 12
f 15 5 21
f 6 4 2
f 6 2 5
f 20 22 24
f 20 24 18
f 9 5 15
f 9 7 5
f 9 11 10
f 9 10 7
f 13 12 11
f 13 11 9
f 13 9 15
f 19 21 22
f 19 15 21
f 19 17 15
f 19 22 20
f 19 18 17
f 19 20 18
f 8 7 10
f 8 10 6
f 8 5 7
f 8 6 5
f 14 12 13
f 14 10 12
f 14 13 15
f 14 6 10
f 16 18 14
f 16 14 15
f 16 17 18
f 16 15 17
f 3 23 21
f 3 21 1
f 2 3 1
f 2 4 3
f 22 21 23
f 22 23 24
f 14 4 6
f 14 18 4
