# Parametric PetalDock simulation geometry; SI units
v 0.0305609694441 0.0094882636259 0.014
v 0.0305609694441 0.0094882636259 0.0254662458472
v 0.0306336667967 0.0095108339716 0.0257243601011
v 0.0306752430091 0.0091120506106 0.014
v 0.0306752430091 0.0091120506106 0.0258638538206
v 0.0307482121916 0.0091337260341 0.0261309185442
v 0.0308406913413 0.0095751088782 0.0259431787997
v 0.0309560108424 0.0091954524179 0.0263573250846
v 0.0311505254679 0.0096713030739 0.0260893887797
v 0.0312670035006 0.0092878324796 0.0265086050983
v 0.0315159997393 0.0097847718642 0.026140730897
v 0.0316338443532 0.0093968021922 0.0265617275748
v 0.0467964844613 0.0145289036772 0.026140730897
v 0.0469714658577 0.0139528274975 0.0265617275748
v 0.0471619587327 0.0146423724676 0.0260893887797
v 0.0473383067103 0.0140617972101 0.0265086050983
v 0.0474717928592 0.0147385666632 0.0259431787997
v 0.0476492993686 0.0141541772718 0.0263573250846
v 0.0476788174039 0.0148028415698 0.0257243601011
v 0.0477515147565 0.0148254119155 0.014
v 0.0477515147565 0.0148254119155 0.0254662458472
v 0.0478570980193 0.0142159036556 0.0261309185442
v 0.0479300672018 0.0142375790791 0.014
v 0.0479300672018 0.0142375790791 0.0258638538206
f 24 18 23
f 15 20 1
f 14 13 12
f 14 15 13
f 16 14 12
f 16 15 14
f 9 13 15
f 9 1 2
f 9 15 1
f 8 16 12
f 19 21 20
f 11 12 13
f 11 13 9
f 6 5 4
f 6 4 23
f 6 2 5
f 6 23 18
f 6 18 16
f 6 16 8
f 10 8 12
f 10 12 11
f 10 11 9
f 10 9 7
f 10 7 8
f 17 20 15
f 17 19 20
f 17 18 19
f 17 16 18
f 17 15 16
f 22 24 21
f 22 21 19
f 22 18 24
f 22 19 18
f 3 2 6
f 3 7 9
f 3 9 2
f 3 8 7
f 3 6 8
f 4 20 23
f 4 1 20
f 21 23 20
f 21 24 23
f 2 1 4
f 2 4 5
