# Parametric PetalDock simulation geometry; SI units
v 0.03186422019 0.0029447362668 0.014
v 0.03186422019 0.0029447362668 0.0305989945659
v 0.031897996309 0.0025530044014 0.014
v 0.031897996309 0.0025530044014 0.0307200646527
v 0.0319400176693 0.0029517411012 0.0309726510491
v 0.0319738741337 0.002559077398 0.0310964465192
v 0.032155870628 0.0029716891819 0.0312894217199
v 0.0321899558969 0.0025763718288 0.0314155276585
v 0.03247891741 0.0030015435945 0.0315010811153
v 0.0325133451088 0.0026022547738 0.0316287308595
v 0.032859977071 0.0030367592751 0.031575406011
v 0.0328948086936 0.002632785789 0.0317035978676
v 0.048792087166 0.0045091274085 0.031575406011
v 0.0488438068481 0.0039092879897 0.0317035978676
v 0.049173146827 0.0045443430892 0.0315010811153
v 0.0492252704329 0.0039398190049 0.0316287308595
v 0.0494961936089 0.0045741975018 0.0312894217199
v 0.0495486596449 0.0039657019499 0.0314155276585
v 0.0497120465676 0.0045941455825 0.0309726510491
v 0.049764741408 0.0039829963807 0.0310964465192
v 0.0497878440469 0.0046011504169 0.014
v 0.0497878440469 0.0046011504169 0.0305989945659
v 0.0498406192327 0.0039890693772 0.014
v 0.0498406192327 0.0039890693772 0.0307200646527
f 9 21 1
f 2 9 1
f 19 21 9
f 19 18 20
f 13 9 11
f 13 11 12
f 4 8 6
f 4 6 2
f 10 8 12
f 10 12 11
f 10 11 9
f 7 10 9
f 7 8 10
f 17 19 9
f 17 9 13
f 17 13 15
f 17 18 19
f 22 21 19
f 22 20 24
f 22 19 20
f 14 13 12
f 14 15 13
f 5 9 2
f 5 7 9
f 5 2 6
f 5 6 8
f 5 8 7
f 16 15 14
f 16 18 17
f 16 17 15
f 16 20 18
f 16 8 24
f 16 24 20
f 16 12 8
f 16 14 12
f 3 21 23
f 3 1 21
f 4 1 3
f 4 2 1
f 4 3 23
f 4 23 24
f 4 24 8
f 22 23 21
f 22 24 23
