# Parametric PetalDock simulation geometry; SI units
v -0.04999905642 0.000307176016 0.014
v -0.04999905642 0.000307176016 0.031
v -0.0499915079941 0.0009214816733 0.014
v -0.0499915079941 0.0009214816733 0.0309999313503
v -0.0499229373891 0.0003067083684 0.0313826834324
v -0.0499154004549 0.000920078801 0.0313826132373
v -0.0497061687286 0.0003053766206 0.0317071067812
v -0.0496986645203 0.0009160837587 0.031707035276
v -0.0493817515022 0.0003033835192 0.0319238795325
v -0.0493742962716 0.0009101047552 0.031923807152
v -0.0489990752916 0.0003010324957 0.032
v -0.0489916778342 0.0009030520399 0.0319999273121
v -0.0329993772372 0.0002027361706 0.032
v -0.0329943952761 0.0006081779044 0.0319999273121
v -0.0326167010267 0.0002003851471 0.0319238795325
v -0.0326117768388 0.000601125189 0.031923807152
v -0.0322922838003 0.0001983920457 0.0317071067812
v -0.03228740859 0.0005951461856 0.031707035276
v -0.0320755151398 0.0001970602979 0.0313826834324
v -0.0320706726554 0.0005911511432 0.0313826132373
v -0.0319993961088 0.0001965926503 0.014
v -0.0319993961088 0.0001965926503 0.031
v -0.0319945651162 0.0005897482709 0.014
v -0.0319945651162 0.0005897482709 0.0309999313503
f 8 23 3
f 8 12 23
f 18 23 12
f 13 12 11
f 4 8 3
f 7 2 11
f 10 11 12
f 10 12 8
f 20 18 17
f 15 13 11
f 15 11 2
f 15 17 18
f 15 2 1
f 15 1 21
f 5 4 2
f 5 2 7
f 9 7 11
f 9 11 10
f 9 8 7
f 9 10 8
f 19 20 17
f 19 21 22
f 19 15 21
f 19 17 15
f 24 23 18
f 24 18 20
f 24 19 22
f 24 20 19
f 14 13 15
f 14 18 12
f 14 12 13
f 6 8 4
f 6 4 5
f 6 7 8
f 6 5 7
f 16 15 18
f 16 18 14
f 16 14 15
f 21 3 23
f 21 1 3
f 4 3 1
f 4 1 2
f 24 21 23
f 24 22 21
