# Parametric PetalDock simulation geometry; SI units
v 0.0120784936294 0.029632920741 0.014
v 0.0120784936294 0.029632920741 0.0226829900332
v 0.0121072255226 0.0297034104842 0.0228784509996
v 0.0121890470318 0.0299041482891 0.0230441548058
v 0.0123115015741 0.0302045736448 0.0231548745493
v 0.0124416759063 0.0294822777384 0.014
v 0.0124416759063 0.0294822777384 0.0222853820598
v 0.0124559465553 0.0305589495142 0.0231937541528
v 0.0124712717247 0.0295524091372 0.0224718925566
v 0.0125555534846 0.0297521264641 0.0226300085209
v 0.0126816900522 0.0300510245665 0.0227356582306
v 0.0128304782784 0.0304035989177 0.0227727574751
v 0.01849519337 0.0453754098847 0.0231937541528
v 0.0186396383512 0.0457297857541 0.0231548745493
v 0.0187620928935 0.0460302111098 0.0230441548058
v 0.0188439144027 0.0462309489148 0.0228784509996
v 0.0188726462959 0.0463014386579 0.014
v 0.0188726462959 0.0463014386579 0.0226829900332
v 0.0190513162316 0.0451447377869 0.0227727574751
v 0.0192001044578 0.0454973121381 0.0227356582306
v 0.0193262410254 0.0457962102404 0.0226300085209
v 0.0194105227853 0.0459959275673 0.0224718925566
v 0.0194401186036 0.0460660589662 0.014
v 0.0194401186036 0.0460660589662 0.0222853820598
f 16 17 1
f 16 1 8
f 14 16 8
f 14 15 16
f 14 21 15
f 18 17 16
f 4 8 1
f 9 6 23
f 9 7 6
f 13 14 8
f 24 18 16
f 19 23 21
f 19 9 23
f 19 13 8
f 5 8 4
f 3 2 7
f 3 7 9
f 3 9 4
f 3 1 2
f 3 4 1
f 22 23 24
f 22 21 23
f 22 24 16
f 22 16 15
f 22 15 21
f 12 19 8
f 12 8 5
f 20 21 14
f 20 19 21
f 20 14 13
f 20 13 19
f 11 9 19
f 11 19 12
f 11 12 5
f 10 4 9
f 10 9 11
f 10 5 4
f 10 11 5
f 6 17 23
f 6 1 17
f 2 1 6
f 2 6 7
f 24 23 17
f 24 17 18
