# Parametric PetalDock simulation geometry; SI units
v -0.0484222057718 -0.0124615403619 0.014
v -0.0484222057718 -0.0124615403619 0.0270566777409
v -0.048348487353 -0.0124425687963 0.0273505938734
v -0.0482654380252 -0.0130555540763 0.014
v -0.0482654380252 -0.0130555540763 0.0266590697674
v -0.048191958271 -0.0130356781787 0.0269440354303
v -0.0481385550576 -0.0123885423485 0.0275997639391
v -0.0479827056351 -0.0129790764112 0.0271856176543
v -0.0478243691745 -0.0123076860554 0.0277662540542
v -0.0476695369344 -0.0128943658797 0.0273470377356
v -0.0474537616564 -0.0122123095546 0.027824717608
v -0.0473001292647 -0.0127944429948 0.0274037209302
v -0.0319586558094 -0.0082246166388 0.027824717608
v -0.0318551890966 -0.0086166656904 0.0274037209302
v -0.0315880482913 -0.0081292401381 0.0277662540542
v -0.0314857814268 -0.0085167428055 0.0273470377356
v -0.0312738624082 -0.008048383845 0.0275997639391
v -0.0311726127261 -0.008432032274 0.0271856176543
v -0.0310639301128 -0.0079943573972 0.0273505938734
v -0.030990211694 -0.0079753858316 0.014
v -0.030990211694 -0.0079753858316 0.0270566777409
v -0.0309633600902 -0.0083754305064 0.0269440354303
v -0.0308898803361 -0.0083555546088 0.014
v -0.0308898803361 -0.0083555546088 0.0266590697674
f 20 1 11
f 16 4 23
f 16 8 4
f 5 4 8
f 12 16 14
f 9 11 7
f 9 7 8
f 3 11 1
f 3 7 11
f 3 1 2
f 3 2 5
f 13 11 12
f 13 12 14
f 13 21 20
f 13 20 11
f 10 9 8
f 10 8 16
f 10 16 12
f 10 12 11
f 10 11 9
f 6 5 8
f 6 3 5
f 6 8 7
f 6 7 3
f 18 23 24
f 18 16 23
f 19 24 21
f 22 18 24
f 22 24 19
f 17 21 13
f 17 19 21
f 17 18 22
f 17 22 19
f 15 17 13
f 15 14 16
f 15 13 14
f 15 16 18
f 15 18 17
f 20 23 4
f 20 4 1
f 5 1 4
f 5 2 1
f 24 23 20
f 24 20 21
