# Parametric PetalDock simulation geometry; SI units
v 0.0314934679258 -0.0056711090632 0.014
v 0.0314934679258 -0.0056711090632 0.0291439343171
v 0.0315607704524 -0.0052837267579 0.014
v 0.0315607704524 -0.0052837267579 0.0294168968142
v 0.0315683834727 -0.0056845992967 0.0294848362444
v 0.0316358460962 -0.0052962955001 0.029763943343
v 0.0317817249006 -0.0057230162315 0.0297738389436
v 0.0318496434413 -0.0053320882496 0.0300581551838
v 0.0321010129109 -0.0057805112376 0.0299669443734
v 0.0321696137801 -0.0053856558849 0.0302547412508
v 0.0324776387985 -0.0058483312214 0.0300347539828
v 0.032547044529 -0.005448843219 0.0303237730974
v 0.0482243727614 -0.008683885753 0.0300347539828
v 0.0483274297552 -0.008090706598 0.0303237730974
v 0.048600998649 -0.0087517057368 0.0299669443734
v 0.0487048605041 -0.0081538939321 0.0302547412508
v 0.0489202866593 -0.0088092007428 0.0297738389436
v 0.0490248308429 -0.0082074615673 0.0300581551838
v 0.0491336280872 -0.0088476176777 0.0294848362444
v 0.0492085436341 -0.0088611079112 0.014
v 0.0492085436341 -0.0088611079112 0.0291439343171
v 0.0492386281881 -0.0082432543169 0.029763943343
v 0.0493137038319 -0.0082558230591 0.014
v 0.0493137038319 -0.0082558230591 0.0294168968142
f 8 23 3
f 8 24 23
f 8 3 4
f 8 12 18
f 8 18 24
f 19 1 20
f 14 18 12
f 14 12 13
f 21 19 20
f 15 13 19
f 15 14 13
f 22 24 18
f 22 18 19
f 22 21 24
f 22 19 21
f 11 13 12
f 10 12 8
f 10 11 12
f 10 9 11
f 17 19 18
f 17 15 19
f 16 18 14
f 16 14 15
f 16 17 18
f 16 15 17
f 6 8 4
f 6 5 8
f 7 8 5
f 7 5 9
f 7 10 8
f 7 9 10
f 2 9 5
f 2 6 4
f 2 5 6
f 2 1 19
f 2 19 13
f 3 23 20
f 3 20 1
f 21 20 23
f 21 23 24
f 2 3 1
f 2 4 3
f 2 11 9
f 2 13 11
