# Parametric PetalDock simulation geometry; SI units
v 0.0210713382579 -0.0240831622513 0.014
v 0.0210713382579 -0.0240831622513 0.0141735913261
v 0.0211214620116 -0.0241404504253 0.014177499004
v 0.0212642023856 -0.0243035933423 0.0141808117734
v 0.0213656528825 -0.0238224448137 0.014
v 0.0213656528825 -0.0238224448137 0.0140976451209
v 0.0214164767415 -0.0238791128023 0.0140998431897
v 0.0214778284519 -0.0245477539719 0.0141830252951
v 0.0215612108464 -0.0240404895806 0.0141017066225
v 0.0217298175784 -0.0248357610717 0.0141838025805
v 0.021777820742 -0.024282006997 0.0141029517285
v 0.0220333295351 -0.0245668962142 0.0141033889516
v 0.0322654867074 -0.0368773421973 0.0141838025805
v 0.0325174758339 -0.0371653492971 0.0141830252951
v 0.0327161559764 -0.036478118621 0.0141033889516
v 0.0327311019002 -0.0374095099267 0.0141808117734
v 0.0328738422742 -0.0375726528436 0.014177499004
v 0.0329239660279 -0.0376299410177 0.014
v 0.0329239660279 -0.0376299410177 0.0141735913261
v 0.0329716647695 -0.0367630078382 0.0141029517285
v 0.0331882746651 -0.0370045252545 0.0141017066225
v 0.03333300877 -0.0371659020328 0.0140998431897
v 0.033383832629 -0.0372225700214 0.014
v 0.033383832629 -0.0372225700214 0.0140976451209
f 10 1 18
f 19 10 18
f 19 17 16
f 4 2 1
f 4 1 10
f 14 10 19
f 14 19 16
f 22 16 17
f 3 6 2
f 3 2 4
f 13 20 10
f 13 10 14
f 13 14 20
f 7 6 3
f 7 3 4
f 7 23 5
f 7 5 6
f 8 4 10
f 21 14 16
f 21 16 22
f 21 20 14
f 24 17 19
f 24 22 17
f 24 21 22
f 24 23 7
f 24 7 21
f 9 7 4
f 9 4 8
f 11 7 9
f 11 8 12
f 11 9 8
f 15 21 7
f 15 7 11
f 15 20 21
f 15 11 12
f 15 12 8
f 15 10 20
f 15 8 10
f 5 23 18
f 5 18 1
f 2 5 1
f 2 6 5
f 24 18 23
f 24 19 18
