# Parametric PetalDock simulation geometry; SI units
v 0.0173046064199 -0.0269174775314 0.014
v 0.0173046064199 -0.0269174775314 0.0167774612171
v 0.0173457700052 -0.0269815078743 0.0168399840637
v 0.0174629939785 -0.0271638508638 0.0168929883737
v 0.0176340300687 -0.0267028272573 0.014
v 0.0176340300687 -0.0267028272573 0.0164411280229
v 0.0176384320524 -0.0274367464326 0.0169284047213
v 0.0176759772754 -0.0267663469978 0.0164960797435
v 0.0177954328133 -0.0269472359144 0.0165426655628
v 0.0178453753705 -0.0277586487042 0.0169408412887
v 0.0179742106598 -0.0272179553095 0.0165737932121
v 0.0181850935084 -0.0275372906091 0.0165847237889
v 0.0264976785805 -0.0412173874699 0.0169408412887
v 0.0267046218986 -0.0415392897416 0.0169284047213
v 0.0268800599725 -0.0418121853104 0.0168929883737
v 0.0269972839458 -0.0419945282999 0.0168399840637
v 0.0270021085427 -0.0408887042378 0.0165847237889
v 0.0270384475311 -0.0420585586428 0.014
v 0.0270384475311 -0.0420585586428 0.0167774612171
v 0.0272129913913 -0.0412080395375 0.0165737932121
v 0.0273917692378 -0.0414787589325 0.0165426655628
v 0.0275112247757 -0.0416596478492 0.0164960797435
v 0.0275531719824 -0.0417231675896 0.014
v 0.0275531719824 -0.0417231675896 0.0164411280229
f 14 1 18
f 19 14 18
f 13 10 14
f 15 19 16
f 15 14 19
f 15 21 14
f 12 23 5
f 12 21 23
f 24 23 21
f 24 16 19
f 3 6 2
f 3 10 4
f 3 14 10
f 3 2 1
f 3 1 14
f 8 5 6
f 8 12 5
f 8 6 3
f 8 3 4
f 17 12 10
f 17 10 13
f 7 4 10
f 7 10 12
f 22 16 24
f 22 24 21
f 22 15 16
f 22 21 15
f 20 21 12
f 20 12 17
f 20 14 21
f 20 13 14
f 20 17 13
f 9 12 8
f 9 8 4
f 9 4 7
f 11 7 12
f 11 12 9
f 11 9 7
f 5 23 18
f 5 18 1
f 2 5 1
f 2 6 5
f 24 18 23
f 24 19 18
