# Parametric PetalDock simulation geometry; SI units
v -0.0399527730768 0.0300628661886 0.014
v -0.0399527730768 0.0300628661886 0.0150849457879
v -0.0398919486015 0.0300170982 0.0151093687749
v -0.0397187351507 0.0298867619957 0.0151300735835
v -0.0395803805266 0.030551488955 0.014
v -0.0395803805266 0.030551488955 0.0148788060882
v -0.0395201229852 0.0305049770826 0.0148985887077
v -0.0394595029019 0.0296917000812 0.0151439080943
v -0.0393485240255 0.0303725224762 0.0149153596026
v -0.0391537176153 0.0294616088648 0.0151487661284
v -0.0390917080336 0.0301742901491 0.0149265655563
v -0.0387887729161 0.0299404591759 0.014930500564
v -0.0263688302307 0.0198414916845 0.0151487661284
v -0.0261230511476 0.0201639827103 0.014930500564
v -0.026063044944 0.0196114004681 0.0151439080943
v -0.0258201160301 0.0199301517372 0.0149265655563
v -0.0258038126953 0.0194163385536 0.0151300735835
v -0.0256305992444 0.0192860023493 0.0151093687749
v -0.0255697747692 0.0192402343607 0.014
v -0.0255697747692 0.0192402343607 0.0150849457879
v -0.0255633000381 0.01973191941 0.0149153596026
v -0.0253917010784 0.0195994648036 0.0148985887077
v -0.025331443537 0.0195529529312 0.014
v -0.025331443537 0.0195529529312 0.0148788060882
f 19 10 1
f 7 23 5
f 20 10 19
f 20 17 10
f 13 12 10
f 13 10 17
f 13 14 12
f 6 7 5
f 3 2 1
f 3 6 2
f 3 7 6
f 16 12 14
f 16 24 23
f 16 23 7
f 18 20 24
f 18 17 20
f 11 12 16
f 11 16 7
f 11 7 9
f 11 9 8
f 11 10 12
f 11 8 10
f 22 17 18
f 22 18 24
f 15 13 17
f 15 14 13
f 15 16 14
f 4 8 9
f 4 7 3
f 4 9 7
f 4 10 8
f 4 1 10
f 4 3 1
f 21 24 16
f 21 22 24
f 21 17 22
f 21 15 17
f 21 16 15
f 19 5 23
f 19 1 5
f 6 5 1
f 6 1 2
f 24 19 23
f 24 20 19
