# Parametric PetalDock simulation geometry; SI units
v 0.0293271837559 0.0128029798465 0.014
v 0.0293271837559 0.0128029798465 0.0218877740864
v 0.0293969462227 0.0128334351218 0.0220653341135
v 0.0294822777384 0.0124416759063 0.014
v 0.0294822777384 0.0124416759063 0.0222853820598
v 0.0295524091372 0.0124712717247 0.0224718925566
v 0.0295956129199 0.0129201644083 0.0222158622361
v 0.0297521264641 0.0125555534846 0.0226300085209
v 0.0298929386438 0.0130499639582 0.022316441912
v 0.0300510245665 0.0126816900522 0.0227356582306
v 0.0302436582483 0.0132030729667 0.0223517607973
v 0.0304035989177 0.0128304782784 0.0227727574751
v 0.0449072501262 0.0196045628899 0.0223517607973
v 0.0451447377869 0.0190513162316 0.0227727574751
v 0.0452579697306 0.0197576718984 0.022316441912
v 0.0454973121381 0.0192001044578 0.0227356582306
v 0.0455552954545 0.0198874714483 0.0222158622361
v 0.0457539621518 0.0199742007347 0.0220653341135
v 0.0457962102404 0.0193262410254 0.0226300085209
v 0.0458237246186 0.0200046560101 0.014
v 0.0458237246186 0.0200046560101 0.0218877740864
v 0.0459959275673 0.0194105227853 0.0224718925566
v 0.0460660589662 0.0194401186036 0.014
v 0.0460660589662 0.0194401186036 0.0222853820598
f 17 20 1
f 14 13 12
f 21 20 17
f 16 14 12
f 16 5 24
f 16 12 5
f 16 19 17
f 11 12 13
f 2 5 6
f 2 6 3
f 10 12 11
f 18 17 19
f 18 21 17
f 15 17 13
f 15 16 17
f 15 13 14
f 15 14 16
f 9 13 17
f 9 11 13
f 9 1 2
f 9 17 1
f 9 10 11
f 8 3 6
f 8 6 5
f 8 5 12
f 8 12 10
f 22 24 21
f 22 21 18
f 22 18 19
f 22 19 16
f 22 16 24
f 7 2 3
f 7 9 2
f 7 3 8
f 7 10 9
f 7 8 10
f 4 20 23
f 4 1 20
f 5 4 23
f 5 23 24
f 21 23 20
f 21 24 23
f 2 1 4
f 2 4 5
