# Parametric PetalDock simulation geometry; SI units
v 0.0238224448137 0.0213656528825 0.014
v 0.0238224448137 0.0213656528825 0.0140976451209
v 0.0238791128023 0.0214164767415 0.0140998431897
v 0.0240404895806 0.0215612108464 0.0141017066225
v 0.0240831622513 0.0210713382579 0.014
v 0.0240831622513 0.0210713382579 0.0141735913261
v 0.0241404504253 0.0211214620116 0.014177499004
v 0.024282006997 0.021777820742 0.0141029517285
v 0.0243035933423 0.0212642023856 0.0141808117734
v 0.0245477539719 0.0214778284519 0.0141830252951
v 0.0245668962142 0.0220333295351 0.0141033889516
v 0.0248357610717 0.0217298175784 0.0141838025805
v 0.036478118621 0.0327161559764 0.0141033889516
v 0.0367630078382 0.0329716647695 0.0141029517285
v 0.0368773421973 0.0322654867074 0.0141838025805
v 0.0370045252545 0.0331882746651 0.0141017066225
v 0.0371653492971 0.0325174758339 0.0141830252951
v 0.0371659020328 0.03333300877 0.0140998431897
v 0.0372225700214 0.033383832629 0.014
v 0.0372225700214 0.033383832629 0.0140976451209
v 0.0374095099267 0.0327311019002 0.0141808117734
v 0.0375726528436 0.0328738422742 0.014177499004
v 0.0376299410177 0.0329239660279 0.014
v 0.0376299410177 0.0329239660279 0.0141735913261
f 5 23 12
f 24 12 23
f 3 19 1
f 20 19 3
f 2 3 1
f 9 6 5
f 9 5 12
f 22 21 24
f 22 18 21
f 22 24 20
f 22 20 18
f 14 13 12
f 14 12 15
f 16 3 13
f 16 20 3
f 16 13 14
f 16 18 20
f 16 21 18
f 10 12 13
f 10 13 11
f 10 9 12
f 8 13 3
f 8 11 13
f 8 10 11
f 7 6 9
f 7 9 3
f 7 2 6
f 7 3 2
f 17 14 15
f 17 16 14
f 17 21 16
f 17 15 12
f 17 12 24
f 17 24 21
f 4 9 10
f 4 10 8
f 4 3 9
f 4 8 3
f 5 19 23
f 5 1 19
f 20 23 19
f 20 24 23
f 2 1 5
f 2 5 6
