# Parametric PetalDock simulation geometry; SI units
v 0.0064432467941 0.0313446099154 0.014
v 0.0064432467941 0.0313446099154 0.0285329125757
v 0.0064585737616 0.0314191713642 0.0288600599208
v 0.006502221272 0.0316315044058 0.0291374020482
v 0.0065675443877 0.0319492832594 0.0293227161331
v 0.0066445982564 0.0323241289753 0.029387789786
v 0.0068278856491 0.0312630769049 0.014
v 0.0068278856491 0.0312630769049 0.0281948533313
v 0.0068441275818 0.0313374444058 0.0285143906957
v 0.006890380693 0.0315492251307 0.0287852813929
v 0.0069596033657 0.0318661773839 0.0289662847701
v 0.0070412570756 0.0322400480582 0.0290298447037
v 0.0098662216535 0.047996433933 0.029387789786
v 0.0099432755222 0.0483712796489 0.0293227161331
v 0.0100085986379 0.0486890585025 0.0291374020482
v 0.0100522461484 0.0489013915441 0.0288600599208
v 0.0100675731158 0.0489759529928 0.014
v 0.0100675731158 0.0489759529928 0.0285329125757
v 0.0104551999002 0.0478715865107 0.0290298447037
v 0.01053685361 0.0482454571849 0.0289662847701
v 0.0106060762828 0.0485624094382 0.0287852813929
v 0.010652329394 0.048774190163 0.0285143906957
v 0.0106685713267 0.0488485576639 0.014
v 0.0106685713267 0.0488485576639 0.0281948533313
f 14 17 6
f 18 17 14
f 18 14 15
f 18 15 16
f 13 14 6
f 21 15 14
f 4 1 2
f 22 7 23
f 22 8 7
f 22 16 15
f 22 15 21
f 3 2 8
f 3 4 2
f 24 22 23
f 24 18 16
f 24 16 22
f 5 6 4
f 5 12 6
f 10 5 4
f 19 13 6
f 19 6 12
f 19 22 21
f 19 12 10
f 19 8 22
f 19 10 8
f 9 3 8
f 9 8 10
f 9 4 3
f 9 10 4
f 11 12 5
f 11 10 12
f 11 5 10
f 20 21 14
f 20 19 21
f 20 14 13
f 20 13 19
f 7 17 23
f 7 1 17
f 2 1 7
f 2 7 8
f 4 17 1
f 4 6 17
f 24 23 17
f 24 17 18
