# Parametric PetalDock simulation geometry; SI units
v 0.0250892879822 -0.0198627195657 0.014
v 0.0250892879822 -0.0198627195657 0.0146943653043
v 0.0251489694926 -0.0199099683 0.0147099960159
v 0.0253189280546 -0.0200445213115 0.0147232470934
v 0.025331443537 -0.0195529529312 0.014
v 0.025331443537 -0.0195529529312 0.0148788060882
v 0.0253917010784 -0.0195994648036 0.0148985887077
v 0.0255633000381 -0.01973191941 0.0149153596026
v 0.0255732890179 -0.020245894124 0.0147321011803
v 0.0258201160301 -0.0199301517372 0.0149265655563
v 0.0258733282317 -0.0204834295521 0.0147352103222
v 0.0261230511476 -0.0201639827103 0.014930500564
v 0.0384179722228 -0.0304147893349 0.0147352103222
v 0.0387180114366 -0.030652324763 0.0147321011803
v 0.0387887729161 -0.0299404591759 0.014930500564
v 0.0389723723999 -0.0308536975755 0.0147232470934
v 0.0390917080336 -0.0301742901491 0.0149265655563
v 0.0391423309619 -0.030988250587 0.0147099960159
v 0.0392020124722 -0.0310354993214 0.014
v 0.0392020124722 -0.0310354993214 0.0146943653043
v 0.0393485240255 -0.0303725224762 0.0149153596026
v 0.0395201229852 -0.0305049770826 0.0148985887077
v 0.0395803805266 -0.030551488955 0.014
v 0.0395803805266 -0.030551488955 0.0148788060882
f 5 12 23
f 22 24 21
f 22 21 18
f 20 24 22
f 20 22 18
f 15 21 24
f 15 24 23
f 15 23 12
f 10 11 12
f 10 12 8
f 4 10 8
f 7 6 2
f 7 8 12
f 7 5 6
f 7 12 5
f 9 2 20
f 9 11 10
f 9 10 4
f 16 20 18
f 16 18 21
f 16 9 20
f 17 21 15
f 17 15 14
f 17 16 21
f 17 14 16
f 3 7 2
f 3 2 9
f 3 9 4
f 3 4 8
f 3 8 7
f 13 16 14
f 13 9 16
f 13 11 9
f 13 12 11
f 13 15 12
f 13 14 15
f 5 23 19
f 5 19 1
f 2 5 1
f 2 6 5
f 20 1 19
f 20 2 1
f 20 19 23
f 20 23 24
