# Parametric PetalDock simulation geometry; SI units
v 0.0300579198229 0.010978226447 0.014
v 0.0300579198229 0.010978226447 0.0238758139535
v 0.0301294205388 0.0110043410635 0.0240981263288
v 0.0301905382492 0.0106080818353 0.014
v 0.0301905382492 0.0106080818353 0.0242734219269
v 0.0302623544331 0.0106333159649 0.0245046847719
v 0.0303330373506 0.0110787091995 0.0242865936603
v 0.0304668696219 0.0107051766864 0.0247007399452
v 0.0306377714446 0.0111900089804 0.0244125235052
v 0.0307729482319 0.0108127238562 0.0248317398238
v 0.0309972298173 0.0113212960234 0.024456744186
v 0.0311339925695 0.0109395843927 0.0248777408638
v 0.0460261897288 0.0168104092469 0.024456744186
v 0.0462292616941 0.0162436253103 0.0248777408638
v 0.0463856481015 0.01694169629 0.0244125235052
v 0.0465903060316 0.0163704858468 0.0248317398238
v 0.0466903821955 0.0170529960709 0.0242865936603
v 0.0468939990074 0.0171273642069 0.0240981263288
v 0.0468963846417 0.0164780330166 0.0247007399452
v 0.0469654997233 0.0171534788234 0.014
v 0.0469654997233 0.0171534788234 0.0238758139535
v 0.0471008998304 0.016549893738 0.0245046847719
v 0.0471727160144 0.0165751278677 0.014
v 0.0471727160144 0.0165751278677 0.0242734219269
f 17 20 1
f 14 13 12
f 14 4 23
f 22 23 24
f 22 14 23
f 22 19 14
f 21 22 24
f 16 19 17
f 16 14 19
f 9 1 2
f 9 17 1
f 18 21 20
f 18 20 17
f 18 22 21
f 18 17 19
f 18 19 22
f 15 17 9
f 15 16 17
f 15 13 14
f 15 14 16
f 11 12 13
f 11 13 15
f 11 15 9
f 7 2 3
f 7 9 2
f 7 3 8
f 6 8 3
f 6 2 5
f 6 3 2
f 6 5 4
f 6 4 14
f 6 14 12
f 10 12 11
f 10 11 9
f 10 6 12
f 10 8 6
f 10 9 7
f 10 7 8
f 4 20 23
f 4 1 20
f 21 23 20
f 21 24 23
f 2 1 4
f 2 4 5
