# Parametric PetalDock simulation geometry; SI units
v -0.0021495829143 0.0499537715623 0.014
v -0.0021495829143 0.0499537715623 0.0309530814185
v -0.0021463103692 0.0498777214734 0.0313347086766
v -0.0021369909491 0.0496611491434 0.031658236644
v -0.0021230434514 0.0493370257462 0.0318744111206
v -0.002106591256 0.048954696131 0.031950321502
v -0.0015356482133 0.0499764122818 0.014
v -0.0015356482133 0.0499764122818 0.0309873558423
v -0.0015333103281 0.0499003277245 0.0313697546447
v -0.0015266525943 0.0496836572367 0.0316939366958
v -0.0015166885916 0.049359386936 0.0319105482172
v -0.001504935249 0.0489768840362 0.0319866120683
v -0.0014187247234 0.0329694892311 0.031950321502
v -0.0014022725281 0.0325871596159 0.0318744111206
v -0.0013883250303 0.0322630362187 0.031658236644
v -0.0013790056103 0.0320464638887 0.0313347086766
v -0.0013757330651 0.0319704137998 0.014
v -0.0013757330651 0.0319704137998 0.0309530814185
v -0.0010135278208 0.032984432106 0.0319866120683
v -0.0010017744782 0.0326019292062 0.0319105482172
v -0.0009918104755 0.0322776589055 0.0316939366958
v -0.0009851527417 0.0320609884177 0.0313697546447
v -0.0009828148565 0.0319849038604 0.014
v -0.0009828148565 0.0319849038604 0.0309873558423
f 10 7 8
f 10 23 7
f 11 12 10
f 11 10 4
f 24 23 10
f 19 12 6
f 3 4 10
f 3 2 1
f 16 21 15
f 16 17 18
f 16 1 17
f 5 6 12
f 5 12 11
f 5 11 4
f 5 4 3
f 5 3 1
f 5 1 16
f 20 12 19
f 20 15 21
f 13 19 6
f 13 20 19
f 9 10 8
f 9 3 10
f 9 8 2
f 9 2 3
f 22 20 21
f 22 21 16
f 22 12 20
f 22 18 24
f 22 16 18
f 14 6 5
f 14 13 6
f 14 5 16
f 14 16 15
f 14 15 20
f 14 20 13
f 17 7 23
f 17 1 7
f 2 7 1
f 2 8 7
f 24 17 23
f 24 18 17
f 22 24 10
f 22 10 12
