# Parametric PetalDock simulation geometry; SI units
v 0.0260348209234 0.0186061306963 0.014
v 0.0260348209234 0.0186061306963 0.0155623219346
v 0.026096751634 0.0186503903015 0.0155974910358
v 0.0262614656369 0.0182848413338 0.014
v 0.0262614656369 0.0182848413338 0.0158335583816
v 0.0262731153766 0.0187764309934 0.0156273059602
v 0.0263239354819 0.0183283366673 0.0158748332296
v 0.0265018345494 0.0184522008974 0.0159098243561
v 0.02653706237 0.0189650642193 0.0156472276557
v 0.026768079319 0.018637576818 0.0159332046793
v 0.0268484090773 0.0191875722805 0.0156542232249
v 0.027082136438 0.0188562426255 0.015941414757
v 0.039865819539 0.0284906376286 0.0156542232249
v 0.0401771662462 0.0287131456898 0.0156472276557
v 0.0402128692565 0.0279986632924 0.015941414757
v 0.0404411132396 0.0289017789157 0.0156273059602
v 0.0405269263755 0.0282173291 0.0159332046793
v 0.0406174769822 0.0290278196077 0.0155974910358
v 0.0406794076928 0.0290720792129 0.014
v 0.0406794076928 0.0290720792129 0.0155623219346
v 0.0407931711451 0.0284027050206 0.0159098243561
v 0.0409710702126 0.0285265692507 0.0158748332296
v 0.0410335400576 0.0285700645841 0.014
v 0.0410335400576 0.0285700645841 0.0158335583816
f 15 13 12
f 15 12 5
f 15 4 23
f 15 23 24
f 15 5 4
f 22 18 21
f 22 21 15
f 22 15 24
f 22 24 20
f 22 20 18
f 17 15 21
f 8 5 12
f 14 13 15
f 14 15 17
f 11 12 13
f 11 13 14
f 11 14 9
f 10 8 12
f 10 12 11
f 10 11 9
f 10 9 6
f 10 6 8
f 7 2 5
f 7 5 8
f 3 18 2
f 3 9 14
f 3 6 9
f 3 2 7
f 3 8 6
f 3 7 8
f 16 18 3
f 16 3 14
f 16 21 18
f 16 17 21
f 16 14 17
f 4 19 23
f 4 1 19
f 20 23 19
f 20 24 23
f 2 1 4
f 2 4 5
f 2 19 1
f 2 20 19
f 2 18 20
