# Parametric PetalDock simulation geometry; SI units
v 0.0299207635113 0.0113467136608 0.014
v 0.0299207635113 0.0113467136608 0.0234782059801
v 0.0299919379646 0.0113737048217 0.0236915678858
v 0.0300579198229 0.010978226447 0.014
v 0.0300579198229 0.010978226447 0.0238758139535
v 0.0301294205388 0.0110043410635 0.0240981263288
v 0.0301946256593 0.0114505691448 0.0238724473755
v 0.0303330373506 0.0110787091995 0.0242865936603
v 0.0304979692311 0.0115656047336 0.0239933071865
v 0.0306377714446 0.0111900089804 0.0244125235052
v 0.030855787371 0.0117012984627 0.0240357475083
v 0.0309972298173 0.0113212960234 0.024456744186
v 0.0458161691267 0.0173746552931 0.0240357475083
v 0.0460261897288 0.0168104092469 0.024456744186
v 0.0461739872667 0.0175103490221 0.0239933071865
v 0.0463856481015 0.01694169629 0.0244125235052
v 0.0464773308385 0.017625384611 0.0238724473755
v 0.0466800185331 0.0177022489341 0.0236915678858
v 0.0466903821955 0.0170529960709 0.0242865936603
v 0.0467511929864 0.017729240095 0.014
v 0.0467511929864 0.017729240095 0.0234782059801
v 0.0468939990074 0.0171273642069 0.0240981263288
v 0.0469654997233 0.0171534788234 0.014
v 0.0469654997233 0.0171534788234 0.0238758139535
f 6 4 23
f 6 5 4
f 3 20 1
f 2 3 1
f 2 5 6
f 2 6 3
f 10 12 11
f 21 20 3
f 14 24 19
f 14 23 24
f 14 6 23
f 14 12 6
f 7 11 3
f 18 17 19
f 13 3 11
f 13 21 3
f 13 18 21
f 13 17 18
f 13 15 17
f 13 11 12
f 13 12 14
f 13 14 15
f 16 14 19
f 16 15 14
f 16 19 17
f 16 17 15
f 9 10 11
f 9 11 7
f 9 7 10
f 8 10 7
f 8 6 12
f 8 12 10
f 8 3 6
f 8 7 3
f 22 24 21
f 22 21 18
f 22 19 24
f 22 18 19
f 4 20 23
f 4 1 20
f 2 1 4
f 2 4 5
f 21 23 20
f 21 24 23
