# Parametric PetalDock simulation geometry; SI units
v 0.0087344619366 -0.0307848854908 0.014
v 0.0087344619366 -0.0307848854908 0.026261461794
v 0.0087552391655 -0.0308581154869 0.0265374769873
v 0.0088144077075 -0.0310666568721 0.0267714713694
v 0.0089029596885 -0.0313787611109 0.026927821417
v 0.0090074138721 -0.0317469131623 0.0269827242525
v 0.0091120506106 -0.0306752430091 0.014
v 0.0091120506106 -0.0306752430091 0.0258638538206
v 0.0091337260341 -0.0307482121916 0.0261309185442
v 0.0091954524179 -0.0309560108424 0.0263573250846
v 0.0092878324796 -0.0312670035006 0.0265086050983
v 0.0093968021922 -0.0316338443532 0.0265617275748
v 0.0133746448403 -0.0471393559077 0.0269827242525
v 0.0134790990239 -0.0475075079591 0.026927821417
v 0.0135676510049 -0.047819612198 0.0267714713694
v 0.0136268195469 -0.0480281535832 0.0265374769873
v 0.0136475967759 -0.0481013835793 0.014
v 0.0136475967759 -0.0481013835793 0.026261461794
v 0.0139528274975 -0.0469714658577 0.0265617275748
v 0.0140617972101 -0.0473383067103 0.0265086050983
v 0.0141541772718 -0.0476492993686 0.0263573250846
v 0.0142159036556 -0.0478570980193 0.0261309185442
v 0.0142375790791 -0.0479300672018 0.014
v 0.0142375790791 -0.0479300672018 0.0258638538206
f 13 1 17
f 19 6 13
f 4 1 13
f 12 6 19
f 22 23 7
f 3 8 2
f 3 2 1
f 3 1 4
f 5 6 12
f 5 13 6
f 5 4 13
f 10 4 5
f 11 7 8
f 11 22 7
f 11 8 10
f 11 12 19
f 11 19 22
f 11 5 12
f 11 10 5
f 24 23 22
f 9 8 3
f 9 10 8
f 9 3 4
f 9 4 10
f 16 22 15
f 16 18 24
f 16 24 22
f 16 17 18
f 16 13 17
f 20 19 13
f 20 22 19
f 14 20 13
f 14 13 16
f 14 16 15
f 21 15 22
f 21 22 20
f 21 14 15
f 21 20 14
f 7 23 17
f 7 17 1
f 2 7 1
f 2 8 7
f 24 17 23
f 24 18 17
