# Parametric PetalDock simulation geometry; SI units
v -0.0479300672018 0.0142375790791 0.014
v -0.0479300672018 0.0142375790791 0.0258638538206
v -0.0478570980193 0.0142159036556 0.0261309185442
v -0.0477515147565 0.0148254119155 0.014
v -0.0477515147565 0.0148254119155 0.0254662458472
v -0.0476788174039 0.0148028415698 0.0257243601011
v -0.0476492993686 0.0141541772718 0.0263573250846
v -0.0474717928592 0.0147385666632 0.0259431787997
v -0.0473383067103 0.0140617972101 0.0265086050983
v -0.0471619587327 0.0146423724676 0.0260893887797
v -0.0469714658577 0.0139528274975 0.0265617275748
v -0.0467964844613 0.0145289036772 0.026140730897
v -0.0316338443532 0.0093968021922 0.0265617275748
v -0.0315159997393 0.0097847718642 0.026140730897
v -0.0312670035006 0.0092878324796 0.0265086050983
v -0.0311505254679 0.0096713030739 0.0260893887797
v -0.0309560108424 0.0091954524179 0.0263573250846
v -0.0308406913413 0.0095751088782 0.0259431787997
v -0.0307482121916 0.0091337260341 0.0261309185442
v -0.0306752430091 0.0091120506106 0.014
v -0.0306752430091 0.0091120506106 0.0258638538206
v -0.0306336667967 0.0095108339716 0.0257243601011
v -0.0305609694441 0.0094882636259 0.014
v -0.0305609694441 0.0094882636259 0.0254662458472
f 10 23 4
f 10 11 12
f 13 12 11
f 7 2 1
f 16 10 12
f 16 23 10
f 22 18 17
f 22 16 18
f 9 11 10
f 9 13 11
f 9 17 13
f 3 5 2
f 3 2 7
f 8 10 4
f 8 9 10
f 8 7 9
f 14 12 13
f 14 16 12
f 15 13 17
f 15 17 18
f 15 18 16
f 15 14 13
f 15 16 14
f 19 22 17
f 19 20 21
f 19 1 20
f 19 7 1
f 19 17 9
f 19 9 7
f 24 23 16
f 24 16 22
f 24 19 21
f 24 22 19
f 6 4 5
f 6 8 4
f 6 5 3
f 6 3 7
f 6 7 8
f 20 4 23
f 20 1 4
f 5 4 1
f 5 1 2
f 24 20 23
f 24 21 20
