# Parametric PetalDock simulation geometry; SI units
v 0.0207738424644 0.0243402438209 0.014
v 0.0207738424644 0.0243402438209 0.014271236447
v 0.0208232585457 0.0243981435315 0.0142773421937
v 0.020963983639 0.0245630279572 0.0142825183959
v 0.0210713382579 0.0240831622513 0.014
v 0.0210713382579 0.0240831622513 0.0141735913261
v 0.0211214620116 0.0241404504253 0.014177499004
v 0.0211745936247 0.0248097949388 0.0142859770236
v 0.0212642023856 0.0243035933423 0.0141808117734
v 0.0214230250415 0.0251008764403 0.0142871915321
v 0.0214778284519 0.0245477539719 0.0141830252951
v 0.0217298175784 0.0248357610717 0.0141838025805
v 0.0318099462737 0.0372709983508 0.0142871915321
v 0.0320583776905 0.0375620798524 0.0142859770236
v 0.0322654867074 0.0368773421973 0.0141838025805
v 0.0322689876761 0.037808846834 0.0142825183959
v 0.0324097127694 0.0379737312596 0.0142773421937
v 0.0324591288507 0.0380316309702 0.014
v 0.0324591288507 0.0380316309702 0.014271236447
v 0.0325174758339 0.0371653492971 0.0141830252951
v 0.0327311019002 0.0374095099267 0.0141808117734
v 0.0328738422742 0.0375726528436 0.014177499004
v 0.0329239660279 0.0376299410177 0.014
v 0.0329239660279 0.0376299410177 0.0141735913261
f 16 18 1
f 4 1 2
f 4 16 1
f 13 10 20
f 3 2 6
f 3 4 2
f 15 20 10
f 15 10 12
f 15 5 23
f 15 23 22
f 8 12 10
f 8 10 13
f 14 13 20
f 14 16 4
f 14 4 8
f 14 8 13
f 17 16 22
f 17 18 16
f 17 19 18
f 24 22 23
f 24 19 17
f 24 17 22
f 7 6 5
f 7 5 15
f 7 3 6
f 7 4 3
f 21 14 20
f 21 20 15
f 21 15 22
f 21 22 16
f 21 16 14
f 11 15 12
f 11 7 15
f 11 12 8
f 9 4 7
f 9 7 11
f 9 8 4
f 9 11 8
f 5 18 23
f 5 1 18
f 2 1 5
f 2 5 6
f 24 23 18
f 24 18 19
