# Parametric PetalDock simulation geometry; SI units
v -0.0463014386579 -0.0188726462959 0.014
v -0.0463014386579 -0.0188726462959 0.0226829900332
v -0.0462309489148 -0.0188439144027 0.0228784509996
v -0.0460660589662 -0.0194401186036 0.014
v -0.0460660589662 -0.0194401186036 0.0222853820598
v -0.0460302111098 -0.0187620928935 0.0230441548058
v -0.0459959275673 -0.0194105227853 0.0224718925566
v -0.0457962102404 -0.0193262410254 0.0226300085209
v -0.0457297857541 -0.0186396383512 0.0231548745493
v -0.0454973121381 -0.0192001044578 0.0227356582306
v -0.0453754098847 -0.01849519337 0.0231937541528
v -0.0451447377869 -0.0190513162316 0.0227727574751
v -0.0305589495142 -0.0124559465553 0.0231937541528
v -0.0304035989177 -0.0128304782784 0.0227727574751
v -0.0302045736448 -0.0123115015741 0.0231548745493
v -0.0300510245665 -0.0126816900522 0.0227356582306
v -0.0299041482891 -0.0121890470318 0.0230441548058
v -0.0297521264641 -0.0125555534846 0.0226300085209
v -0.0297034104842 -0.0121072255226 0.0228784509996
v -0.029632920741 -0.0120784936294 0.014
v -0.029632920741 -0.0120784936294 0.0226829900332
v -0.0295524091372 -0.0124712717247 0.0224718925566
v -0.0294822777384 -0.0124416759063 0.014
v -0.0294822777384 -0.0124416759063 0.0222853820598
f 22 4 23
f 22 12 4
f 13 11 12
f 13 17 20
f 8 4 12
f 16 12 22
f 24 22 23
f 19 17 22
f 19 21 20
f 19 20 17
f 19 24 21
f 19 22 24
f 7 5 4
f 7 4 8
f 10 12 11
f 10 8 12
f 18 22 17
f 18 16 22
f 15 17 13
f 15 18 17
f 15 16 18
f 14 13 12
f 14 12 16
f 14 15 13
f 14 16 15
f 3 2 5
f 3 5 7
f 3 1 2
f 3 20 1
f 3 13 20
f 9 10 11
f 9 8 10
f 9 11 13
f 9 13 3
f 6 8 9
f 6 9 3
f 6 7 8
f 6 3 7
f 20 23 4
f 20 4 1
f 5 1 4
f 5 2 1
f 24 23 20
f 24 20 21
