# Parametric PetalDock simulation geometry; SI units
v 0.0310858644172 0.0075940129995 0.014
v 0.0310858644172 0.0075940129995 0.0274536380952
v 0.0311598103713 0.0076120773688 0.027756490119
v 0.0311768240649 0.0072114936888 0.014
v 0.0311768240649 0.0072114936888 0.0278350951711
v 0.0312509863906 0.0072286481348 0.0281465340951
v 0.0313703906325 0.0076635203404 0.0280132356675
v 0.031462182826 0.0072774998638 0.0284105592661
v 0.0316855462648 0.0077405101882 0.0281847875584
v 0.0317782606281 0.0073506116429 0.0285869752452
v 0.0320572976802 0.0078313259057 0.0282450285714
v 0.032151099817 0.0074368528666 0.0286489242988
v 0.0476002298888 0.0116283324054 0.0282450285714
v 0.0477395118494 0.011042599711 0.0286489242988
v 0.0479719813042 0.0117191481229 0.0281847875584
v 0.0481123510383 0.0111288409347 0.0285869752452
v 0.0482871369366 0.0117961379707 0.0280132356675
v 0.0484284288404 0.0112019527138 0.0284105592661
v 0.0484977171977 0.0118475809423 0.027756490119
v 0.0485716631519 0.0118656453117 0.014
v 0.0485716631519 0.0118656453117 0.0274536380952
v 0.0486396252758 0.0112508044428 0.0281465340951
v 0.0487137876015 0.0112679588888 0.014
v 0.0487137876015 0.0112679588888 0.0278350951711
f 22 23 24
f 22 4 23
f 21 2 11
f 21 22 24
f 14 22 18
f 13 11 12
f 13 12 14
f 13 14 15
f 10 12 11
f 10 8 5
f 10 14 12
f 10 22 14
f 10 5 4
f 10 4 22
f 7 8 10
f 6 2 5
f 6 5 8
f 16 14 18
f 16 15 14
f 17 13 15
f 17 21 11
f 17 11 13
f 17 16 18
f 17 15 16
f 9 11 2
f 9 10 11
f 9 7 10
f 3 2 6
f 3 9 2
f 3 7 9
f 3 8 7
f 3 6 8
f 19 22 21
f 19 21 17
f 19 18 22
f 19 17 18
f 4 20 23
f 4 1 20
f 2 1 4
f 2 4 5
f 21 20 1
f 21 1 2
f 21 23 20
f 21 24 23
