# Parametric PetalDock simulation geometry; SI units
v -0.0430264362364 0.0254700958929 0.014
v -0.0430264362364 0.0254700958929 0.0179116943522
v -0.0429609323876 0.0254313199808 0.0179997496828
v -0.0427743932083 0.0253208955256 0.0180743993876
v -0.042710242159 0.0259968308592 0.014
v -0.042710242159 0.0259968308592 0.0175152243529
v -0.042645219687 0.0259572530409 0.0175943548306
v -0.0424952175977 0.0251556336495 0.0181242787257
v -0.0424600513529 0.0258445449498 0.0176614384104
v -0.0421829273571 0.0256758653713 0.0177062622254
v -0.0421659075117 0.0249606939751 0.0181417940199
v -0.0418560373158 0.025476894242 0.017722002256
v -0.028397447916 0.0168102632893 0.0181417940199
v -0.0281887598249 0.0171579083671 0.017722002256
v -0.02806813783 0.016615323615 0.0181242787257
v -0.0278618697836 0.0169589372378 0.0177062622254
v -0.0277889622194 0.0164500617389 0.0180743993876
v -0.0276024230401 0.0163396372836 0.0179997496828
v -0.0275847457878 0.0167902576593 0.0176614384104
v -0.0275369191913 0.0163008613715 0.014
v -0.0275369191913 0.0163008613715 0.0179116943522
v -0.0273995774537 0.0166775495683 0.0175943548306
v -0.0273345549817 0.0166379717499 0.014
v -0.0273345549817 0.0166379717499 0.0175152243529
f 13 12 11
f 13 14 12
f 13 11 2
f 13 1 20
f 13 2 1
f 3 2 11
f 3 6 2
f 8 9 4
f 8 3 11
f 8 4 3
f 10 12 14
f 10 9 8
f 10 11 12
f 10 8 11
f 24 23 22
f 18 20 21
f 18 13 20
f 18 17 13
f 18 22 17
f 18 21 24
f 18 24 22
f 7 6 3
f 7 5 6
f 7 4 9
f 7 3 4
f 7 9 10
f 7 23 5
f 7 22 23
f 7 14 22
f 7 10 14
f 19 17 22
f 19 22 14
f 19 14 16
f 15 13 17
f 15 14 13
f 15 16 14
f 15 19 16
f 15 17 19
f 20 5 23
f 20 1 5
f 6 5 1
f 6 1 2
f 24 20 23
f 24 21 20
