# Parametric PetalDock simulation geometry; SI units
v -0.0064328565954 0.0495844567987 0.014
v -0.0064328565954 0.0495844567987 0.030105590811
v -0.0064230631543 0.0495089689581 0.0304681403858
v -0.0063951737939 0.0492939977756 0.0307754950744
v -0.0063534344163 0.0489722706651 0.0309808629115
v -0.0063041994635 0.0485927676627 0.0310529785058
v -0.0058231362684 0.0496597531609 0.014
v -0.0058231362684 0.0496597531609 0.0302917576451
v -0.0058142710713 0.0495841506884 0.0306584979824
v -0.0057890251259 0.0493688530619 0.0309694054279
v -0.0057512418985 0.0490466373935 0.0311771471413
v -0.005706673543 0.0486665580977 0.0312500963301
v -0.0042456853529 0.0327257414871 0.0310529785058
v -0.0041964504001 0.0323462384848 0.0309808629115
v -0.0041547110225 0.0320245113743 0.0307754950744
v -0.0041268216621 0.0318095401918 0.0304681403858
v -0.004117028221 0.0317340523512 0.014
v -0.004117028221 0.0317340523512 0.030105590811
v -0.0038432699371 0.0327754370862 0.0312500963301
v -0.0037987015816 0.0323953577904 0.0311771471413
v -0.0037609183543 0.0320731421219 0.0309694054279
v -0.0037356724089 0.0318578444955 0.0306584979824
v -0.0037268072118 0.031782242023 0.014
v -0.0037268072118 0.031782242023 0.0302917576451
f 2 1 6
f 2 6 4
f 5 6 12
f 5 4 6
f 9 8 2
f 11 10 4
f 11 4 5
f 11 5 12
f 11 12 9
f 11 9 10
f 19 12 6
f 19 6 13
f 20 15 21
f 20 19 13
f 20 24 23
f 20 23 7
f 20 7 12
f 20 12 19
f 3 2 4
f 3 9 2
f 3 4 10
f 3 10 9
f 16 17 18
f 16 21 15
f 16 1 17
f 16 6 1
f 14 15 20
f 14 20 13
f 14 16 15
f 14 13 6
f 14 6 16
f 22 18 24
f 22 16 18
f 22 21 16
f 22 20 21
f 22 24 20
f 17 7 23
f 17 1 7
f 2 7 1
f 2 8 7
f 9 7 8
f 9 12 7
f 18 17 23
f 18 23 24
