# Parametric PetalDock simulation geometry; SI units
v -0.0148254119155 0.0477515147565 0.014
v -0.0148254119155 0.0477515147565 0.0254662458472
v -0.0148028415698 0.0476788174039 0.0257243601011
v -0.0147385666632 0.0474717928592 0.0259431787997
v -0.0146423724676 0.0471619587327 0.0260893887797
v -0.0145289036772 0.0467964844613 0.026140730897
v -0.0142375790791 0.0479300672018 0.014
v -0.0142375790791 0.0479300672018 0.0258638538206
v -0.0142159036556 0.0478570980193 0.0261309185442
v -0.0141541772718 0.0476492993686 0.0263573250846
v -0.0140617972101 0.0473383067103 0.0265086050983
v -0.0139528274975 0.0469714658577 0.0265617275748
v -0.0097847718642 0.0315159997393 0.026140730897
v -0.0096713030739 0.0311505254679 0.0260893887797
v -0.0095751088782 0.0308406913413 0.0259431787997
v -0.0095108339716 0.0306336667967 0.0257243601011
v -0.0094882636259 0.0305609694441 0.014
v -0.0094882636259 0.0305609694441 0.0254662458472
v -0.0093968021922 0.0316338443532 0.0265617275748
v -0.0092878324796 0.0312670035006 0.0265086050983
v -0.0091954524179 0.0309560108424 0.0263573250846
v -0.0091337260341 0.0307482121916 0.0261309185442
v -0.0091120506106 0.0306752430091 0.014
v -0.0091120506106 0.0306752430091 0.0258638538206
f 10 7 8
f 9 10 8
f 19 11 12
f 19 21 11
f 22 7 10
f 22 23 7
f 22 10 11
f 22 11 21
f 22 24 23
f 5 12 11
f 5 1 17
f 20 15 21
f 20 21 19
f 18 24 22
f 6 19 12
f 6 12 5
f 4 11 10
f 4 5 11
f 4 1 5
f 16 18 22
f 16 21 15
f 16 22 21
f 14 6 5
f 14 16 15
f 14 18 16
f 14 17 18
f 14 5 17
f 14 15 20
f 3 10 9
f 3 4 10
f 3 1 4
f 13 19 6
f 13 6 14
f 13 20 19
f 13 14 20
f 2 9 8
f 2 3 9
f 2 1 3
f 17 7 23
f 17 1 7
f 18 17 23
f 18 23 24
f 2 7 1
f 2 8 7
