# Parametric PetalDock simulation geometry; SI units
v -0.0488485576639 -0.0106685713267 0.014
v -0.0488485576639 -0.0106685713267 0.0281948533313
v -0.048774190163 -0.010652329394 0.0285143906957
v -0.0487137876015 -0.0112679588888 0.014
v -0.0487137876015 -0.0112679588888 0.0278350951711
v -0.0486396252758 -0.0112508044428 0.0281465340951
v -0.0485624094382 -0.0106060762828 0.0287852813929
v -0.0484284288404 -0.0112019527138 0.0284105592661
v -0.0482454571849 -0.01053685361 0.0289662847701
v -0.0481123510383 -0.0111288409347 0.0285869752452
v -0.0478715865107 -0.0104551999002 0.0290298447037
v -0.0477395118494 -0.011042599711 0.0286489242988
v -0.0322400480582 -0.0070412570756 0.0290298447037
v -0.032151099817 -0.0074368528666 0.0286489242988
v -0.0318661773839 -0.0069596033657 0.0289662847701
v -0.0317782606281 -0.0073506116429 0.0285869752452
v -0.0315492251307 -0.006890380693 0.0287852813929
v -0.031462182826 -0.0072774998638 0.0284105592661
v -0.0313374444058 -0.0068441275818 0.0285143906957
v -0.0312630769049 -0.0068278856491 0.014
v -0.0312630769049 -0.0068278856491 0.0281948533313
v -0.0312509863906 -0.0072286481348 0.0281465340951
v -0.0311768240649 -0.0072114936888 0.014
v -0.0311768240649 -0.0072114936888 0.0278350951711
f 22 4 23
f 9 7 8
f 9 2 7
f 9 1 2
f 3 2 5
f 3 7 2
f 24 22 23
f 10 9 8
f 10 8 5
f 10 12 11
f 10 11 9
f 10 5 4
f 10 4 22
f 10 22 14
f 10 14 12
f 13 9 11
f 13 11 12
f 13 12 14
f 6 5 8
f 6 3 5
f 6 8 7
f 6 7 3
f 19 21 20
f 19 24 21
f 19 22 24
f 15 9 13
f 15 20 1
f 15 1 9
f 15 19 20
f 15 14 16
f 15 13 14
f 17 22 19
f 17 19 15
f 18 22 17
f 18 14 22
f 18 16 14
f 18 15 16
f 18 17 15
f 20 23 4
f 20 4 1
f 5 1 4
f 5 2 1
f 24 23 20
f 24 20 21
