# Parametric PetalDock simulation geometry; SI units
v 0.0079753858316 -0.030990211694 0.014
v 0.0079753858316 -0.030990211694 0.0270566777409
v 0.0079943573972 -0.0310639301128 0.0273505938734
v 0.008048383845 -0.0312738624082 0.0275997639391
v 0.0081292401381 -0.0315880482913 0.0277662540542
v 0.0082246166388 -0.0319586558094 0.027824717608
v 0.0083555546088 -0.0308898803361 0.014
v 0.0083555546088 -0.0308898803361 0.0266590697674
v 0.0083754305064 -0.0309633600902 0.0269440354303
v 0.008432032274 -0.0311726127261 0.0271856176543
v 0.0085167428055 -0.0314857814268 0.0273470377356
v 0.0086166656904 -0.0318551890966 0.0274037209302
v 0.0122123095546 -0.0474537616564 0.027824717608
v 0.0123076860554 -0.0478243691745 0.0277662540542
v 0.0123885423485 -0.0481385550576 0.0275997639391
v 0.0124425687963 -0.048348487353 0.0273505938734
v 0.0124615403619 -0.0484222057718 0.014
v 0.0124615403619 -0.0484222057718 0.0270566777409
v 0.0127944429948 -0.0473001292647 0.0274037209302
v 0.0128943658797 -0.0476695369344 0.0273470377356
v 0.0129790764112 -0.0479827056351 0.0271856176543
v 0.0130356781787 -0.048191958271 0.0269440354303
v 0.0130555540763 -0.0482654380252 0.014
v 0.0130555540763 -0.0482654380252 0.0266590697674
f 13 1 17
f 13 6 1
f 2 1 6
f 16 13 17
f 16 17 18
f 4 2 6
f 24 23 21
f 24 16 18
f 11 23 7
f 11 21 23
f 15 14 13
f 15 13 16
f 15 21 14
f 3 8 2
f 3 2 4
f 22 24 21
f 22 16 24
f 22 21 15
f 22 15 16
f 10 7 8
f 10 11 7
f 19 6 13
f 5 4 6
f 5 10 4
f 5 11 10
f 9 8 3
f 9 10 8
f 9 3 4
f 9 4 10
f 12 6 19
f 12 19 11
f 12 5 6
f 12 11 5
f 20 21 11
f 20 11 19
f 20 14 21
f 20 13 14
f 20 19 13
f 7 23 17
f 7 17 1
f 2 7 1
f 2 8 7
f 24 17 23
f 24 18 17
