# Parametric PetalDock simulation geometry; SI units
v 0.0131623509032 -0.0291676622084 0.014
v 0.0131623509032 -0.0291676622084 0.021490166113
v 0.0131936610377 -0.0292370452109 0.0216587756704
v 0.0132828247571 -0.0294346312855 0.0218017159512
v 0.0134162676933 -0.0297303397434 0.0218972255934
v 0.0135197348218 -0.029003737179 0.014
v 0.0135197348218 -0.029003737179 0.0210925581395
v 0.0135518950885 -0.0290727302425 0.0212522172274
v 0.0135736743689 -0.0300791516524 0.0219307641196
v 0.0136434797796 -0.0292692058646 0.0213875696664
v 0.0137805459561 -0.0295632524129 0.0214780092747
v 0.013942226535 -0.0299101039658 0.0215097674419
v 0.0201548498205 -0.0446629827566 0.0219307641196
v 0.0203122564962 -0.0450117946655 0.0218972255934
v 0.0204456994324 -0.0453075031234 0.0218017159512
v 0.0205348631518 -0.045505089198 0.0216587756704
v 0.0205661732863 -0.0455744722006 0.014
v 0.0205661732863 -0.0455744722006 0.021490166113
v 0.0207020939459 -0.0444119725553 0.0215097674419
v 0.0208637745249 -0.0447588241083 0.0214780092747
v 0.0210008407013 -0.0450528706565 0.0213875696664
v 0.0210924253924 -0.0452493462786 0.0212522172274
v 0.0211245856591 -0.0453183393422 0.014
v 0.0211245856591 -0.0453183393422 0.0210925581395
f 13 1 17
f 13 9 1
f 2 1 9
f 15 13 17
f 18 15 17
f 18 16 15
f 14 13 15
f 3 7 2
f 3 2 9
f 5 3 9
f 5 4 3
f 20 13 14
f 12 5 9
f 19 9 13
f 19 13 20
f 19 12 9
f 19 20 12
f 21 14 15
f 21 20 14
f 10 4 5
f 22 15 16
f 22 21 15
f 22 20 21
f 22 23 6
f 11 5 12
f 11 10 5
f 11 22 6
f 11 6 7
f 11 7 10
f 11 12 20
f 11 20 22
f 8 3 4
f 8 4 10
f 8 7 3
f 8 10 7
f 24 16 18
f 24 22 16
f 24 23 22
f 6 23 17
f 6 17 1
f 2 6 1
f 2 7 6
f 24 17 23
f 24 18 17
