# Parametric PetalDock simulation geometry; SI units
v 0.0262614656369 -0.0182848413338 0.014
v 0.0262614656369 -0.0182848413338 0.0158335583816
v 0.0263239354819 -0.0183283366673 0.0158748332296
v 0.0264841456209 -0.0179607914839 0.014
v 0.0264841456209 -0.0179607914839 0.0161264937444
v 0.0265018345494 -0.0184522008974 0.0159098243561
v 0.0265471451693 -0.018003515979 0.0161743627988
v 0.026726552704 -0.0181251850473 0.0162149442236
v 0.026768079319 -0.018637576818 0.0159332046793
v 0.0269950550544 -0.0183072756761 0.0162420598647
v 0.027082136438 -0.0188562426255 0.015941414757
v 0.0273117751716 -0.0185220662178 0.0162515816117
v 0.0402128692565 -0.0279986632924 0.015941414757
v 0.0405269263755 -0.0282173291 0.0159332046793
v 0.0405538479821 -0.0275024619597 0.0162515816117
v 0.0407931711451 -0.0284027050206 0.0159098243561
v 0.0408705680992 -0.0277172525014 0.0162420598647
v 0.0409710702126 -0.0285265692507 0.0158748332296
v 0.0410335400576 -0.0285700645841 0.014
v 0.0410335400576 -0.0285700645841 0.0158335583816
v 0.0411390704497 -0.0278993431302 0.0162149442236
v 0.0413184779844 -0.0280210121985 0.0161743627988
v 0.0413814775327 -0.0280637366936 0.014
v 0.0413814775327 -0.0280637366936 0.0161264937444
f 9 1 19
f 16 9 19
f 14 11 9
f 14 9 16
f 10 11 12
f 10 9 11
f 3 2 1
f 3 1 9
f 7 23 4
f 7 4 5
f 7 3 8
f 7 5 2
f 7 2 3
f 18 19 20
f 18 16 19
f 18 21 16
f 13 12 11
f 13 11 14
f 17 16 21
f 17 14 16
f 6 3 9
f 6 8 3
f 6 9 10
f 6 10 8
f 22 20 24
f 22 18 20
f 22 24 21
f 22 21 18
f 15 13 14
f 15 14 17
f 15 12 13
f 15 10 12
f 15 17 21
f 15 8 10
f 15 7 8
f 15 23 7
f 15 24 23
f 15 21 24
f 4 23 19
f 4 19 1
f 2 4 1
f 2 5 4
f 20 19 23
f 20 23 24
