# Parametric PetalDock simulation geometry; SI units
v 0.0313446099154 0.0064432467941 0.014
v 0.0313446099154 0.0064432467941 0.0285329125757
v 0.0314191713642 0.0064585737616 0.0288600599208
v 0.0314214107873 0.0060576351934 0.014
v 0.0314214107873 0.0060576351934 0.0288492729043
v 0.0314961549272 0.0060720448816 0.0291835417703
v 0.0316315044058 0.006502221272 0.0291374020482
v 0.0317090082293 0.0061130802018 0.0294669212317
v 0.0319492832594 0.0065675443877 0.0293227161331
v 0.0320275657078 0.0061744938985 0.0296562693342
v 0.0323241289753 0.0066445982564 0.029387789786
v 0.0324033298744 0.0062469362932 0.0297227595457
v 0.047996433933 0.0098662216535 0.029387789786
v 0.048114035268 0.0092757538899 0.0297227595457
v 0.0483712796489 0.0099432755222 0.0293227161331
v 0.0484897994346 0.0093481962845 0.0296562693342
v 0.0486890585025 0.0100085986379 0.0291374020482
v 0.0488083569131 0.0094096099812 0.0294669212317
v 0.0489013915441 0.0100522461484 0.0288600599208
v 0.0489759529928 0.0100675731158 0.014
v 0.0489759529928 0.0100675731158 0.0285329125757
v 0.0490212102152 0.0094506453014 0.0291835417703
v 0.0490959543552 0.0094650549896 0.014
v 0.0490959543552 0.0094650549896 0.0288492729043
f 3 20 1
f 14 13 12
f 21 22 24
f 10 4 23
f 10 23 24
f 10 24 22
f 10 22 18
f 10 14 12
f 19 20 3
f 19 3 13
f 19 21 20
f 19 18 22
f 19 22 21
f 11 12 13
f 11 10 12
f 2 3 1
f 16 10 18
f 16 14 10
f 9 13 3
f 9 11 13
f 9 10 11
f 17 19 13
f 17 18 19
f 17 16 18
f 7 9 3
f 7 10 9
f 8 5 4
f 8 4 10
f 8 7 3
f 8 10 7
f 15 17 13
f 15 16 17
f 15 13 14
f 15 14 16
f 6 8 3
f 6 5 8
f 6 2 5
f 6 3 2
f 4 20 23
f 4 1 20
f 21 23 20
f 21 24 23
f 5 1 4
f 5 2 1
