# Parametric PetalDock simulation geometry; SI units
v 0.0288354334157 0.0138750776476 0.014
v 0.0288354334157 0.0138750776476 0.0206949501661
v 0.0289040261242 0.0139080831913 0.0208456587843
v 0.029003737179 0.0135197348218 0.014
v 0.029003737179 0.0135197348218 0.0210925581395
v 0.0290727302425 0.0135518950885 0.0212522172274
v 0.0290993616316 0.0140020750274 0.0209734233815
v 0.0292692058646 0.0136434797796 0.0213875696664
v 0.0293917018777 0.014142743751 0.0210587929561
v 0.0295632524129 0.0137805459561 0.0214780092747
v 0.02973654071 0.0143086738241 0.0210887707641
v 0.0299101039658 0.013942226535 0.0215097674419
v 0.0441542574178 0.0212462126479 0.0210887707641
v 0.0444119725553 0.0207020939459 0.0215097674419
v 0.0444990962501 0.021412142721 0.0210587929561
v 0.0447588241083 0.0208637745249 0.0214780092747
v 0.0447914364962 0.0215528114446 0.0209734233815
v 0.0449867720036 0.0216468032807 0.0208456587843
v 0.0450528706565 0.0210008407013 0.0213875696664
v 0.0450553647121 0.0216798088244 0.014
v 0.0450553647121 0.0216798088244 0.0206949501661
v 0.0452493462786 0.0210924253924 0.0212522172274
v 0.0453183393422 0.0211245856591 0.014
v 0.0453183393422 0.0211245856591 0.0210925581395
f 3 20 1
f 14 13 12
f 14 24 19
f 15 20 3
f 15 21 20
f 15 13 14
f 2 3 1
f 11 12 13
f 11 13 15
f 11 15 3
f 8 14 12
f 22 24 21
f 22 19 24
f 18 19 22
f 18 22 21
f 16 14 19
f 16 15 14
f 6 8 3
f 6 2 5
f 6 3 2
f 6 14 8
f 6 24 14
f 6 4 23
f 6 23 24
f 6 5 4
f 10 12 11
f 10 8 12
f 17 21 15
f 17 18 21
f 17 19 18
f 17 16 19
f 17 15 16
f 7 3 8
f 7 8 10
f 7 11 3
f 9 10 11
f 9 11 7
f 9 7 10
f 4 20 23
f 4 1 20
f 21 23 20
f 21 24 23
f 2 1 4
f 2 4 5
