# Parametric PetalDock simulation geometry; SI units
v -0.0171534788234 0.0469654997233 0.014
v -0.0171534788234 0.0469654997233 0.0238758139535
v -0.0171273642069 0.0468939990074 0.0240981263288
v -0.0170529960709 0.0466903821955 0.0242865936603
v -0.01694169629 0.0463856481015 0.0244125235052
v -0.0168104092469 0.0460261897288 0.024456744186
v -0.0165751278677 0.0471727160144 0.014
v -0.0165751278677 0.0471727160144 0.0242734219269
v -0.016549893738 0.0471008998304 0.0245046847719
v -0.0164780330166 0.0468963846417 0.0247007399452
v -0.0163704858468 0.0465903060316 0.0248317398238
v -0.0162436253103 0.0462292616941 0.0248777408638
v -0.0113212960234 0.0309972298173 0.024456744186
v -0.0111900089804 0.0306377714446 0.0244125235052
v -0.0110787091995 0.0303330373506 0.0242865936603
v -0.0110043410635 0.0301294205388 0.0240981263288
v -0.010978226447 0.0300579198229 0.014
v -0.010978226447 0.0300579198229 0.0238758139535
v -0.0109395843927 0.0311339925695 0.0248777408638
v -0.0108127238562 0.0307729482319 0.0248317398238
v -0.0107051766864 0.0304668696219 0.0247007399452
v -0.0106333159649 0.0302623544331 0.0245046847719
v -0.0106080818353 0.0301905382492 0.014
v -0.0106080818353 0.0301905382492 0.0242734219269
f 12 23 7
f 9 12 7
f 9 7 8
f 5 12 11
f 10 11 12
f 10 12 9
f 22 23 12
f 2 9 8
f 24 23 22
f 19 22 12
f 20 15 21
f 20 19 13
f 20 21 22
f 20 22 19
f 14 13 5
f 14 15 20
f 14 20 13
f 3 2 1
f 3 10 9
f 3 9 2
f 18 15 14
f 18 14 17
f 18 24 22
f 6 5 13
f 6 13 19
f 6 12 5
f 6 19 12
f 4 10 3
f 4 5 11
f 4 11 10
f 4 14 5
f 4 17 14
f 4 1 17
f 4 3 1
f 16 15 18
f 16 18 22
f 16 21 15
f 16 22 21
f 17 7 23
f 17 1 7
f 2 7 1
f 2 8 7
f 18 17 23
f 18 23 24
