# Parametric PetalDock simulation geometry; SI units
v 0.0009828148565 0.0319849038604 0.014
v 0.0009828148565 0.0319849038604 0.0309873558423
v 0.0009851527417 0.0320609884177 0.0313697546447
v 0.0009918104755 0.0322776589055 0.0316939366958
v 0.0010017744782 0.0326019292062 0.0319105482172
v 0.0010135278208 0.032984432106 0.0319866120683
v 0.0013757330651 0.0319704137998 0.014
v 0.0013757330651 0.0319704137998 0.0309530814185
v 0.0013790056103 0.0320464638887 0.0313347086766
v 0.0013883250303 0.0322630362187 0.031658236644
v 0.0014022725281 0.0325871596159 0.0318744111206
v 0.0014187247234 0.0329694892311 0.031950321502
v 0.001504935249 0.0489768840362 0.0319866120683
v 0.0015166885916 0.049359386936 0.0319105482172
v 0.0015266525943 0.0496836572367 0.0316939366958
v 0.0015333103281 0.0499003277245 0.0313697546447
v 0.0015356482133 0.0499764122818 0.014
v 0.0015356482133 0.0499764122818 0.0309873558423
v 0.002106591256 0.048954696131 0.031950321502
v 0.0021230434514 0.0493370257462 0.0318744111206
v 0.0021369909491 0.0496611491434 0.031658236644
v 0.0021463103692 0.0498777214734 0.0313347086766
v 0.0021495829143 0.0499537715623 0.014
v 0.0021495829143 0.0499537715623 0.0309530814185
f 15 17 1
f 2 15 1
f 18 17 15
f 12 19 6
f 13 6 19
f 3 2 8
f 5 12 6
f 5 3 4
f 5 13 3
f 5 6 13
f 10 5 4
f 16 18 15
f 14 15 13
f 14 21 15
f 9 3 8
f 9 8 7
f 9 4 3
f 9 10 4
f 9 7 23
f 20 9 23
f 20 21 14
f 20 13 19
f 20 14 13
f 22 20 23
f 22 21 20
f 22 15 21
f 22 16 15
f 11 9 20
f 11 10 9
f 11 19 12
f 11 20 19
f 11 12 5
f 11 5 10
f 24 22 23
f 24 18 16
f 24 16 22
f 7 17 23
f 7 1 17
f 2 1 7
f 2 7 8
f 3 13 15
f 3 15 2
f 24 23 17
f 24 17 18
