# Parametric PetalDock simulation geometry; SI units
v 0.0052837267579 -0.0315607704524 0.014
v 0.0052837267579 -0.0315607704524 0.0294168968142
v 0.0052962955001 -0.0316358460962 0.029763943343
v 0.0053320882496 -0.0318496434413 0.0300581551838
v 0.0053856558849 -0.0321696137801 0.0302547412508
v 0.005448843219 -0.032547044529 0.0303237730974
v 0.0056711090632 -0.0314934679258 0.014
v 0.0056711090632 -0.0314934679258 0.0291439343171
v 0.0056845992967 -0.0315683834727 0.0294848362444
v 0.0057230162315 -0.0317817249006 0.0297738389436
v 0.0057805112376 -0.0321010129109 0.0299669443734
v 0.0058483312214 -0.0324776387985 0.0300347539828
v 0.008090706598 -0.0483274297552 0.0303237730974
v 0.0081538939321 -0.0487048605041 0.0302547412508
v 0.0082074615673 -0.0490248308429 0.0300581551838
v 0.0082432543169 -0.0492386281881 0.029763943343
v 0.0082558230591 -0.0493137038319 0.014
v 0.0082558230591 -0.0493137038319 0.0294168968142
v 0.008683885753 -0.0482243727614 0.0300347539828
v 0.0087517057368 -0.048600998649 0.0299669443734
v 0.0088092007428 -0.0489202866593 0.0297738389436
v 0.0088476176777 -0.0491336280872 0.0294848362444
v 0.0088611079112 -0.0492085436341 0.014
v 0.0088611079112 -0.0492085436341 0.0291439343171
f 18 16 15
f 4 2 1
f 4 1 17
f 4 17 18
f 4 15 6
f 4 18 15
f 22 23 7
f 22 7 8
f 22 15 16
f 22 21 15
f 13 6 15
f 3 8 2
f 3 2 4
f 24 23 22
f 24 16 18
f 24 22 16
f 14 15 21
f 14 13 15
f 5 4 6
f 5 6 12
f 10 4 5
f 19 22 8
f 19 6 13
f 19 12 6
f 9 8 3
f 9 3 4
f 9 4 10
f 11 5 12
f 11 10 5
f 11 9 10
f 11 8 9
f 20 21 22
f 20 22 19
f 20 14 21
f 20 13 14
f 20 19 13
f 7 23 17
f 7 17 1
f 2 7 1
f 2 8 7
f 24 17 23
f 24 18 17
f 11 12 19
f 11 19 8
