# Parametric PetalDock simulation geometry; SI units
v -0.0442257923366 -0.0233255073299 0.014
v -0.0442257923366 -0.0233255073299 0.0195021262458
v -0.0441584625769 -0.0232899963594 0.0196259834551
v -0.0439667236432 -0.0231888696714 0.019730984527
v -0.0439358578746 -0.0238671404409 0.014
v -0.0439358578746 -0.0238671404409 0.0191045182724
v -0.0438689695137 -0.0238308048832 0.019219425012
v -0.0436797660501 -0.0230375228874 0.0198011440002
v -0.0436784875779 -0.0237273299692 0.0193168382421
v -0.043393411215 -0.0235724688166 0.0193819276816
v -0.0433412764899 -0.0228589971833 0.0198257807309
v -0.0430571407171 -0.0233897976321 0.0194047840532
v -0.0291890229422 -0.0153948348377 0.0198257807309
v -0.0289976661972 -0.015752312691 0.0194047840532
v -0.028850533382 -0.0152163091336 0.0198011440002
v -0.0286613956993 -0.0155696415065 0.0193819276816
v -0.0285635757889 -0.0150649623496 0.019730984527
v -0.0283763193364 -0.0154147803539 0.0193168382421
v -0.0283718368552 -0.0149638356616 0.0196259834551
v -0.0283045070955 -0.0149283246911 0.014
v -0.0283045070955 -0.0149283246911 0.0195021262458
v -0.0281858374005 -0.01531130544 0.019219425012
v -0.0281189490397 -0.0152749698822 0.014
v -0.0281189490397 -0.0152749698822 0.0191045182724
f 7 5 23
f 13 11 12
f 6 5 7
f 3 1 2
f 3 2 6
f 3 6 7
f 3 20 1
f 3 21 20
f 10 12 11
f 22 7 23
f 22 17 18
f 15 17 21
f 15 21 13
f 15 18 17
f 8 10 11
f 8 11 13
f 24 22 23
f 19 21 17
f 19 17 22
f 19 24 21
f 19 22 24
f 14 15 13
f 14 13 12
f 14 12 10
f 14 10 7
f 14 7 22
f 4 8 13
f 4 13 21
f 4 21 3
f 4 3 7
f 16 18 15
f 16 15 14
f 16 22 18
f 16 14 22
f 9 10 8
f 9 8 4
f 9 7 10
f 9 4 7
f 20 23 5
f 20 5 1
f 6 1 5
f 6 2 1
f 24 23 20
f 24 20 21
