# Parametric PetalDock simulation geometry; SI units
v 0.0255697747692 -0.0192402343607 0.014
v 0.0255697747692 -0.0192402343607 0.0150849457879
v 0.0256305992444 -0.0192860023493 0.0151093687749
v 0.0258038126953 -0.0194163385536 0.0151300735835
v 0.0258042456974 -0.0189246110657 0.014
v 0.0258042456974 -0.0189246110657 0.0153127844034
v 0.0258656279238 -0.0189696282607 0.0153423362176
v 0.0260404297156 -0.019097826386 0.015367389036
v 0.026063044944 -0.0196114004681 0.0151439080943
v 0.0263020390844 -0.019289688439 0.0153841287941
v 0.0263688302307 -0.0198414916845 0.0151487661284
v 0.0266106283755 -0.0195160051615 0.0153900070154
v 0.0391537176153 -0.0294616088648 0.0151487661284
v 0.0394595029019 -0.0296917000812 0.0151439080943
v 0.0395127512242 -0.0289783106943 0.0153900070154
v 0.0397187351507 -0.0298867619957 0.0151300735835
v 0.0398213405152 -0.0292046274168 0.0153841287941
v 0.0398919486015 -0.0300170982 0.0151093687749
v 0.0399527730768 -0.0300628661886 0.014
v 0.0399527730768 -0.0300628661886 0.0150849457879
v 0.040082949884 -0.0293964894698 0.015367389036
v 0.0402577516758 -0.0295246875951 0.0153423362176
v 0.0403191339022 -0.0295697047901 0.014
v 0.0403191339022 -0.0295697047901 0.0153127844034
f 5 12 23
f 3 1 19
f 2 1 3
f 10 11 12
f 9 11 10
f 15 24 23
f 15 23 12
f 13 12 11
f 13 15 12
f 7 6 2
f 7 2 3
f 7 5 6
f 18 21 16
f 4 3 9
f 4 9 10
f 17 16 21
f 17 21 15
f 22 20 24
f 22 18 20
f 22 21 18
f 22 15 21
f 22 24 15
f 14 20 18
f 14 18 16
f 14 9 3
f 14 19 20
f 14 3 19
f 14 16 17
f 14 11 9
f 14 13 11
f 14 15 13
f 14 17 15
f 8 4 10
f 8 10 12
f 8 7 3
f 8 3 4
f 8 12 5
f 8 5 7
f 5 23 19
f 5 19 1
f 2 5 1
f 2 6 5
f 20 19 23
f 20 23 24
