# Parametric PetalDock simulation geometry; SI units
v -0.0159942745422 -0.047372810576 0.014
v -0.0159942745422 -0.047372810576 0.0246710299003
v -0.0159699247091 -0.0473006897663 0.024911243215
v -0.0159005822511 -0.0470953070765 0.02511488623
v -0.0157968039289 -0.0467879301595 0.0252509561424
v -0.0156743890513 -0.0464253543645 0.0252987375415
v -0.0154110065392 -0.0475657531996 0.014
v -0.0154110065392 -0.0475657531996 0.0250686378738
v -0.0153875446788 -0.0474933386522 0.0253178016581
v -0.015320730953 -0.0472871194684 0.0255290325149
v -0.015220737146 -0.0469784906496 0.0256701724611
v -0.0151027864084 -0.0466144381356 0.0257197342193
v -0.0105562211978 -0.0312660549802 0.0252987375415
v -0.0104338063202 -0.0309034791851 0.0252509561424
v -0.0103300279981 -0.0305961022681 0.02511488623
v -0.0102606855401 -0.0303907195784 0.024911243215
v -0.010236335707 -0.0303185987686 0.014
v -0.010236335707 -0.0303185987686 0.0246710299003
v -0.0101712643159 -0.0313933971118 0.0257197342193
v -0.0100533135783 -0.0310293445978 0.0256701724611
v -0.0099533197713 -0.030720715779 0.0255290325149
v -0.0098865060455 -0.0305144965952 0.0253178016581
v -0.0098630441851 -0.0304420820478 0.014
v -0.0098630441851 -0.0304420820478 0.0250686378738
f 8 7 12
f 17 1 15
f 9 8 10
f 11 8 12
f 11 10 8
f 22 7 23
f 22 12 7
f 5 11 12
f 24 22 23
f 20 21 15
f 20 22 21
f 20 12 22
f 20 19 12
f 6 12 19
f 6 5 12
f 6 15 5
f 4 10 11
f 4 11 5
f 4 5 15
f 18 17 15
f 18 22 24
f 13 15 6
f 13 6 19
f 13 19 20
f 3 9 10
f 3 10 4
f 3 4 15
f 16 18 15
f 16 22 18
f 16 15 21
f 16 21 22
f 14 20 15
f 14 15 13
f 14 13 20
f 2 8 9
f 2 9 3
f 2 15 1
f 2 3 15
f 17 23 7
f 17 7 1
f 18 23 17
f 18 24 23
f 2 1 7
f 2 7 8
