# Parametric PetalDock simulation geometry; SI units
v 0.0318256334862 0.0033360235613 0.014
v 0.0318256334862 0.0033360235613 0.0304562255634
v 0.03186422019 0.0029447362668 0.014
v 0.03186422019 0.0029447362668 0.0305989945659
v 0.0319013391768 0.0033439591761 0.0308266682035
v 0.0319400176693 0.0029517411012 0.0309726510491
v 0.0321169307435 0.003366557895 0.0311407143098
v 0.032155870628 0.0029716891819 0.0312894217199
v 0.0324395863245 0.003400379268 0.0313505532093
v 0.03247891741 0.0030015435945 0.0315010811153
v 0.0328201845327 0.0034402742976 0.0314242388318
v 0.032859977071 0.0030367592751 0.031575406011
v 0.0487330012758 0.0051082860782 0.0314242388318
v 0.048792087166 0.0045091274085 0.031575406011
v 0.0491135994839 0.0051481811078 0.0313505532093
v 0.049173146827 0.0045443430892 0.0315010811153
v 0.0494362550649 0.0051820024808 0.0311407143098
v 0.0494961936089 0.0045741975018 0.0312894217199
v 0.0496518466316 0.0052046011998 0.0308266682035
v 0.0497120465676 0.0045941455825 0.0309726510491
v 0.0497275523222 0.0052125368145 0.014
v 0.0497275523222 0.0052125368145 0.0304562255634
v 0.0497878440469 0.0046011504169 0.014
v 0.0497878440469 0.0046011504169 0.0305989945659
f 19 21 1
f 14 3 23
f 14 12 3
f 5 19 1
f 5 11 19
f 5 1 2
f 22 21 19
f 20 19 18
f 20 24 22
f 20 22 19
f 13 11 12
f 13 12 14
f 16 23 24
f 16 14 23
f 16 24 20
f 16 20 18
f 9 11 5
f 6 2 4
f 6 5 2
f 6 4 3
f 6 3 12
f 15 13 14
f 15 14 16
f 15 19 11
f 15 11 13
f 8 6 12
f 8 5 6
f 17 16 18
f 17 15 16
f 17 18 19
f 17 19 15
f 10 8 12
f 10 12 11
f 10 11 9
f 7 9 5
f 7 5 8
f 7 10 9
f 7 8 10
f 3 21 23
f 3 1 21
f 2 1 3
f 2 3 4
f 22 23 21
f 22 24 23
