# Parametric PetalDock simulation geometry; SI units
v 0.0273345549817 -0.0166379717499 0.014
v 0.0273345549817 -0.0166379717499 0.0175152243529
v 0.0273995774537 -0.0166775495683 0.0175943548306
v 0.0275369191913 -0.0163008613715 0.014
v 0.0275369191913 -0.0163008613715 0.0179116943522
v 0.0275847457878 -0.0167902576593 0.0176614384104
v 0.0276024230401 -0.0163396372836 0.0179997496828
v 0.0277889622194 -0.0164500617389 0.0180743993876
v 0.0278618697836 -0.0169589372378 0.0177062622254
v 0.02806813783 -0.016615323615 0.0181242787257
v 0.0281887598249 -0.0171579083671 0.017722002256
v 0.028397447916 -0.0168102632893 0.0181417940199
v 0.0418560373158 -0.025476894242 0.017722002256
v 0.0421659075117 -0.0249606939751 0.0181417940199
v 0.0421829273571 -0.0256758653713 0.0177062622254
v 0.0424600513529 -0.0258445449498 0.0176614384104
v 0.0424952175977 -0.0251556336495 0.0181242787257
v 0.042645219687 -0.0259572530409 0.0175943548306
v 0.042710242159 -0.0259968308592 0.014
v 0.042710242159 -0.0259968308592 0.0175152243529
v 0.0427743932083 -0.0253208955256 0.0180743993876
v 0.0429609323876 -0.0254313199808 0.0179997496828
v 0.0430264362364 -0.0254700958929 0.014
v 0.0430264362364 -0.0254700958929 0.0179116943522
f 4 12 23
f 24 23 12
f 18 1 19
f 22 21 18
f 3 1 18
f 3 18 11
f 3 2 1
f 20 18 19
f 20 24 22
f 20 22 18
f 14 24 12
f 14 22 24
f 13 12 11
f 13 14 12
f 7 5 2
f 7 2 3
f 7 4 5
f 7 12 4
f 15 11 18
f 15 13 11
f 15 14 13
f 6 3 11
f 6 11 9
f 16 18 21
f 16 15 18
f 17 14 15
f 17 21 22
f 17 22 14
f 17 16 21
f 17 15 16
f 10 6 9
f 10 11 12
f 10 9 11
f 8 6 10
f 8 7 3
f 8 3 6
f 8 12 7
f 8 10 12
f 4 23 19
f 4 19 1
f 2 4 1
f 2 5 4
f 20 19 23
f 20 23 24
