# Parametric PetalDock simulation geometry; SI units
v 0.0045066276769 -0.0316810717461 0.014
v 0.0045066276769 -0.0316810717461 0.0298977250612
v 0.0045173478834 -0.0317564335583 0.0302555954137
v 0.0045478764484 -0.0319710458423 0.0305589832492
v 0.0045935656747 -0.0322922358233 0.0307617005198
v 0.0046474597918 -0.0326711052382 0.0308328853589
v 0.0048955467611 -0.0316233082063 0.014
v 0.0048955467611 -0.0316233082063 0.0296681603956
v 0.0049071921145 -0.0316985326127 0.0300208630661
v 0.0049403552751 -0.0319127535979 0.0303198699523
v 0.0049899874524 -0.0322333579588 0.0305196599663
v 0.0050485325974 -0.0326115365877 0.0305898168894
v 0.0069007736303 -0.0485116411112 0.0308328853589
v 0.0069546677474 -0.0488905105261 0.0307617005198
v 0.0070003569738 -0.0492117005071 0.0305589832492
v 0.0070308855388 -0.049426312791 0.0302555954137
v 0.0070416057452 -0.0495016746033 0.014
v 0.0070416057452 -0.0495016746033 0.0298977250612
v 0.0074963059779 -0.0484231906909 0.0305898168894
v 0.0075548511229 -0.0488013693199 0.0305196599663
v 0.0076044833002 -0.0491219736808 0.0303198699523
v 0.0076376464608 -0.0493361946659 0.0300208630661
v 0.0076492918142 -0.0494114190723 0.014
v 0.0076492918142 -0.0494114190723 0.0296681603956
f 6 1 17
f 14 6 17
f 2 1 6
f 18 14 17
f 13 6 14
f 21 14 15
f 16 15 14
f 16 14 18
f 20 23 7
f 20 13 14
f 20 14 21
f 24 23 20
f 24 20 21
f 24 16 18
f 3 8 2
f 3 2 4
f 5 2 6
f 5 4 2
f 12 20 7
f 12 5 6
f 22 24 21
f 22 16 24
f 22 21 15
f 22 15 16
f 9 7 8
f 9 12 7
f 9 8 3
f 9 3 4
f 19 12 6
f 19 20 12
f 19 6 13
f 19 13 20
f 11 5 12
f 10 12 9
f 10 11 12
f 10 9 4
f 10 4 5
f 10 5 11
f 7 23 17
f 7 17 1
f 2 7 1
f 2 8 7
f 24 17 23
f 24 18 17
