# Parametric PetalDock simulation geometry; SI units
v -0.0499537715623 0.0021495829143 0.014
v -0.0499537715623 0.0021495829143 0.0309530814185
v -0.0499235892535 0.0027631930898 0.014
v -0.0499235892535 0.0027631930898 0.030897108079
v -0.0498777214734 0.0021463103692 0.0313347086766
v -0.0498475851144 0.0027589863789 0.0312774753329
v -0.0496611491434 0.0021369909491 0.031658236644
v -0.0496311436384 0.0027470066795 0.0315999351205
v -0.0493370257462 0.0021230434514 0.0318744111206
v -0.0493072160782 0.0027290777924 0.0318153958621
v -0.048954696131 0.002106591256 0.031950321502
v -0.0489251174684 0.002707929228 0.0318910556131
v -0.0329694892311 0.0014187247234 0.031950321502
v -0.0329495689073 0.0018237074393 0.0318910556131
v -0.0325871596159 0.0014022725281 0.0318744111206
v -0.0325674702975 0.001802558875 0.0318153958621
v -0.0322630362187 0.0013883250303 0.031658236644
v -0.0322435427372 0.0017846299879 0.0315999351205
v -0.0320464638887 0.0013790056103 0.0313347086766
v -0.0320271012613 0.0017726502885 0.0312774753329
v -0.0319704137998 0.0013757330651 0.014
v -0.0319704137998 0.0013757330651 0.0309530814185
v -0.0319510971222 0.0017684435775 0.014
v -0.0319510971222 0.0017684435775 0.030897108079
f 7 2 1
f 7 1 21
f 7 21 22
f 13 12 11
f 13 14 12
f 13 11 7
f 13 7 22
f 9 7 11
f 9 8 7
f 5 4 2
f 5 2 7
f 10 12 14
f 10 8 9
f 10 11 12
f 10 9 11
f 24 23 18
f 17 13 22
f 6 4 5
f 6 3 4
f 6 7 8
f 6 5 7
f 6 8 10
f 6 23 3
f 6 18 23
f 6 10 18
f 16 10 14
f 16 18 10
f 19 22 24
f 19 17 22
f 15 13 17
f 15 14 13
f 15 16 14
f 15 17 18
f 15 18 16
f 20 24 18
f 20 19 24
f 20 18 17
f 20 17 19
f 21 3 23
f 21 1 3
f 4 3 1
f 4 1 2
f 24 21 23
f 24 22 21
