# Parametric PetalDock simulation geometry; SI units
v -0.0499235892535 -0.0027631930898 0.014
v -0.0499235892535 -0.0027631930898 0.030897108079
v -0.0498858699121 -0.0033763861024 0.014
v -0.0498858699121 -0.0033763861024 0.0308194358237
v -0.0498475851144 -0.0027589863789 0.0312774753329
v -0.0498099231973 -0.0033712458606 0.0311980546138
v -0.0496311436384 -0.0027470066795 0.0315999351205
v -0.0495936452519 -0.0033566076905 0.0315190321253
v -0.0493072160782 -0.0027290777924 0.0318153958621
v -0.0492699624324 -0.0033347001208 0.0317335024417
v -0.0489251174684 -0.002707929228 0.0318910556131
v -0.0488881525139 -0.0033088583803 0.0318088144016
v -0.0329495689073 -0.0018237074393 0.0318910556131
v -0.032924674142 -0.0022284148276 0.0318088144016
v -0.0325674702975 -0.001802558875 0.0318153958621
v -0.0325428642235 -0.0022025730871 0.0317335024417
v -0.0322435427372 -0.0017846299879 0.0315999351205
v -0.032219181404 -0.0021806655174 0.0315190321253
v -0.0320271012613 -0.0017726502885 0.0312774753329
v -0.0320029034585 -0.0021660273473 0.0311980546138
v -0.0319510971222 -0.0017684435775 0.014
v -0.0319510971222 -0.0017684435775 0.030897108079
v -0.0319269567437 -0.0021608871055 0.014
v -0.0319269567437 -0.0021608871055 0.0308194358237
f 2 11 1
f 21 1 11
f 14 3 23
f 22 21 11
f 4 3 14
f 7 11 2
f 13 22 11
f 13 11 12
f 13 12 14
f 9 11 7
f 9 7 8
f 5 2 4
f 5 7 2
f 10 14 12
f 10 4 14
f 10 9 8
f 10 12 11
f 10 11 9
f 6 5 4
f 6 10 8
f 6 4 10
f 6 8 7
f 6 7 5
f 19 24 22
f 19 22 13
f 15 19 13
f 15 17 19
f 15 13 14
f 15 18 17
f 20 23 24
f 20 14 23
f 20 18 14
f 20 24 19
f 20 19 17
f 20 17 18
f 16 14 18
f 16 15 14
f 16 18 15
f 21 23 3
f 21 3 1
f 4 1 3
f 4 2 1
f 24 23 21
f 24 21 22
