# Parametric PetalDock simulation geometry; SI units
v -0.0285700645841 0.0410335400576 0.014
v -0.0285700645841 0.0410335400576 0.0158335583816
v -0.0285265692507 0.0409710702126 0.0158748332296
v -0.0284027050206 0.0407931711451 0.0159098243561
v -0.0282173291 0.0405269263755 0.0159332046793
v -0.0280637366936 0.0413814775327 0.014
v -0.0280637366936 0.0413814775327 0.0161264937444
v -0.0280210121985 0.0413184779844 0.0161743627988
v -0.0279986632924 0.0402128692565 0.015941414757
v -0.0278993431302 0.0411390704497 0.0162149442236
v -0.0277172525014 0.0408705680992 0.0162420598647
v -0.0275024619597 0.0405538479821 0.0162515816117
v -0.0188562426255 0.027082136438 0.015941414757
v -0.018637576818 0.026768079319 0.0159332046793
v -0.0185220662178 0.0273117751716 0.0162515816117
v -0.0184522008974 0.0265018345494 0.0159098243561
v -0.0183283366673 0.0263239354819 0.0158748332296
v -0.0183072756761 0.0269950550544 0.0162420598647
v -0.0182848413338 0.0262614656369 0.014
v -0.0182848413338 0.0262614656369 0.0158335583816
v -0.0181251850473 0.026726552704 0.0162149442236
v -0.018003515979 0.0265471451693 0.0161743627988
v -0.0179607914839 0.0264841456209 0.014
v -0.0179607914839 0.0264841456209 0.0161264937444
f 7 12 6
f 10 12 7
f 8 10 7
f 22 12 21
f 22 23 6
f 22 6 12
f 11 12 10
f 11 10 4
f 3 10 8
f 3 4 10
f 3 1 4
f 24 23 22
f 5 11 4
f 5 12 11
f 5 9 12
f 15 12 9
f 2 8 7
f 2 3 8
f 2 1 3
f 20 24 22
f 13 9 5
f 13 15 9
f 17 19 20
f 17 20 22
f 17 21 16
f 17 22 21
f 14 5 4
f 14 13 5
f 14 17 16
f 14 4 1
f 14 1 19
f 14 19 17
f 18 15 13
f 18 13 14
f 18 21 12
f 18 12 15
f 18 16 21
f 18 14 16
f 19 6 23
f 19 1 6
f 2 6 1
f 2 7 6
f 20 19 23
f 20 23 24
