# Parametric PetalDock simulation geometry; SI units
v -0.0259968308592 -0.042710242159 0.014
v -0.0259968308592 -0.042710242159 0.0175152243529
v -0.0259572530409 -0.042645219687 0.0175943548306
v -0.0258445449498 -0.0424600513529 0.0176614384104
v -0.0256758653713 -0.0421829273571 0.0177062622254
v -0.025476894242 -0.0418560373158 0.017722002256
v -0.0254700958929 -0.0430264362364 0.014
v -0.0254700958929 -0.0430264362364 0.0179116943522
v -0.0254313199808 -0.0429609323876 0.0179997496828
v -0.0253208955256 -0.0427743932083 0.0180743993876
v -0.0251556336495 -0.0424952175977 0.0181242787257
v -0.0249606939751 -0.0421659075117 0.0181417940199
v -0.0171579083671 -0.0281887598249 0.017722002256
v -0.0169589372378 -0.0278618697836 0.0177062622254
v -0.0168102632893 -0.028397447916 0.0181417940199
v -0.0167902576593 -0.0275847457878 0.0176614384104
v -0.0166775495683 -0.0273995774537 0.0175943548306
v -0.0166379717499 -0.0273345549817 0.014
v -0.0166379717499 -0.0273345549817 0.0175152243529
v -0.016615323615 -0.02806813783 0.0181242787257
v -0.0164500617389 -0.0277889622194 0.0180743993876
v -0.0163396372836 -0.0276024230401 0.0179997496828
v -0.0163008613715 -0.0275369191913 0.014
v -0.0163008613715 -0.0275369191913 0.0179116943522
f 9 8 12
f 22 23 24
f 11 9 12
f 11 10 9
f 11 4 10
f 3 9 10
f 3 10 4
f 3 18 1
f 19 22 24
f 5 4 11
f 5 3 4
f 5 11 12
f 5 12 6
f 15 6 12
f 15 12 8
f 15 22 21
f 15 8 7
f 15 7 23
f 15 23 22
f 2 8 9
f 2 9 3
f 2 3 1
f 17 22 19
f 17 19 18
f 17 18 3
f 17 16 21
f 17 21 22
f 20 21 16
f 20 15 21
f 14 20 16
f 13 3 5
f 13 17 3
f 13 5 6
f 13 16 17
f 13 14 16
f 13 6 15
f 13 15 20
f 13 20 14
f 18 23 7
f 18 7 1
f 19 23 18
f 19 24 23
f 2 1 7
f 2 7 8
