# Parametric PetalDock simulation geometry; SI units
v 0.0319993961088 -0.0001965926503 0.014
v 0.0319993961088 -0.0001965926503 0.031
v 0.0319993961088 0.0001965926503 0.014
v 0.0319993961088 0.0001965926503 0.031
v 0.0320755151398 -0.0001970602979 0.0313826834324
v 0.0320755151398 0.0001970602979 0.0313826834324
v 0.0322922838003 -0.0001983920457 0.0317071067812
v 0.0322922838003 0.0001983920457 0.0317071067812
v 0.0326167010267 -0.0002003851471 0.0319238795325
v 0.0326167010267 0.0002003851471 0.0319238795325
v 0.0329993772372 -0.0002027361706 0.032
v 0.0329993772372 0.0002027361706 0.032
v 0.0489990752916 -0.0003010324957 0.032
v 0.0489990752916 0.0003010324957 0.032
v 0.0493817515022 -0.0003033835192 0.0319238795325
v 0.0493817515022 0.0003033835192 0.0319238795325
v 0.0497061687286 -0.0003053766206 0.0317071067812
v 0.0497061687286 0.0003053766206 0.0317071067812
v 0.0499229373891 -0.0003067083684 0.0313826834324
v 0.0499229373891 0.0003067083684 0.0313826834324
v 0.04999905642 -0.000307176016 0.014
v 0.04999905642 -0.000307176016 0.031
v 0.04999905642 0.000307176016 0.014
v 0.04999905642 0.000307176016 0.031
f 15 1 21
f 2 1 15
f 2 15 11
f 19 15 21
f 19 21 22
f 13 11 15
f 16 3 4
f 16 12 14
f 16 4 12
f 16 23 3
f 8 12 4
f 17 15 19
f 6 8 4
f 7 11 9
f 7 5 2
f 7 2 11
f 10 12 8
f 20 24 23
f 20 23 16
f 18 20 16
f 3 23 21
f 3 21 1
f 2 3 1
f 2 4 3
f 13 14 12
f 13 12 11
f 16 14 13
f 16 13 15
f 24 21 23
f 24 22 21
f 6 4 2
f 6 2 5
f 7 6 5
f 7 8 6
f 10 11 12
f 10 9 11
f 10 8 7
f 10 7 9
f 20 22 24
f 20 19 22
f 18 16 15
f 18 15 17
f 18 19 20
f 18 17 19
