# Parametric PetalDock simulation geometry; SI units
v -0.0471727160144 0.0165751278677 0.014
v -0.0471727160144 0.0165751278677 0.0242734219269
v -0.0471008998304 0.016549893738 0.0245046847719
v -0.0469654997233 0.0171534788234 0.014
v -0.0469654997233 0.0171534788234 0.0238758139535
v -0.0468963846417 0.0164780330166 0.0247007399452
v -0.0468939990074 0.0171273642069 0.0240981263288
v -0.0466903821955 0.0170529960709 0.0242865936603
v -0.0465903060316 0.0163704858468 0.0248317398238
v -0.0463856481015 0.01694169629 0.0244125235052
v -0.0462292616941 0.0162436253103 0.0248777408638
v -0.0460261897288 0.0168104092469 0.024456744186
v -0.0311339925695 0.0109395843927 0.0248777408638
v -0.0309972298173 0.0113212960234 0.024456744186
v -0.0307729482319 0.0108127238562 0.0248317398238
v -0.0306377714446 0.0111900089804 0.0244125235052
v -0.0304668696219 0.0107051766864 0.0247007399452
v -0.0303330373506 0.0110787091995 0.0242865936603
v -0.0302623544331 0.0106333159649 0.0245046847719
v -0.0301905382492 0.0106080818353 0.014
v -0.0301905382492 0.0106080818353 0.0242734219269
v -0.0301294205388 0.0110043410635 0.0240981263288
v -0.0300579198229 0.010978226447 0.014
v -0.0300579198229 0.010978226447 0.0238758139535
f 20 11 1
f 8 23 4
f 9 6 11
f 9 8 6
f 10 12 14
f 10 8 9
f 10 11 12
f 10 9 11
f 13 12 11
f 13 14 12
f 3 1 11
f 3 11 6
f 3 2 1
f 3 5 2
f 19 21 24
f 19 13 11
f 19 20 21
f 19 11 20
f 15 14 13
f 15 17 18
f 15 19 17
f 15 13 19
f 7 5 3
f 7 4 5
f 7 8 4
f 7 6 8
f 7 3 6
f 16 10 14
f 16 14 15
f 16 15 18
f 16 8 10
f 16 18 24
f 16 24 23
f 16 23 8
f 22 24 18
f 22 19 24
f 22 18 17
f 22 17 19
f 20 4 23
f 20 1 4
f 5 4 1
f 5 1 2
f 24 20 23
f 24 21 20
