# Parametric PetalDock simulation geometry; SI units
v -0.0495844567987 -0.0064328565954 0.014
v -0.0495844567987 -0.0064328565954 0.030105590811
v -0.0495089689581 -0.0064230631543 0.0304681403858
v -0.0495016746033 -0.0070416057452 0.014
v -0.0495016746033 -0.0070416057452 0.0298977250612
v -0.049426312791 -0.0070308855388 0.0302555954137
v -0.0492939977756 -0.0063951737939 0.0307754950744
v -0.0492117005071 -0.0070003569738 0.0305589832492
v -0.0489722706651 -0.0063534344163 0.0309808629115
v -0.0488905105261 -0.0069546677474 0.0307617005198
v -0.0485927676627 -0.0063041994635 0.0310529785058
v -0.0485116411112 -0.0069007736303 0.0308328853589
v -0.0327257414871 -0.0042456853529 0.0310529785058
v -0.0326711052382 -0.0046474597918 0.0308328853589
v -0.0323462384848 -0.0041964504001 0.0309808629115
v -0.0322922358233 -0.0045935656747 0.0307617005198
v -0.0320245113743 -0.0041547110225 0.0307754950744
v -0.0319710458423 -0.0045478764484 0.0305589832492
v -0.0318095401918 -0.0041268216621 0.0304681403858
v -0.0317564335583 -0.0045173478834 0.0302555954137
v -0.0317340523512 -0.004117028221 0.014
v -0.0317340523512 -0.004117028221 0.030105590811
v -0.0316810717461 -0.0045066276769 0.014
v -0.0316810717461 -0.0045066276769 0.0298977250612
f 20 4 23
f 13 11 12
f 8 4 20
f 22 13 17
f 6 5 4
f 6 4 8
f 10 12 11
f 10 8 12
f 24 20 23
f 19 17 20
f 19 22 17
f 19 24 22
f 19 20 24
f 18 20 17
f 18 16 12
f 18 12 8
f 18 8 20
f 15 17 13
f 15 18 17
f 15 16 18
f 14 13 12
f 14 12 16
f 14 15 13
f 14 16 15
f 3 2 5
f 3 5 6
f 3 1 2
f 3 21 1
f 3 22 21
f 3 13 22
f 9 10 11
f 9 8 10
f 9 11 13
f 9 13 3
f 7 8 9
f 7 9 3
f 7 6 8
f 7 3 6
f 21 23 4
f 21 4 1
f 5 1 4
f 5 2 1
f 24 23 21
f 24 21 22
