# Parametric PetalDock simulation geometry; SI units
v -0.0205661732863 0.0455744722006 0.014
v -0.0205661732863 0.0455744722006 0.021490166113
v -0.0205348631518 0.045505089198 0.0216587756704
v -0.0204456994324 0.0453075031234 0.0218017159512
v -0.0203122564962 0.0450117946655 0.0218972255934
v -0.0201548498205 0.0446629827566 0.0219307641196
v -0.0200046560101 0.0458237246186 0.014
v -0.0200046560101 0.0458237246186 0.0218877740864
v -0.0199742007347 0.0457539621518 0.0220653341135
v -0.0198874714483 0.0455552954545 0.0222158622361
v -0.0197576718984 0.0452579697306 0.022316441912
v -0.0196045628899 0.0449072501262 0.0223517607973
v -0.0135736743689 0.0300791516524 0.0219307641196
v -0.0134162676933 0.0297303397434 0.0218972255934
v -0.0132828247571 0.0294346312855 0.0218017159512
v -0.0132030729667 0.0302436582483 0.0223517607973
v -0.0131936610377 0.0292370452109 0.0216587756704
v -0.0131623509032 0.0291676622084 0.014
v -0.0131623509032 0.0291676622084 0.021490166113
v -0.0130499639582 0.0298929386438 0.022316441912
v -0.0129201644083 0.0295956129199 0.0222158622361
v -0.0128334351218 0.0293969462227 0.0220653341135
v -0.0128029798465 0.0293271837559 0.014
v -0.0128029798465 0.0293271837559 0.0218877740864
f 18 15 1
f 9 23 7
f 9 7 8
f 11 12 9
f 11 9 10
f 11 10 4
f 22 23 9
f 3 10 9
f 3 4 10
f 3 1 15
f 24 23 22
f 24 22 19
f 17 19 22
f 17 18 19
f 17 15 18
f 17 21 15
f 17 22 21
f 5 11 4
f 5 12 11
f 5 6 12
f 5 3 15
f 5 4 3
f 2 9 8
f 2 3 9
f 2 1 3
f 14 5 15
f 14 6 5
f 14 13 6
f 16 6 13
f 16 12 6
f 16 21 22
f 16 9 12
f 16 22 9
f 20 13 14
f 20 16 13
f 20 21 16
f 20 15 21
f 20 14 15
f 18 7 23
f 18 1 7
f 24 18 23
f 24 19 18
f 2 7 1
f 2 8 7
