# https://github.com/mikedh/trimesh
v 0.00000000 0.00600000 0.01400000
v 0.00000000 0.00600000 0.02320000
v 0.00000000 0.02050000 0.02320000
v 0.00000000 0.02088823 0.02314889
v 0.00000000 0.02125000 0.02299904
v 0.00000000 0.02156066 0.02276066
v 0.00000000 0.02179904 0.02245000
v 0.00000000 0.02194889 0.02208823
v 0.00000000 0.02200000 0.01400000
v 0.00000000 0.02200000 0.02170000
v 0.00155291 0.00579555 0.01400000
v 0.00155291 0.00579555 0.02320000
v 0.00530579 0.01980148 0.02320000
v 0.00540627 0.02017648 0.02314889
v 0.00549990 0.02052592 0.02299904
v 0.00558031 0.02082600 0.02276066
v 0.00564201 0.02105625 0.02245000
v 0.00568079 0.02120100 0.02208823
v 0.00569402 0.02125037 0.01400000
v 0.00569402 0.02125037 0.02170000
f 1 9 11
f 11 9 19
f 12 2 1
f 1 11 12
f 19 9 20
f 9 10 20
f 13 3 2
f 2 12 13
f 13 4 3
f 14 4 13
f 1 2 6
f 6 9 1
f 6 10 9
f 2 3 6
f 6 8 10
f 6 4 5
f 7 8 6
f 3 4 6
f 5 4 15
f 15 4 14
f 15 6 5
f 16 6 15
f 7 6 17
f 17 6 16
f 18 11 19
f 18 12 11
f 19 20 18
f 18 15 14
f 18 13 12
f 14 13 18
f 16 15 18
f 18 17 16
f 18 20 10
f 10 8 18
f 18 8 7
f 7 17 18

