# Parametric PetalDock simulation geometry; SI units
v -0.0449337232847 0.0219308119269 0.014
v -0.0449337232847 0.0219308119269 0.0206837606838
v -0.0448653157642 0.0218974242538 0.0208342174179
v -0.0446705076278 0.021802344205 0.0209617684781
v -0.0446612150598 0.0224805664827 0.014
v -0.0446612150598 0.0224805664827 0.0203205128205
v -0.0445932224084 0.0224463418581 0.0204627925582
v -0.0443995957191 0.0223488783732 0.0205834114956
v -0.0443789566481 0.021660046856 0.0210469953718
v -0.0441098129 0.0222030139599 0.0206640064929
v -0.044035048819 0.0214921956884 0.0210769230769
v -0.0437679907586 0.0220309551531 0.0206923076923
v -0.0296562573679 0.0144743358718 0.0210769230769
v -0.0294764019395 0.0148371738786 0.0206923076923
v -0.0293123495388 0.0143064847041 0.0210469953718
v -0.029134579798 0.0146651150717 0.0206640064929
v -0.0290207985591 0.0141641873552 0.0209617684781
v -0.028844796979 0.0145192506585 0.0205834114956
v -0.0288259904227 0.0140691073064 0.0208342174179
v -0.0287575829022 0.0140357196332 0.014
v -0.0287575829022 0.0140357196332 0.0206837606838
v -0.0286511702896 0.0144217871735 0.0204627925582
v -0.0285831776383 0.0143875625489 0.014
v -0.0285831776383 0.0143875625489 0.0203205128205
f 8 23 5
f 13 12 11
f 6 8 5
f 10 12 8
f 10 11 12
f 22 18 17
f 22 23 18
f 14 18 12
f 14 12 13
f 15 13 11
f 15 14 13
f 15 17 18
f 3 6 2
f 3 2 4
f 9 11 10
f 9 15 11
f 9 8 4
f 9 10 8
f 9 4 2
f 9 21 15
f 9 1 20
f 9 2 1
f 9 20 21
f 19 22 17
f 19 17 15
f 19 15 21
f 24 23 22
f 24 19 21
f 24 22 19
f 16 18 14
f 16 15 18
f 16 14 15
f 7 8 6
f 7 6 3
f 7 4 8
f 7 3 4
f 20 5 23
f 20 1 5
f 18 8 12
f 18 23 8
f 6 5 1
f 6 1 2
f 24 20 23
f 24 21 20
