# Parametric PetalDock simulation geometry; SI units
v -0.0267498809944 0.0422426782625 0.014
v -0.0267498809944 0.0422426782625 0.0174145299145
v -0.0267091567254 0.0421783676141 0.0174913936809
v -0.0265931838194 0.0419952263823 0.0175565556355
v -0.0264196181 0.0417211361594 0.0176000954617
v -0.0262294841339 0.0425677596553 0.014
v -0.0262294841339 0.0425677596553 0.0177777777778
v -0.0262148833745 0.0413978246972 0.0176153846154
v -0.026189552122 0.0425029541 0.0178628185405
v -0.0260758353732 0.0423184034924 0.017934912618
v -0.0259056462316 0.0420422039896 0.0179830843406
v -0.0257048944512 0.0417164044622 0.018
v -0.0176549214563 0.0278801676532 0.0176153846154
v -0.0174501867308 0.027556856191 0.0176000954617
v -0.0173114595284 0.0280947213725 0.018
v -0.0172766210113 0.0272827659681 0.0175565556355
v -0.0171606481053 0.0270996247363 0.0174913936809
v -0.0171199238364 0.027035314088 0.014
v -0.0171199238364 0.027035314088 0.0174145299145
v -0.017110707748 0.027768921845 0.0179830843406
v -0.0169405186064 0.0274927223422 0.017934912618
v -0.0168268018576 0.0273081717347 0.0178628185405
v -0.0167868698457 0.0272433661794 0.014
v -0.0167868698457 0.0272433661794 0.0177777777778
f 12 23 6
f 9 12 6
f 9 6 7
f 9 10 12
f 24 23 12
f 11 12 10
f 11 10 4
f 3 10 9
f 3 4 10
f 5 11 4
f 5 12 11
f 5 8 12
f 13 8 5
f 13 1 18
f 13 5 1
f 2 9 7
f 2 3 9
f 2 1 5
f 2 4 3
f 2 5 4
f 22 19 24
f 14 18 19
f 14 13 18
f 15 8 13
f 15 12 8
f 17 16 14
f 17 14 19
f 17 19 22
f 17 21 16
f 17 22 21
f 20 13 14
f 20 15 13
f 20 16 21
f 20 14 16
f 20 21 22
f 20 22 24
f 20 24 12
f 20 12 15
f 18 6 23
f 18 1 6
f 19 18 23
f 19 23 24
f 2 6 1
f 2 7 6
