# Parametric PetalDock simulation geometry; SI units
v 0.0318459112535 0.0031365484905 0.014
v 0.0318459112535 0.0031365484905 0.0308602892834
v 0.0318820035898 0.002745513995 0.014
v 0.0318820035898 0.002745513995 0.0309650723208
v 0.0319216651801 0.0031440096011 0.0312398277171
v 0.0319578433717 0.0027520449265 0.0313469695036
v 0.0321373941114 0.0031652570463 0.0315615848648
v 0.0321738167978 0.002770643446 0.0316707263021
v 0.0324602552731 0.0031970560952 0.0317765761175
v 0.0324970438719 0.0027984780974 0.0318870536788
v 0.0328410959802 0.0032345656309 0.0318520710059
v 0.032878316202 0.0028313113074 0.0319630177515
v 0.0487640516069 0.0048028398761 0.0318520710059
v 0.048819317997 0.0042040683049 0.0319630177515
v 0.049144892314 0.0048403494118 0.0317765761175
v 0.0492005903271 0.0042369015149 0.0318870536788
v 0.0494677534757 0.0048721484607 0.0315615848648
v 0.0495238174012 0.0042647361662 0.0316707263021
v 0.049683482407 0.0048933959059 0.0312398277171
v 0.0497397908273 0.0042833346857 0.0313469695036
v 0.0497592363336 0.0049008570165 0.014
v 0.0497592363336 0.0049008570165 0.0308602892834
v 0.0498156306091 0.0042898656172 0.014
v 0.0498156306091 0.0042898656172 0.0309650723208
f 24 18 23
f 7 21 1
f 10 12 11
f 22 21 7
f 22 7 11
f 14 12 10
f 14 10 18
f 5 1 2
f 5 7 1
f 9 11 7
f 9 10 11
f 9 7 10
f 13 22 11
f 13 11 12
f 13 12 14
f 19 17 18
f 19 22 17
f 16 18 17
f 16 14 18
f 6 2 4
f 6 5 2
f 6 18 10
f 6 4 3
f 6 3 23
f 6 23 18
f 15 17 22
f 15 22 13
f 15 16 17
f 15 13 14
f 15 14 16
f 20 24 22
f 20 22 19
f 20 18 24
f 20 19 18
f 8 10 7
f 8 6 10
f 8 7 5
f 8 5 6
f 3 21 23
f 3 1 21
f 2 1 3
f 2 3 4
f 22 23 21
f 22 24 23
