# Parametric PetalDock simulation geometry; SI units
v -0.0185658596976 0.0464253040237 0.014
v -0.0185658596976 0.0464253040237 0.0228632478632
v -0.0185375948592 0.0463546257067 0.0230627665758
v -0.0184571034095 0.0461533508891 0.0232319103731
v -0.0183366394419 0.045852121837 0.0233449286452
v -0.0181945425036 0.0454967979432 0.0233846153846
v -0.0179947518267 0.0466496399417 0.014
v -0.0179947518267 0.0466496399417 0.0232264957265
v -0.0179673564483 0.0465786200937 0.0234341914355
v -0.0178893410111 0.0463763726778 0.0236102673556
v -0.0177725826581 0.0460736880295 0.0237279175241
v -0.0176348567902 0.0457166471429 0.0237692307692
v -0.0122534674004 0.0306407006556 0.0233846153846
v -0.0121113704621 0.0302853767618 0.0233449286452
v -0.0119909064946 0.0299841477097 0.0232319103731
v -0.0119104150448 0.0297828728921 0.0230627665758
v -0.0118821502065 0.0297121945751 0.014
v -0.0118821502065 0.0297121945751 0.0228632478632
v -0.0118765362057 0.0307887623615 0.0237692307692
v -0.0117388103378 0.0304317214749 0.0237279175241
v -0.0116220519848 0.0301290368267 0.0236102673556
v -0.0115440365475 0.0299267894107 0.0234341914355
v -0.0115166411691 0.0298557695627 0.014
v -0.0115166411691 0.0298557695627 0.0232264957265
f 9 12 8
f 9 10 12
f 4 1 17
f 22 8 12
f 22 12 21
f 22 23 7
f 22 7 8
f 22 24 23
f 11 12 10
f 11 10 4
f 3 10 9
f 3 4 10
f 3 1 4
f 18 15 4
f 18 4 17
f 18 24 22
f 13 4 15
f 5 11 4
f 5 4 13
f 5 13 6
f 5 12 11
f 5 6 12
f 2 9 8
f 2 3 9
f 2 1 3
f 16 15 18
f 16 18 22
f 16 21 15
f 16 22 21
f 19 12 6
f 19 6 13
f 20 15 21
f 20 19 13
f 20 21 12
f 20 12 19
f 14 13 15
f 14 15 20
f 14 20 13
f 17 7 23
f 17 1 7
f 18 17 23
f 18 23 24
f 2 7 1
f 2 8 7
