# Parametric PetalDock simulation geometry; SI units
v 0.007011239685 -0.0312224681612 0.014
v 0.007011239685 -0.0312224681612 0.0275854700855
v 0.0070279177738 -0.0312967390635 0.0278912897515
v 0.0070754129525 -0.0315082446987 0.0281505511456
v 0.0071464945106 -0.0318247852512 0.0283237840709
v 0.0072303409252 -0.0321981702913 0.0283846153846
v 0.007393859465 -0.0311340784706 0.014
v 0.007393859465 -0.0311340784706 0.0272222222222
v 0.0074114477162 -0.0312081391146 0.0275198648918
v 0.007461534818 -0.0314190459849 0.0277721941631
v 0.0075364954633 -0.0317346904224 0.027940795192
v 0.0076249175733 -0.0321070184228 0.028
v 0.0107359607677 -0.0478094043719 0.0283846153846
v 0.0108198071823 -0.048182789412 0.0283237840709
v 0.0108908887404 -0.0484993299645 0.0281505511456
v 0.010938383919 -0.0487108355997 0.0278912897515
v 0.0109550620078 -0.0487851065019 0.014
v 0.0109550620078 -0.0487851065019 0.0275854700855
v 0.0113218473058 -0.0476740576581 0.028
v 0.0114102694157 -0.0480463856585 0.027940795192
v 0.011485230061 -0.048362030096 0.0277721941631
v 0.0115353171628 -0.0485729369663 0.0275198648918
v 0.011552905414 -0.0486469976103 0.014
v 0.011552905414 -0.0486469976103 0.0272222222222
f 14 15 21
f 19 23 7
f 19 21 23
f 16 15 14
f 16 14 18
f 16 18 24
f 3 8 2
f 3 1 17
f 3 2 1
f 3 17 18
f 3 18 14
f 3 14 6
f 3 6 4
f 5 4 6
f 22 24 23
f 22 23 21
f 22 16 24
f 22 21 15
f 22 15 16
f 12 7 8
f 12 19 7
f 12 6 19
f 12 5 6
f 13 6 14
f 13 19 6
f 20 14 21
f 20 21 19
f 20 13 14
f 20 19 13
f 10 4 5
f 9 12 8
f 9 8 3
f 9 3 4
f 9 4 10
f 11 12 9
f 11 9 10
f 11 5 12
f 11 10 5
f 7 23 17
f 7 17 1
f 2 7 1
f 2 8 7
f 24 17 23
f 24 18 17
