# Parametric PetalDock simulation geometry; SI units
v 0.0140357196332 0.0287575829022 0.014
v 0.0140357196332 0.0287575829022 0.0206837606838
v 0.0140691073064 0.0288259904227 0.0208342174179
v 0.0141641873552 0.0290207985591 0.0209617684781
v 0.0143064847041 0.0293123495388 0.0210469953718
v 0.0143875625489 0.0285831776383 0.014
v 0.0143875625489 0.0285831776383 0.0203205128205
v 0.0144217871735 0.0286511702896 0.0204627925582
v 0.0144743358718 0.0296562573679 0.0210769230769
v 0.0145192506585 0.028844796979 0.0205834114956
v 0.0146651150717 0.029134579798 0.0206640064929
v 0.0148371738786 0.0294764019395 0.0206923076923
v 0.0214921956884 0.044035048819 0.0210769230769
v 0.021660046856 0.0443789566481 0.0210469953718
v 0.021802344205 0.0446705076278 0.0209617684781
v 0.0218974242538 0.0448653157642 0.0208342174179
v 0.0219308119269 0.0449337232847 0.014
v 0.0219308119269 0.0449337232847 0.0206837606838
v 0.0220309551531 0.0437679907586 0.0206923076923
v 0.0222030139599 0.0441098129 0.0206640064929
v 0.0223488783732 0.0443995957191 0.0205834114956
v 0.0224463418581 0.0445932224084 0.0204627925582
v 0.0224805664827 0.0446612150598 0.014
v 0.0224805664827 0.0446612150598 0.0203205128205
f 14 17 1
f 2 14 1
f 18 17 14
f 12 19 9
f 13 9 19
f 21 6 23
f 3 2 7
f 5 12 9
f 5 3 4
f 5 2 3
f 5 14 2
f 5 9 13
f 5 13 14
f 10 5 4
f 10 19 12
f 24 21 23
f 15 18 14
f 15 14 21
f 20 19 21
f 20 21 14
f 20 14 13
f 20 13 19
f 8 3 7
f 8 7 6
f 8 6 10
f 8 4 3
f 8 10 4
f 11 12 5
f 11 10 12
f 11 5 10
f 16 24 18
f 16 18 15
f 22 21 24
f 22 24 16
f 22 15 21
f 22 16 15
f 6 17 23
f 6 1 17
f 2 1 6
f 2 6 7
f 10 6 21
f 10 21 19
f 24 23 17
f 24 17 18
