# Parametric PetalDock simulation geometry; SI units
v 0.0177782474566 -0.0266070275937 0.014
v 0.0177782474566 -0.0266070275937 0.016688034188
v 0.0178205377225 -0.0266703194493 0.0167485439615
v 0.0179409702105 -0.0268505594048 0.0167998416705
v 0.0181034179451 -0.0263868576891 0.014
v 0.0181034179451 -0.0263868576891 0.0163247863248
v 0.018121210166 -0.0271203075608 0.0168341177039
v 0.018146481715 -0.0264496258123 0.0163771191019
v 0.0182691169561 -0.0266283743042 0.016421484688
v 0.0183338176896 -0.027438497206 0.0168461538462
v 0.0184526535647 -0.0268958903272 0.016451128825
v 0.0186691497559 -0.0272114469919 0.0164615384615
v 0.027222941418 -0.0407420110028 0.0168461538462
v 0.0274355489417 -0.041060200648 0.0168341177039
v 0.0276157888972 -0.041329948804 0.0167998416705
v 0.0277208587284 -0.0404048758365 0.0164615384615
v 0.0277362213851 -0.0415101887595 0.0167485439615
v 0.027778511651 -0.0415734806151 0.014
v 0.027778511651 -0.0415734806151 0.016688034188
v 0.0279373549195 -0.0407204325011 0.016451128825
v 0.0281208915281 -0.0409879485242 0.016421484688
v 0.0282435267693 -0.041166697016 0.0163771191019
v 0.0282865905392 -0.0412294651393 0.014
v 0.0282865905392 -0.0412294651393 0.0163247863248
f 17 1 18
f 17 10 1
f 2 1 10
f 14 10 17
f 14 17 15
f 14 15 21
f 19 17 18
f 22 23 5
f 22 15 17
f 22 21 15
f 13 10 14
f 3 6 2
f 3 2 10
f 3 10 4
f 24 23 22
f 24 17 19
f 24 22 17
f 7 4 10
f 9 4 7
f 9 7 11
f 8 9 11
f 8 6 3
f 8 3 4
f 8 4 9
f 16 10 13
f 20 21 22
f 20 22 16
f 20 14 21
f 20 13 14
f 20 16 13
f 12 16 22
f 12 8 11
f 12 10 16
f 12 6 8
f 12 7 10
f 12 11 7
f 12 5 6
f 12 22 5
f 5 23 18
f 5 18 1
f 2 5 1
f 2 6 5
f 24 18 23
f 24 19 18
