# Parametric PetalDock simulation geometry; SI units
v 0.0193763533249 -0.0254667809475 0.014
v 0.0193763533249 -0.0254667809475 0.014873191979
v 0.0194224451085 -0.0255273604247 0.0148928482204
v 0.0195537034029 -0.0256998761801 0.0149095119772
v 0.0196874108986 -0.0252270856841 0.014
v 0.0196874108986 -0.0252270856841 0.0145588428665
v 0.0197342426149 -0.0252870949827 0.014571422861
v 0.0197501453227 -0.0259580642538 0.0149206463435
v 0.0198676080595 -0.0254579870068 0.0145820876654
v 0.0199818643663 -0.0262626178521 0.014924556213
v 0.0200672035524 -0.0257137449949 0.0145892136598
v 0.0203026424892 -0.0260154321117 0.0145917159763
v 0.0296700410288 -0.0389960083258 0.014924556213
v 0.0299017600725 -0.0393005619241 0.0149206463435
v 0.0300982019923 -0.0395587499978 0.0149095119772
v 0.0301463479385 -0.0386289749537 0.0145917159763
v 0.0302294602867 -0.0397312657532 0.0148928482204
v 0.0302755520702 -0.0397918452304 0.014
v 0.0302755520702 -0.0397918452304 0.014873191979
v 0.0303817868752 -0.0389306620705 0.0145892136598
v 0.0305813823682 -0.0391864200586 0.0145820876654
v 0.0307147478127 -0.0393573120827 0.014571422861
v 0.030761579529 -0.0394173213813 0.014
v 0.030761579529 -0.0394173213813 0.0145588428665
f 10 1 18
f 19 10 18
f 19 17 15
f 2 1 10
f 13 10 19
f 4 2 10
f 22 15 17
f 22 21 15
f 14 19 15
f 14 13 19
f 14 15 21
f 20 10 13
f 20 14 21
f 20 13 14
f 3 6 2
f 3 2 4
f 24 17 19
f 24 22 17
f 24 23 21
f 24 21 22
f 8 4 10
f 8 10 12
f 9 4 8
f 16 12 10
f 16 10 20
f 16 20 21
f 16 9 12
f 16 5 9
f 7 6 3
f 7 5 6
f 7 9 5
f 7 3 4
f 7 4 9
f 11 8 12
f 11 12 9
f 11 9 8
f 5 23 18
f 5 18 1
f 2 5 1
f 2 6 5
f 24 18 23
f 24 19 18
f 16 23 5
f 16 21 23
