# Parametric PetalDock simulation geometry; SI units
v 0.0294116432541 -0.012607745282 0.014
v 0.0294116432541 -0.012607745282 0.0221367521368
v 0.0294816066301 -0.0126377361402 0.0223199168565
v 0.0295641450404 -0.0122458698357 0.014
v 0.0295641450404 -0.0122458698357 0.0225
v 0.0296344711823 -0.0122749998775 0.0226913417162
v 0.0296808454686 -0.0127231428788 0.0224751964081
v 0.0298347430904 -0.012357955218 0.0228535533906
v 0.0299790274623 -0.0128509630958 0.0225789508874
v 0.0301344711823 -0.0124821066586 0.0229619397663
v 0.0303307571058 -0.013001737322 0.0226153846154
v 0.0304880245729 -0.012628553268 0.023
v 0.0450365787328 -0.019305609963 0.0226153846154
v 0.0452700970931 -0.0187514881859 0.023
v 0.0453883083763 -0.0194563841892 0.0225789508874
v 0.0456236504836 -0.0188979347953 0.0229619397663
v 0.04568649037 -0.0195842044063 0.0224751964081
v 0.0458857292084 -0.0196696111448 0.0223199168565
v 0.0459233785755 -0.019022086236 0.0228535533906
v 0.0459556925845 -0.0196996020031 0.014
v 0.0459556925845 -0.0196996020031 0.0221367521368
v 0.0461236504836 -0.0191050415765 0.0226913417162
v 0.0461939766256 -0.0191341716183 0.014
v 0.0461939766256 -0.0191341716183 0.0225
f 4 12 23
f 17 1 20
f 14 12 13
f 14 23 12
f 14 24 23
f 21 17 20
f 16 17 19
f 16 19 14
f 2 1 17
f 7 17 13
f 7 2 17
f 7 3 2
f 18 19 17
f 18 17 21
f 15 14 13
f 15 16 14
f 15 13 17
f 15 17 16
f 11 13 12
f 8 3 7
f 22 21 24
f 22 18 21
f 22 19 18
f 22 14 19
f 22 24 14
f 9 7 13
f 9 13 11
f 6 3 8
f 6 5 2
f 6 2 3
f 10 8 7
f 10 7 9
f 10 6 8
f 10 11 12
f 10 9 11
f 10 5 6
f 10 4 5
f 10 12 4
f 4 23 20
f 4 20 1
f 21 20 23
f 21 23 24
f 2 4 1
f 2 5 4
