# Parametric PetalDock simulation geometry; SI units
v -0.0321915771445 -0.0382583632811 0.014
v -0.0321915771445 -0.0382583632811 0.0140349276792
v -0.0321425683865 -0.0382001183912 0.0140357139288
v -0.0320030032515 -0.0380342509778 0.0140363804791
v -0.0317941292663 -0.037786012851 0.0140368258537
v -0.0317196642082 -0.0386505226681 0.014
v -0.0317196642082 -0.0386505226681 0.0141397107166
v -0.0316713738948 -0.0385916807511 0.0141428557153
v -0.0315477456016 -0.0374931960155 0.0140369822485
v -0.0315338547172 -0.0384241131483 0.0141455219163
v -0.0313280427235 -0.0381733305083 0.014147303415
v -0.031085270924 -0.0378775122148 0.0141479289941
v -0.0212464409154 -0.0252505197655 0.0140369822485
v -0.0210000572507 -0.02495770293 0.0140368258537
v -0.0209349783774 -0.025509344961 0.0141479289941
v -0.0207911832654 -0.0247094648033 0.0140363804791
v -0.0206922065779 -0.0252135266674 0.014147303415
v -0.0206516181305 -0.0245435973899 0.0140357139288
v -0.0206026093725 -0.0244853524999 0.014
v -0.0206026093725 -0.0244853524999 0.0140349276792
v -0.0204863945842 -0.0249627440275 0.0141455219163
v -0.0203488754066 -0.0247951764247 0.0141428557153
v -0.0203005850932 -0.0247363345076 0.014
v -0.0203005850932 -0.0247363345076 0.0141397107166
f 15 12 21
f 8 7 6
f 8 6 23
f 8 23 21
f 8 21 12
f 24 21 23
f 10 12 11
f 10 8 12
f 22 24 20
f 22 21 24
f 17 15 21
f 17 21 16
f 4 12 15
f 18 16 21
f 18 21 22
f 18 22 20
f 13 9 17
f 13 19 1
f 13 20 19
f 3 11 12
f 3 12 4
f 3 10 11
f 5 15 17
f 5 4 15
f 5 17 9
f 5 3 4
f 5 9 13
f 5 13 1
f 14 17 16
f 14 13 17
f 14 16 18
f 14 18 20
f 14 20 13
f 2 8 10
f 2 10 3
f 2 7 8
f 2 5 1
f 2 3 5
f 19 23 6
f 19 6 1
f 24 23 19
f 24 19 20
f 2 1 6
f 2 6 7
