# Parametric PetalDock simulation geometry; SI units
v -0.0133356378737 -0.0481888032898 0.014
v -0.0133356378737 -0.0481888032898 0.0261324786325
v -0.013315335574 -0.0481154402051 0.0264055903128
v -0.0132575195157 -0.0479065198156 0.0266371232156
v -0.0131709916698 -0.0475938483569 0.0267918285553
v -0.0130689251163 -0.047225027224 0.0268461538462
v -0.0127432829802 -0.0483488235522 0.014
v -0.0127432829802 -0.0483488235522 0.0264957264957
v -0.0127238824871 -0.0482752168512 0.0267770151725
v -0.0126686345568 -0.0480656027011 0.0270154801981
v -0.012585950186 -0.0477518929562 0.0271748174342
v -0.0124884173206 -0.0473818470812 0.0272307692308
v -0.0088015209967 -0.0318046101712 0.0268461538462
v -0.0086994544432 -0.0314357890384 0.0267918285553
v -0.0086129265972 -0.0311231175796 0.0266371232156
v -0.008555110539 -0.0309141971901 0.0264055903128
v -0.0085348082392 -0.0308408341055 0.014
v -0.0085348082392 -0.0308408341055 0.0261324786325
v -0.0084105667669 -0.0319102235445 0.0272307692308
v -0.0083130339015 -0.0315401776695 0.0271748174342
v -0.0082303495308 -0.0312264679246 0.0270154801981
v -0.0081751016005 -0.0310168537745 0.0267770151725
v -0.0081557011073 -0.0309432470734 0.014
v -0.0081557011073 -0.0309432470734 0.0264957264957
f 11 8 7
f 11 7 23
f 11 10 8
f 9 8 10
f 5 11 12
f 4 10 11
f 4 11 5
f 18 22 24
f 19 12 11
f 19 23 24
f 19 11 23
f 20 21 15
f 20 13 19
f 20 22 21
f 20 24 22
f 20 19 24
f 3 9 10
f 3 10 4
f 3 4 5
f 3 17 1
f 3 13 17
f 3 5 13
f 16 22 18
f 16 18 17
f 16 17 13
f 16 15 21
f 16 21 22
f 6 13 5
f 6 19 13
f 6 5 12
f 6 12 19
f 2 8 9
f 2 9 3
f 2 3 1
f 14 15 16
f 14 16 13
f 14 20 15
f 14 13 20
f 17 23 7
f 17 7 1
f 18 23 17
f 18 24 23
f 2 1 7
f 2 7 8
