# Parametric PetalDock simulation geometry; SI units
v -0.0446612150598 -0.0224805664827 0.014
v -0.0446612150598 -0.0224805664827 0.0203205128205
v -0.0445932224084 -0.0224463418581 0.0204627925582
v -0.0443995957191 -0.0223488783732 0.0205834114956
v -0.0443819810201 -0.0230269355479 0.014
v -0.0443819810201 -0.0230269355479 0.0199572649573
v -0.0443144134773 -0.0229918791259 0.0200913676985
v -0.0441219973946 -0.0228920468825 0.0202050545131
v -0.0441098129 -0.0222030139599 0.0206640064929
v -0.0438340263764 -0.0227426373716 0.020281017614
v -0.0437679907586 -0.0220309551531 0.0206923076923
v -0.0434943413997 -0.022566396837 0.0203076923077
v -0.0294764019395 -0.0148371738786 0.0206923076923
v -0.0292921074733 -0.0151977774616 0.0203076923077
v -0.029134579798 -0.0146651150717 0.0206640064929
v -0.0289524224967 -0.015021536927 0.020281017614
v -0.028844796979 -0.0145192506585 0.0205834114956
v -0.0286644514785 -0.0148721274161 0.0202050545131
v -0.0286511702896 -0.0144217871735 0.0204627925582
v -0.0285831776383 -0.0143875625489 0.014
v -0.0285831776383 -0.0143875625489 0.0203205128205
v -0.0284720353958 -0.0147722951726 0.0200913676985
v -0.0284044678529 -0.0147372387507 0.014
v -0.0284044678529 -0.0147372387507 0.0199572649573
f 12 5 23
f 6 5 12
f 13 11 12
f 8 6 12
f 22 17 18
f 15 17 21
f 15 18 17
f 15 16 18
f 3 2 6
f 10 12 11
f 10 8 12
f 19 21 17
f 19 17 22
f 24 22 18
f 24 21 19
f 24 19 22
f 24 18 16
f 24 12 23
f 24 16 12
f 14 13 12
f 14 12 16
f 14 15 13
f 14 16 15
f 7 6 8
f 7 3 6
f 4 7 8
f 4 3 7
f 9 3 4
f 9 10 11
f 9 11 13
f 9 13 15
f 9 21 2
f 9 15 21
f 9 2 3
f 9 8 10
f 9 4 8
f 20 23 5
f 20 5 1
f 6 1 5
f 6 2 1
f 21 20 1
f 21 1 2
f 24 23 20
f 24 20 21
