# Parametric PetalDock simulation geometry; SI units
v 0.0096641903782 0.0305057932913 0.014
v 0.0096641903782 0.0305057932913 0.0250427350427
v 0.0096871792123 0.0305783593928 0.0252913157338
v 0.0097526458728 0.030785010166 0.0255020522681
v 0.0098506236543 0.0310942849041 0.0256428619186
v 0.0099661963275 0.0314590993317 0.0256923076923
v 0.0100378156928 0.030384901779 0.014
v 0.0100378156928 0.030384901779 0.0246794871795
v 0.0100616932935 0.030457180308 0.0249198908742
v 0.0101296909474 0.0306630121441 0.0251236952856
v 0.0102314566281 0.0309710612563 0.0252598730397
v 0.0103514974332 0.0313344299596 0.0253076923077
v 0.0147982915166 0.0467119959774 0.0256923076923
v 0.0149138641899 0.047076810405 0.0256428619186
v 0.0150118419714 0.047386085143 0.0255020522681
v 0.0150773086319 0.0475927359163 0.0252913157338
v 0.015100297466 0.0476653020177 0.014
v 0.015100297466 0.0476653020177 0.0250427350427
v 0.0153704052795 0.0465268808491 0.0253076923077
v 0.0154904460846 0.0468902495523 0.0252598730397
v 0.0155922117653 0.0471982986645 0.0251236952856
v 0.0156602094192 0.0474041305007 0.0249198908742
v 0.0156840870199 0.0474764090297 0.014
v 0.0156840870199 0.0474764090297 0.0246794871795
f 13 17 1
f 13 1 6
f 2 6 1
f 21 7 23
f 16 17 13
f 4 6 2
f 12 8 7
f 14 15 16
f 14 16 13
f 14 21 15
f 18 17 16
f 3 2 8
f 3 4 2
f 20 7 21
f 20 12 7
f 20 14 13
f 20 21 14
f 5 6 4
f 5 12 6
f 10 8 12
f 10 5 4
f 24 18 16
f 19 6 12
f 19 12 20
f 19 13 6
f 19 20 13
f 9 3 8
f 9 8 10
f 9 4 3
f 9 10 4
f 11 12 5
f 11 10 12
f 11 5 10
f 22 23 24
f 22 21 23
f 22 24 16
f 22 15 21
f 22 16 15
f 7 17 23
f 7 1 17
f 2 1 7
f 2 7 8
f 24 23 17
f 24 17 18
