# Parametric PetalDock simulation geometry; SI units
v -0.0262294841339 0.0425677596553 0.014
v -0.0262294841339 0.0425677596553 0.0177777777778
v -0.026189552122 0.0425029541 0.0178628185405
v -0.0260758353732 0.0423184034924 0.017934912618
v -0.0259056462316 0.0420422039896 0.0179830843406
v -0.0257051372097 0.0428864305 0.014
v -0.0257051372097 0.0428864305 0.018141025641
v -0.0257048944512 0.0417164044622 0.018
v -0.0256660034684 0.0428211397972 0.0182342434002
v -0.0255545600021 0.0426352076066 0.0183132696005
v -0.0253877730682 0.0423569404185 0.0183660732195
v -0.0251910344655 0.04202870189 0.0183846153846
v -0.0173114595284 0.0280947213725 0.018
v -0.017110707748 0.027768921845 0.0179830843406
v -0.0169653905584 0.02830504413 0.0183846153846
v -0.0169405186064 0.0274927223422 0.017934912618
v -0.0168268018576 0.0273081717347 0.0178628185405
v -0.0167868698457 0.0272433661794 0.014
v -0.0167868698457 0.0272433661794 0.0177777777778
v -0.0167686519556 0.0279768056015 0.0183660732195
v -0.0166018650217 0.0276985384135 0.0183132696005
v -0.0164904215554 0.0275126062228 0.0182342434002
v -0.0164512878142 0.02744731552 0.014
v -0.0164512878142 0.02744731552 0.018141025641
f 10 23 6
f 21 23 10
f 9 6 7
f 9 10 6
f 11 10 4
f 3 10 9
f 3 4 10
f 22 23 21
f 22 24 23
f 19 24 22
f 5 11 4
f 5 12 11
f 5 8 12
f 5 1 18
f 5 4 1
f 15 12 8
f 2 9 7
f 2 3 9
f 2 1 4
f 2 4 3
f 17 18 19
f 17 16 18
f 17 19 22
f 17 21 16
f 17 22 21
f 13 8 5
f 13 15 8
f 13 18 16
f 13 5 18
f 14 13 16
f 20 15 13
f 20 13 14
f 20 16 21
f 20 14 16
f 20 21 10
f 20 10 11
f 20 11 12
f 20 12 15
f 18 6 23
f 18 1 6
f 19 18 23
f 19 23 24
f 2 6 1
f 2 7 6
