# Parametric PetalDock simulation geometry; SI units
v 0.007393859465 -0.0311340784706 0.014
v 0.007393859465 -0.0311340784706 0.0272222222222
v 0.0074114477162 -0.0312081391146 0.0275198648918
v 0.007461534818 -0.0314190459849 0.0277721941631
v 0.0075364954633 -0.0317346904224 0.027940795192
v 0.0076249175733 -0.0321070184228 0.028
v 0.0077753657569 -0.0310410001022 0.014
v 0.0077753657569 -0.0310410001022 0.026858974359
v 0.0077938615218 -0.0311148393347 0.0271484400322
v 0.0078465330039 -0.0313251156783 0.0273938371806
v 0.0079253614476 -0.0316398164659 0.0275578063131
v 0.0080183459368 -0.0320110313554 0.0276153846154
v 0.0113218473058 -0.0476740576581 0.028
v 0.0114102694157 -0.0480463856585 0.027940795192
v 0.011485230061 -0.048362030096 0.0277721941631
v 0.0115353171628 -0.0485729369663 0.0275198648918
v 0.011552905414 -0.0486469976103 0.014
v 0.011552905414 -0.0486469976103 0.0272222222222
v 0.0119060288153 -0.0475315314065 0.0276153846154
v 0.0119990133045 -0.047902746296 0.0275578063131
v 0.0120778417482 -0.0482174470836 0.0273938371806
v 0.0121305132303 -0.0484277234273 0.0271484400322
v 0.0121490089952 -0.0485015626597 0.014
v 0.0121490089952 -0.0485015626597 0.026858974359
f 14 15 21
f 4 18 14
f 4 1 17
f 4 17 18
f 11 23 7
f 16 15 14
f 16 14 18
f 16 18 24
f 13 6 14
f 3 8 2
f 3 2 1
f 3 1 4
f 9 7 8
f 9 11 7
f 9 8 3
f 9 3 4
f 19 6 13
f 19 24 23
f 19 23 11
f 19 21 24
f 5 14 6
f 5 4 14
f 22 24 21
f 22 16 24
f 22 21 15
f 22 15 16
f 10 9 4
f 10 11 9
f 10 4 5
f 10 5 11
f 12 6 19
f 12 19 11
f 12 5 6
f 12 11 5
f 20 14 21
f 20 21 19
f 20 13 14
f 20 19 13
f 7 23 17
f 7 17 1
f 2 7 1
f 2 8 7
f 24 17 23
f 24 18 17
