# Parametric PetalDock simulation geometry; SI units
v 0.0309432470734 0.0081557011073 0.014
v 0.0309432470734 0.0081557011073 0.0264957264957
v 0.0310168537745 0.0081751016005 0.0267770151725
v 0.0310410001022 0.0077753657569 0.014
v 0.0310410001022 0.0077753657569 0.026858974359
v 0.0311148393347 0.0077938615218 0.0271484400322
v 0.0312264679246 0.0082303495308 0.0270154801981
v 0.0313251156783 0.0078465330039 0.0273938371806
v 0.0315401776695 0.0083130339015 0.0271748174342
v 0.0316398164659 0.0079253614476 0.0275578063131
v 0.0319102235445 0.0084105667669 0.0272307692308
v 0.0320110313554 0.0080183459368 0.0276153846154
v 0.0473818470812 0.0124884173206 0.0272307692308
v 0.0475315314065 0.0119060288153 0.0276153846154
v 0.0477518929562 0.012585950186 0.0271748174342
v 0.047902746296 0.0119990133045 0.0275578063131
v 0.0480656027011 0.0126686345568 0.0270154801981
v 0.0482174470836 0.0120778417482 0.0273938371806
v 0.0482752168512 0.0127238824871 0.0267770151725
v 0.0483488235522 0.0127432829802 0.014
v 0.0483488235522 0.0127432829802 0.0264957264957
v 0.0484277234273 0.0121305132303 0.0271484400322
v 0.0485015626597 0.0121490089952 0.014
v 0.0485015626597 0.0121490089952 0.026858974359
f 5 4 12
f 7 20 1
f 14 13 12
f 22 23 24
f 19 20 7
f 19 7 13
f 19 18 22
f 11 12 13
f 11 13 7
f 8 5 12
f 16 22 18
f 16 14 12
f 16 12 4
f 16 4 23
f 16 23 22
f 21 20 19
f 21 22 24
f 21 19 22
f 10 12 11
f 10 8 12
f 10 7 8
f 6 2 5
f 6 5 8
f 15 13 14
f 15 14 16
f 9 11 7
f 9 7 10
f 9 10 11
f 3 2 6
f 3 1 2
f 3 7 1
f 3 8 7
f 3 6 8
f 17 19 13
f 17 13 15
f 17 18 19
f 17 16 18
f 17 15 16
f 4 20 23
f 4 1 20
f 2 1 4
f 2 4 5
f 21 23 20
f 21 24 23
