# Parametric PetalDock simulation geometry; SI units
v -0.0246449096115 0.0435043495554 0.014
v -0.0246449096115 0.0435043495554 0.0188675213675
v -0.0246073899707 0.0434381181269 0.0189770931195
v -0.0245005430734 0.043249506976 0.0190699835656
v -0.0243406353913 0.0429672304405 0.0191320509773
v -0.0241520114193 0.0426342625643 0.0191538461538
v -0.024109188604 0.0438035047098 0.014
v -0.024109188604 0.0438035047098 0.0192307692308
v -0.0240724845498 0.0437368178446 0.0193485179792
v -0.0239679602469 0.04354690972 0.0194483405481
v -0.0238115285728 0.0432626921262 0.0195150398562
v -0.0236270048319 0.0429274346156 0.0195384615385
v -0.0162656403436 0.0287128707066 0.0191538461538
v -0.0160770163716 0.0283799028304 0.0191320509773
v -0.0159171086894 0.028097626295 0.0190699835656
v -0.0159120644786 0.0289103131084 0.0195384615385
v -0.0158102617922 0.027909015144 0.0189770931195
v -0.0157727421514 0.0278427837155 0.014
v -0.0157727421514 0.0278427837155 0.0188675213675
v -0.0157275407377 0.0285750555978 0.0195150398562
v -0.0155711090636 0.028290838004 0.0194483405481
v -0.0154665847607 0.0281009298794 0.0193485179792
v -0.0154298807065 0.0280342430143 0.014
v -0.0154298807065 0.0280342430143 0.0192307692308
f 10 23 7
f 9 7 8
f 9 10 7
f 24 23 10
f 3 10 9
f 3 4 10
f 3 1 5
f 3 5 4
f 11 24 10
f 11 5 12
f 11 10 4
f 11 4 5
f 6 12 5
f 6 18 19
f 6 1 18
f 6 5 1
f 2 9 8
f 2 3 9
f 2 1 3
f 22 19 24
f 22 24 21
f 16 6 13
f 16 12 6
f 16 11 12
f 16 24 11
f 17 13 6
f 17 14 13
f 17 6 19
f 17 15 14
f 17 19 22
f 17 21 15
f 17 22 21
f 20 13 14
f 20 16 13
f 20 15 21
f 20 14 15
f 20 21 24
f 20 24 16
f 18 7 23
f 18 1 7
f 19 18 23
f 19 23 24
f 2 7 1
f 2 8 7
