# Parametric PetalDock simulation geometry; SI units
v 0.0058572764146 -0.0314593755978 0.014
v 0.0058572764146 -0.0314593755978 0.0286752136752
v 0.0058712094964 -0.0315342100471 0.0290055643305
v 0.0059108875565 -0.0317473205284 0.0292856220932
v 0.0059702699699 -0.0320662629029 0.0294727507076
v 0.0060403163025 -0.0324424810852 0.0295384615385
v 0.0062428903045 -0.0313851289729 0.014
v 0.0062428903045 -0.0313851289729 0.028311965812
v 0.006257740671 -0.031459786807 0.0286341394708
v 0.0063000309369 -0.0316723943306 0.0289072651107
v 0.0063633227925 -0.0319905839758 0.0290897618287
v 0.0064379806265 -0.0323659142533 0.0291538461538
v 0.0089689545098 -0.0481721688841 0.0295384615385
v 0.0090390008424 -0.0485483870664 0.0294727507076
v 0.0090983832558 -0.0488673294409 0.0292856220932
v 0.0091380613159 -0.0490804399223 0.0290055643305
v 0.0091519943978 -0.0491552743716 0.014
v 0.0091519943978 -0.0491552743716 0.0286752136752
v 0.0095594257788 -0.0480584787398 0.0291538461538
v 0.0096340836128 -0.0484338090173 0.0290897618287
v 0.0096973754684 -0.0487519986624 0.0289072651107
v 0.0097396657343 -0.0489646061861 0.0286341394708
v 0.0097545161008 -0.0490392640202 0.014
v 0.0097545161008 -0.0490392640202 0.028311965812
f 18 16 17
f 22 15 16
f 22 21 15
f 13 16 15
f 3 8 2
f 3 2 1
f 24 23 22
f 24 16 18
f 24 22 16
f 14 15 21
f 14 13 15
f 5 6 12
f 5 3 1
f 5 4 3
f 5 1 17
f 5 17 16
f 5 13 6
f 5 16 13
f 9 8 3
f 9 3 4
f 20 14 21
f 20 13 14
f 19 21 22
f 19 20 21
f 19 12 6
f 19 6 13
f 19 13 20
f 10 7 8
f 10 23 7
f 10 22 23
f 10 8 9
f 10 9 4
f 10 4 5
f 11 19 22
f 11 22 10
f 11 12 19
f 11 5 12
f 11 10 5
f 7 23 17
f 7 17 1
f 2 7 1
f 2 8 7
f 24 17 23
f 24 18 17
