# Parametric PetalDock simulation geometry; SI units
v -0.0219308119269 0.0449337232847 0.014
v -0.0219308119269 0.0449337232847 0.0206837606838
v -0.0218974242538 0.0448653157642 0.0208342174179
v -0.021802344205 0.0446705076278 0.0209617684781
v -0.021660046856 0.0443789566481 0.0210469953718
v -0.0214921956884 0.044035048819 0.0210769230769
v -0.0213777546715 0.0451994646562 0.014
v -0.0213777546715 0.0451994646562 0.021047008547
v -0.0213452089779 0.0451306525686 0.0212056422775
v -0.021252526684 0.0449346923223 0.0213401254606
v -0.0211138178288 0.0446414170886 0.0214299842507
v -0.0209501995781 0.044295475363 0.0214615384615
v -0.0144743358718 0.0296562573679 0.0210769230769
v -0.0143064847041 0.0293123495388 0.0210469953718
v -0.0141641873552 0.0290207985591 0.0209617684781
v -0.0141093180832 0.0298316466731 0.0214615384615
v -0.0140691073064 0.0288259904227 0.0208342174179
v -0.0140357196332 0.0287575829022 0.014
v -0.0140357196332 0.0287575829022 0.0206837606838
v -0.0139456998325 0.0294857049476 0.0214299842507
v -0.0138069909773 0.0291924297138 0.0213401254606
v -0.0137143086834 0.0289964694675 0.0212056422775
v -0.0136817629898 0.02892765738 0.014
v -0.0136817629898 0.02892765738 0.021047008547
f 18 15 1
f 9 7 8
f 11 9 10
f 11 10 4
f 3 10 9
f 3 4 10
f 3 6 4
f 3 1 15
f 3 15 6
f 5 11 4
f 5 4 6
f 5 12 11
f 5 6 12
f 13 6 15
f 2 9 8
f 2 3 9
f 2 1 3
f 17 18 19
f 17 15 18
f 17 21 15
f 14 13 15
f 16 6 13
f 16 12 6
f 22 19 24
f 22 17 19
f 22 24 21
f 22 21 17
f 20 15 21
f 20 14 15
f 20 7 9
f 20 13 14
f 20 16 13
f 20 23 7
f 20 9 11
f 20 24 23
f 20 21 24
f 20 11 12
f 20 12 16
f 18 7 23
f 18 1 7
f 19 18 23
f 19 23 24
f 2 7 1
f 2 8 7
