# Parametric PetalDock simulation geometry; SI units
v -0.0297849652246 -0.040160376574 0.014
v -0.0297849652246 -0.040160376574 0.015235042735
v -0.0297396203151 -0.0400992360412 0.0152628445229
v -0.0296104889379 -0.0399251225348 0.0152864137405
v -0.0294172301746 -0.0396645432576 0.0153021621883
v -0.0292898928728 -0.0405228599126 0.014
v -0.0292898928728 -0.0405228599126 0.0155982905983
v -0.0292453016661 -0.0404611675318 0.0156342693825
v -0.0291892659201 -0.0393571690426 0.0153076923077
v -0.0291183166528 -0.0402854824951 0.015664770723
v -0.0289282701501 -0.0400225512568 0.0156851510672
v -0.0287040950154 -0.0397124027144 0.0156923076923
v -0.0196580770483 -0.0265058485389 0.0153076923077
v -0.0194301127937 -0.0261984743238 0.0153021621883
v -0.0193313292961 -0.0267450875423 0.0156923076923
v -0.0192368540305 -0.0259378950467 0.0152864137405
v -0.0191077226533 -0.0257637815402 0.0152628445229
v -0.0191071541613 -0.0264349389999 0.0156851510672
v -0.0190623777438 -0.0257026410074 0.014
v -0.0190623777438 -0.0257026410074 0.015235042735
v -0.0189171076587 -0.0261720077616 0.015664770723
v -0.0187901226454 -0.0259963227249 0.0156342693825
v -0.0187455314386 -0.0259346303441 0.014
v -0.0187455314386 -0.0259346303441 0.0155982905983
f 8 7 10
f 11 10 7
f 11 6 23
f 11 7 6
f 15 12 11
f 5 11 12
f 24 11 23
f 18 21 16
f 18 15 11
f 18 11 24
f 17 16 21
f 17 20 16
f 9 12 15
f 9 5 12
f 4 10 11
f 4 11 5
f 22 24 20
f 22 20 17
f 22 17 21
f 22 21 18
f 22 18 24
f 13 5 9
f 13 16 20
f 13 9 15
f 13 15 18
f 3 8 10
f 3 10 4
f 3 19 1
f 3 20 19
f 3 13 20
f 3 4 5
f 3 5 13
f 14 18 16
f 14 16 13
f 14 13 18
f 2 7 8
f 2 8 3
f 2 3 1
f 19 23 6
f 19 6 1
f 24 23 19
f 24 19 20
f 2 1 6
f 2 6 7
