# Parametric PetalDock simulation geometry; SI units
v 0.0261627140209 0.0184258621254 0.014
v 0.0261627140209 0.0184258621254 0.0159615384615
v 0.026224948959 0.0184696929141 0.0160056942422
v 0.0263868576891 0.0181034179451 0.014
v 0.0263868576891 0.0181034179451 0.0163247863248
v 0.0264021790684 0.01859451244 0.0160431277055
v 0.0264496258123 0.018146481715 0.0163771191019
v 0.0266283743042 0.0182691169561 0.016421484688
v 0.0266674226715 0.0187813180617 0.0160681399461
v 0.0268958903272 0.0184526535647 0.016451128825
v 0.026980298834 0.0190016703168 0.0160769230769
v 0.0272114469919 0.0186691497559 0.0164615384615
v 0.0400616558444 0.0282146013795 0.0160769230769
v 0.040374532007 0.0284349536346 0.0160681399461
v 0.0404048758365 0.0277208587284 0.0164615384615
v 0.04063977561 0.0286217592563 0.0160431277055
v 0.0407204325011 0.0279373549195 0.016451128825
v 0.0408170057194 0.0287465787822 0.0160056942422
v 0.0408792406576 0.0287904095709 0.014
v 0.0408792406576 0.0287904095709 0.0159615384615
v 0.0409879485242 0.0281208915281 0.016421484688
v 0.041166697016 0.0282435267693 0.0163771191019
v 0.0412294651393 0.0282865905392 0.014
v 0.0412294651393 0.0282865905392 0.0163247863248
f 13 19 1
f 24 21 23
f 15 13 12
f 6 13 1
f 17 15 21
f 18 20 19
f 18 19 13
f 11 12 13
f 11 13 6
f 8 5 4
f 8 4 23
f 8 23 21
f 14 18 13
f 14 13 15
f 14 15 17
f 22 24 20
f 22 20 18
f 22 21 24
f 22 18 21
f 10 12 11
f 10 15 12
f 10 6 8
f 10 21 15
f 10 8 21
f 7 2 5
f 7 5 8
f 16 21 18
f 16 18 14
f 16 17 21
f 16 14 17
f 9 11 6
f 9 6 10
f 9 10 11
f 3 2 7
f 3 1 2
f 3 6 1
f 3 8 6
f 3 7 8
f 4 19 23
f 4 1 19
f 20 23 19
f 20 24 23
f 2 1 4
f 2 4 5
