# Parametric PetalDock simulation geometry; SI units
v 0.0199955036206 0.0249835913143 0.014
v 0.0199955036206 0.0249835913143 0.0143143491124
v 0.0200430682169 0.0250430213971 0.0143214253593
v 0.0201785207273 0.0252122639542 0.0143274243118
v 0.0203005850932 0.0247363345076 0.014
v 0.0203005850932 0.0247363345076 0.0141397107166
v 0.0203488754066 0.0247951764247 0.0141428557153
v 0.020381239735 0.0254655533405 0.0143314326837
v 0.0204863945842 0.0249627440275 0.0141455219163
v 0.0206203631087 0.0257643285429 0.0143328402367
v 0.0206922065779 0.0252135266674 0.014147303415
v 0.0209349783774 0.025509344961 0.0141479289941
v 0.030618114919 0.0382561242 0.0143328402367
v 0.0308572382926 0.0385548994024 0.0143314326837
v 0.0310599573003 0.0388081887887 0.0143274243118
v 0.031085270924 0.0378775122148 0.0141479289941
v 0.0311954098108 0.0389774313458 0.0143214253593
v 0.0312429744071 0.0390368614286 0.014
v 0.0312429744071 0.0390368614286 0.0143143491124
v 0.0313280427235 0.0381733305083 0.014147303415
v 0.0315338547172 0.0384241131483 0.0141455219163
v 0.0316713738948 0.0385916807511 0.0141428557153
v 0.0317196642082 0.0386505226681 0.014
v 0.0317196642082 0.0386505226681 0.0141397107166
f 19 18 15
f 3 2 6
f 3 1 2
f 3 4 1
f 8 16 10
f 8 12 16
f 8 15 18
f 8 18 1
f 8 1 4
f 9 8 4
f 20 13 10
f 20 21 13
f 20 10 16
f 20 16 12
f 20 24 21
f 14 13 21
f 14 15 8
f 14 10 13
f 14 8 10
f 17 24 19
f 17 19 15
f 22 21 24
f 22 15 14
f 22 14 21
f 22 17 15
f 22 24 17
f 7 6 5
f 7 9 4
f 7 5 23
f 7 3 6
f 7 4 3
f 7 23 24
f 7 20 12
f 7 24 20
f 11 12 8
f 11 8 9
f 11 7 12
f 11 9 7
f 5 18 23
f 5 1 18
f 2 1 5
f 2 5 6
f 24 23 18
f 24 18 19
