# Parametric PetalDock simulation geometry; SI units
v -0.0480215259708 -0.0139259844693 0.014
v -0.0480215259708 -0.0139259844693 0.0257692307692
v -0.0479484175506 -0.0139047834203 0.0260341654532
v -0.0478470167866 -0.0145142338627 0.014
v -0.0478470167866 -0.0145142338627 0.025405982906
v -0.0477741740409 -0.0144921372574 0.0256627405935
v -0.0477402223845 -0.0138444079409 0.0262587662331
v -0.0475667354515 -0.0144292114492 0.0258804092506
v -0.0474286362991 -0.0137540496506 0.0264088396764
v -0.0472562816631 -0.0143350363221 0.0260258507975
v -0.0470610954514 -0.0136474647799 0.0264615384615
v -0.0468900764509 -0.0142239491855 0.0260769230769
v -0.0316942071407 -0.0091911497497 0.0264615384615
v -0.0315790310792 -0.0095793943494 0.0260769230769
v -0.031326666293 -0.009084564879 0.0264088396764
v -0.0312128258669 -0.0094683072127 0.0260258507975
v -0.0310150802076 -0.0089942065886 0.0262587662331
v -0.0309023720786 -0.0093741320856 0.0258804092506
v -0.0308068850414 -0.0089338311093 0.0260341654532
v -0.0307337766213 -0.0089126300603 0.014
v -0.0307337766213 -0.0089126300603 0.0257692307692
v -0.0306949334891 -0.0093112062775 0.0256627405935
v -0.0306220907434 -0.0092891096721 0.014
v -0.0306220907434 -0.0092891096721 0.025405982906
f 22 4 23
f 22 12 4
f 13 11 12
f 13 17 11
f 21 20 17
f 6 5 4
f 6 4 12
f 24 22 23
f 19 17 22
f 19 21 17
f 19 24 21
f 19 22 24
f 10 12 11
f 10 6 12
f 3 1 2
f 3 2 5
f 3 5 6
f 18 22 17
f 18 16 22
f 15 17 13
f 15 18 17
f 15 16 18
f 14 13 12
f 14 12 22
f 14 22 16
f 14 15 13
f 14 16 15
f 9 10 11
f 7 11 17
f 7 9 11
f 7 20 1
f 7 17 20
f 7 1 3
f 7 3 6
f 8 6 10
f 8 7 6
f 8 10 9
f 8 9 7
f 20 23 4
f 20 4 1
f 5 1 4
f 5 2 1
f 24 23 20
f 24 20 21
