# Parametric PetalDock simulation geometry; SI units
v 0.0046953751826 0.0316536483189 0.014
v 0.0046953751826 0.0316536483189 0.029764957265
v 0.0047065443749 0.0317289448972 0.0301198389095
v 0.0047383515435 0.0319433714109 0.0304206930407
v 0.0047859543354 0.0322642833668 0.0306217173443
v 0.004842105657 0.0326428248288 0.0306923076923
v 0.0050834605867 0.0315936453811 0.014
v 0.0050834605867 0.0315936453811 0.0294017094017
v 0.0050955529428 0.0316687992266 0.0297484140498
v 0.0051299890596 0.0318828192714 0.0300423360582
v 0.0051815263505 0.0322031229037 0.0302387284654
v 0.00524231873 0.0325809467992 0.0303076923077
v 0.0071897932483 0.0484696489883 0.0306923076923
v 0.0072459445699 0.0488481904503 0.0306217173443
v 0.0072935473618 0.0491691024063 0.0304206930407
v 0.0073253545305 0.0493835289199 0.0301198389095
v 0.0073365237228 0.0494588254982 0.014
v 0.0073365237228 0.0494588254982 0.029764957265
v 0.0077840490234 0.0483777694897 0.0303076923077
v 0.0078448414029 0.0487555933852 0.0302387284654
v 0.0078963786938 0.0490758970176 0.0300423360582
v 0.0079308148106 0.0492899170624 0.0297484140498
v 0.0079429071667 0.0493650709079 0.014
v 0.0079429071667 0.0493650709079 0.0294017094017
f 15 17 13
f 4 1 2
f 4 17 1
f 4 13 17
f 18 17 15
f 18 15 16
f 3 2 8
f 3 4 2
f 5 6 13
f 5 13 4
f 14 15 13
f 14 21 15
f 11 8 7
f 19 13 6
f 19 11 7
f 19 7 23
f 22 16 15
f 22 15 21
f 22 19 23
f 22 21 19
f 9 8 11
f 9 3 8
f 9 4 3
f 10 5 4
f 10 11 5
f 10 4 9
f 10 9 11
f 12 19 6
f 12 11 19
f 12 6 5
f 12 5 11
f 20 21 14
f 20 19 21
f 20 14 13
f 20 13 19
f 24 18 16
f 24 16 22
f 24 22 23
f 7 17 23
f 7 1 17
f 2 1 7
f 2 7 8
f 24 23 17
f 24 17 18
