# Parametric PetalDock simulation geometry; SI units
v -0.0251769191863 0.0431986428061 0.014
v -0.0251769191863 0.0431986428061 0.0185042735043
v -0.0251385896091 0.0431328767884 0.0186056682599
v -0.0250294362083 0.0429455910153 0.018691626583
v -0.0248660765996 0.042665298048 0.0187490620984
v -0.0246733808026 0.04233466995 0.0187692307692
v -0.0246449096115 0.0435043495554 0.014
v -0.0246449096115 0.0435043495554 0.0188675213675
v -0.0246073899707 0.0434381181269 0.0189770931195
v -0.0245005430734 0.043249506976 0.0190699835656
v -0.0243406353913 0.0429672304405 0.0191320509773
v -0.0241520114193 0.0426342625643 0.0191538461538
v -0.0166167666629 0.028511104252 0.0187692307692
v -0.0164240708659 0.028180476154 0.0187490620984
v -0.0162656403436 0.0287128707066 0.0191538461538
v -0.0162607112572 0.0279001831867 0.018691626583
v -0.0161515578564 0.0277128974136 0.0186056682599
v -0.0161132282792 0.0276471313959 0.014
v -0.0161132282792 0.0276471313959 0.0185042735043
v -0.0160770163716 0.0283799028304 0.0191320509773
v -0.0159171086894 0.028097626295 0.0190699835656
v -0.0158102617922 0.027909015144 0.0189770931195
v -0.0157727421514 0.0278427837155 0.014
v -0.0157727421514 0.0278427837155 0.0188675213675
f 10 7 8
f 21 23 7
f 21 7 10
f 9 10 8
f 11 12 10
f 15 10 12
f 15 21 10
f 24 23 21
f 5 12 11
f 20 16 21
f 20 21 15
f 6 15 12
f 6 12 5
f 4 11 10
f 4 5 11
f 17 21 16
f 17 18 19
f 17 1 18
f 17 5 1
f 13 6 5
f 13 17 16
f 13 5 17
f 13 15 6
f 13 20 15
f 3 10 9
f 3 4 10
f 22 19 24
f 22 17 19
f 22 24 21
f 22 21 17
f 14 16 20
f 14 13 16
f 14 20 13
f 2 9 8
f 2 3 9
f 2 4 3
f 2 1 5
f 2 5 4
f 18 7 23
f 18 1 7
f 19 18 23
f 19 23 24
f 2 7 1
f 2 8 7
