# Parametric PetalDock simulation geometry; SI units
v 0.0319975904589 0.0003926892251 0.014
v 0.0319975904589 0.0003926892251 0.031
v 0.032 0 0.014
v 0.032 0 0.031
v 0.0320737051946 0.0003936233404 0.0313826834324
v 0.0320761204675 0 0.0313826834324
v 0.0322904616233 0.0003962834755 0.0317071067812
v 0.0322928932188 0 0.0317071067812
v 0.0326148605437 0.000400264649 0.0319238795325
v 0.0326173165676 0 0.0319238795325
v 0.0329975151607 0.0004049607634 0.032
v 0.033 0 0.032
v 0.0489963103901 0.000601305376 0.032
v 0.049 0 0.032
v 0.0493789650071 0.0006060014904 0.0319238795325
v 0.0493826834324 0 0.0319238795325
v 0.0497033639275 0.0006099826639 0.0317071067812
v 0.0497071067812 0 0.0317071067812
v 0.0499201203562 0.0006126427991 0.0313826834324
v 0.0499238795325 0 0.0313826834324
v 0.049996235092 0.0006135769143 0.014
v 0.049996235092 0.0006135769143 0.031
v 0.05 0 0.014
v 0.05 0 0.031
f 22 21 19
f 7 11 13
f 15 17 19
f 15 19 7
f 15 7 13
f 5 2 4
f 5 1 2
f 5 21 1
f 5 19 21
f 5 7 19
f 10 12 11
f 16 15 13
f 16 18 17
f 16 17 15
f 20 19 17
f 20 17 18
f 20 24 22
f 20 22 19
f 9 11 7
f 9 10 11
f 9 7 10
f 8 10 7
f 14 16 13
f 6 5 4
f 6 7 5
f 6 8 7
f 3 21 23
f 3 1 21
f 2 1 3
f 2 3 4
f 24 23 21
f 24 21 22
f 14 13 11
f 14 11 12
f 6 3 23
f 6 4 3
f 6 23 24
f 6 20 18
f 6 18 16
f 6 12 10
f 6 14 12
f 6 24 20
f 6 10 8
f 6 16 14
