# Parametric PetalDock simulation geometry; SI units
v 0.0272433661794 -0.0167868698457 0.014
v 0.0272433661794 -0.0167868698457 0.0177777777778
v 0.0273081717347 -0.0168268018576 0.0178628185405
v 0.02744731552 -0.0164512878142 0.014
v 0.02744731552 -0.0164512878142 0.018141025641
v 0.0274927223422 -0.0169405186064 0.017934912618
v 0.0275126062228 -0.0164904215554 0.0182342434002
v 0.0276985384135 -0.0166018650217 0.0183132696005
v 0.027768921845 -0.017110707748 0.0179830843406
v 0.0279768056015 -0.0167686519556 0.0183660732195
v 0.0280947213725 -0.0173114595284 0.018
v 0.02830504413 -0.0169653905584 0.0183846153846
v 0.0417164044622 -0.0257048944512 0.018
v 0.04202870189 -0.0251910344655 0.0183846153846
v 0.0420422039896 -0.0259056462316 0.0179830843406
v 0.0423184034924 -0.0260758353732 0.017934912618
v 0.0423569404185 -0.0253877730682 0.0183660732195
v 0.0425029541 -0.026189552122 0.0178628185405
v 0.0425677596553 -0.0262294841339 0.014
v 0.0425677596553 -0.0262294841339 0.0177777777778
v 0.0426352076066 -0.0255545600021 0.0183132696005
v 0.0428211397972 -0.0256660034684 0.0182342434002
v 0.0428864305 -0.0257051372097 0.014
v 0.0428864305 -0.0257051372097 0.018141025641
f 4 21 23
f 15 1 19
f 15 11 1
f 22 23 21
f 22 24 23
f 20 24 22
f 13 12 11
f 13 11 15
f 13 14 12
f 13 15 14
f 6 1 11
f 16 19 20
f 16 15 19
f 17 14 15
f 17 16 21
f 17 15 16
f 3 2 1
f 3 1 6
f 9 6 11
f 10 6 9
f 10 17 21
f 10 11 12
f 10 9 11
f 10 12 14
f 10 14 17
f 18 20 22
f 18 16 20
f 18 22 21
f 18 21 16
f 7 5 2
f 7 2 3
f 7 4 5
f 8 4 7
f 8 21 4
f 8 10 21
f 8 6 10
f 8 3 6
f 8 7 3
f 4 23 19
f 4 19 1
f 2 4 1
f 2 5 4
f 20 19 23
f 20 23 24
