# Parametric PetalDock simulation geometry; SI units
v -0.024109188604 0.0438035047098 0.014
v -0.024109188604 0.0438035047098 0.0192307692308
v -0.0240724845498 0.0437368178446 0.0193485179792
v -0.0239679602469 0.04354690972 0.0194483405481
v -0.0238115285728 0.0432626921262 0.0195150398562
v -0.0236270048319 0.0429274346156 0.0195384615385
v -0.0235698368413 0.0440960632174 0.014
v -0.0235698368413 0.0440960632174 0.019594017094
v -0.0235339539013 0.0440289309585 0.0197199428389
v -0.0234317679337 0.0438377544596 0.0198266975306
v -0.0232788358257 0.0435516386096 0.0198980287351
v -0.0230984401045 0.0432141419531 0.0199230769231
v -0.0159120644786 0.0289103131084 0.0195384615385
v -0.0157275407377 0.0285750555978 0.0195150398562
v -0.0155711090636 0.028290838004 0.0194483405481
v -0.0155560923153 0.0291034017235 0.0199230769231
v -0.0154665847607 0.0281009298794 0.0193485179792
v -0.0154298807065 0.0280342430143 0.014
v -0.0154298807065 0.0280342430143 0.0192307692308
v -0.015375696594 0.028765905067 0.0198980287351
v -0.015222764486 0.028479789217 0.0198266975306
v -0.0151205785184 0.0282886127181 0.0197199428389
v -0.0150846955784 0.0282214804591 0.014
v -0.0150846955784 0.0282214804591 0.019594017094
f 18 15 1
f 9 7 8
f 9 10 7
f 11 23 7
f 11 7 10
f 5 12 11
f 22 23 11
f 22 24 23
f 20 15 21
f 20 21 22
f 20 22 11
f 20 11 12
f 20 12 16
f 19 24 22
f 6 16 12
f 6 12 5
f 4 11 10
f 4 5 11
f 17 18 19
f 17 15 18
f 17 19 22
f 17 21 15
f 17 22 21
f 13 16 6
f 13 20 16
f 3 10 9
f 3 4 10
f 3 5 4
f 3 6 5
f 14 15 20
f 14 20 13
f 14 6 15
f 14 13 6
f 2 9 8
f 2 3 9
f 2 1 15
f 2 15 6
f 2 6 3
f 18 7 23
f 18 1 7
f 19 18 23
f 19 23 24
f 2 7 1
f 2 8 7
