# Parametric PetalDock simulation geometry; SI units
v 0.0302594344122 -0.0104099293492 0.014
v 0.0302594344122 -0.0104099293492 0.0243162393162
v 0.0303314144838 -0.0104346921207 0.0245484660145
v 0.030384901779 -0.0100378156928 0.014
v 0.030384901779 -0.0100378156928 0.0246794871795
v 0.030457180308 -0.0100616932935 0.0249198908742
v 0.0305363963854 -0.0105052105278 0.0247453383031
v 0.0306630121441 -0.0101296909474 0.0251236952856
v 0.0308431734806 -0.0106107487822 0.0248768841608
v 0.0309710612563 -0.0102314566281 0.0252598730397
v 0.0312050417376 -0.0107352396414 0.0249230769231
v 0.0313344299596 -0.0103514974332 0.0253076923077
v 0.0463347589436 -0.015940204316 0.0249230769231
v 0.0465268808491 -0.0153704052795 0.0253076923077
v 0.0466966272006 -0.0160646951751 0.0248768841608
v 0.0468902495523 -0.0154904460846 0.0252598730397
v 0.0470034042958 -0.0161702334295 0.0247453383031
v 0.0471982986645 -0.0155922117653 0.0251236952856
v 0.0472083861974 -0.0162407518366 0.0245484660145
v 0.047280366269 -0.0162655146081 0.014
v 0.047280366269 -0.0162655146081 0.0243162393162
v 0.0474041305007 -0.0156602094192 0.0249198908742
v 0.0474764090297 -0.0156840870199 0.014
v 0.0474764090297 -0.0156840870199 0.0246794871795
f 13 1 20
f 7 1 13
f 14 12 13
f 14 24 23
f 21 13 20
f 11 13 12
f 2 1 7
f 16 18 14
f 6 23 4
f 6 14 23
f 6 4 5
f 6 5 2
f 17 18 16
f 22 21 24
f 22 14 18
f 22 24 14
f 9 7 13
f 9 13 11
f 10 12 14
f 10 14 6
f 10 7 9
f 10 11 12
f 10 9 11
f 3 2 7
f 3 6 2
f 19 13 21
f 19 17 13
f 19 21 22
f 19 18 17
f 19 22 18
f 15 13 17
f 15 17 16
f 15 14 13
f 15 16 14
f 8 7 10
f 8 10 6
f 8 3 7
f 8 6 3
f 4 23 20
f 4 20 1
f 21 20 23
f 21 23 24
f 5 4 1
f 5 1 2
