# Parametric PetalDock simulation geometry; SI units
v -0.0292898928728 0.0405228599126 0.014
v -0.0292898928728 0.0405228599126 0.0155982905983
v -0.0292453016661 0.0404611675318 0.0156342693825
v -0.0291183166528 0.0402854824951 0.015664770723
v -0.0289282701501 0.0400225512568 0.0156851510672
v -0.0287904095709 0.0408792406576 0.014
v -0.0287904095709 0.0408792406576 0.0159615384615
v -0.0287465787822 0.0408170057194 0.0160056942422
v -0.0287040950154 0.0397124027144 0.0156923076923
v -0.0286217592563 0.04063977561 0.0160431277055
v -0.0284349536346 0.040374532007 0.0160681399461
v -0.0282146013795 0.0400616558444 0.0160769230769
v -0.0193313292961 0.0267450875423 0.0156923076923
v -0.0191071541613 0.0264349389999 0.0156851510672
v -0.0190016703168 0.026980298834 0.0160769230769
v -0.0189171076587 0.0261720077616 0.015664770723
v -0.0187901226454 0.0259963227249 0.0156342693825
v -0.0187813180617 0.0266674226715 0.0160681399461
v -0.0187455314386 0.0259346303441 0.014
v -0.0187455314386 0.0259346303441 0.0155982905983
v -0.01859451244 0.0264021790684 0.0160431277055
v -0.0184696929141 0.026224948959 0.0160056942422
v -0.0184258621254 0.0261627140209 0.014
v -0.0184258621254 0.0261627140209 0.0159615384615
f 8 10 7
f 5 12 11
f 18 16 21
f 18 23 6
f 18 6 7
f 18 7 10
f 18 10 11
f 18 11 12
f 18 12 15
f 17 21 16
f 17 16 19
f 17 19 20
f 9 15 12
f 9 12 5
f 4 11 10
f 4 5 11
f 4 9 5
f 24 23 18
f 13 15 9
f 13 18 15
f 13 9 4
f 13 1 19
f 13 19 16
f 3 10 8
f 3 4 10
f 3 1 13
f 3 13 4
f 22 18 21
f 22 24 18
f 22 21 17
f 22 20 24
f 22 17 20
f 14 16 18
f 14 13 16
f 14 18 13
f 2 8 7
f 2 3 8
f 2 1 3
f 19 6 23
f 19 1 6
f 24 19 23
f 24 20 19
f 2 6 1
f 2 7 6
