# Parametric PetalDock simulation geometry; SI units
v 0.030384901779 -0.0100378156928 0.014
v 0.030384901779 -0.0100378156928 0.0246794871795
v 0.030457180308 -0.0100616932935 0.0249198908742
v 0.0305057932913 -0.0096641903782 0.014
v 0.0305057932913 -0.0096641903782 0.0250427350427
v 0.0305783593928 -0.0096871792123 0.0252913157338
v 0.0306630121441 -0.0101296909474 0.0251236952856
v 0.030785010166 -0.0097526458728 0.0255020522681
v 0.0309710612563 -0.0102314566281 0.0252598730397
v 0.0310942849041 -0.0098506236543 0.0256428619186
v 0.0313344299596 -0.0103514974332 0.0253076923077
v 0.0314590993317 -0.0099661963275 0.0256923076923
v 0.0465268808491 -0.0153704052795 0.0253076923077
v 0.0467119959774 -0.0147982915166 0.0256923076923
v 0.0468902495523 -0.0154904460846 0.0252598730397
v 0.047076810405 -0.0149138641899 0.0256428619186
v 0.0471982986645 -0.0155922117653 0.0251236952856
v 0.047386085143 -0.0150118419714 0.0255020522681
v 0.0474041305007 -0.0156602094192 0.0249198908742
v 0.0474764090297 -0.0156840870199 0.014
v 0.0474764090297 -0.0156840870199 0.0246794871795
v 0.0475927359163 -0.0150773086319 0.0252913157338
v 0.0476653020177 -0.015100297466 0.014
v 0.0476653020177 -0.015100297466 0.0250427350427
f 5 12 4
f 17 1 20
f 22 24 23
f 2 1 11
f 15 11 1
f 15 1 17
f 21 24 22
f 7 2 11
f 13 12 11
f 13 11 15
f 16 17 18
f 16 15 17
f 16 18 22
f 19 20 21
f 19 17 20
f 19 21 22
f 19 18 17
f 19 22 18
f 9 7 11
f 6 5 2
f 14 13 15
f 14 15 16
f 14 12 13
f 14 4 12
f 14 16 22
f 14 23 4
f 14 22 23
f 3 2 7
f 3 6 2
f 8 12 5
f 8 5 6
f 8 3 7
f 8 6 3
f 10 12 8
f 10 11 12
f 10 9 11
f 10 7 9
f 10 8 7
f 4 23 20
f 4 20 1
f 2 4 1
f 2 5 4
f 21 20 23
f 21 23 24
