# Parametric PetalDock simulation geometry; SI units
v 0.0161132282792 0.0276471313959 0.014
v 0.0161132282792 0.0276471313959 0.0185042735043
v 0.0161515578564 0.0277128974136 0.0186056682599
v 0.0162607112572 0.0279001831867 0.018691626583
v 0.0164240708659 0.028180476154 0.0187490620984
v 0.0164512878142 0.02744731552 0.014
v 0.0164512878142 0.02744731552 0.018141025641
v 0.0164904215554 0.0275126062228 0.0182342434002
v 0.0166018650217 0.0276985384135 0.0183132696005
v 0.0166167666629 0.028511104252 0.0187692307692
v 0.0167686519556 0.0279768056015 0.0183660732195
v 0.0169653905584 0.02830504413 0.0183846153846
v 0.0246733808026 0.04233466995 0.0187692307692
v 0.0248660765996 0.042665298048 0.0187490620984
v 0.0250294362083 0.0429455910153 0.018691626583
v 0.0251385896091 0.0431328767884 0.0186056682599
v 0.0251769191863 0.0431986428061 0.014
v 0.0251769191863 0.0431986428061 0.0185042735043
v 0.0251910344655 0.04202870189 0.0183846153846
v 0.0253877730682 0.0423569404185 0.0183660732195
v 0.0255545600021 0.0426352076066 0.0183132696005
v 0.0256660034684 0.0428211397972 0.0182342434002
v 0.0257051372097 0.0428864305 0.014
v 0.0257051372097 0.0428864305 0.018141025641
f 16 17 1
f 18 17 16
f 24 18 16
f 13 15 16
f 3 2 7
f 3 4 2
f 22 24 16
f 22 16 15
f 22 15 21
f 14 21 15
f 14 15 13
f 5 16 1
f 5 1 2
f 5 2 4
f 5 10 13
f 5 13 16
f 8 3 7
f 8 4 3
f 12 6 23
f 12 7 6
f 12 23 24
f 12 8 7
f 12 10 5
f 12 5 11
f 9 4 8
f 9 5 4
f 9 11 5
f 9 12 11
f 9 8 12
f 19 12 24
f 19 10 12
f 19 13 10
f 20 24 22
f 20 19 24
f 20 22 21
f 20 21 14
f 20 14 13
f 20 13 19
f 6 17 23
f 6 1 17
f 2 1 6
f 2 6 7
f 24 23 17
f 24 17 18
