# Parametric PetalDock simulation geometry; SI units
v 0.0164512878142 -0.02744731552 0.014
v 0.0164512878142 -0.02744731552 0.018141025641
v 0.0164904215554 -0.0275126062228 0.0182342434002
v 0.0166018650217 -0.0276985384135 0.0183132696005
v 0.0167686519556 -0.0279768056015 0.0183660732195
v 0.0167868698457 -0.0272433661794 0.014
v 0.0167868698457 -0.0272433661794 0.0177777777778
v 0.0168268018576 -0.0273081717347 0.0178628185405
v 0.0169405186064 -0.0274927223422 0.017934912618
v 0.0169653905584 -0.02830504413 0.0183846153846
v 0.017110707748 -0.027768921845 0.0179830843406
v 0.0173114595284 -0.0280947213725 0.018
v 0.0251910344655 -0.04202870189 0.0183846153846
v 0.0253877730682 -0.0423569404185 0.0183660732195
v 0.0255545600021 -0.0426352076066 0.0183132696005
v 0.0256660034684 -0.0428211397972 0.0182342434002
v 0.0257048944512 -0.0417164044622 0.018
v 0.0257051372097 -0.0428864305 0.014
v 0.0257051372097 -0.0428864305 0.018141025641
v 0.0259056462316 -0.0420422039896 0.0179830843406
v 0.0260758353732 -0.0423184034924 0.017934912618
v 0.026189552122 -0.0425029541 0.0178628185405
v 0.0262294841339 -0.0425677596553 0.014
v 0.0262294841339 -0.0425677596553 0.0177777777778
f 15 1 18
f 4 1 15
f 12 10 17
f 13 17 10
f 20 17 13
f 20 12 17
f 20 23 6
f 20 6 12
f 3 7 2
f 3 2 1
f 3 1 4
f 5 10 12
f 5 13 10
f 5 4 15
f 9 12 6
f 9 4 5
f 16 15 18
f 16 18 19
f 14 20 13
f 14 5 15
f 14 13 5
f 24 16 19
f 8 7 3
f 8 6 7
f 8 9 6
f 8 3 4
f 8 4 9
f 11 5 12
f 11 12 9
f 11 9 5
f 21 24 23
f 21 23 20
f 21 14 15
f 21 20 14
f 22 16 24
f 22 24 21
f 22 15 16
f 22 21 15
f 6 23 18
f 6 18 1
f 2 6 1
f 2 7 6
f 24 18 23
f 24 19 18
