# Parametric PetalDock simulation geometry; SI units
v -0.0397918452304 0.0302755520702 0.014
v -0.0397918452304 0.0302755520702 0.014873191979
v -0.0397312657532 0.0302294602867 0.0148928482204
v -0.0395587499978 0.0300982019923 0.0149095119772
v -0.0394173213813 0.030761579529 0.014
v -0.0394173213813 0.030761579529 0.0145588428665
v -0.0393573120827 0.0307147478127 0.014571422861
v -0.0393005619241 0.0299017600725 0.0149206463435
v -0.0391864200586 0.0305813823682 0.0145820876654
v -0.0389960083258 0.0296700410288 0.014924556213
v -0.0389306620705 0.0303817868752 0.0145892136598
v -0.0386289749537 0.0301463479385 0.0145917159763
v -0.0262626178521 0.0199818643663 0.014924556213
v -0.0260154321117 0.0203026424892 0.0145917159763
v -0.0259580642538 0.0197501453227 0.0149206463435
v -0.0257137449949 0.0200672035524 0.0145892136598
v -0.0256998761801 0.0195537034029 0.0149095119772
v -0.0255273604247 0.0194224451085 0.0148928482204
v -0.0254667809475 0.0193763533249 0.014
v -0.0254667809475 0.0193763533249 0.014873191979
v -0.0254579870068 0.0198676080595 0.0145820876654
v -0.0252870949827 0.0197342426149 0.014571422861
v -0.0252270856841 0.0196874108986 0.014
v -0.0252270856841 0.0196874108986 0.0145588428665
f 21 23 12
f 13 20 17
f 13 10 2
f 13 1 19
f 13 2 1
f 13 19 20
f 9 5 6
f 22 21 17
f 22 23 21
f 15 17 21
f 15 13 17
f 11 12 9
f 11 10 13
f 11 13 12
f 18 17 20
f 18 22 17
f 24 23 22
f 24 18 20
f 24 22 18
f 14 21 12
f 14 12 13
f 14 13 15
f 3 6 2
f 3 2 4
f 8 2 10
f 8 4 2
f 8 9 4
f 8 10 11
f 8 11 9
f 16 15 21
f 16 21 14
f 16 14 15
f 7 6 3
f 7 3 4
f 7 9 6
f 7 4 9
f 19 5 23
f 19 1 5
f 6 5 1
f 6 1 2
f 9 23 5
f 9 12 23
f 24 19 23
f 24 20 19
