# Parametric PetalDock simulation geometry; SI units
v -0.0419112352777 -0.0272662494211 0.014
v -0.0419112352777 -0.0272662494211 0.0170512820513
v -0.0418474292213 -0.0272247390281 0.0171199688212
v -0.0416657249456 -0.0271065274299 0.017178198653
v -0.0415734806151 -0.027778511651 0.014
v -0.0415734806151 -0.027778511651 0.016688034188
v -0.0415101887595 -0.0277362213851 0.0167485439615
v -0.0413937852796 -0.026929611271 0.0172171065828
v -0.041329948804 -0.0276157888972 0.0167998416705
v -0.0410730105722 -0.0267209244327 0.0172307692308
v -0.041060200648 -0.0274355489417 0.0168341177039
v -0.0407420110028 -0.027222941418 0.0168461538462
v -0.0276614152833 -0.0179957246179 0.0172307692308
v -0.027438497206 -0.0183338176896 0.0168461538462
v -0.0273406405759 -0.0177870377796 0.0172171065828
v -0.0271203075608 -0.018121210166 0.0168341177039
v -0.0270687009099 -0.0176101216207 0.017178198653
v -0.0268869966342 -0.0174919100226 0.0171199688212
v -0.0268505594048 -0.0179409702105 0.0167998416705
v -0.0268231905778 -0.0174503996295 0.014
v -0.0268231905778 -0.0174503996295 0.0170512820513
v -0.0266703194493 -0.0178205377225 0.0167485439615
v -0.0266070275937 -0.0177782474566 0.014
v -0.0266070275937 -0.0177782474566 0.016688034188
f 16 5 23
f 13 10 12
f 9 5 16
f 9 16 12
f 9 6 5
f 15 17 21
f 15 21 13
f 14 12 16
f 14 13 12
f 14 16 15
f 14 15 13
f 11 12 10
f 11 9 12
f 3 2 6
f 22 23 24
f 8 11 10
f 8 9 11
f 8 10 13
f 7 6 9
f 7 3 6
f 19 16 23
f 19 23 22
f 19 22 17
f 19 17 15
f 19 15 16
f 18 24 21
f 18 22 24
f 18 21 17
f 18 17 22
f 4 2 3
f 4 1 2
f 4 9 8
f 4 20 1
f 4 7 9
f 4 3 7
f 4 21 20
f 4 13 21
f 4 8 13
f 20 23 5
f 20 5 1
f 6 1 5
f 6 2 1
f 24 23 20
f 24 20 21
