# Parametric PetalDock simulation geometry; SI units
v -0.0067290354254 -0.0495451317714 0.014
v -0.0067290354254 -0.0495451317714 0.030126808021
v -0.0067187910789 -0.0494697037995 0.030489835212
v -0.0066896176485 -0.049254903109 0.030797594804
v -0.0066459565243 -0.0489334311576 0.031003233189
v -0.0065944547168 -0.048554229136 0.031075443787
v -0.00612053376 -0.0496239767299 0.014
v -0.00612053376 -0.0496239767299 0.0304411571335
v -0.0061112158021 -0.0495484287238 0.0308112605713
v -0.0060846805033 -0.0493332862044 0.0311250191158
v -0.0060449676221 -0.0490113026702 0.0313346658727
v -0.0059981230848 -0.0486314971953 0.0314082840237
v -0.0044411633807 -0.0326997869691 0.031075443787
v -0.0043896615733 -0.0323205849475 0.031003233189
v -0.0043460004491 -0.0319991129961 0.030797594804
v -0.0043168270187 -0.0317843123055 0.030489835212
v -0.0043065826722 -0.0317088843337 0.014
v -0.0043065826722 -0.0317088843337 0.030126808021
v -0.0040395522816 -0.0327518246418 0.0314082840237
v -0.0039927077442 -0.0323720191669 0.0313346658727
v -0.0039529948631 -0.0320500356327 0.0311250191158
v -0.0039264595642 -0.0318348931133 0.0308112605713
v -0.0039171416064 -0.0317593451072 0.014
v -0.0039171416064 -0.0317593451072 0.0304411571335
f 2 4 1
f 14 6 13
f 19 6 12
f 19 13 6
f 11 4 10
f 3 4 2
f 3 10 4
f 16 15 21
f 16 14 15
f 16 18 17
f 16 17 1
f 16 1 4
f 16 4 14
f 5 14 4
f 5 6 14
f 5 4 11
f 5 12 6
f 5 11 12
f 20 14 13
f 20 13 19
f 20 21 15
f 20 15 14
f 20 19 12
f 20 12 11
f 22 20 23
f 22 21 20
f 22 16 21
f 22 18 16
f 9 20 11
f 9 8 7
f 9 7 23
f 9 23 20
f 9 11 10
f 9 10 3
f 9 2 8
f 9 3 2
f 24 22 23
f 24 18 22
f 17 23 7
f 17 7 1
f 2 1 7
f 2 7 8
f 24 23 17
f 24 17 18
