# Parametric PetalDock simulation geometry; SI units
v 0.0167868698457 0.0272433661794 0.014
v 0.0167868698457 0.0272433661794 0.0177777777778
v 0.0168268018576 0.0273081717347 0.0178628185405
v 0.0169405186064 0.0274927223422 0.017934912618
v 0.017110707748 0.027768921845 0.0179830843406
v 0.0171199238364 0.027035314088 0.014
v 0.0171199238364 0.027035314088 0.0174145299145
v 0.0171606481053 0.0270996247363 0.0174913936809
v 0.0172766210113 0.0272827659681 0.0175565556355
v 0.0173114595284 0.0280947213725 0.018
v 0.0174501867308 0.027556856191 0.0176000954617
v 0.0176549214563 0.0278801676532 0.0176153846154
v 0.0257048944512 0.0417164044622 0.018
v 0.0259056462316 0.0420422039896 0.0179830843406
v 0.0260758353732 0.0423184034924 0.017934912618
v 0.026189552122 0.0425029541 0.0178628185405
v 0.0262148833745 0.0413978246972 0.0176153846154
v 0.0262294841339 0.0425677596553 0.014
v 0.0262294841339 0.0425677596553 0.0177777777778
v 0.0264196181 0.0417211361594 0.0176000954617
v 0.0265931838194 0.0419952263823 0.0175565556355
v 0.0267091567254 0.0421783676141 0.0174913936809
v 0.0267498809944 0.0422426782625 0.014
v 0.0267498809944 0.0422426782625 0.0174145299145
f 13 18 1
f 2 13 1
f 16 18 13
f 16 13 15
f 19 18 16
f 3 2 7
f 5 10 13
f 5 13 2
f 5 2 3
f 5 3 4
f 24 20 23
f 24 21 20
f 24 19 16
f 12 6 23
f 12 23 20
f 12 10 5
f 14 15 13
f 14 13 20
f 14 21 15
f 14 20 21
f 22 21 24
f 22 24 16
f 22 15 21
f 22 16 15
f 11 7 6
f 11 6 12
f 11 12 5
f 17 10 12
f 17 12 20
f 17 13 10
f 17 20 13
f 8 7 11
f 8 3 7
f 8 4 3
f 9 4 8
f 9 8 11
f 9 5 4
f 9 11 5
f 6 18 23
f 6 1 18
f 2 1 6
f 2 6 7
f 24 23 18
f 24 18 19
