# Parametric PetalDock simulation geometry; SI units
v -0.0213777546715 0.0451994646562 0.014
v -0.0213777546715 0.0451994646562 0.021047008547
v -0.0213452089779 0.0451306525686 0.0212056422775
v -0.021252526684 0.0449346923223 0.0213401254606
v -0.0211138178288 0.0446414170886 0.0214299842507
v -0.0209501995781 0.044295475363 0.0214615384615
v -0.0208214780049 0.0454583991545 0.014
v -0.0208214780049 0.0454583991545 0.0214102564103
v -0.0207897791921 0.0453891928626 0.0215770671372
v -0.0206995086106 0.0451921100175 0.0217184824431
v -0.0205644091382 0.0448971546958 0.0218129731296
v -0.0204050484448 0.0445492311714 0.0218461538462
v -0.0141093180832 0.0298316466731 0.0214615384615
v -0.0139456998325 0.0294857049476 0.0214299842507
v -0.0138069909773 0.0291924297138 0.0213401254606
v -0.0137421754832 0.030002543442 0.0218461538462
v -0.0137143086834 0.0289964694675 0.0212056422775
v -0.0136817629898 0.02892765738 0.014
v -0.0136817629898 0.02892765738 0.021047008547
v -0.0135828147898 0.0296546199176 0.0218129731296
v -0.0134477153174 0.0293596645959 0.0217184824431
v -0.0133574447359 0.0291625817508 0.0215770671372
v -0.0133257459231 0.0290933754589 0.014
v -0.0133257459231 0.0290933754589 0.0214102564103
f 10 23 7
f 10 7 8
f 9 10 8
f 16 11 12
f 16 10 11
f 16 23 10
f 5 12 11
f 20 15 21
f 17 21 15
f 17 18 19
f 6 16 12
f 6 12 5
f 4 11 10
f 4 5 11
f 4 6 5
f 4 1 18
f 4 18 17
f 4 17 6
f 24 23 16
f 13 16 6
f 13 20 16
f 13 17 15
f 13 6 17
f 3 10 9
f 3 4 10
f 22 16 20
f 22 24 16
f 22 20 21
f 22 21 17
f 22 19 24
f 22 17 19
f 14 15 20
f 14 13 15
f 14 20 13
f 2 9 8
f 2 3 9
f 2 1 4
f 2 4 3
f 18 7 23
f 18 1 7
f 24 18 23
f 24 19 18
f 2 7 1
f 2 8 7
