# Parametric PetalDock simulation geometry; SI units
v 0.0118821502065 0.0297121945751 0.014
v 0.0118821502065 0.0297121945751 0.0228632478632
v 0.0119104150448 0.0297828728921 0.0230627665758
v 0.0119909064946 0.0299841477097 0.0232319103731
v 0.0121113704621 0.0302853767618 0.0233449286452
v 0.0122458698357 0.0295641450404 0.014
v 0.0122458698357 0.0295641450404 0.0225
v 0.0122534674004 0.0306407006556 0.0233846153846
v 0.0122749998775 0.0296344711823 0.0226913417162
v 0.012357955218 0.0298347430904 0.0228535533906
v 0.0124821066586 0.0301344711823 0.0229619397663
v 0.012628553268 0.0304880245729 0.023
v 0.0181945425036 0.0454967979432 0.0233846153846
v 0.0183366394419 0.045852121837 0.0233449286452
v 0.0184571034095 0.0461533508891 0.0232319103731
v 0.0185375948592 0.0463546257067 0.0230627665758
v 0.0185658596976 0.0464253040237 0.014
v 0.0185658596976 0.0464253040237 0.0228632478632
v 0.0187514881859 0.0452700970931 0.023
v 0.0188979347953 0.0456236504836 0.0229619397663
v 0.019022086236 0.0459233785755 0.0228535533906
v 0.0191050415765 0.0461236504836 0.0226913417162
v 0.0191341716183 0.0461939766256 0.014
v 0.0191341716183 0.0461939766256 0.0225
f 18 17 13
f 10 6 23
f 14 21 15
f 14 18 13
f 3 2 7
f 3 1 2
f 3 17 1
f 3 13 17
f 9 7 6
f 9 6 10
f 9 3 7
f 9 10 4
f 9 4 3
f 19 13 8
f 5 4 10
f 5 3 4
f 5 8 13
f 5 13 3
f 16 14 15
f 16 18 14
f 16 24 18
f 22 23 24
f 22 10 23
f 22 21 10
f 22 24 16
f 22 15 21
f 22 16 15
f 12 19 8
f 12 8 5
f 20 10 21
f 20 21 14
f 20 12 10
f 20 19 12
f 20 14 13
f 20 13 19
f 11 5 10
f 11 10 12
f 11 12 5
f 6 17 23
f 6 1 17
f 2 1 6
f 2 6 7
f 24 23 17
f 24 17 18
