# Parametric PetalDock simulation geometry; SI units
v -0.049996235092 0.0006135769143 0.014
v -0.049996235092 0.0006135769143 0.031
v -0.0499849409348 0.0012270614261 0.014
v -0.0499849409348 0.0012270614261 0.031
v -0.0499201203562 0.0006126427991 0.0313826834324
v -0.0499088433934 0.0012251933364 0.0313826834324
v -0.0497033639275 0.0006099826639 0.0317071067812
v -0.04969213593 0.0012198734667 0.0317071067812
v -0.0493789650071 0.0006060014904 0.0319238795325
v -0.0493678102914 0.0012119117192 0.0319238795325
v -0.0489963103901 0.000601305376 0.032
v -0.0489852421161 0.0012025201976 0.032
v -0.0329975151607 0.0004049607634 0.032
v -0.032990061017 0.0008098605413 0.032
v -0.0326148605437 0.000400264649 0.0319238795325
v -0.0326074928417 0.0008004690197 0.0319238795325
v -0.0322904616233 0.0003962834755 0.0317071067812
v -0.0322831672031 0.0007925072721 0.0317071067812
v -0.0320737051946 0.0003936233404 0.0313826834324
v -0.0320664597397 0.0007871874025 0.0313826834324
v -0.0319975904589 0.0003926892251 0.014
v -0.0319975904589 0.0003926892251 0.031
v -0.0319903621983 0.0007853193127 0.014
v -0.0319903621983 0.0007853193127 0.031
f 7 2 1
f 7 1 21
f 20 23 14
f 20 24 23
f 6 4 2
f 6 7 8
f 6 3 4
f 6 23 3
f 6 14 23
f 9 7 11
f 5 2 7
f 5 6 2
f 5 7 6
f 10 6 8
f 10 8 7
f 10 7 9
f 10 11 12
f 10 9 11
f 10 12 14
f 10 14 6
f 13 11 7
f 13 7 15
f 19 24 20
f 16 20 14
f 16 18 20
f 16 14 13
f 16 13 15
f 22 24 19
f 22 7 21
f 22 15 7
f 17 20 18
f 17 19 20
f 17 16 15
f 17 18 16
f 17 15 22
f 17 22 19
f 21 3 23
f 21 1 3
f 4 3 1
f 4 1 2
f 13 14 12
f 13 12 11
f 22 21 23
f 22 23 24
