# Parametric PetalDock simulation geometry; SI units
v -0.0191341716183 -0.0461939766256 0.014
v -0.0191341716183 -0.0461939766256 0.0225
v -0.0191050415765 -0.0461236504836 0.0226913417162
v -0.019022086236 -0.0459233785755 0.0228535533906
v -0.0188979347953 -0.0456236504836 0.0229619397663
v -0.0187514881859 -0.0452700970931 0.023
v -0.0185658596976 -0.0464253040237 0.014
v -0.0185658596976 -0.0464253040237 0.0228632478632
v -0.0185375948592 -0.0463546257067 0.0230627665758
v -0.0184571034095 -0.0461533508891 0.0232319103731
v -0.0183366394419 -0.045852121837 0.0233449286452
v -0.0181945425036 -0.0454967979432 0.0233846153846
v -0.012628553268 -0.0304880245729 0.023
v -0.0124821066586 -0.0301344711823 0.0229619397663
v -0.012357955218 -0.0298347430904 0.0228535533906
v -0.0122749998775 -0.0296344711823 0.0226913417162
v -0.0122534674004 -0.0306407006556 0.0233846153846
v -0.0122458698357 -0.0295641450404 0.014
v -0.0122458698357 -0.0295641450404 0.0225
v -0.0121113704621 -0.0302853767618 0.0233449286452
v -0.0119909064946 -0.0299841477097 0.0232319103731
v -0.0119104150448 -0.0297828728921 0.0230627665758
v -0.0118821502065 -0.0297121945751 0.014
v -0.0118821502065 -0.0297121945751 0.0228632478632
f 8 7 12
f 18 1 15
f 11 8 12
f 22 7 23
f 22 12 7
f 9 8 11
f 9 11 10
f 5 11 12
f 24 22 23
f 20 21 15
f 20 22 21
f 20 12 22
f 20 17 12
f 6 12 17
f 6 5 12
f 4 10 11
f 4 11 5
f 4 5 15
f 19 22 24
f 14 20 15
f 13 15 5
f 13 5 6
f 13 14 15
f 13 6 17
f 13 17 20
f 13 20 14
f 3 9 10
f 3 10 4
f 3 15 1
f 3 4 15
f 16 19 18
f 16 18 15
f 16 22 19
f 16 15 21
f 16 21 22
f 2 8 9
f 2 9 3
f 2 3 1
f 18 23 7
f 18 7 1
f 19 23 18
f 19 24 23
f 2 1 7
f 2 7 8
