# Parametric PetalDock simulation geometry; SI units
v 0.0136817629898 -0.02892765738 0.014
v 0.0136817629898 -0.02892765738 0.021047008547
v 0.0137143086834 -0.0289964694675 0.0212056422775
v 0.0138069909773 -0.0291924297138 0.0213401254606
v 0.0139456998325 -0.0294857049476 0.0214299842507
v 0.0140357196332 -0.0287575829022 0.014
v 0.0140357196332 -0.0287575829022 0.0206837606838
v 0.0140691073064 -0.0288259904227 0.0208342174179
v 0.0141093180832 -0.0298316466731 0.0214615384615
v 0.0141641873552 -0.0290207985591 0.0209617684781
v 0.0143064847041 -0.0293123495388 0.0210469953718
v 0.0144743358718 -0.0296562573679 0.0210769230769
v 0.0209501995781 -0.044295475363 0.0214615384615
v 0.0211138178288 -0.0446414170886 0.0214299842507
v 0.021252526684 -0.0449346923223 0.0213401254606
v 0.0213452089779 -0.0451306525686 0.0212056422775
v 0.0213777546715 -0.0451994646562 0.014
v 0.0213777546715 -0.0451994646562 0.021047008547
v 0.0214921956884 -0.044035048819 0.0210769230769
v 0.021660046856 -0.0443789566481 0.0210469953718
v 0.021802344205 -0.0446705076278 0.0209617684781
v 0.0218974242538 -0.0448653157642 0.0208342174179
v 0.0219308119269 -0.0449337232847 0.014
v 0.0219308119269 -0.0449337232847 0.0206837606838
f 14 16 15
f 14 15 21
f 18 16 17
f 10 23 6
f 24 16 18
f 3 7 2
f 3 2 4
f 19 9 13
f 8 6 7
f 8 10 6
f 8 7 3
f 8 4 10
f 8 3 4
f 5 10 4
f 5 17 16
f 5 16 14
f 5 1 17
f 5 13 9
f 5 14 13
f 5 2 1
f 5 4 2
f 22 24 23
f 22 19 21
f 22 16 24
f 22 23 10
f 22 10 19
f 22 15 16
f 22 21 15
f 12 9 19
f 12 19 10
f 12 5 9
f 20 14 21
f 20 21 19
f 20 13 14
f 20 19 13
f 11 10 5
f 11 12 10
f 11 5 12
f 6 23 17
f 6 17 1
f 2 6 1
f 2 7 6
f 24 17 23
f 24 18 17
