# Parametric PetalDock simulation geometry; SI units
v 0.0319903621983 -0.0007853193127 0.014
v 0.0319903621983 -0.0007853193127 0.031
v 0.0319975904589 -0.0003926892251 0.014
v 0.0319975904589 -0.0003926892251 0.031
v 0.0320664597397 -0.0007871874025 0.0313826834324
v 0.0320737051946 -0.0003936233404 0.0313826834324
v 0.0322831672031 -0.0007925072721 0.0317071067812
v 0.0322904616233 -0.0003962834755 0.0317071067812
v 0.0326074928417 -0.0008004690197 0.0319238795325
v 0.0326148605437 -0.000400264649 0.0319238795325
v 0.032990061017 -0.0008098605413 0.032
v 0.0329975151607 -0.0004049607634 0.032
v 0.0489852421161 -0.0012025201976 0.032
v 0.0489963103901 -0.000601305376 0.032
v 0.0493678102914 -0.0012119117192 0.0319238795325
v 0.0493789650071 -0.0006060014904 0.0319238795325
v 0.04969213593 -0.0012198734667 0.0317071067812
v 0.0497033639275 -0.0006099826639 0.0317071067812
v 0.0499088433934 -0.0012251933364 0.0313826834324
v 0.0499201203562 -0.0006126427991 0.0313826834324
v 0.0499849409348 -0.0012270614261 0.014
v 0.0499849409348 -0.0012270614261 0.031
v 0.049996235092 -0.0006135769143 0.014
v 0.049996235092 -0.0006135769143 0.031
f 19 1 21
f 19 11 1
f 18 17 19
f 18 23 3
f 18 3 4
f 15 11 19
f 15 19 17
f 15 17 18
f 22 19 21
f 24 23 18
f 24 19 22
f 5 2 1
f 5 1 11
f 10 18 4
f 10 12 18
f 14 18 12
f 20 18 19
f 20 19 24
f 20 24 18
f 8 10 4
f 8 5 7
f 9 11 12
f 9 12 10
f 9 5 11
f 9 7 5
f 9 8 7
f 9 10 8
f 16 15 18
f 16 18 14
f 16 14 15
f 13 11 15
f 13 15 14
f 6 8 4
f 6 5 8
f 6 4 2
f 6 2 5
f 3 23 21
f 3 21 1
f 2 3 1
f 2 4 3
f 24 21 23
f 24 22 21
f 13 14 12
f 13 12 11
