# Parametric PetalDock simulation geometry; SI units
v -0.0224805664827 0.0446612150598 0.014
v -0.0224805664827 0.0446612150598 0.0203205128205
v -0.0224463418581 0.0445932224084 0.0204627925582
v -0.0223488783732 0.0443995957191 0.0205834114956
v -0.0222030139599 0.0441098129 0.0206640064929
v -0.0220309551531 0.0437679907586 0.0206923076923
v -0.0219308119269 0.0449337232847 0.014
v -0.0219308119269 0.0449337232847 0.0206837606838
v -0.0218974242538 0.0448653157642 0.0208342174179
v -0.021802344205 0.0446705076278 0.0209617684781
v -0.021660046856 0.0443789566481 0.0210469953718
v -0.0214921956884 0.044035048819 0.0210769230769
v -0.0148371738786 0.0294764019395 0.0206923076923
v -0.0146651150717 0.029134579798 0.0206640064929
v -0.0145192506585 0.028844796979 0.0205834114956
v -0.0144743358718 0.0296562573679 0.0210769230769
v -0.0144217871735 0.0286511702896 0.0204627925582
v -0.0143875625489 0.0285831776383 0.014
v -0.0143875625489 0.0285831776383 0.0203205128205
v -0.0143064847041 0.0293123495388 0.0210469953718
v -0.0141641873552 0.0290207985591 0.0209617684781
v -0.0140691073064 0.0288259904227 0.0208342174179
v -0.0140357196332 0.0287575829022 0.014
v -0.0140357196332 0.0287575829022 0.0206837606838
f 9 10 8
f 11 8 10
f 11 23 7
f 11 7 8
f 5 12 11
f 20 15 21
f 20 11 12
f 20 12 16
f 17 21 15
f 17 15 18
f 17 18 19
f 6 16 12
f 6 12 5
f 4 11 10
f 4 5 11
f 4 6 5
f 4 1 18
f 22 20 21
f 22 21 17
f 22 17 19
f 24 23 11
f 24 11 20
f 24 20 22
f 24 22 19
f 13 6 15
f 13 16 6
f 13 20 16
f 3 10 9
f 3 4 10
f 14 15 20
f 14 13 15
f 14 20 13
f 2 9 8
f 2 3 9
f 2 1 4
f 2 4 3
f 18 7 23
f 18 1 7
f 4 15 6
f 4 18 15
f 24 18 23
f 24 19 18
f 2 7 1
f 2 8 7
