# Parametric PetalDock simulation geometry; SI units
v -0.0168444926696 -0.0470772032592 0.014
v -0.0168444926696 -0.0470772032592 0.023952991453
v -0.0168188484565 -0.0470055324847 0.0241770411548
v -0.0167458199161 -0.0468014313872 0.0243669813206
v -0.0166365249816 -0.0464959725086 0.0244938952819
v -0.0165076028162 -0.046135659194 0.0245384615385
v -0.0162655146081 -0.047280366269 0.014
v -0.0162655146081 -0.047280366269 0.0243162393162
v -0.0162407518366 -0.0472083861974 0.0245484660145
v -0.0161702334295 -0.0470034042958 0.0247453383031
v -0.0160646951751 -0.0466966272006 0.0248768841608
v -0.015940204316 -0.0463347589436 0.0249230769231
v -0.0111173651619 -0.031070954151 0.0245384615385
v -0.0109884429965 -0.0307106408365 0.0244938952819
v -0.0108791480621 -0.0304051819578 0.0243669813206
v -0.0108061195217 -0.0302010808603 0.0241770411548
v -0.0107804753086 -0.0301294100859 0.014
v -0.0107804753086 -0.0301294100859 0.023952991453
v -0.0107352396414 -0.0312050417376 0.0249230769231
v -0.0106107487822 -0.0308431734806 0.0248768841608
v -0.0105052105278 -0.0305363963854 0.0247453383031
v -0.0104346921207 -0.0303314144838 0.0245484660145
v -0.0104099293492 -0.0302594344122 0.014
v -0.0104099293492 -0.0302594344122 0.0243162393162
f 10 8 7
f 9 8 10
f 19 12 11
f 5 11 12
f 20 21 15
f 24 11 23
f 16 15 21
f 16 18 15
f 6 12 19
f 6 5 12
f 4 10 11
f 4 11 5
f 4 5 6
f 4 17 1
f 4 18 17
f 4 15 18
f 22 19 11
f 22 11 24
f 22 20 19
f 22 21 20
f 22 16 21
f 22 24 18
f 22 18 16
f 13 6 19
f 13 19 20
f 13 15 4
f 13 4 6
f 3 9 10
f 3 10 4
f 3 4 1
f 14 20 15
f 14 15 13
f 14 13 20
f 2 8 9
f 2 9 3
f 2 3 1
f 17 23 7
f 17 7 1
f 11 7 23
f 11 10 7
f 24 23 17
f 24 17 18
f 2 1 7
f 2 7 8
