# Parametric PetalDock simulation geometry; SI units
v 0.0319783163068 -0.0011778311341 0.014
v 0.0319783163068 -0.0011778311341 0.031
v 0.0319903621983 -0.0007853193127 0.014
v 0.0319903621983 -0.0007853193127 0.031
v 0.0320543851939 -0.0011806329171 0.0313826834324
v 0.0320664597397 -0.0007871874025 0.0313826834324
v 0.0322710110567 -0.0011886117201 0.0317071067812
v 0.0322831672031 -0.0007925072721 0.0317071067812
v 0.0325952145712 -0.0012005528427 0.0319238795325
v 0.0326074928417 -0.0008004690197 0.0319238795325
v 0.0329776386914 -0.0012146383571 0.032
v 0.032990061017 -0.0008098605413 0.032
v 0.0489667968448 -0.0018035539241 0.032
v 0.0489852421161 -0.0012025201976 0.032
v 0.049349220965 -0.0018176394385 0.0319238795325
v 0.0493678102914 -0.0012119117192 0.0319238795325
v 0.0496734244796 -0.0018295805611 0.0317071067812
v 0.04969213593 -0.0012198734667 0.0317071067812
v 0.0498900503423 -0.0018375593641 0.0313826834324
v 0.0499088433934 -0.0012251933364 0.0313826834324
v 0.0499661192294 -0.0018403611471 0.014
v 0.0499661192294 -0.0018403611471 0.031
v 0.0499849409348 -0.0012270614261 0.014
v 0.0499849409348 -0.0012270614261 0.031
f 19 21 22
f 8 23 3
f 8 3 4
f 13 11 17
f 20 19 22
f 20 17 19
f 20 18 17
f 24 23 8
f 24 8 18
f 24 18 20
f 24 20 22
f 14 18 8
f 9 8 7
f 9 2 1
f 9 1 21
f 9 21 19
f 9 17 11
f 9 19 17
f 6 4 2
f 6 8 4
f 16 17 18
f 16 18 14
f 16 14 13
f 5 6 2
f 5 2 9
f 5 9 7
f 5 7 8
f 5 8 6
f 10 12 14
f 10 14 8
f 10 8 9
f 10 11 12
f 10 9 11
f 15 13 17
f 15 17 16
f 15 16 13
f 3 23 21
f 3 21 1
f 2 3 1
f 2 4 3
f 24 21 23
f 24 22 21
f 12 13 14
f 12 11 13
