# Parametric PetalDock simulation geometry; SI units
v 0.0122458698357 -0.0295641450404 0.014
v 0.0122458698357 -0.0295641450404 0.0225
v 0.0122749998775 -0.0296344711823 0.0226913417162
v 0.012357955218 -0.0298347430904 0.0228535533906
v 0.0124821066586 -0.0301344711823 0.0229619397663
v 0.012607745282 -0.0294116432541 0.014
v 0.012607745282 -0.0294116432541 0.0221367521368
v 0.012628553268 -0.0304880245729 0.023
v 0.0126377361402 -0.0294816066301 0.0223199168565
v 0.0127231428788 -0.0296808454686 0.0224751964081
v 0.0128509630958 -0.0299790274623 0.0225789508874
v 0.013001737322 -0.0303307571058 0.0226153846154
v 0.0187514881859 -0.0452700970931 0.023
v 0.0188979347953 -0.0456236504836 0.0229619397663
v 0.019022086236 -0.0459233785755 0.0228535533906
v 0.0191050415765 -0.0461236504836 0.0226913417162
v 0.0191341716183 -0.0461939766256 0.014
v 0.0191341716183 -0.0461939766256 0.0225
v 0.019305609963 -0.0450365787328 0.0226153846154
v 0.0194563841892 -0.0453883083763 0.0225789508874
v 0.0195842044063 -0.04568649037 0.0224751964081
v 0.0196696111448 -0.0458857292084 0.0223199168565
v 0.0196996020031 -0.0459556925845 0.014
v 0.0196996020031 -0.0459556925845 0.0221367521368
f 8 1 17
f 13 8 17
f 13 16 15
f 21 23 6
f 21 6 7
f 18 13 17
f 18 16 13
f 14 13 15
f 14 15 21
f 24 23 21
f 24 16 18
f 3 7 2
f 19 12 8
f 19 8 13
f 10 21 7
f 10 19 21
f 5 8 12
f 5 4 3
f 5 10 4
f 5 3 2
f 5 2 1
f 5 1 8
f 22 16 24
f 22 24 21
f 22 15 16
f 22 21 15
f 20 14 21
f 20 21 19
f 20 13 14
f 20 19 13
f 11 12 19
f 11 19 10
f 11 5 12
f 11 10 5
f 9 3 4
f 9 4 10
f 9 7 3
f 9 10 7
f 6 23 17
f 6 17 1
f 2 6 1
f 2 7 6
f 24 17 23
f 24 18 17
