# Parametric PetalDock simulation geometry; SI units
v -0.027778511651 -0.0415734806151 0.014
v -0.027778511651 -0.0415734806151 0.016688034188
v -0.0277362213851 -0.0415101887595 0.0167485439615
v -0.0276157888972 -0.041329948804 0.0167998416705
v -0.0274355489417 -0.041060200648 0.0168341177039
v -0.0272662494211 -0.0419112352777 0.014
v -0.0272662494211 -0.0419112352777 0.0170512820513
v -0.0272247390281 -0.0418474292213 0.0171199688212
v -0.027222941418 -0.0407420110028 0.0168461538462
v -0.0271065274299 -0.0416657249456 0.017178198653
v -0.026929611271 -0.0413937852796 0.0172171065828
v -0.0267209244327 -0.0410730105722 0.0172307692308
v -0.0183338176896 -0.027438497206 0.0168461538462
v -0.018121210166 -0.0271203075608 0.0168341177039
v -0.0179957246179 -0.0276614152833 0.0172307692308
v -0.0179409702105 -0.0268505594048 0.0167998416705
v -0.0178205377225 -0.0266703194493 0.0167485439615
v -0.0177870377796 -0.0273406405759 0.0172171065828
v -0.0177782474566 -0.0266070275937 0.014
v -0.0177782474566 -0.0266070275937 0.016688034188
v -0.0176101216207 -0.0270687009099 0.017178198653
v -0.0174919100226 -0.0268869966342 0.0171199688212
v -0.0174503996295 -0.0268231905778 0.014
v -0.0174503996295 -0.0268231905778 0.0170512820513
f 10 7 6
f 10 6 23
f 10 8 7
f 24 10 23
f 11 4 10
f 3 8 10
f 3 10 4
f 5 4 11
f 5 9 4
f 5 11 12
f 5 12 9
f 14 4 9
f 14 1 4
f 14 9 13
f 14 19 1
f 14 16 19
f 2 7 8
f 2 8 3
f 2 4 1
f 2 3 4
f 17 20 19
f 17 19 16
f 17 16 21
f 15 13 9
f 15 9 12
f 15 12 11
f 15 11 10
f 15 10 24
f 22 24 20
f 22 20 17
f 22 21 24
f 22 17 21
f 18 14 13
f 18 13 15
f 18 21 16
f 18 16 14
f 18 24 21
f 18 15 24
f 19 23 6
f 19 6 1
f 20 23 19
f 20 24 23
f 2 1 6
f 2 6 7
