# Parametric PetalDock simulation geometry; SI units
v -0.00612053376 0.0496239767299 0.014
v -0.00612053376 0.0496239767299 0.0304411571335
v -0.0061112158021 0.0495484287238 0.0308112605713
v -0.0060846805033 0.0493332862044 0.0311250191158
v -0.0060449676221 0.0490113026702 0.0313346658727
v -0.0059981230848 0.0486314971953 0.0314082840237
v -0.0055111103647 0.0496953485001 0.014
v -0.0055111103647 0.0496953485001 0.0306856508876
v -0.0055027201987 0.0496196918369 0.031061258073
v -0.0054788270276 0.0494042398885 0.0313796824694
v -0.00544306837 0.0490817932608 0.0315924468488
v -0.0054008881574 0.0487014415301 0.0316671597633
v -0.0040395522816 0.0327518246418 0.0314082840237
v -0.0039927077442 0.0323720191669 0.0313346658727
v -0.0039529948631 0.0320500356327 0.0311250191158
v -0.0039264595642 0.0318348931133 0.0308112605713
v -0.0039171416064 0.0317593451072 0.014
v -0.0039171416064 0.0317593451072 0.0304411571335
v -0.0036373328407 0.0327989300101 0.0316671597633
v -0.0035951526281 0.0324185782793 0.0315924468488
v -0.0035593939705 0.0320961316517 0.0313796824694
v -0.0035355007994 0.0318806797033 0.031061258073
v -0.0035271106334 0.0318050230401 0.014
v -0.0035271106334 0.0318050230401 0.0306856508876
f 17 15 1
f 9 7 8
f 9 23 7
f 2 6 4
f 2 9 8
f 2 1 15
f 2 15 6
f 18 15 17
f 24 23 9
f 5 6 12
f 5 4 6
f 13 6 15
f 3 2 4
f 3 9 2
f 3 4 10
f 3 10 9
f 16 21 15
f 16 15 18
f 11 10 4
f 11 4 5
f 11 5 12
f 11 9 10
f 19 11 12
f 19 12 6
f 19 6 13
f 19 9 11
f 19 21 24
f 19 24 9
f 20 15 21
f 20 21 19
f 20 19 13
f 22 18 24
f 22 16 18
f 22 24 21
f 22 21 16
f 14 13 15
f 14 15 20
f 14 20 13
f 17 7 23
f 17 1 7
f 2 7 1
f 2 8 7
f 24 17 23
f 24 18 17
