# Parametric PetalDock simulation geometry; SI units
v 0.0316536483189 -0.0046953751826 0.014
v 0.0316536483189 -0.0046953751826 0.029764957265
v 0.0317088843337 -0.0043065826722 0.014
v 0.0317088843337 -0.0043065826722 0.030126808021
v 0.0317289448972 -0.0047065443749 0.0301198389095
v 0.0317843123055 -0.0043168270187 0.030489835212
v 0.0319433714109 -0.0047383515435 0.0304206930407
v 0.0319991129961 -0.0043460004491 0.030797594804
v 0.0322642833668 -0.0047859543354 0.0306217173443
v 0.0323205849475 -0.0043896615733 0.031003233189
v 0.0326428248288 -0.004842105657 0.0306923076923
v 0.0326997869691 -0.0044411633807 0.031075443787
v 0.0484696489883 -0.0071897932483 0.0306923076923
v 0.048554229136 -0.0065944547168 0.031075443787
v 0.0488481904503 -0.0072459445699 0.0306217173443
v 0.0489334311576 -0.0066459565243 0.031003233189
v 0.0491691024063 -0.0072935473618 0.0304206930407
v 0.049254903109 -0.0066896176485 0.030797594804
v 0.0493835289199 -0.0073253545305 0.0301198389095
v 0.0494588254982 -0.0073365237228 0.014
v 0.0494588254982 -0.0073365237228 0.029764957265
v 0.0494697037995 -0.0067187910789 0.030489835212
v 0.0495451317714 -0.0067290354254 0.014
v 0.0495451317714 -0.0067290354254 0.030126808021
f 19 1 20
f 14 23 3
f 14 3 12
f 5 19 11
f 21 19 20
f 13 12 11
f 13 14 12
f 22 24 23
f 22 23 14
f 22 14 16
f 22 16 18
f 22 18 19
f 22 21 24
f 22 19 21
f 8 12 3
f 8 3 4
f 8 5 7
f 2 1 19
f 2 19 5
f 9 5 11
f 9 7 5
f 15 11 19
f 15 13 11
f 15 16 14
f 15 14 13
f 6 8 4
f 6 5 8
f 6 4 2
f 6 2 5
f 10 12 8
f 10 11 12
f 10 9 11
f 10 8 7
f 10 7 9
f 17 19 18
f 17 15 19
f 17 18 16
f 17 16 15
f 3 23 20
f 3 20 1
f 21 20 23
f 21 23 24
f 2 3 1
f 2 4 3
