# Parametric PetalDock simulation geometry; SI units
v -0.0287904095709 0.0408792406576 0.014
v -0.0287904095709 0.0408792406576 0.0159615384615
v -0.0287465787822 0.0408170057194 0.0160056942422
v -0.0286217592563 0.04063977561 0.0160431277055
v -0.0284349536346 0.040374532007 0.0160681399461
v -0.0282865905392 0.0412294651393 0.014
v -0.0282865905392 0.0412294651393 0.0163247863248
v -0.0282435267693 0.041166697016 0.0163771191019
v -0.0282146013795 0.0400616558444 0.0160769230769
v -0.0281208915281 0.0409879485242 0.016421484688
v -0.0279373549195 0.0407204325011 0.016451128825
v -0.0277208587284 0.0404048758365 0.0164615384615
v -0.0190016703168 0.026980298834 0.0160769230769
v -0.0187813180617 0.0266674226715 0.0160681399461
v -0.0186691497559 0.0272114469919 0.0164615384615
v -0.01859451244 0.0264021790684 0.0160431277055
v -0.0184696929141 0.026224948959 0.0160056942422
v -0.0184526535647 0.0268958903272 0.016451128825
v -0.0184258621254 0.0261627140209 0.014
v -0.0184258621254 0.0261627140209 0.0159615384615
v -0.0182691169561 0.0266283743042 0.016421484688
v -0.018146481715 0.0264496258123 0.0163771191019
v -0.0181034179451 0.0263868576891 0.014
v -0.0181034179451 0.0263868576891 0.0163247863248
f 10 6 7
f 10 7 8
f 21 23 6
f 21 6 10
f 24 23 21
f 11 12 10
f 11 10 4
f 3 10 8
f 3 4 10
f 3 1 9
f 5 11 4
f 5 4 3
f 5 3 9
f 5 12 11
f 5 9 12
f 13 9 16
f 2 8 7
f 2 3 8
f 2 1 3
f 17 16 19
f 17 19 20
f 17 21 16
f 18 16 21
f 18 10 12
f 18 21 10
f 22 20 24
f 22 17 20
f 22 24 21
f 22 21 17
f 14 13 16
f 14 16 18
f 14 18 13
f 15 9 13
f 15 13 18
f 15 12 9
f 15 18 12
f 19 6 23
f 19 1 6
f 9 1 19
f 9 19 16
f 20 19 23
f 20 23 24
f 2 6 1
f 2 7 6
