# Parametric PetalDock simulation geometry; SI units
v 0.0244853524999 0.0206026093725 0.014
v 0.0244853524999 0.0206026093725 0.0140349276792
v 0.0245435973899 0.0206516181305 0.0140357139288
v 0.0247094648033 0.0207911832654 0.0140363804791
v 0.0247363345076 0.0203005850932 0.014
v 0.0247363345076 0.0203005850932 0.0141397107166
v 0.0247951764247 0.0203488754066 0.0141428557153
v 0.02495770293 0.0210000572507 0.0140368258537
v 0.0249627440275 0.0204863945842 0.0141455219163
v 0.0252135266674 0.0206922065779 0.014147303415
v 0.0252505197655 0.0212464409154 0.0140369822485
v 0.025509344961 0.0209349783774 0.0141479289941
v 0.0374931960155 0.0315477456016 0.0140369822485
v 0.037786012851 0.0317941292663 0.0140368258537
v 0.0378775122148 0.031085270924 0.0141479289941
v 0.0380342509778 0.0320030032515 0.0140363804791
v 0.0381733305083 0.0313280427235 0.014147303415
v 0.0382001183912 0.0321425683865 0.0140357139288
v 0.0382583632811 0.0321915771445 0.014
v 0.0382583632811 0.0321915771445 0.0140349276792
v 0.0384241131483 0.0315338547172 0.0141455219163
v 0.0385916807511 0.0316713738948 0.0141428557153
v 0.0386505226681 0.0317196642082 0.014
v 0.0386505226681 0.0317196642082 0.0141397107166
f 11 19 1
f 15 16 12
f 2 11 1
f 22 23 24
f 22 21 15
f 22 5 23
f 20 22 24
f 20 21 22
f 14 12 16
f 14 11 13
f 14 20 19
f 14 19 11
f 9 5 22
f 9 15 12
f 9 22 15
f 17 15 21
f 8 11 2
f 18 14 16
f 18 20 14
f 18 16 15
f 18 15 17
f 18 21 20
f 18 17 21
f 6 5 9
f 6 9 7
f 6 7 2
f 10 9 12
f 10 13 11
f 10 11 8
f 10 12 14
f 10 14 13
f 10 4 9
f 10 8 4
f 3 8 2
f 3 4 8
f 3 9 4
f 3 2 7
f 3 7 9
f 5 19 23
f 5 1 19
f 20 23 19
f 20 24 23
f 6 1 5
f 6 2 1
