# Parametric PetalDock simulation geometry; SI units
v -0.0451994646562 0.0213777546715 0.014
v -0.0451994646562 0.0213777546715 0.021047008547
v -0.0451306525686 0.0213452089779 0.0212056422775
v -0.0449346923223 0.021252526684 0.0213401254606
v -0.0449337232847 0.0219308119269 0.014
v -0.0449337232847 0.0219308119269 0.0206837606838
v -0.0448653157642 0.0218974242538 0.0208342174179
v -0.0446705076278 0.021802344205 0.0209617684781
v -0.0446414170886 0.0211138178288 0.0214299842507
v -0.0443789566481 0.021660046856 0.0210469953718
v -0.044295475363 0.0209501995781 0.0214615384615
v -0.044035048819 0.0214921956884 0.0210769230769
v -0.0298316466731 0.0141093180832 0.0214615384615
v -0.0296562573679 0.0144743358718 0.0210769230769
v -0.0294857049476 0.0139456998325 0.0214299842507
v -0.0293123495388 0.0143064847041 0.0210469953718
v -0.0291924297138 0.0138069909773 0.0213401254606
v -0.0290207985591 0.0141641873552 0.0209617684781
v -0.0289964694675 0.0137143086834 0.0212056422775
v -0.02892765738 0.0136817629898 0.014
v -0.02892765738 0.0136817629898 0.021047008547
v -0.0288259904227 0.0140691073064 0.0208342174179
v -0.0287575829022 0.0140357196332 0.014
v -0.0287575829022 0.0140357196332 0.0206837606838
f 18 23 5
f 12 14 18
f 3 6 2
f 3 2 1
f 9 8 4
f 9 4 3
f 19 21 24
f 7 6 3
f 7 5 6
f 7 4 8
f 7 3 4
f 7 8 12
f 7 18 5
f 7 12 18
f 10 12 8
f 10 8 9
f 10 11 12
f 10 9 11
f 15 9 3
f 15 20 21
f 15 1 20
f 15 3 1
f 15 11 9
f 22 19 24
f 22 24 23
f 22 23 18
f 17 21 19
f 17 15 21
f 17 18 15
f 17 22 18
f 17 19 22
f 13 12 11
f 13 11 15
f 13 14 12
f 13 15 14
f 16 18 14
f 16 14 15
f 16 15 18
f 20 5 23
f 20 1 5
f 6 5 1
f 6 1 2
f 24 20 23
f 24 21 20
