# Parametric PetalDock simulation geometry; SI units
v -0.0006135769143 -0.049996235092 0.014
v -0.0006135769143 -0.049996235092 0.031
v -0.0006126427991 -0.0499201203562 0.0313826834324
v -0.0006099826639 -0.0497033639275 0.0317071067812
v -0.0006060014904 -0.0493789650071 0.0319238795325
v -0.000601305376 -0.0489963103901 0.032
v -0.0004049607634 -0.0329975151607 0.032
v -0.000400264649 -0.0326148605437 0.0319238795325
v -0.0003962834755 -0.0322904616233 0.0317071067812
v -0.0003936233404 -0.0320737051946 0.0313826834324
v -0.0003926892251 -0.0319975904589 0.014
v -0.0003926892251 -0.0319975904589 0.031
v -0 -0.05 0.014
v -0 -0.05 0.031
v -0 -0.0499238795325 0.0313826834324
v -0 -0.0497071067812 0.0317071067812
v -0 -0.0493826834324 0.0319238795325
v -0 -0.049 0.032
v -0 -0.033 0.032
v -0 -0.0326173165676 0.0319238795325
v -0 -0.0322928932188 0.0317071067812
v -0 -0.0320761204675 0.0313826834324
v -0 -0.032 0.014
v -0 -0.032 0.031
f 10 11 1
f 12 11 10
f 7 19 20
f 15 2 14
f 15 16 4
f 24 10 22
f 24 12 10
f 8 7 20
f 3 2 15
f 3 15 4
f 3 4 5
f 3 1 2
f 3 10 1
f 17 18 6
f 17 6 5
f 17 4 16
f 17 5 4
f 9 6 7
f 9 5 6
f 9 7 8
f 9 10 3
f 9 3 5
f 9 21 22
f 9 22 10
f 9 20 21
f 9 8 20
f 23 1 11
f 23 13 1
f 14 1 13
f 14 2 1
f 7 18 19
f 7 6 18
f 24 23 11
f 24 11 12
f 17 13 23
f 17 22 21
f 17 19 18
f 17 16 15
f 17 14 13
f 17 21 20
f 17 23 24
f 17 20 19
f 17 15 14
f 17 24 22
