# Parametric PetalDock simulation geometry; SI units
v 0.0104099293492 -0.0302594344122 0.014
v 0.0104099293492 -0.0302594344122 0.0243162393162
v 0.0104346921207 -0.0303314144838 0.0245484660145
v 0.0105052105278 -0.0305363963854 0.0247453383031
v 0.0106107487822 -0.0308431734806 0.0248768841608
v 0.0107352396414 -0.0312050417376 0.0249230769231
v 0.0107804753086 -0.0301294100859 0.014
v 0.0107804753086 -0.0301294100859 0.023952991453
v 0.0108061195217 -0.0302010808603 0.0241770411548
v 0.0108791480621 -0.0304051819578 0.0243669813206
v 0.0109884429965 -0.0307106408365 0.0244938952819
v 0.0111173651619 -0.031070954151 0.0245384615385
v 0.015940204316 -0.0463347589436 0.0249230769231
v 0.0160646951751 -0.0466966272006 0.0248768841608
v 0.0161702334295 -0.0470034042958 0.0247453383031
v 0.0162407518366 -0.0472083861974 0.0245484660145
v 0.0162655146081 -0.047280366269 0.014
v 0.0162655146081 -0.047280366269 0.0243162393162
v 0.0165076028162 -0.046135659194 0.0245384615385
v 0.0166365249816 -0.0464959725086 0.0244938952819
v 0.0167458199161 -0.0468014313872 0.0243669813206
v 0.0168188484565 -0.0470055324847 0.0241770411548
v 0.0168444926696 -0.0470772032592 0.014
v 0.0168444926696 -0.0470772032592 0.023952991453
f 14 13 6
f 2 1 14
f 20 13 14
f 19 6 13
f 19 13 20
f 3 8 2
f 3 14 6
f 3 2 14
f 5 3 6
f 5 4 3
f 12 6 19
f 12 5 6
f 21 20 14
f 21 19 20
f 21 12 19
f 21 7 8
f 21 23 7
f 21 22 23
f 24 23 22
f 24 16 18
f 24 22 16
f 9 8 3
f 9 3 4
f 11 5 12
f 15 21 14
f 15 16 22
f 15 22 21
f 15 17 18
f 15 18 16
f 10 4 5
f 10 5 11
f 10 9 4
f 10 11 12
f 10 8 9
f 10 21 8
f 10 12 21
f 7 23 17
f 7 17 1
f 2 7 1
f 2 8 7
f 24 17 23
f 24 18 17
f 15 1 17
f 15 14 1
