# Parametric PetalDock simulation geometry; SI units
v -0.0454583991545 -0.0208214780049 0.014
v -0.0454583991545 -0.0208214780049 0.0214102564103
v -0.0453891928626 -0.0207897791921 0.0215770671372
v -0.0451994646562 -0.0213777546715 0.014
v -0.0451994646562 -0.0213777546715 0.021047008547
v -0.0451921100175 -0.0206995086106 0.0217184824431
v -0.0451306525686 -0.0213452089779 0.0212056422775
v -0.0449346923223 -0.021252526684 0.0213401254606
v -0.0448971546958 -0.0205644091382 0.0218129731296
v -0.0446414170886 -0.0211138178288 0.0214299842507
v -0.0445492311714 -0.0204050484448 0.0218461538462
v -0.044295475363 -0.0209501995781 0.0214615384615
v -0.030002543442 -0.0137421754832 0.0218461538462
v -0.0298316466731 -0.0141093180832 0.0214615384615
v -0.0296546199176 -0.0135828147898 0.0218129731296
v -0.0294857049476 -0.0139456998325 0.0214299842507
v -0.0293596645959 -0.0134477153174 0.0217184824431
v -0.0291924297138 -0.0138069909773 0.0213401254606
v -0.0291625817508 -0.0133574447359 0.0215770671372
v -0.0290933754589 -0.0133257459231 0.014
v -0.0290933754589 -0.0133257459231 0.0214102564103
v -0.0289964694675 -0.0137143086834 0.0212056422775
v -0.02892765738 -0.0136817629898 0.014
v -0.02892765738 -0.0136817629898 0.021047008547
f 8 4 23
f 13 11 12
f 13 21 20
f 5 4 8
f 6 1 2
f 6 20 1
f 6 13 20
f 10 12 11
f 10 8 12
f 22 17 18
f 22 8 23
f 22 12 8
f 15 18 17
f 3 2 5
f 3 6 2
f 9 10 11
f 9 11 13
f 9 13 6
f 9 6 8
f 9 8 10
f 19 17 22
f 19 15 17
f 19 21 13
f 19 13 15
f 24 22 23
f 24 21 19
f 24 19 22
f 14 15 13
f 14 13 12
f 14 12 22
f 14 22 18
f 7 5 8
f 7 3 5
f 7 8 6
f 7 6 3
f 16 18 15
f 16 14 18
f 16 15 14
f 20 23 4
f 20 4 1
f 5 1 4
f 5 2 1
f 24 23 20
f 24 20 21
