# Parametric PetalDock simulation geometry; SI units
v -0.0499661192294 -0.0018403611471 0.014
v -0.0499661192294 -0.0018403611471 0.031
v -0.0499397728103 -0.0024533837164 0.014
v -0.0499397728103 -0.0024533837164 0.031
v -0.0498900503423 -0.0018375593641 0.0313826834324
v -0.0498637440332 -0.0024496486621 0.0313826834324
v -0.0496734244796 -0.0018295805611 0.0317071067812
v -0.0496472323942 -0.0024390121273 0.0317071067812
v -0.049349220965 -0.0018176394385 0.0319238795325
v -0.0493231998275 -0.0024230934281 0.0319238795325
v -0.0489667968448 -0.0018035539241 0.032
v -0.0489409773541 -0.002404316042 0.032
v -0.0329776386914 -0.0012146383571 0.032
v -0.0329602500548 -0.0016192332528 0.032
v -0.0325952145712 -0.0012005528427 0.0319238795325
v -0.0325780275814 -0.0016004558668 0.0319238795325
v -0.0322710110567 -0.0011886117201 0.0317071067812
v -0.0322539950147 -0.0015845371676 0.0317071067812
v -0.0320543851939 -0.0011806329171 0.0313826834324
v -0.0320374833756 -0.0015739006328 0.0313826834324
v -0.0319783163068 -0.0011778311341 0.014
v -0.0319783163068 -0.0011778311341 0.031
v -0.0319614545986 -0.0015701655785 0.014
v -0.0319614545986 -0.0015701655785 0.031
f 18 3 23
f 24 18 23
f 5 2 4
f 10 14 12
f 20 18 24
f 20 17 18
f 15 18 17
f 6 18 10
f 6 4 3
f 6 3 18
f 6 5 4
f 6 7 5
f 16 10 18
f 16 14 10
f 16 18 15
f 16 15 14
f 9 12 11
f 9 10 12
f 9 7 10
f 9 1 2
f 9 2 5
f 9 5 7
f 9 21 1
f 9 11 17
f 19 17 20
f 19 21 9
f 19 9 17
f 13 14 15
f 13 17 11
f 13 15 17
f 8 10 7
f 8 7 6
f 8 6 10
f 22 21 19
f 22 20 24
f 22 19 20
f 21 23 3
f 21 3 1
f 2 1 3
f 2 3 4
f 13 12 14
f 13 11 12
f 22 23 21
f 22 24 23
