# Parametric PetalDock simulation geometry; SI units
v 0.0315936453811 -0.0050834605867 0.014
v 0.0315936453811 -0.0050834605867 0.0294017094017
v 0.0316536483189 -0.0046953751826 0.014
v 0.0316536483189 -0.0046953751826 0.029764957265
v 0.0316687992266 -0.0050955529428 0.0297484140498
v 0.0317289448972 -0.0047065443749 0.0301198389095
v 0.0318828192714 -0.0051299890596 0.0300423360582
v 0.0319433714109 -0.0047383515435 0.0304206930407
v 0.0322031229037 -0.0051815263505 0.0302387284654
v 0.0322642833668 -0.0047859543354 0.0306217173443
v 0.0325809467992 -0.00524231873 0.0303076923077
v 0.0326428248288 -0.004842105657 0.0306923076923
v 0.0483777694897 -0.0077840490234 0.0303076923077
v 0.0484696489883 -0.0071897932483 0.0306923076923
v 0.0487555933852 -0.0078448414029 0.0302387284654
v 0.0488481904503 -0.0072459445699 0.0306217173443
v 0.0490758970176 -0.0078963786938 0.0300423360582
v 0.0491691024063 -0.0072935473618 0.0304206930407
v 0.0492899170624 -0.0079308148106 0.0297484140498
v 0.0493650709079 -0.0079429071667 0.014
v 0.0493650709079 -0.0079429071667 0.0294017094017
v 0.0493835289199 -0.0073253545305 0.0301198389095
v 0.0494588254982 -0.0073365237228 0.014
v 0.0494588254982 -0.0073365237228 0.029764957265
f 13 1 20
f 24 23 18
f 14 12 13
f 14 18 23
f 16 18 14
f 19 20 21
f 19 13 20
f 9 1 13
f 2 1 9
f 8 3 4
f 8 23 3
f 8 14 23
f 17 13 19
f 17 18 16
f 17 19 18
f 22 21 24
f 22 19 21
f 22 24 18
f 22 18 19
f 11 13 12
f 11 9 13
f 6 4 2
f 6 8 4
f 10 12 14
f 10 14 8
f 10 11 12
f 10 9 11
f 10 7 9
f 10 8 7
f 15 13 17
f 15 17 16
f 15 14 13
f 15 16 14
f 5 6 2
f 5 9 7
f 5 2 9
f 5 7 8
f 5 8 6
f 3 23 20
f 3 20 1
f 21 20 23
f 21 23 24
f 2 3 1
f 2 4 3
