# Parametric PetalDock simulation geometry; SI units
v -0.0438035047098 -0.024109188604 0.014
v -0.0438035047098 -0.024109188604 0.0192307692308
v -0.0437368178446 -0.0240724845498 0.0193485179792
v -0.04354690972 -0.0239679602469 0.0194483405481
v -0.0435043495554 -0.0246449096115 0.014
v -0.0435043495554 -0.0246449096115 0.0188675213675
v -0.0434381181269 -0.0246073899707 0.0189770931195
v -0.0432626921262 -0.0238115285728 0.0195150398562
v -0.043249506976 -0.0245005430734 0.0190699835656
v -0.0429672304405 -0.0243406353913 0.0191320509773
v -0.0429274346156 -0.0236270048319 0.0195384615385
v -0.0426342625643 -0.0241520114193 0.0191538461538
v -0.0289103131084 -0.0159120644786 0.0195384615385
v -0.0287128707066 -0.0162656403436 0.0191538461538
v -0.0285750555978 -0.0157275407377 0.0195150398562
v -0.0283799028304 -0.0160770163716 0.0191320509773
v -0.028290838004 -0.0155711090636 0.0194483405481
v -0.0281009298794 -0.0154665847607 0.0193485179792
v -0.028097626295 -0.0159171086894 0.0190699835656
v -0.0280342430143 -0.0154298807065 0.014
v -0.0280342430143 -0.0154298807065 0.0192307692308
v -0.027909015144 -0.0158102617922 0.0189770931195
v -0.0278427837155 -0.0157727421514 0.014
v -0.0278427837155 -0.0157727421514 0.0188675213675
f 12 5 23
f 13 11 12
f 10 5 12
f 10 12 11
f 22 17 19
f 15 17 21
f 15 21 13
f 15 19 17
f 7 6 5
f 7 5 10
f 18 21 17
f 18 17 22
f 24 12 23
f 24 22 12
f 24 21 18
f 24 18 22
f 14 15 13
f 14 13 12
f 14 12 22
f 3 2 6
f 3 6 7
f 3 1 2
f 16 19 15
f 16 15 14
f 16 22 19
f 16 14 22
f 4 1 3
f 4 20 1
f 4 21 20
f 4 3 7
f 8 21 4
f 8 11 13
f 8 13 21
f 8 10 11
f 9 7 10
f 9 4 7
f 9 10 8
f 9 8 4
f 20 23 5
f 20 5 1
f 6 1 5
f 6 2 1
f 24 23 20
f 24 20 21
