# Parametric PetalDock simulation geometry; SI units
v 0.0299948483812 0.011149397768 0.014
v 0.0299948483812 0.011149397768 0.0235897435897
v 0.030066199065 0.0111759195608 0.0238056162952
v 0.0301294100859 0.0107804753086 0.014
v 0.0301294100859 0.0107804753086 0.023952991453
v 0.0302010808603 0.0108061195217 0.0241770411548
v 0.0302693886215 0.0112514472367 0.0239886243381
v 0.0304051819578 0.0108791480621 0.0243669813206
v 0.0305734832827 0.0113644823918 0.024110906403
v 0.0307106408365 0.0109884429965 0.0244938952819
v 0.0309321873931 0.0114978164482 0.0241538461538
v 0.031070954151 0.0111173651619 0.0245384615385
v 0.0459296115837 0.0170725153322 0.0241538461538
v 0.046135659194 0.0165076028162 0.0245384615385
v 0.0462883156941 0.0172058493887 0.024110906403
v 0.0464959725086 0.0166365249816 0.0244938952819
v 0.0465924103553 0.0173188845437 0.0239886243381
v 0.0467955999118 0.0173944122196 0.0238056162952
v 0.0468014313872 0.0167458199161 0.0243669813206
v 0.0468669505956 0.0174209340125 0.014
v 0.0468669505956 0.0174209340125 0.0235897435897
v 0.0470055324847 0.0168188484565 0.0241770411548
v 0.0470772032592 0.0168444926696 0.014
v 0.0470772032592 0.0168444926696 0.023952991453
f 10 4 23
f 10 12 11
f 9 20 1
f 9 10 11
f 6 5 4
f 6 4 10
f 2 9 1
f 2 5 6
f 18 17 19
f 21 20 9
f 21 17 18
f 13 9 11
f 13 11 12
f 8 6 10
f 22 18 19
f 22 24 21
f 22 21 18
f 15 21 9
f 15 9 13
f 15 17 21
f 3 2 6
f 3 6 8
f 3 9 2
f 14 15 13
f 14 13 12
f 7 9 3
f 7 3 8
f 7 10 9
f 7 8 10
f 16 15 14
f 16 19 17
f 16 17 15
f 16 22 19
f 16 24 22
f 16 23 24
f 16 10 23
f 16 12 10
f 16 14 12
f 4 20 23
f 4 1 20
f 2 1 4
f 2 4 5
f 21 23 20
f 21 24 23
