# Parametric PetalDock simulation geometry; SI units
v 0.0187455314386 0.0259346303441 0.014
v 0.0187455314386 0.0259346303441 0.0155982905983
v 0.0187901226454 0.0259963227249 0.0156342693825
v 0.0189171076587 0.0261720077616 0.015664770723
v 0.0190623777438 0.0257026410074 0.014
v 0.0190623777438 0.0257026410074 0.015235042735
v 0.0191071541613 0.0264349389999 0.0156851510672
v 0.0191077226533 0.0257637815402 0.0152628445229
v 0.0192368540305 0.0259378950467 0.0152864137405
v 0.0193313292961 0.0267450875423 0.0156923076923
v 0.0194301127937 0.0261984743238 0.0153021621883
v 0.0196580770483 0.0265058485389 0.0153076923077
v 0.0287040950154 0.0397124027144 0.0156923076923
v 0.0289282701501 0.0400225512568 0.0156851510672
v 0.0291183166528 0.0402854824951 0.015664770723
v 0.0291892659201 0.0393571690426 0.0153076923077
v 0.0292453016661 0.0404611675318 0.0156342693825
v 0.0292898928728 0.0405228599126 0.014
v 0.0292898928728 0.0405228599126 0.0155982905983
v 0.0294172301746 0.0396645432576 0.0153021621883
v 0.0296104889379 0.0399251225348 0.0152864137405
v 0.0297396203151 0.0400992360412 0.0152628445229
v 0.0297849652246 0.040160376574 0.014
v 0.0297849652246 0.040160376574 0.015235042735
f 14 18 1
f 2 14 1
f 19 18 14
f 13 14 10
f 13 20 14
f 22 5 23
f 22 6 5
f 22 12 6
f 22 20 12
f 3 2 6
f 7 12 10
f 7 14 2
f 7 10 14
f 7 2 3
f 7 3 4
f 9 6 12
f 9 7 4
f 16 13 10
f 16 20 13
f 16 10 12
f 16 12 20
f 24 22 23
f 17 24 19
f 17 22 24
f 21 14 20
f 21 20 22
f 8 3 6
f 8 6 9
f 8 4 3
f 8 9 4
f 11 12 7
f 11 9 12
f 11 7 9
f 15 14 21
f 15 19 14
f 15 17 19
f 15 22 17
f 15 21 22
f 5 18 23
f 5 1 18
f 2 1 5
f 2 5 6
f 24 23 18
f 24 18 19
