# Parametric PetalDock simulation geometry; SI units
v 0.0317088843337 -0.0043065826722 0.014
v 0.0317088843337 -0.0043065826722 0.030126808021
v 0.0317593451072 -0.0039171416064 0.014
v 0.0317593451072 -0.0039171416064 0.0304411571335
v 0.0317843123055 -0.0043168270187 0.030489835212
v 0.0318348931133 -0.0039264595642 0.0308112605713
v 0.0319991129961 -0.0043460004491 0.030797594804
v 0.0320500356327 -0.0039529948631 0.0311250191158
v 0.0323205849475 -0.0043896615733 0.031003233189
v 0.0323720191669 -0.0039927077442 0.0313346658727
v 0.0326997869691 -0.0044411633807 0.031075443787
v 0.0327518246418 -0.0040395522816 0.0314082840237
v 0.048554229136 -0.0065944547168 0.031075443787
v 0.0486314971953 -0.0059981230848 0.0314082840237
v 0.0489334311576 -0.0066459565243 0.031003233189
v 0.0490113026702 -0.0060449676221 0.0313346658727
v 0.049254903109 -0.0066896176485 0.030797594804
v 0.0493332862044 -0.0060846805033 0.0311250191158
v 0.0494697037995 -0.0067187910789 0.030489835212
v 0.0495451317714 -0.0067290354254 0.014
v 0.0495451317714 -0.0067290354254 0.030126808021
v 0.0495484287238 -0.0061112158021 0.0308112605713
v 0.0496239767299 -0.00612053376 0.014
v 0.0496239767299 -0.00612053376 0.0304411571335
f 5 1 20
f 22 24 23
f 22 23 3
f 22 18 19
f 2 1 5
f 10 11 12
f 10 12 14
f 10 22 3
f 17 5 20
f 17 19 18
f 6 4 2
f 6 2 5
f 6 3 4
f 6 10 3
f 16 10 14
f 16 22 10
f 16 18 22
f 16 17 18
f 9 5 17
f 9 7 5
f 9 11 10
f 9 10 7
f 13 12 11
f 13 14 12
f 13 11 9
f 21 17 20
f 21 19 17
f 21 24 22
f 21 22 19
f 8 7 10
f 8 10 6
f 8 5 7
f 8 6 5
f 15 9 17
f 15 13 9
f 15 17 16
f 15 16 14
f 15 14 13
f 3 23 20
f 3 20 1
f 2 3 1
f 2 4 3
f 21 20 23
f 21 23 24
