# Parametric PetalDock simulation geometry; SI units
v -0.0408792406576 -0.0287904095709 0.014
v -0.0408792406576 -0.0287904095709 0.0159615384615
v -0.0408170057194 -0.0287465787822 0.0160056942422
v -0.04063977561 -0.0286217592563 0.0160431277055
v -0.0405228599126 -0.0292898928728 0.014
v -0.0405228599126 -0.0292898928728 0.0155982905983
v -0.0404611675318 -0.0292453016661 0.0156342693825
v -0.040374532007 -0.0284349536346 0.0160681399461
v -0.0402854824951 -0.0291183166528 0.015664770723
v -0.0400616558444 -0.0282146013795 0.0160769230769
v -0.0400225512568 -0.0289282701501 0.0156851510672
v -0.0397124027144 -0.0287040950154 0.0156923076923
v -0.026980298834 -0.0190016703168 0.0160769230769
v -0.0267450875423 -0.0193313292961 0.0156923076923
v -0.0266674226715 -0.0187813180617 0.0160681399461
v -0.0264349389999 -0.0191071541613 0.0156851510672
v -0.0264021790684 -0.01859451244 0.0160431277055
v -0.026224948959 -0.0184696929141 0.0160056942422
v -0.0261720077616 -0.0189171076587 0.015664770723
v -0.0261627140209 -0.0184258621254 0.014
v -0.0261627140209 -0.0184258621254 0.0159615384615
v -0.0259963227249 -0.0187901226454 0.0156342693825
v -0.0259346303441 -0.0187455314386 0.014
v -0.0259346303441 -0.0187455314386 0.0155982905983
f 14 5 23
f 7 5 14
f 6 5 7
f 3 4 2
f 3 7 4
f 3 2 6
f 3 6 7
f 13 12 14
f 13 10 12
f 11 12 10
f 11 10 8
f 19 14 23
f 9 12 11
f 9 7 14
f 9 14 12
f 9 4 7
f 9 8 4
f 9 11 8
f 18 24 21
f 16 14 19
f 22 24 18
f 22 23 24
f 22 19 23
f 15 18 21
f 15 20 1
f 15 1 2
f 15 21 20
f 15 2 4
f 15 16 19
f 15 4 8
f 15 13 14
f 15 14 16
f 15 8 10
f 15 10 13
f 17 15 19
f 17 18 15
f 17 19 22
f 17 22 18
f 20 23 5
f 20 5 1
f 6 1 5
f 6 2 1
f 24 23 20
f 24 20 21
