# Parametric PetalDock simulation geometry; SI units
v -0.048915868536 -0.0103555688096 0.014
v -0.048915868536 -0.0103555688096 0.0279487179487
v -0.0488413985604 -0.0103398033948 0.0282627146112
v -0.0487851065019 -0.0109550620078 0.014
v -0.0487851065019 -0.0109550620078 0.0275854700855
v -0.0487108355997 -0.010938383919 0.0278912897515
v -0.0486293260123 -0.010294907292 0.0285289081282
v -0.0484993299645 -0.0108908887404 0.0281505511456
v -0.0483119370146 -0.0102277155257 0.0287067729498
v -0.048182789412 -0.0108198071823 0.0283237840709
v -0.0479375511653 -0.0101484574334 0.0287692307692
v -0.0478094043719 -0.0107359607677 0.0283846153846
v -0.0322844732337 -0.0068346754143 0.0287692307692
v -0.0321981702913 -0.0072303409252 0.0283846153846
v -0.0319100873844 -0.006755417322 0.0287067729498
v -0.0318247852512 -0.0071464945106 0.0283237840709
v -0.0315926983868 -0.0066882255558 0.0285289081282
v -0.0315082446987 -0.0070754129525 0.0281505511456
v -0.0313806258386 -0.0066433294529 0.0282627146112
v -0.031306155863 -0.0066275640382 0.014
v -0.031306155863 -0.0066275640382 0.0279487179487
v -0.0312967390635 -0.0070279177738 0.0278912897515
v -0.0312224681612 -0.007011239685 0.014
v -0.0312224681612 -0.007011239685 0.0275854700855
f 8 4 23
f 13 11 12
f 13 20 1
f 5 4 8
f 10 12 11
f 10 8 12
f 16 12 8
f 16 8 23
f 22 17 18
f 15 18 17
f 15 16 18
f 3 1 2
f 3 2 5
f 3 13 1
f 9 10 11
f 9 3 7
f 9 7 8
f 9 8 10
f 9 11 13
f 9 13 3
f 14 13 12
f 14 12 16
f 14 15 13
f 14 16 15
f 19 17 22
f 19 21 20
f 19 15 17
f 19 20 13
f 19 13 15
f 24 22 18
f 24 21 19
f 24 19 22
f 24 16 23
f 24 18 16
f 6 5 8
f 6 3 5
f 6 8 7
f 6 7 3
f 20 23 4
f 20 4 1
f 5 1 4
f 5 2 1
f 24 23 20
f 24 20 21
