# Parametric PetalDock simulation geometry; SI units
v 0.0308408341055 -0.0085348082392 0.014
v 0.0308408341055 -0.0085348082392 0.0261324786325
v 0.0309141971901 -0.008555110539 0.0264055903128
v 0.0309432470734 -0.0081557011073 0.014
v 0.0309432470734 -0.0081557011073 0.0264957264957
v 0.0310168537745 -0.0081751016005 0.0267770151725
v 0.0311231175796 -0.0086129265972 0.0266371232156
v 0.0312264679246 -0.0082303495308 0.0270154801981
v 0.0314357890384 -0.0086994544432 0.0267918285553
v 0.0315401776695 -0.0083130339015 0.0271748174342
v 0.0318046101712 -0.0088015209967 0.0268461538462
v 0.0319102235445 -0.0084105667669 0.0272307692308
v 0.047225027224 -0.0130689251163 0.0268461538462
v 0.0473818470812 -0.0124884173206 0.0272307692308
v 0.0475938483569 -0.0131709916698 0.0267918285553
v 0.0477518929562 -0.012585950186 0.0271748174342
v 0.0479065198156 -0.0132575195157 0.0266371232156
v 0.0480656027011 -0.0126686345568 0.0270154801981
v 0.0481154402051 -0.013315335574 0.0264055903128
v 0.0481888032898 -0.0133356378737 0.014
v 0.0481888032898 -0.0133356378737 0.0261324786325
v 0.0482752168512 -0.0127238824871 0.0267770151725
v 0.0483488235522 -0.0127432829802 0.014
v 0.0483488235522 -0.0127432829802 0.0264957264957
f 5 12 4
f 19 1 20
f 14 12 13
f 21 19 20
f 17 19 18
f 22 24 18
f 22 18 19
f 22 21 24
f 22 19 21
f 16 17 18
f 16 18 24
f 16 24 23
f 16 12 14
f 16 23 4
f 16 4 12
f 11 1 19
f 11 13 12
f 6 5 2
f 15 13 11
f 15 11 19
f 15 19 17
f 15 17 16
f 15 14 13
f 15 16 14
f 3 6 2
f 3 9 7
f 3 7 8
f 3 8 6
f 3 11 9
f 3 2 1
f 3 1 11
f 10 8 7
f 10 7 9
f 10 6 8
f 10 11 12
f 10 9 11
f 10 12 5
f 10 5 6
f 4 23 20
f 4 20 1
f 21 20 23
f 21 23 24
f 2 4 1
f 2 5 4
