# Parametric PetalDock simulation geometry; SI units
v 0.0031365484905 0.0318459112535 0.014
v 0.0031365484905 0.0318459112535 0.0308602892834
v 0.0031440096011 0.0319216651801 0.0312398277171
v 0.0031652570463 0.0321373941114 0.0315615848648
v 0.0031970560952 0.0324602552731 0.0317765761175
v 0.0032345656309 0.0328410959802 0.0318520710059
v 0.0035271106334 0.0318050230401 0.014
v 0.0035271106334 0.0318050230401 0.0306856508876
v 0.0035355007994 0.0318806797033 0.031061258073
v 0.0035593939705 0.0320961316517 0.0313796824694
v 0.0035951526281 0.0324185782793 0.0315924468488
v 0.0036373328407 0.0327989300101 0.0316671597633
v 0.0048028398761 0.0487640516069 0.0318520710059
v 0.0048403494118 0.049144892314 0.0317765761175
v 0.0048721484607 0.0494677534757 0.0315615848648
v 0.0048933959059 0.049683482407 0.0312398277171
v 0.0049008570165 0.0497592363336 0.014
v 0.0049008570165 0.0497592363336 0.0308602892834
v 0.0054008881574 0.0487014415301 0.0316671597633
v 0.00544306837 0.0490817932608 0.0315924468488
v 0.0054788270276 0.0494042398885 0.0313796824694
v 0.0055027201987 0.0496196918369 0.031061258073
v 0.0055111103647 0.0496953485001 0.014
v 0.0055111103647 0.0496953485001 0.0306856508876
f 15 17 1
f 2 15 1
f 13 2 6
f 13 15 2
f 13 6 19
f 12 19 6
f 3 2 8
f 3 4 2
f 14 15 13
f 5 12 6
f 5 6 2
f 5 2 4
f 10 5 4
f 21 22 15
f 21 15 14
f 16 15 22
f 16 17 15
f 16 18 17
f 9 3 8
f 9 8 7
f 9 4 3
f 9 10 4
f 9 7 23
f 20 21 14
f 20 13 19
f 20 14 13
f 24 9 23
f 24 19 9
f 24 20 19
f 24 21 20
f 24 22 21
f 24 18 16
f 24 16 22
f 11 19 12
f 11 9 19
f 11 10 9
f 11 12 5
f 11 5 10
f 7 17 23
f 7 1 17
f 2 1 7
f 2 7 8
f 24 23 17
f 24 17 18
