# Parametric PetalDock simulation geometry; SI units
v 0.0287575829022 0.0140357196332 0.014
v 0.0287575829022 0.0140357196332 0.0206837606838
v 0.0288259904227 0.0140691073064 0.0208342174179
v 0.02892765738 0.0136817629898 0.014
v 0.02892765738 0.0136817629898 0.021047008547
v 0.0289964694675 0.0137143086834 0.0212056422775
v 0.0290207985591 0.0141641873552 0.0209617684781
v 0.0291924297138 0.0138069909773 0.0213401254606
v 0.0293123495388 0.0143064847041 0.0210469953718
v 0.0294857049476 0.0139456998325 0.0214299842507
v 0.0296562573679 0.0144743358718 0.0210769230769
v 0.0298316466731 0.0141093180832 0.0214615384615
v 0.044035048819 0.0214921956884 0.0210769230769
v 0.044295475363 0.0209501995781 0.0214615384615
v 0.0443789566481 0.021660046856 0.0210469953718
v 0.0446414170886 0.0211138178288 0.0214299842507
v 0.0446705076278 0.021802344205 0.0209617684781
v 0.0448653157642 0.0218974242538 0.0208342174179
v 0.0449337232847 0.0219308119269 0.014
v 0.0449337232847 0.0219308119269 0.0206837606838
v 0.0449346923223 0.021252526684 0.0213401254606
v 0.0451306525686 0.0213452089779 0.0212056422775
v 0.0451994646562 0.0213777546715 0.014
v 0.0451994646562 0.0213777546715 0.021047008547
f 10 4 23
f 10 5 4
f 10 12 11
f 7 19 1
f 22 23 24
f 22 10 23
f 9 10 11
f 9 11 7
f 9 7 10
f 6 2 5
f 20 22 24
f 13 7 11
f 13 11 12
f 8 10 7
f 8 5 10
f 8 6 5
f 3 2 6
f 3 1 2
f 3 7 1
f 3 8 7
f 3 6 8
f 18 20 19
f 18 13 17
f 18 22 20
f 18 19 7
f 18 7 13
f 18 17 21
f 18 21 22
f 16 21 17
f 16 22 21
f 16 10 22
f 15 17 13
f 15 16 17
f 14 13 12
f 14 12 10
f 14 10 16
f 14 15 13
f 14 16 15
f 4 19 23
f 4 1 19
f 2 1 4
f 2 4 5
f 20 23 19
f 20 24 23
