# Parametric PetalDock simulation geometry; SI units
v -0.0202620657002 -0.0457104877852 0.014
v -0.0202620657002 -0.0457104877852 0.0217735042735
v -0.020231218542 -0.0456408977112 0.0219484919969
v -0.0201433732674 -0.0454427219472 0.0220968394256
v -0.0200119035232 -0.0451461309567 0.0221959620085
v -0.0198568243862 -0.0447962780295 0.0222307692308
v -0.0196996020031 -0.0459556925845 0.014
v -0.0196996020031 -0.0459556925845 0.0221367521368
v -0.0196696111448 -0.0458857292084 0.0223199168565
v -0.0195842044063 -0.04568649037 0.0224751964081
v -0.0194563841892 -0.0453883083763 0.0225789508874
v -0.019305609963 -0.0450365787328 0.0226153846154
v -0.0133729633622 -0.0301689219382 0.0222307692308
v -0.0132178842252 -0.029819069011 0.0221959620085
v -0.013086414481 -0.0295224780205 0.0220968394256
v -0.013001737322 -0.0303307571058 0.0226153846154
v -0.0129985692064 -0.0293243022565 0.0219484919969
v -0.0129677220482 -0.0292547121825 0.014
v -0.0129677220482 -0.0292547121825 0.0217735042735
v -0.0128509630958 -0.0299790274623 0.0225789508874
v -0.0127231428788 -0.0296808454686 0.0224751964081
v -0.0126377361402 -0.0294816066301 0.0223199168565
v -0.012607745282 -0.0294116432541 0.014
v -0.012607745282 -0.0294116432541 0.0221367521368
f 9 8 7
f 9 7 11
f 9 11 10
f 5 11 12
f 6 5 12
f 4 10 11
f 4 11 5
f 24 22 23
f 13 5 6
f 3 9 10
f 3 10 4
f 3 18 1
f 19 22 24
f 19 3 13
f 19 18 3
f 16 12 11
f 16 6 12
f 16 13 6
f 16 7 23
f 16 11 7
f 16 23 22
f 20 21 15
f 20 13 16
f 20 22 21
f 20 16 22
f 2 8 9
f 2 9 3
f 2 3 1
f 17 19 15
f 17 22 19
f 17 15 21
f 17 21 22
f 14 20 15
f 14 13 20
f 14 15 19
f 14 19 13
f 18 23 7
f 18 7 1
f 3 4 5
f 3 5 13
f 19 23 18
f 19 24 23
f 2 1 7
f 2 7 8
