# Parametric PetalDock simulation geometry; SI units
v 0.0171199238364 0.027035314088 0.014
v 0.0171199238364 0.027035314088 0.0174145299145
v 0.0171606481053 0.0270996247363 0.0174913936809
v 0.0172766210113 0.0272827659681 0.0175565556355
v 0.0174501867308 0.027556856191 0.0176000954617
v 0.0174503996295 0.0268231905778 0.014
v 0.0174503996295 0.0268231905778 0.0170512820513
v 0.0174919100226 0.0268869966342 0.0171199688212
v 0.0176101216207 0.0270687009099 0.017178198653
v 0.0176549214563 0.0278801676532 0.0176153846154
v 0.0177870377796 0.0273406405759 0.0172171065828
v 0.0179957246179 0.0276614152833 0.0172307692308
v 0.0262148833745 0.0413978246972 0.0176153846154
v 0.0264196181 0.0417211361594 0.0176000954617
v 0.0265931838194 0.0419952263823 0.0175565556355
v 0.0267091567254 0.0421783676141 0.0174913936809
v 0.0267209244327 0.0410730105722 0.0172307692308
v 0.0267498809944 0.0422426782625 0.014
v 0.0267498809944 0.0422426782625 0.0174145299145
v 0.026929611271 0.0413937852796 0.0172171065828
v 0.0271065274299 0.0416657249456 0.017178198653
v 0.0272247390281 0.0418474292213 0.0171199688212
v 0.0272662494211 0.0419112352777 0.014
v 0.0272662494211 0.0419112352777 0.0170512820513
f 16 18 1
f 19 18 16
f 4 1 2
f 4 16 1
f 12 17 10
f 13 10 17
f 13 4 10
f 3 2 7
f 3 4 2
f 5 10 4
f 5 12 10
f 9 5 4
f 15 16 4
f 15 4 13
f 20 13 17
f 8 3 7
f 8 7 6
f 8 4 3
f 8 9 4
f 8 6 23
f 14 15 13
f 14 13 20
f 14 21 15
f 14 20 21
f 22 8 23
f 22 17 8
f 22 20 17
f 22 21 20
f 22 16 15
f 22 15 21
f 11 17 12
f 11 8 17
f 11 9 8
f 11 12 5
f 11 5 9
f 24 22 23
f 24 19 16
f 24 16 22
f 6 18 23
f 6 1 18
f 2 1 6
f 2 6 7
f 24 23 18
f 24 18 19
