# Parametric PetalDock simulation geometry; SI units
v 0.0280342430143 0.0154298807065 0.014
v 0.0280342430143 0.0154298807065 0.0192307692308
v 0.0281009298794 0.0154665847607 0.0193485179792
v 0.0282214804591 0.0150846955784 0.014
v 0.0282214804591 0.0150846955784 0.019594017094
v 0.0282886127181 0.0151205785184 0.0197199428389
v 0.028290838004 0.0155711090636 0.0194483405481
v 0.028479789217 0.015222764486 0.0198266975306
v 0.0285750555978 0.0157275407377 0.0195150398562
v 0.028765905067 0.015375696594 0.0198980287351
v 0.0289103131084 0.0159120644786 0.0195384615385
v 0.0291034017235 0.0155560923153 0.0199230769231
v 0.0429274346156 0.0236270048319 0.0195384615385
v 0.0432141419531 0.0230984401045 0.0199230769231
v 0.0432626921262 0.0238115285728 0.0195150398562
v 0.04354690972 0.0239679602469 0.0194483405481
v 0.0435516386096 0.0232788358257 0.0198980287351
v 0.0437368178446 0.0240724845498 0.0193485179792
v 0.0438035047098 0.024109188604 0.014
v 0.0438035047098 0.024109188604 0.0192307692308
v 0.0438377544596 0.0234317679337 0.0198266975306
v 0.0440289309585 0.0235339539013 0.0197199428389
v 0.0440960632174 0.0235698368413 0.014
v 0.0440960632174 0.0235698368413 0.019594017094
f 7 19 1
f 22 21 23
f 22 23 24
f 10 12 11
f 20 19 7
f 20 22 24
f 14 12 10
f 3 1 2
f 3 7 1
f 18 22 20
f 18 16 21
f 18 21 22
f 17 21 16
f 17 14 10
f 17 4 23
f 17 23 21
f 6 2 5
f 6 3 2
f 6 5 4
f 6 4 17
f 6 17 10
f 9 10 11
f 9 7 10
f 8 10 7
f 8 6 10
f 8 7 3
f 8 3 6
f 13 18 20
f 13 20 7
f 13 7 9
f 13 9 11
f 13 11 12
f 13 12 14
f 15 16 18
f 15 18 13
f 15 17 16
f 15 14 17
f 15 13 14
f 4 19 23
f 4 1 19
f 2 1 4
f 2 4 5
f 20 23 19
f 20 24 23
