# Parametric PetalDock simulation geometry; SI units
v -0.0412294651393 -0.0282865905392 0.014
v -0.0412294651393 -0.0282865905392 0.0163247863248
v -0.041166697016 -0.0282435267693 0.0163771191019
v -0.0409879485242 -0.0281208915281 0.016421484688
v -0.0408792406576 -0.0287904095709 0.014
v -0.0408792406576 -0.0287904095709 0.0159615384615
v -0.0408170057194 -0.0287465787822 0.0160056942422
v -0.0407204325011 -0.0279373549195 0.016451128825
v -0.04063977561 -0.0286217592563 0.0160431277055
v -0.0404048758365 -0.0277208587284 0.0164615384615
v -0.040374532007 -0.0284349536346 0.0160681399461
v -0.0400616558444 -0.0282146013795 0.0160769230769
v -0.0272114469919 -0.0186691497559 0.0164615384615
v -0.026980298834 -0.0190016703168 0.0160769230769
v -0.0268958903272 -0.0184526535647 0.016451128825
v -0.0266674226715 -0.0187813180617 0.0160681399461
v -0.0266283743042 -0.0182691169561 0.016421484688
v -0.0264496258123 -0.018146481715 0.0163771191019
v -0.0264021790684 -0.01859451244 0.0160431277055
v -0.0263868576891 -0.0181034179451 0.014
v -0.0263868576891 -0.0181034179451 0.0163247863248
v -0.026224948959 -0.0184696929141 0.0160056942422
v -0.0261627140209 -0.0184258621254 0.014
v -0.0261627140209 -0.0184258621254 0.0159615384615
f 12 5 23
f 17 20 1
f 21 20 17
f 19 12 23
f 13 10 12
f 7 6 5
f 7 5 12
f 22 17 19
f 22 19 23
f 15 10 13
f 15 19 17
f 11 12 10
f 11 7 12
f 3 2 6
f 3 6 7
f 18 21 17
f 18 17 22
f 24 22 23
f 24 21 18
f 24 18 22
f 14 15 13
f 14 12 19
f 14 13 12
f 4 2 3
f 4 1 2
f 4 17 1
f 4 3 7
f 4 10 15
f 4 15 17
f 16 19 15
f 16 14 19
f 16 15 14
f 8 11 10
f 8 10 4
f 9 7 11
f 9 4 7
f 9 11 8
f 9 8 4
f 20 23 5
f 20 5 1
f 6 1 5
f 6 2 1
f 24 23 20
f 24 20 21
