# Parametric PetalDock simulation geometry; SI units
v -0.0435043495554 -0.0246449096115 0.014
v -0.0435043495554 -0.0246449096115 0.0188675213675
v -0.0434381181269 -0.0246073899707 0.0189770931195
v -0.043249506976 -0.0245005430734 0.0190699835656
v -0.0431986428061 -0.0251769191863 0.014
v -0.0431986428061 -0.0251769191863 0.0185042735043
v -0.0431328767884 -0.0251385896091 0.0186056682599
v -0.0429672304405 -0.0243406353913 0.0191320509773
v -0.0429455910153 -0.0250294362083 0.018691626583
v -0.042665298048 -0.0248660765996 0.0187490620984
v -0.0426342625643 -0.0241520114193 0.0191538461538
v -0.04233466995 -0.0246733808026 0.0187692307692
v -0.0287128707066 -0.0162656403436 0.0191538461538
v -0.028511104252 -0.0166167666629 0.0187692307692
v -0.0283799028304 -0.0160770163716 0.0191320509773
v -0.028180476154 -0.0164240708659 0.0187490620984
v -0.028097626295 -0.0159171086894 0.0190699835656
v -0.027909015144 -0.0158102617922 0.0189770931195
v -0.0279001831867 -0.0162607112572 0.018691626583
v -0.0278427837155 -0.0157727421514 0.014
v -0.0278427837155 -0.0157727421514 0.0188675213675
v -0.0277128974136 -0.0161515578564 0.0186056682599
v -0.0276471313959 -0.0161132282792 0.014
v -0.0276471313959 -0.0161132282792 0.0185042735043
f 17 20 1
f 22 5 23
f 13 11 12
f 10 5 22
f 10 6 5
f 10 12 11
f 21 20 17
f 4 11 13
f 4 13 17
f 4 1 2
f 4 17 1
f 24 22 23
f 18 17 22
f 18 21 17
f 18 24 21
f 18 22 24
f 19 22 17
f 15 17 13
f 15 19 17
f 15 16 19
f 14 13 12
f 14 12 10
f 14 15 13
f 14 16 15
f 14 10 22
f 14 22 19
f 14 19 16
f 3 2 6
f 3 4 2
f 9 6 10
f 8 10 11
f 8 11 4
f 8 9 10
f 8 4 9
f 7 4 3
f 7 9 4
f 7 3 6
f 7 6 9
f 20 23 5
f 20 5 1
f 6 1 5
f 6 2 1
f 24 23 20
f 24 20 21
