# Parametric PetalDock simulation geometry; SI units
v -0.0466496399417 0.0179947518267 0.014
v -0.0466496399417 0.0179947518267 0.0232264957265
v -0.0465786200937 0.0179673564483 0.0234341914355
v -0.0464253040237 0.0185658596976 0.014
v -0.0464253040237 0.0185658596976 0.0228632478632
v -0.0463763726778 0.0178893410111 0.0236102673556
v -0.0463546257067 0.0185375948592 0.0230627665758
v -0.0461533508891 0.0184571034095 0.0232319103731
v -0.0460736880295 0.0177725826581 0.0237279175241
v -0.045852121837 0.0183366394419 0.0233449286452
v -0.0457166471429 0.0176348567902 0.0237692307692
v -0.0454967979432 0.0181945425036 0.0233846153846
v -0.0307887623615 0.0118765362057 0.0237692307692
v -0.0306407006556 0.0122534674004 0.0233846153846
v -0.0304317214749 0.0117388103378 0.0237279175241
v -0.0302853767618 0.0121113704621 0.0233449286452
v -0.0301290368267 0.0116220519848 0.0236102673556
v -0.0299841477097 0.0119909064946 0.0232319103731
v -0.0299267894107 0.0115440365475 0.0234341914355
v -0.0298557695627 0.0115166411691 0.014
v -0.0298557695627 0.0115166411691 0.0232264957265
v -0.0297828728921 0.0119104150448 0.0230627665758
v -0.0297121945751 0.0118821502065 0.014
v -0.0297121945751 0.0118821502065 0.0228632478632
f 8 23 4
f 13 12 11
f 9 6 11
f 9 8 6
f 24 23 8
f 10 8 9
f 10 11 12
f 10 9 11
f 15 11 17
f 15 13 11
f 14 12 13
f 14 10 12
f 14 15 16
f 14 13 15
f 14 8 10
f 3 2 11
f 3 11 6
f 3 5 2
f 19 21 24
f 19 11 2
f 19 17 11
f 19 1 20
f 19 2 1
f 19 20 21
f 22 17 19
f 22 19 24
f 18 24 8
f 18 8 14
f 18 14 16
f 18 22 24
f 18 17 22
f 18 15 17
f 18 16 15
f 7 5 3
f 7 4 5
f 7 8 4
f 7 6 8
f 7 3 6
f 20 4 23
f 20 1 4
f 5 4 1
f 5 1 2
f 24 20 23
f 24 21 20
