# Parametric PetalDock simulation geometry; SI units
v 0.0019622635617 0.0319397796128 0.014
v 0.0019622635617 0.0319397796128 0.031
v 0.0019669313248 0.0320157568302 0.0313826834324
v 0.0019802239895 0.0322321216396 0.0317071067812
v 0.0020001178681 0.0325559344604 0.0319238795325
v 0.002023584298 0.0329378977257 0.032
v 0.0023540660352 0.0319132946137 0.014
v 0.0023540660352 0.0319132946137 0.031
v 0.0023596658042 0.0319892088295 0.0313826834324
v 0.002375612597 0.0322053942257 0.0317071067812
v 0.0023994786591 0.0325289385354 0.0319238795325
v 0.0024276305988 0.0329105850704 0.032
v 0.0030047160788 0.0489077875321 0.032
v 0.0030281825087 0.0492897507975 0.0319238795325
v 0.0030480763873 0.0496135636182 0.0317071067812
v 0.003061369052 0.0498299284276 0.0313826834324
v 0.0030660368151 0.049905905645 0.014
v 0.0030660368151 0.049905905645 0.031
v 0.0036046636164 0.0488672323773 0.032
v 0.0036328155561 0.0492488789123 0.0319238795325
v 0.0036566816182 0.049572423222 0.0317071067812
v 0.003672628411 0.0497886086182 0.0313826834324
v 0.00367822818 0.0498645228339 0.014
v 0.00367822818 0.0498645228339 0.031
f 24 21 23
f 9 7 23
f 9 23 21
f 9 8 7
f 9 2 8
f 16 18 13
f 16 13 15
f 14 21 15
f 14 15 13
f 5 18 17
f 5 17 1
f 5 13 18
f 5 6 13
f 12 9 21
f 22 24 18
f 22 18 16
f 22 21 24
f 22 15 21
f 22 16 15
f 3 1 2
f 3 5 1
f 3 2 9
f 19 12 21
f 19 14 13
f 11 9 12
f 11 12 6
f 11 6 5
f 4 3 9
f 4 5 3
f 4 11 5
f 20 21 14
f 20 19 21
f 20 14 19
f 10 9 11
f 10 4 9
f 10 11 4
f 7 1 17
f 7 17 23
f 2 1 7
f 2 7 8
f 24 17 18
f 24 23 17
f 19 6 12
f 19 13 6
