# Parametric PetalDock simulation geometry; SI units
v 0.0307337766213 -0.0089126300603 0.014
v 0.0307337766213 -0.0089126300603 0.0257692307692
v 0.0308068850414 -0.0089338311093 0.0260341654532
v 0.0308408341055 -0.0085348082392 0.014
v 0.0308408341055 -0.0085348082392 0.0261324786325
v 0.0309141971901 -0.008555110539 0.0264055903128
v 0.0310150802076 -0.0089942065886 0.0262587662331
v 0.0311231175796 -0.0086129265972 0.0266371232156
v 0.031326666293 -0.009084564879 0.0264088396764
v 0.0314357890384 -0.0086994544432 0.0267918285553
v 0.0316942071407 -0.0091911497497 0.0264615384615
v 0.0318046101712 -0.0088015209967 0.0268461538462
v 0.0470610954514 -0.0136474647799 0.0264615384615
v 0.047225027224 -0.0130689251163 0.0268461538462
v 0.0474286362991 -0.0137540496506 0.0264088396764
v 0.0475938483569 -0.0131709916698 0.0267918285553
v 0.0477402223845 -0.0138444079409 0.0262587662331
v 0.0479065198156 -0.0132575195157 0.0266371232156
v 0.0479484175506 -0.0139047834203 0.0260341654532
v 0.0480215259708 -0.0139259844693 0.014
v 0.0480215259708 -0.0139259844693 0.0257692307692
v 0.0481154402051 -0.013315335574 0.0264055903128
v 0.0481888032898 -0.0133356378737 0.014
v 0.0481888032898 -0.0133356378737 0.0261324786325
f 3 1 20
f 8 23 4
f 8 24 23
f 2 1 3
f 21 3 20
f 16 17 18
f 14 16 18
f 14 18 24
f 14 24 8
f 7 8 3
f 5 8 4
f 19 18 17
f 13 3 21
f 13 21 19
f 13 12 11
f 13 14 12
f 10 12 14
f 10 14 8
f 10 11 12
f 10 8 7
f 6 3 8
f 6 8 5
f 6 5 2
f 6 2 3
f 22 21 24
f 22 19 21
f 22 24 18
f 22 18 19
f 9 13 11
f 9 3 13
f 9 7 3
f 9 11 10
f 9 10 7
f 15 19 17
f 15 13 19
f 15 17 16
f 15 16 14
f 15 14 13
f 4 23 20
f 4 20 1
f 21 20 23
f 21 23 24
f 5 4 1
f 5 1 2
