# Parametric PetalDock simulation geometry; SI units
v 0.0319132946137 0.0023540660352 0.014
v 0.0319132946137 0.0023540660352 0.031
v 0.0319397796128 0.0019622635617 0.014
v 0.0319397796128 0.0019622635617 0.031
v 0.0319892088295 0.0023596658042 0.0313826834324
v 0.0320157568302 0.0019669313248 0.0313826834324
v 0.0322053942257 0.002375612597 0.0317071067812
v 0.0322321216396 0.0019802239895 0.0317071067812
v 0.0325289385354 0.0023994786591 0.0319238795325
v 0.0325559344604 0.0020001178681 0.0319238795325
v 0.0329105850704 0.0024276305988 0.032
v 0.0329378977257 0.002023584298 0.032
v 0.0488672323773 0.0036046636164 0.032
v 0.0489077875321 0.0030047160788 0.032
v 0.0492488789123 0.0036328155561 0.0319238795325
v 0.0492897507975 0.0030281825087 0.0319238795325
v 0.049572423222 0.0036566816182 0.0317071067812
v 0.0496135636182 0.0030480763873 0.0317071067812
v 0.0497886086182 0.003672628411 0.0313826834324
v 0.0498299284276 0.003061369052 0.0313826834324
v 0.0498645228339 0.00367822818 0.014
v 0.0498645228339 0.00367822818 0.031
v 0.049905905645 0.0030660368151 0.014
v 0.049905905645 0.0030660368151 0.031
f 22 21 17
f 22 17 19
f 13 17 11
f 18 19 17
f 10 3 23
f 15 17 13
f 5 2 4
f 5 11 17
f 5 1 2
f 5 21 1
f 5 17 21
f 24 10 23
f 24 22 19
f 6 4 3
f 6 3 10
f 6 5 4
f 9 11 5
f 9 5 7
f 16 15 13
f 16 18 17
f 16 17 15
f 14 10 24
f 14 18 16
f 14 16 13
f 8 6 10
f 8 9 7
f 8 10 9
f 8 7 5
f 8 5 6
f 20 18 14
f 20 14 24
f 20 19 18
f 20 24 19
f 12 10 14
f 12 11 9
f 12 9 10
f 3 21 23
f 3 1 21
f 2 1 3
f 2 3 4
f 24 23 21
f 24 21 22
f 12 14 13
f 12 13 11
