# Parametric PetalDock simulation geometry; SI units
v 0.0023540660352 0.0319132946137 0.014
v 0.0023540660352 0.0319132946137 0.031
v 0.0023596658042 0.0319892088295 0.0313826834324
v 0.002375612597 0.0322053942257 0.0317071067812
v 0.0023994786591 0.0325289385354 0.0319238795325
v 0.0024276305988 0.0329105850704 0.032
v 0.002745513995 0.0318820035898 0.014
v 0.002745513995 0.0318820035898 0.0309650723208
v 0.0027520449265 0.0319578433717 0.0313469695036
v 0.002770643446 0.0321738167978 0.0316707263021
v 0.0027984780974 0.0324970438719 0.0318870536788
v 0.0028313113074 0.032878316202 0.0319630177515
v 0.0036046636164 0.0488672323773 0.032
v 0.0036328155561 0.0492488789123 0.0319238795325
v 0.0036566816182 0.049572423222 0.0317071067812
v 0.003672628411 0.0497886086182 0.0313826834324
v 0.00367822818 0.0498645228339 0.014
v 0.00367822818 0.0498645228339 0.031
v 0.0042040683049 0.048819317997 0.0319630177515
v 0.0042369015149 0.0492005903271 0.0318870536788
v 0.0042647361662 0.0495238174012 0.0316707263021
v 0.0042833346857 0.0497397908273 0.0313469695036
v 0.0042898656172 0.0498156306091 0.014
v 0.0042898656172 0.0498156306091 0.0309650723208
f 16 17 1
f 18 17 16
f 4 1 2
f 4 16 1
f 4 6 13
f 4 13 16
f 20 7 23
f 14 15 16
f 14 16 13
f 14 13 20
f 14 21 15
f 14 20 21
f 3 2 8
f 3 4 2
f 5 6 4
f 22 20 23
f 22 21 20
f 22 16 15
f 22 15 21
f 12 8 7
f 12 7 20
f 12 6 5
f 24 22 23
f 24 18 16
f 24 16 22
f 19 20 13
f 19 12 20
f 19 13 6
f 19 6 12
f 10 8 12
f 10 5 4
f 9 3 8
f 9 8 10
f 9 4 3
f 9 10 4
f 11 12 5
f 11 5 10
f 11 10 12
f 7 17 23
f 7 1 17
f 2 1 7
f 2 7 8
f 24 23 17
f 24 17 18
