# Parametric PetalDock simulation geometry; SI units
v 0.0317593451072 -0.0039171416064 0.014
v 0.0317593451072 -0.0039171416064 0.0304411571335
v 0.0318050230401 -0.0035271106334 0.014
v 0.0318050230401 -0.0035271106334 0.0306856508876
v 0.0318348931133 -0.0039264595642 0.0308112605713
v 0.0318806797033 -0.0035355007994 0.031061258073
v 0.0320500356327 -0.0039529948631 0.0311250191158
v 0.0320961316517 -0.0035593939705 0.0313796824694
v 0.0323720191669 -0.0039927077442 0.0313346658727
v 0.0324185782793 -0.0035951526281 0.0315924468488
v 0.0327518246418 -0.0040395522816 0.0314082840237
v 0.0327989300101 -0.0036373328407 0.0316671597633
v 0.0486314971953 -0.0059981230848 0.0314082840237
v 0.0487014415301 -0.0054008881574 0.0316671597633
v 0.0490113026702 -0.0060449676221 0.0313346658727
v 0.0490817932608 -0.00544306837 0.0315924468488
v 0.0493332862044 -0.0060846805033 0.0311250191158
v 0.0494042398885 -0.0054788270276 0.0313796824694
v 0.0495484287238 -0.0061112158021 0.0308112605713
v 0.0496196918369 -0.0055027201987 0.031061258073
v 0.0496239767299 -0.00612053376 0.014
v 0.0496239767299 -0.00612053376 0.0304411571335
v 0.0496953485001 -0.0055111103647 0.014
v 0.0496953485001 -0.0055111103647 0.0306856508876
f 7 1 21
f 14 12 13
f 20 24 23
f 20 23 3
f 20 3 4
f 20 4 12
f 22 7 21
f 22 13 7
f 22 24 20
f 2 1 7
f 11 13 12
f 11 7 13
f 8 12 4
f 16 18 20
f 16 12 14
f 16 20 12
f 17 13 22
f 17 18 16
f 10 11 12
f 10 12 8
f 10 8 7
f 6 4 2
f 6 8 4
f 15 13 17
f 15 17 16
f 15 14 13
f 15 16 14
f 19 22 20
f 19 17 22
f 19 20 18
f 19 18 17
f 9 7 11
f 9 10 7
f 9 11 10
f 5 2 7
f 5 6 2
f 5 7 8
f 5 8 6
f 3 23 21
f 3 21 1
f 22 21 23
f 22 23 24
f 2 3 1
f 2 4 3
