# Parametric PetalDock simulation geometry; SI units
v 0.0011778311341 -0.0319783163068 0.014
v 0.0011778311341 -0.0319783163068 0.031
v 0.0011806329171 -0.0320543851939 0.0313826834324
v 0.0011886117201 -0.0322710110567 0.0317071067812
v 0.0012005528427 -0.0325952145712 0.0319238795325
v 0.0012146383571 -0.0329776386914 0.032
v 0.0015701655785 -0.0319614545986 0.014
v 0.0015701655785 -0.0319614545986 0.031
v 0.0015739006328 -0.0320374833756 0.0313826834324
v 0.0015845371676 -0.0322539950147 0.0317071067812
v 0.0016004558668 -0.0325780275814 0.0319238795325
v 0.0016192332528 -0.0329602500548 0.032
v 0.0018035539241 -0.0489667968448 0.032
v 0.0018176394385 -0.049349220965 0.0319238795325
v 0.0018295805611 -0.0496734244796 0.0317071067812
v 0.0018375593641 -0.0498900503423 0.0313826834324
v 0.0018403611471 -0.0499661192294 0.014
v 0.0018403611471 -0.0499661192294 0.031
v 0.002404316042 -0.0489409773541 0.032
v 0.0024230934281 -0.0493231998275 0.0319238795325
v 0.0024390121273 -0.0496472323942 0.0317071067812
v 0.0024496486621 -0.0498637440332 0.0313826834324
v 0.0024533837164 -0.0499397728103 0.014
v 0.0024533837164 -0.0499397728103 0.031
f 14 1 17
f 18 14 17
f 13 14 19
f 13 6 4
f 13 4 14
f 3 2 1
f 3 1 14
f 3 14 4
f 5 6 12
f 5 4 6
f 24 23 22
f 11 5 12
f 20 12 19
f 20 11 12
f 20 19 14
f 20 14 15
f 10 23 7
f 10 22 23
f 10 7 8
f 10 20 22
f 10 11 20
f 10 4 5
f 10 5 11
f 16 22 15
f 16 18 24
f 16 24 22
f 16 14 18
f 16 15 14
f 21 15 22
f 21 22 20
f 21 20 15
f 9 10 8
f 9 8 2
f 9 2 3
f 9 3 4
f 9 4 10
f 7 23 17
f 7 17 1
f 2 7 1
f 2 8 7
f 13 19 12
f 13 12 6
f 24 17 23
f 24 18 17
