# Parametric PetalDock simulation geometry; SI units
v 0.0290933754589 -0.0133257459231 0.014
v 0.0290933754589 -0.0133257459231 0.0214102564103
v 0.0291625817508 -0.0133574447359 0.0215770671372
v 0.0292547121825 -0.0129677220482 0.014
v 0.0292547121825 -0.0129677220482 0.0217735042735
v 0.0293243022565 -0.0129985692064 0.0219484919969
v 0.0293596645959 -0.0134477153174 0.0217184824431
v 0.0295224780205 -0.013086414481 0.0220968394256
v 0.0296546199176 -0.0135828147898 0.0218129731296
v 0.029819069011 -0.0132178842252 0.0221959620085
v 0.030002543442 -0.0137421754832 0.0218461538462
v 0.0301689219382 -0.0133729633622 0.0222307692308
v 0.0445492311714 -0.0204050484448 0.0218461538462
v 0.0447962780295 -0.0198568243862 0.0222307692308
v 0.0448971546958 -0.0205644091382 0.0218129731296
v 0.0451461309567 -0.0200119035232 0.0221959620085
v 0.0451921100175 -0.0206995086106 0.0217184824431
v 0.0453891928626 -0.0207897791921 0.0215770671372
v 0.0454427219472 -0.0201433732674 0.0220968394256
v 0.0454583991545 -0.0208214780049 0.014
v 0.0454583991545 -0.0208214780049 0.0214102564103
v 0.0456408977112 -0.020231218542 0.0219484919969
v 0.0457104877852 -0.0202620657002 0.014
v 0.0457104877852 -0.0202620657002 0.0217735042735
f 7 1 20
f 7 20 13
f 14 12 13
f 21 13 20
f 11 13 12
f 2 1 7
f 16 19 24
f 16 24 14
f 6 23 4
f 6 24 23
f 6 14 24
f 6 4 5
f 6 5 2
f 17 19 16
f 22 21 24
f 22 24 19
f 9 7 13
f 9 13 11
f 10 12 14
f 10 14 6
f 10 7 9
f 10 11 12
f 10 9 11
f 3 2 7
f 3 6 2
f 18 13 21
f 18 21 22
f 18 19 17
f 18 22 19
f 8 7 10
f 8 10 6
f 8 3 7
f 8 6 3
f 15 13 18
f 15 18 17
f 15 17 16
f 15 14 13
f 15 16 14
f 4 23 20
f 4 20 1
f 21 20 23
f 21 23 24
f 5 4 1
f 5 1 2
