# Parametric PetalDock simulation geometry; SI units
v -0.0440960632174 0.0235698368413 0.014
v -0.0440960632174 0.0235698368413 0.019594017094
v -0.0440289309585 0.0235339539013 0.0197199428389
v -0.0438377544596 0.0234317679337 0.0198266975306
v -0.0438035047098 0.024109188604 0.014
v -0.0438035047098 0.024109188604 0.0192307692308
v -0.0437368178446 0.0240724845498 0.0193485179792
v -0.0435516386096 0.0232788358257 0.0198980287351
v -0.04354690972 0.0239679602469 0.0194483405481
v -0.0432626921262 0.0238115285728 0.0195150398562
v -0.0432141419531 0.0230984401045 0.0199230769231
v -0.0429274346156 0.0236270048319 0.0195384615385
v -0.0291034017235 0.0155560923153 0.0199230769231
v -0.0289103131084 0.0159120644786 0.0195384615385
v -0.028765905067 0.015375696594 0.0198980287351
v -0.0285750555978 0.0157275407377 0.0195150398562
v -0.028479789217 0.015222764486 0.0198266975306
v -0.028290838004 0.0155711090636 0.0194483405481
v -0.0282886127181 0.0151205785184 0.0197199428389
v -0.0282214804591 0.0150846955784 0.014
v -0.0282214804591 0.0150846955784 0.019594017094
v -0.0281009298794 0.0154665847607 0.0193485179792
v -0.0280342430143 0.0154298807065 0.014
v -0.0280342430143 0.0154298807065 0.0192307692308
f 18 23 5
f 6 18 5
f 12 18 6
f 8 9 4
f 8 1 20
f 8 4 1
f 7 4 9
f 7 12 6
f 3 2 1
f 3 1 4
f 3 4 7
f 3 6 2
f 3 7 6
f 16 12 14
f 16 18 12
f 10 9 8
f 10 7 9
f 10 12 7
f 10 11 12
f 10 8 11
f 15 18 16
f 15 16 14
f 15 11 8
f 22 24 23
f 22 23 18
f 13 14 12
f 13 15 14
f 13 12 11
f 13 11 15
f 19 21 24
f 19 24 22
f 19 20 21
f 19 8 20
f 19 15 8
f 17 18 15
f 17 15 19
f 17 22 18
f 17 19 22
f 20 5 23
f 20 1 5
f 6 5 1
f 6 1 2
f 24 20 23
f 24 21 20
