# Parametric PetalDock simulation geometry; SI units
v -0.0493650709079 -0.0079429071667 0.014
v -0.0493650709079 -0.0079429071667 0.0294017094017
v -0.0492899170624 -0.0079308148106 0.0297484140498
v -0.0492638821194 -0.008548094438 0.014
v -0.0492638821194 -0.008548094438 0.0290384615385
v -0.0491888823247 -0.0085350807391 0.0293769891902
v -0.0490758970176 -0.0078963786938 0.0300423360582
v -0.0489753009793 -0.0084980208601 0.0296639790757
v -0.0487555933852 -0.0078448414029 0.0302387284654
v -0.0486556539071 -0.0084425568316 0.0298557395865
v -0.0483777694897 -0.0077840490234 0.0303076923077
v -0.0482786044771 -0.0083771325493 0.0299230769231
v -0.0325809467992 -0.00524231873 0.0303076923077
v -0.0325141621988 -0.0056417423291 0.0299230769231
v -0.0322031229037 -0.0051815263505 0.0302387284654
v -0.0321371127688 -0.0055763180467 0.0298557395865
v -0.0318828192714 -0.0051299890596 0.0300423360582
v -0.0318174656966 -0.0055208540182 0.0296639790757
v -0.0316687992266 -0.0050955529428 0.0297484140498
v -0.0316038843512 -0.0054837941392 0.0293769891902
v -0.0315936453811 -0.0050834605867 0.014
v -0.0315936453811 -0.0050834605867 0.0294017094017
v -0.0315288845564 -0.0054707804403 0.014
v -0.0315288845564 -0.0054707804403 0.0290384615385
f 12 4 23
f 5 4 12
f 13 11 12
f 8 5 12
f 20 17 18
f 15 18 17
f 15 17 13
f 3 2 5
f 10 12 11
f 10 8 12
f 19 17 20
f 19 22 21
f 24 22 19
f 24 19 20
f 14 15 13
f 14 13 12
f 14 12 23
f 6 5 8
f 6 3 5
f 9 2 3
f 9 11 13
f 9 13 17
f 9 10 11
f 9 8 10
f 9 1 2
f 9 17 1
f 16 18 15
f 16 15 14
f 16 20 18
f 16 24 20
f 16 23 24
f 16 14 23
f 7 8 9
f 7 9 3
f 7 6 8
f 7 3 6
f 21 23 4
f 21 4 1
f 5 1 4
f 5 2 1
f 19 21 1
f 19 1 17
f 24 23 21
f 24 21 22
