# Parametric PetalDock simulation geometry; SI units
v -0.015100297466 -0.0476653020177 0.014
v -0.015100297466 -0.0476653020177 0.0250427350427
v -0.0150773086319 -0.0475927359163 0.0252913157338
v -0.0150118419714 -0.047386085143 0.0255020522681
v -0.0149138641899 -0.047076810405 0.0256428619186
v -0.0147982915166 -0.0467119959774 0.0256923076923
v -0.0145142338627 -0.0478470167866 0.014
v -0.0145142338627 -0.0478470167866 0.025405982906
v -0.0144921372574 -0.0477741740409 0.0256627405935
v -0.0144292114492 -0.0475667354515 0.0258804092506
v -0.0143350363221 -0.0472562816631 0.0260258507975
v -0.0142239491855 -0.0468900764509 0.0260769230769
v -0.0099661963275 -0.0314590993317 0.0256923076923
v -0.0098506236543 -0.0310942849041 0.0256428619186
v -0.0097526458728 -0.030785010166 0.0255020522681
v -0.0096871792123 -0.0305783593928 0.0252913157338
v -0.0096641903782 -0.0305057932913 0.014
v -0.0096641903782 -0.0305057932913 0.0250427350427
v -0.0095793943494 -0.0315790310792 0.0260769230769
v -0.0094683072127 -0.0312128258669 0.0260258507975
v -0.0093741320856 -0.0309023720786 0.0258804092506
v -0.0093112062775 -0.0306949334891 0.0256627405935
v -0.0092891096721 -0.0306220907434 0.014
v -0.0092891096721 -0.0306220907434 0.025405982906
f 10 7 23
f 10 8 7
f 21 10 23
f 9 8 10
f 19 12 11
f 24 21 23
f 5 11 12
f 20 21 15
f 20 19 11
f 20 10 21
f 20 11 10
f 6 12 19
f 6 5 12
f 4 10 11
f 4 11 5
f 4 5 6
f 22 24 18
f 22 21 24
f 3 9 10
f 3 10 4
f 14 1 4
f 14 4 6
f 14 20 15
f 2 8 9
f 2 9 3
f 2 4 1
f 2 3 4
f 16 18 17
f 16 14 15
f 16 22 18
f 16 15 21
f 16 21 22
f 13 6 19
f 13 14 6
f 13 19 20
f 13 20 14
f 17 23 7
f 17 7 1
f 18 23 17
f 18 24 23
f 2 1 7
f 2 7 8
f 16 17 1
f 16 1 14
