# Parametric PetalDock simulation geometry; SI units
v -0.0461939766256 0.0191341716183 0.014
v -0.0461939766256 0.0191341716183 0.0225
v -0.0461236504836 0.0191050415765 0.0226913417162
v -0.0459556925845 0.0196996020031 0.014
v -0.0459556925845 0.0196996020031 0.0221367521368
v -0.0459233785755 0.019022086236 0.0228535533906
v -0.0458857292084 0.0196696111448 0.0223199168565
v -0.04568649037 0.0195842044063 0.0224751964081
v -0.0456236504836 0.0188979347953 0.0229619397663
v -0.0453883083763 0.0194563841892 0.0225789508874
v -0.0452700970931 0.0187514881859 0.023
v -0.0450365787328 0.019305609963 0.0226153846154
v -0.0304880245729 0.012628553268 0.023
v -0.0303307571058 0.013001737322 0.0226153846154
v -0.0301344711823 0.0124821066586 0.0229619397663
v -0.0299790274623 0.0128509630958 0.0225789508874
v -0.0298347430904 0.012357955218 0.0228535533906
v -0.0296808454686 0.0127231428788 0.0224751964081
v -0.0296344711823 0.0122749998775 0.0226913417162
v -0.0295641450404 0.0122458698357 0.014
v -0.0295641450404 0.0122458698357 0.0225
v -0.0294816066301 0.0126377361402 0.0223199168565
v -0.0294116432541 0.012607745282 0.014
v -0.0294116432541 0.012607745282 0.0221367521368
f 2 1 11
f 8 23 4
f 13 12 11
f 13 1 20
f 13 11 1
f 5 8 4
f 10 11 12
f 10 12 8
f 24 23 8
f 18 8 12
f 18 12 16
f 18 24 8
f 14 16 12
f 14 12 13
f 15 20 21
f 15 13 20
f 15 17 18
f 15 18 16
f 15 16 14
f 15 14 13
f 3 2 11
f 3 11 6
f 3 5 2
f 9 6 11
f 9 11 10
f 9 8 6
f 9 10 8
f 19 21 24
f 19 17 15
f 19 15 21
f 7 8 5
f 7 5 3
f 7 6 8
f 7 3 6
f 22 24 18
f 22 19 24
f 22 18 17
f 22 17 19
f 20 4 23
f 20 1 4
f 5 4 1
f 5 1 2
f 24 20 23
f 24 21 20
