# Parametric PetalDock simulation geometry; SI units
v 0.0310410001022 0.0077753657569 0.014
v 0.0310410001022 0.0077753657569 0.026858974359
v 0.0311148393347 0.0077938615218 0.0271484400322
v 0.0311340784706 0.007393859465 0.014
v 0.0311340784706 0.007393859465 0.0272222222222
v 0.0312081391146 0.0074114477162 0.0275198648918
v 0.0313251156783 0.0078465330039 0.0273938371806
v 0.0314190459849 0.007461534818 0.0277721941631
v 0.0316398164659 0.0079253614476 0.0275578063131
v 0.0317346904224 0.0075364954633 0.027940795192
v 0.0320110313554 0.0080183459368 0.0276153846154
v 0.0321070184228 0.0076249175733 0.028
v 0.0475315314065 0.0119060288153 0.0276153846154
v 0.0476740576581 0.0113218473058 0.028
v 0.047902746296 0.0119990133045 0.0275578063131
v 0.0480463856585 0.0114102694157 0.027940795192
v 0.0482174470836 0.0120778417482 0.0273938371806
v 0.048362030096 0.011485230061 0.0277721941631
v 0.0484277234273 0.0121305132303 0.0271484400322
v 0.0485015626597 0.0121490089952 0.014
v 0.0485015626597 0.0121490089952 0.026858974359
v 0.0485729369663 0.0115353171628 0.0275198648918
v 0.0486469976103 0.011552905414 0.014
v 0.0486469976103 0.011552905414 0.0272222222222
f 9 20 1
f 9 13 20
f 14 13 12
f 21 20 13
f 8 4 23
f 8 23 24
f 11 12 13
f 11 13 9
f 16 8 24
f 16 14 12
f 17 21 13
f 17 16 18
f 22 18 16
f 22 16 24
f 22 24 21
f 10 16 12
f 10 8 16
f 10 12 11
f 10 11 9
f 15 17 13
f 15 16 17
f 15 13 14
f 15 14 16
f 19 21 17
f 19 22 21
f 19 17 18
f 19 18 22
f 3 1 2
f 3 9 1
f 7 9 3
f 7 3 8
f 7 10 9
f 7 8 10
f 6 2 5
f 6 3 2
f 6 8 3
f 6 5 4
f 6 4 8
f 4 20 23
f 4 1 20
f 21 23 20
f 21 24 23
f 2 1 4
f 2 4 5
