# Parametric PetalDock simulation geometry; SI units
v 0.0007853193127 -0.0319903621983 0.014
v 0.0007853193127 -0.0319903621983 0.031
v 0.0007871874025 -0.0320664597397 0.0313826834324
v 0.0007925072721 -0.0322831672031 0.0317071067812
v 0.0008004690197 -0.0326074928417 0.0319238795325
v 0.0008098605413 -0.032990061017 0.032
v 0.0011778311341 -0.0319783163068 0.014
v 0.0011778311341 -0.0319783163068 0.031
v 0.0011806329171 -0.0320543851939 0.0313826834324
v 0.0011886117201 -0.0322710110567 0.0317071067812
v 0.0012005528427 -0.0325952145712 0.0319238795325
v 0.0012025201976 -0.0489852421161 0.032
v 0.0012119117192 -0.0493678102914 0.0319238795325
v 0.0012146383571 -0.0329776386914 0.032
v 0.0012198734667 -0.04969213593 0.0317071067812
v 0.0012251933364 -0.0499088433934 0.0313826834324
v 0.0012270614261 -0.0499849409348 0.014
v 0.0012270614261 -0.0499849409348 0.031
v 0.0018035539241 -0.0489667968448 0.032
v 0.0018176394385 -0.049349220965 0.0319238795325
v 0.0018295805611 -0.0496734244796 0.0317071067812
v 0.0018375593641 -0.0498900503423 0.0313826834324
v 0.0018403611471 -0.0499661192294 0.014
v 0.0018403611471 -0.0499661192294 0.031
f 4 1 17
f 4 2 1
f 4 17 18
f 24 16 18
f 11 23 7
f 11 7 8
f 15 18 16
f 15 16 21
f 15 4 18
f 15 12 4
f 3 8 2
f 3 2 4
f 22 24 23
f 22 23 11
f 22 11 21
f 22 21 16
f 22 16 24
f 5 11 4
f 5 12 6
f 5 4 12
f 13 15 21
f 13 12 15
f 13 19 12
f 9 11 8
f 9 8 3
f 9 3 4
f 14 21 11
f 14 19 21
f 14 5 6
f 14 11 5
f 20 21 19
f 20 13 21
f 20 19 13
f 10 4 11
f 10 9 4
f 10 11 9
f 7 23 17
f 7 17 1
f 2 7 1
f 2 8 7
f 24 17 23
f 24 18 17
f 14 12 19
f 14 6 12
