# Parametric PetalDock simulation geometry; SI units
v -0.0425677596553 0.0262294841339 0.014
v -0.0425677596553 0.0262294841339 0.0177777777778
v -0.0425029541 0.026189552122 0.0178628185405
v -0.0423184034924 0.0260758353732 0.017934912618
v -0.0422426782625 0.0267498809944 0.014
v -0.0422426782625 0.0267498809944 0.0174145299145
v -0.0421783676141 0.0267091567254 0.0174913936809
v -0.0420422039896 0.0259056462316 0.0179830843406
v -0.0419952263823 0.0265931838194 0.0175565556355
v -0.0417211361594 0.0264196181 0.0176000954617
v -0.0417164044622 0.0257048944512 0.018
v -0.0413978246972 0.0262148833745 0.0176153846154
v -0.0280947213725 0.0173114595284 0.018
v -0.0278801676532 0.0176549214563 0.0176153846154
v -0.027768921845 0.017110707748 0.0179830843406
v -0.027556856191 0.0174501867308 0.0176000954617
v -0.0274927223422 0.0169405186064 0.017934912618
v -0.0273081717347 0.0168268018576 0.0178628185405
v -0.0272827659681 0.0172766210113 0.0175565556355
v -0.0272433661794 0.0167868698457 0.014
v -0.0272433661794 0.0167868698457 0.0177777777778
v -0.0270996247363 0.0171606481053 0.0174913936809
v -0.027035314088 0.0171199238364 0.014
v -0.027035314088 0.0171199238364 0.0174145299145
f 20 11 1
f 14 23 5
f 21 11 20
f 13 12 11
f 13 14 12
f 3 11 4
f 3 2 1
f 3 1 11
f 3 6 2
f 8 4 11
f 8 9 4
f 15 11 21
f 15 13 11
f 15 14 13
f 7 9 6
f 7 6 3
f 7 4 9
f 7 3 4
f 10 9 8
f 10 6 9
f 10 11 12
f 10 8 11
f 10 5 6
f 10 14 5
f 10 12 14
f 18 21 24
f 18 15 21
f 18 17 15
f 19 15 17
f 16 24 23
f 16 23 14
f 16 14 15
f 16 15 19
f 22 17 18
f 22 19 17
f 22 18 24
f 22 24 16
f 22 16 19
f 20 5 23
f 20 1 5
f 6 5 1
f 6 1 2
f 24 20 23
f 24 21 20
