# Parametric PetalDock simulation geometry; SI units
v -0.049905905645 -0.0030660368151 0.014
v -0.049905905645 -0.0030660368151 0.031
v -0.0498645228339 -0.00367822818 0.014
v -0.0498645228339 -0.00367822818 0.031
v -0.0498299284276 -0.003061369052 0.0313826834324
v -0.0497886086182 -0.003672628411 0.0313826834324
v -0.0496135636182 -0.0030480763873 0.0317071067812
v -0.049572423222 -0.0036566816182 0.0317071067812
v -0.0492897507975 -0.0030281825087 0.0319238795325
v -0.0492488789123 -0.0036328155561 0.0319238795325
v -0.0489077875321 -0.0030047160788 0.032
v -0.0488672323773 -0.0036046636164 0.032
v -0.0329378977257 -0.002023584298 0.032
v -0.0329105850704 -0.0024276305988 0.032
v -0.0325559344604 -0.0020001178681 0.0319238795325
v -0.0325289385354 -0.0023994786591 0.0319238795325
v -0.0322321216396 -0.0019802239895 0.0317071067812
v -0.0322053942257 -0.002375612597 0.0317071067812
v -0.0320157568302 -0.0019669313248 0.0313826834324
v -0.0319892088295 -0.0023596658042 0.0313826834324
v -0.0319397796128 -0.0019622635617 0.014
v -0.0319397796128 -0.0019622635617 0.031
v -0.0319132946137 -0.0023540660352 0.014
v -0.0319132946137 -0.0023540660352 0.031
f 5 11 2
f 5 7 11
f 9 11 7
f 9 12 11
f 6 7 5
f 6 2 4
f 6 5 2
f 8 6 4
f 8 4 3
f 8 9 7
f 8 7 6
f 15 21 1
f 15 1 2
f 15 2 11
f 20 17 18
f 20 24 22
f 20 23 24
f 20 3 23
f 20 8 3
f 10 12 9
f 10 8 12
f 10 9 8
f 13 15 11
f 19 17 20
f 19 20 22
f 19 22 21
f 19 21 15
f 19 15 17
f 14 12 8
f 14 8 20
f 16 20 18
f 16 14 20
f 16 18 17
f 16 17 15
f 16 13 14
f 16 15 13
f 21 23 3
f 21 3 1
f 2 1 3
f 2 3 4
f 22 23 21
f 22 24 23
f 14 13 11
f 14 11 12
