# Parametric PetalDock simulation geometry; SI units
v 0.0129677220482 0.0292547121825 0.014
v 0.0129677220482 0.0292547121825 0.0217735042735
v 0.0129985692064 0.0293243022565 0.0219484919969
v 0.013086414481 0.0295224780205 0.0220968394256
v 0.0132178842252 0.029819069011 0.0221959620085
v 0.0133257459231 0.0290933754589 0.014
v 0.0133257459231 0.0290933754589 0.0214102564103
v 0.0133574447359 0.0291625817508 0.0215770671372
v 0.0133729633622 0.0301689219382 0.0222307692308
v 0.0134477153174 0.0293596645959 0.0217184824431
v 0.0135828147898 0.0296546199176 0.0218129731296
v 0.0137421754832 0.030002543442 0.0218461538462
v 0.0198568243862 0.0447962780295 0.0222307692308
v 0.0200119035232 0.0451461309567 0.0221959620085
v 0.0201433732674 0.0454427219472 0.0220968394256
v 0.020231218542 0.0456408977112 0.0219484919969
v 0.0202620657002 0.0457104877852 0.014
v 0.0202620657002 0.0457104877852 0.0217735042735
v 0.0204050484448 0.0445492311714 0.0218461538462
v 0.0205644091382 0.0448971546958 0.0218129731296
v 0.0206995086106 0.0451921100175 0.0217184824431
v 0.0207897791921 0.0453891928626 0.0215770671372
v 0.0208214780049 0.0454583991545 0.014
v 0.0208214780049 0.0454583991545 0.0214102564103
f 18 15 16
f 19 13 9
f 14 21 15
f 14 18 13
f 14 15 18
f 3 2 7
f 3 1 2
f 3 17 1
f 3 18 17
f 3 13 18
f 5 9 13
f 5 13 3
f 5 3 4
f 24 19 23
f 24 18 16
f 10 6 23
f 10 23 19
f 10 7 6
f 10 5 4
f 22 19 24
f 22 24 16
f 22 16 15
f 22 15 21
f 12 19 9
f 12 9 5
f 8 3 7
f 8 7 10
f 8 4 3
f 8 10 4
f 20 22 21
f 20 19 22
f 20 21 14
f 20 13 19
f 20 14 13
f 11 10 19
f 11 19 12
f 11 5 10
f 11 12 5
f 6 17 23
f 6 1 17
f 2 1 6
f 2 6 7
f 24 23 17
f 24 17 18
