# Parametric PetalDock simulation geometry; SI units
v -0.0394173213813 0.030761579529 0.014
v -0.0394173213813 0.030761579529 0.0145588428665
v -0.0393573120827 0.0307147478127 0.014571422861
v -0.0391864200586 0.0305813823682 0.0145820876654
v -0.0390368614286 0.0312429744071 0.014
v -0.0390368614286 0.0312429744071 0.0143143491124
v -0.0389774313458 0.0311954098108 0.0143214253593
v -0.0389306620705 0.0303817868752 0.0145892136598
v -0.0388081887887 0.0310599573003 0.0143274243118
v -0.0386289749537 0.0301463479385 0.0145917159763
v -0.0385548994024 0.0308572382926 0.0143314326837
v -0.0382561242 0.030618114919 0.0143328402367
v -0.0260154321117 0.0203026424892 0.0145917159763
v -0.0257643285429 0.0206203631087 0.0143328402367
v -0.0257137449949 0.0200672035524 0.0145892136598
v -0.0254655533405 0.020381239735 0.0143314326837
v -0.0254579870068 0.0198676080595 0.0145820876654
v -0.0252870949827 0.0197342426149 0.014571422861
v -0.0252270856841 0.0196874108986 0.014
v -0.0252270856841 0.0196874108986 0.0145588428665
v -0.0252122639542 0.0201785207273 0.0143274243118
v -0.0250430213971 0.0200430682169 0.0143214253593
v -0.0249835913143 0.0199955036206 0.014
v -0.0249835913143 0.0199955036206 0.0143143491124
f 12 23 5
f 7 5 6
f 7 12 5
f 22 21 17
f 15 17 21
f 15 12 13
f 11 12 7
f 11 10 13
f 11 13 12
f 3 6 2
f 3 7 6
f 3 20 15
f 3 1 19
f 3 2 1
f 3 19 20
f 18 22 17
f 18 17 15
f 18 15 20
f 24 23 12
f 24 18 20
f 24 22 18
f 14 12 15
f 14 21 22
f 14 24 12
f 14 22 24
f 8 10 11
f 8 3 15
f 8 13 10
f 8 15 13
f 16 15 21
f 16 21 14
f 16 14 15
f 9 11 7
f 9 8 11
f 4 7 3
f 4 3 8
f 4 9 7
f 4 8 9
f 19 5 23
f 19 1 5
f 6 5 1
f 6 1 2
f 24 19 23
f 24 20 19
