# Parametric PetalDock simulation geometry; SI units
v -0.0415734806151 -0.027778511651 0.014
v -0.0415734806151 -0.027778511651 0.016688034188
v -0.0415101887595 -0.0277362213851 0.0167485439615
v -0.041329948804 -0.0276157888972 0.0167998416705
v -0.0412294651393 -0.0282865905392 0.014
v -0.0412294651393 -0.0282865905392 0.0163247863248
v -0.041166697016 -0.0282435267693 0.0163771191019
v -0.041060200648 -0.0274355489417 0.0168341177039
v -0.0409879485242 -0.0281208915281 0.016421484688
v -0.0407420110028 -0.027222941418 0.0168461538462
v -0.0407204325011 -0.0279373549195 0.016451128825
v -0.0404048758365 -0.0277208587284 0.0164615384615
v -0.027438497206 -0.0183338176896 0.0168461538462
v -0.0272114469919 -0.0186691497559 0.0164615384615
v -0.0271203075608 -0.018121210166 0.0168341177039
v -0.0268958903272 -0.0184526535647 0.016451128825
v -0.0268505594048 -0.0179409702105 0.0167998416705
v -0.0266703194493 -0.0178205377225 0.0167485439615
v -0.0266283743042 -0.0182691169561 0.016421484688
v -0.0266070275937 -0.0177782474566 0.014
v -0.0266070275937 -0.0177782474566 0.016688034188
v -0.0264496258123 -0.018146481715 0.0163771191019
v -0.0263868576891 -0.0181034179451 0.014
v -0.0263868576891 -0.0181034179451 0.0163247863248
f 7 5 23
f 7 23 14
f 6 5 7
f 12 7 14
f 24 14 23
f 13 10 12
f 13 12 14
f 13 21 20
f 8 10 13
f 3 7 4
f 3 2 6
f 3 6 7
f 3 4 8
f 3 1 2
f 3 8 13
f 3 20 1
f 3 13 20
f 9 4 7
f 9 8 4
f 18 24 21
f 18 21 13
f 18 13 17
f 15 13 14
f 15 17 13
f 15 19 17
f 11 8 9
f 11 12 10
f 11 10 8
f 11 7 12
f 11 9 7
f 22 18 17
f 22 17 19
f 22 24 18
f 22 14 24
f 16 15 14
f 16 19 15
f 16 14 22
f 16 22 19
f 20 23 5
f 20 5 1
f 6 1 5
f 6 2 1
f 24 23 20
f 24 20 21
