# Parametric PetalDock simulation geometry; SI units
v 0.0081557011073 0.0309432470734 0.014
v 0.0081557011073 0.0309432470734 0.0264957264957
v 0.0081751016005 0.0310168537745 0.0267770151725
v 0.0082303495308 0.0312264679246 0.0270154801981
v 0.0083130339015 0.0315401776695 0.0271748174342
v 0.0084105667669 0.0319102235445 0.0272307692308
v 0.0085348082392 0.0308408341055 0.014
v 0.0085348082392 0.0308408341055 0.0261324786325
v 0.008555110539 0.0309141971901 0.0264055903128
v 0.0086129265972 0.0311231175796 0.0266371232156
v 0.0086994544432 0.0314357890384 0.0267918285553
v 0.0088015209967 0.0318046101712 0.0268461538462
v 0.0124884173206 0.0473818470812 0.0272307692308
v 0.012585950186 0.0477518929562 0.0271748174342
v 0.0126686345568 0.0480656027011 0.0270154801981
v 0.0127238824871 0.0482752168512 0.0267770151725
v 0.0127432829802 0.0483488235522 0.014
v 0.0127432829802 0.0483488235522 0.0264957264957
v 0.0130689251163 0.047225027224 0.0268461538462
v 0.0131709916698 0.0475938483569 0.0267918285553
v 0.0132575195157 0.0479065198156 0.0266371232156
v 0.013315335574 0.0481154402051 0.0264055903128
v 0.0133356378737 0.0481888032898 0.014
v 0.0133356378737 0.0481888032898 0.0261324786325
f 14 17 1
f 14 1 6
f 2 6 1
f 18 17 14
f 18 14 15
f 18 15 16
f 13 14 6
f 21 15 14
f 22 7 23
f 22 16 15
f 22 15 21
f 3 2 8
f 24 22 23
f 24 18 16
f 24 16 22
f 12 7 22
f 9 8 7
f 9 7 12
f 9 3 8
f 9 10 4
f 9 4 3
f 20 22 21
f 20 12 22
f 20 14 13
f 20 21 14
f 5 4 10
f 5 12 6
f 5 3 4
f 5 6 2
f 5 2 3
f 11 10 9
f 11 9 12
f 11 5 10
f 11 12 5
f 19 6 12
f 19 12 20
f 19 13 6
f 19 20 13
f 7 17 23
f 7 1 17
f 2 1 7
f 2 7 8
f 24 23 17
f 24 17 18
