# Parametric PetalDock simulation geometry; SI units
v -0.0483488235522 0.0127432829802 0.014
v -0.0483488235522 0.0127432829802 0.0264957264957
v -0.0482752168512 0.0127238824871 0.0267770151725
v -0.0481888032898 0.0133356378737 0.014
v -0.0481888032898 0.0133356378737 0.0261324786325
v -0.0481154402051 0.013315335574 0.0264055903128
v -0.0480656027011 0.0126686345568 0.0270154801981
v -0.0479065198156 0.0132575195157 0.0266371232156
v -0.0477518929562 0.012585950186 0.0271748174342
v -0.0475938483569 0.0131709916698 0.0267918285553
v -0.0473818470812 0.0124884173206 0.0272307692308
v -0.047225027224 0.0130689251163 0.0268461538462
v -0.0319102235445 0.0084105667669 0.0272307692308
v -0.0318046101712 0.0088015209967 0.0268461538462
v -0.0315401776695 0.0083130339015 0.0271748174342
v -0.0314357890384 0.0086994544432 0.0267918285553
v -0.0312264679246 0.0082303495308 0.0270154801981
v -0.0311231175796 0.0086129265972 0.0266371232156
v -0.0310168537745 0.0081751016005 0.0267770151725
v -0.0309432470734 0.0081557011073 0.014
v -0.0309432470734 0.0081557011073 0.0264957264957
v -0.0309141971901 0.008555110539 0.0264055903128
v -0.0308408341055 0.0085348082392 0.014
v -0.0308408341055 0.0085348082392 0.0261324786325
f 6 23 4
f 13 12 11
f 13 20 21
f 5 6 4
f 3 5 2
f 3 6 5
f 10 6 8
f 10 11 12
f 22 18 17
f 15 13 21
f 15 17 18
f 7 3 2
f 7 6 3
f 7 8 6
f 19 22 17
f 19 17 15
f 19 15 21
f 24 23 22
f 24 19 21
f 24 22 19
f 14 13 15
f 14 12 13
f 14 10 12
f 14 6 10
f 14 23 6
f 14 22 23
f 9 10 8
f 9 8 7
f 9 11 10
f 9 7 2
f 9 2 1
f 9 13 11
f 9 1 20
f 9 20 13
f 16 15 18
f 16 14 15
f 16 18 22
f 16 22 14
f 20 4 23
f 20 1 4
f 5 4 1
f 5 1 2
f 24 20 23
f 24 21 20
