# Parametric PetalDock simulation geometry; SI units
v -0.0470772032592 -0.0168444926696 0.014
v -0.0470772032592 -0.0168444926696 0.023952991453
v -0.0470055324847 -0.0168188484565 0.0241770411548
v -0.0468669505956 -0.0174209340125 0.014
v -0.0468669505956 -0.0174209340125 0.0235897435897
v -0.0468014313872 -0.0167458199161 0.0243669813206
v -0.0467955999118 -0.0173944122196 0.0238056162952
v -0.0465924103553 -0.0173188845437 0.0239886243381
v -0.0464959725086 -0.0166365249816 0.0244938952819
v -0.0462883156941 -0.0172058493887 0.024110906403
v -0.046135659194 -0.0165076028162 0.0245384615385
v -0.0459296115837 -0.0170725153322 0.0241538461538
v -0.031070954151 -0.0111173651619 0.0245384615385
v -0.0309321873931 -0.0114978164482 0.0241538461538
v -0.0307106408365 -0.0109884429965 0.0244938952819
v -0.0305734832827 -0.0113644823918 0.024110906403
v -0.0304051819578 -0.0108791480621 0.0243669813206
v -0.0302693886215 -0.0112514472367 0.0239886243381
v -0.0302010808603 -0.0108061195217 0.0241770411548
v -0.0301294100859 -0.0107804753086 0.014
v -0.0301294100859 -0.0107804753086 0.023952991453
v -0.030066199065 -0.0111759195608 0.0238056162952
v -0.0299948483812 -0.011149397768 0.014
v -0.0299948483812 -0.011149397768 0.0235897435897
f 16 4 23
f 5 4 16
f 12 16 14
f 9 6 8
f 9 1 2
f 3 2 5
f 3 9 2
f 3 6 9
f 24 16 23
f 13 11 12
f 13 12 14
f 13 9 11
f 10 9 8
f 10 8 5
f 10 12 11
f 10 11 9
f 10 5 16
f 10 16 12
f 7 5 8
f 7 3 5
f 7 8 6
f 7 6 3
f 22 16 24
f 19 24 21
f 19 22 24
f 19 21 20
f 15 19 20
f 15 20 1
f 15 1 9
f 15 9 13
f 15 14 16
f 15 13 14
f 17 22 19
f 17 19 15
f 18 16 22
f 18 22 17
f 18 15 16
f 18 17 15
f 20 23 4
f 20 4 1
f 5 1 4
f 5 2 1
f 24 23 20
f 24 20 21
