# Parametric PetalDock simulation geometry; SI units
v 0.0157727421514 -0.0278427837155 0.014
v 0.0157727421514 -0.0278427837155 0.0188675213675
v 0.0158102617922 -0.027909015144 0.0189770931195
v 0.0159171086894 -0.028097626295 0.0190699835656
v 0.0160770163716 -0.0283799028304 0.0191320509773
v 0.0161132282792 -0.0276471313959 0.014
v 0.0161132282792 -0.0276471313959 0.0185042735043
v 0.0161515578564 -0.0277128974136 0.0186056682599
v 0.0162607112572 -0.0279001831867 0.018691626583
v 0.0162656403436 -0.0287128707066 0.0191538461538
v 0.0164240708659 -0.028180476154 0.0187490620984
v 0.0166167666629 -0.028511104252 0.0187692307692
v 0.0241520114193 -0.0426342625643 0.0191538461538
v 0.0243406353913 -0.0429672304405 0.0191320509773
v 0.0245005430734 -0.043249506976 0.0190699835656
v 0.0246073899707 -0.0434381181269 0.0189770931195
v 0.0246449096115 -0.0435043495554 0.014
v 0.0246449096115 -0.0435043495554 0.0188675213675
v 0.0246733808026 -0.04233466995 0.0187692307692
v 0.0248660765996 -0.042665298048 0.0187490620984
v 0.0250294362083 -0.0429455910153 0.018691626583
v 0.0251385896091 -0.0431328767884 0.0186056682599
v 0.0251769191863 -0.0431986428061 0.014
v 0.0251769191863 -0.0431986428061 0.0185042735043
f 18 15 17
f 18 16 15
f 13 10 15
f 4 2 1
f 4 15 10
f 4 1 17
f 4 17 15
f 8 23 6
f 8 6 7
f 14 13 15
f 14 15 21
f 24 16 18
f 20 23 8
f 20 24 23
f 20 21 24
f 20 13 14
f 20 14 21
f 5 4 10
f 3 7 2
f 3 8 7
f 3 2 4
f 3 4 8
f 22 16 24
f 22 24 21
f 22 15 16
f 22 21 15
f 12 20 8
f 12 5 10
f 19 12 10
f 19 20 12
f 19 10 13
f 19 13 20
f 11 5 12
f 9 4 5
f 9 5 11
f 9 8 4
f 9 12 8
f 9 11 12
f 6 23 17
f 6 17 1
f 2 6 1
f 2 7 6
f 24 17 23
f 24 18 17
