# Parametric PetalDock simulation geometry; SI units
v -0.0498645228339 0.00367822818 0.014
v -0.0498645228339 0.00367822818 0.031
v -0.0498156306091 0.0042898656172 0.014
v -0.0498156306091 0.0042898656172 0.0309650723208
v -0.0497886086182 0.003672628411 0.0313826834324
v -0.0497397908273 0.0042833346857 0.0313469695036
v -0.049572423222 0.0036566816182 0.0317071067812
v -0.0495238174012 0.0042647361662 0.0316707263021
v -0.0492488789123 0.0036328155561 0.0319238795325
v -0.0492005903271 0.0042369015149 0.0318870536788
v -0.0488672323773 0.0036046636164 0.032
v -0.048819317997 0.0042040683049 0.0319630177515
v -0.0329105850704 0.0024276305988 0.032
v -0.032878316202 0.0028313113074 0.0319630177515
v -0.0325289385354 0.0023994786591 0.0319238795325
v -0.0324970438719 0.0027984780974 0.0318870536788
v -0.0322053942257 0.002375612597 0.0317071067812
v -0.0321738167978 0.002770643446 0.0316707263021
v -0.0319892088295 0.0023596658042 0.0313826834324
v -0.0319578433717 0.0027520449265 0.0313469695036
v -0.0319132946137 0.0023540660352 0.014
v -0.0319132946137 0.0023540660352 0.031
v -0.0318820035898 0.002745513995 0.014
v -0.0318820035898 0.002745513995 0.0309650723208
f 13 12 11
f 13 14 12
f 5 2 1
f 5 4 2
f 5 1 21
f 9 8 7
f 9 5 11
f 9 7 5
f 6 4 5
f 6 7 8
f 6 5 7
f 6 3 4
f 17 13 11
f 17 11 5
f 17 21 22
f 17 5 21
f 10 8 9
f 10 6 8
f 10 11 12
f 10 9 11
f 10 3 6
f 10 12 14
f 10 23 3
f 10 14 23
f 19 22 24
f 19 17 22
f 16 18 14
f 20 24 18
f 20 19 24
f 20 18 17
f 20 17 19
f 15 14 13
f 15 16 14
f 15 13 17
f 15 17 18
f 15 18 16
f 21 3 23
f 21 1 3
f 4 3 1
f 4 1 2
f 24 21 23
f 24 22 21
f 18 24 23
f 18 23 14
