# Parametric PetalDock simulation geometry; SI units
v -0.0109550620078 -0.0487851065019 0.014
v -0.0109550620078 -0.0487851065019 0.0275854700855
v -0.010938383919 -0.0487108355997 0.0278912897515
v -0.0108908887404 -0.0484993299645 0.0281505511456
v -0.0108198071823 -0.048182789412 0.0283237840709
v -0.0107359607677 -0.0478094043719 0.0283846153846
v -0.0103555688096 -0.048915868536 0.014
v -0.0103555688096 -0.048915868536 0.0279487179487
v -0.0103398033948 -0.0488413985604 0.0282627146112
v -0.010294907292 -0.0486293260123 0.0285289081282
v -0.0102277155257 -0.0483119370146 0.0287067729498
v -0.0101484574334 -0.0479375511653 0.0287692307692
v -0.0072303409252 -0.0321981702913 0.0283846153846
v -0.0071464945106 -0.0318247852512 0.0283237840709
v -0.0070754129525 -0.0315082446987 0.0281505511456
v -0.0070279177738 -0.0312967390635 0.0278912897515
v -0.007011239685 -0.0312224681612 0.014
v -0.007011239685 -0.0312224681612 0.0275854700855
v -0.0068346754143 -0.0322844732337 0.0287692307692
v -0.006755417322 -0.0319100873844 0.0287067729498
v -0.0066882255558 -0.0315926983868 0.0285289081282
v -0.0066433294529 -0.0313806258386 0.0282627146112
v -0.0066275640382 -0.031306155863 0.014
v -0.0066275640382 -0.031306155863 0.0279487179487
f 9 8 7
f 4 17 1
f 19 9 7
f 19 7 23
f 3 9 10
f 3 10 4
f 20 21 15
f 11 19 12
f 11 9 19
f 11 10 9
f 11 12 5
f 11 4 10
f 11 5 4
f 13 19 20
f 2 8 9
f 2 9 3
f 2 4 1
f 2 3 4
f 22 19 23
f 22 20 19
f 22 21 20
f 22 23 24
f 22 24 18
f 6 19 13
f 6 12 19
f 6 5 12
f 6 4 5
f 14 20 15
f 14 13 20
f 14 18 17
f 14 15 18
f 14 17 4
f 14 4 6
f 14 6 13
f 16 18 15
f 16 22 18
f 16 15 21
f 16 21 22
f 17 23 7
f 17 7 1
f 18 23 17
f 18 24 23
f 2 1 7
f 2 7 8
