# Parametric PetalDock simulation geometry; SI units
v 0.0154298807065 0.0280342430143 0.014
v 0.0154298807065 0.0280342430143 0.0192307692308
v 0.0154665847607 0.0281009298794 0.0193485179792
v 0.0155711090636 0.028290838004 0.0194483405481
v 0.0157275407377 0.0285750555978 0.0195150398562
v 0.0157727421514 0.0278427837155 0.014
v 0.0157727421514 0.0278427837155 0.0188675213675
v 0.0158102617922 0.027909015144 0.0189770931195
v 0.0159120644786 0.0289103131084 0.0195384615385
v 0.0159171086894 0.028097626295 0.0190699835656
v 0.0160770163716 0.0283799028304 0.0191320509773
v 0.0162656403436 0.0287128707066 0.0191538461538
v 0.0236270048319 0.0429274346156 0.0195384615385
v 0.0238115285728 0.0432626921262 0.0195150398562
v 0.0239679602469 0.04354690972 0.0194483405481
v 0.0240724845498 0.0437368178446 0.0193485179792
v 0.024109188604 0.0438035047098 0.014
v 0.024109188604 0.0438035047098 0.0192307692308
v 0.0241520114193 0.0426342625643 0.0191538461538
v 0.0243406353913 0.0429672304405 0.0191320509773
v 0.0245005430734 0.043249506976 0.0190699835656
v 0.0246073899707 0.0434381181269 0.0189770931195
v 0.0246449096115 0.0435043495554 0.014
v 0.0246449096115 0.0435043495554 0.0188675213675
f 15 17 1
f 2 15 1
f 19 6 23
f 19 7 6
f 12 19 9
f 13 9 19
f 3 2 7
f 3 4 2
f 8 7 19
f 8 19 12
f 8 3 7
f 8 4 3
f 5 12 9
f 5 9 2
f 5 2 4
f 14 15 2
f 14 2 9
f 14 9 13
f 20 19 23
f 20 13 19
f 20 14 13
f 16 24 18
f 16 18 17
f 16 17 15
f 11 8 12
f 11 12 5
f 22 23 24
f 22 20 23
f 22 16 15
f 22 24 16
f 10 4 8
f 10 8 11
f 10 5 4
f 10 11 5
f 21 22 15
f 21 20 22
f 21 15 14
f 21 14 20
f 6 17 23
f 6 1 17
f 2 1 6
f 2 6 7
f 24 23 17
f 24 17 18
