# Parametric PetalDock simulation geometry; SI units
v -0.0382583632811 0.0321915771445 0.014
v -0.0382583632811 0.0321915771445 0.0140349276792
v -0.0382001183912 0.0321425683865 0.0140357139288
v -0.0380342509778 0.0320030032515 0.0140363804791
v -0.0378604423253 0.0326586421477 0.014
v -0.0378028032339 0.0326089223255 0.014
v -0.037786012851 0.0317941292663 0.0140368258537
v -0.037638660989 0.0324673322513 0.014
v -0.0374931960155 0.0315477456016 0.0140369822485
v -0.0373930047592 0.0322554277302 0.014
v -0.0371032334788 0.0320054693047 0.014
v -0.0252505197655 0.0212464409154 0.0140369822485
v -0.0249878919347 0.0215547038175 0.014
v -0.02495770293 0.0210000572507 0.0140368258537
v -0.0247094648033 0.0207911832654 0.0140363804791
v -0.0246981206543 0.021304745392 0.014
v -0.0245435973899 0.0206516181305 0.0140357139288
v -0.0244853524999 0.0206026093725 0.014
v -0.0244853524999 0.0206026093725 0.0140349276792
v -0.0244524644246 0.0210928408709 0.014
v -0.0242883221796 0.0209512507967 0.014
v -0.0242306830882 0.0209015309745 0.014
f 2 5 1
f 15 1 18
f 4 1 15
f 4 15 9
f 19 18 22
f 14 15 22
f 14 13 5
f 14 9 15
f 3 2 1
f 3 1 4
f 3 5 2
f 3 4 5
f 7 9 5
f 7 5 4
f 7 4 9
f 17 22 15
f 17 19 22
f 17 15 18
f 17 18 19
f 21 14 22
f 21 13 14
f 12 5 9
f 12 14 5
f 12 9 14
f 21 18 1
f 21 1 5
f 21 22 18
f 21 5 13
