# Parametric PetalDock simulation geometry; SI units
v -0.0481888032898 0.0133356378737 0.014
v -0.0481888032898 0.0133356378737 0.0261324786325
v -0.0481154402051 0.013315335574 0.0264055903128
v -0.0480215259708 0.0139259844693 0.014
v -0.0480215259708 0.0139259844693 0.0257692307692
v -0.0479484175506 0.0139047834203 0.0260341654532
v -0.0479065198156 0.0132575195157 0.0266371232156
v -0.0477402223845 0.0138444079409 0.0262587662331
v -0.0475938483569 0.0131709916698 0.0267918285553
v -0.0474286362991 0.0137540496506 0.0264088396764
v -0.047225027224 0.0130689251163 0.0268461538462
v -0.0470610954514 0.0136474647799 0.0264615384615
v -0.0318046101712 0.0088015209967 0.0268461538462
v -0.0316942071407 0.0091911497497 0.0264615384615
v -0.0314357890384 0.0086994544432 0.0267918285553
v -0.031326666293 0.009084564879 0.0264088396764
v -0.0311231175796 0.0086129265972 0.0266371232156
v -0.0310150802076 0.0089942065886 0.0262587662331
v -0.0309141971901 0.008555110539 0.0264055903128
v -0.0308408341055 0.0085348082392 0.014
v -0.0308408341055 0.0085348082392 0.0261324786325
v -0.0308068850414 0.0089338311093 0.0260341654532
v -0.0307337766213 0.0089126300603 0.014
v -0.0307337766213 0.0089126300603 0.0257692307692
f 22 23 4
f 5 22 4
f 7 2 11
f 12 22 5
f 9 7 11
f 9 8 7
f 3 5 2
f 3 2 7
f 16 12 14
f 16 22 12
f 24 23 22
f 17 11 2
f 17 1 20
f 17 2 1
f 17 20 21
f 10 8 9
f 10 11 12
f 10 9 11
f 6 5 3
f 6 8 10
f 6 7 8
f 6 3 7
f 6 12 5
f 6 10 12
f 13 12 11
f 13 14 12
f 19 22 17
f 19 17 21
f 19 21 24
f 19 24 22
f 18 22 16
f 18 17 22
f 15 11 17
f 15 13 11
f 15 18 16
f 15 17 18
f 15 16 14
f 15 14 13
f 20 4 23
f 20 1 4
f 5 4 1
f 5 1 2
f 24 20 23
f 24 21 20
