# Parametric PetalDock simulation geometry; SI units
v -0.0073365237228 -0.0494588254982 0.014
v -0.0073365237228 -0.0494588254982 0.029764957265
v -0.0073253545305 -0.0493835289199 0.0301198389095
v -0.0072935473618 -0.0491691024063 0.0304206930407
v -0.0072459445699 -0.0488481904503 0.0306217173443
v -0.0071897932483 -0.0484696489883 0.0306923076923
v -0.0067290354254 -0.0495451317714 0.014
v -0.0067290354254 -0.0495451317714 0.030126808021
v -0.0067187910789 -0.0494697037995 0.030489835212
v -0.0066896176485 -0.049254903109 0.030797594804
v -0.0066459565243 -0.0489334311576 0.031003233189
v -0.0065944547168 -0.048554229136 0.031075443787
v -0.004842105657 -0.0326428248288 0.0306923076923
v -0.0047859543354 -0.0322642833668 0.0306217173443
v -0.0047383515435 -0.0319433714109 0.0304206930407
v -0.0047065443749 -0.0317289448972 0.0301198389095
v -0.0046953751826 -0.0316536483189 0.014
v -0.0046953751826 -0.0316536483189 0.029764957265
v -0.0044411633807 -0.0326997869691 0.031075443787
v -0.0043896615733 -0.0323205849475 0.031003233189
v -0.0043460004491 -0.0319991129961 0.030797594804
v -0.0043168270187 -0.0317843123055 0.030489835212
v -0.0043065826722 -0.0317088843337 0.014
v -0.0043065826722 -0.0317088843337 0.030126808021
f 12 7 23
f 9 7 12
f 9 8 7
f 11 9 12
f 11 10 9
f 11 12 5
f 24 21 23
f 3 9 10
f 3 17 1
f 3 5 13
f 18 17 3
f 19 12 23
f 19 23 21
f 20 21 15
f 20 19 21
f 20 13 19
f 4 3 10
f 4 5 3
f 4 10 11
f 4 11 5
f 2 8 9
f 2 9 3
f 2 3 1
f 16 15 21
f 16 3 13
f 16 18 3
f 6 13 5
f 6 19 13
f 6 5 12
f 6 12 19
f 14 15 16
f 14 16 13
f 14 20 15
f 14 13 20
f 22 24 18
f 22 18 16
f 22 21 24
f 22 16 21
f 17 23 7
f 17 7 1
f 18 23 17
f 18 24 23
f 2 1 7
f 2 7 8
