# Parametric PetalDock simulation geometry; SI units
v -0.0103555688096 0.048915868536 0.014
v -0.0103555688096 0.048915868536 0.0279487179487
v -0.0103398033948 0.0488413985604 0.0282627146112
v -0.010294907292 0.0486293260123 0.0285289081282
v -0.0102277155257 0.0483119370146 0.0287067729498
v -0.0101484574334 0.0479375511653 0.0287692307692
v -0.0097545161008 0.0490392640202 0.014
v -0.0097545161008 0.0490392640202 0.028311965812
v -0.0097396657343 0.0489646061861 0.0286341394708
v -0.0096973754684 0.0487519986624 0.0289072651107
v -0.0096340836128 0.0484338090173 0.0290897618287
v -0.0095594257788 0.0480584787398 0.0291538461538
v -0.0068346754143 0.0322844732337 0.0287692307692
v -0.006755417322 0.0319100873844 0.0287067729498
v -0.0066882255558 0.0315926983868 0.0285289081282
v -0.0066433294529 0.0313806258386 0.0282627146112
v -0.0066275640382 0.031306155863 0.014
v -0.0066275640382 0.031306155863 0.0279487179487
v -0.0064379806265 0.0323659142533 0.0291538461538
v -0.0063633227925 0.0319905839758 0.0290897618287
v -0.0063000309369 0.0316723943306 0.0289072651107
v -0.006257740671 0.031459786807 0.0286341394708
v -0.0062428903045 0.0313851289729 0.014
v -0.0062428903045 0.0313851289729 0.028311965812
f 9 10 8
f 11 23 7
f 11 7 8
f 11 8 10
f 19 11 12
f 5 12 11
f 20 15 21
f 22 23 11
f 22 11 19
f 22 24 23
f 22 20 21
f 22 19 20
f 22 18 24
f 6 19 12
f 6 12 5
f 4 11 10
f 4 5 11
f 4 6 5
f 4 1 17
f 4 17 18
f 4 18 15
f 4 15 6
f 16 15 18
f 16 18 22
f 16 21 15
f 16 22 21
f 13 6 15
f 13 19 6
f 13 20 19
f 3 10 9
f 3 4 10
f 14 15 20
f 14 13 15
f 14 20 13
f 2 9 8
f 2 3 9
f 2 1 4
f 2 4 3
f 17 7 23
f 17 1 7
f 24 17 23
f 24 18 17
f 2 7 1
f 2 8 7
