# Parametric PetalDock simulation geometry; SI units
v 0.0143875625489 0.0285831776383 0.014
v 0.0143875625489 0.0285831776383 0.0203205128205
v 0.0144217871735 0.0286511702896 0.0204627925582
v 0.0145192506585 0.028844796979 0.0205834114956
v 0.0146651150717 0.029134579798 0.0206640064929
v 0.0147372387507 0.0284044678529 0.014
v 0.0147372387507 0.0284044678529 0.0199572649573
v 0.0147722951726 0.0284720353958 0.0200913676985
v 0.0148371738786 0.0294764019395 0.0206923076923
v 0.0148721274161 0.0286644514785 0.0202050545131
v 0.015021536927 0.0289524224967 0.020281017614
v 0.0151977774616 0.0292921074733 0.0203076923077
v 0.0220309551531 0.0437679907586 0.0206923076923
v 0.0222030139599 0.0441098129 0.0206640064929
v 0.0223488783732 0.0443995957191 0.0205834114956
v 0.0224463418581 0.0445932224084 0.0204627925582
v 0.0224805664827 0.0446612150598 0.014
v 0.0224805664827 0.0446612150598 0.0203205128205
v 0.022566396837 0.0434943413997 0.0203076923077
v 0.0227426373716 0.0438340263764 0.020281017614
v 0.0228920468825 0.0441219973946 0.0202050545131
v 0.0229918791259 0.0443144134773 0.0200913676985
v 0.0230269355479 0.0443819810201 0.014
v 0.0230269355479 0.0443819810201 0.0199572649573
f 14 21 15
f 14 18 2
f 19 6 23
f 19 23 24
f 19 24 21
f 19 7 6
f 16 14 15
f 16 18 14
f 16 24 18
f 3 2 7
f 3 4 2
f 5 2 4
f 5 9 14
f 5 14 2
f 12 19 9
f 12 9 5
f 13 14 9
f 13 9 19
f 20 21 14
f 20 19 21
f 20 14 13
f 20 13 19
f 22 21 24
f 22 24 16
f 22 15 21
f 22 16 15
f 11 7 19
f 11 19 12
f 11 12 5
f 10 7 11
f 10 5 4
f 10 11 5
f 8 3 7
f 8 7 10
f 8 4 3
f 8 10 4
f 6 17 23
f 6 1 17
f 2 1 6
f 2 6 7
f 2 17 1
f 2 18 17
f 24 23 17
f 24 17 18
