# Parametric PetalDock simulation geometry; SI units
v 0.0050834605867 0.0315936453811 0.014
v 0.0050834605867 0.0315936453811 0.0294017094017
v 0.0050955529428 0.0316687992266 0.0297484140498
v 0.0051299890596 0.0318828192714 0.0300423360582
v 0.0051815263505 0.0322031229037 0.0302387284654
v 0.00524231873 0.0325809467992 0.0303076923077
v 0.0054707804403 0.0315288845564 0.014
v 0.0054707804403 0.0315288845564 0.0290384615385
v 0.0054837941392 0.0316038843512 0.0293769891902
v 0.0055208540182 0.0318174656966 0.0296639790757
v 0.0055763180467 0.0321371127688 0.0298557395865
v 0.0056417423291 0.0325141621988 0.0299230769231
v 0.0077840490234 0.0483777694897 0.0303076923077
v 0.0078448414029 0.0487555933852 0.0302387284654
v 0.0078963786938 0.0490758970176 0.0300423360582
v 0.0079308148106 0.0492899170624 0.0297484140498
v 0.0079429071667 0.0493650709079 0.014
v 0.0079429071667 0.0493650709079 0.0294017094017
v 0.0083771325493 0.0482786044771 0.0299230769231
v 0.0084425568316 0.0486556539071 0.0298557395865
v 0.0084980208601 0.0489753009793 0.0296639790757
v 0.0085350807391 0.0491888823247 0.0293769891902
v 0.008548094438 0.0492638821194 0.014
v 0.008548094438 0.0492638821194 0.0290384615385
f 18 17 14
f 13 14 6
f 21 15 14
f 4 14 17
f 4 6 14
f 16 14 15
f 16 18 14
f 19 7 23
f 19 13 6
f 22 15 21
f 22 16 15
f 3 2 8
f 3 1 2
f 5 6 4
f 12 7 19
f 12 19 6
f 12 6 5
f 20 21 14
f 20 19 21
f 20 14 13
f 20 13 19
f 24 21 19
f 24 22 21
f 24 19 23
f 24 18 16
f 24 16 22
f 11 8 7
f 11 7 12
f 11 12 5
f 9 8 11
f 9 4 3
f 9 3 8
f 10 4 9
f 10 9 11
f 10 5 4
f 10 11 5
f 7 17 23
f 7 1 17
f 2 1 7
f 2 7 8
f 3 17 1
f 3 4 17
f 24 23 17
f 24 17 18
