# Parametric PetalDock simulation geometry; SI units
v -0.0042898656172 0.0498156306091 0.014
v -0.0042898656172 0.0498156306091 0.0309650723208
v -0.0042833346857 0.0497397908273 0.0313469695036
v -0.0042647361662 0.0495238174012 0.0316707263021
v -0.0042369015149 0.0492005903271 0.0318870536788
v -0.0042040683049 0.048819317997 0.0319630177515
v -0.00367822818 0.0498645228339 0.014
v -0.00367822818 0.0498645228339 0.031
v -0.003672628411 0.0497886086182 0.0313826834324
v -0.0036566816182 0.049572423222 0.0317071067812
v -0.0036328155561 0.0492488789123 0.0319238795325
v -0.0036046636164 0.0488672323773 0.032
v -0.0028313113074 0.032878316202 0.0319630177515
v -0.0027984780974 0.0324970438719 0.0318870536788
v -0.002770643446 0.0321738167978 0.0316707263021
v -0.0027520449265 0.0319578433717 0.0313469695036
v -0.002745513995 0.0318820035898 0.014
v -0.002745513995 0.0318820035898 0.0309650723208
v -0.0024276305988 0.0329105850704 0.032
v -0.0023994786591 0.0325289385354 0.0319238795325
v -0.002375612597 0.0322053942257 0.0317071067812
v -0.0023596658042 0.0319892088295 0.0313826834324
v -0.0023540660352 0.0319132946137 0.014
v -0.0023540660352 0.0319132946137 0.031
f 9 7 8
f 9 12 21
f 9 23 7
f 9 21 23
f 2 9 8
f 24 23 21
f 5 6 12
f 5 1 17
f 13 6 5
f 13 5 17
f 11 10 4
f 11 4 5
f 11 5 12
f 11 12 9
f 11 9 10
f 3 2 1
f 3 1 5
f 3 5 4
f 3 9 2
f 3 4 10
f 3 10 9
f 19 21 12
f 19 12 6
f 19 6 13
f 20 15 21
f 20 21 19
f 20 19 13
f 16 15 18
f 16 21 15
f 14 13 15
f 14 15 20
f 14 20 13
f 22 18 24
f 22 16 18
f 22 24 21
f 22 21 16
f 17 7 23
f 17 1 7
f 2 7 1
f 2 8 7
f 18 17 23
f 18 23 24
f 18 13 17
f 18 15 13
