# Parametric PetalDock simulation geometry; SI units
v 0.0089126300603 -0.0307337766213 0.014
v 0.0089126300603 -0.0307337766213 0.0257692307692
v 0.0089338311093 -0.0308068850414 0.0260341654532
v 0.0089942065886 -0.0310150802076 0.0262587662331
v 0.009084564879 -0.031326666293 0.0264088396764
v 0.0091911497497 -0.0316942071407 0.0264615384615
v 0.0092891096721 -0.0306220907434 0.014
v 0.0092891096721 -0.0306220907434 0.025405982906
v 0.0093112062775 -0.0306949334891 0.0256627405935
v 0.0093741320856 -0.0309023720786 0.0258804092506
v 0.0094683072127 -0.0312128258669 0.0260258507975
v 0.0095793943494 -0.0315790310792 0.0260769230769
v 0.0136474647799 -0.0470610954514 0.0264615384615
v 0.0137540496506 -0.0474286362991 0.0264088396764
v 0.0138444079409 -0.0477402223845 0.0262587662331
v 0.0139047834203 -0.0479484175506 0.0260341654532
v 0.0139259844693 -0.0480215259708 0.014
v 0.0139259844693 -0.0480215259708 0.0257692307692
v 0.0142239491855 -0.0468900764509 0.0260769230769
v 0.0143350363221 -0.0472562816631 0.0260258507975
v 0.0144292114492 -0.0475667354515 0.0258804092506
v 0.0144921372574 -0.0477741740409 0.0256627405935
v 0.0145142338627 -0.0478470167866 0.014
v 0.0145142338627 -0.0478470167866 0.025405982906
f 15 1 17
f 4 2 1
f 4 1 15
f 12 6 19
f 13 19 6
f 13 6 4
f 13 4 15
f 3 8 2
f 3 2 4
f 5 4 6
f 5 6 12
f 10 4 5
f 14 13 15
f 22 24 23
f 22 23 19
f 9 7 8
f 9 8 3
f 9 12 19
f 9 3 4
f 9 4 10
f 9 23 7
f 9 19 23
f 11 5 12
f 11 10 5
f 11 12 9
f 11 9 10
f 20 22 19
f 20 19 13
f 20 13 14
f 16 18 24
f 16 24 22
f 16 22 15
f 16 17 18
f 16 15 17
f 21 15 22
f 21 22 20
f 21 14 15
f 21 20 14
f 7 23 17
f 7 17 1
f 2 7 1
f 2 8 7
f 24 17 23
f 24 18 17
