# Parametric PetalDock simulation geometry; SI units
v -0.0499849409348 0.0012270614261 0.014
v -0.0499849409348 0.0012270614261 0.031
v -0.0499661192294 0.0018403611471 0.014
v -0.0499661192294 0.0018403611471 0.031
v -0.0499088433934 0.0012251933364 0.0313826834324
v -0.0498900503423 0.0018375593641 0.0313826834324
v -0.04969213593 0.0012198734667 0.0317071067812
v -0.0496734244796 0.0018295805611 0.0317071067812
v -0.0493678102914 0.0012119117192 0.0319238795325
v -0.049349220965 0.0018176394385 0.0319238795325
v -0.0489852421161 0.0012025201976 0.032
v -0.0489667968448 0.0018035539241 0.032
v -0.032990061017 0.0008098605413 0.032
v -0.0329776386914 0.0012146383571 0.032
v -0.0326074928417 0.0008004690197 0.0319238795325
v -0.0325952145712 0.0012005528427 0.0319238795325
v -0.0322831672031 0.0007925072721 0.0317071067812
v -0.0322710110567 0.0011886117201 0.0317071067812
v -0.0320664597397 0.0007871874025 0.0313826834324
v -0.0320543851939 0.0011806329171 0.0313826834324
v -0.0319903621983 0.0007853193127 0.014
v -0.0319903621983 0.0007853193127 0.031
v -0.0319783163068 0.0011778311341 0.014
v -0.0319783163068 0.0011778311341 0.031
f 16 23 3
f 16 8 14
f 12 14 8
f 6 3 4
f 6 16 3
f 6 8 16
f 9 7 11
f 9 8 7
f 9 11 12
f 24 23 16
f 5 4 2
f 5 6 4
f 5 2 7
f 5 7 8
f 5 8 6
f 10 12 8
f 10 8 9
f 10 9 12
f 20 24 16
f 17 11 7
f 17 7 2
f 17 1 21
f 17 2 1
f 17 21 22
f 15 13 11
f 15 11 17
f 15 17 16
f 15 14 13
f 15 16 14
f 19 17 22
f 19 20 17
f 19 22 24
f 19 24 20
f 18 20 16
f 18 16 17
f 18 17 20
f 21 3 23
f 21 1 3
f 4 3 1
f 4 1 2
f 24 21 23
f 24 22 21
f 13 14 12
f 13 12 11
