# Parametric PetalDock simulation geometry; SI units
v 0.0150846955784 -0.0282214804591 0.014
v 0.0150846955784 -0.0282214804591 0.019594017094
v 0.0151205785184 -0.0282886127181 0.0197199428389
v 0.015222764486 -0.028479789217 0.0198266975306
v 0.015375696594 -0.028765905067 0.0198980287351
v 0.0154298807065 -0.0280342430143 0.014
v 0.0154298807065 -0.0280342430143 0.0192307692308
v 0.0154665847607 -0.0281009298794 0.0193485179792
v 0.0155560923153 -0.0291034017235 0.0199230769231
v 0.0155711090636 -0.028290838004 0.0194483405481
v 0.0157275407377 -0.0285750555978 0.0195150398562
v 0.0159120644786 -0.0289103131084 0.0195384615385
v 0.0230984401045 -0.0432141419531 0.0199230769231
v 0.0232788358257 -0.0435516386096 0.0198980287351
v 0.0234317679337 -0.0438377544596 0.0198266975306
v 0.0235339539013 -0.0440289309585 0.0197199428389
v 0.0235698368413 -0.0440960632174 0.014
v 0.0235698368413 -0.0440960632174 0.019594017094
v 0.0236270048319 -0.0429274346156 0.0195384615385
v 0.0238115285728 -0.0432626921262 0.0195150398562
v 0.0239679602469 -0.04354690972 0.0194483405481
v 0.0240724845498 -0.0437368178446 0.0193485179792
v 0.024109188604 -0.0438035047098 0.014
v 0.024109188604 -0.0438035047098 0.0192307692308
f 14 1 17
f 12 9 19
f 13 19 9
f 3 7 2
f 3 2 1
f 3 1 14
f 5 9 12
f 5 13 9
f 5 14 13
f 5 3 14
f 5 4 3
f 10 4 5
f 10 23 6
f 16 17 18
f 20 14 21
f 20 13 14
f 20 19 13
f 8 7 3
f 8 6 7
f 8 10 6
f 8 3 4
f 8 4 10
f 24 23 10
f 24 10 19
f 24 16 18
f 11 12 19
f 11 19 10
f 11 5 12
f 11 10 5
f 15 14 17
f 15 17 16
f 15 21 14
f 22 20 21
f 22 16 24
f 22 19 20
f 22 24 19
f 22 21 15
f 22 15 16
f 6 23 17
f 6 17 1
f 2 6 1
f 2 7 6
f 24 17 23
f 24 18 17
