# Parametric PetalDock simulation geometry; SI units
v -0.047280366269 -0.0162655146081 0.014
v -0.047280366269 -0.0162655146081 0.0243162393162
v -0.0472083861974 -0.0162407518366 0.0245484660145
v -0.0470772032592 -0.0168444926696 0.014
v -0.0470772032592 -0.0168444926696 0.023952991453
v -0.0470055324847 -0.0168188484565 0.0241770411548
v -0.0470034042958 -0.0161702334295 0.0247453383031
v -0.0468014313872 -0.0167458199161 0.0243669813206
v -0.0466966272006 -0.0160646951751 0.0248768841608
v -0.0464959725086 -0.0166365249816 0.0244938952819
v -0.0463347589436 -0.015940204316 0.0249230769231
v -0.046135659194 -0.0165076028162 0.0245384615385
v -0.0312050417376 -0.0107352396414 0.0249230769231
v -0.031070954151 -0.0111173651619 0.0245384615385
v -0.0308431734806 -0.0106107487822 0.0248768841608
v -0.0307106408365 -0.0109884429965 0.0244938952819
v -0.0305363963854 -0.0105052105278 0.0247453383031
v -0.0304051819578 -0.0108791480621 0.0243669813206
v -0.0303314144838 -0.0104346921207 0.0245484660145
v -0.0302594344122 -0.0104099293492 0.014
v -0.0302594344122 -0.0104099293492 0.0243162393162
v -0.0302010808603 -0.0108061195217 0.0241770411548
v -0.0301294100859 -0.0107804753086 0.014
v -0.0301294100859 -0.0107804753086 0.023952991453
f 8 4 23
f 13 11 12
f 7 1 2
f 10 12 11
f 10 8 12
f 24 8 23
f 24 18 8
f 15 18 17
f 15 16 18
f 3 2 5
f 3 7 2
f 9 10 11
f 9 11 13
f 9 7 8
f 9 8 10
f 9 21 20
f 22 17 18
f 22 18 24
f 14 13 12
f 14 12 8
f 14 15 13
f 14 16 15
f 14 8 18
f 14 18 16
f 6 3 5
f 6 5 4
f 6 4 8
f 6 8 7
f 6 7 3
f 19 17 22
f 19 15 17
f 19 24 21
f 19 22 24
f 19 13 15
f 19 21 9
f 19 9 13
f 20 23 4
f 20 4 1
f 5 1 4
f 5 2 1
f 24 23 20
f 24 20 21
f 9 20 1
f 9 1 7
