# Parametric PetalDock simulation geometry; SI units
v -0 -0.05 0.014
v -0 -0.05 0.031
v -0 -0.0499238795325 0.0313826834324
v -0 -0.0497071067812 0.0317071067812
v -0 -0.0493826834324 0.0319238795325
v -0 -0.049 0.032
v -0 -0.033 0.032
v -0 -0.0326173165676 0.0319238795325
v -0 -0.0322928932188 0.0317071067812
v -0 -0.0320761204675 0.0313826834324
v -0 -0.032 0.014
v -0 -0.032 0.031
v 0.0003926892251 -0.0319975904589 0.014
v 0.0003926892251 -0.0319975904589 0.031
v 0.0003936233404 -0.0320737051946 0.0313826834324
v 0.0003962834755 -0.0322904616233 0.0317071067812
v 0.000400264649 -0.0326148605437 0.0319238795325
v 0.0004049607634 -0.0329975151607 0.032
v 0.000601305376 -0.0489963103901 0.032
v 0.0006060014904 -0.0493789650071 0.0319238795325
v 0.0006099826639 -0.0497033639275 0.0317071067812
v 0.0006126427991 -0.0499201203562 0.0313826834324
v 0.0006135769143 -0.049996235092 0.014
v 0.0006135769143 -0.049996235092 0.031
f 3 2 24
f 22 24 23
f 22 3 24
f 5 19 6
f 20 16 19
f 20 22 16
f 20 19 5
f 10 9 16
f 18 19 16
f 8 16 9
f 8 7 18
f 21 5 4
f 21 20 5
f 21 22 20
f 21 4 3
f 21 3 22
f 15 14 12
f 15 12 10
f 15 10 16
f 15 13 14
f 15 23 13
f 15 22 23
f 15 16 22
f 17 18 16
f 17 16 8
f 17 8 18
f 11 13 23
f 11 23 1
f 2 1 23
f 2 23 24
f 12 13 11
f 12 14 13
f 18 7 6
f 18 6 19
f 8 11 1
f 8 2 3
f 8 1 2
f 8 12 11
f 8 5 6
f 8 3 4
f 8 4 5
f 8 6 7
f 8 9 10
f 8 10 12
