# Parametric PetalDock simulation geometry; SI units
v 0.012607745282 -0.0294116432541 0.014
v 0.012607745282 -0.0294116432541 0.0221367521368
v 0.0126377361402 -0.0294816066301 0.0223199168565
v 0.0127231428788 -0.0296808454686 0.0224751964081
v 0.0128509630958 -0.0299790274623 0.0225789508874
v 0.0129677220482 -0.0292547121825 0.014
v 0.0129677220482 -0.0292547121825 0.0217735042735
v 0.0129985692064 -0.0293243022565 0.0219484919969
v 0.013001737322 -0.0303307571058 0.0226153846154
v 0.013086414481 -0.0295224780205 0.0220968394256
v 0.0132178842252 -0.029819069011 0.0221959620085
v 0.0133729633622 -0.0301689219382 0.0222307692308
v 0.019305609963 -0.0450365787328 0.0226153846154
v 0.0194563841892 -0.0453883083763 0.0225789508874
v 0.0195842044063 -0.04568649037 0.0224751964081
v 0.0196696111448 -0.0458857292084 0.0223199168565
v 0.0196996020031 -0.0459556925845 0.014
v 0.0196996020031 -0.0459556925845 0.0221367521368
v 0.0198568243862 -0.0447962780295 0.0222307692308
v 0.0200119035232 -0.0451461309567 0.0221959620085
v 0.0201433732674 -0.0454427219472 0.0220968394256
v 0.020231218542 -0.0456408977112 0.0219484919969
v 0.0202620657002 -0.0457104877852 0.014
v 0.0202620657002 -0.0457104877852 0.0217735042735
f 9 1 17
f 14 9 17
f 13 9 14
f 21 14 15
f 16 15 14
f 16 14 17
f 16 17 18
f 22 23 6
f 22 6 7
f 22 21 15
f 22 15 16
f 12 22 7
f 3 7 2
f 3 2 1
f 3 1 9
f 24 23 22
f 24 16 18
f 24 22 16
f 19 12 9
f 19 9 13
f 5 9 12
f 5 3 9
f 5 4 3
f 10 4 5
f 20 12 19
f 20 21 22
f 20 22 12
f 20 14 21
f 20 13 14
f 20 19 13
f 8 7 3
f 8 10 7
f 8 3 4
f 8 4 10
f 11 5 12
f 11 10 5
f 11 12 7
f 11 7 10
f 6 23 17
f 6 17 1
f 2 6 1
f 2 7 6
f 24 17 23
f 24 18 17
