# Parametric PetalDock simulation geometry; SI units
v 0.0312224681612 -0.007011239685 0.014
v 0.0312224681612 -0.007011239685 0.0275854700855
v 0.0312967390635 -0.0070279177738 0.0278912897515
v 0.031306155863 -0.0066275640382 0.014
v 0.031306155863 -0.0066275640382 0.0279487179487
v 0.0313806258386 -0.0066433294529 0.0282627146112
v 0.0315082446987 -0.0070754129525 0.0281505511456
v 0.0315926983868 -0.0066882255558 0.0285289081282
v 0.0318247852512 -0.0071464945106 0.0283237840709
v 0.0319100873844 -0.006755417322 0.0287067729498
v 0.0321981702913 -0.0072303409252 0.0283846153846
v 0.0322844732337 -0.0068346754143 0.0287692307692
v 0.0478094043719 -0.0107359607677 0.0283846153846
v 0.0479375511653 -0.0101484574334 0.0287692307692
v 0.048182789412 -0.0108198071823 0.0283237840709
v 0.0483119370146 -0.0102277155257 0.0287067729498
v 0.0484993299645 -0.0108908887404 0.0281505511456
v 0.0486293260123 -0.010294907292 0.0285289081282
v 0.0487108355997 -0.010938383919 0.0278912897515
v 0.0487851065019 -0.0109550620078 0.014
v 0.0487851065019 -0.0109550620078 0.0275854700855
v 0.0488413985604 -0.0103398033948 0.0282627146112
v 0.048915868536 -0.0103555688096 0.014
v 0.048915868536 -0.0103555688096 0.0279487179487
f 4 12 23
f 17 1 20
f 14 12 13
f 21 17 20
f 15 13 17
f 15 14 13
f 16 12 14
f 16 14 15
f 16 17 18
f 16 15 17
f 11 13 12
f 19 18 17
f 19 17 21
f 22 24 23
f 22 23 12
f 22 12 16
f 22 16 18
f 22 18 19
f 22 21 24
f 22 19 21
f 9 17 13
f 9 13 11
f 9 1 17
f 9 2 1
f 9 7 2
f 6 4 5
f 6 12 4
f 6 5 2
f 10 12 6
f 10 6 8
f 10 11 12
f 10 9 11
f 10 8 7
f 10 7 9
f 3 2 7
f 3 6 2
f 3 7 8
f 3 8 6
f 4 23 20
f 4 20 1
f 21 20 23
f 21 23 24
f 2 4 1
f 2 5 4
