# Parametric PetalDock simulation geometry; SI units
v 0.0284044678529 0.0147372387507 0.014
v 0.0284044678529 0.0147372387507 0.0199572649573
v 0.0284720353958 0.0147722951726 0.0200913676985
v 0.0285831776383 0.0143875625489 0.014
v 0.0285831776383 0.0143875625489 0.0203205128205
v 0.0286511702896 0.0144217871735 0.0204627925582
v 0.0286644514785 0.0148721274161 0.0202050545131
v 0.028844796979 0.0145192506585 0.0205834114956
v 0.0289524224967 0.015021536927 0.020281017614
v 0.029134579798 0.0146651150717 0.0206640064929
v 0.0292921074733 0.0151977774616 0.0203076923077
v 0.0294764019395 0.0148371738786 0.0206923076923
v 0.0434943413997 0.022566396837 0.0203076923077
v 0.0437679907586 0.0220309551531 0.0206923076923
v 0.0438340263764 0.0227426373716 0.020281017614
v 0.0441098129 0.0222030139599 0.0206640064929
v 0.0441219973946 0.0228920468825 0.0202050545131
v 0.0443144134773 0.0229918791259 0.0200913676985
v 0.0443819810201 0.0230269355479 0.014
v 0.0443819810201 0.0230269355479 0.0199572649573
v 0.0443995957191 0.0223488783732 0.0205834114956
v 0.0445932224084 0.0224463418581 0.0204627925582
v 0.0446612150598 0.0224805664827 0.014
v 0.0446612150598 0.0224805664827 0.0203205128205
f 13 19 1
f 14 13 12
f 20 19 13
f 16 14 12
f 16 5 24
f 17 20 13
f 17 16 21
f 3 8 7
f 22 21 16
f 22 16 24
f 22 24 20
f 15 17 13
f 15 16 17
f 15 13 14
f 15 14 16
f 11 12 13
f 11 13 9
f 10 7 8
f 10 9 7
f 10 8 5
f 10 12 11
f 10 11 9
f 10 16 12
f 10 5 16
f 6 5 8
f 6 8 3
f 2 3 7
f 2 5 6
f 2 6 3
f 2 7 9
f 2 13 1
f 2 9 13
f 18 20 17
f 18 22 20
f 18 17 21
f 18 21 22
f 4 19 23
f 4 1 19
f 20 23 19
f 20 24 23
f 5 4 23
f 5 23 24
f 2 1 4
f 2 4 5
