# Parametric PetalDock simulation geometry; SI units
v 0.0147372387507 0.0284044678529 0.014
v 0.0147372387507 0.0284044678529 0.0199572649573
v 0.0147722951726 0.0284720353958 0.0200913676985
v 0.0148721274161 0.0286644514785 0.0202050545131
v 0.015021536927 0.0289524224967 0.020281017614
v 0.0150846955784 0.0282214804591 0.014
v 0.0150846955784 0.0282214804591 0.019594017094
v 0.0151205785184 0.0282886127181 0.0197199428389
v 0.0151977774616 0.0292921074733 0.0203076923077
v 0.015222764486 0.028479789217 0.0198266975306
v 0.015375696594 0.028765905067 0.0198980287351
v 0.0155560923153 0.0291034017235 0.0199230769231
v 0.022566396837 0.0434943413997 0.0203076923077
v 0.0227426373716 0.0438340263764 0.020281017614
v 0.0228920468825 0.0441219973946 0.0202050545131
v 0.0229918791259 0.0443144134773 0.0200913676985
v 0.0230269355479 0.0443819810201 0.014
v 0.0230269355479 0.0443819810201 0.0199572649573
v 0.0230984401045 0.0432141419531 0.0199230769231
v 0.0232788358257 0.0435516386096 0.0198980287351
v 0.0234317679337 0.0438377544596 0.0198266975306
v 0.0235339539013 0.0440289309585 0.0197199428389
v 0.0235698368413 0.0440960632174 0.014
v 0.0235698368413 0.0440960632174 0.019594017094
f 14 16 9
f 14 15 16
f 14 21 15
f 18 17 16
f 12 6 23
f 12 7 6
f 13 14 9
f 3 2 7
f 3 1 2
f 3 17 1
f 3 16 17
f 3 9 16
f 3 4 9
f 24 12 23
f 24 18 16
f 20 21 14
f 20 14 13
f 5 9 4
f 5 12 9
f 10 7 12
f 10 5 4
f 22 24 16
f 22 21 24
f 22 16 15
f 22 15 21
f 19 12 24
f 19 9 12
f 19 24 21
f 19 21 20
f 19 13 9
f 19 20 13
f 8 3 7
f 8 7 10
f 8 4 3
f 8 10 4
f 11 12 5
f 11 10 12
f 11 5 10
f 6 17 23
f 6 1 17
f 2 1 6
f 2 6 7
f 24 23 17
f 24 17 18
