# Parametric PetalDock simulation geometry; SI units
v -0.0459556925845 0.0196996020031 0.014
v -0.0459556925845 0.0196996020031 0.0221367521368
v -0.0458857292084 0.0196696111448 0.0223199168565
v -0.0457104877852 0.0202620657002 0.014
v -0.0457104877852 0.0202620657002 0.0217735042735
v -0.04568649037 0.0195842044063 0.0224751964081
v -0.0456408977112 0.020231218542 0.0219484919969
v -0.0454427219472 0.0201433732674 0.0220968394256
v -0.0453883083763 0.0194563841892 0.0225789508874
v -0.0451461309567 0.0200119035232 0.0221959620085
v -0.0450365787328 0.019305609963 0.0226153846154
v -0.0447962780295 0.0198568243862 0.0222307692308
v -0.0303307571058 0.013001737322 0.0226153846154
v -0.0301689219382 0.0133729633622 0.0222307692308
v -0.0299790274623 0.0128509630958 0.0225789508874
v -0.029819069011 0.0132178842252 0.0221959620085
v -0.0296808454686 0.0127231428788 0.0224751964081
v -0.0295224780205 0.013086414481 0.0220968394256
v -0.0294816066301 0.0126377361402 0.0223199168565
v -0.0294116432541 0.012607745282 0.014
v -0.0294116432541 0.012607745282 0.0221367521368
v -0.0293243022565 0.0129985692064 0.0219484919969
v -0.0292547121825 0.0129677220482 0.014
v -0.0292547121825 0.0129677220482 0.0217735042735
f 13 12 11
f 13 14 12
f 13 1 20
f 3 2 1
f 3 5 2
f 9 8 6
f 9 6 3
f 9 3 1
f 9 1 13
f 9 13 11
f 10 12 14
f 10 8 9
f 10 11 12
f 10 9 11
f 19 20 21
f 19 13 20
f 19 21 24
f 7 5 3
f 7 4 5
f 7 6 8
f 7 3 6
f 7 23 4
f 7 14 24
f 7 24 23
f 16 24 14
f 16 18 24
f 22 19 24
f 22 24 18
f 15 13 19
f 15 18 16
f 15 14 13
f 15 16 14
f 17 15 19
f 17 18 15
f 17 19 22
f 17 22 18
f 20 4 23
f 20 1 4
f 5 4 1
f 5 1 2
f 24 20 23
f 24 21 20
f 7 10 14
f 7 8 10
