# Parametric PetalDock simulation geometry; SI units
v 0.0203005850932 -0.0247363345076 0.014
v 0.0203005850932 -0.0247363345076 0.0141397107166
v 0.0203488754066 -0.0247951764247 0.0141428557153
v 0.0204863945842 -0.0249627440275 0.0141455219163
v 0.0206026093725 -0.0244853524999 0.014
v 0.0206026093725 -0.0244853524999 0.0140349276792
v 0.0206516181305 -0.0245435973899 0.0140357139288
v 0.0206922065779 -0.0252135266674 0.014147303415
v 0.0207911832654 -0.0247094648033 0.0140363804791
v 0.0209349783774 -0.025509344961 0.0141479289941
v 0.0210000572507 -0.02495770293 0.0140368258537
v 0.0212464409154 -0.0252505197655 0.0140369822485
v 0.031085270924 -0.0378775122148 0.0141479289941
v 0.0313280427235 -0.0381733305083 0.014147303415
v 0.0315338547172 -0.0384241131483 0.0141455219163
v 0.0315477456016 -0.0374931960155 0.0140369822485
v 0.0316713738948 -0.0385916807511 0.0141428557153
v 0.0317196642082 -0.0386505226681 0.014
v 0.0317196642082 -0.0386505226681 0.0141397107166
v 0.0317941292663 -0.037786012851 0.0140368258537
v 0.0320030032515 -0.0380342509778 0.0140363804791
v 0.0321425683865 -0.0382001183912 0.0140357139288
v 0.0321915771445 -0.0382583632811 0.014
v 0.0321915771445 -0.0382583632811 0.0140349276792
f 17 1 18
f 19 17 18
f 4 2 1
f 4 1 17
f 13 21 10
f 13 10 4
f 13 4 17
f 24 17 19
f 3 6 2
f 3 2 4
f 12 23 5
f 12 5 6
f 15 13 17
f 15 17 24
f 14 13 15
f 20 24 23
f 20 23 12
f 20 12 16
f 20 10 21
f 7 4 9
f 7 6 3
f 7 3 4
f 8 9 4
f 8 4 10
f 8 16 12
f 8 10 20
f 8 20 16
f 22 20 21
f 22 24 20
f 22 21 13
f 22 13 14
f 22 15 24
f 22 14 15
f 11 8 12
f 11 9 8
f 11 7 9
f 11 12 6
f 11 6 7
f 5 23 18
f 5 18 1
f 2 5 1
f 2 6 5
f 24 18 23
f 24 19 18
