# Parametric PetalDock simulation geometry; SI units
v 0.0054707804403 0.0315288845564 0.014
v 0.0054707804403 0.0315288845564 0.0290384615385
v 0.0054837941392 0.0316038843512 0.0293769891902
v 0.0055208540182 0.0318174656966 0.0296639790757
v 0.0055763180467 0.0321371127688 0.0298557395865
v 0.0056417423291 0.0325141621988 0.0299230769231
v 0.0058572764146 0.0314593755978 0.014
v 0.0058572764146 0.0314593755978 0.0286752136752
v 0.0058712094964 0.0315342100471 0.0290055643305
v 0.0059108875565 0.0317473205284 0.0292856220932
v 0.0059702699699 0.0320662629029 0.0294727507076
v 0.0060403163025 0.0324424810852 0.0295384615385
v 0.0083771325493 0.0482786044771 0.0299230769231
v 0.0084425568316 0.0486556539071 0.0298557395865
v 0.0084980208601 0.0489753009793 0.0296639790757
v 0.0085350807391 0.0491888823247 0.0293769891902
v 0.008548094438 0.0492638821194 0.014
v 0.008548094438 0.0492638821194 0.0290384615385
v 0.0089689545098 0.0481721688841 0.0295384615385
v 0.0090390008424 0.0485483870664 0.0294727507076
v 0.0090983832558 0.0488673294409 0.0292856220932
v 0.0091380613159 0.0490804399223 0.0290055643305
v 0.0091519943978 0.0491552743716 0.014
v 0.0091519943978 0.0491552743716 0.0286752136752
f 14 17 1
f 14 6 13
f 20 14 13
f 4 6 14
f 4 14 1
f 19 13 6
f 19 20 13
f 3 2 8
f 3 1 2
f 3 4 1
f 5 6 4
f 12 8 20
f 12 20 19
f 12 19 6
f 12 6 5
f 16 17 14
f 16 18 17
f 21 14 20
f 24 22 21
f 24 18 16
f 24 16 22
f 24 21 20
f 24 20 8
f 10 8 12
f 10 5 4
f 15 16 14
f 15 14 21
f 15 22 16
f 15 21 22
f 9 3 8
f 9 8 10
f 9 4 3
f 9 10 4
f 11 12 5
f 11 5 10
f 11 10 12
f 7 17 23
f 7 1 17
f 2 1 7
f 2 7 8
f 24 23 17
f 24 17 18
f 24 7 23
f 24 8 7
