# Parametric PetalDock simulation geometry; SI units
v 0.0015701655785 0.0319614545986 0.014
v 0.0015701655785 0.0319614545986 0.031
v 0.0015739006328 0.0320374833756 0.0313826834324
v 0.0015845371676 0.0322539950147 0.0317071067812
v 0.0016004558668 0.0325780275814 0.0319238795325
v 0.0016192332528 0.0329602500548 0.032
v 0.0019622635617 0.0319397796128 0.014
v 0.0019622635617 0.0319397796128 0.031
v 0.0019669313248 0.0320157568302 0.0313826834324
v 0.0019802239895 0.0322321216396 0.0317071067812
v 0.0020001178681 0.0325559344604 0.0319238795325
v 0.002023584298 0.0329378977257 0.032
v 0.002404316042 0.0489409773541 0.032
v 0.0024230934281 0.0493231998275 0.0319238795325
v 0.0024390121273 0.0496472323942 0.0317071067812
v 0.0024496486621 0.0498637440332 0.0313826834324
v 0.0024533837164 0.0499397728103 0.014
v 0.0024533837164 0.0499397728103 0.031
v 0.0030047160788 0.0489077875321 0.032
v 0.0030281825087 0.0492897507975 0.0319238795325
v 0.0030480763873 0.0496135636182 0.0317071067812
v 0.003061369052 0.0498299284276 0.0313826834324
v 0.0030660368151 0.049905905645 0.014
v 0.0030660368151 0.049905905645 0.031
f 13 17 1
f 13 1 6
f 13 15 17
f 18 17 15
f 16 18 15
f 16 15 21
f 20 7 23
f 20 23 21
f 20 8 7
f 20 21 15
f 3 2 8
f 3 1 2
f 3 6 1
f 5 6 3
f 5 3 4
f 22 24 18
f 22 18 16
f 22 16 21
f 22 23 24
f 22 21 23
f 12 8 20
f 12 6 5
f 14 15 13
f 14 20 15
f 14 13 20
f 19 20 13
f 19 12 20
f 10 4 3
f 10 5 4
f 9 8 12
f 9 12 10
f 9 3 8
f 9 10 3
f 11 12 5
f 11 5 10
f 11 10 12
f 7 17 23
f 7 1 17
f 2 1 7
f 2 7 8
f 24 23 17
f 24 17 18
f 19 6 12
f 19 13 6
