# Parametric PetalDock simulation geometry; SI units
v 0.02892765738 0.0136817629898 0.014
v 0.02892765738 0.0136817629898 0.021047008547
v 0.0289964694675 0.0137143086834 0.0212056422775
v 0.0290933754589 0.0133257459231 0.014
v 0.0290933754589 0.0133257459231 0.0214102564103
v 0.0291625817508 0.0133574447359 0.0215770671372
v 0.0291924297138 0.0138069909773 0.0213401254606
v 0.0293596645959 0.0134477153174 0.0217184824431
v 0.0294857049476 0.0139456998325 0.0214299842507
v 0.0296546199176 0.0135828147898 0.0218129731296
v 0.0298316466731 0.0141093180832 0.0214615384615
v 0.030002543442 0.0137421754832 0.0218461538462
v 0.044295475363 0.0209501995781 0.0214615384615
v 0.0445492311714 0.0204050484448 0.0218461538462
v 0.0446414170886 0.0211138178288 0.0214299842507
v 0.0448971546958 0.0205644091382 0.0218129731296
v 0.0449346923223 0.021252526684 0.0213401254606
v 0.0451306525686 0.0213452089779 0.0212056422775
v 0.0451921100175 0.0206995086106 0.0217184824431
v 0.0451994646562 0.0213777546715 0.014
v 0.0451994646562 0.0213777546715 0.021047008547
v 0.0453891928626 0.0207897791921 0.0215770671372
v 0.0454583991545 0.0208214780049 0.014
v 0.0454583991545 0.0208214780049 0.0214102564103
f 4 23 19
f 4 19 12
f 24 19 23
f 5 4 12
f 17 20 1
f 14 13 12
f 21 20 17
f 16 12 19
f 16 14 12
f 16 19 17
f 11 12 13
f 18 17 19
f 18 21 17
f 15 13 14
f 15 14 16
f 15 17 13
f 15 16 17
f 6 5 12
f 6 2 5
f 9 11 7
f 22 24 21
f 22 21 18
f 22 19 24
f 22 18 19
f 10 6 12
f 10 8 6
f 10 12 11
f 10 11 9
f 10 7 8
f 10 9 7
f 3 2 6
f 3 7 11
f 3 8 7
f 3 6 8
f 3 11 13
f 3 1 2
f 3 17 1
f 3 13 17
f 4 20 23
f 4 1 20
f 21 23 20
f 21 24 23
f 2 1 4
f 2 4 5
