# Parametric PetalDock simulation geometry; SI units
v 0.0181034179451 0.0263868576891 0.014
v 0.0181034179451 0.0263868576891 0.0163247863248
v 0.018146481715 0.0264496258123 0.0163771191019
v 0.0182691169561 0.0266283743042 0.016421484688
v 0.0184258621254 0.0261627140209 0.014
v 0.0184258621254 0.0261627140209 0.0159615384615
v 0.0184526535647 0.0268958903272 0.016451128825
v 0.0184696929141 0.026224948959 0.0160056942422
v 0.01859451244 0.0264021790684 0.0160431277055
v 0.0186691497559 0.0272114469919 0.0164615384615
v 0.0187813180617 0.0266674226715 0.0160681399461
v 0.0190016703168 0.026980298834 0.0160769230769
v 0.0277208587284 0.0404048758365 0.0164615384615
v 0.0279373549195 0.0407204325011 0.016451128825
v 0.0281208915281 0.0409879485242 0.016421484688
v 0.0282146013795 0.0400616558444 0.0160769230769
v 0.0282435267693 0.041166697016 0.0163771191019
v 0.0282865905392 0.0412294651393 0.014
v 0.0282865905392 0.0412294651393 0.0163247863248
v 0.0284349536346 0.040374532007 0.0160681399461
v 0.0286217592563 0.04063977561 0.0160431277055
v 0.0287465787822 0.0408170057194 0.0160056942422
v 0.0287904095709 0.0408792406576 0.014
v 0.0287904095709 0.0408792406576 0.0159615384615
f 19 18 15
f 19 15 17
f 4 1 2
f 4 18 1
f 4 15 18
f 16 13 10
f 14 15 13
f 14 21 15
f 24 19 17
f 3 2 6
f 3 4 2
f 7 10 13
f 7 13 15
f 7 15 4
f 22 16 23
f 22 23 24
f 22 24 17
f 22 17 15
f 22 15 21
f 9 7 4
f 20 22 21
f 20 16 22
f 20 21 14
f 20 13 16
f 20 14 13
f 8 6 5
f 8 5 9
f 8 3 6
f 8 4 3
f 8 9 4
f 12 9 16
f 12 16 10
f 12 10 7
f 11 7 9
f 11 12 7
f 11 9 12
f 5 18 23
f 5 1 18
f 2 1 5
f 2 5 6
f 24 23 18
f 24 18 19
f 9 5 23
f 9 23 16
