# Parametric PetalDock simulation geometry; SI units
v 0.0276471313959 0.0161132282792 0.014
v 0.0276471313959 0.0161132282792 0.0185042735043
v 0.0277128974136 0.0161515578564 0.0186056682599
v 0.0278427837155 0.0157727421514 0.014
v 0.0278427837155 0.0157727421514 0.0188675213675
v 0.0279001831867 0.0162607112572 0.018691626583
v 0.027909015144 0.0158102617922 0.0189770931195
v 0.028097626295 0.0159171086894 0.0190699835656
v 0.028180476154 0.0164240708659 0.0187490620984
v 0.0283799028304 0.0160770163716 0.0191320509773
v 0.028511104252 0.0166167666629 0.0187692307692
v 0.0287128707066 0.0162656403436 0.0191538461538
v 0.04233466995 0.0246733808026 0.0187692307692
v 0.0426342625643 0.0241520114193 0.0191538461538
v 0.042665298048 0.0248660765996 0.0187490620984
v 0.0429455910153 0.0250294362083 0.018691626583
v 0.0429672304405 0.0243406353913 0.0191320509773
v 0.0431328767884 0.0251385896091 0.0186056682599
v 0.0431986428061 0.0251769191863 0.014
v 0.0431986428061 0.0251769191863 0.0185042735043
v 0.043249506976 0.0245005430734 0.0190699835656
v 0.0434381181269 0.0246073899707 0.0189770931195
v 0.0435043495554 0.0246449096115 0.014
v 0.0435043495554 0.0246449096115 0.0188675213675
f 24 21 23
f 3 19 1
f 14 12 21
f 14 13 12
f 15 19 3
f 15 20 19
f 15 13 14
f 2 3 1
f 11 12 13
f 11 13 15
f 11 15 3
f 8 5 4
f 8 21 12
f 8 4 23
f 8 23 21
f 22 24 20
f 22 21 24
f 18 21 22
f 18 22 20
f 17 14 21
f 17 15 14
f 7 5 8
f 7 8 3
f 7 2 5
f 7 3 2
f 10 12 11
f 10 8 12
f 16 20 15
f 16 18 20
f 16 21 18
f 16 17 21
f 16 15 17
f 9 10 11
f 6 8 10
f 6 10 9
f 6 3 8
f 6 11 3
f 6 9 11
f 4 19 23
f 4 1 19
f 20 23 19
f 20 24 23
f 2 1 4
f 2 4 5
