# Parametric PetalDock simulation geometry; SI units
v -0.0497592363336 -0.0049008570165 0.014
v -0.0497592363336 -0.0049008570165 0.0308602892834
v -0.0496953485001 -0.0055111103647 0.014
v -0.0496953485001 -0.0055111103647 0.0306856508876
v -0.049683482407 -0.0048933959059 0.0312398277171
v -0.0496196918369 -0.0055027201987 0.031061258073
v -0.0494677534757 -0.0048721484607 0.0315615848648
v -0.0494042398885 -0.0054788270276 0.0313796824694
v -0.049144892314 -0.0048403494118 0.0317765761175
v -0.0490817932608 -0.00544306837 0.0315924468488
v -0.0487640516069 -0.0048028398761 0.0318520710059
v -0.0487014415301 -0.0054008881574 0.0316671597633
v -0.0328410959802 -0.0032345656309 0.0318520710059
v -0.0327989300101 -0.0036373328407 0.0316671597633
v -0.0324602552731 -0.0031970560952 0.0317765761175
v -0.0324185782793 -0.0035951526281 0.0315924468488
v -0.0321373941114 -0.0031652570463 0.0315615848648
v -0.0320961316517 -0.0035593939705 0.0313796824694
v -0.0319216651801 -0.0031440096011 0.0312398277171
v -0.0318806797033 -0.0035355007994 0.031061258073
v -0.0318459112535 -0.0031365484905 0.014
v -0.0318459112535 -0.0031365484905 0.0308602892834
v -0.0318050230401 -0.0035271106334 0.014
v -0.0318050230401 -0.0035271106334 0.0306856508876
f 20 3 23
f 4 3 20
f 7 21 1
f 12 4 20
f 22 7 11
f 22 21 7
f 9 11 7
f 9 7 8
f 5 1 2
f 5 7 1
f 5 2 4
f 16 14 12
f 16 12 20
f 24 20 23
f 10 9 8
f 10 8 4
f 10 4 12
f 10 12 11
f 10 11 9
f 6 4 8
f 6 5 4
f 6 8 7
f 6 7 5
f 19 17 20
f 19 22 17
f 19 24 22
f 19 20 24
f 18 16 20
f 18 20 17
f 13 11 12
f 13 12 14
f 13 22 11
f 15 16 18
f 15 18 17
f 15 14 16
f 15 13 14
f 15 17 22
f 15 22 13
f 21 23 3
f 21 3 1
f 4 1 3
f 4 2 1
f 24 23 21
f 24 21 22
