# Parametric PetalDock simulation geometry; SI units
v 0.0190623777438 -0.0257026410074 0.014
v 0.0190623777438 -0.0257026410074 0.015235042735
v 0.0191077226533 -0.0257637815402 0.0152628445229
v 0.0192368540305 -0.0259378950467 0.0152864137405
v 0.0193763533249 -0.0254667809475 0.014
v 0.0193763533249 -0.0254667809475 0.014873191979
v 0.0194224451085 -0.0255273604247 0.0148928482204
v 0.0194301127937 -0.0261984743238 0.0153021621883
v 0.0195537034029 -0.0256998761801 0.0149095119772
v 0.0196580770483 -0.0265058485389 0.0153076923077
v 0.0197501453227 -0.0259580642538 0.0149206463435
v 0.0199818643663 -0.0262626178521 0.014924556213
v 0.0291892659201 -0.0393571690426 0.0153076923077
v 0.0294172301746 -0.0396645432576 0.0153021621883
v 0.0296104889379 -0.0399251225348 0.0152864137405
v 0.0296700410288 -0.0389960083258 0.014924556213
v 0.0297396203151 -0.0400992360412 0.0152628445229
v 0.0297849652246 -0.040160376574 0.014
v 0.0297849652246 -0.040160376574 0.015235042735
v 0.0299017600725 -0.0393005619241 0.0149206463435
v 0.0300982019923 -0.0395587499978 0.0149095119772
v 0.0302294602867 -0.0397312657532 0.0148928482204
v 0.0302755520702 -0.0397918452304 0.014
v 0.0302755520702 -0.0397918452304 0.014873191979
f 13 1 18
f 19 13 18
f 15 19 17
f 15 13 19
f 11 23 5
f 24 17 19
f 3 6 2
f 3 2 1
f 3 1 4
f 14 13 15
f 14 15 21
f 22 23 11
f 22 24 23
f 22 17 24
f 22 15 17
f 22 21 15
f 7 5 6
f 7 6 3
f 7 3 4
f 16 10 13
f 8 13 10
f 8 1 13
f 8 4 1
f 9 11 5
f 9 5 7
f 9 7 4
f 9 4 8
f 9 8 11
f 12 10 16
f 12 16 11
f 12 8 10
f 12 11 8
f 20 11 16
f 20 21 22
f 20 22 11
f 20 16 13
f 20 13 14
f 20 14 21
f 5 23 18
f 5 18 1
f 2 5 1
f 2 6 5
f 24 18 23
f 24 19 18
