# Parametric PetalDock simulation geometry; SI units
v 0.0315288845564 0.0054707804403 0.014
v 0.0315288845564 0.0054707804403 0.0290384615385
v 0.0315936453811 0.0050834605867 0.014
v 0.0315936453811 0.0050834605867 0.0294017094017
v 0.0316038843512 0.0054837941392 0.0293769891902
v 0.0316687992266 0.0050955529428 0.0297484140498
v 0.0318174656966 0.0055208540182 0.0296639790757
v 0.0318828192714 0.0051299890596 0.0300423360582
v 0.0321371127688 0.0055763180467 0.0298557395865
v 0.0322031229037 0.0051815263505 0.0302387284654
v 0.0325141621988 0.0056417423291 0.0299230769231
v 0.0325809467992 0.00524231873 0.0303076923077
v 0.0482786044771 0.0083771325493 0.0299230769231
v 0.0483777694897 0.0077840490234 0.0303076923077
v 0.0486556539071 0.0084425568316 0.0298557395865
v 0.0487555933852 0.0078448414029 0.0302387284654
v 0.0489753009793 0.0084980208601 0.0296639790757
v 0.0490758970176 0.0078963786938 0.0300423360582
v 0.0491888823247 0.0085350807391 0.0293769891902
v 0.0492638821194 0.008548094438 0.014
v 0.0492638821194 0.008548094438 0.0290384615385
v 0.0492899170624 0.0079308148106 0.0297484140498
v 0.0493650709079 0.0079429071667 0.014
v 0.0493650709079 0.0079429071667 0.0294017094017
f 13 20 1
f 14 13 12
f 21 20 13
f 6 4 3
f 16 14 12
f 16 12 8
f 16 23 24
f 16 8 23
f 17 21 13
f 17 16 18
f 22 24 21
f 22 18 16
f 22 16 24
f 11 12 13
f 11 13 1
f 11 1 9
f 10 8 12
f 10 12 11
f 10 11 9
f 5 6 8
f 15 17 13
f 15 16 17
f 15 13 14
f 15 14 16
f 19 21 17
f 19 22 21
f 19 17 18
f 19 18 22
f 7 5 8
f 7 9 5
f 7 8 10
f 7 10 9
f 2 4 6
f 2 6 5
f 2 9 1
f 2 5 9
f 3 20 23
f 3 1 20
f 21 23 20
f 21 24 23
f 6 3 23
f 6 23 8
f 2 1 3
f 2 3 4
