# Parametric PetalDock simulation geometry; SI units
v -0.0196996020031 -0.0459556925845 0.014
v -0.0196996020031 -0.0459556925845 0.0221367521368
v -0.0196696111448 -0.0458857292084 0.0223199168565
v -0.0195842044063 -0.04568649037 0.0224751964081
v -0.0194563841892 -0.0453883083763 0.0225789508874
v -0.019305609963 -0.0450365787328 0.0226153846154
v -0.0191341716183 -0.0461939766256 0.014
v -0.0191341716183 -0.0461939766256 0.0225
v -0.0191050415765 -0.0461236504836 0.0226913417162
v -0.019022086236 -0.0459233785755 0.0228535533906
v -0.0188979347953 -0.0456236504836 0.0229619397663
v -0.0187514881859 -0.0452700970931 0.023
v -0.013001737322 -0.0303307571058 0.0226153846154
v -0.0128509630958 -0.0299790274623 0.0225789508874
v -0.0127231428788 -0.0296808454686 0.0224751964081
v -0.0126377361402 -0.0294816066301 0.0223199168565
v -0.012628553268 -0.0304880245729 0.023
v -0.012607745282 -0.0294116432541 0.014
v -0.012607745282 -0.0294116432541 0.0221367521368
v -0.0124821066586 -0.0301344711823 0.0229619397663
v -0.012357955218 -0.0298347430904 0.0228535533906
v -0.0122749998775 -0.0296344711823 0.0226913417162
v -0.0122458698357 -0.0295641450404 0.014
v -0.0122458698357 -0.0295641450404 0.0225
f 8 7 12
f 9 8 12
f 9 12 10
f 4 18 1
f 11 10 12
f 11 4 10
f 6 15 4
f 3 9 10
f 3 10 4
f 19 4 15
f 19 18 4
f 5 4 11
f 5 6 4
f 5 11 12
f 5 12 6
f 2 8 9
f 2 9 3
f 2 4 1
f 2 3 4
f 16 15 21
f 16 19 15
f 17 6 12
f 17 13 6
f 17 7 23
f 17 12 7
f 20 21 15
f 20 13 17
f 20 23 24
f 20 17 23
f 14 15 6
f 14 6 13
f 14 20 15
f 14 13 20
f 22 24 19
f 22 19 16
f 22 16 21
f 22 21 20
f 22 20 24
f 18 23 7
f 18 7 1
f 19 23 18
f 19 24 23
f 2 1 7
f 2 7 8
