# Parametric PetalDock simulation geometry; SI units
v 0.0252270856841 0.0196874108986 0.014
v 0.0252270856841 0.0196874108986 0.0145588428665
v 0.0252870949827 0.0197342426149 0.014571422861
v 0.0254579870068 0.0198676080595 0.0145820876654
v 0.0254667809475 0.0193763533249 0.014
v 0.0254667809475 0.0193763533249 0.014873191979
v 0.0255273604247 0.0194224451085 0.0148928482204
v 0.0256998761801 0.0195537034029 0.0149095119772
v 0.0257137449949 0.0200672035524 0.0145892136598
v 0.0259580642538 0.0197501453227 0.0149206463435
v 0.0260154321117 0.0203026424892 0.0145917159763
v 0.0262626178521 0.0199818643663 0.014924556213
v 0.0386289749537 0.0301463479385 0.0145917159763
v 0.0389306620705 0.0303817868752 0.0145892136598
v 0.0389960083258 0.0296700410288 0.014924556213
v 0.0391864200586 0.0305813823682 0.0145820876654
v 0.0393005619241 0.0299017600725 0.0149206463435
v 0.0393573120827 0.0307147478127 0.014571422861
v 0.0394173213813 0.030761579529 0.014
v 0.0394173213813 0.030761579529 0.0145588428665
v 0.0395587499978 0.0300982019923 0.0149095119772
v 0.0397312657532 0.0302294602867 0.0148928482204
v 0.0397918452304 0.0302755520702 0.014
v 0.0397918452304 0.0302755520702 0.014873191979
f 5 23 12
f 24 12 23
f 6 5 12
f 15 12 24
f 4 13 1
f 17 24 21
f 17 15 24
f 16 20 19
f 16 17 21
f 22 24 20
f 22 21 24
f 11 12 13
f 11 13 4
f 8 6 12
f 14 16 13
f 14 13 12
f 14 12 15
f 14 15 17
f 14 17 16
f 18 16 21
f 18 20 16
f 18 21 22
f 18 22 20
f 10 12 11
f 10 8 12
f 10 4 8
f 7 2 6
f 7 6 8
f 9 11 4
f 9 4 10
f 9 10 11
f 3 2 7
f 3 1 2
f 3 4 1
f 3 8 4
f 3 7 8
f 5 19 23
f 5 1 19
f 20 23 19
f 20 24 23
f 16 19 1
f 16 1 13
f 2 1 5
f 2 5 6
