# Parametric PetalDock simulation geometry; SI units
v -0.0282865905392 -0.0412294651393 0.014
v -0.0282865905392 -0.0412294651393 0.0163247863248
v -0.0282435267693 -0.041166697016 0.0163771191019
v -0.0281208915281 -0.0409879485242 0.016421484688
v -0.0279373549195 -0.0407204325011 0.016451128825
v -0.027778511651 -0.0415734806151 0.014
v -0.027778511651 -0.0415734806151 0.016688034188
v -0.0277362213851 -0.0415101887595 0.0167485439615
v -0.0277208587284 -0.0404048758365 0.0164615384615
v -0.0276157888972 -0.041329948804 0.0167998416705
v -0.0274355489417 -0.041060200648 0.0168341177039
v -0.027222941418 -0.0407420110028 0.0168461538462
v -0.0186691497559 -0.0272114469919 0.0164615384615
v -0.0184526535647 -0.0268958903272 0.016451128825
v -0.0183338176896 -0.027438497206 0.0168461538462
v -0.0182691169561 -0.0266283743042 0.016421484688
v -0.018146481715 -0.0264496258123 0.0163771191019
v -0.018121210166 -0.0271203075608 0.0168341177039
v -0.0181034179451 -0.0263868576891 0.014
v -0.0181034179451 -0.0263868576891 0.0163247863248
v -0.0179409702105 -0.0268505594048 0.0167998416705
v -0.0178205377225 -0.0266703194493 0.0167485439615
v -0.0177782474566 -0.0266070275937 0.014
v -0.0177782474566 -0.0266070275937 0.016688034188
f 8 6 23
f 8 7 6
f 11 10 8
f 11 4 10
f 3 8 10
f 3 10 4
f 3 19 1
f 17 16 21
f 5 4 11
f 5 3 4
f 5 9 3
f 5 11 12
f 5 12 9
f 13 3 9
f 13 17 20
f 13 20 19
f 13 19 3
f 2 7 8
f 2 8 3
f 2 3 1
f 22 17 21
f 22 24 20
f 22 20 17
f 14 16 17
f 14 17 13
f 15 13 9
f 15 9 12
f 15 12 11
f 15 22 21
f 15 24 22
f 15 11 8
f 15 23 24
f 15 8 23
f 18 14 13
f 18 13 15
f 18 15 21
f 18 21 16
f 18 16 14
f 19 23 6
f 19 6 1
f 24 23 19
f 24 19 20
f 2 1 6
f 2 6 7
