# Parametric PetalDock simulation geometry; SI units
v 0.0161132282792 -0.0276471313959 0.014
v 0.0161132282792 -0.0276471313959 0.0185042735043
v 0.0161515578564 -0.0277128974136 0.0186056682599
v 0.0162607112572 -0.0279001831867 0.018691626583
v 0.0164240708659 -0.028180476154 0.0187490620984
v 0.0164512878142 -0.02744731552 0.014
v 0.0164512878142 -0.02744731552 0.018141025641
v 0.0164904215554 -0.0275126062228 0.0182342434002
v 0.0166018650217 -0.0276985384135 0.0183132696005
v 0.0166167666629 -0.028511104252 0.0187692307692
v 0.0167686519556 -0.0279768056015 0.0183660732195
v 0.0169653905584 -0.02830504413 0.0183846153846
v 0.0246733808026 -0.04233466995 0.0187692307692
v 0.0248660765996 -0.042665298048 0.0187490620984
v 0.0250294362083 -0.0429455910153 0.018691626583
v 0.0251385896091 -0.0431328767884 0.0186056682599
v 0.0251769191863 -0.0431986428061 0.014
v 0.0251769191863 -0.0431986428061 0.0185042735043
v 0.0251910344655 -0.04202870189 0.0183846153846
v 0.0253877730682 -0.0423569404185 0.0183660732195
v 0.0255545600021 -0.0426352076066 0.0183132696005
v 0.0256660034684 -0.0428211397972 0.0182342434002
v 0.0257051372097 -0.0428864305 0.014
v 0.0257051372097 -0.0428864305 0.018141025641
f 16 1 17
f 18 16 17
f 24 16 18
f 13 16 15
f 3 7 2
f 3 2 4
f 22 16 24
f 22 15 16
f 22 21 15
f 14 15 21
f 14 13 15
f 5 1 16
f 5 2 1
f 5 4 2
f 5 13 10
f 5 16 13
f 8 7 3
f 8 3 4
f 12 23 6
f 12 6 7
f 12 24 23
f 12 7 8
f 12 5 10
f 12 11 5
f 9 8 4
f 9 4 5
f 9 5 11
f 9 11 12
f 9 12 8
f 19 24 12
f 19 12 10
f 19 10 13
f 20 22 24
f 20 24 19
f 20 21 22
f 20 14 21
f 20 13 14
f 20 19 13
f 6 23 17
f 6 17 1
f 2 6 1
f 2 7 6
f 24 17 23
f 24 18 17
