# Parametric PetalDock simulation geometry; SI units
v -0.0145142338627 0.0478470167866 0.014
v -0.0145142338627 0.0478470167866 0.025405982906
v -0.0144921372574 0.0477741740409 0.0256627405935
v -0.0144292114492 0.0475667354515 0.0258804092506
v -0.0143350363221 0.0472562816631 0.0260258507975
v -0.0142239491855 0.0468900764509 0.0260769230769
v -0.0139259844693 0.0480215259708 0.014
v -0.0139259844693 0.0480215259708 0.0257692307692
v -0.0139047834203 0.0479484175506 0.0260341654532
v -0.0138444079409 0.0477402223845 0.0262587662331
v -0.0137540496506 0.0474286362991 0.0264088396764
v -0.0136474647799 0.0470610954514 0.0264615384615
v -0.0095793943494 0.0315790310792 0.0260769230769
v -0.0094683072127 0.0312128258669 0.0260258507975
v -0.0093741320856 0.0309023720786 0.0258804092506
v -0.0093112062775 0.0306949334891 0.0256627405935
v -0.0092891096721 0.0306220907434 0.014
v -0.0092891096721 0.0306220907434 0.025405982906
v -0.0091911497497 0.0316942071407 0.0264615384615
v -0.009084564879 0.031326666293 0.0264088396764
v -0.0089942065886 0.0310150802076 0.0262587662331
v -0.0089338311093 0.0308068850414 0.0260341654532
v -0.0089126300603 0.0307337766213 0.014
v -0.0089126300603 0.0307337766213 0.0257692307692
f 10 23 7
f 21 23 10
f 21 10 12
f 9 7 8
f 9 10 7
f 19 21 12
f 24 23 21
f 11 12 10
f 11 10 4
f 3 10 9
f 3 4 10
f 20 15 21
f 20 21 19
f 6 19 12
f 6 3 1
f 2 9 8
f 2 3 9
f 2 1 3
f 13 19 6
f 13 20 19
f 5 11 4
f 5 4 3
f 5 3 6
f 5 12 11
f 5 6 12
f 22 18 24
f 22 24 21
f 14 15 20
f 14 20 13
f 16 18 22
f 16 15 14
f 16 14 13
f 16 17 18
f 16 21 15
f 16 22 21
f 16 13 6
f 16 1 17
f 16 6 1
f 17 7 23
f 17 1 7
f 18 17 23
f 18 23 24
f 2 7 1
f 2 8 7
