# Parametric PetalDock simulation geometry; SI units
v 0 0.032 0.014
v 0 0.032 0.031
v 0 0.0320761204675 0.0313826834324
v 0 0.0322928932188 0.0317071067812
v 0 0.0326173165676 0.0319238795325
v 0 0.033 0.032
v 0 0.049 0.032
v 0 0.0493826834324 0.0319238795325
v 0 0.0497071067812 0.0317071067812
v 0 0.0499238795325 0.0313826834324
v 0 0.05 0.014
v 0 0.05 0.031
v 0.0003926892251 0.0319975904589 0.014
v 0.0003926892251 0.0319975904589 0.031
v 0.0003936233404 0.0320737051946 0.0313826834324
v 0.0003962834755 0.0322904616233 0.0317071067812
v 0.000400264649 0.0326148605437 0.0319238795325
v 0.0004049607634 0.0329975151607 0.032
v 0.000601305376 0.0489963103901 0.032
v 0.0006060014904 0.0493789650071 0.0319238795325
v 0.0006099826639 0.0497033639275 0.0317071067812
v 0.0006126427991 0.0499201203562 0.0313826834324
v 0.0006135769143 0.049996235092 0.014
v 0.0006135769143 0.049996235092 0.031
f 8 21 9
f 18 6 5
f 24 22 23
f 10 9 21
f 10 21 22
f 10 24 12
f 10 22 24
f 19 8 7
f 15 13 23
f 15 23 22
f 15 14 13
f 15 2 14
f 15 3 2
f 20 22 21
f 20 21 8
f 20 8 19
f 17 18 5
f 16 19 18
f 16 20 19
f 16 18 17
f 16 15 22
f 16 22 20
f 16 4 3
f 16 3 15
f 16 5 4
f 16 17 5
f 13 1 11
f 13 11 23
f 13 2 1
f 13 14 2
f 24 11 12
f 24 23 11
f 10 12 11
f 10 11 1
f 10 1 2
f 10 5 6
f 10 6 7
f 10 2 3
f 10 8 9
f 10 7 8
f 10 3 4
f 10 4 5
f 19 7 6
f 19 6 18
