# Parametric PetalDock simulation geometry; SI units
v 0.0297121945751 -0.0118821502065 0.014
v 0.0297121945751 -0.0118821502065 0.0228632478632
v 0.0297828728921 -0.0119104150448 0.0230627665758
v 0.0298557695627 -0.0115166411691 0.014
v 0.0298557695627 -0.0115166411691 0.0232264957265
v 0.0299267894107 -0.0115440365475 0.0234341914355
v 0.0299841477097 -0.0119909064946 0.0232319103731
v 0.0301290368267 -0.0116220519848 0.0236102673556
v 0.0302853767618 -0.0121113704621 0.0233449286452
v 0.0304317214749 -0.0117388103378 0.0237279175241
v 0.0306407006556 -0.0122534674004 0.0233846153846
v 0.0307887623615 -0.0118765362057 0.0237692307692
v 0.0454967979432 -0.0181945425036 0.0233846153846
v 0.0457166471429 -0.0176348567902 0.0237692307692
v 0.045852121837 -0.0183366394419 0.0233449286452
v 0.0460736880295 -0.0177725826581 0.0237279175241
v 0.0461533508891 -0.0184571034095 0.0232319103731
v 0.0463546257067 -0.0185375948592 0.0230627665758
v 0.0463763726778 -0.0178893410111 0.0236102673556
v 0.0464253040237 -0.0185658596976 0.014
v 0.0464253040237 -0.0185658596976 0.0228632478632
v 0.0465786200937 -0.0179673564483 0.0234341914355
v 0.0466496399417 -0.0179947518267 0.014
v 0.0466496399417 -0.0179947518267 0.0232264957265
f 17 1 20
f 14 12 13
f 16 17 19
f 16 19 14
f 22 14 19
f 22 24 14
f 22 21 24
f 11 13 12
f 18 20 21
f 18 17 20
f 18 21 22
f 18 19 17
f 18 22 19
f 2 1 17
f 15 13 11
f 15 11 17
f 15 17 16
f 15 14 13
f 15 16 14
f 6 3 8
f 6 5 2
f 6 2 3
f 6 23 4
f 6 24 23
f 6 4 5
f 6 14 24
f 6 8 14
f 10 12 14
f 10 14 8
f 10 11 12
f 9 11 10
f 7 17 11
f 7 2 17
f 7 11 9
f 7 3 2
f 7 8 3
f 7 10 8
f 7 9 10
f 4 23 20
f 4 20 1
f 21 20 23
f 21 23 24
f 2 4 1
f 2 5 4
