# Parametric PetalDock simulation geometry; SI units
v 0.0282214804591 -0.0150846955784 0.014
v 0.0282214804591 -0.0150846955784 0.019594017094
v 0.0282886127181 -0.0151205785184 0.0197199428389
v 0.0284044678529 -0.0147372387507 0.014
v 0.0284044678529 -0.0147372387507 0.0199572649573
v 0.0284720353958 -0.0147722951726 0.0200913676985
v 0.028479789217 -0.015222764486 0.0198266975306
v 0.0286644514785 -0.0148721274161 0.0202050545131
v 0.028765905067 -0.015375696594 0.0198980287351
v 0.0289524224967 -0.015021536927 0.020281017614
v 0.0291034017235 -0.0155560923153 0.0199230769231
v 0.0292921074733 -0.0151977774616 0.0203076923077
v 0.0432141419531 -0.0230984401045 0.0199230769231
v 0.0434943413997 -0.022566396837 0.0203076923077
v 0.0435516386096 -0.0232788358257 0.0198980287351
v 0.0438340263764 -0.0227426373716 0.020281017614
v 0.0438377544596 -0.0234317679337 0.0198266975306
v 0.0440289309585 -0.0235339539013 0.0197199428389
v 0.0440960632174 -0.0235698368413 0.014
v 0.0440960632174 -0.0235698368413 0.019594017094
v 0.0441219973946 -0.0228920468825 0.0202050545131
v 0.0443144134773 -0.0229918791259 0.0200913676985
v 0.0443819810201 -0.0230269355479 0.014
v 0.0443819810201 -0.0230269355479 0.0199572649573
f 11 1 19
f 6 23 4
f 6 4 5
f 2 1 11
f 2 6 5
f 22 24 23
f 22 23 6
f 22 6 12
f 10 11 12
f 20 11 19
f 20 24 22
f 8 12 6
f 8 10 12
f 18 17 20
f 18 20 22
f 18 21 17
f 18 22 21
f 13 20 17
f 13 17 15
f 13 11 20
f 13 12 11
f 13 14 12
f 13 15 14
f 16 14 15
f 16 21 22
f 16 17 21
f 16 15 17
f 16 22 12
f 16 12 14
f 3 6 2
f 3 8 6
f 9 11 10
f 7 8 3
f 7 10 8
f 7 9 10
f 7 11 9
f 7 2 11
f 7 3 2
f 4 23 19
f 4 19 1
f 2 4 1
f 2 5 4
f 20 19 23
f 20 23 24
