# Parametric PetalDock simulation geometry; SI units
v -0.0302755520702 0.0397918452304 0.014
v -0.0302755520702 0.0397918452304 0.014873191979
v -0.0302294602867 0.0397312657532 0.0148928482204
v -0.0300982019923 0.0395587499978 0.0149095119772
v -0.0299017600725 0.0393005619241 0.0149206463435
v -0.0297849652246 0.040160376574 0.014
v -0.0297849652246 0.040160376574 0.015235042735
v -0.0297396203151 0.0400992360412 0.0152628445229
v -0.0296700410288 0.0389960083258 0.014924556213
v -0.0296104889379 0.0399251225348 0.0152864137405
v -0.0294172301746 0.0396645432576 0.0153021621883
v -0.0291892659201 0.0393571690426 0.0153076923077
v -0.0199818643663 0.0262626178521 0.014924556213
v -0.0197501453227 0.0259580642538 0.0149206463435
v -0.0196580770483 0.0265058485389 0.0153076923077
v -0.0195537034029 0.0256998761801 0.0149095119772
v -0.0194301127937 0.0261984743238 0.0153021621883
v -0.0194224451085 0.0255273604247 0.0148928482204
v -0.0193763533249 0.0254667809475 0.014
v -0.0193763533249 0.0254667809475 0.014873191979
v -0.0192368540305 0.0259378950467 0.0152864137405
v -0.0191077226533 0.0257637815402 0.0152628445229
v -0.0190623777438 0.0257026410074 0.014
v -0.0190623777438 0.0257026410074 0.015235042735
f 12 23 6
f 7 12 6
f 10 12 7
f 11 12 10
f 11 10 4
f 3 4 10
f 17 23 12
f 17 21 23
f 17 16 21
f 8 10 7
f 8 3 10
f 2 1 3
f 2 8 7
f 2 3 8
f 22 23 21
f 22 24 23
f 20 24 22
f 5 9 12
f 5 12 11
f 5 11 4
f 5 4 3
f 15 17 12
f 15 12 9
f 18 19 20
f 18 16 19
f 18 20 22
f 18 21 16
f 18 22 21
f 13 15 9
f 13 17 15
f 14 13 9
f 14 9 5
f 14 16 17
f 14 17 13
f 14 5 3
f 14 3 1
f 14 1 19
f 14 19 16
f 19 6 23
f 19 1 6
f 2 6 1
f 2 7 6
f 20 19 23
f 20 23 24
