# Parametric PetalDock simulation geometry; SI units
v 0.0278427837155 0.0157727421514 0.014
v 0.0278427837155 0.0157727421514 0.0188675213675
v 0.027909015144 0.0158102617922 0.0189770931195
v 0.0280342430143 0.0154298807065 0.014
v 0.0280342430143 0.0154298807065 0.0192307692308
v 0.028097626295 0.0159171086894 0.0190699835656
v 0.0281009298794 0.0154665847607 0.0193485179792
v 0.028290838004 0.0155711090636 0.0194483405481
v 0.0283799028304 0.0160770163716 0.0191320509773
v 0.0285750555978 0.0157275407377 0.0195150398562
v 0.0287128707066 0.0162656403436 0.0191538461538
v 0.0289103131084 0.0159120644786 0.0195384615385
v 0.0426342625643 0.0241520114193 0.0191538461538
v 0.0429274346156 0.0236270048319 0.0195384615385
v 0.0429672304405 0.0243406353913 0.0191320509773
v 0.043249506976 0.0245005430734 0.0190699835656
v 0.0432626921262 0.0238115285728 0.0195150398562
v 0.0434381181269 0.0246073899707 0.0189770931195
v 0.0435043495554 0.0246449096115 0.014
v 0.0435043495554 0.0246449096115 0.0188675213675
v 0.04354690972 0.0239679602469 0.0194483405481
v 0.0437368178446 0.0240724845498 0.0193485179792
v 0.0438035047098 0.024109188604 0.014
v 0.0438035047098 0.024109188604 0.0192307692308
f 4 23 21
f 13 19 1
f 5 4 21
f 14 13 12
f 22 21 23
f 22 23 24
f 20 22 24
f 17 5 21
f 17 12 5
f 17 14 12
f 18 20 19
f 18 21 22
f 18 22 20
f 2 13 1
f 15 19 13
f 15 18 19
f 15 13 14
f 15 14 17
f 11 12 13
f 10 5 12
f 10 8 5
f 10 12 11
f 10 11 9
f 10 9 6
f 10 6 8
f 7 2 5
f 7 5 8
f 16 21 18
f 16 18 15
f 16 17 21
f 16 15 17
f 3 2 7
f 3 6 9
f 3 8 6
f 3 7 8
f 3 13 2
f 3 11 13
f 3 9 11
f 4 19 23
f 4 1 19
f 20 23 19
f 20 24 23
f 2 1 4
f 2 4 5
