# Parametric PetalDock simulation geometry; SI units
v 0.0268231905778 -0.0174503996295 0.014
v 0.0268231905778 -0.0174503996295 0.0170512820513
v 0.0268869966342 -0.0174919100226 0.0171199688212
v 0.027035314088 -0.0171199238364 0.014
v 0.027035314088 -0.0171199238364 0.0174145299145
v 0.0270687009099 -0.0176101216207 0.017178198653
v 0.0270996247363 -0.0171606481053 0.0174913936809
v 0.0272827659681 -0.0172766210113 0.0175565556355
v 0.0273406405759 -0.0177870377796 0.0172171065828
v 0.027556856191 -0.0174501867308 0.0176000954617
v 0.0276614152833 -0.0179957246179 0.0172307692308
v 0.0278801676532 -0.0176549214563 0.0176153846154
v 0.0410730105722 -0.0267209244327 0.0172307692308
v 0.0413937852796 -0.026929611271 0.0172171065828
v 0.0413978246972 -0.0262148833745 0.0176153846154
v 0.0416657249456 -0.0271065274299 0.017178198653
v 0.0417211361594 -0.0264196181 0.0176000954617
v 0.0418474292213 -0.0272247390281 0.0171199688212
v 0.0419112352777 -0.0272662494211 0.014
v 0.0419112352777 -0.0272662494211 0.0170512820513
v 0.0419952263823 -0.0265931838194 0.0175565556355
v 0.0421783676141 -0.0267091567254 0.0174913936809
v 0.0422426782625 -0.0267498809944 0.014
v 0.0422426782625 -0.0267498809944 0.0174145299145
f 3 1 19
f 22 24 23
f 22 23 4
f 2 1 3
f 10 11 12
f 20 24 22
f 18 19 20
f 18 3 19
f 18 20 22
f 18 21 16
f 18 22 21
f 9 11 10
f 7 5 2
f 7 2 3
f 17 16 21
f 17 21 15
f 6 3 9
f 6 9 10
f 13 3 18
f 13 9 3
f 13 11 9
f 13 12 11
f 13 15 12
f 8 6 10
f 8 7 3
f 8 3 6
f 8 15 21
f 8 21 22
f 8 10 12
f 8 12 15
f 8 22 4
f 8 4 5
f 8 5 7
f 14 18 16
f 14 13 18
f 14 16 17
f 14 17 15
f 14 15 13
f 4 23 19
f 4 19 1
f 2 4 1
f 2 5 4
f 20 19 23
f 20 23 24
