# Parametric PetalDock simulation geometry; SI units
v 0.0257026410074 -0.0190623777438 0.014
v 0.0257026410074 -0.0190623777438 0.015235042735
v 0.0257637815402 -0.0191077226533 0.0152628445229
v 0.0259346303441 -0.0187455314386 0.014
v 0.0259346303441 -0.0187455314386 0.0155982905983
v 0.0259378950467 -0.0192368540305 0.0152864137405
v 0.0259963227249 -0.0187901226454 0.0156342693825
v 0.0261720077616 -0.0189171076587 0.015664770723
v 0.0261984743238 -0.0194301127937 0.0153021621883
v 0.0264349389999 -0.0191071541613 0.0156851510672
v 0.0265058485389 -0.0196580770483 0.0153076923077
v 0.0267450875423 -0.0193313292961 0.0156923076923
v 0.0393571690426 -0.0291892659201 0.0153076923077
v 0.0396645432576 -0.0294172301746 0.0153021621883
v 0.0397124027144 -0.0287040950154 0.0156923076923
v 0.0399251225348 -0.0296104889379 0.0152864137405
v 0.0400225512568 -0.0289282701501 0.0156851510672
v 0.0400992360412 -0.0297396203151 0.0152628445229
v 0.040160376574 -0.0297849652246 0.014
v 0.040160376574 -0.0297849652246 0.015235042735
v 0.0402854824951 -0.0291183166528 0.015664770723
v 0.0404611675318 -0.0292453016661 0.0156342693825
v 0.0405228599126 -0.0292898928728 0.014
v 0.0405228599126 -0.0292898928728 0.0155982905983
f 18 1 19
f 2 1 18
f 2 18 11
f 20 18 19
f 22 24 21
f 22 21 18
f 22 20 24
f 22 18 20
f 13 12 11
f 13 15 12
f 14 11 18
f 14 13 11
f 14 15 13
f 6 11 9
f 6 2 11
f 6 3 2
f 6 8 3
f 10 11 12
f 10 9 11
f 10 6 9
f 10 8 6
f 7 3 8
f 7 5 2
f 7 2 3
f 7 10 5
f 7 8 10
f 16 18 21
f 16 14 18
f 17 15 14
f 17 21 24
f 17 16 21
f 17 14 16
f 17 23 4
f 17 24 23
f 17 4 5
f 17 5 10
f 17 12 15
f 17 10 12
f 4 23 19
f 4 19 1
f 2 4 1
f 2 5 4
f 20 19 23
f 20 23 24
