# Parametric PetalDock simulation geometry; SI units
v -0.00367822818 -0.0498645228339 0.014
v -0.00367822818 -0.0498645228339 0.031
v -0.003672628411 -0.0497886086182 0.0313826834324
v -0.0036566816182 -0.049572423222 0.0317071067812
v -0.0036328155561 -0.0492488789123 0.0319238795325
v -0.0036046636164 -0.0488672323773 0.032
v -0.0030660368151 -0.049905905645 0.014
v -0.0030660368151 -0.049905905645 0.031
v -0.003061369052 -0.0498299284276 0.0313826834324
v -0.0030480763873 -0.0496135636182 0.0317071067812
v -0.0030281825087 -0.0492897507975 0.0319238795325
v -0.0030047160788 -0.0489077875321 0.032
v -0.0024276305988 -0.0329105850704 0.032
v -0.0023994786591 -0.0325289385354 0.0319238795325
v -0.002375612597 -0.0322053942257 0.0317071067812
v -0.0023596658042 -0.0319892088295 0.0313826834324
v -0.0023540660352 -0.0319132946137 0.014
v -0.0023540660352 -0.0319132946137 0.031
v -0.002023584298 -0.0329378977257 0.032
v -0.0020001178681 -0.0325559344604 0.0319238795325
v -0.0019802239895 -0.0322321216396 0.0317071067812
v -0.0019669313248 -0.0320157568302 0.0313826834324
v -0.0019622635617 -0.0319397796128 0.014
v -0.0019622635617 -0.0319397796128 0.031
f 20 7 23
f 8 7 20
f 8 20 12
f 19 12 20
f 22 20 23
f 22 23 24
f 3 2 8
f 11 12 6
f 11 10 12
f 14 19 20
f 9 3 8
f 9 10 3
f 9 8 12
f 9 12 10
f 4 2 3
f 4 3 10
f 4 10 11
f 4 1 2
f 21 20 22
f 21 14 20
f 13 19 14
f 13 4 6
f 16 22 24
f 16 21 22
f 16 13 14
f 16 4 13
f 16 17 1
f 16 1 4
f 5 11 6
f 5 6 4
f 5 4 11
f 18 17 16
f 18 16 24
f 15 14 21
f 15 16 14
f 15 21 16
f 17 23 7
f 17 7 1
f 8 1 7
f 8 2 1
f 13 12 19
f 13 6 12
f 18 23 17
f 18 24 23
