# Parametric PetalDock simulation geometry; SI units
v -0.0431986428061 0.0251769191863 0.014
v -0.0431986428061 0.0251769191863 0.0185042735043
v -0.0431328767884 0.0251385896091 0.0186056682599
v -0.0429455910153 0.0250294362083 0.018691626583
v -0.0428864305 0.0257051372097 0.014
v -0.0428864305 0.0257051372097 0.018141025641
v -0.0428211397972 0.0256660034684 0.0182342434002
v -0.042665298048 0.0248660765996 0.0187490620984
v -0.0426352076066 0.0255545600021 0.0183132696005
v -0.0423569404185 0.0253877730682 0.0183660732195
v -0.04233466995 0.0246733808026 0.0187692307692
v -0.04202870189 0.0251910344655 0.0183846153846
v -0.028511104252 0.0166167666629 0.0187692307692
v -0.02830504413 0.0169653905584 0.0183846153846
v -0.028180476154 0.0164240708659 0.0187490620984
v -0.0279768056015 0.0167686519556 0.0183660732195
v -0.0279001831867 0.0162607112572 0.018691626583
v -0.0277128974136 0.0161515578564 0.0186056682599
v -0.0276985384135 0.0166018650217 0.0183132696005
v -0.0276471313959 0.0161132282792 0.014
v -0.0276471313959 0.0161132282792 0.0185042735043
v -0.0275126062228 0.0164904215554 0.0182342434002
v -0.02744731552 0.0164512878142 0.014
v -0.02744731552 0.0164512878142 0.018141025641
f 14 23 5
f 6 14 5
f 12 14 6
f 24 23 14
f 13 12 11
f 13 14 12
f 8 4 11
f 8 9 4
f 7 4 9
f 3 11 4
f 3 4 7
f 3 2 1
f 3 6 2
f 3 7 6
f 3 1 20
f 10 9 8
f 10 7 9
f 10 11 12
f 10 8 11
f 10 12 6
f 10 6 7
f 15 13 11
f 15 11 3
f 15 3 20
f 15 20 21
f 15 21 17
f 15 14 13
f 15 17 19
f 18 21 24
f 18 17 21
f 16 19 14
f 16 14 15
f 16 15 19
f 22 18 24
f 22 24 14
f 22 14 19
f 22 19 17
f 22 17 18
f 20 5 23
f 20 1 5
f 6 5 1
f 6 1 2
f 24 20 23
f 24 21 20
