# Parametric PetalDock simulation geometry; SI units
v 0.0285831776383 0.0143875625489 0.014
v 0.0285831776383 0.0143875625489 0.0203205128205
v 0.0286511702896 0.0144217871735 0.0204627925582
v 0.0287575829022 0.0140357196332 0.014
v 0.0287575829022 0.0140357196332 0.0206837606838
v 0.0288259904227 0.0140691073064 0.0208342174179
v 0.028844796979 0.0145192506585 0.0205834114956
v 0.0290207985591 0.0141641873552 0.0209617684781
v 0.029134579798 0.0146651150717 0.0206640064929
v 0.0293123495388 0.0143064847041 0.0210469953718
v 0.0294764019395 0.0148371738786 0.0206923076923
v 0.0296562573679 0.0144743358718 0.0210769230769
v 0.0437679907586 0.0220309551531 0.0206923076923
v 0.044035048819 0.0214921956884 0.0210769230769
v 0.0441098129 0.0222030139599 0.0206640064929
v 0.0443789566481 0.021660046856 0.0210469953718
v 0.0443995957191 0.0223488783732 0.0205834114956
v 0.0445932224084 0.0224463418581 0.0204627925582
v 0.0446612150598 0.0224805664827 0.014
v 0.0446612150598 0.0224805664827 0.0203205128205
v 0.0446705076278 0.021802344205 0.0209617684781
v 0.0448653157642 0.0218974242538 0.0208342174179
v 0.0449337232847 0.0219308119269 0.014
v 0.0449337232847 0.0219308119269 0.0206837606838
f 17 19 1
f 14 13 12
f 20 19 17
f 16 21 17
f 16 24 21
f 16 4 23
f 16 23 24
f 16 5 4
f 11 13 7
f 11 12 13
f 18 17 21
f 18 20 17
f 15 17 13
f 15 16 17
f 15 13 14
f 15 14 16
f 3 7 1
f 3 1 2
f 3 8 7
f 10 5 16
f 10 12 11
f 10 14 12
f 10 16 14
f 10 7 8
f 22 24 20
f 22 20 18
f 22 21 24
f 22 18 21
f 6 5 10
f 6 10 8
f 6 8 3
f 6 2 5
f 6 3 2
f 9 11 7
f 9 7 10
f 9 10 11
f 4 19 23
f 4 1 19
f 7 13 17
f 7 17 1
f 20 23 19
f 20 24 23
f 2 1 4
f 2 4 5
