# Parametric PetalDock simulation geometry; SI units
v -0.0235698368413 0.0440960632174 0.014
v -0.0235698368413 0.0440960632174 0.019594017094
v -0.0235339539013 0.0440289309585 0.0197199428389
v -0.0234317679337 0.0438377544596 0.0198266975306
v -0.0232788358257 0.0435516386096 0.0198980287351
v -0.0230984401045 0.0432141419531 0.0199230769231
v -0.0230269355479 0.0443819810201 0.014
v -0.0230269355479 0.0443819810201 0.0199572649573
v -0.0229918791259 0.0443144134773 0.0200913676985
v -0.0228920468825 0.0441219973946 0.0202050545131
v -0.0227426373716 0.0438340263764 0.020281017614
v -0.022566396837 0.0434943413997 0.0203076923077
v -0.0155560923153 0.0291034017235 0.0199230769231
v -0.015375696594 0.028765905067 0.0198980287351
v -0.015222764486 0.028479789217 0.0198266975306
v -0.0151977774616 0.0292921074733 0.0203076923077
v -0.0151205785184 0.0282886127181 0.0197199428389
v -0.0150846955784 0.0282214804591 0.014
v -0.0150846955784 0.0282214804591 0.019594017094
v -0.015021536927 0.0289524224967 0.020281017614
v -0.0148721274161 0.0286644514785 0.0202050545131
v -0.0147722951726 0.0284720353958 0.0200913676985
v -0.0147372387507 0.0284044678529 0.014
v -0.0147372387507 0.0284044678529 0.0199572649573
f 9 7 8
f 11 9 10
f 16 11 12
f 16 9 11
f 22 24 23
f 22 23 7
f 22 7 9
f 22 16 21
f 22 9 16
f 5 12 11
f 20 15 21
f 20 21 16
f 19 24 22
f 6 16 12
f 6 12 5
f 4 11 10
f 4 5 11
f 4 6 5
f 17 15 19
f 17 19 22
f 17 21 15
f 17 22 21
f 13 16 6
f 13 20 16
f 13 19 15
f 13 18 19
f 13 1 18
f 3 10 9
f 3 4 10
f 14 15 20
f 14 13 15
f 14 20 13
f 2 9 8
f 2 3 9
f 2 1 13
f 2 13 6
f 2 6 4
f 2 4 3
f 18 7 23
f 18 1 7
f 19 18 23
f 19 23 24
f 2 7 1
f 2 8 7
