# Parametric PetalDock simulation geometry; SI units
v -0.0390368614286 0.0312429744071 0.014
v -0.0390368614286 0.0312429744071 0.0143143491124
v -0.0389774313458 0.0311954098108 0.0143214253593
v -0.0388081887887 0.0310599573003 0.0143274243118
v -0.0386505226681 0.0317196642082 0.014
v -0.0386505226681 0.0317196642082 0.0141397107166
v -0.0385916807511 0.0316713738948 0.0141428557153
v -0.0385548994024 0.0308572382926 0.0143314326837
v -0.0384241131483 0.0315338547172 0.0141455219163
v -0.0382561242 0.030618114919 0.0143328402367
v -0.0381733305083 0.0313280427235 0.014147303415
v -0.0378775122148 0.031085270924 0.0141479289941
v -0.0257643285429 0.0206203631087 0.0143328402367
v -0.025509344961 0.0209349783774 0.0141479289941
v -0.0254655533405 0.020381239735 0.0143314326837
v -0.0252135266674 0.0206922065779 0.014147303415
v -0.0252122639542 0.0201785207273 0.0143274243118
v -0.0250430213971 0.0200430682169 0.0143214253593
v -0.0249835913143 0.0199955036206 0.014
v -0.0249835913143 0.0199955036206 0.0143143491124
v -0.0249627440275 0.0204863945842 0.0141455219163
v -0.0247951764247 0.0203488754066 0.0141428557153
v -0.0247363345076 0.0203005850932 0.014
v -0.0247363345076 0.0203005850932 0.0141397107166
f 4 2 1
f 22 23 5
f 6 22 5
f 8 7 4
f 3 4 7
f 3 7 6
f 3 6 2
f 3 2 4
f 11 12 14
f 11 14 22
f 11 22 6
f 24 23 22
f 15 14 12
f 15 8 4
f 15 1 19
f 15 4 1
f 9 8 10
f 9 10 11
f 9 7 8
f 9 6 7
f 9 11 6
f 16 22 14
f 16 14 15
f 17 15 19
f 13 12 11
f 13 15 12
f 13 11 10
f 13 10 8
f 13 8 15
f 18 22 17
f 18 20 24
f 18 24 22
f 18 19 20
f 18 17 19
f 21 16 15
f 21 15 17
f 21 22 16
f 21 17 22
f 19 5 23
f 19 1 5
f 6 5 1
f 6 1 2
f 24 19 23
f 24 20 19
