# Parametric PetalDock simulation geometry; SI units
v 0.02744731552 0.0164512878142 0.014
v 0.02744731552 0.0164512878142 0.018141025641
v 0.0275126062228 0.0164904215554 0.0182342434002
v 0.0276471313959 0.0161132282792 0.014
v 0.0276471313959 0.0161132282792 0.0185042735043
v 0.0276985384135 0.0166018650217 0.0183132696005
v 0.0277128974136 0.0161515578564 0.0186056682599
v 0.0279001831867 0.0162607112572 0.018691626583
v 0.0279768056015 0.0167686519556 0.0183660732195
v 0.028180476154 0.0164240708659 0.0187490620984
v 0.02830504413 0.0169653905584 0.0183846153846
v 0.028511104252 0.0166167666629 0.0187692307692
v 0.04202870189 0.0251910344655 0.0183846153846
v 0.04233466995 0.0246733808026 0.0187692307692
v 0.0423569404185 0.0253877730682 0.0183660732195
v 0.0426352076066 0.0255545600021 0.0183132696005
v 0.042665298048 0.0248660765996 0.0187490620984
v 0.0428211397972 0.0256660034684 0.0182342434002
v 0.0428864305 0.0257051372097 0.014
v 0.0428864305 0.0257051372097 0.018141025641
v 0.0429455910153 0.0250294362083 0.018691626583
v 0.0431328767884 0.0251385896091 0.0186056682599
v 0.0431986428061 0.0251769191863 0.014
v 0.0431986428061 0.0251769191863 0.0185042735043
f 11 19 1
f 10 5 4
f 10 12 11
f 2 11 1
f 22 4 23
f 22 10 4
f 22 23 24
f 20 19 11
f 20 22 24
f 14 12 10
f 14 22 21
f 14 10 22
f 13 20 11
f 13 11 12
f 13 12 14
f 18 22 20
f 18 16 21
f 18 21 22
f 17 21 16
f 17 14 21
f 9 10 11
f 9 11 6
f 9 6 10
f 3 11 2
f 3 6 11
f 15 20 13
f 15 18 20
f 15 16 18
f 15 17 16
f 15 13 14
f 15 14 17
f 7 2 5
f 7 3 2
f 8 5 10
f 8 7 5
f 8 10 6
f 8 6 3
f 8 3 7
f 4 19 23
f 4 1 19
f 2 1 4
f 2 4 5
f 20 23 19
f 20 24 23
