# Parametric PetalDock simulation geometry; SI units
v 0.0077753657569 -0.0310410001022 0.014
v 0.0077753657569 -0.0310410001022 0.026858974359
v 0.0077938615218 -0.0311148393347 0.0271484400322
v 0.0078465330039 -0.0313251156783 0.0273938371806
v 0.0079253614476 -0.0316398164659 0.0275578063131
v 0.0080183459368 -0.0320110313554 0.0276153846154
v 0.0081557011073 -0.0309432470734 0.014
v 0.0081557011073 -0.0309432470734 0.0264957264957
v 0.0081751016005 -0.0310168537745 0.0267770151725
v 0.0082303495308 -0.0312264679246 0.0270154801981
v 0.0083130339015 -0.0315401776695 0.0271748174342
v 0.0084105667669 -0.0319102235445 0.0272307692308
v 0.0119060288153 -0.0475315314065 0.0276153846154
v 0.0119990133045 -0.047902746296 0.0275578063131
v 0.0120778417482 -0.0482174470836 0.0273938371806
v 0.0121305132303 -0.0484277234273 0.0271484400322
v 0.0121490089952 -0.0485015626597 0.014
v 0.0121490089952 -0.0485015626597 0.026858974359
v 0.0124884173206 -0.0473818470812 0.0272307692308
v 0.012585950186 -0.0477518929562 0.0271748174342
v 0.0126686345568 -0.0480656027011 0.0270154801981
v 0.0127238824871 -0.0482752168512 0.0267770151725
v 0.0127432829802 -0.0483488235522 0.014
v 0.0127432829802 -0.0483488235522 0.0264957264957
f 14 1 17
f 14 6 1
f 2 1 6
f 16 14 17
f 16 15 14
f 13 6 14
f 21 14 15
f 4 2 6
f 18 16 17
f 10 23 7
f 3 8 2
f 3 2 4
f 24 16 18
f 9 7 8
f 9 10 7
f 9 8 3
f 9 4 10
f 9 3 4
f 19 6 13
f 5 4 6
f 5 10 4
f 22 23 10
f 22 24 23
f 22 19 21
f 22 10 19
f 22 16 24
f 22 15 16
f 22 21 15
f 12 6 19
f 12 19 10
f 12 5 6
f 20 14 21
f 20 21 19
f 20 13 14
f 20 19 13
f 11 10 5
f 11 12 10
f 11 5 12
f 7 23 17
f 7 17 1
f 2 7 1
f 2 8 7
f 24 17 23
f 24 18 17
