# Parametric PetalDock simulation geometry; SI units
v -0.0457104877852 0.0202620657002 0.014
v -0.0457104877852 0.0202620657002 0.0217735042735
v -0.0456408977112 0.020231218542 0.0219484919969
v -0.0454583991545 0.0208214780049 0.014
v -0.0454583991545 0.0208214780049 0.0214102564103
v -0.0454427219472 0.0201433732674 0.0220968394256
v -0.0453891928626 0.0207897791921 0.0215770671372
v -0.0451921100175 0.0206995086106 0.0217184824431
v -0.0451461309567 0.0200119035232 0.0221959620085
v -0.0448971546958 0.0205644091382 0.0218129731296
v -0.0447962780295 0.0198568243862 0.0222307692308
v -0.0445492311714 0.0204050484448 0.0218461538462
v -0.0301689219382 0.0133729633622 0.0222307692308
v -0.030002543442 0.0137421754832 0.0218461538462
v -0.029819069011 0.0132178842252 0.0221959620085
v -0.0296546199176 0.0135828147898 0.0218129731296
v -0.0295224780205 0.013086414481 0.0220968394256
v -0.0293596645959 0.0134477153174 0.0217184824431
v -0.0293243022565 0.0129985692064 0.0219484919969
v -0.0292547121825 0.0129677220482 0.014
v -0.0292547121825 0.0129677220482 0.0217735042735
v -0.0291625817508 0.0133574447359 0.0215770671372
v -0.0290933754589 0.0133257459231 0.014
v -0.0290933754589 0.0133257459231 0.0214102564103
f 18 23 4
f 18 4 12
f 5 12 4
f 13 12 11
f 24 23 18
f 15 13 11
f 15 17 18
f 14 12 13
f 14 13 15
f 9 2 11
f 9 6 2
f 3 5 2
f 3 2 6
f 8 6 9
f 22 18 17
f 22 24 18
f 16 18 12
f 16 12 14
f 16 15 18
f 16 14 15
f 10 8 9
f 10 11 12
f 10 9 11
f 7 3 6
f 7 6 8
f 7 5 3
f 7 8 10
f 7 12 5
f 7 10 12
f 19 21 24
f 19 24 22
f 19 22 17
f 19 20 21
f 19 1 20
f 19 2 1
f 19 11 2
f 20 4 23
f 20 1 4
f 5 4 1
f 5 1 2
f 24 20 23
f 24 21 20
f 19 15 11
f 19 17 15
