# Parametric PetalDock simulation geometry; SI units
v -0.0498156306091 -0.0042898656172 0.014
v -0.0498156306091 -0.0042898656172 0.0309650723208
v -0.0497592363336 -0.0049008570165 0.014
v -0.0497592363336 -0.0049008570165 0.0308602892834
v -0.0497397908273 -0.0042833346857 0.0313469695036
v -0.049683482407 -0.0048933959059 0.0312398277171
v -0.0495238174012 -0.0042647361662 0.0316707263021
v -0.0494677534757 -0.0048721484607 0.0315615848648
v -0.0492005903271 -0.0042369015149 0.0318870536788
v -0.049144892314 -0.0048403494118 0.0317765761175
v -0.048819317997 -0.0042040683049 0.0319630177515
v -0.0487640516069 -0.0048028398761 0.0318520710059
v -0.032878316202 -0.0028313113074 0.0319630177515
v -0.0328410959802 -0.0032345656309 0.0318520710059
v -0.0324970438719 -0.0027984780974 0.0318870536788
v -0.0324602552731 -0.0031970560952 0.0317765761175
v -0.0321738167978 -0.002770643446 0.0316707263021
v -0.0321373941114 -0.0031652570463 0.0315615848648
v -0.0319578433717 -0.0027520449265 0.0313469695036
v -0.0319216651801 -0.0031440096011 0.0312398277171
v -0.0318820035898 -0.002745513995 0.014
v -0.0318820035898 -0.002745513995 0.0309650723208
v -0.0318459112535 -0.0031365484905 0.014
v -0.0318459112535 -0.0031365484905 0.0308602892834
f 18 3 23
f 4 3 18
f 4 18 14
f 7 1 2
f 12 4 14
f 9 11 7
f 9 7 8
f 5 2 4
f 5 7 2
f 15 7 11
f 10 9 8
f 10 8 4
f 10 4 12
f 10 12 11
f 10 11 9
f 6 4 8
f 6 5 4
f 6 8 7
f 6 7 5
f 20 23 24
f 20 18 23
f 16 14 18
f 16 15 14
f 16 18 15
f 13 15 11
f 13 14 15
f 13 11 12
f 13 12 14
f 19 24 22
f 19 20 24
f 19 7 15
f 19 22 21
f 19 21 1
f 19 1 7
f 17 15 18
f 17 19 15
f 17 18 20
f 17 20 19
f 21 23 3
f 21 3 1
f 4 1 3
f 4 2 1
f 24 23 21
f 24 21 22
