# https://github.com/mikedh/trimesh
v -0.01905256 0.01100000 0.01400000
v -0.01905256 0.01100000 0.02170000
v -0.01900830 0.01097444 0.02208823
v -0.01887852 0.01089952 0.02245000
v -0.01867208 0.01078033 0.02276066
v -0.01840304 0.01062500 0.02299904
v -0.01808974 0.01044411 0.02314889
v -0.01775352 0.01025000 0.02320000
v -0.01555635 0.01555635 0.01400000
v -0.01555635 0.01555635 0.02170000
v -0.01552021 0.01552021 0.02208823
v -0.01541425 0.01541425 0.02245000
v -0.01524569 0.01524569 0.02276066
v -0.01502602 0.01502602 0.02299904
v -0.01477021 0.01477021 0.02314889
v -0.01449569 0.01449569 0.02320000
v -0.00519615 0.00300000 0.01400000
v -0.00519615 0.00300000 0.02320000
v -0.00424264 0.00424264 0.01400000
v -0.00424264 0.00424264 0.02320000
f 1 9 17
f 17 9 19
f 20 17 19
f 20 18 17
f 8 18 20
f 20 16 8
f 2 9 1
f 2 10 9
f 11 10 2
f 2 3 11
f 14 20 19
f 19 9 14
f 9 10 14
f 16 20 14
f 14 10 11
f 11 12 14
f 14 12 13
f 14 15 16
f 8 16 7
f 16 15 7
f 11 3 4
f 4 12 11
f 13 12 4
f 4 5 13
f 1 17 6
f 6 18 8
f 17 18 6
f 6 2 1
f 3 2 6
f 8 7 6
f 6 4 3
f 5 4 6
f 6 14 13
f 13 5 6
f 15 14 6
f 6 7 15

