# https://github.com/mikedh/trimesh
v -0.00672904 -0.04954513 0.01400000
v -0.00672904 -0.04954513 0.03100000
v -0.00671879 -0.04946970 0.03138268
v -0.00668962 -0.04925490 0.03170711
v -0.00664596 -0.04893343 0.03192388
v -0.00659445 -0.04855423 0.03200000
v -0.00612053 -0.04962398 0.01400000
v -0.00612053 -0.04962398 0.03100000
v -0.00611122 -0.04954843 0.03138268
v -0.00608468 -0.04933329 0.03170711
v -0.00604497 -0.04901130 0.03192388
v -0.00599812 -0.04863150 0.03200000
v -0.00444116 -0.03269979 0.03200000
v -0.00438966 -0.03232058 0.03192388
v -0.00434600 -0.03199911 0.03170711
v -0.00431683 -0.03178431 0.03138268
v -0.00430658 -0.03170888 0.01400000
v -0.00430658 -0.03170888 0.03100000
v -0.00403955 -0.03275182 0.03200000
v -0.00399271 -0.03237202 0.03192388
v -0.00395299 -0.03205004 0.03170711
v -0.00392646 -0.03183489 0.03138268
v -0.00391714 -0.03175935 0.01400000
v -0.00391714 -0.03175935 0.03100000
f 23 7 17
f 17 7 1
f 1 7 8
f 8 2 1
f 23 17 18
f 18 24 23
f 13 12 19
f 6 12 13
f 4 3 9
f 10 4 9
f 2 8 9
f 9 3 2
f 11 5 4
f 11 4 10
f 6 5 11
f 11 12 6
f 22 7 23
f 23 24 22
f 22 8 7
f 19 12 22
f 22 11 10
f 10 9 22
f 22 20 19
f 22 9 8
f 12 11 22
f 21 20 22
f 24 18 22
f 18 16 22
f 22 16 15
f 15 21 22
f 14 17 1
f 1 2 14
f 2 3 14
f 14 18 17
f 14 5 6
f 14 3 4
f 4 5 14
f 6 13 14
f 15 16 14
f 14 16 18
f 14 20 21
f 14 21 15
f 14 13 19
f 19 20 14

