# https://github.com/mikedh/trimesh
v 0.00928911 -0.03062209 0.01400000
v 0.00928911 -0.03062209 0.02822764
v 0.00931121 -0.03069493 0.02854792
v 0.00937413 -0.03090237 0.02881943
v 0.00946831 -0.03121283 0.02900085
v 0.00957939 -0.03157903 0.02906456
v 0.00966419 -0.03050579 0.01400000
v 0.00966419 -0.03050579 0.02763932
v 0.00968718 -0.03057836 0.02794635
v 0.00975265 -0.03078501 0.02820664
v 0.00985062 -0.03109428 0.02838056
v 0.00996620 -0.03145910 0.02844163
v 0.01422395 -0.04689008 0.02906456
v 0.01433504 -0.04725628 0.02900085
v 0.01442921 -0.04756674 0.02881943
v 0.01449214 -0.04777417 0.02854792
v 0.01451423 -0.04784702 0.01400000
v 0.01451423 -0.04784702 0.02822764
v 0.01479829 -0.04671200 0.02844163
v 0.01491386 -0.04707681 0.02838056
v 0.01501184 -0.04738609 0.02820664
v 0.01507731 -0.04759274 0.02794635
v 0.01510030 -0.04766530 0.01400000
v 0.01510030 -0.04766530 0.02763932
f 22 21 15
f 15 21 14
f 6 13 19
f 8 2 3
f 16 22 15
f 24 16 18
f 22 16 24
f 6 19 12
f 12 5 6
f 13 14 20
f 20 19 13
f 20 14 21
f 5 12 11
f 4 5 10
f 5 11 10
f 9 3 4
f 4 10 9
f 8 3 9
f 7 17 1
f 23 17 7
f 1 2 7
f 7 2 8
f 17 18 16
f 1 17 16
f 16 2 1
f 6 5 16
f 16 13 6
f 16 3 2
f 15 14 16
f 16 14 13
f 4 3 16
f 16 5 4
f 24 18 17
f 24 17 23
f 23 7 9
f 9 7 8
f 9 24 23
f 21 22 9
f 9 20 21
f 22 24 9
f 9 12 19
f 19 20 9
f 9 11 12
f 9 10 11

