# https://github.com/mikedh/trimesh
v 0.02784278 -0.01577274 0.01400000
v 0.02784278 -0.01577274 0.01575977
v 0.02790902 -0.01581026 0.01579938
v 0.02803424 -0.01542988 0.01400000
v 0.02803424 -0.01542988 0.01623751
v 0.02809763 -0.01591711 0.01583296
v 0.02810093 -0.01546658 0.01628788
v 0.02829084 -0.01557111 0.01633058
v 0.02837990 -0.01607702 0.01585540
v 0.02857506 -0.01572754 0.01635911
v 0.02871287 -0.01626564 0.01586328
v 0.02891031 -0.01591206 0.01636913
v 0.04263426 -0.02415201 0.01586328
v 0.04292743 -0.02362700 0.01636913
v 0.04296723 -0.02434064 0.01585540
v 0.04324951 -0.02450054 0.01583296
v 0.04326269 -0.02381153 0.01635911
v 0.04343812 -0.02460739 0.01579938
v 0.04350435 -0.02464491 0.01400000
v 0.04350435 -0.02464491 0.01575977
v 0.04354691 -0.02396796 0.01633058
v 0.04373682 -0.02407248 0.01628788
v 0.04380350 -0.02410919 0.01400000
v 0.04380350 -0.02410919 0.01623751
f 21 16 18
f 17 16 21
f 13 14 12
f 12 11 13
f 21 18 22
f 24 22 20
f 20 22 18
f 15 17 14
f 14 13 15
f 16 17 15
f 5 2 7
f 10 11 12
f 8 6 10
f 8 7 3
f 3 6 8
f 3 7 2
f 11 10 9
f 9 10 6
f 23 19 4
f 4 19 1
f 2 4 1
f 2 5 4
f 20 19 23
f 23 24 20
f 23 4 10
f 10 24 23
f 10 17 21
f 5 7 10
f 4 5 10
f 12 14 10
f 14 17 10
f 21 22 10
f 10 22 24
f 10 7 8
f 1 19 9
f 9 2 1
f 9 13 11
f 16 15 9
f 9 18 16
f 19 20 9
f 9 20 18
f 9 15 13
f 9 3 2
f 6 3 9

