# https://github.com/mikedh/trimesh
v -0.04915527 0.00915199 0.01400000
v -0.04915527 0.00915199 0.03093611
v -0.04908044 0.00913806 0.03131735
v -0.04903926 0.00975452 0.01400000
v -0.04903926 0.00975452 0.03085448
v -0.04896461 0.00973967 0.03123389
v -0.04886733 0.00909838 0.03164056
v -0.04875200 0.00969738 0.03155553
v -0.04854839 0.00903900 0.03185651
v -0.04843381 0.00963408 0.03177045
v -0.04817217 0.00896895 0.03193235
v -0.04805848 0.00955943 0.03184592
v -0.03244248 0.00604032 0.03193235
v -0.03236591 0.00643798 0.03184592
v -0.03206626 0.00597027 0.03185651
v -0.03199058 0.00636332 0.03177045
v -0.03174732 0.00591089 0.03164056
v -0.03167239 0.00630003 0.03155553
v -0.03153421 0.00587121 0.03131735
v -0.03145979 0.00625774 0.03123389
v -0.03145938 0.00585728 0.01400000
v -0.03145938 0.00585728 0.03093611
v -0.03138513 0.00624289 0.01400000
v -0.03138513 0.00624289 0.03085448
f 13 12 11
f 11 12 10
f 20 18 17
f 12 13 14
f 11 10 9
f 9 10 8
f 8 7 9
f 3 5 2
f 19 20 17
f 24 19 22
f 20 19 24
f 15 14 13
f 17 18 15
f 5 3 6
f 6 3 7
f 6 7 8
f 16 15 18
f 14 15 16
f 21 4 23
f 1 4 21
f 5 4 1
f 1 2 5
f 24 21 23
f 24 22 21
f 1 21 15
f 15 2 1
f 15 13 11
f 21 22 15
f 15 3 2
f 15 19 17
f 11 9 15
f 15 9 7
f 7 3 15
f 22 19 15
f 23 4 16
f 16 10 12
f 4 5 16
f 12 14 16
f 8 10 16
f 16 24 23
f 18 20 16
f 16 6 8
f 20 24 16
f 5 6 16

