# https://github.com/mikedh/trimesh
v 0.01332575 -0.02909338 0.01400000
v 0.01332575 -0.02909338 0.02014499
v 0.01335744 -0.02916258 0.02028332
v 0.01344772 -0.02935966 0.02040059
v 0.01358281 -0.02965462 0.02047895
v 0.01368176 -0.02892766 0.01400000
v 0.01368176 -0.02892766 0.01939648
v 0.01371431 -0.02899647 0.01951796
v 0.01374218 -0.03000254 0.02050646
v 0.01380699 -0.02919243 0.01962094
v 0.01394570 -0.02948570 0.01968976
v 0.01410932 -0.02983165 0.01971392
v 0.02040505 -0.04454923 0.02050646
v 0.02056441 -0.04489715 0.02047895
v 0.02069951 -0.04519211 0.02040059
v 0.02078978 -0.04538919 0.02028332
v 0.02082148 -0.04545840 0.01400000
v 0.02082148 -0.04545840 0.02014499
v 0.02095020 -0.04429548 0.01971392
v 0.02111382 -0.04464142 0.01968976
v 0.02125253 -0.04493469 0.01962094
v 0.02134521 -0.04513065 0.01951796
v 0.02137775 -0.04519946 0.01400000
v 0.02137775 -0.04519946 0.01939648
f 22 21 15
f 15 21 14
f 9 13 19
f 7 2 3
f 16 22 15
f 24 16 18
f 22 16 24
f 9 19 12
f 12 5 9
f 13 14 20
f 20 19 13
f 20 14 21
f 4 5 10
f 5 12 11
f 11 10 5
f 8 3 4
f 4 10 8
f 7 3 8
f 6 17 1
f 23 17 6
f 1 2 6
f 6 2 7
f 17 18 16
f 1 17 16
f 16 2 1
f 9 5 16
f 16 13 9
f 16 3 2
f 15 14 16
f 16 14 13
f 4 3 16
f 16 5 4
f 24 18 17
f 24 17 23
f 23 6 8
f 8 6 7
f 8 24 23
f 21 22 8
f 8 20 21
f 22 24 8
f 8 12 19
f 19 20 8
f 8 11 12
f 10 11 8

