# https://github.com/mikedh/trimesh
v -0.00612053 0.04962398 0.01400000
v -0.00612053 0.04962398 0.03100000
v -0.00611122 0.04954843 0.03138268
v -0.00608468 0.04933329 0.03170711
v -0.00604497 0.04901130 0.03192388
v -0.00599812 0.04863150 0.03200000
v -0.00551111 0.04969535 0.01400000
v -0.00551111 0.04969535 0.03100000
v -0.00550272 0.04961969 0.03138268
v -0.00547883 0.04940424 0.03170711
v -0.00544307 0.04908179 0.03192388
v -0.00540089 0.04870144 0.03200000
v -0.00403955 0.03275182 0.03200000
v -0.00399271 0.03237202 0.03192388
v -0.00395299 0.03205004 0.03170711
v -0.00392646 0.03183489 0.03138268
v -0.00391714 0.03175935 0.01400000
v -0.00391714 0.03175935 0.03100000
v -0.00363733 0.03279893 0.03200000
v -0.00359515 0.03241858 0.03192388
v -0.00355939 0.03209613 0.03170711
v -0.00353550 0.03188068 0.03138268
v -0.00352711 0.03180502 0.01400000
v -0.00352711 0.03180502 0.03100000
f 17 7 23
f 1 7 17
f 8 7 1
f 1 2 8
f 24 17 23
f 24 18 17
f 6 13 19
f 19 12 6
f 1 17 5
f 5 2 1
f 17 18 5
f 15 14 5
f 5 13 6
f 5 3 2
f 5 16 15
f 4 3 5
f 18 16 5
f 5 14 13
f 12 11 5
f 6 12 5
f 5 11 10
f 10 4 5
f 9 3 4
f 9 4 10
f 9 8 2
f 2 3 9
f 15 16 22
f 22 21 15
f 22 16 18
f 18 24 22
f 23 7 20
f 7 8 20
f 20 11 12
f 12 19 20
f 20 24 23
f 10 11 20
f 20 9 10
f 21 22 20
f 8 9 20
f 20 22 24
f 20 14 15
f 15 21 20
f 13 14 20
f 20 19 13

