# https://github.com/mikedh/trimesh
v 0.03152888 -0.00547078 0.01400000
v 0.03152888 -0.00547078 0.03098031
v 0.03159365 -0.00508346 0.01400000
v 0.03159365 -0.00508346 0.03099744
v 0.03160388 -0.00548379 0.03136255
v 0.03166880 -0.00509555 0.03138007
v 0.03181747 -0.00552085 0.03168660
v 0.03188282 -0.00512999 0.03170444
v 0.03213711 -0.00557632 0.03190312
v 0.03220312 -0.00518153 0.03192118
v 0.03251416 -0.00564174 0.03197915
v 0.03258095 -0.00524232 0.03199729
v 0.04827860 -0.00837713 0.03197915
v 0.04837777 -0.00778405 0.03199729
v 0.04865565 -0.00844256 0.03190312
v 0.04875559 -0.00784484 0.03192118
v 0.04897530 -0.00849802 0.03168660
v 0.04907590 -0.00789638 0.03170444
v 0.04918888 -0.00853508 0.03136255
v 0.04926388 -0.00854809 0.01400000
v 0.04926388 -0.00854809 0.03098031
v 0.04928992 -0.00793081 0.03138007
v 0.04936507 -0.00794291 0.01400000
v 0.04936507 -0.00794291 0.03099744
f 18 17 19
f 16 17 18
f 13 14 12
f 12 11 13
f 18 19 22
f 24 22 21
f 21 22 19
f 15 16 14
f 14 13 15
f 17 16 15
f 4 2 6
f 10 11 12
f 8 7 10
f 8 6 5
f 5 7 8
f 5 6 2
f 11 10 9
f 9 10 7
f 23 20 3
f 3 20 1
f 2 3 1
f 2 4 3
f 21 20 23
f 23 24 21
f 23 3 10
f 10 24 23
f 10 16 18
f 4 6 10
f 3 4 10
f 12 14 10
f 14 16 10
f 18 22 10
f 10 22 24
f 10 6 8
f 1 20 9
f 9 2 1
f 9 13 11
f 17 15 9
f 9 19 17
f 20 21 9
f 9 21 19
f 9 15 13
f 9 5 2
f 7 5 9

