# https://github.com/mikedh/trimesh
v 0.03113408 0.00739386 0.01400000
v 0.03113408 0.00739386 0.03031133
v 0.03120814 0.00741145 0.03067851
v 0.03122247 0.00701124 0.01400000
v 0.03122247 0.00701124 0.03054760
v 0.03129674 0.00702792 0.03092010
v 0.03141905 0.00746153 0.03098979
v 0.03150824 0.00707541 0.03123589
v 0.03173469 0.00753650 0.03119778
v 0.03182479 0.00714649 0.03144689
v 0.03210702 0.00762492 0.03127082
v 0.03219817 0.00723034 0.03152099
v 0.04767406 0.01132185 0.03127082
v 0.04780940 0.01073596 0.03152099
v 0.04804639 0.01141027 0.03119778
v 0.04818279 0.01081981 0.03144689
v 0.04836203 0.01148523 0.03098979
v 0.04849933 0.01089089 0.03123589
v 0.04857294 0.01153532 0.03067851
v 0.04864700 0.01155291 0.01400000
v 0.04864700 0.01155291 0.03031133
v 0.04871084 0.01093838 0.03092010
v 0.04878511 0.01095506 0.01400000
v 0.04878511 0.01095506 0.03054760
f 19 17 18
f 18 17 16
f 12 14 13
f 13 11 12
f 22 19 18
f 21 22 24
f 19 22 21
f 14 16 15
f 15 13 14
f 15 16 17
f 6 2 5
f 12 11 10
f 10 7 8
f 3 6 8
f 8 7 3
f 2 6 3
f 9 10 11
f 7 10 9
f 4 20 23
f 1 20 4
f 1 4 2
f 4 5 2
f 23 20 21
f 21 24 23
f 10 4 23
f 23 24 10
f 18 16 10
f 10 6 5
f 10 5 4
f 10 14 12
f 10 16 14
f 10 22 18
f 24 22 10
f 8 6 10
f 9 20 1
f 1 2 9
f 11 13 9
f 9 15 17
f 17 19 9
f 9 21 20
f 19 21 9
f 13 15 9
f 2 3 9
f 9 3 7

