# https://github.com/mikedh/trimesh
v -0.01684449 -0.04707720 0.01400000
v -0.01684449 -0.04707720 0.02560352
v -0.01681885 -0.04700553 0.02586472
v -0.01674582 -0.04680143 0.02608616
v -0.01663652 -0.04649597 0.02623412
v -0.01650760 -0.04613566 0.02628608
v -0.01626551 -0.04728037 0.01400000
v -0.01626551 -0.04728037 0.02632147
v -0.01624075 -0.04720839 0.02659884
v -0.01617023 -0.04700340 0.02683398
v -0.01606470 -0.04669663 0.02699109
v -0.01594020 -0.04633476 0.02704626
v -0.01111737 -0.03107095 0.02628608
v -0.01098844 -0.03071064 0.02623412
v -0.01087915 -0.03040518 0.02608616
v -0.01080612 -0.03020108 0.02586472
v -0.01078048 -0.03012941 0.01400000
v -0.01078048 -0.03012941 0.02560352
v -0.01073524 -0.03120504 0.02704626
v -0.01061075 -0.03084317 0.02699109
v -0.01050521 -0.03053640 0.02683398
v -0.01043469 -0.03033141 0.02659884
v -0.01040993 -0.03025943 0.01400000
v -0.01040993 -0.03025943 0.02632147
f 10 3 9
f 8 9 2
f 2 9 3
f 20 21 15
f 12 5 11
f 4 3 10
f 10 11 4
f 4 11 5
f 12 19 6
f 6 5 12
f 24 18 22
f 13 6 19
f 19 20 13
f 16 22 18
f 21 22 16
f 15 21 16
f 14 20 15
f 14 13 20
f 23 7 17
f 17 7 1
f 7 8 2
f 1 7 2
f 23 17 18
f 18 24 23
f 21 20 22
f 22 7 23
f 22 8 7
f 23 24 22
f 22 19 12
f 22 9 8
f 12 11 22
f 10 9 22
f 22 20 19
f 22 11 10
f 14 17 1
f 3 4 14
f 1 2 14
f 14 2 3
f 15 16 14
f 14 18 17
f 14 4 5
f 5 6 14
f 6 13 14
f 14 16 18

