# https://github.com/mikedh/trimesh
v -0.04926388 -0.00854809 0.01400000
v -0.04926388 -0.00854809 0.03098031
v -0.04918888 -0.00853508 0.03136255
v -0.04915527 -0.00915199 0.01400000
v -0.04915527 -0.00915199 0.03093611
v -0.04908044 -0.00913806 0.03131735
v -0.04897530 -0.00849802 0.03168660
v -0.04886733 -0.00909838 0.03164056
v -0.04865565 -0.00844256 0.03190312
v -0.04854839 -0.00903900 0.03185651
v -0.04827860 -0.00837713 0.03197915
v -0.04817217 -0.00896895 0.03193235
v -0.03251416 -0.00564174 0.03197915
v -0.03244248 -0.00604032 0.03193235
v -0.03213711 -0.00557632 0.03190312
v -0.03206626 -0.00597027 0.03185651
v -0.03181747 -0.00552085 0.03168660
v -0.03174732 -0.00591089 0.03164056
v -0.03160388 -0.00548379 0.03136255
v -0.03153421 -0.00587121 0.03131735
v -0.03152888 -0.00547078 0.01400000
v -0.03152888 -0.00547078 0.03098031
v -0.03145938 -0.00585728 0.01400000
v -0.03145938 -0.00585728 0.03093611
f 11 12 13
f 10 12 11
f 17 18 20
f 14 13 12
f 9 10 11
f 8 10 9
f 9 7 8
f 2 5 3
f 17 20 19
f 22 19 24
f 24 19 20
f 13 14 15
f 15 18 17
f 6 3 5
f 7 3 6
f 8 7 6
f 18 15 16
f 16 15 14
f 23 4 21
f 21 4 1
f 1 4 5
f 5 2 1
f 23 21 24
f 21 22 24
f 15 21 1
f 1 2 15
f 11 13 15
f 15 22 21
f 2 3 15
f 17 19 15
f 15 9 11
f 7 9 15
f 15 3 7
f 15 19 22
f 16 4 23
f 12 10 16
f 16 5 4
f 16 14 12
f 16 10 8
f 23 24 16
f 16 20 18
f 8 6 16
f 16 24 20
f 16 6 5

