# https://github.com/mikedh/trimesh
v -0.00184036 -0.04996612 0.01400000
v -0.00184036 -0.04996612 0.03100000
v -0.00183756 -0.04989005 0.03138268
v -0.00182958 -0.04967342 0.03170711
v -0.00181764 -0.04934922 0.03192388
v -0.00180355 -0.04896680 0.03200000
v -0.00122706 -0.04998494 0.01400000
v -0.00122706 -0.04998494 0.03100000
v -0.00122519 -0.04990884 0.03138268
v -0.00121987 -0.04969214 0.03170711
v -0.00121464 -0.03297764 0.03200000
v -0.00121191 -0.04936781 0.03192388
v -0.00120252 -0.04898524 0.03200000
v -0.00120055 -0.03259521 0.03192388
v -0.00118861 -0.03227101 0.03170711
v -0.00118063 -0.03205439 0.03138268
v -0.00117783 -0.03197832 0.01400000
v -0.00117783 -0.03197832 0.03100000
v -0.00080986 -0.03299006 0.03200000
v -0.00080047 -0.03260749 0.03192388
v -0.00079251 -0.03228317 0.03170711
v -0.00078719 -0.03206646 0.03138268
v -0.00078532 -0.03199036 0.01400000
v -0.00078532 -0.03199036 0.03100000
f 23 7 17
f 17 7 1
f 1 7 8
f 8 2 1
f 5 12 13
f 5 13 6
f 2 8 3
f 8 9 3
f 10 5 4
f 12 5 10
f 4 3 10
f 10 3 9
f 23 17 24
f 17 18 24
f 13 19 11
f 6 13 11
f 20 7 23
f 12 10 20
f 20 8 7
f 20 9 8
f 13 12 20
f 20 19 13
f 20 22 21
f 20 10 9
f 23 24 20
f 24 22 20
f 16 24 18
f 16 22 24
f 21 22 16
f 16 15 21
f 14 17 1
f 1 2 14
f 2 3 14
f 14 5 6
f 14 18 17
f 4 5 14
f 14 3 4
f 6 11 14
f 14 16 18
f 15 16 14
f 14 11 19
f 19 20 14
f 14 20 21
f 21 15 14

