# https://github.com/mikedh/trimesh
v 0.00039269 -0.03199759 0.01400000
v 0.00039269 -0.03199759 0.03100000
v 0.00039362 -0.03207371 0.03138268
v 0.00039628 -0.03229046 0.03170711
v 0.00040026 -0.03261486 0.03192388
v 0.00040496 -0.03299752 0.03200000
v 0.00060131 -0.04899631 0.03200000
v 0.00060600 -0.04937897 0.03192388
v 0.00060998 -0.04970336 0.03170711
v 0.00061264 -0.04992012 0.03138268
v 0.00061358 -0.04999624 0.01400000
v 0.00061358 -0.04999624 0.03100000
v 0.00078532 -0.03199036 0.01400000
v 0.00078532 -0.03199036 0.03100000
v 0.00078719 -0.03206646 0.03138268
v 0.00079251 -0.03228317 0.03170711
v 0.00080047 -0.03260749 0.03192388
v 0.00080986 -0.03299006 0.03200000
v 0.00120252 -0.04898524 0.03200000
v 0.00121191 -0.04936781 0.03192388
v 0.00121987 -0.04969214 0.03170711
v 0.00122519 -0.04990884 0.03138268
v 0.00122706 -0.04998494 0.01400000
v 0.00122706 -0.04998494 0.03100000
f 13 11 1
f 23 11 13
f 1 2 13
f 13 2 14
f 24 12 11
f 24 11 23
f 11 12 5
f 1 11 5
f 5 2 1
f 5 3 2
f 5 7 6
f 5 10 9
f 9 8 5
f 12 10 5
f 5 8 7
f 4 3 5
f 9 10 22
f 22 21 9
f 22 10 12
f 12 24 22
f 6 7 18
f 7 19 18
f 20 8 9
f 9 21 20
f 7 8 20
f 20 19 7
f 17 5 6
f 6 18 17
f 4 5 16
f 5 17 16
f 23 13 15
f 15 13 14
f 15 24 23
f 21 22 15
f 15 20 21
f 15 22 24
f 15 18 19
f 19 20 15
f 15 17 18
f 15 16 17
f 14 2 15
f 2 3 15
f 15 3 4
f 4 16 15

