# https://github.com/mikedh/trimesh
v 0.02660703 0.01777825 0.01400000
v 0.02660703 0.01777825 0.01414552
v 0.02667032 0.01782054 0.01414880
v 0.02682319 0.01745040 0.01400000
v 0.02682319 0.01745040 0.01427289
v 0.02685056 0.01794097 0.01415157
v 0.02688700 0.01749191 0.01427903
v 0.02706870 0.01761012 0.01428424
v 0.02712031 0.01812121 0.01415343
v 0.02734064 0.01778704 0.01428772
v 0.02743850 0.01833382 0.01415408
v 0.02766142 0.01799572 0.01428894
v 0.04074201 0.02722294 0.01415408
v 0.04106020 0.02743555 0.01415343
v 0.04107301 0.02672092 0.01428894
v 0.04132995 0.02761579 0.01415157
v 0.04139379 0.02692961 0.01428772
v 0.04151019 0.02773622 0.01414880
v 0.04157348 0.02777851 0.01400000
v 0.04157348 0.02777851 0.01414552
v 0.04166572 0.02710653 0.01428424
v 0.04184743 0.02722474 0.01427903
v 0.04191124 0.02726625 0.01400000
v 0.04191124 0.02726625 0.01427289
f 12 15 14
f 12 14 13
f 20 22 24
f 7 2 5
f 10 13 11
f 12 13 10
f 10 6 8
f 18 17 21
f 21 22 18
f 22 20 18
f 3 7 8
f 8 6 3
f 2 7 3
f 9 10 11
f 6 10 9
f 17 18 16
f 15 17 16
f 16 14 15
f 4 19 23
f 1 19 4
f 1 4 2
f 4 5 2
f 23 19 20
f 20 24 23
f 10 4 23
f 23 24 10
f 10 22 21
f 10 15 12
f 10 5 4
f 10 7 5
f 24 22 10
f 21 17 10
f 10 17 15
f 8 7 10
f 16 19 1
f 1 2 16
f 16 20 19
f 11 13 16
f 16 13 14
f 2 3 16
f 16 9 11
f 16 18 20
f 16 3 6
f 6 9 16

