# https://github.com/mikedh/trimesh
v -0.02777851 0.04157348 0.01400000
v -0.02777851 0.04157348 0.01414552
v -0.02773622 0.04151019 0.01414880
v -0.02761579 0.04132995 0.01415157
v -0.02743555 0.04106020 0.01415343
v -0.02726625 0.04191124 0.01400000
v -0.02726625 0.04191124 0.01427289
v -0.02722474 0.04184743 0.01427903
v -0.02722294 0.04074201 0.01415408
v -0.02710653 0.04166572 0.01428424
v -0.02692961 0.04139379 0.01428772
v -0.02672092 0.04107301 0.01428894
v -0.01833382 0.02743850 0.01415408
v -0.01812121 0.02712031 0.01415343
v -0.01799572 0.02766142 0.01428894
v -0.01794097 0.02685056 0.01415157
v -0.01782054 0.02667032 0.01414880
v -0.01778704 0.02734064 0.01428772
v -0.01777825 0.02660703 0.01400000
v -0.01777825 0.02660703 0.01414552
v -0.01761012 0.02706870 0.01428424
v -0.01749191 0.02688700 0.01427903
v -0.01745040 0.02682319 0.01400000
v -0.01745040 0.02682319 0.01427289
f 11 4 12
f 7 2 8
f 16 21 18
f 10 8 3
f 3 8 2
f 3 11 10
f 4 11 3
f 22 20 24
f 16 18 14
f 14 18 13
f 13 18 9
f 20 22 17
f 17 22 21
f 17 21 16
f 15 9 18
f 5 15 12
f 9 15 5
f 12 4 5
f 19 6 23
f 1 6 19
f 2 7 6
f 2 6 1
f 20 19 23
f 23 24 20
f 6 7 15
f 23 6 15
f 15 24 23
f 7 8 15
f 15 11 12
f 21 22 15
f 10 11 15
f 15 8 10
f 15 18 21
f 15 22 24
f 1 19 5
f 4 3 5
f 5 2 1
f 5 17 16
f 16 14 5
f 19 20 5
f 5 3 2
f 5 14 13
f 13 9 5
f 20 17 5

