# https://github.com/mikedh/trimesh
v 0.02875758 -0.01403572 0.01400000
v 0.02875758 -0.01403572 0.01867853
v 0.02882599 -0.01406911 0.01878385
v 0.02892766 -0.01368176 0.01400000
v 0.02892766 -0.01368176 0.01939648
v 0.02899647 -0.01371431 0.01951796
v 0.02902080 -0.01416419 0.01887313
v 0.02919243 -0.01380699 0.01962094
v 0.02931235 -0.01430648 0.01893279
v 0.02948570 -0.01394570 0.01968976
v 0.02965626 -0.01447434 0.01895374
v 0.02983165 -0.01410932 0.01971392
v 0.04403505 -0.02149220 0.01895374
v 0.04429548 -0.02095020 0.01971392
v 0.04437896 -0.02166005 0.01893279
v 0.04464142 -0.02111382 0.01968976
v 0.04467051 -0.02180234 0.01887313
v 0.04486532 -0.02189742 0.01878385
v 0.04493372 -0.02193081 0.01400000
v 0.04493372 -0.02193081 0.01867853
v 0.04493469 -0.02125253 0.01962094
v 0.04513065 -0.02134521 0.01951796
v 0.04519946 -0.02137775 0.01400000
v 0.04519946 -0.02137775 0.01939648
f 12 13 14
f 22 20 24
f 21 16 17
f 11 13 12
f 15 17 16
f 15 16 14
f 15 14 13
f 18 22 21
f 21 17 18
f 20 22 18
f 5 2 6
f 10 11 12
f 10 8 7
f 3 6 2
f 8 6 3
f 7 8 3
f 9 10 7
f 11 10 9
f 23 19 4
f 4 19 1
f 20 19 23
f 23 24 20
f 2 4 1
f 2 5 4
f 23 4 10
f 10 24 23
f 21 22 10
f 10 16 21
f 4 5 10
f 12 14 10
f 14 16 10
f 10 22 24
f 5 6 10
f 10 6 8
f 1 19 9
f 19 20 9
f 13 11 9
f 9 2 1
f 9 15 13
f 20 18 9
f 7 3 9
f 17 15 9
f 9 18 17
f 9 3 2

