# https://github.com/mikedh/trimesh
v -0.04256776 0.02622948 0.01400000
v -0.04256776 0.02622948 0.01468867
v -0.04250295 0.02618955 0.01470418
v -0.04231840 0.02607584 0.01471732
v -0.04224268 0.02674988 0.01400000
v -0.04224268 0.02674988 0.01445240
v -0.04217837 0.02670916 0.01446259
v -0.04204220 0.02590565 0.01472610
v -0.04199523 0.02659318 0.01447122
v -0.04172114 0.02641962 0.01447699
v -0.04171640 0.02570489 0.01472918
v -0.04139782 0.02621488 0.01447901
v -0.02809472 0.01731146 0.01472918
v -0.02788017 0.01765492 0.01447901
v -0.02776892 0.01711071 0.01472610
v -0.02755686 0.01745019 0.01447699
v -0.02749272 0.01694052 0.01471732
v -0.02730817 0.01682680 0.01470418
v -0.02728277 0.01727662 0.01447122
v -0.02724337 0.01678687 0.01400000
v -0.02724337 0.01678687 0.01468867
v -0.02709962 0.01716065 0.01446259
v -0.02703531 0.01711992 0.01400000
v -0.02703531 0.01711992 0.01445240
f 13 12 11
f 7 4 9
f 22 19 17
f 12 13 14
f 3 4 7
f 7 6 3
f 3 6 2
f 11 12 10
f 8 9 4
f 8 10 9
f 11 10 8
f 18 22 17
f 24 18 21
f 22 18 24
f 15 14 13
f 17 19 15
f 16 15 19
f 14 15 16
f 20 5 23
f 1 5 20
f 6 5 1
f 1 2 6
f 24 20 23
f 24 21 20
f 1 20 15
f 15 2 1
f 15 13 11
f 20 21 15
f 11 8 15
f 15 18 17
f 15 3 2
f 4 3 15
f 15 8 4
f 21 18 15
f 23 5 16
f 12 14 16
f 5 6 16
f 16 10 12
f 7 9 16
f 16 6 7
f 19 22 16
f 16 24 23
f 9 10 16
f 22 24 16

