# https://github.com/mikedh/trimesh
v -0.04878511 -0.01095506 0.01400000
v -0.04878511 -0.01095506 0.03054760
v -0.04871084 -0.01093838 0.03092010
v -0.04864700 -0.01155291 0.01400000
v -0.04864700 -0.01155291 0.03031133
v -0.04857294 -0.01153532 0.03067851
v -0.04849933 -0.01089089 0.03123589
v -0.04836203 -0.01148523 0.03098979
v -0.04818279 -0.01081981 0.03144689
v -0.04804639 -0.01141027 0.03119778
v -0.04780940 -0.01073596 0.03152099
v -0.04767406 -0.01132185 0.03127082
v -0.03219817 -0.00723034 0.03152099
v -0.03210702 -0.00762492 0.03127082
v -0.03182479 -0.00714649 0.03144689
v -0.03173469 -0.00753650 0.03119778
v -0.03150824 -0.00707541 0.03123589
v -0.03141905 -0.00746153 0.03098979
v -0.03129674 -0.00702792 0.03092010
v -0.03122247 -0.00701124 0.01400000
v -0.03122247 -0.00701124 0.03054760
v -0.03120814 -0.00741145 0.03067851
v -0.03113408 -0.00739386 0.01400000
v -0.03113408 -0.00739386 0.03031133
f 9 7 8
f 2 5 3
f 13 12 14
f 11 12 13
f 10 9 8
f 11 9 10
f 10 12 11
f 6 3 5
f 7 3 6
f 8 7 6
f 24 21 19
f 24 19 22
f 22 19 17
f 17 18 22
f 15 16 18
f 15 18 17
f 14 16 15
f 15 13 14
f 23 4 20
f 20 4 1
f 1 4 5
f 5 2 1
f 23 20 21
f 21 24 23
f 22 4 23
f 23 24 22
f 22 5 4
f 14 12 22
f 22 10 8
f 8 6 22
f 22 16 14
f 12 10 22
f 22 6 5
f 18 16 22
f 15 20 1
f 1 2 15
f 15 21 20
f 15 9 11
f 2 3 15
f 7 9 15
f 15 3 7
f 11 13 15
f 17 19 15
f 15 19 21

