# https://github.com/mikedh/trimesh
v -0.01510030 0.04766530 0.01400000
v -0.01510030 0.04766530 0.02763932
v -0.01507731 0.04759274 0.02794635
v -0.01501184 0.04738609 0.02820664
v -0.01491386 0.04707681 0.02838056
v -0.01479829 0.04671200 0.02844163
v -0.01451423 0.04784702 0.01400000
v -0.01451423 0.04784702 0.02822764
v -0.01449214 0.04777417 0.02854792
v -0.01442921 0.04756674 0.02881943
v -0.01433504 0.04725628 0.02900085
v -0.01422395 0.04689008 0.02906456
v -0.00996620 0.03145910 0.02844163
v -0.00985062 0.03109428 0.02838056
v -0.00975265 0.03078501 0.02820664
v -0.00968718 0.03057836 0.02794635
v -0.00966419 0.03050579 0.01400000
v -0.00966419 0.03050579 0.02763932
v -0.00957939 0.03157903 0.02906456
v -0.00946831 0.03121283 0.02900085
v -0.00937413 0.03090237 0.02881943
v -0.00931121 0.03069493 0.02854792
v -0.00928911 0.03062209 0.01400000
v -0.00928911 0.03062209 0.02822764
f 9 3 10
f 2 9 8
f 3 9 2
f 15 21 20
f 11 5 12
f 10 3 4
f 4 11 10
f 5 11 4
f 6 19 12
f 12 5 6
f 22 18 24
f 19 6 13
f 13 20 19
f 18 22 16
f 16 22 21
f 16 21 15
f 15 20 14
f 20 13 14
f 17 7 23
f 1 7 17
f 2 8 7
f 2 7 1
f 18 17 23
f 23 24 18
f 22 20 21
f 23 7 22
f 7 8 22
f 22 24 23
f 12 19 22
f 8 9 22
f 22 11 12
f 22 9 10
f 19 20 22
f 10 11 22
f 1 17 14
f 14 4 3
f 14 2 1
f 3 2 14
f 14 16 15
f 17 18 14
f 5 4 14
f 14 6 5
f 14 13 6
f 18 16 14

