# https://github.com/mikedh/trimesh
v 0.01260775 0.02941164 0.01400000
v 0.01260775 0.02941164 0.02170445
v 0.01263774 0.02948161 0.02187789
v 0.01272314 0.02968085 0.02202492
v 0.01285096 0.02997903 0.02212316
v 0.01296772 0.02925471 0.01400000
v 0.01296772 0.02925471 0.02091684
v 0.01299857 0.02932430 0.02107255
v 0.01300174 0.03033076 0.02215766
v 0.01308641 0.02952248 0.02120455
v 0.01321788 0.02981907 0.02129274
v 0.01337296 0.03016892 0.02132372
v 0.01930561 0.04503658 0.02215766
v 0.01945638 0.04538831 0.02212316
v 0.01958420 0.04568649 0.02202492
v 0.01966961 0.04588573 0.02187789
v 0.01969960 0.04595569 0.01400000
v 0.01969960 0.04595569 0.02170445
v 0.01985682 0.04479628 0.02132372
v 0.02001190 0.04514613 0.02129274
v 0.02014337 0.04544272 0.02120455
v 0.02023122 0.04564090 0.02107255
v 0.02026207 0.04571049 0.01400000
v 0.02026207 0.04571049 0.02091684
f 15 21 22
f 14 21 15
f 19 13 9
f 3 2 7
f 15 22 16
f 18 16 24
f 24 16 22
f 12 19 9
f 9 5 12
f 20 14 13
f 13 19 20
f 21 14 20
f 10 5 4
f 11 12 5
f 5 10 11
f 4 3 8
f 8 10 4
f 8 3 7
f 1 17 6
f 6 17 23
f 6 2 1
f 7 2 6
f 16 18 17
f 16 17 1
f 1 2 16
f 16 5 9
f 9 13 16
f 2 3 16
f 16 14 15
f 13 14 16
f 16 3 4
f 4 5 16
f 17 18 24
f 23 17 24
f 8 6 23
f 7 6 8
f 23 24 8
f 8 22 21
f 21 20 8
f 8 24 22
f 19 12 8
f 8 20 19
f 12 11 8
f 8 11 10

