# https://github.com/mikedh/trimesh
v 0.02941164 0.01260775 0.01400000
v 0.02941164 0.01260775 0.02170445
v 0.02948161 0.01263774 0.02187789
v 0.02956415 0.01224587 0.01400000
v 0.02956415 0.01224587 0.02250000
v 0.02963447 0.01227500 0.02269134
v 0.02968085 0.01272314 0.02202492
v 0.02983474 0.01235796 0.02285355
v 0.02997903 0.01285096 0.02212316
v 0.03013447 0.01248211 0.02296194
v 0.03033076 0.01300174 0.02215766
v 0.03048802 0.01262855 0.02300000
v 0.04503658 0.01930561 0.02215766
v 0.04527010 0.01875149 0.02300000
v 0.04538831 0.01945638 0.02212316
v 0.04562365 0.01889793 0.02296194
v 0.04568649 0.01958420 0.02202492
v 0.04588573 0.01966961 0.02187789
v 0.04592338 0.01902209 0.02285355
v 0.04595569 0.01969960 0.01400000
v 0.04595569 0.01969960 0.02170445
v 0.04612365 0.01910504 0.02269134
v 0.04619398 0.01913417 0.01400000
v 0.04619398 0.01913417 0.02250000
f 14 13 12
f 24 21 22
f 17 16 19
f 12 13 11
f 16 17 15
f 14 16 15
f 13 14 15
f 19 22 18
f 18 17 19
f 18 22 21
f 6 2 5
f 12 11 10
f 7 8 10
f 2 6 3
f 3 6 8
f 3 8 7
f 7 10 9
f 9 10 11
f 4 20 23
f 1 20 4
f 23 20 21
f 21 24 23
f 1 4 2
f 4 5 2
f 10 4 23
f 23 24 10
f 10 22 19
f 19 16 10
f 10 5 4
f 10 14 12
f 10 16 14
f 24 22 10
f 10 6 5
f 8 6 10
f 9 20 1
f 9 21 20
f 9 11 13
f 1 2 9
f 13 15 9
f 9 18 21
f 9 3 7
f 9 15 17
f 17 18 9
f 2 3 9

