# https://github.com/mikedh/trimesh
v 0.00000000 0.03200000 0.01400000
v 0.00000000 0.03200000 0.03100000
v 0.00000000 0.03207612 0.03138268
v 0.00000000 0.03229289 0.03170711
v 0.00000000 0.03261732 0.03192388
v 0.00000000 0.03300000 0.03200000
v 0.00000000 0.04900000 0.03200000
v 0.00000000 0.04938268 0.03192388
v 0.00000000 0.04970711 0.03170711
v 0.00000000 0.04992388 0.03138268
v 0.00000000 0.05000000 0.01400000
v 0.00000000 0.05000000 0.03100000
v 0.00039269 0.03199759 0.01400000
v 0.00039269 0.03199759 0.03100000
v 0.00039362 0.03207371 0.03138268
v 0.00039628 0.03229046 0.03170711
v 0.00040026 0.03261486 0.03192388
v 0.00040496 0.03299752 0.03200000
v 0.00060131 0.04899631 0.03200000
v 0.00060600 0.04937897 0.03192388
v 0.00060998 0.04970336 0.03170711
v 0.00061264 0.04992012 0.03138268
v 0.00061358 0.04999624 0.01400000
v 0.00061358 0.04999624 0.03100000
f 1 11 13
f 13 11 23
f 13 2 1
f 14 2 13
f 21 22 10
f 9 21 10
f 11 12 24
f 23 11 24
f 12 10 24
f 24 10 22
f 8 12 11
f 8 11 1
f 1 2 8
f 8 5 6
f 6 7 8
f 9 10 8
f 2 3 8
f 8 3 4
f 4 5 8
f 8 10 12
f 8 20 21
f 8 21 9
f 19 8 7
f 20 8 19
f 18 7 6
f 18 19 7
f 6 5 17
f 17 18 6
f 16 5 4
f 16 17 5
f 15 13 23
f 14 13 15
f 23 24 15
f 15 22 21
f 21 20 15
f 15 24 22
f 20 19 15
f 19 18 15
f 18 17 15
f 17 16 15
f 15 2 14
f 15 3 2
f 4 3 15
f 15 16 4

