# https://github.com/mikedh/trimesh
v -0.02726625 0.04191124 0.01400000
v -0.02726625 0.04191124 0.01427289
v -0.02722474 0.04184743 0.01427903
v -0.02710653 0.04166572 0.01428424
v -0.02692961 0.04139379 0.01428772
v -0.02674988 0.04224268 0.01400000
v -0.02674988 0.04224268 0.01445240
v -0.02672092 0.04107301 0.01428894
v -0.02670916 0.04217837 0.01446259
v -0.02659318 0.04199523 0.01447122
v -0.02641962 0.04172114 0.01447699
v -0.02621488 0.04139782 0.01447901
v -0.01799572 0.02766142 0.01428894
v -0.01778704 0.02734064 0.01428772
v -0.01765492 0.02788017 0.01447901
v -0.01761012 0.02706870 0.01428424
v -0.01749191 0.02688700 0.01427903
v -0.01745040 0.02682319 0.01400000
v -0.01745040 0.02682319 0.01427289
v -0.01745019 0.02755686 0.01447699
v -0.01727662 0.02728277 0.01447122
v -0.01716065 0.02709962 0.01446259
v -0.01711992 0.02703531 0.01400000
v -0.01711992 0.02703531 0.01445240
f 11 10 4
f 7 2 9
f 16 21 20
f 10 9 3
f 3 9 2
f 4 10 3
f 22 19 24
f 16 20 14
f 14 20 13
f 13 20 8
f 19 22 17
f 17 22 21
f 17 21 16
f 15 8 20
f 5 15 12
f 8 15 5
f 12 11 5
f 5 11 4
f 18 6 23
f 1 6 18
f 2 7 6
f 2 6 1
f 19 18 23
f 23 24 19
f 6 7 15
f 23 6 15
f 15 24 23
f 7 9 15
f 15 11 12
f 21 22 15
f 10 11 15
f 15 9 10
f 15 20 21
f 15 22 24
f 1 18 5
f 4 3 5
f 5 2 1
f 5 17 16
f 16 14 5
f 18 19 5
f 5 3 2
f 5 14 13
f 13 8 5
f 19 17 5

