# https://github.com/mikedh/trimesh
v -0.00733652 -0.04945883 0.01400000
v -0.00733652 -0.04945883 0.03100000
v -0.00732535 -0.04938353 0.03138268
v -0.00729355 -0.04916910 0.03170711
v -0.00724594 -0.04884819 0.03192388
v -0.00718979 -0.04846965 0.03200000
v -0.00672904 -0.04954513 0.01400000
v -0.00672904 -0.04954513 0.03100000
v -0.00671879 -0.04946970 0.03138268
v -0.00668962 -0.04925490 0.03170711
v -0.00664596 -0.04893343 0.03192388
v -0.00659445 -0.04855423 0.03200000
v -0.00484211 -0.03264282 0.03200000
v -0.00478595 -0.03226428 0.03192388
v -0.00473835 -0.03194337 0.03170711
v -0.00470654 -0.03172894 0.03138268
v -0.00469538 -0.03165365 0.01400000
v -0.00469538 -0.03165365 0.03100000
v -0.00444116 -0.03269979 0.03200000
v -0.00438966 -0.03232058 0.03192388
v -0.00434600 -0.03199911 0.03170711
v -0.00431683 -0.03178431 0.03138268
v -0.00430658 -0.03170888 0.01400000
v -0.00430658 -0.03170888 0.03100000
f 23 7 17
f 17 7 1
f 1 7 8
f 8 2 1
f 6 5 11
f 11 12 6
f 11 5 4
f 4 10 11
f 2 8 9
f 9 3 2
f 4 3 9
f 9 10 4
f 19 13 6
f 6 12 19
f 16 17 1
f 1 2 16
f 16 18 17
f 16 5 6
f 2 3 16
f 4 5 16
f 16 3 4
f 16 14 15
f 6 13 16
f 13 14 16
f 21 22 16
f 15 21 16
f 23 17 24
f 17 18 24
f 18 16 24
f 24 16 22
f 20 7 23
f 20 9 8
f 20 8 7
f 12 11 20
f 20 19 12
f 20 11 10
f 10 9 20
f 20 22 21
f 23 24 20
f 20 24 22
f 15 14 20
f 20 21 15
f 20 14 13
f 13 19 20

