# https://github.com/mikedh/trimesh
v -0.00569402 0.02125037 0.01400000
v -0.00569402 0.02125037 0.02170000
v -0.00568079 0.02120100 0.02208823
v -0.00564201 0.02105625 0.02245000
v -0.00558031 0.02082600 0.02276066
v -0.00549990 0.02052592 0.02299904
v -0.00540627 0.02017648 0.02314889
v -0.00530579 0.01980148 0.02320000
v -0.00155291 0.00579555 0.01400000
v -0.00155291 0.00579555 0.02320000
v 0.00000000 0.00600000 0.01400000
v 0.00000000 0.00600000 0.02320000
v 0.00000000 0.02050000 0.02320000
v 0.00000000 0.02088823 0.02314889
v 0.00000000 0.02125000 0.02299904
v 0.00000000 0.02156066 0.02276066
v 0.00000000 0.02179904 0.02245000
v 0.00000000 0.02194889 0.02208823
v 0.00000000 0.02200000 0.01400000
v 0.00000000 0.02200000 0.02170000
f 11 9 1
f 1 19 11
f 9 11 10
f 10 11 12
f 12 13 10
f 10 13 8
f 20 19 1
f 1 2 20
f 20 2 3
f 3 18 20
f 9 10 6
f 1 9 6
f 6 2 1
f 6 10 8
f 3 2 6
f 8 7 6
f 6 4 3
f 5 4 6
f 8 13 14
f 14 7 8
f 17 18 3
f 3 4 17
f 17 4 5
f 5 16 17
f 15 11 19
f 12 11 15
f 15 13 12
f 19 20 15
f 15 20 18
f 15 14 13
f 18 17 15
f 15 17 16
f 5 6 15
f 15 16 5
f 15 6 7
f 7 14 15

