# https://github.com/mikedh/trimesh
v 0.02744732 -0.01645129 0.01400000
v 0.02744732 -0.01645129 0.01498464
v 0.02751261 -0.01649042 0.01500681
v 0.02764713 -0.01611323 0.01400000
v 0.02764713 -0.01611323 0.01534169
v 0.02769854 -0.01660187 0.01502560
v 0.02771290 -0.01615156 0.01537189
v 0.02790018 -0.01626071 0.01539749
v 0.02797681 -0.01676865 0.01503815
v 0.02818048 -0.01642407 0.01541460
v 0.02830504 -0.01696539 0.01504256
v 0.02851110 -0.01661677 0.01542061
v 0.04202870 -0.02519103 0.01504256
v 0.04233467 -0.02467338 0.01542061
v 0.04235694 -0.02538777 0.01503815
v 0.04263521 -0.02555456 0.01502560
v 0.04266530 -0.02486608 0.01541460
v 0.04282114 -0.02566600 0.01500681
v 0.04288643 -0.02570514 0.01400000
v 0.04288643 -0.02570514 0.01498464
v 0.04294559 -0.02502944 0.01539749
v 0.04313288 -0.02513859 0.01537189
v 0.04319864 -0.02517692 0.01400000
v 0.04319864 -0.02517692 0.01534169
f 12 13 14
f 22 20 24
f 11 13 12
f 21 17 16
f 5 2 7
f 10 11 12
f 10 8 6
f 15 16 17
f 15 17 14
f 15 14 13
f 18 22 21
f 21 16 18
f 20 22 18
f 3 7 2
f 8 7 3
f 6 8 3
f 9 10 6
f 11 10 9
f 23 19 4
f 4 19 1
f 20 19 23
f 23 24 20
f 2 4 1
f 2 5 4
f 23 4 10
f 10 24 23
f 21 22 10
f 10 17 21
f 4 5 10
f 12 14 10
f 14 17 10
f 10 22 24
f 5 7 10
f 10 7 8
f 1 19 9
f 19 20 9
f 13 11 9
f 9 2 1
f 20 18 9
f 6 3 9
f 9 15 13
f 16 15 9
f 9 18 16
f 9 3 2

