# https://github.com/mikedh/trimesh
v -0.04802153 0.01392598 0.01400000
v -0.04802153 0.01392598 0.02876249
v -0.04794842 0.01390478 0.02909481
v -0.04784702 0.01451423 0.01400000
v -0.04784702 0.01451423 0.02822764
v -0.04777417 0.01449214 0.02854792
v -0.04774022 0.01384441 0.02937653
v -0.04756674 0.01442921 0.02881943
v -0.04742864 0.01375405 0.02956477
v -0.04725628 0.01433504 0.02900085
v -0.04706110 0.01364746 0.02963087
v -0.04689008 0.01422395 0.02906456
v -0.03169421 0.00919115 0.02963087
v -0.03157903 0.00957939 0.02906456
v -0.03132667 0.00908456 0.02956477
v -0.03121283 0.00946831 0.02900085
v -0.03101508 0.00899421 0.02937653
v -0.03090237 0.00937413 0.02881943
v -0.03080689 0.00893383 0.02909481
v -0.03073378 0.00891263 0.01400000
v -0.03073378 0.00891263 0.02876249
v -0.03069493 0.00931121 0.02854792
v -0.03062209 0.00928911 0.01400000
v -0.03062209 0.00928911 0.02822764
f 13 12 11
f 11 12 10
f 22 18 17
f 12 13 14
f 11 10 9
f 9 10 8
f 8 7 9
f 3 5 2
f 19 22 17
f 24 19 21
f 22 19 24
f 15 14 13
f 17 18 15
f 5 3 6
f 6 3 7
f 6 7 8
f 16 15 18
f 14 15 16
f 20 4 23
f 1 4 20
f 5 4 1
f 1 2 5
f 24 20 23
f 24 21 20
f 1 20 15
f 15 2 1
f 15 13 11
f 20 21 15
f 15 3 2
f 15 19 17
f 11 9 15
f 15 9 7
f 7 3 15
f 21 19 15
f 23 4 16
f 16 10 12
f 4 5 16
f 12 14 16
f 8 10 16
f 16 24 23
f 18 22 16
f 16 6 8
f 22 24 16
f 5 6 16

