# https://github.com/mikedh/trimesh
v -0.01568409 -0.04747641 0.01400000
v -0.01568409 -0.04747641 0.02700212
v -0.01566021 -0.04740413 0.02729481
v -0.01559221 -0.04719830 0.02754294
v -0.01549045 -0.04689025 0.02770873
v -0.01537041 -0.04652688 0.02776695
v -0.01510030 -0.04766530 0.01400000
v -0.01510030 -0.04766530 0.02763932
v -0.01507731 -0.04759274 0.02794635
v -0.01501184 -0.04738609 0.02820664
v -0.01491386 -0.04707681 0.02838056
v -0.01479829 -0.04671200 0.02844163
v -0.01035150 -0.03133443 0.02776695
v -0.01023146 -0.03097106 0.02770873
v -0.01012969 -0.03066301 0.02754294
v -0.01006169 -0.03045718 0.02729481
v -0.01003782 -0.03038490 0.01400000
v -0.01003782 -0.03038490 0.02700212
v -0.00996620 -0.03145910 0.02844163
v -0.00985062 -0.03109428 0.02838056
v -0.00975265 -0.03078501 0.02820664
v -0.00968718 -0.03057836 0.02794635
v -0.00966419 -0.03050579 0.01400000
v -0.00966419 -0.03050579 0.02763932
f 10 3 9
f 8 9 2
f 2 9 3
f 20 21 15
f 12 5 11
f 4 3 10
f 10 11 4
f 4 11 5
f 12 19 6
f 6 5 12
f 24 18 22
f 13 6 19
f 19 20 13
f 16 22 18
f 21 22 16
f 15 21 16
f 14 20 15
f 14 13 20
f 23 7 17
f 17 7 1
f 7 8 2
f 1 7 2
f 23 17 18
f 18 24 23
f 21 20 22
f 22 7 23
f 22 8 7
f 23 24 22
f 22 19 12
f 22 9 8
f 12 11 22
f 10 9 22
f 22 20 19
f 22 11 10
f 14 17 1
f 3 4 14
f 1 2 14
f 14 2 3
f 15 16 14
f 14 18 17
f 14 4 5
f 5 6 14
f 6 13 14
f 14 16 18

