# https://github.com/mikedh/trimesh
v -0.02464491 -0.04350435 0.01400000
v -0.02464491 -0.04350435 0.01575977
v -0.02460739 -0.04343812 0.01579938
v -0.02450054 -0.04324951 0.01583296
v -0.02434064 -0.04296723 0.01585540
v -0.02415201 -0.04263426 0.01586328
v -0.02410919 -0.04380350 0.01400000
v -0.02410919 -0.04380350 0.01623751
v -0.02407248 -0.04373682 0.01628788
v -0.02396796 -0.04354691 0.01633058
v -0.02381153 -0.04326269 0.01635911
v -0.02362700 -0.04292743 0.01636913
v -0.01626564 -0.02871287 0.01586328
v -0.01607702 -0.02837990 0.01585540
v -0.01591711 -0.02809763 0.01583296
v -0.01591206 -0.02891031 0.01636913
v -0.01581026 -0.02790902 0.01579938
v -0.01577274 -0.02784278 0.01400000
v -0.01577274 -0.02784278 0.01575977
v -0.01572754 -0.02857506 0.01635911
v -0.01557111 -0.02829084 0.01633058
v -0.01546658 -0.02810093 0.01628788
v -0.01542988 -0.02803424 0.01400000
v -0.01542988 -0.02803424 0.01623751
f 10 3 9
f 8 9 2
f 2 9 3
f 12 5 11
f 4 3 10
f 10 11 4
f 4 11 5
f 24 19 22
f 12 16 6
f 6 5 12
f 20 21 15
f 17 22 19
f 21 22 17
f 15 21 17
f 13 6 16
f 16 20 13
f 14 20 15
f 14 13 20
f 23 7 18
f 18 7 1
f 7 8 2
f 1 7 2
f 23 18 19
f 19 24 23
f 20 9 8
f 20 7 23
f 20 8 7
f 23 24 20
f 12 11 20
f 20 16 12
f 10 9 20
f 20 11 10
f 20 22 21
f 24 22 20
f 14 18 1
f 3 4 14
f 1 2 14
f 14 2 3
f 15 17 14
f 14 19 18
f 14 4 5
f 5 6 14
f 14 17 19
f 6 13 14

