# https://github.com/mikedh/trimesh
v -0.04936507 -0.00794291 0.01400000
v -0.04936507 -0.00794291 0.03099744
v -0.04928992 -0.00793081 0.03138007
v -0.04926388 -0.00854809 0.01400000
v -0.04926388 -0.00854809 0.03098031
v -0.04918888 -0.00853508 0.03136255
v -0.04907590 -0.00789638 0.03170444
v -0.04897530 -0.00849802 0.03168660
v -0.04875559 -0.00784484 0.03192118
v -0.04865565 -0.00844256 0.03190312
v -0.04837777 -0.00778405 0.03199729
v -0.04827860 -0.00837713 0.03197915
v -0.03258095 -0.00524232 0.03199729
v -0.03251416 -0.00564174 0.03197915
v -0.03220312 -0.00518153 0.03192118
v -0.03213711 -0.00557632 0.03190312
v -0.03188282 -0.00512999 0.03170444
v -0.03181747 -0.00552085 0.03168660
v -0.03166880 -0.00509555 0.03138007
v -0.03160388 -0.00548379 0.03136255
v -0.03159365 -0.00508346 0.01400000
v -0.03159365 -0.00508346 0.03099744
v -0.03152888 -0.00547078 0.01400000
v -0.03152888 -0.00547078 0.03098031
f 11 12 13
f 10 12 11
f 17 18 20
f 14 13 12
f 9 10 11
f 8 10 9
f 9 7 8
f 2 5 3
f 17 20 19
f 22 19 24
f 24 19 20
f 13 14 15
f 15 18 17
f 6 3 5
f 7 3 6
f 8 7 6
f 18 15 16
f 16 15 14
f 23 4 21
f 21 4 1
f 1 4 5
f 5 2 1
f 23 21 24
f 21 22 24
f 15 21 1
f 1 2 15
f 11 13 15
f 15 22 21
f 2 3 15
f 17 19 15
f 15 9 11
f 7 9 15
f 15 3 7
f 15 19 22
f 16 4 23
f 12 10 16
f 16 5 4
f 16 14 12
f 16 10 8
f 23 24 16
f 16 20 18
f 8 6 16
f 16 24 20
f 16 6 5

