# https://github.com/mikedh/trimesh
v -0.04087924 -0.02879041 0.01400000
v -0.04087924 -0.02879041 0.01401969
v -0.04081701 -0.02874658 0.01402013
v -0.04063978 -0.02862176 0.01402051
v -0.04052286 -0.02928989 0.01400000
v -0.04052286 -0.02928989 0.01400256
v -0.04046117 -0.02924530 0.01400262
v -0.04037453 -0.02843495 0.01402076
v -0.04028548 -0.02911832 0.01400266
v -0.04006166 -0.02821460 0.01402085
v -0.04002255 -0.02892827 0.01400270
v -0.03971240 -0.02870410 0.01400271
v -0.02698030 -0.01900167 0.01402085
v -0.02674509 -0.01933133 0.01400271
v -0.02666742 -0.01878132 0.01402076
v -0.02643494 -0.01910715 0.01400270
v -0.02640218 -0.01859451 0.01402051
v -0.02622495 -0.01846969 0.01402013
v -0.02617201 -0.01891711 0.01400266
v -0.02616271 -0.01842586 0.01400000
v -0.02616271 -0.01842586 0.01401969
v -0.02599632 -0.01879012 0.01400262
v -0.02593463 -0.01874553 0.01400000
v -0.02593463 -0.01874553 0.01400256
f 2 6 3
f 6 4 3
f 8 4 6
f 7 13 10
f 10 8 7
f 7 8 6
f 18 24 21
f 17 24 18
f 17 19 22
f 22 24 17
f 12 14 15
f 14 16 15
f 15 16 19
f 15 19 17
f 12 15 11
f 9 11 15
f 9 15 13
f 13 7 9
f 23 5 20
f 20 5 1
f 1 5 6
f 6 2 1
f 23 20 24
f 20 21 24
f 15 20 1
f 1 2 15
f 15 21 20
f 2 3 15
f 15 8 10
f 10 13 15
f 17 18 15
f 15 3 4
f 4 8 15
f 15 18 21
f 9 5 23
f 9 6 5
f 23 24 9
f 9 14 12
f 9 22 19
f 19 16 9
f 9 7 6
f 9 16 14
f 24 22 9
f 12 11 9

