# https://github.com/mikedh/trimesh
v 0.00391714 -0.03175935 0.01400000
v 0.00391714 -0.03175935 0.03100000
v 0.00392646 -0.03183489 0.03138268
v 0.00395299 -0.03205004 0.03170711
v 0.00399271 -0.03237202 0.03192388
v 0.00403955 -0.03275182 0.03200000
v 0.00430658 -0.03170888 0.01400000
v 0.00430658 -0.03170888 0.03100000
v 0.00431683 -0.03178431 0.03138268
v 0.00434600 -0.03199911 0.03170711
v 0.00438966 -0.03232058 0.03192388
v 0.00444116 -0.03269979 0.03200000
v 0.00599812 -0.04863150 0.03200000
v 0.00604497 -0.04901130 0.03192388
v 0.00608468 -0.04933329 0.03170711
v 0.00611122 -0.04954843 0.03138268
v 0.00612053 -0.04962398 0.01400000
v 0.00612053 -0.04962398 0.03100000
v 0.00659445 -0.04855423 0.03200000
v 0.00664596 -0.04893343 0.03192388
v 0.00668962 -0.04925490 0.03170711
v 0.00671879 -0.04946970 0.03138268
v 0.00672904 -0.04954513 0.01400000
v 0.00672904 -0.04954513 0.03100000
f 7 17 1
f 23 17 7
f 1 2 7
f 7 2 8
f 16 22 21
f 16 21 15
f 24 18 17
f 24 17 23
f 24 16 18
f 22 16 24
f 17 18 14
f 1 17 14
f 14 2 1
f 6 5 14
f 14 13 6
f 14 16 15
f 14 3 2
f 4 3 14
f 14 5 4
f 18 16 14
f 21 20 14
f 15 21 14
f 13 14 19
f 19 14 20
f 6 13 12
f 13 19 12
f 11 5 6
f 6 12 11
f 4 5 10
f 5 11 10
f 23 7 9
f 9 7 8
f 9 24 23
f 21 22 9
f 9 20 21
f 22 24 9
f 9 19 20
f 9 12 19
f 9 11 12
f 9 10 11
f 8 2 9
f 2 3 9
f 9 3 4
f 4 10 9

