# Convex collision proxy; SI metres, original target-root coordinates.
v -0.021485914904289149 -0.041033008557843753 0.016074063501419499
v -0.021485914904289149 -0.033148251487487117 0.019304209339364792
v -0.020387761151718548 -0.041033008557843753 0.016311720867054604
v -0.021485914904289149 -0.041033008557843753 0.027934522350940939
v -0.017479613223018386 -0.033148251487487117 0.020293410676169132
v -0.017479613223018386 -0.034092940197361012 0.019891509047269176
v -0.017479613223018386 -0.041033008557843753 0.016941325650909323
v -0.021485914904289149 -0.033148251487487117 0.027673224214101688
v -0.02089291210789862 -0.041033008557843753 0.027629674169693919
v -0.021485914904289149 -0.03592597672502907 0.028785608854835033
v -0.017479613223018386 -0.033148251487487117 0.026685267419833309
v -0.017479613223018386 -0.041033008557843753 0.025873997971621307
v -0.017479613223018386 -0.034011129201362574 0.027044863546861458
v -0.019104489576470915 -0.041033008557843753 0.026710152733573418
v -0.017479613223018386 -0.039193026102839465 0.026181334599058047
f 3 1 2
f 3 2 7
f 6 2 5
f 6 7 2
f 13 8 10
f 11 8 13
f 9 10 4
f 9 13 10
f 14 15 13
f 14 13 9
f 14 12 15
f 4 8 2
f 4 2 1
f 4 10 8
f 11 12 7
f 11 6 5
f 11 7 6
f 11 15 12
f 11 13 15
f 11 2 8
f 11 5 2
f 14 4 1
f 14 1 3
f 14 7 12
f 14 3 7
f 14 9 4
