# Convex collision proxy; SI metres, original target-root coordinates.
v -0.026472277897470399 0.031898947050435209 0.028614313919473541
v -0.030682020260719894 0.033055130454658403 0.030357023122622465
v -0.032577718962722421 0.033528401606913949 0.031153095466695466
v -0.032577718962722421 0.030622723218790254 0.03019684768980261
v -0.026472277897470399 0.030622723218790254 0.028164220987323466
v -0.026472277897470399 0.036489792652030534 0.027486678753163751
v -0.032476120934656884 0.036489792652030534 0.030376244106413413
v -0.032577718962722421 0.036489792652030534 0.030424296565890786
v -0.032577718962722421 0.030622723218790254 0.016801374471244829
v -0.026472277897470399 0.030622723218790254 0.018822788791205431
v -0.026472277897470399 0.036489792652030534 0.016634791901854171
v -0.032577718962722421 0.036489792652030534 0.014789571069101164
f 2 3 1
f 2 6 3
f 2 1 6
f 11 9 12
f 4 1 3
f 7 8 3
f 7 3 6
f 10 9 11
f 5 1 4
f 4 12 9
f 4 3 8
f 4 8 12
f 7 12 8
f 7 6 11
f 7 11 12
f 5 11 6
f 5 6 1
f 5 10 11
f 5 4 9
f 5 9 10
