# Convex collision proxy; SI metres, original target-root coordinates.
v 0.036159763024498026 -0.016811206512263466 0.019438389047755016
v 0.036159763024498026 -0.013762842267037926 0.02000383855591966
v 0.036159763024498026 -0.016811206512263466 0.026190972072451257
v 0.026423958100601108 -0.016811206512263466 0.023499851694940257
v 0.036159763024498026 -0.013762842267037926 0.024623769645441617
v 0.02815841041150172 -0.013762842267037926 0.023499851694940257
v 0.033884008823084136 -0.016811206512263466 0.026570032596100936
v 0.032429737237335048 -0.013762842267037926 0.025245065870063491
v 0.032283928879045916 -0.013762842267037926 0.025268800769811972
v 0.032690857976775331 -0.014490092100385637 0.025575260423642773
f 2 1 4
f 9 4 7
f 6 2 4
f 6 4 9
f 8 7 3
f 10 8 9
f 10 9 7
f 10 7 8
f 5 8 3
f 3 7 4
f 3 4 1
f 5 6 9
f 5 2 6
f 5 9 8
f 5 3 1
f 5 1 2
