# Convex collision proxy; SI metres, original target-root coordinates.
v 0.051325144124690622 -0.020807871277411426 0.025717490083273981
v 0.051325144124690622 -0.020807871277411426 0.019806495084197986
v 0.048640067040414493 -0.020807871277411426 0.026165944501046159
v 0.050664902812281601 -0.022411162988762542 0.02665245968715671
v 0.050664902812281601 -0.022411162988762542 0.01349999984463472
v 0.051272495120137832 -0.020807871277411426 0.01349999984463472
v 0.04629649549319341 -0.020807871277411426 0.02655648041385841
v 0.049095406052802021 -0.025619630475080275 0.028563769711952267
v 0.049298885775119039 -0.025249422729151448 0.028338714511731592
v 0.04900718408720782 -0.025619630475080275 0.01349999984463472
v 0.049095406052802021 -0.025619630475080275 0.026347973966371244
v 0.048093660907023814 -0.020807871277411426 0.01349999984463472
v 0.036791296378093447 -0.020807871277411426 0.028140137145515939
v 0.038040633080828702 -0.025619630475080275 0.030405577658572346
v 0.045646213928401624 -0.025619630475080275 0.01349999984463472
v 0.036791296378093447 -0.025619630475080275 0.017056194515857263
v 0.038128855046422896 -0.020807871277411426 0.017737978084295405
v 0.036791296378093447 -0.022861912058445767 0.029195908725875762
v 0.036791296378093447 -0.020807871277411426 0.01830723405262321
v 0.036791296378093447 -0.025619630475080275 0.029920717177366558
f 7 13 8
f 7 8 3
f 4 1 3
f 4 3 8
f 4 8 9
f 4 9 5
f 14 8 13
f 11 9 8
f 11 10 5
f 11 5 9
f 15 16 12
f 2 5 6
f 17 16 19
f 17 12 16
f 18 20 14
f 18 14 13
f 15 20 16
f 15 8 14
f 15 11 8
f 15 14 20
f 15 10 11
f 15 12 6
f 15 5 10
f 15 6 5
f 2 1 4
f 2 4 5
f 17 3 1
f 17 19 13
f 17 13 7
f 17 7 3
f 17 6 12
f 17 1 2
f 17 2 6
f 18 16 20
f 18 13 19
f 18 19 16
