# Convex collision proxy; SI metres, original target-root coordinates.
v -0.039509421650383333 -0.032836737209309796 0.029487740398480494
v -0.039509421650383333 -0.032723883778797862 0.029434525769992132
v -0.04367613132023674 -0.032836737209309796 0.02846571371988834
v -0.039509421650383333 -0.032836737209309796 0.013637731359111751
v -0.039509421650383333 -0.030346486922725263 0.028290420627764705
v -0.045618028264633501 -0.030061634423500131 0.026651735687287147
v -0.04382177261144711 -0.032649101551861605 0.028338939046122502
v -0.04367613132023674 -0.032836737209309796 0.027219875530814751
v -0.039509421650383333 -0.025891501995471911 0.026146200549940945
v -0.043651020694038881 -0.025891501995471911 0.025128870081479356
v -0.046000548337031426 -0.025891501995471911 0.024551339308415767
v -0.047263618456946876 -0.02737627041649433 0.02495514139891581
v -0.0395738720872559 -0.032836737209309796 0.01361268888034913
v -0.044556681367754258 -0.025891501995471911 0.013501565116927725
v -0.039509421650383333 -0.032762634753040004 0.013658077627743806
v -0.045618028264633501 -0.030061634423500131 0.013501565116927725
v -0.043572339369003572 -0.032836737209309796 0.013501565116927725
v -0.039509421650383333 -0.025891501995471911 0.015587874995014763
v -0.048059629907370713 -0.025891501995471911 0.024044239335588004
v -0.048059629907370713 -0.025891501995471911 0.018830811680632012
v -0.048011919887963384 -0.025891501995471911 0.013501565116927725
v -0.039602330456209624 -0.032836737209309796 0.013601733328292322
v -0.03986599458681591 -0.032836737209309796 0.013501565116927725
f 2 3 1
f 12 11 19
f 12 3 11
f 12 21 16
f 10 3 9
f 10 11 3
f 5 9 3
f 5 3 2
f 8 16 17
f 15 14 18
f 15 4 14
f 22 23 14
f 6 3 12
f 6 12 16
f 20 12 19
f 20 21 12
f 13 14 4
f 13 22 14
f 7 8 3
f 7 16 8
f 7 6 16
f 7 3 6
f 23 21 14
f 23 17 16
f 23 16 21
f 15 1 4
f 15 2 1
f 15 18 9
f 15 9 5
f 15 5 2
f 20 19 11
f 20 10 9
f 20 14 21
f 20 9 18
f 20 18 14
f 20 11 10
f 13 17 23
f 13 1 3
f 13 4 1
f 13 8 17
f 13 3 8
f 13 23 22
