# Convex collision proxy; SI metres, original target-root coordinates.
v 0.017442535122263257 0.036299457779918144 0.026193714087795621
v 0.014317462432707333 0.036877147842921079 0.024490201570815169
v 0.014317462432707333 0.036299457779918144 0.024585876735813667
v 0.017442535122263257 0.036299457779918144 0.019151038320870877
v 0.017442535122263257 0.043286364667750474 0.025029460739872857
v 0.014317462432707333 0.04427952834392828 0.023257609123551671
v 0.014317462432707333 0.042705364343107927 0.023519783378726445
v 0.014317462432707333 0.036299457779918144 0.019726331297858918
v 0.017442535122263257 0.049054991347366649 0.013500000039796243
v 0.014317462432707333 0.050053119564160947 0.013500000039796243
v 0.017442535122263257 0.050241821514477661 0.02387017789546712
v 0.014317462432707333 0.04922217404149707 0.022433809924217733
v 0.014317462432707333 0.05084765050510319 0.013500000039796243
v 0.017442535122263257 0.05227615191982235 0.013501242026793299
v 0.017442535122263257 0.052291048949043559 0.023528481120999038
v 0.014317462432707333 0.053209725775429491 0.021769054911627474
v 0.014317462432707333 0.053126960716009787 0.013501242026793299
v 0.01696064842662031 0.052458231643173973 0.013501242026793299
v 0.017442535122263257 0.052291048949043559 0.015355100988244837
v 0.01696064842662031 0.052458231643173973 0.023252639045956112
v 0.014317462432707333 0.053209725775429491 0.020524037057414349
f 10 9 4
f 3 1 2
f 7 2 1
f 7 1 6
f 11 15 16
f 8 10 4
f 20 16 15
f 12 11 16
f 5 6 1
f 5 12 6
f 5 11 12
f 21 18 17
f 13 17 18
f 13 9 10
f 13 14 9
f 13 18 14
f 19 14 18
f 8 4 1
f 8 1 3
f 21 16 20
f 21 20 18
f 13 12 16
f 13 3 2
f 13 10 8
f 13 2 7
f 13 7 6
f 13 8 3
f 13 16 21
f 13 6 12
f 13 21 17
f 19 4 9
f 19 1 4
f 19 9 14
f 19 15 11
f 19 5 1
f 19 11 5
f 19 18 20
f 19 20 15
