# Convex collision proxy; SI metres, original target-root coordinates.
v -0.021407543983419368 0.026577701509255071 0.021879321853328845
v -0.021409622480159748 0.026577701509255071 0.021933241061520593
v -0.021409622480159748 0.026579317668247154 0.021877990529315269
v -0.020036932974080723 0.026577701509255071 0.022264078752466297
v -0.021409622480159748 0.026577701509255071 0.025121797425511232
v -0.021409622480159748 0.032080578702884846 0.019755836625998197
v -0.018376225152475851 0.032080578702884846 0.020524684496065402
v -0.018376225152475851 0.026577701509255071 0.022730712983521646
v -0.018376225152475851 0.026577701509255071 0.024265746608030738
v -0.018376225152475851 0.029344225392453311 0.025345462521800768
v -0.021409622480159748 0.030359784862703031 0.026556315075432026
v -0.021409622480159748 0.032080578702884846 0.026132949141018737
v -0.018376225152475851 0.032080578702884846 0.024673136334840039
v -0.018376225152475851 0.029967568694500322 0.025192358343593201
v -0.021409622480159748 0.031072023085175864 0.026381243891279941
f 3 6 7
f 4 3 7
f 1 2 3
f 1 3 4
f 8 4 7
f 15 13 12
f 15 11 13
f 10 11 5
f 10 5 9
f 14 13 11
f 14 11 10
f 13 6 12
f 13 7 6
f 8 5 2
f 8 9 5
f 8 2 1
f 8 1 4
f 15 3 2
f 15 12 6
f 15 6 3
f 15 2 5
f 15 5 11
f 14 7 13
f 14 9 8
f 14 8 7
f 14 10 9
