# Convex collision proxy; SI metres, original target-root coordinates.
v -0.026472277897470399 0.025944092222180731 0.026538934711244265
v -0.03388049260877548 0.025944092222180731 0.02922559725529026
v -0.03388049260877548 0.021924894130958904 0.028139500079678314
v -0.026472277897470399 0.021924894130958904 0.025290314636668074
v -0.026472277897470399 0.025944092222180731 0.020460598649027613
v -0.03388049260877548 0.025944092222180731 0.017775056491390544
v -0.03388049260877548 0.021924894130958904 0.018839858445685795
v -0.026472277897470399 0.021924894130958904 0.021708097698312678
f 3 1 2
f 4 1 3
f 7 6 5
f 7 5 8
f 5 6 2
f 5 2 1
f 5 1 4
f 5 4 8
f 7 2 6
f 7 3 2
f 7 8 4
f 7 4 3
