# Convex collision proxy; SI metres, original target-root coordinates.
v 0.051615234125765387 -0.0091872829307321005 0.01350094709398046
v 0.051950217953296178 -0.00642713122474858 0.01350094709398046
v 0.05460633919246409 -0.0091872829307321005 0.01350094709398046
v 0.03077252514584794 -0.0091872829307321005 0.023168247660741648
v 0.054976960721099477 -0.00642713122474858 0.01350094709398046
v 0.036574177372593608 -0.0064284822476463714 0.020784076001387552
v 0.036576553162544385 -0.00642713122474858 0.020783129390924013
v 0.054950827883483863 -0.0073081855595529405 0.018175589393324868
v 0.054641976893568686 -0.0091872829307321005 0.015349413896837621
v 0.030786779885552604 -0.0091872829307321005 0.023166354865736045
v 0.030784404095601826 -0.0091824189075628872 0.023164461644808974
v 0.055043482839721242 -0.00642713122474858 0.017707084296505936
v 0.052988433902571172 -0.00642713122474858 0.01804970830333702
v 0.054641976893568686 -0.0091872829307321005 0.019192104217863035
v 0.038441539329553735 -0.0091872829307321005 0.021891452226859631
v 0.046968211129961329 -0.0091872829307321005 0.020470792659711391
f 2 1 4
f 6 7 2
f 6 2 4
f 6 4 7
f 8 5 12
f 3 5 8
f 16 14 8
f 16 8 15
f 13 8 12
f 13 15 8
f 9 8 14
f 9 3 8
f 11 13 7
f 11 15 13
f 11 10 15
f 11 4 10
f 11 7 4
f 3 2 5
f 3 1 2
f 13 2 7
f 13 12 5
f 13 5 2
f 9 1 3
f 9 4 1
f 9 10 4
f 9 14 16
f 9 15 10
f 9 16 15
