# Convex collision proxy; SI metres, original target-root coordinates.
v -0.026471782763769436 0.026577701509255071 0.020238732751478965
v -0.026471782763769436 0.028837792420995063 0.019447004806330527
v -0.021409622480159748 0.032080578702884846 0.019756636080584609
v -0.024823545283724647 0.026577701509255071 0.020772266466757949
v -0.026471782763769436 0.026577701509255071 0.026753090152544737
v -0.026471782763769436 0.032080578702884846 0.018311354224004917
v -0.021409622480159748 0.030049998553036347 0.020539286787509492
v -0.021409622480159748 0.032080578702884846 0.026132819234972463
v -0.021409622480159748 0.029411570177566713 0.020785378033080868
v -0.021409622480159748 0.027224211318567317 0.021629551604638777
v -0.021582573853189523 0.026577701509255071 0.021823197117320316
v -0.021409622480159748 0.026577701509255071 0.025122231439482223
v -0.021409622480159748 0.030359784862703031 0.026555410205283472
v -0.026471782763769436 0.031898478536825703 0.028614911487286402
v -0.026471782763769436 0.032080578702884846 0.028569525722090077
v -0.022986994508276386 0.032080578702884846 0.026892272768286766
v -0.021409622480159748 0.031072023085175864 0.026380927644593519
v -0.021409622480159748 0.026579317668247154 0.021878668489804305
v -0.021409622480159748 0.026577701509255071 0.021933131280263456
v -0.022484990694113877 0.030711055071041733 0.02698707841381804
f 2 3 1
f 2 6 3
f 16 15 14
f 16 14 8
f 13 14 5
f 13 5 12
f 4 1 3
f 17 8 14
f 7 4 3
f 7 9 4
f 10 4 9
f 20 13 17
f 20 14 13
f 20 17 14
f 11 10 18
f 11 4 10
f 11 18 19
f 5 2 1
f 5 15 6
f 5 6 2
f 5 14 15
f 16 6 15
f 16 8 3
f 16 3 6
f 10 8 17
f 10 3 8
f 10 12 19
f 10 7 3
f 10 19 18
f 10 13 12
f 10 17 13
f 10 9 7
f 11 5 1
f 11 19 12
f 11 12 5
f 11 1 4
