# Convex collision proxy; SI metres, original target-root coordinates.
v 0.035649515912250636 0.019697971773845566 0.019016066363585223
v 0.035649515912250636 0.019697971773845566 0.024329286949950242
v 0.035649515912250636 0.016232294798383784 0.019780887578535484
v 0.026264748684298237 0.019697971773845566 0.022771535406929798
v 0.030095453560333968 0.019697971773845566 0.025694198928565181
v 0.029998996829443975 0.019401475915036791 0.025575226711178154
v 0.035649515912250636 0.018300302814104746 0.023656636311689655
v 0.035649515912250636 0.016232294798383784 0.022661061174647452
v 0.026956480497789051 0.016232294798383784 0.02344091752385451
v 0.026822359957515439 0.016232294798383784 0.023499749949576921
v 0.026264748684298237 0.017104141559500081 0.023499749949576921
v 0.026264748684298237 0.019697971773845566 0.024224042181436707
v 0.028835087200144886 0.016232294798383784 0.024335823779661252
v 0.026264748684298237 0.019590093532903089 0.024193972338844582
f 3 4 1
f 9 4 3
f 9 10 4
f 13 5 12
f 13 12 10
f 11 4 10
f 14 10 12
f 14 11 10
f 6 2 5
f 6 7 2
f 6 5 13
f 6 13 7
f 8 7 13
f 12 2 1
f 12 1 4
f 12 5 2
f 14 12 4
f 14 4 11
f 8 10 9
f 8 9 3
f 8 13 10
f 8 1 2
f 8 3 1
f 8 2 7
