# Convex collision proxy; SI metres, original target-root coordinates.
v -0.026931410160833807 0.021924578523154679 0.02545770773460319
v -0.032272974285415541 0.021924578523154679 0.027501557467637452
v -0.032272974285415541 0.018700062568349995 0.02668543146331296
v -0.026931410160833807 0.018700062568349995 0.0245433951201726
v -0.026931410160833807 0.021924578523154679 0.021542030706853215
v -0.032272974285415541 0.021924578523154679 0.019476972214559282
v -0.032272974285415541 0.018700062568349995 0.020309593944192485
v -0.026931410160833807 0.018700062568349995 0.022450844781674355
f 3 1 2
f 4 1 3
f 7 6 5
f 7 5 8
f 5 6 2
f 5 2 1
f 5 1 4
f 5 4 8
f 7 2 6
f 7 3 2
f 7 8 4
f 7 4 3
