# Convex collision proxy; SI metres, original target-root coordinates.
v 0.023962448936302106 0.024743622744855698 0.024999477998220686
v 0.023962448936302106 0.024743622744855698 0.022000027863833694
v 0.023256329069742863 0.024743622744855698 0.024781288226996163
v 0.023962448936302106 0.020143445591452747 0.023499752984267371
v 0.023256329069742863 0.024743622744855698 0.022218217848018949
v 0.01911125879976068 0.024743622744855698 0.023499752984267371
f 2 1 4
f 3 6 4
f 3 4 1
f 5 4 6
f 5 2 4
f 5 1 2
f 5 6 3
f 5 3 1
