# Convex collision proxy; SI metres, original target-root coordinates.
v 0.029170265868136241 -0.016811504657291351 0.024590345777649434
v 0.029170265868136241 -0.021717430832410428 0.025889131536945335
v 0.029170265868136241 -0.016811504657291351 0.023648878169434173
v 0.026423684659018388 -0.016811504657291351 0.023500151543654018
v 0.022532857119555022 -0.021717430832410428 0.023500151543654018
v 0.029170265868136241 -0.021717430832410428 0.021111171763323434
v 0.029170265868136241 -0.016812464684281141 0.022409957309658599
v 0.02916896638173613 -0.016811504657291351 0.022410892633203221
v 0.02909814139147978 -0.016811504657291351 0.022438954362668885
v 0.029170265868136241 -0.020194653398800465 0.021514323470029913
f 2 1 5
f 6 2 5
f 4 5 1
f 7 5 4
f 3 7 8
f 10 6 5
f 10 5 7
f 9 8 7
f 9 7 4
f 10 2 6
f 10 1 2
f 10 3 1
f 10 7 3
f 9 1 3
f 9 4 1
f 9 3 8
