# Convex collision proxy; SI metres, original target-root coordinates.
v 0.0096166975361083387 0.030353948470687682 0.023161122152237538
v 0.0096166975361083387 0.051178937333002328 0.013500000039796243
v 0.0096166975361083387 0.049403364440826103 0.019987401990513333
v 0.0068703695479631934 0.054604271027133139 0.017710191572437837
v 0.0068703695479631934 0.036138799350815466 0.020785560504587925
v 0.0068703695479631934 0.036129304283557109 0.020786506050244121
v 0.0068703695479631934 0.036141173011149691 0.020780831924464019
v 0.0068703695479631934 0.051508888471181721 0.013500000039796243
v 0.0096166975361083387 0.051345099519298401 0.013500000039796243
v 0.0096166975361083387 0.054205479054125164 0.019186406413548691
v 0.0077467421505852223 0.054511694440805274 0.018175468608641762
v 0.0068703695479631934 0.054537806834089049 0.013500000039796243
v 0.0096166975361083387 0.054169873723190369 0.013500945585452437
v 0.0096166975361083387 0.054205479054125164 0.015363000127767264
f 3 4 1
f 8 2 1
f 10 4 3
f 5 1 4
f 5 6 1
f 7 8 1
f 7 1 6
f 9 12 13
f 11 12 4
f 11 13 12
f 11 4 10
f 14 11 10
f 14 13 11
f 7 5 4
f 7 4 12
f 7 12 8
f 7 6 5
f 9 8 12
f 9 2 8
f 14 3 1
f 14 1 2
f 14 10 3
f 14 2 9
f 14 9 13
