# Convex collision proxy; SI metres, original target-root coordinates.
v -0.017479613223018386 -0.051975679897549927 0.018873451956779405
v -0.021485914904289149 -0.050410757528008929 0.013500000281446163
v -0.017479613223018386 -0.051929620749761138 0.013500000281446163
v -0.017479613223018386 -0.051974608279130877 0.024051915718245644
v -0.019060171169730886 -0.051427260005132425 0.024954791291467295
v -0.021485914904289149 -0.050426824989551235 0.01541172239336424
v -0.021485914904289149 -0.047087038446743813 0.013500000281446163
v -0.017479613223018386 -0.048718370491920356 0.013500000281446163
v -0.017479613223018386 -0.041034079324419867 0.025874621946575169
v -0.021485914904289149 -0.041034079324419867 0.027934703793487253
v -0.021485914904289149 -0.043730115379503859 0.027485385605072937
v -0.021485914904289149 -0.046612527855209362 0.027004982602958836
v -0.021485914904289149 -0.050426824989551235 0.02636915468050284
v -0.021485914904289149 -0.041034079324419867 0.016074396572009205
v -0.020387761151718548 -0.041034079324419867 0.016311771977631027
v -0.017479613223018386 -0.041043718779133716 0.016936296370189053
v -0.017479613223018386 -0.041034079324419867 0.016941948348098774
v -0.018735038904386457 -0.041034079324419867 0.0166692487194234
v -0.017555307986704568 -0.041034079324419867 0.016924993266212551
f 5 2 1
f 3 1 2
f 6 2 5
f 6 5 13
f 4 13 5
f 4 12 13
f 4 5 1
f 4 9 10
f 11 4 10
f 11 12 4
f 7 14 8
f 19 17 16
f 19 16 18
f 15 18 16
f 15 16 8
f 15 8 14
f 16 17 9
f 16 1 3
f 16 4 1
f 16 9 4
f 16 3 8
f 7 11 10
f 7 2 6
f 7 13 12
f 7 10 14
f 7 6 13
f 7 12 11
f 7 8 3
f 7 3 2
f 15 9 17
f 15 14 10
f 15 10 9
f 15 17 19
f 15 19 18
