# Convex collision proxy; SI metres, original target-root coordinates.
v -0.017479092746981787 -0.041512414690756824 0.016726167161016731
v -0.017479092746981787 -0.033149069256709927 0.020293690932496531
v -0.016241312140281683 -0.041512414690756824 0.016930198878421489
v -0.017479092746981787 -0.041512414690756824 0.025794465016606302
v -0.012155335885107071 -0.033149069256709927 0.021348191141742103
v -0.012155335885107071 -0.041512414690756824 0.017603907404595255
v -0.017479092746981787 -0.033149069256709927 0.026685335993190014
v -0.01696209137773599 -0.041512414690756824 0.025528819925242061
v -0.017479092746981787 -0.039192947733288942 0.026181317136277766
v -0.012155335885107071 -0.033149069256709927 0.024451088255325212
v -0.012155335885107071 -0.041512414690756824 0.023057208707556603
v -0.017479092746981787 -0.034011193941426043 0.027044916361123765
v -0.015793105606904626 -0.033149069256709927 0.026321715334189824
v -0.013942429115626239 -0.041512414690756824 0.023976361082723163
v -0.012155335885107071 -0.040303966443867315 0.023259220172947775
v -0.017479092746981787 -0.036848099689489627 0.026572209547015668
f 6 2 5
f 3 1 2
f 3 2 6
f 15 14 11
f 15 12 16
f 13 15 10
f 13 12 15
f 13 7 12
f 8 14 15
f 9 4 8
f 9 15 16
f 9 8 15
f 15 11 6
f 15 6 5
f 15 5 10
f 13 2 7
f 13 10 5
f 13 5 2
f 8 4 1
f 8 1 3
f 8 6 11
f 8 3 6
f 8 11 14
f 9 7 2
f 9 2 1
f 9 12 7
f 9 1 4
f 9 16 12
