# Convex collision proxy; SI metres, original target-root coordinates.
v -0.021485975385137919 -0.033148251061565645 0.0193039461198962
v -0.021485975385137919 -0.02760475109109297 0.021457000873815846
v -0.018093832871526088 -0.033148251061565645 0.02016090757158967
v -0.021485975385137919 -0.033148251061565645 0.027673660783608653
v -0.018093832871526088 -0.02760475109109297 0.022402444423015321
v -0.021485975385137919 -0.02760475109109297 0.025542726048283768
v -0.018093832871526088 -0.033148251061565645 0.026828168758225808
v -0.018093832871526088 -0.02760475109109297 0.024591547572968244
f 2 3 1
f 5 3 2
f 6 4 7
f 6 7 8
f 7 4 1
f 7 1 3
f 7 3 5
f 7 5 8
f 6 1 4
f 6 2 1
f 6 8 5
f 6 5 2
