# Convex collision proxy; SI metres, original target-root coordinates.
v -0.037991268073798309 0.011626617867899543 0.019142663050727829
v -0.037991268073798309 0.0082858125759994287 0.01951369175574403
v -0.037991268073798309 0.011626617867899543 0.023074541705016181
v -0.034220656914961442 0.011626617867899543 0.020830459051470275
v -0.037991268073798309 0.0082858125759994287 0.021357063663425317
v -0.028438608859399979 0.011626617867899543 0.023418958517571021
v -0.031791320785803642 0.0082858125759994287 0.02238980224997144
v -0.037991268073798309 0.0090308309920439436 0.021740374346234499
v -0.036952707992693269 0.0082858125759994287 0.021530551271577252
v -0.030785126476686592 0.011626617867899543 0.024275138815176324
v -0.028266308720287424 0.011626617867899543 0.023499817151829326
v -0.029051654232309924 0.0095573789564443769 0.023499817151829326
v -0.030282505076402459 0.011626617867899543 0.024358556172624758
v -0.029752277789442234 0.011626617867899543 0.024165109671746895
v -0.030211109991134823 0.011626617867899543 0.024370326725220815
f 7 6 11
f 7 2 6
f 4 2 1
f 4 6 2
f 12 7 11
f 14 12 11
f 14 15 12
f 13 12 15
f 13 10 12
f 9 7 12
f 9 12 10
f 9 10 3
f 8 5 9
f 8 9 3
f 13 4 1
f 13 1 3
f 13 14 11
f 13 11 6
f 13 6 4
f 13 15 14
f 13 3 10
f 9 5 2
f 9 2 7
f 8 3 1
f 8 1 2
f 8 2 5
