# Convex collision proxy; SI metres, original target-root coordinates.
v 0.028675603230256523 -0.033458344549443693 0.017399600940425815
v 0.024534738279803774 -0.033458344549443693 0.018594889912506022
v 0.028675603230256523 -0.025619630475080275 0.020083819367021638
v 0.028675603230256523 -0.033458344549443693 0.028868848741343225
v 0.024534738279803774 -0.033458344549443693 0.026876700312569054
v 0.024534738279803774 -0.025619630475080275 0.02148638408650605
v 0.028675603230256523 -0.025619630475080275 0.026914700600058909
v 0.028675603230256523 -0.033358595445228519 0.028894182124362636
v 0.026080012459453551 -0.033458344549443693 0.027620589194001576
v 0.026897645809847624 -0.031774125842448535 0.028427812171864828
v 0.024534738279803774 -0.031063608333987216 0.027463980851518396
v 0.024534738279803774 -0.025619630475080275 0.02551098461484539
v 0.028675603230256523 -0.032262894579048428 0.029163640489507738
f 3 1 2
f 6 3 2
f 11 13 7
f 11 7 12
f 9 4 8
f 9 8 13
f 10 11 5
f 10 13 11
f 10 5 9
f 10 9 13
f 7 3 6
f 7 6 12
f 8 4 1
f 8 1 3
f 8 3 7
f 8 7 13
f 11 12 6
f 11 6 2
f 11 2 5
f 9 1 4
f 9 5 2
f 9 2 1
