# Convex collision proxy; SI metres, original target-root coordinates.
v 0.026264748790778603 0.024742875252681543 0.025789339562122902
v 0.026264748790778603 0.024742875252681543 0.021203184169326973
v 0.023962448936302106 0.024742875252681543 0.024999691278395162
v 0.026264748790778603 0.017104115152369141 0.023499853323295725
v 0.023962448936302106 0.024742875252681543 0.022000015299150424
v 0.023962448936302106 0.020143167890656424 0.023499853323295725
f 4 1 3
f 2 1 4
f 5 2 4
f 6 3 5
f 6 4 3
f 6 5 4
f 5 1 2
f 5 3 1
