# Convex collision proxy; SI metres, original target-root coordinates.
v 0.026264748684298237 0.03005109019700853 0.01936191842788296
v 0.022338199978363175 0.03005109019700853 0.020540055963778982
v 0.022338199978363175 0.037483256238028798 0.017589282690141476
v 0.026264748684298237 0.037483256238028798 0.016550947060964105
v 0.026264748684298237 0.03005109019700853 0.027637384695553244
v 0.022338199978363175 0.03005109019700853 0.026449746129498332
v 0.022338199978363175 0.037483256238028798 0.028512844122550549
v 0.026264748684298237 0.037483256238028798 0.03041713814856634
v 0.022338199978363175 0.035913305878279039 0.028773446301591538
v 0.025790841627334936 0.037483256238028798 0.030286837272006581
f 3 1 2
f 4 1 3
f 9 5 8
f 6 5 9
f 10 7 9
f 10 9 8
f 4 8 5
f 4 5 1
f 6 7 3
f 6 3 2
f 6 9 7
f 6 1 5
f 6 2 1
f 10 8 4
f 10 3 7
f 10 4 3
