# Convex collision proxy; SI metres, original target-root coordinates.
v 0.024534332376644381 -0.034990859399664391 0.026500246428306031
v 0.024534332376644381 -0.034990859399664391 0.018003511157187662
v 0.02214231354015634 -0.034990859399664391 0.025348599499486202
v 0.02214231354015634 -0.037871241921435865 0.024641068552361357
v 0.02214231354015634 -0.042537978266483693 0.023494511811010466
v 0.02214231354015634 -0.047079945176576217 0.022378496194473206
v 0.024534332376644381 -0.048968245858844725 0.023065666604683031
v 0.02214231354015634 -0.034990859399664391 0.018639779905668837
v 0.024534332376644381 -0.046002653488103631 0.013501272497982322
v 0.02214231354015634 -0.047194064871135463 0.01349999984463472
v 0.02214231354015634 -0.048213533461057029 0.022099810453675792
v 0.02214231354015634 -0.050535490345599371 0.02152844106302175
v 0.024534332376644381 -0.049426246028566857 0.02295241067886172
v 0.024534332376644381 -0.049407987627059162 0.013501272497982322
v 0.02214231354015634 -0.049161489836432981 0.01349999984463472
v 0.02214231354015634 -0.050535490345599371 0.021443180955318865
v 0.022181887607471959 -0.05051875333557683 0.021551346693671241
v 0.024534332376644381 -0.049426246028566857 0.014921425005622423
v 0.02214231354015634 -0.050438109364748546 0.013501272497982322
f 8 2 10
f 4 1 3
f 7 1 6
f 9 10 2
f 5 6 1
f 5 1 4
f 11 12 7
f 11 7 6
f 13 7 12
f 15 14 19
f 18 16 19
f 18 19 14
f 17 12 16
f 17 18 13
f 17 13 12
f 17 16 18
f 8 3 1
f 8 1 2
f 15 4 3
f 15 3 8
f 15 6 5
f 15 8 10
f 15 12 11
f 15 16 12
f 15 5 4
f 15 11 6
f 15 19 16
f 15 9 14
f 15 10 9
f 18 2 1
f 18 1 7
f 18 9 2
f 18 14 9
f 18 7 13
