# Convex collision proxy; SI metres, original target-root coordinates.
v -0.025858901749538279 -0.026528005003458192 0.026530632796779394
v -0.025858901749538279 -0.026528005003458192 0.02045993234153521
v -0.021486307177963217 -0.026528005003458192 0.025152008691270124
v -0.025858901749538279 -0.019688157668602355 0.024402084712412841
v -0.025858901749538279 -0.019688157668602355 0.022593234561352274
v -0.021486307177963217 -0.026528005003458192 0.02184747013157309
v -0.021486307177963217 -0.021870132916270907 0.023499442317886088
v -0.023515523134811197 -0.019688157668602355 0.023503007725646428
v -0.023506534914025299 -0.019688157668602355 0.023499442317886088
f 4 1 3
f 7 4 3
f 6 7 3
f 5 6 2
f 5 7 6
f 9 7 5
f 8 4 7
f 8 7 9
f 6 1 2
f 6 3 1
f 5 2 1
f 5 1 4
f 8 5 4
f 8 9 5
