# Convex collision proxy; SI metres, original target-root coordinates.
v 0.052443816286955235 -8.1754232723525947e-06 0.013495638382091607
v 0.052436120870016791 -0.00027858932403668506 0.013495638382091607
v 0.052272552195123299 -0.0013006782658926523 1.3195546791685414e-06
v 0.052272552195123299 0.0012862184228320456 1.3195546791685414e-06
v 0.052436120870016791 0.00026223848354518613 0.013495638382091607
v 0.052272552195123299 -0.0013006782658926523 0.013495638382091607
v 0.050979387431369032 -0.0035424662649009616 -1.4970606681402598e-09
v 0.050979387431369032 0.0035280064218403554 1.3195546791685414e-06
v 0.052272552195123299 0.0012871638852282542 0.013495638382091607
v 0.050979387431369032 -0.0035415206088021522 0.013495638382091607
v 0.048737523113535866 -0.0048368598779569179 1.3195546791685414e-06
v 0.046150235920367252 -0.0048368598779569179 1.3195546791685414e-06
v 0.043908371602534094 -0.0035424662649009616 1.3195546791685414e-06
v 0.042615209938021446 -0.0013006782658926523 1.3195546791685414e-06
v 0.042615209938021446 0.0012862184228320456 1.3195546791685414e-06
v 0.043908371602534094 0.0035280064218403554 1.3195546791685414e-06
v 0.046150235920367252 0.0048214547662027039 1.3195546791685414e-06
v 0.048737523113535866 0.0048214547662027039 1.3195546791685414e-06
v 0.048738486977679185 -0.004835914609263311 0.013495638382091607
v 0.048736562348634167 0.0048224000348963117 0.013495638382091607
v 0.050978426666467333 0.0035280064218403554 0.013495638382091607
v 0.046151199784510571 -0.004835914609263311 0.013495638382091607
v 0.043909335466677413 -0.0035424662649009616 0.013495638382091607
v 0.042615209938021446 -0.0013016237282888607 0.013495638382091607
v 0.042615209938021446 0.0012852728635845366 0.013495638382091607
v 0.043908371602534094 0.0035270607657415455 0.013495638382091607
v 0.046149275155465554 0.0048214547662027039 0.013495638382091607
f 13 14 7
f 13 7 12
f 13 12 23
f 13 23 24
f 13 24 14
f 10 19 7
f 11 12 7
f 11 7 19
f 22 23 12
f 15 7 14
f 15 16 7
f 17 18 7
f 17 7 16
f 17 20 18
f 3 4 1
f 3 7 4
f 8 7 18
f 8 4 7
f 8 20 21
f 8 18 20
f 9 8 21
f 9 4 8
f 25 26 16
f 25 16 15
f 27 20 17
f 27 16 26
f 27 17 16
f 6 10 7
f 6 7 3
f 5 1 4
f 5 4 9
f 2 3 1
f 2 6 3
f 22 12 11
f 22 11 19
f 25 14 24
f 25 15 14
f 2 26 25
f 2 24 23
f 2 23 22
f 2 20 27
f 2 21 20
f 2 1 5
f 2 19 10
f 2 22 19
f 2 9 21
f 2 25 24
f 2 27 26
f 2 10 6
f 2 5 9
