# Convex collision proxy; SI metres, original target-root coordinates.
v 0.03274165975991964 -0.033458344549443693 0.016081907675304367
v 0.028675603443217259 -0.033458344549443693 0.017400594189290141
v 0.03274165975991964 -0.025619630475080275 0.018607943979591243
v 0.03274165975991964 -0.033458344549443693 0.030826035406383161
v 0.028675603443217259 -0.033458344549443693 0.028869695047300949
v 0.028675603443217259 -0.025619630475080275 0.020084236344139209
v 0.03274165975991964 -0.025619630475080275 0.028389646626845233
v 0.03274165975991964 -0.033350155385410557 0.030853508192938386
v 0.031604548998414729 -0.033458344549443693 0.030279474663499454
v 0.028675603443217259 -0.033358595445228519 0.028894275827085689
v 0.028675603443217259 -0.025619630475080275 0.026914800265682517
v 0.031166341559050046 -0.025619630475080275 0.027818505104176789
v 0.028675603443217259 -0.032262894579048428 0.029163218401332545
f 3 1 2
f 6 3 2
f 9 4 8
f 9 8 5
f 13 12 11
f 13 8 7
f 13 7 12
f 10 5 8
f 10 8 13
f 7 4 1
f 7 1 3
f 7 8 4
f 12 7 3
f 12 3 6
f 12 6 11
f 9 1 4
f 9 5 2
f 9 2 1
f 10 11 6
f 10 6 2
f 10 2 5
f 10 13 11
