# Convex collision proxy; SI metres, original target-root coordinates.
v 0.047906453033072491 0.027759478522299135 0.025197653506761685
v 0.046494870922698675 0.030061771295831246 0.026651227427503546
v 0.045590009285008386 0.031365215512888414 0.027501338138406967
v 0.044100677766407359 0.031365215512888414 0.027868020317957792
v 0.042910283488462549 0.031365215512888414 0.028160708438853786
v 0.037755930118471774 0.027759478522299135 0.027692078548863571
v 0.047906453033072491 0.027759478522299135 0.023318201989176546
v 0.046494870922698675 0.030061771295831246 0.013500000039796243
v 0.045590009285008386 0.031365215512888414 0.020975053816989872
v 0.034211558189126592 0.031365215512888414 0.030298317133300008
v 0.034836246982300006 0.027759478522299135 0.028408999783819704
v 0.047816636417849202 0.027759478522299135 0.013500000039796243
v 0.04553370757816106 0.031365215512888414 0.013500000039796243
v 0.034211558189126592 0.027759478522299135 0.028561920923557322
v 0.034211558189126592 0.031365215512888414 0.016277247370898956
v 0.0467187386529965 0.027759478522299135 0.013500000039796243
v 0.041812385723609846 0.031365215512888414 0.013501644096657914
v 0.034211558189126592 0.027759478522299135 0.017444710462995179
v 0.044384869605884537 0.027759478522299135 0.013501644096657914
f 2 3 1
f 4 1 3
f 4 5 1
f 9 8 13
f 6 5 10
f 6 1 5
f 7 12 8
f 11 10 14
f 11 6 10
f 15 19 18
f 15 17 19
f 16 19 17
f 16 17 13
f 9 3 2
f 9 2 8
f 7 8 2
f 7 2 1
f 15 3 9
f 15 10 5
f 15 4 3
f 15 5 4
f 15 9 13
f 15 13 17
f 15 18 14
f 15 14 10
f 16 14 18
f 16 1 6
f 16 11 14
f 16 7 1
f 16 12 7
f 16 6 11
f 16 18 19
f 16 13 8
f 16 8 12
