# Convex collision proxy; SI metres, original target-root coordinates.
v 0.035649515912250636 0.022744365694533822 0.018297120723897605
v 0.035649515912250636 0.022744365694533822 0.025795385943264946
v 0.035649515912250636 0.019697972625688502 0.019016744856481763
v 0.026264748684298237 0.022744365694533822 0.021851372753507087
v 0.03109125283854805 0.022744365694533822 0.026915738713766405
v 0.035649515912250636 0.019697972625688502 0.024329141071847877
v 0.026264748684298237 0.019697972625688502 0.022771783080262717
v 0.026264748684298237 0.022744365694533822 0.025146627582642682
v 0.030095453560333968 0.019697972625688502 0.025694149521675039
v 0.026264748684298237 0.019697972625688502 0.024223686217570865
f 3 4 1
f 7 4 3
f 9 5 8
f 9 8 10
f 6 2 5
f 6 5 9
f 8 2 1
f 8 1 4
f 8 5 2
f 7 8 4
f 7 10 8
f 6 10 7
f 6 7 3
f 6 9 10
f 6 1 2
f 6 3 1
