# Convex collision proxy; SI metres, original target-root coordinates.
v 0.037136900557438977 -0.04090169361338606 0.022158966686422917
v 0.038996377004333005 -0.039221342273324036 0.032419342879632607
v 0.037136900557438977 -0.040900705475579349 0.031113548582574056
v 0.037136900557438977 -0.040857188227309216 0.013501957379703522
v 0.040176146249947385 -0.038024623056952922 0.01349999984463472
v 0.040176146249947385 -0.038025612046602562 0.03328269506636701
v 0.039016241129776599 -0.034869636186855041 0.033500001051391476
v 0.037136900557438977 -0.035091177534961354 0.032540721127856449
v 0.037136900557438977 -0.038995844966619161 0.01349999984463472
v 0.044262156561523193 -0.033233790232869868 0.01349999984463472
v 0.040469793547126286 -0.037716047212306335 0.033498043516322677
v 0.037136900557438977 -0.03443248742854027 0.032701254336671003
v 0.044003920375227698 -0.033572036618848659 0.033500001051391476
v 0.0409629475711649 -0.032586968854087427 0.033498043516322677
v 0.040234011940645228 -0.030797823967428598 0.032701254336671003
v 0.037136900557438977 -0.033454342591326534 0.032407596817376857
v 0.037136900557438977 -0.036764605947475881 0.013501957379703522
v 0.042292994688477512 -0.030797823967428598 0.013501957379703522
v 0.04589880750708366 -0.030797823967428598 0.01349999984463472
v 0.04525710059329386 -0.031879816551147994 0.032419342879632607
v 0.044262156561523193 -0.033233790232869868 0.03328269506636701
v 0.045959262800309431 -0.030797823967428598 0.031747847870185315
v 0.039161337240890187 -0.030797823967428598 0.032321457607763178
v 0.037136900557438977 -0.033171481329413589 0.032321457607763178
v 0.037136900557438977 -0.030797823967428598 0.015410727847743699
v 0.045959262800309431 -0.030797823967428598 0.027137431972747952
v 0.037136900557438977 -0.030797823967428598 0.031587314661370762
f 11 5 10
f 4 5 1
f 13 22 15
f 13 11 10
f 2 3 1
f 2 1 5
f 20 26 22
f 20 19 26
f 20 10 19
f 6 3 2
f 6 5 11
f 6 2 5
f 17 25 18
f 7 11 13
f 7 6 11
f 7 3 6
f 21 13 10
f 21 10 20
f 21 22 13
f 21 20 22
f 9 5 4
f 9 18 19
f 9 17 18
f 23 27 24
f 14 13 15
f 14 15 7
f 14 7 13
f 16 12 7
f 16 23 24
f 16 15 23
f 16 7 15
f 8 3 7
f 8 7 12
f 9 19 10
f 9 10 5
f 23 19 18
f 23 15 22
f 23 22 26
f 23 25 27
f 23 26 19
f 23 18 25
f 8 4 1
f 8 1 3
f 8 12 16
f 8 27 25
f 8 25 17
f 8 24 27
f 8 9 4
f 8 17 9
f 8 16 24
