# Convex collision proxy; SI metres, original target-root coordinates.
v -0.018376225152475851 0.029345094272238224 0.025345904202358098
v -0.018376225152475851 0.024581047281714234 0.023499928636772319
v -0.015567835319053111 0.028312976253263969 0.02424721508460833
v -0.015567835319053111 0.028355808406327721 0.024236836230393258
v -0.015567835319053111 0.029144749973263957 0.024043342239272247
v -0.015567835319053111 0.038066283874561284 0.021851153643840979
v -0.01798614072119642 0.038696332458203336 0.022860138696865224
v -0.018376225152475851 0.038696332458203336 0.023047701625130916
v -0.018376225152475851 0.038696332458203336 0.017772214743388123
v -0.015959019479550501 0.038696332458203336 0.018214804217121138
v -0.015567835319053111 0.038696332458203336 0.018286715519202159
v -0.015567835319053111 0.026708841024086171 0.023414672789328014
v -0.015567835319053111 0.026514023269057559 0.023499928636772319
v -0.015567835319053111 0.038696332458203336 0.021696210230274977
v -0.016351853659796304 0.038696332458203336 0.02207356024868715
f 2 3 1
f 6 7 1
f 8 1 7
f 5 6 1
f 11 12 2
f 13 3 2
f 13 2 12
f 4 1 3
f 4 5 1
f 10 2 9
f 10 11 2
f 15 6 14
f 15 7 6
f 8 9 2
f 8 2 1
f 14 3 13
f 14 4 3
f 14 6 5
f 14 12 11
f 14 13 12
f 14 5 4
f 15 9 8
f 15 8 7
f 15 10 9
f 15 14 11
f 15 11 10
