# Convex collision proxy; SI metres, original target-root coordinates.
v -0.035592410245664369 0.030622149502579334 0.015705757099087603
v -0.035592410245664369 0.037381431976250261 0.013500000136564144
v -0.032577719175683154 0.04017296809737448 0.013500000136564144
v -0.032577719175683154 0.030622149502579334 0.016800301575079047
v -0.035592410245664369 0.030622149502579334 0.031290516471265732
v -0.035592410245664369 0.041478560491670945 0.013500000136564144
v -0.032577719175683154 0.043876719808605254 0.013500000136564144
v -0.032577719175683154 0.030622149502579334 0.030197823901796247
v -0.032577719175683154 0.033528693789037695 0.031151614963689411
v -0.035592410245664369 0.033953435449777095 0.032322091440374415
v -0.034691101652387243 0.042317589996757152 0.013500000136564144
v -0.035592410245664369 0.041503391712975068 0.018478232808812493
v -0.032577719175683154 0.043973431239723582 0.026143749018600178
v -0.035592410245664369 0.03427754635009387 0.032420249300781745
v -0.032577719175683154 0.043091274630960366 0.028803251402781321
v -0.034691101652387243 0.042317589996757152 0.030008917510755281
v -0.035592410245664369 0.041503391712975068 0.03064416063256243
v -0.032577719175683154 0.043973431239723582 0.028586565136146554
f 2 3 1
f 4 1 3
f 18 17 14
f 18 14 15
f 9 15 14
f 9 14 10
f 9 5 8
f 9 10 5
f 12 11 6
f 16 17 18
f 13 7 11
f 4 5 1
f 4 8 5
f 12 1 5
f 12 2 1
f 12 14 17
f 12 6 2
f 12 10 14
f 12 5 10
f 16 12 17
f 16 11 12
f 7 2 6
f 7 3 2
f 7 6 11
f 13 8 4
f 13 4 3
f 13 9 8
f 13 18 15
f 13 15 9
f 13 3 7
f 13 11 16
f 13 16 18
