# Convex collision proxy; SI metres, original target-root coordinates.
v -0.039509220615449391 -0.019688157668602355 0.017047767685530152
v -0.039509220615449391 -0.019688157668602355 0.023160271055311293
v -0.039509220615449391 -0.014300395883712912 0.018047082527644691
v -0.030719003906311326 -0.019688157668602355 0.020704904056578273
v -0.039056587054310941 -0.019688157668602355 0.023272026034351554
v -0.039509220615449391 -0.014300395883712912 0.020568044840162211
v -0.0308971319317407 -0.014300395883712912 0.02184107822158924
v -0.030719003906311326 -0.014300395883712912 0.021919630598899446
v -0.030719003906311326 -0.019688157668602355 0.025320864619253702
v -0.030719003906311326 -0.017103972850810889 0.024076984604139418
v -0.030719003906311326 -0.014300395883712912 0.02272701873123377
f 3 4 1
f 7 4 3
f 7 8 4
f 5 6 2
f 5 9 6
f 10 11 6
f 10 6 9
f 6 1 2
f 6 3 1
f 5 4 9
f 5 1 4
f 5 2 1
f 11 8 7
f 11 7 3
f 11 3 6
f 10 9 4
f 10 8 11
f 10 4 8
