# Convex collision proxy; SI metres, original target-root coordinates.
v -0.032577718962722421 0.03649091452916458 0.014790615428528912
v -0.032577718962722421 0.040173329278775267 0.013500000136564144
v -0.026472277897470399 0.044422355869300122 0.013500000136564144
v -0.026472277897470399 0.03649091452916458 0.016634588311394763
v -0.032577718962722421 0.03649091452916458 0.0304254512389775
v -0.032577718962722421 0.043877062249461661 0.013500000136564144
v -0.026472277897470399 0.047864663356936551 0.013500000136564144
v -0.026472277897470399 0.03649091452916458 0.027486360589830748
v -0.026472277897470399 0.047307028236780624 0.024828919026649261
v -0.032210771011245067 0.044259665796161578 0.028339591594264177
v -0.032577718962722421 0.043972432879813859 0.028586448433665639
v -0.029623010705223603 0.04605711570352438 0.013500000136564144
v -0.032577718962722421 0.043972432879813859 0.026144385558226919
v -0.026472277897470399 0.04795217999550748 0.023036305563981372
v -0.026472277897470399 0.04795217999550748 0.02466987015609955
v -0.029623010705223603 0.04605711570352438 0.026651353912964398
v -0.026937238044214669 0.047701973283798008 0.024954832698087723
f 2 3 1
f 4 1 3
f 13 12 6
f 9 5 8
f 14 7 12
f 10 13 11
f 10 12 13
f 10 16 12
f 10 15 16
f 10 9 15
f 10 11 5
f 10 5 9
f 17 12 16
f 17 15 14
f 17 16 15
f 17 14 12
f 8 5 1
f 8 1 4
f 13 1 5
f 13 2 1
f 13 5 11
f 13 6 2
f 7 2 6
f 7 3 2
f 7 6 12
f 14 8 4
f 14 4 3
f 14 3 7
f 14 9 8
f 14 15 9
