# Convex collision proxy; SI metres, original target-root coordinates.
v 0.048092429142137183 -0.020807871277411426 0.01349999984463472
v 0.049565379726844022 -0.016811504657291351 0.01349999984463472
v 0.051273377629420372 -0.020807871277411426 0.01349999984463472
v 0.036789875504074837 -0.020807871277411426 0.018306563652231937
v 0.052788635845427069 -0.016811504657291351 0.01349999984463472
v 0.036789875504074837 -0.016811504657291351 0.019170713589876671
v 0.051865691282361889 -0.019498568239296136 0.024954640668793094
v 0.051325087903056801 -0.020807871277411426 0.019807002782588328
v 0.036789875504074837 -0.020807871277411426 0.028140386309574959
v 0.052796472800445762 -0.016811504657291351 0.014613506783723059
v 0.036789875504074837 -0.016811504657291351 0.02608534376124692
v 0.051325087903056801 -0.020807871277411426 0.025718474600748203
v 0.052796472800445762 -0.016811504657291351 0.023418374515239399
v 0.041186792302572363 -0.020807871277411426 0.02740808036247578
v 0.036789875504074837 -0.017145186868814687 0.02625731381333115
v 0.043595224874688421 -0.016811504657291351 0.024951774643232179
v 0.050588611758860438 -0.016811504657291351 0.02378667711444004
f 2 1 4
f 6 2 4
f 17 12 13
f 7 10 13
f 7 12 8
f 7 13 12
f 7 5 10
f 7 8 3
f 7 3 5
f 14 12 17
f 15 9 14
f 15 14 17
f 16 11 15
f 16 15 17
f 5 3 1
f 5 1 2
f 14 9 4
f 14 4 1
f 14 8 12
f 14 1 3
f 14 3 8
f 15 4 9
f 15 11 6
f 15 6 4
f 16 13 10
f 16 2 6
f 16 10 5
f 16 5 2
f 16 17 13
f 16 6 11
