# Convex collision proxy; SI metres, original target-root coordinates.
v 0.022337720816713074 0.03005109019700853 0.020540685262746109
v 0.017443319669605016 0.03005109019700853 0.021807505291479824
v 0.017443319669605016 0.037483256238028798 0.018647571888193357
v 0.022040625686400576 0.037483256238028798 0.017653386426416808
v 0.022337720816713074 0.037483256238028798 0.017589881109802266
v 0.022337720816713074 0.03005109019700853 0.026449957386545844
v 0.017443319669605016 0.03005109019700853 0.025184232295422791
v 0.017443319669605016 0.037483256238028798 0.025995566477110692
v 0.022337720816713074 0.037483256238028798 0.028512782789859338
v 0.022337720816713074 0.035913305878279039 0.028773373469020723
v 0.017443319669605016 0.033545284957237582 0.026652517117704881
v 0.017443319669605016 0.036133738977868958 0.026221119578652464
v 0.018317354815217499 0.037483256238028798 0.02644557763610321
v 0.021547544070925462 0.035553919733453718 0.028427379146953088
f 3 1 2
f 4 5 1
f 4 1 3
f 11 6 10
f 11 7 6
f 14 10 9
f 14 11 10
f 14 9 11
f 12 13 8
f 12 9 13
f 12 11 9
f 7 1 6
f 7 2 1
f 9 6 1
f 9 1 5
f 9 10 6
f 13 4 3
f 13 3 8
f 13 5 4
f 13 9 5
f 12 8 3
f 12 2 7
f 12 3 2
f 12 7 11
