# Convex collision proxy; SI metres, original target-root coordinates.
v -0.0021828450770948124 0.051933179510561339 0.013500438738907
v 0.00082891205807404666 0.054998543121535903 0.014538309687764144
v -0.0011973411725751185 0.054975263957848977 0.013500000039796243
v 0.003460057252121878 0.054867449605126517 0.013500000039796243
v 0.003460057252121878 0.051911127000698672 0.013500438738907
v 0.003460057252121878 0.05190132569590572 0.013504819767114035
v 0.003460057252121878 0.042483480555002243 0.017975246334492271
v 0.0029678555903970769 0.043368049590330492 0.01757525667031979
v 0.00043780370832632517 0.047684306216230585 0.015555590741075447
v 0.003460057252121878 0.054888278868536672 0.015908703488616945
v 0.003460057252121878 0.054888278868536672 0.013816751019877989
v 0.003460057252121878 0.044032089267817334 0.017717640512969902
v 0.003460057252121878 0.043371725292588578 0.017827604917256542
f 5 1 4
f 3 4 1
f 3 1 2
f 3 2 4
f 8 1 7
f 11 4 2
f 11 2 10
f 6 7 1
f 6 1 5
f 9 2 1
f 9 1 8
f 9 8 2
f 12 10 2
f 12 2 8
f 13 8 7
f 13 12 8
f 13 7 6
f 13 5 4
f 13 4 11
f 13 11 10
f 13 6 5
f 13 10 12
