# Convex collision proxy; SI metres, original target-root coordinates.
v 0.04856587487001679 0.01945711914729651 0.013500000039796243
v 0.051842882265193325 0.01945711914729651 0.013500000039796243
v 0.049792208401326331 0.01623229565022672 0.013500000039796243
v 0.035651211079688321 0.01945711914729651 0.019071905093798185
v 0.051864933071370134 0.01945711914729651 0.015267110724270987
v 0.052119358111378779 0.018814679651074646 0.013500000039796243
v 0.052896204793021387 0.01623229565022672 0.013500000039796243
v 0.035651211079688321 0.01623229565022672 0.019779798071423525
v 0.035651211079688321 0.01945711914729651 0.024213830501310537
v 0.051864933071370134 0.01945711914729651 0.020229703388931552
v 0.052119358111378779 0.018814679651074646 0.019857404370037905
v 0.052977622236920277 0.01623229565022672 0.017538661071974788
v 0.035651211079688321 0.01623229565022672 0.022660660595507972
v 0.035651211079688321 0.018300412701843169 0.023656954368544952
v 0.052977622236920277 0.01623229565022672 0.018404912502782332
v 0.037749377742627224 0.01623229565022672 0.022145733893924491
f 3 4 1
f 8 4 3
f 15 10 9
f 11 10 15
f 6 12 7
f 14 13 16
f 14 16 15
f 14 15 9
f 5 6 2
f 16 7 12
f 16 8 3
f 16 3 7
f 16 13 8
f 16 12 15
f 6 7 3
f 6 1 2
f 6 3 1
f 6 15 12
f 6 11 15
f 14 8 13
f 14 9 4
f 14 4 8
f 5 4 9
f 5 1 4
f 5 9 10
f 5 2 1
f 5 11 6
f 5 10 11
