# Convex collision proxy; SI metres, original target-root coordinates.
v -0.0310558890487048 -0.026528005003458192 0.018640815353435168
v -0.0310558890487048 -0.019688157668602355 0.020564629375892578
v -0.025858901749538279 -0.026528005003458192 0.020460074173384791
v -0.0310558890487048 -0.026528005003458192 0.028351133177814687
v -0.025858901749538279 -0.019688157668602355 0.02259299838789704
v -0.0310558890487048 -0.019688157668602355 0.025237292012054467
v -0.025858901749538279 -0.026528005003458192 0.02652997325738277
v -0.029214356665470408 -0.019688157668602355 0.025689730501159556
v -0.0310558890487048 -0.025527068252385085 0.028047923516463576
v -0.025858901749538279 -0.019688157668602355 0.024401801687595887
v -0.0310558890487048 -0.022586522607053204 0.026632627359408263
v -0.0310558890487048 -0.02348502268901136 0.027065105251772574
f 2 3 1
f 5 3 2
f 8 4 7
f 8 7 10
f 9 4 8
f 11 8 6
f 12 9 8
f 12 8 11
f 7 4 1
f 7 1 3
f 7 3 5
f 7 5 10
f 8 10 5
f 8 2 6
f 8 5 2
f 12 1 4
f 12 2 1
f 12 6 2
f 12 4 9
f 12 11 6
