# Convex collision proxy; SI metres, original target-root coordinates.
v 0.046718917540012533 0.027759478522299135 0.013500000039796243
v 0.047816977155022602 0.027759478522299135 0.013500000039796243
v 0.047198622665902766 0.022744663839560551 0.013500000039796243
v 0.044385741893048447 0.027759478522299135 0.013501474579914146
v 0.047906224739166309 0.027759478522299135 0.023318298886310231
v 0.049630606982096259 0.024599693659124199 0.013500000039796243
v 0.050427458343189388 0.022744663839560551 0.013500000039796243
v 0.034211559892812458 0.022744663839560551 0.018852218634539487
v 0.034211559892812458 0.025921138435410256 0.017960182344056105
v 0.034211559892812458 0.027759478522299135 0.017444128228350127
v 0.047906224739166309 0.027759478522299135 0.025196736071922299
v 0.048140498582739874 0.027375611476368435 0.024954927677601848
v 0.049630606982096259 0.024599693659124199 0.023253423380337142
v 0.050492799807247107 0.022744663839560551 0.018729840323182829
v 0.034211559892812458 0.022744663839560551 0.026149224248025061
v 0.034211559892812458 0.027759478522299135 0.02856288308015072
v 0.045773854026918234 0.027759478522299135 0.025721636576492762
v 0.050492799807247107 0.022744663839560551 0.022149067581244776
v 0.034211559892812458 0.025281032988826203 0.027370061049845407
v 0.039222152841972571 0.027759478522299135 0.027331725562308715
v 0.044478175369763479 0.027759478522299135 0.026040115945886601
f 9 3 8
f 9 10 3
f 4 1 3
f 4 3 10
f 19 15 18
f 19 18 16
f 5 11 12
f 6 12 13
f 6 14 7
f 6 2 5
f 6 5 12
f 17 12 11
f 17 13 12
f 17 18 13
f 17 21 18
f 20 16 18
f 20 18 21
f 7 14 18
f 7 8 3
f 7 15 8
f 7 18 15
f 19 8 15
f 19 9 8
f 19 16 10
f 19 10 9
f 6 1 2
f 6 7 3
f 6 3 1
f 6 18 14
f 6 13 18
f 20 10 16
f 20 2 1
f 20 11 5
f 20 1 4
f 20 4 10
f 20 5 2
f 20 17 11
f 20 21 17
