# Convex collision proxy; SI metres, original target-root coordinates.
v -0.041902186281040039 0.003100009208271557 0.018040190046699059
v -0.051463358174762469 0.003100009208271557 0.013500444798571716
v -0.054447196984675136 0.003100009208271557 0.015949640580754522
v -0.054536413901727136 -0.0016362187218840162 0.013500444798571716
v -0.051494336294623376 -0.0026221178732799416 0.013500444798571716
v -0.054427371192406454 0.003100009208271557 0.013500444798571716
v -0.054447196984675136 0.003100009208271557 0.013795094711279468
v -0.054559958840212412 0.00039047233908407614 0.014538164110708414
f 2 1 5
f 4 5 1
f 4 3 8
f 4 1 3
f 6 4 8
f 7 8 3
f 7 6 8
f 6 2 5
f 6 5 4
f 7 3 1
f 7 1 2
f 7 2 6
