# Convex collision proxy; SI metres, original target-root coordinates.
v -0.014628642715310869 0.038696333310046266 0.02124446536172991
v -0.010751643189711935 0.038696333310046266 0.019378091565428916
v -0.010751643189711935 0.038826580945333436 0.019346252658290888
v -0.010751643189711935 0.039175880840983411 0.019260590481770701
v -0.014628642715310869 0.042964895214401902 0.020196051587573913
v -0.014628642715310869 0.038696333310046266 0.018457791985950961
v -0.010751643189711935 0.038696333310046266 0.019074862742609541
v -0.010751643189711935 0.04362945365867766 0.018166692128638921
v -0.010751643189711935 0.049551268055346452 0.016711951834126111
v -0.012345175529985021 0.053492731646242485 0.016510304854356672
v -0.014628642715310869 0.04616039654729099 0.019410688612771423
v -0.014628642715310869 0.049684475844802817 0.013500000136564144
v -0.010751643189711935 0.050781218501465789 0.013500000136564144
v -0.010751643189711935 0.044020195712696261 0.016604305721283245
v -0.010751643189711935 0.051549381489820183 0.016220720851532131
v -0.010751643189711935 0.053815391006212701 0.015663538059970117
v -0.012345175529985021 0.053492731646242485 0.013500000136564144
v -0.014628642715310869 0.052877017875365639 0.017759607468077625
v -0.014628642715310869 0.05216213595837077 0.01793548023642344
v -0.014628642715310869 0.052807452974625343 0.013500000136564144
v -0.010751643189711935 0.053785789464520825 0.013500000136564144
v -0.010751643189711935 0.053815391006212701 0.013945746540182342
v -0.014628642715310869 0.052877017875365639 0.017010632241640053
f 13 6 12
f 3 1 2
f 3 4 1
f 5 1 4
f 10 18 19
f 10 19 11
f 10 11 5
f 10 5 9
f 14 7 6
f 14 6 13
f 8 9 5
f 8 5 4
f 15 16 10
f 15 10 9
f 17 20 23
f 22 21 17
f 7 1 6
f 7 2 1
f 5 6 1
f 5 20 12
f 5 12 6
f 5 19 18
f 5 18 23
f 5 11 19
f 5 23 20
f 17 12 20
f 17 21 13
f 17 13 12
f 17 23 18
f 17 18 10
f 22 9 8
f 22 16 15
f 22 2 7
f 22 14 13
f 22 3 2
f 22 13 21
f 22 4 3
f 22 7 14
f 22 8 4
f 22 15 9
f 22 17 10
f 22 10 16
