# Convex collision proxy; SI metres, original target-root coordinates.
v -0.054100280545533189 0.0064287745522501501 0.013500000136564144
v -0.054165986597816962 0.0064287745522501501 0.017708301394542929
v -0.054071808547561703 0.0073080314876919523 0.018174730118492285
v -0.053850601976438081 0.0082858125759994287 0.013500000136564144
v -0.05107126850523433 0.0064287745522501501 0.013500000136564144
v -0.04815395351681475 0.0082858125759994287 0.019663647203054583
v -0.053911926148708524 0.0082858125759994287 0.018703813593363108
v -0.038326634374701407 0.0064287745522501501 0.020346756656659686
v -0.031791149778336171 0.0082858125759994287 0.022389993062786953
v -0.036607346592813436 0.0082858125759994287 0.021587666062026969
v -0.041511150341211833 0.0082858125759994287 0.020770545318125191
v -0.053911926148708524 0.0082858125759994287 0.016704957351857567
v -0.050852251170431503 0.0082858125759994287 0.013500000136564144
v -0.035700613889702554 0.0064287745522501501 0.020782728162697616
v -0.035698423801538821 0.0064287745522501501 0.020784468690756952
f 6 7 2
f 3 2 7
f 3 1 2
f 3 4 1
f 8 9 2
f 8 15 9
f 10 2 9
f 12 4 3
f 12 3 7
f 13 9 5
f 14 9 15
f 14 5 9
f 11 6 2
f 11 2 10
f 13 5 1
f 13 1 4
f 14 8 2
f 14 2 1
f 14 15 8
f 14 1 5
f 11 10 9
f 11 4 12
f 11 7 6
f 11 9 13
f 11 12 7
f 11 13 4
