# Convex collision proxy; SI metres, original target-root coordinates.
v -0.012155335885107071 -0.053518421980608133 0.02105689918904901
v -0.012155335885107071 -0.053452601780287358 0.013500000281446163
v -0.012155335885107071 -0.052504110443527409 0.021226595460093315
v -0.016083397495985662 -0.05245944831816092 0.023253322544830111
v -0.013053312083656865 -0.053318615404187877 0.021551545644009226
v -0.016083397495985662 -0.05245944831816092 0.013500000281446163
v -0.012155335885107071 -0.050361481821277101 0.013500000281446163
v -0.012155335885107071 -0.04442841192623153 0.022572130365463974
v -0.017479092746981787 -0.047493674192785183 0.024798641452783099
v -0.017479092746981787 -0.050676471192729881 0.02426788920887149
v -0.017479092746981787 -0.051975211383932698 0.024051255752927551
v -0.017479092746981787 -0.051975211383932698 0.018873714750326526
v -0.017479092746981787 -0.051929373715308411 0.013500000281446163
v -0.017479092746981787 -0.048718368788234476 0.013500000281446163
v -0.017479092746981787 -0.041512416394442697 0.016726635674633963
v -0.017097074410075769 -0.041512416394442697 0.016789218871781121
v -0.012155335885107071 -0.041512416394442697 0.017604001533240172
v -0.012155335885107071 -0.04157235717478866 0.023047520484834411
v -0.017479092746981787 -0.041512416394442697 0.025795155435309518
v -0.012155335885107071 -0.041512416394442697 0.023057148652629301
f 8 19 9
f 3 8 9
f 4 3 9
f 4 1 3
f 4 5 1
f 18 19 8
f 18 20 19
f 10 4 9
f 10 11 4
f 14 15 7
f 2 1 5
f 16 17 7
f 16 7 15
f 6 2 5
f 6 5 4
f 6 12 13
f 14 19 15
f 14 9 19
f 14 13 12
f 14 10 9
f 14 11 10
f 14 12 11
f 2 8 3
f 2 3 1
f 2 18 8
f 2 20 18
f 2 17 20
f 2 7 17
f 16 15 19
f 16 20 17
f 16 19 20
f 6 13 14
f 6 7 2
f 6 14 7
f 6 11 12
f 6 4 11
