# Convex collision proxy; SI metres, original target-root coordinates.
v 0.04719870103545265 0.022744663839560551 0.013500000039796243
v 0.050428855365600336 0.022744663839560551 0.013500000039796243
v 0.048565367171628418 0.01945743432918191 0.013500000039796243
v 0.035651102895635764 0.022744663839560551 0.018297545793521428
v 0.050492346626806475 0.022744663839560551 0.018729637584564654
v 0.051865360696522755 0.01945743432918191 0.015268086936272789
v 0.051843139521759243 0.01945743432918191 0.013500000039796243
v 0.035651102895635764 0.01945743432918191 0.019072663659930475
v 0.035651102895635764 0.022744663839560551 0.025795967751988533
v 0.050492346626806475 0.022744663839560551 0.02214906268314791
v 0.050957425609528359 0.021742663996633459 0.021552077525858068
v 0.051865360696522755 0.01945743432918191 0.020229322189218808
v 0.035651102895635764 0.01945743432918191 0.024213235063100014
v 0.037846337060847987 0.01945743432918191 0.023674022745403669
v 0.049465364786168378 0.01945743432918191 0.020819085635079095
f 3 4 1
f 8 4 3
f 5 6 2
f 7 2 6
f 15 10 9
f 15 12 10
f 11 12 6
f 11 5 10
f 11 10 12
f 11 6 5
f 14 9 13
f 14 15 9
f 5 4 9
f 5 1 4
f 5 9 10
f 5 2 1
f 7 1 2
f 7 3 1
f 13 9 4
f 13 4 8
f 14 6 12
f 14 8 3
f 14 7 6
f 14 3 7
f 14 12 15
f 14 13 8
