# Convex collision proxy; SI metres, original target-root coordinates.
v -0.02581114274916187 -0.03787667576252924 0.016282523098428592
v -0.02581114274916187 -0.032836737422270536 0.018219550908577877
v -0.021486307177963217 -0.03787667576252924 0.017415980203900703
v -0.02581114274916187 -0.03787667576252924 0.030683351372257792
v -0.021486307177963217 -0.032836737422270536 0.019427726139804972
v -0.02581114274916187 -0.032836737422270536 0.028778748537714317
v -0.021486307177963217 -0.03787667576252924 0.028460139685607667
v -0.021987964300323133 -0.03787667576252924 0.028718128412623369
v -0.02581114274916187 -0.037870261385187842 0.030684761172324194
v -0.021486307177963217 -0.032836737422270536 0.027549426731412634
v -0.021486307177963217 -0.035925334009530518 0.028784387737979932
f 2 3 1
f 5 3 2
f 8 9 4
f 11 6 9
f 11 10 6
f 11 8 7
f 11 9 8
f 6 1 4
f 6 2 1
f 6 4 9
f 6 5 2
f 6 10 5
f 8 4 1
f 8 3 7
f 8 1 3
f 11 5 10
f 11 3 5
f 11 7 3
