# Convex collision proxy; SI metres, original target-root coordinates.
v 0.028092148956818622 -0.047532834288677453 0.023769639829782269
v 0.028092148956818622 -0.047532834288677453 0.025129879455186622
v 0.028092148956818622 -0.047439152009858279 0.013500000696477658
v 0.030500191411489713 -0.046057328175160173 0.013500000696477658
v 0.028092148956818622 -0.04453360093667566 0.025867665094937594
v 0.030500191411489713 -0.046057328175160173 0.026651244746168076
v 0.03274165975991964 -0.044500537504926121 0.028113247871372433
v 0.03274165975991964 -0.043777249593077536 0.028291334155743
v 0.028092148956818622 -0.044005945570010162 0.013500000696477658
v 0.03274165975991964 -0.044404098662363417 0.013500000696477658
v 0.03274165975991964 -0.044500537504926121 0.026351042091668917
v 0.03274165975991964 -0.033459721127629585 0.03082694261911087
v 0.028092148956818622 -0.036569170178011201 0.027824917777805134
v 0.03274165975991964 -0.033459721127629585 0.01608309940357297
v 0.03274165975991964 -0.040691221964243657 0.013500000696477658
v 0.028092148956818622 -0.033459721127629585 0.017589199456165966
v 0.031614326345163125 -0.033459721127629585 0.030284203669563182
v 0.028092148956818622 -0.033459721127629585 0.028588144345746292
f 4 1 3
f 8 12 5
f 8 5 2
f 8 2 7
f 6 7 2
f 11 4 10
f 9 14 15
f 9 16 14
f 13 17 18
f 13 12 17
f 13 5 12
f 6 2 1
f 6 1 4
f 11 8 7
f 11 14 12
f 11 15 14
f 11 12 8
f 11 10 15
f 11 6 4
f 11 7 6
f 9 15 10
f 9 10 4
f 9 4 3
f 18 12 14
f 18 17 12
f 18 14 16
f 13 1 2
f 13 3 1
f 13 2 5
f 13 9 3
f 13 16 9
f 13 18 16
