# Convex collision proxy; SI metres, original target-root coordinates.
v 0.037903103890522843 -0.030797823541507133 0.015131130847964627
v 0.03274165975991964 -0.030797823541507133 0.017005135902067505
v 0.037903103890522843 -0.025619630475080275 0.016613625906857006
v 0.037903103890522843 -0.030797823541507133 0.031866123706433283
v 0.03274165975991964 -0.027796134113357768 0.017933947533360001
v 0.03274165975991964 -0.030797823541507133 0.02999211950417334
v 0.03274165975991964 -0.025619630475080275 0.01860885161824042
v 0.037903103890522843 -0.025619630475080275 0.030350867194112459
v 0.034219966945973908 -0.030797823541507133 0.030529421566176801
v 0.03274165975991964 -0.028290839982266527 0.029217290835432758
v 0.03274165975991964 -0.025619630475080275 0.028390042307889385
v 0.03274165975991964 -0.026401732391776119 0.028632483196528988
f 3 1 2
f 5 7 3
f 5 3 2
f 9 4 8
f 9 8 6
f 10 6 8
f 12 8 11
f 12 10 8
f 8 4 1
f 8 1 3
f 8 7 11
f 8 3 7
f 9 1 4
f 9 2 1
f 9 6 2
f 12 2 6
f 12 5 2
f 12 11 7
f 12 7 5
f 12 6 10
