# Convex collision proxy; SI metres, original target-root coordinates.
v -0.037990219455155932 0.013762826966541235 0.018790788033911394
v -0.037990219455155932 0.011626943271897422 0.019142753771999491
v -0.037990219455155932 0.013762826966541235 0.024172376743751885
v -0.027281393021550013 0.013762826966541235 0.023499519645687285
v -0.037990219455155932 0.011626943271897422 0.02307398981728025
v -0.028438877189921791 0.011626943271897422 0.023418979707163813
v -0.037451318064637064 0.011626943271897422 0.023164042392243029
v -0.031408076120821249 0.013762826966541235 0.025269495489066863
v -0.030210750939341353 0.011626943271897422 0.024370238772438664
v -0.029752579980720367 0.011626943271897422 0.024165401002027718
v -0.028266932269309538 0.011626943271897422 0.023499519645687285
v -0.03028309369986459 0.011626943271897422 0.024358823651303645
f 2 1 4
f 9 4 8
f 7 8 3
f 6 2 4
f 6 4 11
f 10 4 9
f 10 11 4
f 12 9 8
f 12 8 7
f 5 7 3
f 3 8 4
f 3 4 1
f 5 2 6
f 5 9 12
f 5 10 9
f 5 6 11
f 5 11 10
f 5 12 7
f 5 3 1
f 5 1 2
