# Convex collision proxy; SI metres, original target-root coordinates.
v -0.018093832871526088 -0.033148250848604913 0.026828375330138859
v -0.018093832871526088 -0.033148250848604913 0.020160154755391069
v -0.015793391826132607 -0.033148250848604913 0.026321209339483214
v -0.018093832871526088 -0.024837231357898781 0.023499486828759419
v -0.015223268679278956 -0.033148250848604913 0.020781547134417884
v -0.015223268679278956 -0.033148250848604913 0.026028136609123158
v -0.015223268679278956 -0.032854566920935101 0.026077090958105717
v -0.015223268679278956 -0.026762856185486801 0.02350405589176453
v -0.015223268679278956 -0.026752280342420685 0.023499486828759419
v -0.015223268679278956 -0.031512242824567639 0.021476697399245091
f 2 1 4
f 2 4 5
f 3 6 7
f 3 4 1
f 3 7 4
f 10 5 4
f 10 4 9
f 8 4 7
f 8 9 4
f 3 2 5
f 3 1 2
f 3 5 6
f 8 6 5
f 8 7 6
f 8 5 10
f 8 10 9
