# Convex collision proxy; SI metres, original target-root coordinates.
v -0.0045433825976444603 -0.046650531109936388 0.013255906200945689
v -0.0045433825147770278 -0.046650533051422999 -2.4392625419533687e-10
v -0.0045207628748977326 -0.047600822529714461 0.013255906438619153
v -0.0045207627920303009 -0.047600824471201078 -6.2527899524766895e-12
v -0.0043857523355405222 -0.045713138854406157 -3.0685233867733253e-10
v -0.0043857519527491264 -0.045713136914421394 0.01325590613820565
v -0.0043187068064179188 -0.04852966119312152 0.013255906148232726
v -0.0043187067235504872 -0.048529663134608138 -2.9663921319311726e-10
v -0.0040535639426429867 -0.044822506998745203 0.013255906186179049
v -0.0040535638477606668 -0.044822505214960902 -2.5893108490659955e-10
v -0.0039445180921248981 -0.049403477130238599 0.013255906277192087
v -0.0039445180090715206 -0.049403479071755588 -6.333411052550364e-10
v -0.0035588294415213784 -0.044010841454949177 0.01325590644305422
v -0.0035588293462671659 -0.044010839671225627 -9.3337841969298729e-10
v -0.0034117212389436274 -0.050190679014918298 -1.0271325734390047e-09
v -0.0034117211013684253 -0.050190680799392776 0.013255906349393085
v -0.0029194248967262617 -0.043307475320646896 0.013255906340565875
v -0.0029194248138588296 -0.043307477262133513 -1.0430606725564395e-10
v -0.0027395738297409386 -0.050862830679811427 0.013255906132849746
v -0.0027395737350445646 -0.050862828895996748 1.5340085798842829e-10
v -0.0021584623731224365 -0.042737822622730834 0.013255906223652301
v -0.0021584622904409503 -0.04273782456418708 2.4444160584558006e-10
v -0.0019523681832224709 -0.051395626460696418 0.013255906449547192
v -0.0019523680879682597 -0.051395624676972861 -9.2688544339747381e-10
v -0.0013034436151903993 -0.042322483247381637 -2.1202109165563421e-10
v -0.0013034435816431241 -0.042322481306270483 0.013255906232897359
v -0.0010785559540260024 -0.051769811601195613 -1.2133523699664472e-10
v -0.0010785559324936152 -0.051769813385355377 0.013255906323821412
v -0.00038527319805889843 -0.042076457827079236 0.013255906182288259
v -0.00038527316156987797 -0.042076456043076825 2.0281611459727067e-10
v -0.00014971841827951142 -0.051971872972111081 2.5342437870445877e-10
v -0.00014971838454629034 -0.051971871031030306 0.01325590623268158
v 0.00044387782078751762 -0.047007230671464076 -8.6705820995236493e-10
v 0.00044387782485922418 -0.04700722873019831 0.013255906509171116
v 0.00056286625751883392 -0.042008647452994492 -4.7753051513055311e-12
v 0.00056286629106610912 -0.042008645511883339 0.013255906440143149
v 0.00080057446987563056 -0.051994490102866761 0.0132559062641644
v 0.00080057449472165478 -0.051994492044196018 -6.4639205099581432e-10
v 0.0015067040779800965 -0.042121496842238322 0.013255906520071623
v 0.0015067041734202545 -0.042121495058545143 -1.3220222624954481e-09
v 0.0017379730942850245 -0.051836857673085983 1.7373609842441518e-10
v 0.0017379731160033576 -0.051836859457276126 0.013255906153231498
v 0.00241212885777458 -0.04241092689560693 0.01325590650427497
v 0.0024121289410139039 -0.042410928837154291 -8.7191947412135207e-10
v 0.0026286018355934954 -0.051504670144131813 0.013255906248165229
v 0.0026286019188328192 -0.051504672085679173 -1.1280292117055168e-09
v 0.0032464154156994374 -0.042866484940389034 0.013255906147550855
v 0.0032464155109536495 -0.042866483156665476 -1.2288817810568453e-09
v 0.0034402657264847821 -0.051009938700799687 1.3900892589790992e-10
v 0.0034402658766327105 -0.051009936760094368 0.013255906118312639
v 0.0039794122808709531 -0.04347169548541753 -6.0558199080351649e-10
v 0.0039794124306469893 -0.043471693544651469 0.013255906305044224
v 0.0041436333786100373 -0.05037053381274411 -9.8356545130684481e-10
v 0.0041436335282001285 -0.05037053187194767 0.013255906392722012
v 0.0045846252203406573 -0.044204692821683073 0.013255906146998366
v 0.0045846253030221431 -0.044204694763139311 1.6778767264469252e-10
v 0.0047132823097843267 -0.049609567264246923 0.013255906343574849
v 0.0047132823926517584 -0.049609569205733534 -1.0129709571149448e-10
v 0.0050401797197548032 -0.045038981150165837 0.013255906385970609
v 0.005040179814637123 -0.045038979366381536 -5.9139530078633484e-11
v 0.0051286254486196965 -0.04875455128199227 0.013255906063823302
v 0.0051286255433160705 -0.048754549498177591 8.4374417175236971e-11
v 0.0053296130139437797 -0.045944404931081706 0.013255906397435398
v 0.0053296131090120455 -0.045944403147327777 -5.133359883002786e-10
v 0.0053746479451415715 -0.047836379861646579 -6.810547160951419e-10
v 0.0053746483277470215 -0.047836377921631444 0.013255906229664516
v 0.0054424610068630917 -0.046888240822753877 0.013255906387687335
v 0.0054424611017454124 -0.046888239038969576 -5.7422802623996461e-11
f 14 40 15
f 14 15 2
f 37 54 23
f 37 38 42
f 41 42 38
f 50 53 54
f 58 54 53
f 58 53 65
f 58 65 62
f 56 51 52
f 48 52 51
f 48 65 53
f 60 51 56
f 66 65 68
f 66 68 67
f 43 54 67
f 35 36 40
f 21 22 17
f 13 17 14
f 13 9 6
f 13 36 17
f 18 17 22
f 18 14 17
f 31 38 37
f 20 24 23
f 20 15 24
f 4 2 8
f 12 2 15
f 12 8 2
f 45 54 37
f 45 37 42
f 45 50 54
f 49 53 50
f 10 6 9
f 10 9 13
f 10 13 14
f 64 48 51
f 64 51 60
f 64 65 48
f 64 68 65
f 64 67 68
f 63 43 67
f 63 67 64
f 55 56 52
f 55 60 56
f 61 62 65
f 61 65 66
f 61 58 62
f 57 67 54
f 57 66 67
f 57 61 66
f 57 54 58
f 57 58 61
f 39 40 36
f 39 43 40
f 39 36 13
f 44 48 40
f 44 40 43
f 44 43 48
f 47 52 48
f 47 43 52
f 47 48 43
f 30 35 40
f 30 36 35
f 27 23 24
f 27 24 38
f 27 38 31
f 32 31 37
f 16 12 15
f 46 53 49
f 46 41 38
f 46 38 24
f 46 42 41
f 46 45 42
f 46 50 45
f 46 49 50
f 46 24 15
f 46 15 40
f 46 40 48
f 46 48 53
f 5 6 10
f 5 2 1
f 5 1 6
f 5 14 2
f 5 10 14
f 59 60 55
f 59 64 60
f 59 63 64
f 59 55 52
f 59 52 43
f 59 43 63
f 34 23 54
f 34 54 43
f 34 43 39
f 25 22 21
f 25 30 40
f 25 40 14
f 25 18 22
f 25 14 18
f 29 36 30
f 28 37 23
f 28 32 37
f 28 23 27
f 28 27 31
f 28 31 32
f 19 15 20
f 19 16 15
f 19 20 23
f 19 23 16
f 11 8 12
f 11 12 16
f 26 36 29
f 26 17 36
f 26 21 17
f 26 25 21
f 26 30 25
f 26 29 30
f 3 6 1
f 3 13 6
f 3 11 16
f 3 16 23
f 3 23 34
f 3 39 13
f 3 34 39
f 7 8 11
f 7 11 3
f 3 2 4
f 3 1 2
f 7 3 4
f 7 4 8
