# Convex collision proxy; SI metres, original target-root coordinates.
v -0.039938694270723558 -0.025890895057376857 0.026041107195655541
v -0.039938694270723558 -0.02226033576014853 0.024293012612713449
v -0.044987499231188416 -0.019688158520445295 0.021814498911681725
v -0.042981707251516246 -0.025890895057376857 0.025293502146242833
v -0.039938694270723558 -0.025890895057376857 0.015421185516589423
v -0.039938694270723558 -0.019688158520445295 0.023054369515036165
v -0.040723849834714616 -0.019688158520445295 0.022861637068314674
v -0.046448403059274085 -0.025890895057376857 0.024441551447685683
v -0.048738437991307337 -0.019688158520445295 0.020892575278469227
v -0.044557379878965409 -0.025890895057376857 0.013500000281446163
v -0.047592884716081182 -0.019688158520445295 0.013500000281446163
v -0.039938694270723558 -0.019688158520445295 0.016869747418232748
v -0.050895469573994351 -0.019688158520445295 0.020362254493006944
v -0.048752382660242094 -0.024599341439140943 0.023253239916064889
v -0.048059471464583794 -0.025890895057376857 0.024045038577226858
v -0.048011204339893421 -0.025890895057376857 0.013500000281446163
v -0.05086650861770578 -0.019688158520445295 0.013500000281446163
v -0.050080281435295665 -0.021743592499313683 0.02155179353030489
v -0.050895469573994351 -0.019688158520445295 0.015901175161916685
v -0.048752382660242094 -0.024599341439140943 0.013500000281446163
v -0.048059471464583794 -0.025890895057376857 0.018831443748093805
f 9 13 8
f 9 8 3
f 4 1 3
f 4 3 8
f 5 11 12
f 5 10 11
f 19 18 13
f 19 17 18
f 20 18 17
f 2 3 1
f 21 20 16
f 14 18 20
f 14 13 18
f 14 15 8
f 14 8 13
f 7 2 6
f 7 3 2
f 20 17 11
f 20 10 16
f 20 11 10
f 2 12 6
f 2 1 5
f 2 5 12
f 21 1 4
f 21 16 10
f 21 4 8
f 21 5 1
f 21 10 5
f 21 8 15
f 14 21 15
f 14 20 21
f 7 19 13
f 7 13 9
f 7 11 17
f 7 12 11
f 7 9 3
f 7 6 12
f 7 17 19
