# Convex collision proxy; SI metres, original target-root coordinates.
v -0.018376225152475851 0.038697719258487494 0.023048169499858231
v -0.018376225152475851 0.038697719258487494 0.017773123659790575
v -0.014628642715310869 0.038697719258487494 0.021244335455683636
v -0.014628642715310869 0.0528782854176401 0.017760973398210086
v -0.018376225152475851 0.051681647140999966 0.019857346062399389
v -0.018376225152475851 0.038710214090531707 0.017767515977806184
v -0.01836998881041179 0.038697719258487494 0.017774058131480822
v -0.014628642715310869 0.038697719258487494 0.018457271935844406
v -0.014628642715310869 0.0528782854176401 0.017010466558190874
v -0.01538689025200214 0.052672829422225328 0.018175948679798479
v -0.018376225152475851 0.051680258637029956 0.013500000136564144
v -0.018376225152475851 0.048394366547536316 0.013500000136564144
v -0.014628642715310869 0.049684014145936713 0.013500000136564144
v -0.015011985661670888 0.038697719258487494 0.018387175059196584
v -0.014628642715310869 0.052807485344656548 0.013500000136564144
f 4 1 3
f 5 1 4
f 10 11 5
f 10 5 4
f 9 10 4
f 9 15 11
f 9 11 10
f 6 12 13
f 7 2 6
f 7 6 13
f 14 13 8
f 14 7 13
f 12 15 13
f 12 11 15
f 9 3 8
f 9 4 3
f 9 13 15
f 9 8 13
f 6 1 5
f 6 2 1
f 6 5 11
f 6 11 12
f 14 1 2
f 14 8 3
f 14 3 1
f 14 2 7
