# Convex collision proxy; SI metres, original target-root coordinates.
v -0.040761263642843035 0.02192450909795618 0.027906885628084542
v -0.049504300034777626 0.02192450909795618 0.026450120502935718
v -0.048069927730556142 0.017989577864541126 0.024666182528071231
v -0.043514246204961998 0.017989577864541126 0.025424884948885191
v -0.041363215039401206 0.017989577864541126 0.025783082769822718
v -0.040761263642843035 0.017989577864541126 0.025883208813311461
v -0.040761263642843035 0.02192450909795618 0.016003154205232947
v -0.049988387036669482 0.02192450909795618 0.026368327396987166
v -0.050988132042990866 0.019498834828578178 0.02495527927674188
v -0.05151220966290479 0.017989577864541126 0.024092219921584553
v -0.040761263642843035 0.017989577864541126 0.0168549315397125
v -0.048254092763868855 0.017989577864541126 0.013500000136564144
v -0.04664818484956125 0.02192450909795618 0.013500000136564144
v -0.049988387036669482 0.02192450909795618 0.015412268248288515
v -0.051463801133084186 0.017989577864541126 0.013500000136564144
v -0.051511156785047772 0.017989577864541126 0.019147961939651407
v -0.049971549509386558 0.02192450909795618 0.013500000136564144
f 2 10 3
f 2 3 1
f 7 11 12
f 5 6 1
f 13 7 12
f 9 15 16
f 9 16 10
f 9 2 8
f 9 10 2
f 4 1 3
f 4 5 1
f 14 9 8
f 14 17 15
f 14 15 9
f 7 6 11
f 7 1 6
f 13 12 15
f 13 15 17
f 4 10 16
f 4 3 10
f 4 12 11
f 4 15 12
f 4 11 6
f 4 16 15
f 4 6 5
f 14 2 1
f 14 13 17
f 14 8 2
f 14 1 7
f 14 7 13
