# Convex collision proxy; SI metres, original target-root coordinates.
v -0.05410550680748797 -0.0070665967441986381 0.013500000281446163
v -0.053555430932394288 -0.010311089320946574 0.014191879043460667
v -0.053806893264721919 -0.0090715215477574565 0.014538574860999017
v -0.053555430932394288 -0.010311089320946574 0.0151971951190905
v -0.046647340755895106 -0.0075297676025101457 0.015555984550854066
v -0.051256543648524139 -0.0056126916577114959 0.013500000281446163
v -0.053508281425641749 -0.010311089320946574 0.013500000281446163
v -0.039510648304217542 -0.010311089320946574 0.018648022796554104
v -0.039510648304217542 -0.010245775115332412 0.018616275887928867
v -0.050486438445604506 -0.010311089320946574 0.013500000281446163
v -0.039510648304217542 -0.010311089320946574 0.018608213194497743
v -0.039597802910981264 -0.010311089320946574 0.018566891997143599
v -0.042821102487214359 -0.010311089320946574 0.017066729283462548
f 5 6 1
f 5 4 8
f 5 1 4
f 7 2 1
f 3 2 4
f 3 1 2
f 3 4 1
f 13 10 6
f 13 6 12
f 9 5 8
f 9 6 5
f 11 9 8
f 11 12 6
f 11 6 9
f 7 1 6
f 7 6 10
f 11 8 4
f 11 2 7
f 11 4 2
f 11 7 10
f 11 10 13
f 11 13 12
