# Convex collision proxy; SI metres, original target-root coordinates.
v -0.0310558890487048 -0.025890895057376857 0.028155384781162623
v -0.0310558890487048 -0.025527171325380876 0.028047837906248062
v -0.031165445847037294 -0.025890895057376857 0.028196652312411519
v -0.0310558890487048 -0.025890895057376857 0.018895117730126178
v -0.0310558890487048 -0.019688158520445295 0.025237869135646605
v -0.037784075107243825 -0.019688158520445295 0.02358465196756613
v -0.039938694270723558 -0.025890895057376857 0.026040717264549564
v -0.031056758354425503 -0.025890895057376857 0.018847596819851618
v -0.0310558890487048 -0.025889073391248758 0.018848847751209635
v -0.0310558890487048 -0.019688158520445295 0.020564591894803197
v -0.039056152614411324 -0.019688158520445295 0.023272016344638109
v -0.039938694270723558 -0.020879521353478692 0.023628420935609587
v -0.039938694270723558 -0.025890895057376857 0.015421110554410665
v -0.033552221600364335 -0.025890895057376857 0.017884679522895568
v -0.039938694270723558 -0.019688158520445295 0.016869239293918783
v -0.039938694270723558 -0.019688158520445295 0.023054421903377
v -0.03993521534415486 -0.025890895057376857 0.01542236105984721
f 2 3 1
f 2 5 3
f 14 15 8
f 10 8 15
f 17 13 15
f 17 15 14
f 9 4 8
f 9 8 10
f 12 11 16
f 12 7 11
f 6 7 3
f 6 11 7
f 6 3 5
f 17 7 13
f 17 3 7
f 17 4 1
f 17 1 3
f 17 8 4
f 17 14 8
f 9 1 4
f 9 2 1
f 9 5 2
f 9 10 5
f 12 13 7
f 12 15 13
f 12 16 15
f 6 15 16
f 6 5 10
f 6 10 15
f 6 16 11
