# Convex collision proxy; SI metres, original target-root coordinates.
v -0.026472277897470399 0.030622148650736404 0.028164384541165332
v -0.03388049260877548 0.030622148650736404 0.030670561374458411
v -0.03388049260877548 0.025944092435141463 0.029224420008365996
v -0.026472277897470399 0.025944092435141463 0.02653852880808984
v -0.026472277897470399 0.030622148650736404 0.018823435765908021
v -0.03388049260877548 0.030622148650736404 0.016327087070378107
v -0.03388049260877548 0.025944092435141463 0.01777603653667735
v -0.026472277897470399 0.025944092435141463 0.020460523686850092
v -0.026472277897470399 0.028837655274283915 0.019446820808258426
v -0.03388049260877548 0.026718426067174218 0.017535948867090402
v -0.03388049260877548 0.02864029412923785 0.016940643974965346
v -0.026472277897470399 0.026464741387276683 0.020278001006699454
f 3 1 2
f 4 1 3
f 11 6 5
f 9 7 5
f 10 5 7
f 10 11 5
f 12 8 7
f 12 7 9
f 5 6 2
f 5 2 1
f 7 8 4
f 7 4 3
f 10 2 6
f 10 3 2
f 10 7 3
f 10 6 11
f 12 5 1
f 12 1 4
f 12 4 8
f 12 9 5
