# Convex collision proxy; SI metres, original target-root coordinates.
v 0.0068703695479631934 0.036128135129130871 0.020787374930036299
v 0.003460057252121878 0.042484050437924761 0.017975429906644441
v 0.0068666981049197717 0.036135480570746517 0.020783808263673698
v 0.0068703695479631934 0.036140990290840454 0.020780955015767912
v 0.0068703695479631934 0.045260746626649494 0.019265842896705715
v 0.0046137422106900666 0.054839611378059455 0.016510250690737194
v 0.003460057252121878 0.050505615123069038 0.016639363672326175
v 0.003460057252121878 0.051901308659047046 0.013504993543072471
v 0.0068703695479631934 0.051510147495037448 0.013500000039796243
v 0.0068703695479631934 0.054174821226948187 0.01778069094545795
v 0.0068703695479631934 0.054602710450878944 0.017708644625670584
v 0.0046137422106900666 0.054839611378059455 0.013500000039796243
v 0.003460057252121878 0.054889195451533132 0.01590891389382152
v 0.003460057252121878 0.051910491525870274 0.013500713884174523
v 0.003460057252121878 0.054867158274843258 0.013500000039796243
v 0.0068703695479631934 0.054538437197859849 0.013500000039796243
v 0.003460057252121878 0.05488735887816848 0.013816718649846516
f 7 2 1
f 4 8 9
f 4 2 8
f 6 13 7
f 6 10 11
f 6 7 1
f 3 4 1
f 3 1 2
f 3 2 4
f 5 6 1
f 5 10 6
f 12 13 6
f 12 11 16
f 12 6 11
f 14 15 9
f 14 9 8
f 17 12 15
f 17 13 12
f 5 1 4
f 5 9 16
f 5 11 10
f 5 16 11
f 5 4 9
f 12 16 9
f 12 9 15
f 17 2 7
f 17 8 2
f 17 7 13
f 17 14 8
f 17 15 14
