# Convex collision proxy; SI metres, original target-root coordinates.
v -0.05385003976010666 0.0082858125759994287 0.013500000136564144
v -0.0539139433127582 0.0082858125759994287 0.01670470435450843
v -0.05356481719306521 0.010416566472540552 0.013500000136564144
v -0.050852849164165825 0.0082858125759994287 0.013500000136564144
v -0.0539139433127582 0.0082858125759994287 0.018704012072764953
v -0.05356481719306521 0.010416566472540552 0.019856918437250341
v -0.0532951799442049 0.011629043916553887 0.020525228823695361
v -0.053257772113935634 0.011629043916553887 0.013500000136564144
v -0.050153038052224562 0.011629043916553887 0.013500000136564144
v -0.037991268073798309 0.011628716808870156 0.01914174135668148
v -0.037991268073798309 0.0082858125759994287 0.019512921263817113
v -0.052272736731267061 0.0082858125759994287 0.018977710056855345
v -0.051189507710788257 0.011629043916553887 0.020876724557448822
v -0.037991268073798309 0.011629043916553887 0.01914174135668148
v -0.037991268073798309 0.0082858125759994287 0.021356633482747491
v -0.045846621100063302 0.011629043916553887 0.021767180458883078
v -0.041510590680409201 0.0082858125759994287 0.020770807259825053
v -0.037991268073798309 0.011629043916553887 0.023075681896773149
v -0.038588212337635194 0.011629043916553887 0.022976325919289858
v -0.043494690446900977 0.011629043916553887 0.022158981353659173
f 3 7 8
f 6 7 3
f 6 5 7
f 11 4 10
f 1 2 3
f 9 14 10
f 9 10 4
f 13 7 5
f 12 17 16
f 12 16 13
f 12 13 5
f 19 15 18
f 19 17 15
f 20 16 17
f 20 17 19
f 6 2 5
f 6 3 2
f 11 18 15
f 11 10 14
f 11 14 18
f 9 4 1
f 9 3 8
f 9 1 3
f 12 11 15
f 12 5 2
f 12 15 17
f 12 2 1
f 12 4 11
f 12 1 4
f 20 18 14
f 20 9 8
f 20 8 7
f 20 7 13
f 20 14 9
f 20 13 16
f 20 19 18
