# Convex collision proxy; SI metres, original target-root coordinates.
v 0.024534332376644381 -0.034990858547821455 0.018002799016492484
v 0.02135671161379386 -0.034990858547821455 0.018823424465202118
v 0.024534332376644381 -0.025619630475080275 0.021486289531940064
v 0.024534332376644381 -0.034990858547821455 0.026499885885783024
v 0.02135671161379386 -0.034990858547821455 0.024970706426581429
v 0.02135671161379386 -0.025619630475080275 0.022509756033724841
v 0.024534332376644381 -0.025619630475080275 0.025510689238307051
v 0.024534332376644381 -0.031063859201732106 0.027465000507513767
v 0.02135671161379386 -0.030056653742728926 0.026183120636102633
v 0.02135671161379386 -0.025619630475080275 0.024489075175468743
v 0.024451275560697566 -0.025619630475080275 0.025484755306017182
f 3 1 2
f 6 3 2
f 5 4 8
f 9 5 8
f 9 11 10
f 9 8 7
f 9 7 11
f 7 4 1
f 7 1 3
f 7 8 4
f 5 1 4
f 5 2 1
f 11 7 3
f 11 3 6
f 11 6 10
f 9 10 6
f 9 6 2
f 9 2 5
