# Convex collision proxy; SI metres, original target-root coordinates.
v 0.026264749110219705 0.024743622744855698 0.021203965735218468
v 0.022065211151226036 0.024743622744855698 0.022587012278603776
v 0.022065211151226036 0.03005109019700853 0.02061250477935243
v 0.026264749110219705 0.03005109019700853 0.019360714347896445
v 0.026264749110219705 0.024743622744855698 0.0257890039360071
v 0.022065211151226036 0.024743622744855698 0.024412439171983227
v 0.022065211151226036 0.03005109019700853 0.026373983218992068
v 0.026264749110219705 0.03005109019700853 0.02763792731950189
f 3 1 2
f 4 1 3
f 7 5 8
f 6 5 7
f 5 4 8
f 5 1 4
f 7 8 4
f 7 4 3
f 6 1 5
f 6 2 1
f 6 7 3
f 6 3 2
