# Convex collision proxy; SI metres, original target-root coordinates.
v 0.045589671955206718 0.031365215512888414 0.027501114529636921
v 0.042909784308503514 0.031365215512888414 0.028160410719748525
v 0.045589671955206718 0.031365215512888414 0.02097577639275822
v 0.04469866469098701 0.032649710324169134 0.028338852647852596
v 0.04275739301507054 0.035129470677209937 0.030010571405104235
v 0.042108014406312316 0.031365215512888414 0.028357635784536463
v 0.045533383877846327 0.031365215512888414 0.013500000039796243
v 0.04275739301507054 0.035129470677209937 0.013500000039796243
v 0.041369396731839717 0.036665054285650214 0.031088735376559276
v 0.036230655939134285 0.036665054285650214 0.032352856660399262
v 0.035497530947896948 0.036665054285650214 0.032533176476250258
v 0.034863253810663963 0.036665054285650214 0.032689077362569284
v 0.03355488610117166 0.031365215512888414 0.030459493056984793
v 0.04181284231142221 0.031365215512888414 0.013500000039796243
v 0.041326836955195748 0.036665054285650214 0.013500000039796243
v 0.041369396731839717 0.036665054285650214 0.021976929397329037
v 0.034014806323088217 0.036665054285650214 0.032431745834471504
v 0.033649616146435433 0.036665054285650214 0.032320924476193759
v 0.031565563243140367 0.036665054285650214 0.031676655221350714
v 0.031565563243140367 0.031365215512888414 0.029785170783447563
v 0.03723561423256945 0.036665054285650214 0.013500000039796243
v 0.031565563243140367 0.031365215512888414 0.017202200150097519
v 0.031565563243140367 0.036665054285650214 0.015320107280536299
f 4 5 1
f 6 5 13
f 12 13 5
f 12 17 13
f 8 4 7
f 8 5 4
f 18 19 13
f 18 13 17
f 23 14 22
f 23 21 14
f 20 13 19
f 3 4 1
f 3 7 4
f 2 1 5
f 2 5 6
f 10 5 9
f 16 8 15
f 11 12 5
f 11 5 10
f 14 21 15
f 14 8 7
f 14 15 8
f 20 19 23
f 20 23 22
f 2 3 1
f 2 13 20
f 2 14 7
f 2 6 13
f 2 22 14
f 2 20 22
f 2 7 3
f 16 9 5
f 16 5 8
f 11 19 18
f 11 10 9
f 11 15 21
f 11 23 19
f 11 17 12
f 11 18 17
f 11 21 23
f 11 9 16
f 11 16 15
