# Convex collision proxy; SI metres, original target-root coordinates.
v -0.032273497316972342 0.02192450909795618 0.027500597440659417
v -0.035487150570779766 0.02192450909795618 0.028785607606168571
v -0.033606980752364506 0.017989577864541126 0.027075180268479396
v -0.032273497316972342 0.017989577864541126 0.026520886289241482
v -0.032273497316972342 0.02192450909795618 0.019477727799234984
v -0.040761263642843035 0.02192450909795618 0.027905995452226467
v -0.040761263642843035 0.021415259933783307 0.0276444890440985
v -0.040761263642843035 0.020068947317998326 0.026952559821794338
v -0.036538151391903195 0.017989577864541126 0.026587201409217619
v -0.033916049810287174 0.017989577864541126 0.027023879944884449
v -0.032273497316972342 0.017989577864541126 0.020463694672143561
v -0.039245828262060911 0.017989577864541126 0.017498285909864682
v -0.040761263642843035 0.017989577864541126 0.016855154722559211
v -0.040761263642843035 0.018525021624621801 0.016738790423286257
v -0.040761263642843035 0.019333579430466825 0.016563619147590324
v -0.040761263642843035 0.02192450909795618 0.016003069020940307
v -0.040761263642843035 0.017989577864541126 0.025882760530971452
f 2 3 1
f 4 1 3
f 12 5 11
f 12 13 5
f 15 16 5
f 14 5 13
f 14 15 5
f 7 2 6
f 7 8 2
f 9 8 17
f 9 2 8
f 10 3 2
f 10 2 9
f 5 6 2
f 5 16 6
f 5 2 1
f 5 4 11
f 5 1 4
f 7 6 16
f 7 13 17
f 7 16 15
f 7 14 13
f 7 17 8
f 7 15 14
f 10 12 11
f 10 4 3
f 10 11 4
f 10 17 13
f 10 13 12
f 10 9 17
