# Convex collision proxy; SI metres, original target-root coordinates.
v -0.021485975385137919 -0.027604750665171499 0.025543146219814131
v -0.021485975385137919 -0.021870044324605101 0.023499664236282115
v -0.021485975385137919 -0.027604750665171499 0.021456182252750096
v -0.018093832871526088 -0.027604750665171499 0.024592214991912068
v -0.018093832871526088 -0.024836755603616555 0.023499664236282115
v -0.018093832871526088 -0.027604750665171499 0.02240191276654013
f 2 1 4
f 3 1 2
f 6 3 2
f 5 4 6
f 5 2 4
f 5 6 2
f 6 1 3
f 6 4 1
