# Convex collision proxy; SI metres, original target-root coordinates.
v -0.053508422831569862 -0.01031154761244852 0.013500000281446163
v -0.053054663134064171 -0.012783309606334434 0.013500000281446163
v -0.053555175379512154 -0.01031154761244852 0.014191752970705485
v -0.050486102819485984 -0.01031154761244852 0.013500000281446163
v -0.053054663134064171 -0.012783309606334434 0.016510367233389996
v -0.052723279193379963 -0.013884357495295131 0.013500000281446163
v -0.052757656167083763 -0.013884357495295131 0.015192743387883838
v -0.053555175379512154 -0.01031154761244852 0.015196776864206752
v -0.049579956595294572 -0.013884357495295131 0.013500000281446163
v -0.042821673221984449 -0.01031154761244852 0.017066323806222906
v -0.039509220615449391 -0.013884357495295131 0.018122439535604995
v -0.050039217494509527 -0.01031154761244852 0.016061299486800167
v -0.052757656167083763 -0.013884357495295131 0.017112037105777883
v -0.049164696791324333 -0.013884357495295131 0.017995382901825875
v -0.044000076968365151 -0.013884357495295131 0.019264603753692662
v -0.041094633215079369 -0.013884357495295131 0.019978540988649478
v -0.039624723703427525 -0.01031154761244852 0.018554028316900235
v -0.039509220615449391 -0.01031154761244852 0.018607808995022512
v -0.039509220615449391 -0.013884357495295131 0.020367777842632662
v -0.042414664368735172 -0.01031154761244852 0.017934207375137769
v -0.039854355004877939 -0.013884357495295131 0.020283073349126338
v -0.039590348433409604 -0.01031154761244852 0.018627976802558548
v -0.039509220615449391 -0.01031154761244852 0.018647472080093118
v -0.039509220615449391 -0.012545122394390387 0.019723083512931248
v -0.039509220615449391 -0.012207254225243661 0.019560396844482963
f 9 4 11
f 2 3 1
f 2 6 7
f 10 11 4
f 16 5 15
f 14 5 13
f 14 15 5
f 17 18 11
f 17 11 10
f 12 8 5
f 12 5 16
f 21 19 22
f 21 22 16
f 20 16 22
f 20 12 16
f 24 22 19
f 25 23 22
f 25 22 24
f 2 9 6
f 2 4 9
f 2 1 4
f 2 7 13
f 2 13 5
f 8 2 5
f 8 3 2
f 21 11 19
f 21 9 11
f 21 7 6
f 21 6 9
f 21 13 7
f 21 14 13
f 21 16 15
f 21 15 14
f 20 4 1
f 20 1 3
f 20 10 4
f 20 3 8
f 20 18 17
f 20 17 10
f 20 8 12
f 20 23 18
f 20 22 23
f 25 19 11
f 25 18 23
f 25 11 18
f 25 24 19
