# Convex collision proxy; SI metres, original target-root coordinates.
v 0.049094370211790847 -0.025619630475080275 0.028563235180509416
v 0.049094370211790847 -0.025619630475080275 0.026347168761835217
v 0.038041145890276663 -0.025619630475080275 0.03040525779154957
v 0.047774206176231168 -0.028005978593137935 0.03001053890399609
v 0.047774206176231168 -0.028005978593137935 0.013501879010153334
v 0.04900672579570782 -0.025619630475080275 0.01349999984463472
v 0.03790310474236578 -0.025619630475080275 0.03035074921386571
v 0.03790310474236578 -0.030797823541507133 0.031865718229195358
v 0.03916082102407048 -0.030797823541507133 0.032320585320595882
v 0.040233385836086676 -0.030797823541507133 0.032702147919911717
v 0.042252524482392362 -0.030797823541507133 0.032365697218843734
v 0.045959939163601263 -0.030797823541507133 0.031747303542548691
v 0.045898587731605961 -0.030797823541507133 0.01349999984463472
v 0.045959939163601263 -0.030797823541507133 0.027138486980225196
v 0.046210825649037918 -0.025619630475080275 0.01349999984463472
v 0.03790310474236578 -0.025619630475080275 0.016614521619705069
v 0.03790310474236578 -0.030797823541507133 0.015131505658856825
v 0.042294155750400388 -0.030797823541507133 0.013501879010153334
v 0.045319029574800315 -0.026261835929948848 0.01349999984463472
v 0.045645510306135818 -0.025619630475080275 0.013501879010153334
f 3 7 8
f 20 17 16
f 9 3 8
f 9 10 3
f 2 5 6
f 4 11 12
f 4 1 3
f 4 10 11
f 4 3 10
f 13 6 5
f 14 13 5
f 18 17 20
f 19 18 20
f 19 13 18
f 15 19 20
f 16 8 7
f 16 17 8
f 4 2 1
f 4 5 2
f 14 5 4
f 14 4 12
f 18 8 17
f 18 11 10
f 18 9 8
f 18 10 9
f 18 12 11
f 18 14 12
f 18 13 14
f 15 1 2
f 15 16 7
f 15 7 3
f 15 3 1
f 15 20 16
f 15 2 6
f 15 6 13
f 15 13 19
