# Convex collision proxy; SI metres, original target-root coordinates.
v -0.030978891817162707 -0.040045820551829106 0.03297729200417289
v -0.032148498581497646 -0.040523139669538133 0.033498044037885373
v -0.033134150714690704 -0.043564997551303608 0.033500001572962471
v -0.03279482759780173 -0.043823495254476208 0.033282695587017061
v -0.030978891817162707 -0.041117082900534896 0.032799140127141184
v -0.030978891817162707 -0.038195456686909858 0.032321458124339536
v -0.033045901489748536 -0.032837938733777265 0.031076352520194712
v -0.03443053726384912 -0.038577792761232653 0.033500001572962471
v -0.037278113622505937 -0.040030190085715248 0.033498044037885373
v -0.032796071288494752 -0.043823495254476208 0.013500000281446163
v -0.031441265776403444 -0.044817810630373392 0.032419343396623793
v -0.030978891817162707 -0.045119591325191943 0.032131560185002309
v -0.030978891817162707 -0.032943742738035721 0.030416602718364223
v -0.037586363212614077 -0.039736824747305152 0.033282695587017061
v -0.030978891817162707 -0.032837938733777265 0.030377448609450523
v -0.043674284524741896 -0.032837938733777265 0.028464762211323887
v -0.037586363212614077 -0.039736824747305152 0.013500000281446163
v -0.030978891817162707 -0.045043845450929335 0.013500000281446163
v -0.030978891817162707 -0.045119591325191943 0.030160142197583645
v -0.041879478708240117 -0.03513075450708953 0.030009398367160121
v -0.038782072148329523 -0.038557353641720096 0.032419343396623793
v -0.030978891817162707 -0.032837938733777265 0.016620595709881017
v -0.043674284524741896 -0.032837938733777265 0.027219656607179062
v -0.041879478708240117 -0.03513075450708953 0.013500000281446163
v -0.030978891817162707 -0.041430887358457548 0.013500000281446163
v -0.039864672526572373 -0.032837938733777265 0.013500000281446163
v -0.043571121233598763 -0.032837938733777265 0.013500000281446163
f 6 7 1
f 14 7 16
f 8 7 14
f 8 14 9
f 25 26 22
f 2 1 7
f 2 7 8
f 3 9 10
f 3 8 9
f 3 2 8
f 3 1 2
f 13 15 7
f 13 7 6
f 23 27 24
f 20 14 16
f 17 10 9
f 17 9 14
f 21 20 24
f 21 24 17
f 21 14 20
f 21 17 14
f 4 11 12
f 4 12 5
f 4 3 10
f 4 10 11
f 4 5 1
f 4 1 3
f 19 12 11
f 19 10 18
f 19 11 10
f 23 7 15
f 23 16 7
f 23 26 27
f 23 22 26
f 23 15 22
f 20 16 23
f 20 23 24
f 17 27 26
f 17 18 10
f 17 26 25
f 17 24 27
f 17 25 18
f 19 25 22
f 19 6 1
f 19 13 6
f 19 22 15
f 19 18 25
f 19 1 5
f 19 15 13
f 19 5 12
