# Convex collision proxy; SI metres, original target-root coordinates.
v 0.0096166975361083387 0.054206804521729705 0.019117924630516592
v 0.010855767822959706 0.054004299308518411 0.019117924630516592
v 0.0096166975361083387 0.054206804521729705 0.015363110015505686
v 0.0096166975361083387 0.03907079758027697 0.019117924630516592
v 0.010855767822959706 0.054004299308518411 0.013500549478488355
v 0.014317156621094203 0.053182940426228245 0.019117924630516592
v 0.0096166975361083387 0.054169543208132165 0.013500549478488355
v 0.014317156621094203 0.037658125110948265 0.019117924630516592
v 0.0096166975361083387 0.051178954369861002 0.013500549478488355
v 0.014317156621094203 0.053127860262147567 0.013500549478488355
v 0.014317156621094203 0.050053029268809994 0.013500549478488355
f 2 6 5
f 10 5 6
f 9 8 4
f 11 8 9
f 7 3 5
f 2 8 6
f 2 1 4
f 2 4 8
f 3 1 2
f 3 2 5
f 11 6 8
f 11 10 6
f 7 4 1
f 7 1 3
f 7 9 4
f 7 10 11
f 7 5 10
f 7 11 9
