# Convex collision proxy; SI metres, original target-root coordinates.
v 0.050519130337876181 -0.013762841415194989 0.013500547579643094
v 0.051614378875456821 -0.0091872829307321005 0.013500547579643094
v 0.053595489549377213 -0.013762841415194989 0.013500547579643094
v 0.038191144357491623 -0.013762841415194989 0.019094778180881632
v 0.054606983185724323 -0.0091872829307321005 0.013500547579643094
v 0.040932486519587329 -0.0091872829307321005 0.018456219678586298
v 0.054442696756930163 -0.010417165244476371 0.013500547579643094
v 0.053647031158112146 -0.013762841415194989 0.019094778180881632
v 0.039556983359480394 -0.0091872829307321005 0.019094778180881632
v 0.054644028131360538 -0.0091872829307321005 0.01534940878578
v 0.054442696756930163 -0.010417165244476371 0.019094778180881632
v 0.054644028131360538 -0.0091872829307321005 0.019094778180881632
f 2 1 4
f 6 2 4
f 6 4 9
f 5 10 7
f 3 7 8
f 11 8 7
f 5 2 6
f 5 12 10
f 5 6 9
f 5 9 12
f 3 2 5
f 3 1 2
f 3 5 7
f 3 8 4
f 3 4 1
f 11 12 9
f 11 4 8
f 11 9 4
f 11 10 12
f 11 7 10
