# Convex collision proxy; SI metres, original target-root coordinates.
v -0.033880492182854015 0.030621692062927863 0.03066951360765896
v -0.038433352404675977 0.030621692062927863 0.032320572604436666
v -0.037305529407000923 0.02595062308893659 0.030551581065558532
v -0.035466926967864465 0.02595062308893659 0.029840240259608644
v -0.033880492182854015 0.02595062308893659 0.02922624124854261
v -0.033880492182854015 0.030621692062927863 0.016328513907279803
v -0.03928545514315341 0.030621692062927863 0.032623827834386762
v -0.046896186991777236 0.028005820221593227 0.030010587548812459
v -0.048035094169610409 0.02595062308893659 0.028763869852451621
v -0.033880492182854015 0.02595062308893659 0.017773658617148344
v -0.033880492182854015 0.028640123334731107 0.016940641419436568
v -0.044600357861903694 0.02595062308893659 0.013500000136564144
v -0.041532788855227862 0.030621692062927863 0.013500000136564144
v -0.04519613680461728 0.030621692062927863 0.031637311096869208
v -0.046896186991777236 0.028005820221593227 0.013500000136564144
v -0.048035094169610409 0.02595062308893659 0.02456696082232921
v -0.047958890005101874 0.02595062308893659 0.013500000136564144
v -0.045139330807228373 0.030621692062927863 0.013500000136564144
v -0.04519613680461728 0.030621692062927863 0.026279793870922864
f 11 10 12
f 8 9 3
f 8 3 7
f 2 3 1
f 2 7 3
f 4 5 1
f 4 1 3
f 6 11 12
f 13 6 12
f 14 8 7
f 16 15 17
f 19 18 15
f 6 5 10
f 6 1 5
f 6 10 11
f 15 12 17
f 15 18 13
f 15 13 12
f 16 4 3
f 16 3 9
f 16 12 10
f 16 10 5
f 16 5 4
f 16 17 12
f 16 9 8
f 16 8 15
f 19 1 6
f 19 2 1
f 19 7 2
f 19 6 13
f 19 13 18
f 19 14 7
f 19 15 8
f 19 8 14
