# Convex collision proxy; SI metres, original target-root coordinates.
v -0.054427125861643659 0.0031005697209171186 0.013500000136564144
v -0.054447314538998981 0.0031005697209171186 0.01379521226560331
v -0.054401427464240482 0.0041750043150239301 0.013500000136564144
v -0.05146288966115295 0.0031005697209171186 0.013500000136564144
v -0.05444547966933555 0.0031005697209171186 0.015950116760950372
v -0.054401427464240482 0.0041750043150239301 0.016509878081050554
v -0.054164656019165952 0.0064284491482522708 0.017707126277225982
v -0.054100416840401414 0.0064284491482522708 0.013500000136564144
v -0.051071941461146173 0.0064284491482522708 0.013500000136564144
v -0.035696462859122279 0.0064284491482522708 0.020784033186060837
v -0.041902084059888871 0.0031005697209171186 0.018040131269537137
v -0.052560482457056468 0.0031005697209171186 0.016264581391968763
v -0.053757188881130707 0.0064284491482522708 0.017775581226633197
v -0.040442909497022769 0.0064284491482522708 0.019993949084799588
v -0.035698297728785716 0.0064281237442543916 0.020784033186060837
v -0.042865690481901308 0.0031005697209171186 0.017879690061724251
v -0.051365610902645652 0.0064284491482522708 0.018174188772312569
v -0.044818598315957643 0.0064284491482522708 0.019265189155808788
v -0.040828352236196325 0.0064284491482522708 0.019929772516490141
f 3 1 2
f 3 7 8
f 6 5 12
f 6 7 3
f 6 2 5
f 6 3 2
f 4 9 10
f 4 10 11
f 15 11 10
f 13 7 6
f 13 6 12
f 19 18 15
f 16 15 18
f 16 11 15
f 16 18 12
f 17 12 18
f 17 13 12
f 14 15 10
f 14 19 15
f 4 8 9
f 4 1 3
f 4 3 8
f 16 5 2
f 16 2 1
f 16 12 5
f 16 1 4
f 16 4 11
f 14 10 9
f 14 8 7
f 14 9 8
f 14 7 13
f 14 17 18
f 14 18 19
f 14 13 17
