# Convex collision proxy; SI metres, original target-root coordinates.
v -0.026471889244135235 0.032081117919457253 0.018311594869631621
v -0.026471889244135235 0.039551322092358288 0.01545359711154793
v -0.0224958457285248 0.039551322092358288 0.016455051766622569
v -0.0224958457285248 0.032081117919457253 0.019451713368106117
v -0.026471889244135235 0.032081117919457253 0.028570088790264417
v -0.026471889244135235 0.039551322092358288 0.026734087666464408
v -0.0224958457285248 0.039551322092358288 0.024819768316973304
v -0.0224958457285248 0.032081117919457253 0.026655768801891119
v -0.025828482272682349 0.039551322092358288 0.026424663815962899
v -0.026471889244135235 0.036265924071761949 0.027541671602883844
f 2 3 1
f 4 1 3
f 8 7 9
f 8 9 5
f 10 9 6
f 10 5 9
f 9 2 6
f 9 3 2
f 9 7 3
f 8 5 1
f 8 1 4
f 8 3 7
f 8 4 3
f 10 1 5
f 10 2 1
f 10 6 2
