# Convex collision proxy; SI metres, original target-root coordinates.
v -0.010751643189711935 0.038696332458203336 0.019378474468824326
v -0.010751643189711935 0.038696332458203336 0.019074653189249648
v -0.010527794201830663 0.038696332458203336 0.019270870948127777
v -0.010751643189711935 0.038870074341468802 0.019335893396463123
v -0.010751643189711935 0.044020286008046458 0.016603231547353072
v -0.005173969927930934 0.051695963213220786 0.013500000136564144
v -0.010261358178687705 0.038696332458203336 0.019142552737068864
v -0.0089078888045567017 0.042425581531906661 0.017575113197473874
v -0.010751643189711935 0.043243100299415797 0.018261587430638195
v -0.010751643189711935 0.038975560606571813 0.019309999075186875
v -0.010751643189711935 0.050780715914139227 0.013500000136564144
v -0.010749459064448685 0.050780715914139227 0.013500000136564144
v -0.0066278988420563588 0.054544093222845237 0.013500000136564144
v -0.0086327162803607402 0.054246249751006469 0.014538630068789147
v -0.010751643189711935 0.051550144741082229 0.016220578593763427
v -0.010751643189711935 0.053785523689527798 0.013500000136564144
v -0.010751643189711935 0.053816547808906726 0.013945950130641748
v -0.010751643189711935 0.053816547808906726 0.015663572985530096
f 14 6 13
f 14 13 17
f 8 6 14
f 18 14 17
f 5 6 2
f 16 17 13
f 9 8 14
f 7 2 6
f 7 6 8
f 12 5 11
f 12 6 5
f 15 14 18
f 15 9 14
f 3 7 8
f 3 9 10
f 3 8 9
f 4 1 3
f 4 3 10
f 12 11 16
f 12 13 6
f 12 16 13
f 3 1 2
f 3 2 7
f 4 17 16
f 4 2 1
f 4 5 2
f 4 18 17
f 4 11 5
f 4 16 11
f 4 15 18
f 4 9 15
f 4 10 9
