# Convex collision proxy; SI metres, original target-root coordinates.
v -0.052723367785045772 -0.013884706750900706 0.013500000281446163
v -0.051242304241931991 -0.018815027173095942 0.013500000281446163
v -0.052234435492529929 -0.015825818296106388 0.018175393926075055
v -0.05275708713599956 -0.013884706750900706 0.015192750202627361
v -0.049579673783438347 -0.013884706750900706 0.013500000281446163
v -0.051242304241931991 -0.018815027173095942 0.01985774114126778
v -0.050866201954247223 -0.019688157668602355 0.013500000281446163
v -0.050896031790335035 -0.019688157668602355 0.015902003153254778
v -0.052758383640954892 -0.013884706750900706 0.017113406443304616
v -0.047592818272331833 -0.019688157668602355 0.013500000281446163
v -0.039509220615449391 -0.013884706750900706 0.018123382099818574
v -0.039509220615449391 -0.019688157668602355 0.017048155274068048
v -0.050896031790335035 -0.019688157668602355 0.020362729182485495
v -0.048737983107177148 -0.019688157668602355 0.020893250151038781
v -0.039509220615449391 -0.019688157668602355 0.023160967436915092
v -0.040834655860719243 -0.013884706750900706 0.020042147036207353
v -0.039509220615449391 -0.013884706750900706 0.020367457549687062
f 12 5 11
f 14 15 9
f 16 15 17
f 16 9 15
f 10 5 12
f 6 9 3
f 6 13 14
f 6 14 9
f 4 3 9
f 4 1 3
f 2 3 1
f 2 6 3
f 8 2 7
f 12 11 17
f 12 17 15
f 4 11 5
f 4 9 16
f 4 17 11
f 4 5 1
f 4 16 17
f 2 1 5
f 2 10 7
f 2 5 10
f 8 12 15
f 8 7 10
f 8 15 14
f 8 14 13
f 8 10 12
f 8 13 6
f 8 6 2
