# Convex collision proxy; SI metres, original target-root coordinates.
v -0.025028474566556849 -0.032836737209309796 0.018460790273777471
v -0.025028474566556849 -0.02998064045136193 0.019497466095416114
v -0.021486307177963217 -0.032836737209309796 0.019428420817722891
v -0.025028474566556849 -0.032836737209309796 0.028537555597954976
v -0.025028474566556849 -0.02652862258959 0.020751143795070433
v -0.025028127866480097 -0.026528005429379664 0.020751143795070433
v -0.025017379312257813 -0.026528005429379664 0.020754102884484735
v -0.021486307177963217 -0.026528005429379664 0.021847001937396957
v -0.021486307177963217 -0.032836737209309796 0.027550198075195188
v -0.025028474566556849 -0.026528005429379664 0.026249175157872773
v -0.025028474566556849 -0.026528005429379664 0.026099246754103973
v -0.021486307177963217 -0.026528005429379664 0.02515233079438197
f 2 3 1
f 2 6 3
f 10 4 9
f 10 9 12
f 7 8 3
f 7 3 6
f 5 6 2
f 11 6 5
f 9 4 1
f 9 1 3
f 9 3 8
f 9 8 12
f 11 12 8
f 11 7 6
f 11 10 12
f 11 8 7
f 11 1 4
f 11 2 1
f 11 4 10
f 11 5 2
