# Convex collision proxy; SI metres, original target-root coordinates.
v -0.02581114274916187 -0.048307976414825829 0.022956878646033324
v -0.02581114274916187 -0.048306921833265584 0.028945599440376869
v -0.027567532578657822 -0.047334873631831115 0.030009498458705625
v -0.027567532578657822 -0.047334873631831115 0.013501906705946835
v -0.02581114274916187 -0.048242611098635244 0.013501906705946835
v -0.02581114274916187 -0.037871633704164867 0.030684444286750354
v -0.02950800694534407 -0.039448840500749732 0.032322238412472962
v -0.030977649404234097 -0.041405588474969862 0.032751229924642848
v -0.030977649404234097 -0.043532076377184994 0.032396597486428556
v -0.030977649404234097 -0.045118771852283253 0.032131575518175234
v -0.030977649404234097 -0.045043917005736331 0.013501906705946835
v -0.030977649404234097 -0.045118771852283253 0.030160122179274544
v -0.02581114274916187 -0.044886830352778406 0.013501906705946835
v -0.02581114274916187 -0.03753742590413315 0.030554794217139112
v -0.030977649404234097 -0.03753742590413315 0.032083909794600803
v -0.030977649404234097 -0.03819529824412294 0.032322238412472962
v -0.030977649404234097 -0.040047672458381589 0.032976211867324426
v -0.030977649404234097 -0.041431945347389552 0.013501906705946835
v -0.02581114274916187 -0.044860472628515766 0.013511440532136074
v -0.02581114274916187 -0.03753742590413315 0.016419048818333476
v -0.030977649404234097 -0.03753742590413315 0.014914718888987865
v -0.030943765647592804 -0.03753742590413315 0.014924251011491222
v -0.025814683008422278 -0.03753742590413315 0.016417141967911334
f 5 1 4
f 6 14 15
f 3 1 2
f 3 4 1
f 3 2 10
f 9 2 8
f 9 10 2
f 19 18 21
f 7 17 8
f 7 6 17
f 7 2 6
f 7 8 2
f 16 6 15
f 16 17 6
f 12 11 4
f 23 20 19
f 13 18 19
f 22 19 21
f 22 23 19
f 12 15 21
f 12 8 17
f 12 21 18
f 12 9 8
f 12 18 11
f 12 10 9
f 12 16 15
f 12 17 16
f 12 4 3
f 12 3 10
f 13 11 18
f 13 5 4
f 13 4 11
f 13 1 5
f 13 2 1
f 13 14 6
f 13 6 2
f 13 20 14
f 13 19 20
f 22 21 15
f 22 14 20
f 22 15 14
f 22 20 23
