# Convex collision proxy; SI metres, original target-root coordinates.
v 0.026264748684298237 0.037484568076146398 0.016551352538200455
v 0.021240431693636364 0.037484568076146398 0.017827463511329578
v 0.021240431693636364 0.037770662932737037 0.0177043449484637
v 0.021244366356146242 0.04765536059334996 0.013500000039796243
v 0.026264748684298237 0.045101508219716972 0.013500000039796243
v 0.026264748684298237 0.037484568076146398 0.030415542646751878
v 0.021240431693636364 0.037484568076146398 0.027948172775100429
v 0.021240431693636364 0.04765011153719368 0.013503327338294527
v 0.021240431693636364 0.04765929781138864 0.013500000039796243
v 0.026264748684298237 0.048461149490501454 0.013500000039796243
v 0.026264748684298237 0.037690609289374684 0.030497067422860395
v 0.025790645277538764 0.037484568076146398 0.030287432284295635
v 0.021240431693636364 0.048160619303559582 0.026169603312444858
v 0.021240431693636364 0.05083652202901983 0.013500000039796243
v 0.022849629438783135 0.050226275380941127 0.013500000039796243
v 0.025688348950378834 0.048861420262842001 0.028339158459465726
v 0.026264748684298237 0.048541203985706737 0.025236228575123427
v 0.026264748684298237 0.048541203985706737 0.028688550357073659
v 0.022849629438783135 0.050226275380941127 0.02665209652025646
v 0.021240431693636364 0.04928662447784634 0.025981597317804819
v 0.021240431693636364 0.050890329539757841 0.019830642020595861
v 0.021240431693636364 0.050890329539757841 0.025713730622226871
f 7 11 13
f 5 1 4
f 15 14 21
f 12 6 11
f 12 11 7
f 3 1 2
f 3 4 1
f 16 10 15
f 16 11 18
f 16 13 11
f 8 9 4
f 8 4 3
f 17 10 16
f 17 16 18
f 19 13 16
f 19 16 15
f 20 19 22
f 20 13 19
f 15 9 14
f 15 10 5
f 15 4 9
f 15 5 4
f 12 1 6
f 12 7 2
f 12 2 1
f 17 11 6
f 17 6 1
f 17 1 5
f 17 5 10
f 17 18 11
f 19 21 22
f 19 15 21
f 20 21 14
f 20 2 7
f 20 3 2
f 20 7 13
f 20 14 9
f 20 22 21
f 20 9 8
f 20 8 3
