# Convex collision proxy; SI metres, original target-root coordinates.
v -0.012155334181421189 -0.041612838455003548 0.023041638722291511
v -0.0070524082315793594 -0.041612838455003548 0.020418061705484492
v -0.012155334181421189 -0.041612838455003548 0.017574063087177457
v -0.012155334181421189 -0.048147864015743516 0.021952606503926983
v -0.0099777868133569692 -0.054003812310177687 0.019857667882774904
v -0.0070524082315793594 -0.044695779018099846 0.019904367616454893
v -0.0070524082315793594 -0.041612838455003548 0.018126050923750928
v -0.012152836577919863 -0.041612838455003548 0.017560053252257755
v -0.012155334181421189 -0.041619137833547988 0.017556317495042523
v -0.012155334181421189 -0.04990666583852528 0.021659333803436664
v -0.012155334181421189 -0.053518757606726655 0.021056910475967968
v -0.0099777868133569692 -0.054003812310177687 0.013500000281446163
v -0.0070524082315793594 -0.054482568486927216 0.018273621639221367
v -0.0070524082315793594 -0.051385770142876083 0.013500000281446163
v -0.012155334181421189 -0.050361483524962974 0.013500000281446163
v -0.012155334181421189 -0.053453242366178558 0.013500000281446163
v -0.0070524082315793594 -0.054395637914856826 0.013500000281446163
v -0.0070524082315793594 -0.054482568486927216 0.017900959519251504
f 5 2 1
f 5 11 12
f 6 2 5
f 6 5 13
f 4 5 1
f 16 12 11
f 18 12 17
f 10 11 5
f 10 5 4
f 8 9 3
f 8 7 9
f 14 15 9
f 14 9 7
f 18 13 5
f 18 5 12
f 15 1 3
f 15 4 1
f 15 16 11
f 15 3 9
f 15 11 10
f 15 10 4
f 8 3 1
f 8 2 7
f 8 1 2
f 14 2 6
f 14 13 18
f 14 6 13
f 14 18 17
f 14 7 2
f 14 16 15
f 14 17 12
f 14 12 16
