# Convex collision proxy; SI metres, original target-root coordinates.
v -0.021486307177963217 -0.050426177588916508 0.015412476274366515
v -0.02197272419123672 -0.050225933165224876 0.013500000281446163
v -0.021486307177963217 -0.050410207237469418 0.013500000281446163
v -0.021486307177963217 -0.050426177588916508 0.026369262225674067
v -0.02581114274916187 -0.048243154574431235 0.013500000281446163
v -0.02197272419123672 -0.050225933165224876 0.026651844510222785
v -0.024810791640110307 -0.048861083147101553 0.028338927120321336
v -0.021486307177963217 -0.047085917421434212 0.013500000281446163
v -0.021486307177963217 -0.049942153615423396 0.026449999899567568
v -0.02581114274916187 -0.044886924055501848 0.013500000281446163
v -0.02581114274916187 -0.048307035980219598 0.022954727955569486
v -0.025153273284142005 -0.037877169831434687 0.030345596498222143
v -0.02581114274916187 -0.037877169831434687 0.030683686146533377
v -0.02581114274916187 -0.048307035980219598 0.028944460100444051
v -0.02581114274916187 -0.037877169831434687 0.016283771048336313
v -0.021486307177963217 -0.037877169831434687 0.017417463688381454
v -0.021486307177963217 -0.042218647006317486 0.027736758067970359
v -0.021486307177963217 -0.037877169831434687 0.028460033631161584
f 15 16 8
f 3 1 2
f 17 18 12
f 10 15 8
f 9 17 12
f 7 12 13
f 7 9 12
f 7 13 14
f 7 14 11
f 7 11 5
f 7 5 2
f 4 9 7
f 6 7 2
f 6 4 7
f 15 18 16
f 15 12 18
f 15 13 12
f 10 14 13
f 10 5 11
f 10 11 14
f 10 13 15
f 10 8 3
f 10 2 5
f 10 3 2
f 4 8 16
f 4 1 3
f 4 16 18
f 4 3 8
f 4 18 17
f 4 17 9
f 6 1 4
f 6 2 1
