# Convex collision proxy; SI metres, original target-root coordinates.
v -0.033880492182854015 0.025950165862245855 0.029226752354298439
v -0.037305216780646938 0.025950165862245855 0.030552058949440231
v -0.035487211477549005 0.021924894130958904 0.028784426951872603
v -0.033880492182854015 0.021924894130958904 0.028140134276737006
v -0.033880492182854015 0.025950165862245855 0.01777469871736146
v -0.037117582191095067 0.025509655524135415 0.030356767995666015
v -0.048035075429066029 0.025950165862245855 0.0287627279570088
v -0.048421381085124018 0.025249604702607904 0.028338763177018264
v -0.049359553181040454 0.021924894130958904 0.026474320082709921
v -0.03773882612625 0.021924894130958904 0.028410536906466676
v -0.033880492182854015 0.021924894130958904 0.018839618225980556
v -0.033880492182854015 0.025487590662734729 0.017896547181394482
v -0.033899413317934876 0.025950165862245855 0.017766353212211667
v -0.048035075429066029 0.025950165862245855 0.024568148397848957
v -0.049786856333459487 0.02241111031424526 0.013500000136564144
v -0.049786856333459487 0.02241111031424526 0.026651250414048842
v -0.049987105864908198 0.021924894130958904 0.026369163480819413
v -0.046647525523136224 0.021924894130958904 0.013500000136564144
v -0.044600889411889756 0.025950165862245855 0.013500000136564144
v -0.047957813275642927 0.025950165862245855 0.013500000136564144
v -0.04997133654865496 0.021924894130958904 0.013500000136564144
v -0.049988681774322009 0.021924894130958904 0.015412848353321382
f 2 3 1
f 4 1 3
f 6 10 3
f 6 3 2
f 6 2 10
f 9 10 2
f 9 2 8
f 9 8 17
f 12 11 18
f 16 22 17
f 16 17 8
f 7 8 2
f 13 18 19
f 13 5 12
f 13 12 18
f 15 22 16
f 15 16 8
f 15 21 22
f 14 8 7
f 14 20 15
f 14 15 8
f 9 4 3
f 9 17 22
f 9 18 11
f 9 3 10
f 9 22 21
f 9 11 4
f 9 21 18
f 12 5 1
f 12 4 11
f 12 1 4
f 15 18 21
f 15 20 19
f 15 19 18
f 14 1 5
f 14 2 1
f 14 7 2
f 14 19 20
f 14 5 13
f 14 13 19
