# Convex collision proxy; SI metres, original target-root coordinates.
v -0.022296706148409173 0.039551322092358288 0.024725025707818583
v -0.022296706148409173 0.039551322092358288 0.016501837535668407
v -0.01896529498030123 0.039551322092358288 0.023120822757128137
v -0.018376608481792726 0.040483420548209595 0.022608796372054516
v -0.018376608481792726 0.043252402424171915 0.021928658146576643
v -0.022296706148409173 0.043308210061651101 0.02380205943405958
v -0.022296706148409173 0.041476073110325903 0.015700835150658954
v -0.018376608481792726 0.048393780479602966 0.013500000136564144
v -0.018376608481792726 0.039551322092358288 0.017396235553205238
v -0.018376608481792726 0.039551322092358288 0.022837340079263826
v -0.018376608481792726 0.05168165054837167 0.019857478523974442
v -0.022296706148409173 0.045154593234077153 0.023348267799923141
v -0.022293252777185611 0.04676706204260378 0.013500000136564144
v -0.022296706148409173 0.04676706204260378 0.013500000136564144
v -0.018376608481792726 0.051680463079332287 0.013500000136564144
v -0.021304305731799079 0.050519200135739066 0.021551780475067152
v -0.022296706148409173 0.050057307049451244 0.02214291815159633
v -0.022296706148409173 0.048364095457304301 0.022559351575313968
v -0.022296706148409173 0.049993188832382254 0.013500000136564144
v -0.022296706148409173 0.050057307049451244 0.018755413126785945
f 5 1 4
f 3 4 1
f 9 2 8
f 6 5 11
f 6 1 5
f 10 4 3
f 18 11 17
f 16 11 15
f 16 17 11
f 16 15 19
f 7 14 13
f 7 13 8
f 7 8 2
f 12 6 11
f 12 11 18
f 20 16 19
f 20 17 16
f 10 3 1
f 10 1 2
f 10 2 9
f 15 4 10
f 15 5 4
f 15 11 5
f 15 9 8
f 15 10 9
f 13 15 8
f 13 14 19
f 13 19 15
f 20 2 1
f 20 1 6
f 20 7 2
f 20 19 14
f 20 6 12
f 20 18 17
f 20 14 7
f 20 12 18
