# Convex collision proxy; SI metres, original target-root coordinates.
v -0.051543379482494871 0.00034946685654669522 0.013371745867089875
v -0.051543379213203372 0.00034946686458989717 1.1386877205032953e-10
v -0.051520762092829464 -0.00060082604000976693 0.013371746103928031
v -0.051520761823678776 -0.00060082607562208352 3.5070971474149282e-10
v -0.051385752083223463 0.0012868654572605379 0.013371746268427787
v -0.051385751813886826 0.0012868654216178473 4.9548223163276006e-11
v -0.051318705555309846 -0.0015296635989484981 0.013371746279318182
v -0.051318705285597746 -0.0015296635181764728 6.0431173953823247e-11
v -0.051053565939696809 0.0021774940983518743 0.013371745850077648
v -0.051053565670546121 0.0021774940627395578 9.6859336523591466e-11
v -0.0509445186914513 -0.0024034758048176383 0.013371745941633928
v -0.050944518422114671 -0.0024034758404603289 -2.7724563617104181e-10
v -0.050558827252151328 0.002989158231654662 0.013371746108716526
v -0.050558826982628743 0.0029891581959815968 -5.7582428408808894e-10
v -0.050411719378408139 -0.0031906813441165164 0.013371746014884237
v -0.050411719108885547 -0.0031906813797895812 -6.6965658018780516e-10
v -0.049919426427370323 0.0036925260077777617 0.013371746004635629
v -0.049919426158219635 0.0036925259721654453 2.5141731752054142e-10
v -0.049739572565116116 -0.0038628288947086206 0.013371746263667234
v -0.049739572295221642 -0.0038628289304424345 -1.3521960773310582e-09
v -0.049158460423340176 0.00426217496915904 0.013371745889355573
v -0.049158460153631643 0.0042621749334556007 -1.2608464897145844e-09
v -0.048952367154244843 -0.0043956256061907896 0.013371746114669958
v -0.048952366884722258 -0.0043956256418638548 -5.6987085189641462e-10
v -0.048303443724321875 0.0046775172236954406 0.01337174589770389
v -0.048303443455171173 0.0046775171880831246 1.4448557628110592e-10
v -0.048078554561781166 -0.004769814860270458 0.013371745989232582
v -0.048078554292630478 -0.004769814895882774 2.3601426715758045e-10
v -0.047385270313955265 0.0049235406931246745 0.013371745848304067
v -0.047385270044246731 0.0049235406574212352 -1.3018979956591625e-09
v -0.047149719043581916 -0.0049718701710804777 0.013371745897129939
v -0.047149718773873382 -0.004971870206783917 -1.2530721252290711e-09
v -0.046556123786334933 -7.2298171443438752e-06 0.013371746173366256
v -0.046556123516718485 -7.2298237137298982e-06 -5.1117642063669422e-10
v -0.046437131580023994 0.0049913534764199361 0.013371746105826861
v -0.046437131310873292 0.00499135344080762 3.5260854999719093e-10
v -0.046199427901877095 -0.0049944902034944928 -2.9099793755205106e-10
v -0.046199424445943105 -0.0049944901798665937 0.013371745929369969
v -0.045493297101917983 0.0048785049507188158 0.013371746184251136
v -0.045493296832209457 0.0048785049150153765 -9.6595092688445128e-10
v -0.045262026673111633 -0.0048368595314296171 0.013371746283749486
v -0.045262026403217151 -0.0048368595671634306 -1.3321138254973608e-09
v -0.044587873843023998 0.004589072573936895 0.013371746167998712
v -0.04458787357350142 0.0045890725382638298 -5.1654209728968503e-10
v -0.04437139970255987 -0.0045046711440014731 0.013371745912383855
v -0.044371399433037292 -0.0045046711796745383 -7.721569564300701e-10
v -0.043753584715150368 0.0041335173148781832 0.013371746277780438
v -0.043753584445441834 0.0041335172791747447 -8.7242162452594307e-10
v -0.043559735425873464 -0.0040099368293668525 0.013371746248225987
v -0.043559735155978996 -0.004009936865100666 -1.3676373228355132e-09
v -0.043020588877680691 0.0035283045234102178 0.013371745969415419
v -0.04302058860759312 0.0035283047205969596 -2.4947903118355264e-10
v -0.042856364982419931 -0.0033705326487499204 0.013371746058135028
v -0.042856364712146412 -0.0033705324515935532 -6.2642066880891356e-10
v -0.042415377244810731 0.0027953075784579299 0.013371746276416832
v -0.042415376974165322 0.0027953077755535488 -1.33946136127161e-09
v -0.042286717370990247 -0.0026095698999300037 0.013371746008641855
v -0.042286717101088625 -0.0026095697027128878 2.5540865603024265e-10
v -0.041959817615829689 0.0019610214453040595 0.01337174605163287
v -0.041959817346678994 0.0019610214096917431 2.9841455695400754e-10
v -0.04187137422370512 -0.0017545512401065076 0.013371746194380356
v -0.041871373954178961 -0.0017545511593041081 4.4115459549298741e-10
v -0.041670386653689502 0.0010555965077502741 0.01337174606224188
v -0.041670386384165134 0.0010555965303149415 -1.5664140817772676e-10
v -0.041625351353778477 -0.00083638079014395782 0.013371745894746411
v -0.04162535108444184 -0.00083638082578664865 -3.2413315087520544e-10
v -0.041557540064141328 0.00011175863789551581 0.013371746052062462
v -0.041557539794873297 0.00011175863866279802 2.9884181934614062e-10
f 31 41 27
f 23 41 19
f 23 27 41
f 50 46 42
f 55 49 61
f 55 47 41
f 55 41 49
f 17 18 13
f 38 31 37
f 38 41 31
f 38 37 42
f 38 42 41
f 28 27 23
f 28 31 27
f 7 4 8
f 7 41 47
f 7 19 41
f 15 19 7
f 15 7 11
f 53 61 49
f 53 50 54
f 53 49 50
f 45 46 50
f 45 50 49
f 45 49 41
f 45 41 42
f 45 42 46
f 67 61 65
f 67 55 61
f 67 68 64
f 51 52 47
f 51 47 55
f 35 17 13
f 35 25 17
f 35 29 25
f 35 36 29
f 24 23 19
f 24 28 23
f 5 13 9
f 5 7 47
f 14 18 22
f 14 13 18
f 30 29 36
f 21 17 25
f 21 18 17
f 21 22 18
f 66 54 50
f 66 64 68
f 66 58 54
f 66 62 58
f 66 68 67
f 66 67 65
f 66 65 61
f 66 61 62
f 57 61 53
f 57 62 61
f 57 58 62
f 57 54 58
f 57 53 54
f 59 64 60
f 12 15 11
f 12 7 8
f 12 11 7
f 20 22 30
f 20 50 42
f 20 14 22
f 20 24 19
f 3 5 1
f 3 7 5
f 3 1 4
f 3 4 7
f 39 35 13
f 39 13 5
f 39 5 47
f 39 47 43
f 39 36 35
f 2 8 4
f 2 12 8
f 2 14 20
f 2 20 12
f 2 4 1
f 2 1 5
f 56 50 20
f 56 20 30
f 56 60 64
f 56 66 50
f 56 64 66
f 56 52 51
f 56 51 55
f 56 59 60
f 56 55 59
f 26 30 22
f 26 21 25
f 26 22 21
f 26 25 29
f 26 29 30
f 63 55 67
f 63 59 55
f 63 67 64
f 63 64 59
f 32 20 42
f 32 24 20
f 32 42 37
f 32 28 24
f 32 37 31
f 32 31 28
f 16 15 12
f 16 12 20
f 16 19 15
f 16 20 19
f 10 9 13
f 10 13 14
f 10 5 9
f 40 56 30
f 40 30 36
f 40 36 39
f 40 39 43
f 40 43 44
f 6 14 2
f 6 10 14
f 6 2 5
f 6 5 10
f 48 56 40
f 48 40 44
f 48 52 56
f 48 47 52
f 48 43 47
f 48 44 43
