# Convex collision proxy; SI metres, original target-root coordinates.
v 0.039825215046750059 0.016232293946540854 0.017940856157502124
v 0.039825215046750059 0.016232293946540854 0.021635462939894105
v 0.039825215046750059 0.012049234037252977 0.018639463621230756
v 0.026956969881554351 0.016232293946540854 0.02344145067105052
v 0.028835657508988869 0.016232293946540854 0.024335993722326487
v 0.039825215046750059 0.014905918277434179 0.020997576757112574
v 0.039825215046750059 0.012049234037252977 0.019622271442865893
v 0.035120859632186335 0.012049234037252977 0.020777853455647005
v 0.026822050738530574 0.016232293946540854 0.023499667959694572
v 0.028050325193964117 0.014094694622366899 0.023499667959694572
v 0.039722116496507504 0.012049234037252977 0.019647937044531046
v 0.039825215046750059 0.012172085121437737 0.019681740727661472
v 0.035104312583202929 0.01205455805558741 0.020784739328000023
f 4 3 9
f 4 1 3
f 10 5 9
f 8 9 3
f 8 10 9
f 6 2 5
f 13 10 8
f 11 13 8
f 11 5 10
f 11 10 13
f 12 11 7
f 12 6 5
f 12 5 11
f 4 9 5
f 4 2 1
f 4 5 2
f 11 3 7
f 11 8 3
f 12 1 2
f 12 3 1
f 12 7 3
f 12 2 6
