# Convex collision proxy; SI metres, original target-root coordinates.
v -0.02581114274916187 -0.03753742590413315 0.030554468813135869
v -0.030971074880419894 -0.032837197204497626 0.030376307139910352
v -0.030977649404234097 -0.03753742590413315 0.032083971127292513
v -0.02581114274916187 -0.03753742590413315 0.016417502723396604
v -0.02581114274916187 -0.032837197204497626 0.028779574399445059
v -0.030977649404234097 -0.032837197204497626 0.030377987826031811
v -0.030977649404234097 -0.03753742590413315 0.014913212830669193
v -0.030977649404234097 -0.032837197204497626 0.016620875966208416
v -0.026542423932307213 -0.032837197204497626 0.017992385266518519
v -0.026444818703389619 -0.032837197204497626 0.01802263889446919
v -0.02581114274916187 -0.032837197204497626 0.018219289392795164
f 2 3 1
f 6 3 2
f 5 2 1
f 8 4 7
f 9 4 8
f 10 11 4
f 10 4 9
f 4 3 7
f 4 1 3
f 4 11 5
f 4 5 1
f 8 7 3
f 8 3 6
f 10 2 5
f 10 6 2
f 10 5 11
f 10 8 6
f 10 9 8
