# Convex collision proxy; SI metres, original target-root coordinates.
v 0.021240431693636364 0.037483257089871727 0.027948682177174666
v 0.017442840933876387 0.043287501878066709 0.025029528248425338
v 0.019994021928069889 0.037483257089871727 0.027307995773709962
v 0.021240431693636364 0.037483257089871727 0.017826402115034428
v 0.021240431693636364 0.048161096335602352 0.026169469147182829
v 0.017442840933876387 0.037483257089871727 0.025995507912909013
v 0.017442840933876387 0.052291038726928349 0.023528935792164796
v 0.021240431693636364 0.047469631574871191 0.01358061675133764
v 0.021043786733886148 0.037483257089871727 0.017868831559709565
v 0.017442840933876387 0.049055505860498491 0.013500000039796243
v 0.021240431693636364 0.050889264736090956 0.02571405858175627
v 0.017442840933876387 0.037483257089871727 0.01864812132688547
v 0.019937147356849778 0.05142707066110408 0.024954569051726841
v 0.017442840933876387 0.052292488563601185 0.015355586538716937
v 0.021240431693636364 0.047659529512666554 0.013500000039796243
v 0.017442840933876387 0.052276542063885906 0.013501414099065866
v 0.021240431693636364 0.050835629297625515 0.013500000039796243
v 0.021240431693636364 0.050889264736090956 0.019830491670318095
f 5 2 1
f 7 2 5
f 7 5 11
f 13 14 7
f 13 7 11
f 16 14 17
f 16 17 10
f 3 2 6
f 3 1 2
f 18 13 11
f 18 17 14
f 18 14 13
f 9 12 10
f 9 10 4
f 15 10 17
f 8 4 10
f 8 10 15
f 16 6 2
f 16 2 7
f 16 10 12
f 16 7 14
f 16 12 6
f 9 6 12
f 9 4 1
f 9 1 3
f 9 3 6
f 8 11 5
f 8 5 1
f 8 1 4
f 8 18 11
f 8 17 18
f 8 15 17
