# Convex collision proxy; SI metres, original target-root coordinates.
v 0.052372420275441589 0.0026219843672370818 0.01349999984463472
v 0.05541397488823023 0.0016357120965631924 0.013500438543747181
v 0.055306092387654347 -0.0030253032713209831 0.013500438543747181
v 0.052351579086149472 -0.0030253032713209831 0.013500438543747181
v 0.052346675878205164 -0.0030253032713209831 0.013501753789241623
v 0.042914300815773528 -0.0030253032713209831 0.017979255781404788
v 0.055437267681494498 -0.0003904559576570904 0.014538261793428308
v 0.055326933576946465 -0.0030253032713209831 0.013815687725960774
v 0.053309036917642653 -0.0030253032713209831 0.016246919874280692
v 0.055326933576946465 -0.0030253032713209831 0.015910625060470144
f 2 6 7
f 2 1 6
f 2 7 3
f 2 3 1
f 5 6 1
f 9 7 6
f 9 10 7
f 8 3 7
f 8 7 10
f 4 1 3
f 4 5 1
f 4 9 6
f 4 6 5
f 4 3 8
f 4 10 9
f 4 8 10
