# Convex collision proxy; SI metres, original target-root coordinates.
v 0.049565032174925805 -0.016811206512263466 0.013500000696477658
v 0.050520346769589955 -0.013762842267037926 0.013500000696477658
v 0.052787715855055303 -0.016811206512263466 0.013500000696477658
v 0.036161476932486898 -0.016811206512263466 0.019439275390330774
v 0.053595532141524058 -0.013762842267037926 0.013500000696477658
v 0.036161476932486898 -0.013762842267037926 0.020003263987858781
v 0.052897484335893301 -0.016522037353403404 0.013500000696477658
v 0.052798007821417907 -0.016811206512263466 0.014613070640139409
v 0.036161476932486898 -0.016811206512263466 0.026190991877799538
v 0.053681287169973224 -0.013762842267037926 0.020831855658752774
v 0.036161476932486898 -0.013762842267037926 0.024623252044377132
v 0.052897484335893301 -0.016522037353403404 0.023253032440085791
v 0.052798007821417907 -0.016811206512263466 0.02341825397946384
v 0.036363859481101303 -0.013762842267037926 0.024589710728740038
v 0.047395422288575219 -0.016811206512263466 0.024318897081482466
v 0.05110519827840497 -0.013762842267037926 0.022133750644768052
v 0.053681287169973224 -0.013762842267037926 0.021703926457945482
f 2 1 4
f 6 2 4
f 14 11 9
f 7 5 10
f 16 13 12
f 16 12 17
f 16 14 9
f 8 3 7
f 15 13 16
f 15 16 9
f 9 11 6
f 9 6 4
f 7 2 5
f 7 3 1
f 7 1 2
f 7 10 17
f 7 17 12
f 16 10 5
f 16 2 6
f 16 5 2
f 16 6 11
f 16 17 10
f 16 11 14
f 8 7 12
f 8 12 13
f 15 9 4
f 15 4 1
f 15 8 13
f 15 1 3
f 15 3 8
