# Convex collision proxy; SI metres, original target-root coordinates.
v -0.022495442806820622 0.032081117919457253 0.019451611998797878
v -0.022495442806820622 0.039551322092358288 0.016454925693869464
v -0.018376225152475851 0.039551322092358288 0.017396570327475307
v -0.018376225152475851 0.032081117919457253 0.020525066973539348
v -0.022495442806820622 0.032081117919457253 0.026655242575923343
v -0.022495442806820622 0.039551322092358288 0.024819884593532755
v -0.018376225152475851 0.039551322092358288 0.022837737889910448
v -0.018376225152475851 0.032081117919457253 0.024673095872301036
v -0.022495442806820622 0.032095011051665123 0.026652247070272712
v -0.022495442806820622 0.036979600631015984 0.025451974831708621
v -0.020624757407547729 0.039551322092358288 0.023920179807525279
v -0.018376225152475851 0.038942941837234686 0.022987522223273164
f 2 3 1
f 4 1 3
f 10 11 6
f 9 5 8
f 9 11 10
f 12 7 11
f 12 9 8
f 12 11 9
f 8 5 1
f 8 1 4
f 9 1 5
f 9 2 1
f 9 6 2
f 9 10 6
f 7 2 6
f 7 3 2
f 7 6 11
f 12 8 4
f 12 3 7
f 12 4 3
