# Convex collision proxy; SI metres, original target-root coordinates.
v 0.022064759248549809 0.024743622744855698 0.022587204262704913
v 0.019111527982127667 0.024743622744855698 0.023499836046440292
v 0.017442840933876387 0.025856964848014377 0.023499836046440292
v 0.017442840933876387 0.03005109019700853 0.021807688118269428
v 0.022064759248549809 0.03005109019700853 0.020611903591202105
v 0.022064759248549809 0.024743622744855698 0.024412467815201865
v 0.017442840933876387 0.03005109019700853 0.025184087375643725
v 0.022064759248549809 0.03005109019700853 0.026374231318246455
f 4 1 3
f 4 5 1
f 4 3 7
f 6 8 7
f 6 7 3
f 2 1 6
f 2 3 1
f 2 6 3
f 4 7 8
f 4 8 5
f 6 5 8
f 6 1 5
