# Convex collision proxy; SI metres, original target-root coordinates.
v -0.012155334181421189 -0.031191618512063944 0.024777687181252315
v -0.0070524082315793594 -0.040440065390459051 0.0206139796188817
v -0.0087438923141510833 -0.030345525511486626 0.023164630148598184
v -0.0091190558709155038 -0.029490320772897052 0.023499535607998109
v -0.012155334181421189 -0.028313601120009566 0.023499535607998109
v -0.012155334181421189 -0.041571225927363772 0.02304804926633968
v -0.0072202570682466174 -0.041611577727451721 0.020505170738650901
v -0.0070524082315793594 -0.033903020961950275 0.021702068847111178
v -0.0070524082315793594 -0.04149052232718789 0.020438754887154034
v -0.012155334181421189 -0.03542598836298945 0.020328532799485068
v -0.0070524082315793594 -0.041611577727451721 0.018126211922066669
v -0.0085970243691064971 -0.041611577727451721 0.017954519995973681
v -0.012152836577919863 -0.041611577727451721 0.017559557479666428
v -0.012155334181421189 -0.041611577727451721 0.023040983655070322
v -0.0070524082315793594 -0.041611577727451721 0.020418264870025783
v -0.012155334181421189 -0.041611577727451721 0.017574395731845695
f 4 5 1
f 3 1 2
f 3 4 1
f 7 6 14
f 7 1 6
f 7 2 1
f 10 13 16
f 10 5 13
f 8 3 2
f 8 5 4
f 8 4 3
f 9 7 15
f 9 2 7
f 11 5 8
f 12 13 5
f 12 5 11
f 10 6 1
f 10 1 5
f 10 14 6
f 10 16 14
f 11 2 9
f 11 8 2
f 11 9 15
f 12 14 16
f 12 7 14
f 12 16 13
f 12 15 7
f 12 11 15
