# Convex collision proxy; SI metres, original target-root coordinates.
v -0.053258370107669956 0.011629043916553887 0.013500000136564144
v -0.053295822233771398 0.011629043916553887 0.020525554227693241
v -0.052880850359554699 0.013491509031587166 0.021552486439892393
v -0.052719054721488863 0.013762826966541235 0.013500000136564144
v -0.050152816573063697 0.011629043916553887 0.013500000136564144
v -0.043435351068649007 0.011629043916553887 0.022168854852058169
v -0.050227720825266581 0.013762826966541235 0.022133335344595967
v -0.052802947620250951 0.013762826966541235 0.021703966899001906
v -0.052802947620250951 0.013762826966541235 0.020831648863077704
v -0.040656381334374818 0.013762826966541235 0.023728579889151086
v -0.044662291953709431 0.013762826966541235 0.023061021680010063
v -0.049641964666424829 0.013762826966541235 0.013500000136564144
v -0.037991268073798309 0.013762826966541235 0.018791365157494019
v -0.037991268073798309 0.011629043916553887 0.019142381942562122
v -0.038380773251887795 0.011629043916553887 0.023010876668384028
v -0.037991268073798309 0.013762826966541235 0.024172574051869709
v -0.037991268073798309 0.011629043916553887 0.023075647397134628
f 3 1 2
f 3 4 1
f 6 3 2
f 9 4 3
f 9 3 8
f 5 12 13
f 5 13 14
f 15 17 16
f 15 16 6
f 7 8 3
f 7 3 11
f 10 11 3
f 10 3 6
f 10 6 16
f 16 17 14
f 16 14 13
f 5 4 12
f 5 1 4
f 15 6 2
f 15 2 1
f 15 14 17
f 15 1 5
f 15 5 14
f 10 16 13
f 10 13 12
f 10 12 4
f 10 4 9
f 10 9 8
f 10 8 7
f 10 7 11
