# Convex collision proxy; SI metres, original target-root coordinates.
v 0.021355997769412809 -0.030056653742728926 0.026183227755351937
v 0.021355997769412809 -0.025619630475080275 0.024489403880361985
v 0.017237945385768699 -0.028604553717586512 0.024557127949367596
v 0.017237945385768699 -0.029069629294741828 0.024443293835152917
v 0.017237945385768699 -0.032939755773076188 0.023492273806654716
v 0.021355997769412809 -0.034990858547821455 0.024970677463921575
v 0.021355997769412809 -0.025619630475080275 0.022508832848942069
v 0.017826930036513141 -0.025619630475080275 0.023499478587733932
v 0.017237945385768699 -0.026048931204418171 0.023499478587733932
v 0.017237945385768699 -0.034990858547821455 0.022987945094010226
v 0.021355997769412809 -0.034990858547821455 0.018822910377989749
v 0.017237945385768699 -0.034990858547821455 0.01977393040648795
f 5 6 1
f 2 3 1
f 4 1 3
f 4 5 1
f 10 6 5
f 8 2 7
f 8 3 2
f 12 7 11
f 12 8 7
f 9 3 8
f 9 8 12
f 2 6 11
f 2 1 6
f 2 11 7
f 12 11 6
f 12 6 10
f 9 5 4
f 9 4 3
f 9 10 5
f 9 12 10
