# Convex collision proxy; SI metres, original target-root coordinates.
v -0.031055299147468556 -0.032836737209309796 0.016595161383365802
v -0.031055299147468556 -0.026528005429379664 0.018641765158313742
v -0.026445058497177348 -0.032836737209309796 0.018022647412898593
v -0.031055299147468556 -0.032836737209309796 0.030405007432259157
v -0.027540683979900768 -0.026528005429379664 0.019871890252508243
v -0.025028474353596116 -0.02998064045136193 0.019497445651185545
v -0.025028474353596116 -0.032836737209309796 0.018461977742836422
v -0.031055299147468556 -0.026528005429379664 0.028350292408832488
v -0.025028474353596116 -0.032836737209309796 0.028536839198042081
v -0.025563602301731953 -0.026528005429379664 0.020564004975017244
v -0.025028474353596116 -0.029842930297088566 0.019547461609432611
v -0.025028474353596116 -0.031855475048710225 0.028181319139483865
v -0.025028474353596116 -0.026528005429379664 0.026249617051398118
v -0.025028474353596116 -0.026528005429379664 0.026098216875988997
v -0.025028474353596116 -0.02652862258959 0.020751903213051821
v -0.025028474353596116 -0.026539738288119608 0.020747847801773193
f 7 2 6
f 3 1 2
f 3 2 7
f 9 8 4
f 10 11 6
f 12 13 8
f 12 8 9
f 14 15 10
f 16 10 15
f 16 11 10
f 5 6 2
f 5 10 6
f 8 1 4
f 8 2 1
f 9 4 1
f 9 1 3
f 9 3 7
f 16 6 11
f 16 7 6
f 16 13 12
f 16 9 7
f 16 14 13
f 16 12 9
f 16 15 14
f 5 2 8
f 5 8 13
f 5 13 14
f 5 14 10
