# Convex collision proxy; SI metres, original target-root coordinates.
v -0.0025861053995784103 -0.054888352390028157 0.013815660905136001
v 4.7966748176118262e-05 -0.054997453026466053 0.014538171939288195
v -0.0025861053995784103 -0.054888352390028157 0.015910416805977358
v -0.0025861053995784103 -0.054867512904333594 0.013500000281446163
v 0.002074516436620568 -0.054975386886937275 0.013500000281446163
v -0.0025861053995784103 -0.05042991717942498 0.016653533069015496
v -0.0025861053995784103 -0.051913202328927384 0.013500000281446163
v 0.003060705230866094 -0.051932815160787731 0.013500000281446163
v 0.00043934598715446999 -0.047684003164650261 0.015555737516401342
v -0.0025861053995784103 -0.0432415050836195 0.017851288131473842
v -0.0025861053995784103 -0.051907072467128085 0.013502192925174818
v -0.0025861053995784103 -0.042475345617199914 0.017978429097704064
v -0.0020908013218681847 -0.04336899445361235 0.017575085298705967
f 3 1 2
f 9 5 8
f 11 12 8
f 11 8 7
f 4 2 1
f 4 5 2
f 13 8 12
f 13 9 8
f 10 13 12
f 10 9 13
f 6 9 10
f 6 3 2
f 6 2 5
f 6 5 9
f 4 7 8
f 4 8 5
f 6 4 1
f 6 1 3
f 6 12 11
f 6 11 7
f 6 7 4
f 6 10 12
