# Convex collision proxy; SI metres, original target-root coordinates.
v 0.0035723242092758419 0.051903674464711724 0.013500534409038249
v -0.0047850066719315318 0.051730792568754985 0.013500534409038249
v -0.0026676803422655297 0.030832432778456095 0.023499021038421376
v 0.0023100720562337492 0.030934128193680153 0.023499021038421376
v 0.0072471070057558915 0.030232428898861664 0.023499021038421376
v 0.011858398876814122 0.050724010127505936 0.013500534409038249
v 0.048728377251520016 0.004818802202782569 0.013496617355037814
v 0.046142797740483132 0.004818802202782569 0.013496617355037814
v -0.013010004972301507 0.050225704762377185 0.013500534409038249
v -0.0075843563735965031 0.029937514364181031 0.023499021038421376
v 0.012011090763247892 0.028747681415225327 0.023499021038421376
v 0.019849270392796055 0.048232480202620553 0.013500534409038249
v 0.050978036162023413 0.0035272734511976071 0.013496617355037814
v 0.027331166629567541 0.044490096360555093 0.013500534409038249
v 0.043903316739454509 0.0035272734511976071 0.013496617355037814
v -0.028228287022475713 0.043371449892332076 0.013500534409038249
v -0.020899081122517187 0.047408748269078163 0.013500534409038249
v -0.012277083917419411 0.028259544661846495 0.023499021038421376
v 0.016469691522682756 0.026520557090529202 0.023499021038421376
v 0.052270829016783475 0.0012798097722730296 0.013496617355037814
v 0.034120864296701699 0.039598557115775229 0.013500534409038249
v 0.04004530329184873 0.033690066817996411 0.013500534409038249
v 0.044931440558487745 0.026896826717692439 0.013500534409038249
v 0.020521113143483833 0.023601903632385322 0.023499021038421376
v 0.042610526983936067 0.0012798097722730296 0.013496617355037814
v -0.045105820905230215 0.025086654215263276 0.013500534409038249
v -0.040484349575076406 0.032062943273653097 0.013500534409038249
v -0.03481439240845656 0.03821550194812133 0.013500534409038249
v -0.016644068770183609 0.025859536891572825 0.023499021038421376
v 0.052433700362312832 0.00025268833998790956 0.013496617355037814
v 0.048667300496946508 0.019412062132803137 0.013500534409038249
v 0.051161266425743937 0.011418820471793547 0.013500534409038249
v 0.024043204440935315 0.020083250943509438 0.023499021038421376
v 0.026964706102126493 0.01603578240539261 0.023499021038421376
v 0.029194006094438722 0.011571362819819228 0.023499021038421376
v 0.042610526983936067 -0.0012930785380391705 0.013496617355037814
v -0.051549413863872878 0.0010459107821439383 0.013500534409038249
v -0.05070452030856016 0.0093645772682437543 0.013500534409038249
v -0.048536297070821438 0.017449344957917081 0.013500534409038249
v -0.028757618895446115 0.010401868643984177 0.023499021038421376
v -0.02671154916685441 0.01494764332204016 0.023499021038421376
v -0.023952917301571775 0.019117146048501694 0.023499021038421376
v -0.02057333843145848 0.022778173248463745 0.023499021038421376
v 0.052443878271787606 -1.1719163934724103e-05 0.01351228595844476
v 0.052433700362312832 -0.00027612666180415148 0.013496617355037814
v 0.052342083680831757 0.0031306621453747051 0.013500534409038249
v 0.030670029212919309 0.0068018585381944795 0.023499021038421376
v 0.043903316739454509 -0.0035405424106663493 0.013496617355037814
v -0.04607286796968995 -0.02322873125369929 0.013500534409038249
v -0.049197960362413633 -0.015469387808008384 0.013500534409038249
v -0.051040440909093647 -0.0073032642510420546 0.013500534409038249
v -0.030549203696269015 0.00061879102608615954 0.023499021038421376
v -0.030050408650964557 0.0055815162673421969 0.023499021038421376
v 0.052169034425827626 -0.0052185128878112878 0.013500534409038249
v 0.052433700362312832 -0.00027612666180415148 0.013500534409038249
v 0.031372410340893844 0.0018696419408759199 0.023499021038421376
v 0.031270615749937988 -0.003113422364054669 0.023499021038421376
v 0.052270829016783475 -0.0012930785380391705 0.013496617355037814
v 0.046142797740483132 -0.0048320711622513116 0.013496617355037814
v -0.022792458964675126 -0.046516930202521928 0.013500534409038249
v -0.029948614060008712 -0.042184714191853573 0.013500534409038249
v -0.036320952354603087 -0.036764360647453587 0.013500534409038249
v -0.04174659940368728 -0.030388070819795766 0.013500534409038249
v -0.027291776785681926 -0.013842264263665071 0.023499021038421376
v -0.029154616250553107 -0.009215133718316084 0.023499021038421376
v -0.030243819923401475 -0.0043541037954328036 0.023499021038421376
v 0.050662474479681099 -0.013455822925510296 0.013500534409038249
v 0.030374823349526545 -0.0080151306079896522 0.023499021038421376
v 0.047852943769299737 -0.02133720055954591 0.013500534409038249
v 0.043811703157215054 -0.028669423571219932 0.013500534409038249
v 0.050978036162023413 -0.0035405424106663493 0.013496617355037814
v 0.04873855826023641 -0.0048320711622513116 0.013496617355037814
v 0.0014855364505991953 -0.051988129904913138 0.013500534409038249
v -0.006861614777809992 -0.051479655928034468 0.013500534409038249
v -0.015025536323606458 -0.049638972941493109 0.013500534409038249
v -0.0087753523129695029 -0.029594850919986378 0.023499021038421376
v -0.013407003877029307 -0.027723658998953647 0.023499021038421376
v -0.017672194138837662 -0.025150769332723238 0.023499021038421376
v -0.021479310290965514 -0.021916862566778071 0.023499021038421376
v -0.024706195725024232 -0.018113462405350663 0.023499021038421376
v 0.028705395157092278 -0.012713448408881722 0.023499021038421376
v 0.026292863351438715 -0.017086341190980969 0.023499021038421376
v 0.023218668254192956 -0.021011775540753085 0.023499021038421376
v 0.038650718945374439 -0.035249101130084254 0.013500534409038249
v 0.032502328750882929 -0.040923694762165203 0.013500534409038249
v 0.025519224460174281 -0.045540656695764264 0.013500534409038249
v 0.017894814246443801 -0.048977954292157552 0.013500534409038249
v 0.0098021496891268316 -0.051144060747870909 0.013500534409038249
v 0.0060255723016909351 -0.030489766235019825 0.023499021038421376
v 0.0010579993622872408 -0.030988074699390196 0.023499021038421376
v -0.0039095735771164531 -0.030682988453718019 0.023499021038421376
v 0.019554066079024098 -0.024398225429534341 0.023499021038421376
v 0.015390668858550784 -0.027143995442100676 0.023499021038421376
v 0.010840453742066061 -0.029198237870840065 0.023499021038421376
f 1 3 4
f 1 2 3
f 63 48 62
f 63 49 48
f 63 62 79
f 52 37 51
f 64 49 63
f 75 74 76
f 75 76 60
f 90 74 73
f 14 13 7
f 70 84 71
f 85 71 84
f 59 73 74
f 59 74 75
f 59 60 48
f 59 75 60
f 50 65 51
f 50 64 65
f 50 49 64
f 53 37 52
f 66 51 65
f 66 52 51
f 80 63 79
f 80 64 63
f 77 60 76
f 77 78 60
f 61 78 79
f 61 79 62
f 61 60 78
f 61 62 48
f 61 48 60
f 89 90 73
f 89 87 94
f 91 76 74
f 91 74 90
f 69 67 81
f 69 81 70
f 86 71 85
f 86 94 87
f 92 86 85
f 92 85 84
f 54 44 57
f 88 89 73
f 88 87 89
f 27 42 28
f 27 26 42
f 8 9 2
f 8 2 1
f 8 1 7
f 36 48 49
f 36 49 50
f 36 50 51
f 36 51 37
f 36 37 25
f 38 37 53
f 38 25 37
f 68 81 67
f 68 67 54
f 68 54 57
f 56 57 44
f 10 3 2
f 10 2 9
f 17 9 8
f 17 10 9
f 41 26 40
f 41 42 26
f 43 29 28
f 43 28 42
f 6 7 1
f 23 35 31
f 23 13 22
f 23 20 13
f 23 31 20
f 21 13 14
f 21 22 13
f 93 94 86
f 93 86 92
f 83 84 70
f 83 92 84
f 55 44 54
f 58 54 67
f 58 67 69
f 58 70 71
f 58 69 70
f 72 73 59
f 72 88 73
f 72 87 88
f 72 86 87
f 72 71 86
f 15 25 26
f 15 26 27
f 15 27 28
f 39 26 25
f 39 25 38
f 39 40 26
f 39 53 40
f 39 38 53
f 32 30 20
f 32 20 31
f 32 31 35
f 16 28 29
f 16 29 17
f 16 15 28
f 16 8 15
f 16 17 8
f 18 17 29
f 18 10 17
f 34 35 23
f 34 23 22
f 34 22 33
f 24 14 19
f 24 21 14
f 24 33 22
f 24 22 21
f 82 70 81
f 82 83 70
f 45 54 58
f 45 55 54
f 45 30 44
f 45 44 55
f 46 56 44
f 46 44 30
f 46 30 32
f 47 32 35
f 47 56 46
f 47 46 32
f 5 11 6
f 5 1 4
f 5 6 1
f 12 11 19
f 12 19 14
f 12 6 11
f 12 14 7
f 12 7 6
f 45 8 7
f 45 7 13
f 45 59 48
f 45 48 36
f 45 58 71
f 45 13 20
f 45 20 30
f 45 71 72
f 45 36 25
f 45 25 15
f 45 72 59
f 45 15 8
f 5 4 3
f 5 18 29
f 5 66 65
f 5 82 81
f 5 3 10
f 5 79 78
f 5 89 94
f 5 40 53
f 5 65 64
f 5 80 79
f 5 77 76
f 5 76 91
f 5 81 68
f 5 53 52
f 5 52 66
f 5 64 80
f 5 78 77
f 5 90 89
f 5 91 90
f 5 47 35
f 5 41 40
f 5 29 43
f 5 94 93
f 5 68 57
f 5 57 56
f 5 24 19
f 5 42 41
f 5 43 42
f 5 35 34
f 5 93 92
f 5 92 83
f 5 10 18
f 5 19 11
f 5 34 33
f 5 33 24
f 5 83 82
f 5 56 47
