# Convex collision proxy; SI metres, original target-root coordinates.
v 0.017442535122263257 0.033544626269689244 0.026652616570367368
v 0.017442535122263257 0.036299458205839609 0.026193664893866212
v 0.014928769625238255 0.032252564111708702 0.025575365135654851
v 0.014317462432707333 0.031910126659809933 0.025317617908205518
v 0.017442535122263257 0.025856651795736315 0.023499434501490606
v 0.014317462432707333 0.036299458205839609 0.02458623227375804
v 0.014317462432707333 0.036133861643251386 0.024614136518652453
v 0.014317462432707333 0.035605383824281647 0.024702255304428895
v 0.017442535122263257 0.036299458205839609 0.019150775101404421
v 0.014317462432707333 0.032546958048079049 0.025211875237497346
v 0.014317462432707333 0.027660836601323957 0.023499434501490606
v 0.014317462432707333 0.036299458205839609 0.01972574948913533
f 5 1 4
f 11 5 4
f 3 4 1
f 2 3 1
f 12 9 5
f 12 5 11
f 10 4 3
f 8 3 2
f 8 10 3
f 7 2 6
f 7 8 2
f 2 5 9
f 2 1 5
f 12 2 9
f 12 6 2
f 7 6 12
f 7 12 11
f 7 11 4
f 7 4 10
f 7 10 8
