# Convex collision proxy; SI metres, original target-root coordinates.
v -0.045138606740740952 0.030622149502579334 0.013500000136564144
v -0.043384357195546827 0.033234015765513374 0.013500000136564144
v -0.041533275257538832 0.030622149502579334 0.013500000136564144
v -0.045195952806545175 0.030622149502579334 0.026279953804432293
v -0.044379934986272337 0.031879083777077766 0.032419342939908072
v -0.039299568476757758 0.038025277859770973 0.013500000136564144
v -0.043385296778294627 0.033234015765513374 0.033282695116071341
v -0.04312582627476072 0.033572749401504468 0.033498043563390215
v -0.035593644991986161 0.037381898786173921 0.013500000136564144
v -0.035593644991986161 0.030622149502579334 0.015706343167020957
v -0.045195952806545175 0.030622149502579334 0.031638215754057022
v -0.035593644991986161 0.041478652490706994 0.013500000136564144
v -0.039592883551599865 0.037716370652004311 0.033500001098435053
v -0.039298628042167029 0.038025277859770973 0.033282695116071341
v -0.038118787256192277 0.039221496177848397 0.032419342939908072
v -0.035593644991986161 0.041504216296927805 0.018476507826886566
v -0.040085501760399461 0.032586375347677082 0.033500001098435053
v -0.035593644991986161 0.030622149502579334 0.031291700532933404
v -0.0408864777382782 0.030622149502579334 0.032356696707415873
v -0.038138529567854171 0.034869095892677955 0.033498043563390215
v -0.035593644991986161 0.034446212101361007 0.032378231296594881
v -0.035593644991986161 0.041504216296927805 0.030643697230010473
v -0.039284526634363652 0.030622149502579334 0.032622945325115026
v -0.035593644991986161 0.033953024861486575 0.032321457669237184
v -0.035593644991986161 0.034277910087023439 0.032419342939908072
v -0.038433724660034807 0.030622149502579334 0.032321457669237184
f 12 6 16
f 3 9 10
f 5 1 4
f 5 2 1
f 5 4 11
f 15 22 16
f 15 16 6
f 14 6 13
f 14 15 6
f 14 22 15
f 14 21 22
f 14 13 21
f 19 17 11
f 19 23 17
f 7 5 11
f 7 11 17
f 7 2 5
f 20 13 17
f 20 17 25
f 20 25 21
f 20 21 13
f 24 26 18
f 24 23 26
f 24 25 17
f 24 17 23
f 8 17 13
f 8 7 17
f 8 2 7
f 8 6 2
f 8 13 6
f 3 1 2
f 3 12 9
f 3 2 6
f 3 6 12
f 19 10 18
f 19 4 1
f 19 11 4
f 19 1 3
f 19 3 10
f 19 18 26
f 19 26 23
f 24 9 12
f 24 10 9
f 24 18 10
f 24 12 16
f 24 16 22
f 24 22 21
f 24 21 25
