# Convex collision proxy; SI metres, original target-root coordinates.
v -0.015222968830563927 -0.032855246052719354 0.026077526675769746
v -0.015222968830563927 -0.033148250848604913 0.026028272903993628
v -0.014719054324411883 -0.033148250848604913 0.02576956117528224
v -0.012155335885107071 -0.031571158518415167 0.024713976250532402
v -0.012155335885107071 -0.031190502597811989 0.024777228463828897
v -0.015222968830563927 -0.026752230296647937 0.02349974253262738
v -0.015222968830563927 -0.033148250848604913 0.020780937214872539
v -0.012192573347404817 -0.033148250848604913 0.024470299975640989
v -0.012155335885107071 -0.033148250848604913 0.024451117005024451
v -0.012155335885107071 -0.028313670545209207 0.02349974253262738
v -0.012155335885107071 -0.033148250848604913 0.021348132790500685
f 5 1 4
f 5 6 1
f 8 9 4
f 10 6 5
f 3 4 1
f 3 8 4
f 11 7 6
f 11 6 10
f 2 3 1
f 11 5 4
f 11 4 9
f 11 10 5
f 2 9 8
f 2 11 9
f 2 8 3
f 2 7 11
f 2 1 6
f 2 6 7
