# Convex collision proxy; SI metres, original target-root coordinates.
v 0.04979311816957932 0.016232293946540854 0.013500000039796243
v 0.052895267765794521 0.016232293946540854 0.013500000039796243
v 0.050976484743322684 0.012049234037252977 0.013500000039796243
v 0.039826609513632219 0.016232293946540854 0.017940518827700456
v 0.052977600089004005 0.016232293946540854 0.017539151733504489
v 0.053932107132859189 0.01278388041996956 0.013500000039796243
v 0.054066074767326236 0.012049234037252977 0.013500000039796243
v 0.045201993125109301 0.012049234037252977 0.016151887609275013
v 0.039826609513632219 0.012049234037252977 0.01863892908978998
v 0.039826609513632219 0.016232293946540854 0.02163484535376731
v 0.052977600089004005 0.016232293946540854 0.01840400188268641
v 0.053111566019785186 0.015824840434584965 0.018174649135739726
v 0.053932107132859189 0.01278388041996956 0.016510251116658659
v 0.054081424976988063 0.012049234037252977 0.016120033794619387
v 0.054080027954577108 0.012049234037252977 0.013706258472972573
v 0.039826609513632219 0.012049234037252977 0.019621640653173632
v 0.039826609513632219 0.014905918277434179 0.020996958958025048
v 0.045919268726725776 0.016232293946540854 0.02013847995510357
v 0.039826609513632219 0.012172085121437737 0.019681367620456594
v 0.050567608653667842 0.012049234037252977 0.01698329057159418
v 0.044628452389035483 0.012049234037252977 0.018442227482484683
f 3 4 1
f 13 14 6
f 8 9 4
f 8 4 3
f 15 7 6
f 15 6 14
f 12 11 13
f 12 13 6
f 18 13 11
f 18 10 17
f 18 17 19
f 18 14 13
f 18 19 14
f 21 19 16
f 5 11 12
f 5 6 2
f 5 12 6
f 20 14 19
f 20 19 21
f 2 7 3
f 2 3 1
f 2 6 7
f 10 9 16
f 10 4 9
f 10 16 19
f 10 19 17
f 5 2 1
f 5 1 4
f 5 18 11
f 5 4 10
f 5 10 18
f 20 15 14
f 20 8 3
f 20 16 9
f 20 3 7
f 20 9 8
f 20 7 15
f 20 21 16
