# Convex collision proxy; SI metres, original target-root coordinates.
v -0.052718925241364054 0.013763240962203459 0.013500000136564144
v -0.052802692067373036 0.013763240962203459 0.020831203136266473
v -0.05202002560135402 0.016522048426253041 0.013500000136564144
v -0.049642020888057976 0.013763240962203459 0.013500000136564144
v -0.052802692067373036 0.013763240962203459 0.021703994583897015
v -0.05202002560135402 0.016522048426253041 0.023253719623916369
v -0.051511168710848744 0.017989163868878902 0.019148050105394287
v -0.051463658023472553 0.017989163868878902 0.013500000136564144
v -0.048254225651365362 0.017989163868878902 0.013500000136564144
v -0.040031225736501919 0.017989163868878902 0.017164989587272701
v -0.040031225736501919 0.013763240962203459 0.01787864655413943
v -0.050227144979448343 0.013763240962203459 0.022133657767143603
v -0.044739727883089525 0.013763240962203459 0.023048068982392918
v -0.043514465980436998 0.017989163868878902 0.02542529340756839
v -0.050272154655992662 0.017989163868878902 0.024299110633448088
v -0.051511168710848744 0.017989163868878902 0.024092235893639423
v -0.040031225736501919 0.017989163868878902 0.026004297859375608
v -0.040031225736501919 0.013763240962203459 0.023831499977438369
v -0.040031225736501919 0.015273799542232024 0.024608810906979209
v -0.040031225736501919 0.01737021139119594 0.025687252996133197
v -0.042020398227620319 0.017989163868878902 0.025673787914995833
f 3 7 8
f 3 1 2
f 4 9 10
f 4 10 11
f 15 16 6
f 15 6 14
f 21 20 17
f 21 14 20
f 13 19 20
f 13 18 19
f 13 14 6
f 13 20 14
f 12 6 5
f 12 13 6
f 3 16 7
f 3 6 16
f 4 8 9
f 4 1 3
f 4 3 8
f 5 6 3
f 5 3 2
f 21 17 10
f 21 7 16
f 21 10 9
f 21 8 7
f 21 9 8
f 21 16 15
f 21 15 14
f 19 10 17
f 19 18 11
f 19 11 10
f 19 17 20
f 12 1 4
f 12 2 1
f 12 11 18
f 12 4 11
f 12 5 2
f 12 18 13
