# Convex collision proxy; SI metres, original target-root coordinates.
v -0.032273497316972342 0.018700062568349995 0.020309293456600205
v -0.032273497316972342 0.013762826966541235 0.021350400548055135
v -0.032273497316972342 0.018700062568349995 0.026685761126525473
v -0.024285129017752354 0.018700062568349995 0.023499399892502298
v -0.032273497316972342 0.013762826966541235 0.025124725103168849
v -0.027280767129959849 0.013762826966541235 0.023499399892502298
v -0.032273497316972342 0.015383763945599049 0.025957985289075378
v -0.031406318449423022 0.013762826966541235 0.02526890718504583
v -0.031552542398794549 0.013762826966541235 0.02524518889652503
v -0.032273497316972342 0.014787390416522845 0.025651520314978669
v -0.031813712541927323 0.014490170493706189 0.025575371946181806
f 2 1 4
f 3 4 1
f 8 4 3
f 6 2 4
f 6 4 8
f 7 8 3
f 10 5 9
f 10 9 7
f 11 9 8
f 11 8 7
f 11 7 9
f 9 5 2
f 9 2 6
f 9 6 8
f 10 3 1
f 10 1 2
f 10 2 5
f 10 7 3
