# Convex collision proxy; SI metres, original target-root coordinates.
v 0.031565562817218902 0.031365215725849147 0.017202892698402458
v 0.026265267669605477 0.031365215725849147 0.0188846491468611
v 0.026265267669605477 0.036691702488139168 0.016866220945399146
v 0.031565562817218902 0.036691702488139168 0.015309513761815184
v 0.031565562817218902 0.031365215725849147 0.029786404677936751
v 0.026265267669605477 0.031365215725849147 0.028114267665804757
v 0.026265267669605477 0.036691702488139168 0.030110251083733157
v 0.031565562817218902 0.036691702488139168 0.031687799030606874
f 3 1 2
f 5 8 7
f 4 1 3
f 6 5 7
f 4 8 5
f 4 5 1
f 4 3 7
f 4 7 8
f 6 7 3
f 6 3 2
f 6 1 5
f 6 2 1
