# Convex collision proxy; SI metres, original target-root coordinates.
v -0.026471869651747928 0.039552351118613362 0.015453597963390856
v -0.026471869651747928 0.044423306526005971 0.013500000136564144
v -0.022296707000252103 0.04676724774436173 0.013500000136564144
v -0.022296707000252103 0.041476665993002662 0.01570103618558958
v -0.022296707000252103 0.039552351118613362 0.016501649278381676
v -0.026471869651747928 0.039552351118613362 0.026734719946876519
v -0.026471869651747928 0.04786465143113558 0.013500000136564144
v -0.022296707000252103 0.04999363860544738 0.013500000136564144
v -0.022296707000252103 0.039552351118613362 0.024724120624709297
v -0.026471869651747928 0.047307207123795172 0.024829054895596021
v -0.024714745349637988 0.039552351118613362 0.025888765384720271
v -0.022296707000252103 0.04900319572388212 0.02240260331954769
v -0.02416132685196767 0.049191412122152715 0.013500000136564144
v -0.026471869651747928 0.047952074366984607 0.023037393260917999
v -0.022296707000252103 0.050057404159544849 0.018755800715317451
v -0.022296707000252103 0.0396428577258559 0.024702097077690544
v -0.026471869651747928 0.047952074366984607 0.024669710009629389
v -0.022296707000252103 0.050057404159544849 0.022143505497294075
v -0.022296707000252103 0.046303395419343224 0.023065894008588255
v -0.02416132685196767 0.049191412122152715 0.02325244441505557
f 2 3 1
f 4 1 3
f 4 5 1
f 10 6 12
f 14 13 7
f 18 17 10
f 18 10 12
f 11 12 6
f 15 8 13
f 20 17 18
f 16 11 9
f 19 12 11
f 19 11 16
f 8 2 7
f 8 3 2
f 8 7 13
f 14 1 6
f 14 2 1
f 14 7 2
f 14 6 10
f 14 10 17
f 11 6 1
f 11 5 9
f 11 1 5
f 20 14 17
f 20 13 14
f 20 18 15
f 20 15 13
f 19 5 4
f 19 4 3
f 19 9 5
f 19 8 15
f 19 3 8
f 19 18 12
f 19 15 18
f 19 16 9
