# Convex collision proxy; SI metres, original target-root coordinates.
v 0.050975999192850584 0.012048196492559966 0.013500000039796243
v 0.054067137867307255 0.012048196492559966 0.013500000039796243
v 0.052134689580496066 0.0056125589073048633 0.013500000039796243
v 0.035123715009699449 0.012048196492559966 0.02077703142721617
v 0.054080745206327122 0.012048196492559966 0.013705880254710095
v 0.054685364579987072 0.0090713598066073618 0.014538659795209815
v 0.054982814502881373 0.0070666411653172966 0.013500000039796243
v 0.047523258304177071 0.0075297046876584978 0.015555948515107521
v 0.039008048935378625 0.010745948422701993 0.019196245199430716
v 0.040648879016018304 0.012048196492559966 0.019419934468633972
v 0.054080745206327122 0.012048196492559966 0.016120159015530613
f 3 4 1
f 9 4 3
f 6 7 2
f 6 3 7
f 6 11 9
f 10 4 9
f 10 9 11
f 5 11 6
f 5 6 2
f 8 9 3
f 8 3 6
f 8 6 9
f 2 3 1
f 2 7 3
f 5 2 1
f 5 1 4
f 5 4 10
f 5 10 11
