# Convex collision proxy; SI metres, original target-root coordinates.
v 0.036789874652231908 -0.021696105370408732 0.028596307556609794
v 0.036789874652231908 -0.021357076566692473 0.028422123564732778
v 0.03625962031276618 -0.021696105370408732 0.028685474216020912
v 0.036789874652231908 -0.021696105370408732 0.018093391660979834
v 0.036789874652231908 -0.018401928642199673 0.026903192201982538
v 0.036789874652231908 -0.017145273756794241 0.026257257591697322
v 0.034384711879228806 -0.017785555537350752 0.026987173906397998
v 0.033884288866449612 -0.016811504657291351 0.026569338344107431
v 0.029170915611336296 -0.021696105370408732 0.025882968240336743
v 0.029170915611336296 -0.021696105370408732 0.021117775249769623
v 0.036789874652231908 -0.016811504657291351 0.019170640757305575
v 0.036789874652231908 -0.016811504657291351 0.026085146772567781
v 0.036274536082589813 -0.016811504657291351 0.026171202075652183
v 0.029170915611336296 -0.016811504657291351 0.024590062220431842
v 0.029170915611336296 -0.020194622732454742 0.021514874612410032
v 0.029170915611336296 -0.018219742437774217 0.022037428504687682
v 0.029170915611336296 -0.016854062730414635 0.022399276264034609
v 0.031884834180806378 -0.016811504657291351 0.021256708277235355
v 0.029170915611336296 -0.016811504657291351 0.023648635993149248
v 0.029170915611336296 -0.016812461276909395 0.022410681163194158
v 0.029334988653474784 -0.016811504657291351 0.022341214755941658
f 3 8 9
f 14 9 8
f 11 4 10
f 2 3 1
f 7 8 3
f 7 6 8
f 7 3 6
f 13 6 12
f 13 8 6
f 5 6 3
f 5 3 2
f 17 11 16
f 15 11 10
f 15 16 11
f 19 21 20
f 18 17 20
f 18 11 17
f 18 20 21
f 10 4 1
f 10 3 9
f 10 1 3
f 5 1 4
f 5 4 11
f 5 12 6
f 5 11 12
f 5 2 1
f 19 10 9
f 19 9 14
f 19 15 10
f 19 20 17
f 19 17 16
f 19 16 15
f 18 12 11
f 18 8 13
f 18 14 8
f 18 13 12
f 18 19 14
f 18 21 19
