# Convex collision proxy; SI metres, original target-root coordinates.
v -0.026930349190468994 0.021924578523154679 0.021541913152529374
v -0.026930349190468994 0.018700062568349995 0.022450834453078872
v -0.026930349190468994 0.021924578523154679 0.025457443237374547
v -0.021431323178709404 0.021924578523154679 0.02349967819495196
v -0.024285002944999249 0.018700062568349995 0.02349967819495196
v -0.026930349190468994 0.018700062568349995 0.024543538442744966
f 2 1 4
f 3 4 1
f 6 4 3
f 5 6 2
f 5 2 4
f 5 4 6
f 6 3 1
f 6 1 2
