# Convex collision proxy; SI metres, original target-root coordinates.
v 0.022141599695775289 -0.034990859399664391 0.025348859098621196
v 0.022141599695775289 -0.034990859399664391 0.018640382158625166
v 0.019277654335312599 -0.034990859399664391 0.02396981695703326
v 0.017237945385768699 -0.036878775048925456 0.02252466456288351
v 0.017237945385768699 -0.052350846013502532 0.018723890025407024
v 0.022141599695775289 -0.047079636809433091 0.022378525583054528
v 0.022056151330783369 -0.034990859399664391 0.018660099341162154
v 0.022141599695775289 -0.047195187600126184 0.01349999984463472
v 0.017237945385768699 -0.049193558315632324 0.01349999984463472
v 0.017237945385768699 -0.034990859399664391 0.022987438034502088
v 0.017237945385768699 -0.052350846013502532 0.016652427352628937
v 0.019253652808724896 -0.051681323020453973 0.01985704727736181
v 0.022141599695775289 -0.050534301172859578 0.021529527375726925
v 0.017237945385768699 -0.034990859399664391 0.019773539410579952
v 0.022141599695775289 -0.049161271764641148 0.01349999984463472
v 0.017237945385768699 -0.052286272911520201 0.013501160054714663
v 0.019253652808724896 -0.051681323020453973 0.013501160054714663
v 0.022141599695775289 -0.050534301172859578 0.02144253994350891
v 0.022141599695775289 -0.050437441519886078 0.013501160054714663
f 5 1 4
f 9 2 8
f 6 1 5
f 6 5 13
f 3 10 4
f 3 4 1
f 12 13 5
f 7 9 14
f 7 2 9
f 11 16 17
f 15 19 17
f 15 9 8
f 15 16 9
f 15 17 16
f 18 17 19
f 7 1 2
f 7 3 1
f 7 10 3
f 7 14 10
f 11 14 9
f 11 5 4
f 11 4 10
f 11 10 14
f 11 9 16
f 11 12 5
f 11 17 12
f 18 8 2
f 18 2 1
f 18 1 6
f 18 6 13
f 18 15 8
f 18 19 15
f 18 12 17
f 18 13 12
