# Convex collision proxy; SI metres, original target-root coordinates.
v 0.012521911186281508 -0.034568383635936256 0.020822619764671091
v 0.017237945385768699 -0.034561711150212185 0.019962548451007828
v 0.017237945385768699 -0.034568383635936256 0.019959848108898125
v 0.012635010373002447 -0.034568383635936256 0.020877077231778743
v 0.014298271188223147 -0.028514241329425375 0.023164749567721618
v 0.014533241840228348 -0.027610999041645792 0.023499596674461047
v 0.017237945385768699 -0.026048047843292694 0.023499596674461047
v 0.017237945385768699 -0.034568383635936256 0.023092289305227498
v 0.017237945385768699 -0.028604315414524937 0.02455769580916535
f 7 2 1
f 6 9 7
f 6 7 1
f 3 1 2
f 4 8 9
f 5 1 4
f 5 6 1
f 5 9 6
f 5 4 9
f 3 7 9
f 3 2 7
f 3 9 8
f 4 3 8
f 4 1 3
