# Convex collision proxy; SI metres, original target-root coordinates.
v 0.017237481983211074 -0.034568384487779193 0.023092307566610456
v 0.017237481983211074 -0.034568384487779193 0.019959033321129062
v 0.012763693174409483 -0.034568384487779193 0.020938357534888818
v 0.012493371040526453 -0.034667335415162571 0.020784369887200751
v 0.012492907637968828 -0.039288183833047108 0.019649179712077254
v 0.012492907637968828 -0.046707677887386903 0.017826678785620088
v 0.016263484769256688 -0.052672772792497824 0.018175968037510284
v 0.017237481983211074 -0.041894528482045168 0.021292341506164533
v 0.012522168442848425 -0.034568384487779193 0.020821927855245663
v 0.017237481983211074 -0.049192667287920412 0.01349999984463472
v 0.012492907637968828 -0.050536914626989726 0.013500938575551092
v 0.012492907637968828 -0.050486505969360759 0.013523473228601597
v 0.012635035928290551 -0.034568384487779193 0.020876386813078456
v 0.012492907637968828 -0.034667335415162571 0.020783430943323647
v 0.012492907637968828 -0.052603695145065611 0.016377879651857837
v 0.012492907637968828 -0.053641750947868487 0.016122485213599554
v 0.013222591186587019 -0.053492390511013205 0.016510271803333233
v 0.013222591186587019 -0.053492390511013205 0.013500938575551092
v 0.017237481983211074 -0.052349781209831511 0.016652052967658204
v 0.017237481983211074 -0.052349781209831511 0.018722436781356815
v 0.017237481983211074 -0.043285449999308459 0.020950564018251908
v 0.012492907637968828 -0.044765988800896446 0.016148776494001413
v 0.017237481983211074 -0.052286301874180055 0.013500938575551092
v 0.012492907637968828 -0.053626814733814372 0.013500938575551092
v 0.012492907637968828 -0.053639883708150989 0.013704690887607894
f 11 2 10
f 6 1 5
f 6 7 1
f 21 7 20
f 4 5 1
f 15 16 7
f 15 7 6
f 8 1 7
f 8 7 21
f 19 20 7
f 17 7 16
f 24 11 10
f 3 4 1
f 14 5 4
f 14 4 9
f 18 17 16
f 18 7 17
f 18 10 23
f 18 24 10
f 18 23 19
f 18 19 7
f 13 9 4
f 13 4 3
f 12 9 2
f 12 2 11
f 25 18 16
f 25 24 18
f 22 14 9
f 22 9 12
f 19 23 10
f 19 2 1
f 19 10 2
f 19 21 20
f 19 1 8
f 19 8 21
f 13 1 2
f 13 2 9
f 13 3 1
f 22 16 15
f 22 12 11
f 22 6 5
f 22 15 6
f 22 11 24
f 22 5 14
f 22 25 16
f 22 24 25
