# Convex collision proxy; SI metres, original target-root coordinates.
v 0.03274165975991964 -0.044500019584420542 0.026351585354501869
v 0.033088426065991723 -0.044259912319506343 0.028338440218305935
v 0.03274165975991964 -0.044500019584420542 0.028112874764166108
v 0.03274165975991964 -0.044403439335930314 0.013501879010153334
v 0.035568277788812566 -0.04231759457292851 0.013501879010153334
v 0.035568277788812566 -0.04231759457292851 0.030009503488906391
v 0.03274165975991964 -0.044098946374479892 0.02821249949931251
v 0.03274165975991964 -0.040691842105901661 0.013501879010153334
v 0.037136900131517513 -0.038994996531054094 0.01349999984463472
v 0.037136900131517513 -0.040856832156961627 0.013501879010153334
v 0.037136900131517513 -0.04090109732333029 0.022159829177396444
v 0.037136900131517513 -0.04090109732333029 0.031112893515355646
v 0.037136900131517513 -0.03443296360874195 0.032703129242974929
v 0.03274165975991964 -0.033350469715454238 0.030853493711608459
v 0.037136900131517513 -0.036765623047942439 0.013501879010153334
v 0.03274165975991964 -0.030797823967428598 0.017005661063238052
v 0.037136900131517513 -0.030797823967428598 0.015409786561298518
v 0.037136900131517513 -0.033172066545511178 0.032321547903114478
v 0.037136900131517513 -0.030797823967428598 0.031586581224602166
v 0.03274165975991964 -0.030797823967428598 0.029992585888181246
f 8 16 17
f 8 9 4
f 2 1 4
f 5 9 10
f 5 4 9
f 5 2 4
f 5 6 2
f 15 9 8
f 15 8 17
f 14 13 18
f 14 19 20
f 14 18 19
f 7 12 13
f 7 13 14
f 7 6 12
f 11 5 10
f 3 2 6
f 3 6 7
f 3 1 2
f 19 16 20
f 19 17 16
f 11 13 12
f 11 9 15
f 11 10 9
f 11 18 13
f 11 17 19
f 11 15 17
f 11 19 18
f 11 12 6
f 11 6 5
f 3 16 8
f 3 4 1
f 3 20 16
f 3 8 4
f 3 14 20
f 3 7 14
