# Convex collision proxy; SI metres, original target-root coordinates.
v -0.0070519090516162689 -0.0339020311204535 0.021702573138131911
v -0.0070519090516162689 -0.037073931345504282 0.021174255461344035
v -0.0059893576488192699 -0.036137152849175173 0.020784039200940099
v -0.0025866573938038082 -0.042476844008932126 0.017978656539769156
v -0.0025866573938038082 -0.051863120778773905 0.013522482120329865
v -0.0025897172136458146 -0.051910370802993405 0.013500000281446163
v -0.0070519090516162689 -0.051386514653606011 0.013500000281446163
v -0.0070519090516162689 -0.041517467823079426 0.020433968381671785
v -0.0025866573938038082 -0.054889163344507441 0.015911151946434943
v -0.0025866573938038082 -0.052869746988846111 0.016247572834425884
v -0.0025866573938038082 -0.051906261512648794 0.013502409293281685
v -0.0025866573938038082 -0.051912425448165711 0.013500000281446163
v -0.0070519090516162689 -0.054396121761646987 0.013500000281446163
v -0.0070519090516162689 -0.052228793101496106 0.018649090155758455
v -0.0037366266228331217 -0.054839858675115635 0.016510126161837856
v -0.0025866573938038082 -0.054889163344507441 0.013815545054496104
v -0.0070519090516162689 -0.054482404933082651 0.018273326049721039
v -0.0025866573938038082 -0.054866565654983837 0.013500000281446163
v -0.0037366266228331217 -0.054839858675115635 0.013500000281446163
v -0.0070519090516162689 -0.054482404933082651 0.017899970955519141
v -0.0068692074814397548 -0.054511164854437286 0.018174567638422845
f 5 1 4
f 5 6 1
f 7 1 6
f 3 10 4
f 3 4 1
f 2 3 1
f 2 10 3
f 2 9 10
f 2 8 9
f 14 17 9
f 14 9 8
f 11 12 6
f 11 6 5
f 20 13 19
f 16 19 18
f 15 9 17
f 21 17 20
f 21 19 15
f 21 20 19
f 21 15 17
f 19 13 7
f 19 7 6
f 19 6 12
f 19 12 18
f 20 17 14
f 20 1 7
f 20 7 13
f 20 2 1
f 20 8 2
f 20 14 8
f 16 10 9
f 16 4 10
f 16 5 4
f 16 11 5
f 16 18 12
f 16 12 11
f 15 16 9
f 15 19 16
