# https://github.com/mikedh/trimesh
v -0.04319864 -0.02517692 0.01400000
v -0.04319864 -0.02517692 0.01534169
v -0.04313288 -0.02513859 0.01537189
v -0.04294559 -0.02502944 0.01539749
v -0.04288643 -0.02570514 0.01400000
v -0.04288643 -0.02570514 0.01498464
v -0.04282114 -0.02566600 0.01500681
v -0.04266530 -0.02486608 0.01541460
v -0.04263521 -0.02555456 0.01502560
v -0.04235694 -0.02538777 0.01503815
v -0.04233467 -0.02467338 0.01542061
v -0.04202870 -0.02519103 0.01504256
v -0.02851110 -0.01661677 0.01542061
v -0.02830504 -0.01696539 0.01504256
v -0.02818048 -0.01642407 0.01541460
v -0.02797681 -0.01676865 0.01503815
v -0.02790018 -0.01626071 0.01539749
v -0.02771290 -0.01615156 0.01537189
v -0.02769854 -0.01660187 0.01502560
v -0.02764713 -0.01611323 0.01400000
v -0.02764713 -0.01611323 0.01534169
v -0.02751261 -0.01649042 0.01500681
v -0.02744732 -0.01645129 0.01400000
v -0.02744732 -0.01645129 0.01498464
f 9 4 7
f 7 4 3
f 3 6 7
f 2 6 3
f 13 12 14
f 11 12 13
f 4 9 8
f 24 21 18
f 10 8 9
f 11 8 10
f 10 12 11
f 24 18 22
f 22 18 17
f 17 19 22
f 15 16 19
f 15 19 17
f 14 16 15
f 15 13 14
f 23 5 20
f 20 5 1
f 1 5 6
f 6 2 1
f 23 20 21
f 21 24 23
f 22 5 23
f 23 24 22
f 22 6 5
f 22 9 7
f 7 6 22
f 14 12 22
f 22 16 14
f 12 10 22
f 19 16 22
f 22 10 9
f 15 20 1
f 1 2 15
f 11 13 15
f 15 21 20
f 2 3 15
f 15 3 4
f 15 8 11
f 17 18 15
f 4 8 15
f 15 18 21

