# https://github.com/mikedh/trimesh
v 0.01003782 0.03038490 0.01400000
v 0.01003782 0.03038490 0.02700212
v 0.01006169 0.03045718 0.02729481
v 0.01012969 0.03066301 0.02754294
v 0.01023146 0.03097106 0.02770873
v 0.01035150 0.03133443 0.02776695
v 0.01040993 0.03025943 0.01400000
v 0.01040993 0.03025943 0.02632147
v 0.01043469 0.03033141 0.02659884
v 0.01050521 0.03053640 0.02683398
v 0.01061075 0.03084317 0.02699109
v 0.01073524 0.03120504 0.02704626
v 0.01537041 0.04652688 0.02776695
v 0.01549045 0.04689025 0.02770873
v 0.01559221 0.04719830 0.02754294
v 0.01566021 0.04740413 0.02729481
v 0.01568409 0.04747641 0.01400000
v 0.01568409 0.04747641 0.02700212
v 0.01594020 0.04633476 0.02704626
v 0.01606470 0.04669663 0.02699109
v 0.01617023 0.04700340 0.02683398
v 0.01624075 0.04720839 0.02659884
v 0.01626551 0.04728037 0.01400000
v 0.01626551 0.04728037 0.02632147
f 15 21 22
f 14 21 15
f 19 13 6
f 3 2 8
f 15 22 16
f 18 16 24
f 24 16 22
f 12 19 6
f 6 5 12
f 20 14 13
f 13 19 20
f 21 14 20
f 10 5 4
f 11 12 5
f 5 10 11
f 4 3 9
f 9 10 4
f 9 3 8
f 1 17 7
f 7 17 23
f 7 2 1
f 8 2 7
f 16 18 17
f 16 17 1
f 1 2 16
f 16 5 6
f 6 13 16
f 2 3 16
f 16 14 15
f 13 14 16
f 16 3 4
f 4 5 16
f 17 18 24
f 23 17 24
f 9 7 23
f 8 7 9
f 23 24 9
f 9 22 21
f 21 20 9
f 9 24 22
f 19 12 9
f 9 20 19
f 12 11 9
f 9 11 10

