# https://github.com/mikedh/trimesh
v 0.02570264 0.01906238 0.01400000
v 0.02593463 0.01874553 0.01400000
v 0.02593463 0.01874553 0.01400256
v 0.02599632 0.01879012 0.01400262
v 0.02617201 0.01891711 0.01400266
v 0.02643494 0.01910715 0.01400270
v 0.02674509 0.01933133 0.01400271
v 0.03971240 0.02870410 0.01400271
v 0.04002255 0.02892827 0.01400270
v 0.04016038 0.02978497 0.01400000
v 0.04028548 0.02911832 0.01400266
v 0.04046117 0.02924530 0.01400262
v 0.04052286 0.02928989 0.01400000
v 0.04052286 0.02928989 0.01400256
f 13 10 14
f 1 2 3
f 6 10 1
f 1 5 6
f 10 8 9
f 9 11 10
f 12 14 10
f 10 11 12
f 4 5 1
f 1 3 4
f 7 8 10
f 10 6 7
f 2 10 13
f 1 10 2
f 7 2 13
f 13 14 7
f 7 3 2
f 5 4 7
f 7 9 8
f 14 12 7
f 7 6 5
f 11 9 7
f 7 12 11
f 7 4 3

