# https://github.com/mikedh/trimesh
v -0.04191124 0.02726625 0.01400000
v -0.04191124 0.02726625 0.01427289
v -0.04184743 0.02722474 0.01427903
v -0.04166572 0.02710653 0.01428424
v -0.04157348 0.02777851 0.01400000
v -0.04157348 0.02777851 0.01414552
v -0.04151019 0.02773622 0.01414880
v -0.04139379 0.02692961 0.01428772
v -0.04132995 0.02761579 0.01415157
v -0.04107301 0.02672092 0.01428894
v -0.04106020 0.02743555 0.01415343
v -0.04074201 0.02722294 0.01415408
v -0.02766142 0.01799572 0.01428894
v -0.02743850 0.01833382 0.01415408
v -0.02734064 0.01778704 0.01428772
v -0.02712031 0.01812121 0.01415343
v -0.02706870 0.01761012 0.01428424
v -0.02688700 0.01749191 0.01427903
v -0.02685056 0.01794097 0.01415157
v -0.02682319 0.01745040 0.01400000
v -0.02682319 0.01745040 0.01427289
v -0.02667032 0.01782054 0.01414880
v -0.02660703 0.01777825 0.01400000
v -0.02660703 0.01777825 0.01414552
f 7 4 8
f 3 4 7
f 7 6 3
f 3 6 2
f 9 8 10
f 7 8 9
f 14 12 15
f 17 19 15
f 11 9 10
f 18 21 24
f 14 15 16
f 16 15 19
f 13 11 10
f 12 11 13
f 13 15 12
f 22 18 24
f 17 18 22
f 22 19 17
f 20 5 23
f 1 5 20
f 6 5 1
f 1 2 6
f 21 20 23
f 23 24 21
f 1 20 13
f 20 21 13
f 13 2 1
f 10 8 13
f 13 3 2
f 13 8 4
f 4 3 13
f 13 18 17
f 17 15 13
f 21 18 13
f 23 5 22
f 22 24 23
f 5 6 22
f 7 9 22
f 22 6 7
f 22 12 14
f 22 11 12
f 14 16 22
f 9 11 22
f 22 16 19

