# https://github.com/mikedh/trimesh
v -0.04993977 0.00245338 0.01400000
v -0.04993977 0.00245338 0.03100000
v -0.04990591 0.00306604 0.01400000
v -0.04990591 0.00306604 0.03100000
v -0.04986374 0.00244965 0.03138268
v -0.04982993 0.00306137 0.03138268
v -0.04964723 0.00243901 0.03170711
v -0.04961356 0.00304808 0.03170711
v -0.04932320 0.00242309 0.03192388
v -0.04928975 0.00302818 0.03192388
v -0.04894098 0.00240432 0.03200000
v -0.04890779 0.00300472 0.03200000
v -0.03296025 0.00161923 0.03200000
v -0.03293790 0.00202358 0.03200000
v -0.03257803 0.00160046 0.03192388
v -0.03255593 0.00200012 0.03192388
v -0.03225400 0.00158454 0.03170711
v -0.03223212 0.00198022 0.03170711
v -0.03203748 0.00157390 0.03138268
v -0.03201576 0.00196693 0.03138268
v -0.03196145 0.00157017 0.01400000
v -0.03196145 0.00157017 0.03100000
v -0.03193978 0.00196226 0.01400000
v -0.03193978 0.00196226 0.03100000
f 21 3 23
f 1 3 21
f 4 3 1
f 1 2 4
f 10 9 11
f 11 12 10
f 7 9 10
f 10 8 7
f 6 4 2
f 2 5 6
f 6 5 7
f 7 8 6
f 17 19 20
f 18 17 20
f 22 21 23
f 23 24 22
f 24 20 22
f 22 20 19
f 14 12 11
f 11 13 14
f 1 21 15
f 15 2 1
f 15 5 2
f 11 9 15
f 15 9 7
f 7 5 15
f 15 13 11
f 15 19 17
f 21 22 15
f 15 22 19
f 23 3 16
f 16 24 23
f 3 4 16
f 18 20 16
f 16 10 12
f 4 6 16
f 8 10 16
f 16 6 8
f 16 20 24
f 12 14 16
f 16 17 18
f 16 15 17
f 16 14 13
f 13 15 16

