# https://github.com/mikedh/trimesh
v 0.02764713 -0.01611323 0.01400000
v 0.02764713 -0.01611323 0.01534169
v 0.02771290 -0.01615156 0.01537189
v 0.02784278 -0.01577274 0.01400000
v 0.02784278 -0.01577274 0.01575977
v 0.02790018 -0.01626071 0.01539749
v 0.02790902 -0.01581026 0.01579938
v 0.02809763 -0.01591711 0.01583296
v 0.02818048 -0.01642407 0.01541460
v 0.02837990 -0.01607702 0.01585540
v 0.02851110 -0.01661677 0.01542061
v 0.02871287 -0.01626564 0.01586328
v 0.04233467 -0.02467338 0.01542061
v 0.04263426 -0.02415201 0.01586328
v 0.04266530 -0.02486608 0.01541460
v 0.04294559 -0.02502944 0.01539749
v 0.04296723 -0.02434064 0.01585540
v 0.04313288 -0.02513859 0.01537189
v 0.04319864 -0.02517692 0.01400000
v 0.04319864 -0.02517692 0.01534169
v 0.04324951 -0.02450054 0.01583296
v 0.04343812 -0.02460739 0.01579938
v 0.04350435 -0.02464491 0.01400000
v 0.04350435 -0.02464491 0.01575977
f 21 16 18
f 17 16 21
f 13 14 12
f 12 11 13
f 21 18 22
f 24 22 20
f 20 22 18
f 15 17 14
f 14 13 15
f 16 17 15
f 5 2 7
f 10 11 12
f 8 6 10
f 8 7 3
f 3 6 8
f 3 7 2
f 11 10 9
f 9 10 6
f 23 19 4
f 4 19 1
f 2 4 1
f 2 5 4
f 20 19 23
f 23 24 20
f 23 4 10
f 10 24 23
f 10 17 21
f 5 7 10
f 4 5 10
f 12 14 10
f 14 17 10
f 21 22 10
f 10 22 24
f 10 7 8
f 1 19 9
f 9 2 1
f 9 13 11
f 16 15 9
f 9 18 16
f 19 20 9
f 9 20 18
f 9 15 13
f 9 3 2
f 6 3 9

