# https://github.com/mikedh/trimesh
v 0.00739386 0.03113408 0.01400000
v 0.00739386 0.03113408 0.03031133
v 0.00741145 0.03120814 0.03067851
v 0.00746153 0.03141905 0.03098979
v 0.00753650 0.03173469 0.03119778
v 0.00762492 0.03210702 0.03127082
v 0.00777537 0.03104100 0.01400000
v 0.00777537 0.03104100 0.03001536
v 0.00779386 0.03111484 0.03037588
v 0.00784653 0.03132512 0.03068151
v 0.00792536 0.03163982 0.03088573
v 0.00801835 0.03201103 0.03095744
v 0.01132185 0.04767406 0.03127082
v 0.01141027 0.04804639 0.03119778
v 0.01148523 0.04836203 0.03098979
v 0.01153532 0.04857294 0.03067851
v 0.01155291 0.04864700 0.01400000
v 0.01155291 0.04864700 0.03031133
v 0.01190603 0.04753153 0.03095744
v 0.01199901 0.04790275 0.03088573
v 0.01207784 0.04821745 0.03068151
v 0.01213051 0.04842772 0.03037588
v 0.01214901 0.04850156 0.01400000
v 0.01214901 0.04850156 0.03001536
f 15 21 22
f 14 21 15
f 19 13 6
f 3 2 8
f 15 22 16
f 18 16 24
f 24 16 22
f 12 19 6
f 6 5 12
f 20 14 13
f 13 19 20
f 21 14 20
f 11 12 5
f 10 5 4
f 10 11 5
f 4 3 9
f 9 10 4
f 9 3 8
f 1 17 7
f 7 17 23
f 7 2 1
f 8 2 7
f 16 18 17
f 16 17 1
f 1 2 16
f 16 5 6
f 6 13 16
f 2 3 16
f 16 14 15
f 13 14 16
f 16 3 4
f 4 5 16
f 17 18 24
f 23 17 24
f 9 7 23
f 8 7 9
f 23 24 9
f 9 22 21
f 21 20 9
f 9 24 22
f 19 12 9
f 9 20 19
f 12 11 9
f 11 10 9

