# https://github.com/mikedh/trimesh
v 0.02682319 -0.01745040 0.01400000
v 0.02682319 -0.01745040 0.01427289
v 0.02688700 -0.01749191 0.01427903
v 0.02703531 -0.01711992 0.01400000
v 0.02703531 -0.01711992 0.01445240
v 0.02706870 -0.01761012 0.01428424
v 0.02709962 -0.01716065 0.01446259
v 0.02728277 -0.01727662 0.01447122
v 0.02734064 -0.01778704 0.01428772
v 0.02755686 -0.01745019 0.01447699
v 0.02766142 -0.01799572 0.01428894
v 0.02788017 -0.01765492 0.01447901
v 0.04107301 -0.02672092 0.01428894
v 0.04139379 -0.02692961 0.01428772
v 0.04139782 -0.02621488 0.01447901
v 0.04166572 -0.02710653 0.01428424
v 0.04172114 -0.02641962 0.01447699
v 0.04184743 -0.02722474 0.01427903
v 0.04191124 -0.02726625 0.01400000
v 0.04191124 -0.02726625 0.01427289
v 0.04199523 -0.02659318 0.01447122
v 0.04217837 -0.02670916 0.01446259
v 0.04224268 -0.02674988 0.01400000
v 0.04224268 -0.02674988 0.01445240
f 22 20 24
f 21 17 16
f 18 22 21
f 20 22 18
f 21 16 18
f 5 2 7
f 10 11 13
f 10 13 12
f 10 8 6
f 14 17 15
f 14 16 17
f 14 15 12
f 12 13 14
f 3 7 2
f 8 7 3
f 6 8 3
f 9 10 6
f 11 10 9
f 23 19 4
f 4 19 1
f 20 19 23
f 23 24 20
f 2 4 1
f 2 5 4
f 23 4 10
f 10 24 23
f 21 22 10
f 10 17 21
f 4 5 10
f 12 15 10
f 15 17 10
f 10 22 24
f 5 7 10
f 10 7 8
f 1 19 9
f 19 20 9
f 13 11 9
f 9 2 1
f 9 14 13
f 6 3 9
f 20 18 9
f 9 18 16
f 16 14 9
f 9 3 2

