# https://github.com/mikedh/trimesh
v 0.01678687 0.02724337 0.01400000
v 0.01678687 0.02724337 0.01468867
v 0.01682680 0.02730817 0.01470418
v 0.01694052 0.02749272 0.01471732
v 0.01711071 0.02776892 0.01472610
v 0.01711992 0.02703531 0.01400000
v 0.01711992 0.02703531 0.01445240
v 0.01716065 0.02709962 0.01446259
v 0.01727662 0.02728277 0.01447122
v 0.01731146 0.02809472 0.01472918
v 0.01745019 0.02755686 0.01447699
v 0.01765492 0.02788017 0.01447901
v 0.02570489 0.04171640 0.01472918
v 0.02590565 0.04204220 0.01472610
v 0.02607584 0.04231840 0.01471732
v 0.02618955 0.04250295 0.01470418
v 0.02621488 0.04139782 0.01447901
v 0.02622948 0.04256776 0.01400000
v 0.02622948 0.04256776 0.01468867
v 0.02641962 0.04172114 0.01447699
v 0.02659318 0.04199523 0.01447122
v 0.02670916 0.04217837 0.01446259
v 0.02674988 0.04224268 0.01400000
v 0.02674988 0.04224268 0.01445240
f 3 2 7
f 17 13 10
f 17 20 13
f 13 20 14
f 22 16 15
f 10 5 12
f 12 17 10
f 15 14 21
f 21 22 15
f 21 14 20
f 19 16 24
f 16 22 24
f 9 5 4
f 11 12 5
f 5 9 11
f 4 3 8
f 8 9 4
f 8 3 7
f 1 18 6
f 6 18 23
f 6 2 1
f 7 2 6
f 14 19 18
f 14 18 1
f 1 2 14
f 10 13 14
f 15 16 14
f 14 5 10
f 14 16 19
f 2 3 14
f 14 3 4
f 4 5 14
f 18 19 24
f 23 18 24
f 8 6 23
f 7 6 8
f 8 21 20
f 20 17 8
f 23 24 8
f 17 12 8
f 22 21 8
f 8 24 22
f 12 11 8
f 8 11 9

