# https://github.com/mikedh/trimesh
v 0.03025943 0.01040993 0.01400000
v 0.03025943 0.01040993 0.02632147
v 0.03033141 0.01043469 0.02659884
v 0.03038490 0.01003782 0.01400000
v 0.03038490 0.01003782 0.02700212
v 0.03045718 0.01006169 0.02729481
v 0.03053640 0.01050521 0.02683398
v 0.03066301 0.01012969 0.02754294
v 0.03084317 0.01061075 0.02699109
v 0.03097106 0.01023146 0.02770873
v 0.03120504 0.01073524 0.02704626
v 0.03133443 0.01035150 0.02776695
v 0.04633476 0.01594020 0.02704626
v 0.04652688 0.01537041 0.02776695
v 0.04669663 0.01606470 0.02699109
v 0.04689025 0.01549045 0.02770873
v 0.04700340 0.01617023 0.02683398
v 0.04719830 0.01559221 0.02754294
v 0.04720839 0.01624075 0.02659884
v 0.04728037 0.01626551 0.01400000
v 0.04728037 0.01626551 0.02632147
v 0.04740413 0.01566021 0.02729481
v 0.04747641 0.01568409 0.01400000
v 0.04747641 0.01568409 0.02700212
f 19 17 18
f 18 17 16
f 12 14 13
f 13 11 12
f 22 19 18
f 21 22 24
f 19 22 21
f 14 16 15
f 15 13 14
f 15 16 17
f 6 2 5
f 12 11 10
f 10 7 8
f 3 6 8
f 8 7 3
f 2 6 3
f 9 10 11
f 7 10 9
f 4 20 23
f 1 20 4
f 1 4 2
f 4 5 2
f 23 20 21
f 21 24 23
f 10 4 23
f 23 24 10
f 18 16 10
f 10 6 5
f 10 5 4
f 10 14 12
f 10 16 14
f 10 22 18
f 24 22 10
f 8 6 10
f 9 20 1
f 1 2 9
f 11 13 9
f 9 15 17
f 17 19 9
f 9 21 20
f 19 21 9
f 13 15 9
f 2 3 9
f 9 3 7

