# https://github.com/mikedh/trimesh
v 0.01438756 -0.02858318 0.01400000
v 0.01438756 -0.02858318 0.01799788
v 0.01442179 -0.02865117 0.01808787
v 0.01451925 -0.02884480 0.01816417
v 0.01466512 -0.02913458 0.01821515
v 0.01473724 -0.02840447 0.01400000
v 0.01473724 -0.02840447 0.01736068
v 0.01477230 -0.02847204 0.01743633
v 0.01483717 -0.02947640 0.01823305
v 0.01487213 -0.02866445 0.01750047
v 0.01502154 -0.02895242 0.01754332
v 0.01519778 -0.02929211 0.01755837
v 0.02203096 -0.04376799 0.01823305
v 0.02220301 -0.04410981 0.01821515
v 0.02234888 -0.04439960 0.01816417
v 0.02244634 -0.04459322 0.01808787
v 0.02248057 -0.04466122 0.01400000
v 0.02248057 -0.04466122 0.01799788
v 0.02256640 -0.04349434 0.01755837
v 0.02274264 -0.04383403 0.01754332
v 0.02289205 -0.04412200 0.01750047
v 0.02299188 -0.04431441 0.01743633
v 0.02302694 -0.04438198 0.01400000
v 0.02302694 -0.04438198 0.01736068
f 22 21 15
f 15 21 14
f 9 13 19
f 7 2 3
f 16 22 15
f 24 16 18
f 22 16 24
f 9 19 12
f 12 5 9
f 13 14 20
f 20 19 13
f 20 14 21
f 4 5 10
f 5 12 11
f 11 10 5
f 8 3 4
f 4 10 8
f 7 3 8
f 6 17 1
f 23 17 6
f 1 2 6
f 6 2 7
f 17 18 16
f 1 17 16
f 16 2 1
f 9 5 16
f 16 13 9
f 16 3 2
f 15 14 16
f 16 14 13
f 4 3 16
f 16 5 4
f 24 18 17
f 24 17 23
f 23 6 8
f 8 6 7
f 8 24 23
f 21 22 8
f 8 20 21
f 22 24 8
f 8 12 19
f 19 20 8
f 8 11 12
f 10 11 8

