# https://github.com/mikedh/trimesh
v -0.04954513 0.00672904 0.01400000
v -0.04954513 0.00672904 0.03100000
v -0.04946970 0.00671879 0.03138268
v -0.04945883 0.00733652 0.01400000
v -0.04945883 0.00733652 0.03100000
v -0.04938353 0.00732535 0.03138268
v -0.04925490 0.00668962 0.03170711
v -0.04916910 0.00729355 0.03170711
v -0.04893343 0.00664596 0.03192388
v -0.04884819 0.00724594 0.03192388
v -0.04855423 0.00659445 0.03200000
v -0.04846965 0.00718979 0.03200000
v -0.03269979 0.00444116 0.03200000
v -0.03264282 0.00484211 0.03200000
v -0.03232058 0.00438966 0.03192388
v -0.03226428 0.00478595 0.03192388
v -0.03199911 0.00434600 0.03170711
v -0.03194337 0.00473835 0.03170711
v -0.03178431 0.00431683 0.03138268
v -0.03172894 0.00470654 0.03138268
v -0.03170888 0.00430658 0.01400000
v -0.03170888 0.00430658 0.03100000
v -0.03165365 0.00469538 0.01400000
v -0.03165365 0.00469538 0.03100000
f 21 4 23
f 1 4 21
f 2 4 1
f 2 5 4
f 5 2 6
f 2 3 6
f 6 3 7
f 7 8 6
f 10 9 11
f 11 12 10
f 7 9 10
f 10 8 7
f 17 19 20
f 18 17 20
f 22 21 23
f 23 24 22
f 24 20 22
f 22 20 19
f 13 14 12
f 13 12 11
f 23 4 16
f 4 5 16
f 16 24 23
f 18 20 16
f 16 10 12
f 5 6 16
f 12 14 16
f 16 6 8
f 8 10 16
f 16 20 24
f 1 21 15
f 15 3 2
f 15 2 1
f 21 22 15
f 11 9 15
f 7 3 15
f 15 9 7
f 15 19 17
f 15 22 19
f 15 13 11
f 15 17 18
f 18 16 15
f 14 13 15
f 15 16 14

