# https://github.com/mikedh/trimesh
v -0.04915527 -0.00915199 0.01400000
v -0.04915527 -0.00915199 0.03093611
v -0.04908044 -0.00913806 0.03131735
v -0.04903926 -0.00975452 0.01400000
v -0.04903926 -0.00975452 0.03085448
v -0.04896461 -0.00973967 0.03123389
v -0.04886733 -0.00909838 0.03164056
v -0.04875200 -0.00969738 0.03155553
v -0.04854839 -0.00903900 0.03185651
v -0.04843381 -0.00963408 0.03177045
v -0.04817217 -0.00896895 0.03193235
v -0.04805848 -0.00955943 0.03184592
v -0.03244248 -0.00604032 0.03193235
v -0.03236591 -0.00643798 0.03184592
v -0.03206626 -0.00597027 0.03185651
v -0.03199058 -0.00636332 0.03177045
v -0.03174732 -0.00591089 0.03164056
v -0.03167239 -0.00630003 0.03155553
v -0.03153421 -0.00587121 0.03131735
v -0.03145979 -0.00625774 0.03123389
v -0.03145938 -0.00585728 0.01400000
v -0.03145938 -0.00585728 0.03093611
v -0.03138513 -0.00624289 0.01400000
v -0.03138513 -0.00624289 0.03085448
f 11 12 13
f 10 12 11
f 17 18 20
f 14 13 12
f 9 10 11
f 8 10 9
f 9 7 8
f 2 5 3
f 17 20 19
f 22 19 24
f 24 19 20
f 13 14 15
f 15 18 17
f 6 3 5
f 7 3 6
f 8 7 6
f 18 15 16
f 16 15 14
f 23 4 21
f 21 4 1
f 1 4 5
f 5 2 1
f 23 21 24
f 21 22 24
f 15 21 1
f 1 2 15
f 11 13 15
f 15 22 21
f 2 3 15
f 17 19 15
f 15 9 11
f 7 9 15
f 15 3 7
f 15 19 22
f 16 4 23
f 12 10 16
f 16 5 4
f 16 14 12
f 16 10 8
f 23 24 16
f 16 20 18
f 8 6 16
f 16 24 20
f 16 6 5

