# https://github.com/mikedh/trimesh
v 0.03165365 -0.00469538 0.01400000
v 0.03165365 -0.00469538 0.03100000
v 0.03170888 -0.00430658 0.01400000
v 0.03170888 -0.00430658 0.03100000
v 0.03172894 -0.00470654 0.03138268
v 0.03178431 -0.00431683 0.03138268
v 0.03194337 -0.00473835 0.03170711
v 0.03199911 -0.00434600 0.03170711
v 0.03226428 -0.00478595 0.03192388
v 0.03232058 -0.00438966 0.03192388
v 0.03264282 -0.00484211 0.03200000
v 0.03269979 -0.00444116 0.03200000
v 0.04846965 -0.00718979 0.03200000
v 0.04855423 -0.00659445 0.03200000
v 0.04884819 -0.00724594 0.03192388
v 0.04893343 -0.00664596 0.03192388
v 0.04916910 -0.00729355 0.03170711
v 0.04925490 -0.00668962 0.03170711
v 0.04938353 -0.00732535 0.03138268
v 0.04945883 -0.00733652 0.01400000
v 0.04945883 -0.00733652 0.03100000
v 0.04946970 -0.00671879 0.03138268
v 0.04954513 -0.00672904 0.01400000
v 0.04954513 -0.00672904 0.03100000
f 3 20 1
f 23 20 3
f 1 2 3
f 3 2 4
f 24 21 20
f 24 20 23
f 17 19 22
f 22 18 17
f 22 19 21
f 21 24 22
f 20 21 15
f 1 20 15
f 15 2 1
f 15 5 2
f 15 13 11
f 11 9 15
f 15 19 17
f 21 19 15
f 7 5 15
f 15 9 7
f 18 16 15
f 17 18 15
f 13 15 14
f 14 15 16
f 11 13 12
f 13 14 12
f 10 9 11
f 11 12 10
f 7 9 8
f 9 10 8
f 23 3 6
f 6 3 4
f 6 24 23
f 18 22 6
f 6 16 18
f 6 22 24
f 6 14 16
f 6 12 14
f 6 10 12
f 6 8 10
f 4 2 6
f 2 5 6
f 6 5 7
f 7 8 6

