# https://github.com/mikedh/trimesh
v 0.03145938 0.00585728 0.01400000
v 0.03145938 0.00585728 0.03093611
v 0.03152888 0.00547078 0.01400000
v 0.03152888 0.00547078 0.03098031
v 0.03153421 0.00587121 0.03131735
v 0.03160388 0.00548379 0.03136255
v 0.03174732 0.00591089 0.03164056
v 0.03181747 0.00552085 0.03168660
v 0.03206626 0.00597027 0.03185651
v 0.03213711 0.00557632 0.03190312
v 0.03244248 0.00604032 0.03193235
v 0.03251416 0.00564174 0.03197915
v 0.04817217 0.00896895 0.03193235
v 0.04827860 0.00837713 0.03197915
v 0.04854839 0.00903900 0.03185651
v 0.04865565 0.00844256 0.03190312
v 0.04886733 0.00909838 0.03164056
v 0.04897530 0.00849802 0.03168660
v 0.04908044 0.00913806 0.03131735
v 0.04915527 0.00915199 0.01400000
v 0.04915527 0.00915199 0.03093611
v 0.04918888 0.00853508 0.03136255
v 0.04926388 0.00854809 0.01400000
v 0.04926388 0.00854809 0.03098031
f 19 17 18
f 18 17 16
f 12 14 13
f 13 11 12
f 22 19 18
f 21 22 24
f 19 22 21
f 14 16 15
f 15 13 14
f 15 16 17
f 6 2 4
f 12 11 10
f 10 7 8
f 5 6 8
f 8 7 5
f 2 6 5
f 9 10 11
f 7 10 9
f 3 20 23
f 1 20 3
f 1 3 2
f 3 4 2
f 23 20 21
f 21 24 23
f 10 3 23
f 23 24 10
f 18 16 10
f 10 6 4
f 10 4 3
f 10 14 12
f 10 16 14
f 10 22 18
f 24 22 10
f 8 6 10
f 9 20 1
f 1 2 9
f 11 13 9
f 9 15 17
f 17 19 9
f 9 21 20
f 19 21 9
f 13 15 9
f 2 5 9
f 9 5 7

