# https://github.com/mikedh/trimesh
v 0.02593463 0.01874553 0.01400000
v 0.02593463 0.01874553 0.01400256
v 0.02599632 0.01879012 0.01400262
v 0.02616271 0.01842586 0.01400000
v 0.02616271 0.01842586 0.01401969
v 0.02617201 0.01891711 0.01400266
v 0.02622495 0.01846969 0.01402013
v 0.02640218 0.01859451 0.01402051
v 0.02643494 0.01910715 0.01400270
v 0.02666742 0.01878132 0.01402076
v 0.02674509 0.01933133 0.01400271
v 0.02698030 0.01900167 0.01402085
v 0.03971240 0.02870410 0.01400271
v 0.04002255 0.02892827 0.01400270
v 0.04006166 0.02821460 0.01402085
v 0.04028548 0.02911832 0.01400266
v 0.04037453 0.02843495 0.01402076
v 0.04046117 0.02924530 0.01400262
v 0.04052286 0.02928989 0.01400000
v 0.04052286 0.02928989 0.01400256
v 0.04063978 0.02862176 0.01402051
v 0.04081701 0.02874658 0.01402013
v 0.04087924 0.02879041 0.01400000
v 0.04087924 0.02879041 0.01401969
f 12 15 18
f 18 16 12
f 7 2 5
f 7 8 2
f 17 18 15
f 10 6 8
f 10 13 11
f 10 14 13
f 16 14 10
f 12 16 10
f 2 8 3
f 8 6 3
f 20 17 21
f 18 17 20
f 21 22 20
f 20 22 24
f 9 10 11
f 6 10 9
f 4 19 23
f 1 19 4
f 1 4 2
f 4 5 2
f 10 4 23
f 10 22 21
f 23 24 10
f 10 5 4
f 10 15 12
f 10 7 5
f 24 22 10
f 21 17 10
f 8 7 10
f 10 17 15
f 23 19 20
f 20 24 23
f 9 19 1
f 9 14 16
f 1 2 9
f 2 3 9
f 11 13 9
f 13 14 9
f 16 18 9
f 9 20 19
f 9 3 6
f 18 20 9

