# https://github.com/mikedh/trimesh
v -0.04438198 -0.02302694 0.01400000
v -0.04438198 -0.02302694 0.01736068
v -0.04431441 -0.02299188 0.01743633
v -0.04412200 -0.02289205 0.01750047
v -0.04409606 -0.02356984 0.01400000
v -0.04409606 -0.02356984 0.01677236
v -0.04402893 -0.02353395 0.01683477
v -0.04383775 -0.02343177 0.01688767
v -0.04383403 -0.02274264 0.01754332
v -0.04355164 -0.02327884 0.01692303
v -0.04349434 -0.02256640 0.01755837
v -0.04321414 -0.02309844 0.01693544
v -0.02929211 -0.01519778 0.01755837
v -0.02910340 -0.01555609 0.01693544
v -0.02895242 -0.01502154 0.01754332
v -0.02876591 -0.01537570 0.01692303
v -0.02866445 -0.01487213 0.01750047
v -0.02847979 -0.01522276 0.01688767
v -0.02847204 -0.01477230 0.01743633
v -0.02840447 -0.01473724 0.01400000
v -0.02840447 -0.01473724 0.01736068
v -0.02828861 -0.01512058 0.01683477
v -0.02822148 -0.01508470 0.01400000
v -0.02822148 -0.01508470 0.01677236
f 7 4 3
f 3 6 7
f 2 6 3
f 10 12 11
f 13 12 14
f 11 12 13
f 9 10 11
f 8 4 7
f 8 9 4
f 10 9 8
f 24 21 19
f 24 19 22
f 22 19 17
f 17 18 22
f 15 16 18
f 15 18 17
f 14 16 15
f 15 13 14
f 23 5 20
f 20 5 1
f 1 5 6
f 6 2 1
f 23 20 21
f 21 24 23
f 22 5 23
f 23 24 22
f 22 6 5
f 22 8 7
f 7 6 22
f 14 12 22
f 12 10 22
f 22 16 14
f 10 8 22
f 18 16 22
f 15 20 1
f 1 2 15
f 11 13 15
f 15 21 20
f 2 3 15
f 15 3 4
f 15 9 11
f 17 19 15
f 4 9 15
f 15 19 21

