# https://github.com/mikedh/trimesh
v -0.02302694 0.04438198 0.01400000
v -0.02302694 0.04438198 0.01736068
v -0.02299188 0.04431441 0.01743633
v -0.02289205 0.04412200 0.01750047
v -0.02274264 0.04383403 0.01754332
v -0.02256640 0.04349434 0.01755837
v -0.02248057 0.04466122 0.01400000
v -0.02248057 0.04466122 0.01799788
v -0.02244634 0.04459322 0.01808787
v -0.02234888 0.04439960 0.01816417
v -0.02220301 0.04410981 0.01821515
v -0.02203096 0.04376799 0.01823305
v -0.01519778 0.02929211 0.01755837
v -0.01502154 0.02895242 0.01754332
v -0.01487213 0.02866445 0.01750047
v -0.01483717 0.02947640 0.01823305
v -0.01477230 0.02847204 0.01743633
v -0.01473724 0.02840447 0.01400000
v -0.01473724 0.02840447 0.01736068
v -0.01466512 0.02913458 0.01821515
v -0.01451925 0.02884480 0.01816417
v -0.01442179 0.02865117 0.01808787
v -0.01438756 0.02858318 0.01400000
v -0.01438756 0.02858318 0.01799788
f 9 3 10
f 2 9 8
f 3 9 2
f 11 5 12
f 10 3 4
f 4 11 10
f 5 11 4
f 22 19 24
f 6 16 12
f 12 5 6
f 15 21 20
f 19 22 17
f 17 22 21
f 17 21 15
f 16 6 13
f 13 20 16
f 15 20 14
f 20 13 14
f 18 7 23
f 1 7 18
f 2 8 7
f 2 7 1
f 19 18 23
f 23 24 19
f 8 9 20
f 23 7 20
f 7 8 20
f 20 24 23
f 20 11 12
f 12 16 20
f 20 9 10
f 10 11 20
f 21 22 20
f 20 22 24
f 1 18 14
f 14 4 3
f 14 2 1
f 3 2 14
f 14 17 15
f 18 19 14
f 5 4 14
f 14 6 5
f 19 17 14
f 14 13 6

