# https://github.com/mikedh/trimesh
v 0.01842586 -0.02616271 0.01400000
v 0.01842586 -0.02616271 0.01401969
v 0.01846969 -0.02622495 0.01402013
v 0.01859451 -0.02640218 0.01402051
v 0.01874553 -0.02593463 0.01400000
v 0.01874553 -0.02593463 0.01400256
v 0.01878132 -0.02666742 0.01402076
v 0.01879012 -0.02599632 0.01400262
v 0.01891711 -0.02617201 0.01400266
v 0.01900167 -0.02698030 0.01402085
v 0.01910715 -0.02643494 0.01400270
v 0.01933133 -0.02674509 0.01400271
v 0.02821460 -0.04006166 0.01402085
v 0.02843495 -0.04037453 0.01402076
v 0.02862176 -0.04063978 0.01402051
v 0.02870410 -0.03971240 0.01400271
v 0.02874658 -0.04081701 0.01402013
v 0.02879041 -0.04087924 0.01400000
v 0.02879041 -0.04087924 0.01401969
v 0.02892827 -0.04002255 0.01400270
v 0.02911832 -0.04028548 0.01400266
v 0.02924530 -0.04046117 0.01400262
v 0.02928989 -0.04052286 0.01400000
v 0.02928989 -0.04052286 0.01400256
f 6 2 3
f 3 4 6
f 10 13 22
f 22 21 10
f 14 22 13
f 6 4 8
f 4 9 8
f 7 9 4
f 7 16 12
f 10 21 7
f 24 14 15
f 22 14 24
f 15 17 24
f 24 17 19
f 11 7 12
f 9 7 11
f 20 7 21
f 16 7 20
f 5 18 1
f 23 18 5
f 2 5 1
f 6 5 2
f 7 2 1
f 1 18 7
f 15 14 7
f 18 19 7
f 7 13 10
f 7 17 15
f 7 3 2
f 19 17 7
f 4 3 7
f 7 14 13
f 24 18 23
f 24 19 18
f 23 5 20
f 20 5 6
f 6 8 20
f 20 11 12
f 21 22 20
f 20 24 23
f 12 16 20
f 20 8 9
f 22 24 20
f 9 11 20

