# https://github.com/mikedh/trimesh
v 0.01777825 0.02660703 0.01400000
v 0.01777825 0.02660703 0.01414552
v 0.01782054 0.02667032 0.01414880
v 0.01794097 0.02685056 0.01415157
v 0.01810342 0.02638686 0.01400000
v 0.01810342 0.02638686 0.01406389
v 0.01812121 0.02712031 0.01415343
v 0.01814648 0.02644963 0.01406533
v 0.01826912 0.02662837 0.01406655
v 0.01833382 0.02743850 0.01415408
v 0.01845265 0.02689589 0.01406736
v 0.01866915 0.02721145 0.01406765
v 0.02722294 0.04074201 0.01415408
v 0.02743555 0.04106020 0.01415343
v 0.02761579 0.04132995 0.01415157
v 0.02772086 0.04040488 0.01406765
v 0.02773622 0.04151019 0.01414880
v 0.02777851 0.04157348 0.01400000
v 0.02777851 0.04157348 0.01414552
v 0.02793735 0.04072043 0.01406736
v 0.02812089 0.04098795 0.01406655
v 0.02824353 0.04116670 0.01406533
v 0.02828659 0.04122947 0.01400000
v 0.02828659 0.04122947 0.01406389
f 3 2 6
f 13 21 14
f 20 13 10
f 20 21 13
f 22 17 15
f 15 14 22
f 22 14 21
f 10 7 16
f 16 20 10
f 19 17 24
f 17 22 24
f 12 16 7
f 9 7 4
f 11 12 7
f 7 9 11
f 8 9 4
f 4 3 8
f 8 3 6
f 1 18 5
f 5 18 23
f 1 5 2
f 2 5 6
f 1 2 14
f 14 18 1
f 14 19 18
f 10 13 14
f 2 3 14
f 14 7 10
f 15 17 14
f 14 17 19
f 14 3 4
f 4 7 14
f 23 18 24
f 18 19 24
f 8 5 23
f 6 5 8
f 23 24 8
f 21 20 8
f 8 22 21
f 20 16 8
f 8 24 22
f 16 12 8
f 12 11 8
f 8 11 9

