# https://github.com/mikedh/trimesh
v -0.04784702 -0.01451423 0.01400000
v -0.04784702 -0.01451423 0.02822764
v -0.04777417 -0.01449214 0.02854792
v -0.04766530 -0.01510030 0.01400000
v -0.04766530 -0.01510030 0.02763932
v -0.04759274 -0.01507731 0.02794635
v -0.04756674 -0.01442921 0.02881943
v -0.04738609 -0.01501184 0.02820664
v -0.04725628 -0.01433504 0.02900085
v -0.04707681 -0.01491386 0.02838056
v -0.04689008 -0.01422395 0.02906456
v -0.04671200 -0.01479829 0.02844163
v -0.03157903 -0.00957939 0.02906456
v -0.03145910 -0.00996620 0.02844163
v -0.03121283 -0.00946831 0.02900085
v -0.03109428 -0.00985062 0.02838056
v -0.03090237 -0.00937413 0.02881943
v -0.03078501 -0.00975265 0.02820664
v -0.03069493 -0.00931121 0.02854792
v -0.03062209 -0.00928911 0.01400000
v -0.03062209 -0.00928911 0.02822764
v -0.03057836 -0.00968718 0.02794635
v -0.03050579 -0.00966419 0.01400000
v -0.03050579 -0.00966419 0.02763932
f 11 12 13
f 10 12 11
f 17 18 22
f 14 13 12
f 9 10 11
f 8 10 9
f 9 7 8
f 2 5 3
f 17 22 19
f 21 19 24
f 24 19 22
f 13 14 15
f 15 18 17
f 6 3 5
f 7 3 6
f 8 7 6
f 18 15 16
f 16 15 14
f 23 4 20
f 20 4 1
f 1 4 5
f 5 2 1
f 23 20 24
f 20 21 24
f 15 20 1
f 1 2 15
f 11 13 15
f 15 21 20
f 2 3 15
f 17 19 15
f 15 9 11
f 7 9 15
f 15 3 7
f 15 19 21
f 16 4 23
f 12 10 16
f 16 5 4
f 16 14 12
f 16 10 8
f 23 24 16
f 16 22 18
f 8 6 16
f 16 24 22
f 16 6 5

