# https://github.com/mikedh/trimesh
v -0.02248057 -0.04466122 0.01400000
v -0.02248057 -0.04466122 0.01799788
v -0.02244634 -0.04459322 0.01808787
v -0.02234888 -0.04439960 0.01816417
v -0.02220301 -0.04410981 0.01821515
v -0.02203096 -0.04376799 0.01823305
v -0.02193081 -0.04493372 0.01400000
v -0.02193081 -0.04493372 0.01867853
v -0.02189742 -0.04486532 0.01878385
v -0.02180234 -0.04467051 0.01887313
v -0.02166005 -0.04437896 0.01893279
v -0.02149220 -0.04403505 0.01895374
v -0.01483717 -0.02947640 0.01823305
v -0.01466512 -0.02913458 0.01821515
v -0.01451925 -0.02884480 0.01816417
v -0.01447434 -0.02965626 0.01895374
v -0.01442179 -0.02865117 0.01808787
v -0.01438756 -0.02858318 0.01400000
v -0.01438756 -0.02858318 0.01799788
v -0.01430648 -0.02931235 0.01893279
v -0.01416419 -0.02902080 0.01887313
v -0.01406911 -0.02882599 0.01878385
v -0.01403572 -0.02875758 0.01400000
v -0.01403572 -0.02875758 0.01867853
f 10 3 9
f 8 9 2
f 2 9 3
f 12 5 11
f 4 3 10
f 10 11 4
f 4 11 5
f 24 19 22
f 12 16 6
f 6 5 12
f 20 21 15
f 17 22 19
f 21 22 17
f 15 21 17
f 13 6 16
f 16 20 13
f 14 20 15
f 14 13 20
f 23 7 18
f 18 7 1
f 7 8 2
f 1 7 2
f 23 18 19
f 19 24 23
f 20 9 8
f 20 7 23
f 20 8 7
f 23 24 20
f 12 11 20
f 20 16 12
f 10 9 20
f 20 11 10
f 20 22 21
f 24 22 20
f 14 18 1
f 3 4 14
f 1 2 14
f 14 2 3
f 15 17 14
f 14 19 18
f 14 4 5
f 5 6 14
f 14 17 19
f 6 13 14

