# https://github.com/mikedh/trimesh
v -0.04380350 0.02410919 0.01400000
v -0.04380350 0.02410919 0.01623751
v -0.04373682 0.02407248 0.01628788
v -0.04354691 0.02396796 0.01633058
v -0.04350435 0.02464491 0.01400000
v -0.04350435 0.02464491 0.01575977
v -0.04343812 0.02460739 0.01579938
v -0.04326269 0.02381153 0.01635911
v -0.04324951 0.02450054 0.01583296
v -0.04296723 0.02434064 0.01585540
v -0.04292743 0.02362700 0.01636913
v -0.04263426 0.02415201 0.01586328
v -0.02891031 0.01591206 0.01636913
v -0.02871287 0.01626564 0.01586328
v -0.02857506 0.01572754 0.01635911
v -0.02837990 0.01607702 0.01585540
v -0.02829084 0.01557111 0.01633058
v -0.02810093 0.01546658 0.01628788
v -0.02809763 0.01591711 0.01583296
v -0.02803424 0.01542988 0.01400000
v -0.02803424 0.01542988 0.01623751
v -0.02790902 0.01581026 0.01579938
v -0.02784278 0.01577274 0.01400000
v -0.02784278 0.01577274 0.01575977
f 3 4 7
f 7 6 3
f 3 6 2
f 11 12 10
f 14 12 13
f 13 12 11
f 11 10 8
f 7 4 9
f 4 8 9
f 9 8 10
f 18 21 24
f 22 18 24
f 17 18 22
f 22 19 17
f 19 16 15
f 17 19 15
f 15 16 14
f 14 13 15
f 20 5 23
f 1 5 20
f 6 5 1
f 1 2 6
f 21 20 23
f 23 24 21
f 23 5 22
f 22 24 23
f 5 6 22
f 7 9 22
f 22 6 7
f 22 12 14
f 22 10 12
f 14 16 22
f 22 9 10
f 22 16 19
f 1 20 15
f 15 2 1
f 15 13 11
f 20 21 15
f 15 3 2
f 4 3 15
f 11 8 15
f 15 18 17
f 15 8 4
f 21 18 15

