# https://github.com/mikedh/trimesh
v 0.02956415 -0.01224587 0.01400000
v 0.02956415 -0.01224587 0.02250000
v 0.02963447 -0.01227500 0.02269134
v 0.02971219 -0.01188215 0.01400000
v 0.02971219 -0.01188215 0.02329555
v 0.02978287 -0.01191042 0.02350480
v 0.02983474 -0.01235796 0.02285355
v 0.02998415 -0.01199091 0.02368219
v 0.03013447 -0.01248211 0.02296194
v 0.03028538 -0.01211137 0.02380072
v 0.03048802 -0.01262855 0.02300000
v 0.03064070 -0.01225347 0.02384234
v 0.04527010 -0.01875149 0.02300000
v 0.04549680 -0.01819454 0.02384234
v 0.04562365 -0.01889793 0.02296194
v 0.04585212 -0.01833664 0.02380072
v 0.04592338 -0.01902209 0.02285355
v 0.04612365 -0.01910504 0.02269134
v 0.04615335 -0.01845710 0.02368219
v 0.04619398 -0.01913417 0.01400000
v 0.04619398 -0.01913417 0.02250000
v 0.04635463 -0.01853759 0.02350480
v 0.04642530 -0.01856586 0.01400000
v 0.04642530 -0.01856586 0.02329555
f 12 13 14
f 22 21 24
f 19 16 17
f 11 13 12
f 15 17 16
f 15 16 14
f 15 14 13
f 18 22 19
f 19 17 18
f 21 22 18
f 5 2 6
f 10 11 12
f 10 8 7
f 3 6 2
f 8 6 3
f 7 8 3
f 9 10 7
f 11 10 9
f 23 20 4
f 4 20 1
f 21 20 23
f 23 24 21
f 2 4 1
f 2 5 4
f 23 4 10
f 10 24 23
f 19 22 10
f 10 16 19
f 4 5 10
f 12 14 10
f 14 16 10
f 10 22 24
f 5 6 10
f 10 6 8
f 1 20 9
f 20 21 9
f 13 11 9
f 9 2 1
f 9 15 13
f 21 18 9
f 7 3 9
f 17 15 9
f 9 18 17
f 9 3 2

