# https://github.com/mikedh/trimesh
v 0.02593463 -0.01874553 0.01400000
v 0.02593463 -0.01874553 0.01400256
v 0.02599632 -0.01879012 0.01400262
v 0.02616271 -0.01842586 0.01400000
v 0.02616271 -0.01842586 0.01401969
v 0.02617201 -0.01891711 0.01400266
v 0.02622495 -0.01846969 0.01402013
v 0.02640218 -0.01859451 0.01402051
v 0.02643494 -0.01910715 0.01400270
v 0.02666742 -0.01878132 0.01402076
v 0.02674509 -0.01933133 0.01400271
v 0.02698030 -0.01900167 0.01402085
v 0.03971240 -0.02870410 0.01400271
v 0.04002255 -0.02892827 0.01400270
v 0.04006166 -0.02821460 0.01402085
v 0.04028548 -0.02911832 0.01400266
v 0.04037453 -0.02843495 0.01402076
v 0.04046117 -0.02924530 0.01400262
v 0.04052286 -0.02928989 0.01400000
v 0.04052286 -0.02928989 0.01400256
v 0.04063978 -0.02862176 0.01402051
v 0.04081701 -0.02874658 0.01402013
v 0.04087924 -0.02879041 0.01400000
v 0.04087924 -0.02879041 0.01401969
f 18 15 12
f 12 16 18
f 5 2 7
f 2 8 7
f 15 18 17
f 8 6 10
f 11 13 10
f 13 14 10
f 10 14 16
f 10 16 12
f 3 8 2
f 3 6 8
f 21 17 20
f 20 17 18
f 20 22 21
f 24 22 20
f 11 10 9
f 9 10 6
f 23 19 4
f 4 19 1
f 2 4 1
f 2 5 4
f 23 4 10
f 21 22 10
f 10 24 23
f 4 5 10
f 12 15 10
f 5 7 10
f 10 22 24
f 10 17 21
f 10 7 8
f 15 17 10
f 20 19 23
f 23 24 20
f 1 19 9
f 16 14 9
f 9 2 1
f 9 3 2
f 9 13 11
f 9 14 13
f 9 18 16
f 19 20 9
f 6 3 9
f 9 20 18

