# https://github.com/mikedh/trimesh
v -0.00794291 -0.04936507 0.01400000
v -0.00794291 -0.04936507 0.03099744
v -0.00793081 -0.04928992 0.03138007
v -0.00789638 -0.04907590 0.03170444
v -0.00784484 -0.04875559 0.03192118
v -0.00778405 -0.04837777 0.03199729
v -0.00733652 -0.04945883 0.01400000
v -0.00733652 -0.04945883 0.03100000
v -0.00732535 -0.04938353 0.03138268
v -0.00729355 -0.04916910 0.03170711
v -0.00724594 -0.04884819 0.03192388
v -0.00718979 -0.04846965 0.03200000
v -0.00524232 -0.03258095 0.03199729
v -0.00518153 -0.03220312 0.03192118
v -0.00512999 -0.03188282 0.03170444
v -0.00509555 -0.03166880 0.03138007
v -0.00508346 -0.03159365 0.01400000
v -0.00508346 -0.03159365 0.03099744
v -0.00484211 -0.03264282 0.03200000
v -0.00478595 -0.03226428 0.03192388
v -0.00473835 -0.03194337 0.03170711
v -0.00470654 -0.03172894 0.03138268
v -0.00469538 -0.03165365 0.01400000
v -0.00469538 -0.03165365 0.03100000
f 12 6 5
f 19 6 12
f 9 2 8
f 12 5 11
f 11 5 4
f 4 10 11
f 6 19 13
f 2 9 3
f 3 9 10
f 3 10 4
f 24 18 22
f 20 13 19
f 20 21 15
f 16 22 18
f 21 22 16
f 15 21 16
f 14 20 15
f 13 20 14
f 23 7 17
f 17 7 1
f 7 8 2
f 1 7 2
f 23 17 18
f 18 24 23
f 20 8 7
f 20 7 23
f 20 9 8
f 23 24 20
f 20 19 12
f 12 11 20
f 20 22 21
f 10 9 20
f 20 11 10
f 24 22 20
f 14 17 1
f 4 5 14
f 14 3 4
f 1 2 14
f 15 16 14
f 14 5 6
f 14 18 17
f 6 13 14
f 2 3 14
f 14 16 18

