# https://github.com/mikedh/trimesh
v -0.04122947 -0.02828659 0.01400000
v -0.04122947 -0.02828659 0.01406389
v -0.04116670 -0.02824353 0.01406533
v -0.04098795 -0.02812089 0.01406655
v -0.04087924 -0.02879041 0.01400000
v -0.04087924 -0.02879041 0.01401969
v -0.04081701 -0.02874658 0.01402013
v -0.04072043 -0.02793735 0.01406736
v -0.04063978 -0.02862176 0.01402051
v -0.04040488 -0.02772086 0.01406765
v -0.04037453 -0.02843495 0.01402076
v -0.04006166 -0.02821460 0.01402085
v -0.02721145 -0.01866915 0.01406765
v -0.02698030 -0.01900167 0.01402085
v -0.02689589 -0.01845265 0.01406736
v -0.02666742 -0.01878132 0.01402076
v -0.02662837 -0.01826912 0.01406655
v -0.02644963 -0.01814648 0.01406533
v -0.02640218 -0.01859451 0.01402051
v -0.02638686 -0.01810342 0.01400000
v -0.02638686 -0.01810342 0.01406389
v -0.02622495 -0.01846969 0.01402013
v -0.02616271 -0.01842586 0.01400000
v -0.02616271 -0.01842586 0.01401969
f 7 4 6
f 8 4 7
f 9 13 10
f 10 8 9
f 9 8 7
f 2 6 3
f 3 6 4
f 18 24 21
f 17 19 22
f 22 18 17
f 24 18 22
f 13 9 11
f 12 14 15
f 15 11 12
f 13 11 15
f 15 19 17
f 19 15 16
f 16 15 14
f 23 5 20
f 20 5 1
f 1 5 6
f 6 2 1
f 23 20 24
f 20 21 24
f 15 20 1
f 1 2 15
f 15 21 20
f 10 13 15
f 2 3 15
f 15 8 10
f 17 18 15
f 4 8 15
f 15 3 4
f 15 18 21
f 16 5 23
f 16 6 5
f 23 24 16
f 16 22 19
f 7 6 16
f 16 14 12
f 16 9 7
f 12 11 16
f 24 22 16
f 16 11 9

