# https://github.com/mikedh/trimesh
v -0.04493372 -0.02193081 0.01400000
v -0.04493372 -0.02193081 0.01867853
v -0.04486532 -0.02189742 0.01878385
v -0.04467051 -0.02180234 0.01887313
v -0.04466122 -0.02248057 0.01400000
v -0.04466122 -0.02248057 0.01799788
v -0.04459322 -0.02244634 0.01808787
v -0.04439960 -0.02234888 0.01816417
v -0.04437896 -0.02166005 0.01893279
v -0.04410981 -0.02220301 0.01821515
v -0.04403505 -0.02149220 0.01895374
v -0.04376799 -0.02203096 0.01823305
v -0.02965626 -0.01447434 0.01895374
v -0.02947640 -0.01483717 0.01823305
v -0.02931235 -0.01430648 0.01893279
v -0.02913458 -0.01466512 0.01821515
v -0.02902080 -0.01416419 0.01887313
v -0.02884480 -0.01451925 0.01816417
v -0.02882599 -0.01406911 0.01878385
v -0.02875758 -0.01403572 0.01400000
v -0.02875758 -0.01403572 0.01867853
v -0.02865117 -0.01442179 0.01808787
v -0.02858318 -0.01438756 0.01400000
v -0.02858318 -0.01438756 0.01799788
f 7 4 3
f 3 6 7
f 2 6 3
f 10 12 11
f 13 12 14
f 11 12 13
f 9 10 11
f 8 4 7
f 8 9 4
f 10 9 8
f 24 21 19
f 24 19 22
f 22 19 17
f 17 18 22
f 15 16 18
f 15 18 17
f 14 16 15
f 15 13 14
f 23 5 20
f 20 5 1
f 1 5 6
f 6 2 1
f 23 20 21
f 21 24 23
f 22 5 23
f 23 24 22
f 22 6 5
f 22 8 7
f 7 6 22
f 14 12 22
f 12 10 22
f 22 16 14
f 10 8 22
f 18 16 22
f 15 20 1
f 1 2 15
f 11 13 15
f 15 21 20
f 2 3 15
f 15 3 4
f 15 9 11
f 17 19 15
f 4 9 15
f 15 19 21

