# https://github.com/mikedh/trimesh
v -0.00428987 0.04981563 0.01400000
v -0.00428987 0.04981563 0.03100000
v -0.00428333 0.04973979 0.03138268
v -0.00426474 0.04952382 0.03170711
v -0.00423690 0.04920059 0.03192388
v -0.00420407 0.04881932 0.03200000
v -0.00367823 0.04986452 0.01400000
v -0.00367823 0.04986452 0.03100000
v -0.00367263 0.04978861 0.03138268
v -0.00365668 0.04957242 0.03170711
v -0.00363282 0.04924888 0.03192388
v -0.00360466 0.04886723 0.03200000
v -0.00283131 0.03287832 0.03200000
v -0.00279848 0.03249704 0.03192388
v -0.00277064 0.03217382 0.03170711
v -0.00275204 0.03195784 0.03138268
v -0.00274551 0.03188200 0.01400000
v -0.00274551 0.03188200 0.03100000
v -0.00242763 0.03291059 0.03200000
v -0.00239948 0.03252894 0.03192388
v -0.00237561 0.03220539 0.03170711
v -0.00235967 0.03198921 0.03138268
v -0.00235407 0.03191329 0.01400000
v -0.00235407 0.03191329 0.03100000
f 17 7 23
f 1 7 17
f 8 7 1
f 1 2 8
f 18 17 23
f 23 24 18
f 19 12 13
f 13 12 6
f 3 8 2
f 3 9 8
f 10 9 3
f 3 4 10
f 4 5 11
f 10 4 11
f 11 5 6
f 6 12 11
f 23 7 22
f 22 24 23
f 7 8 22
f 22 9 10
f 22 12 19
f 10 11 22
f 8 9 22
f 19 20 22
f 22 11 12
f 22 20 21
f 22 18 24
f 22 16 18
f 15 16 22
f 22 21 15
f 1 17 14
f 14 2 1
f 17 18 14
f 14 13 6
f 6 5 14
f 14 5 4
f 14 3 2
f 14 16 15
f 4 3 14
f 18 16 14
f 21 20 14
f 15 21 14
f 19 13 14
f 14 20 19

