# https://github.com/mikedh/trimesh
v 0.01368176 0.02892766 0.01400000
v 0.01368176 0.02892766 0.01939648
v 0.01371431 0.02899647 0.01951796
v 0.01380699 0.02919243 0.01962094
v 0.01394570 0.02948570 0.01968976
v 0.01403572 0.02875758 0.01400000
v 0.01403572 0.02875758 0.01867853
v 0.01406911 0.02882599 0.01878385
v 0.01410932 0.02983165 0.01971392
v 0.01416419 0.02902080 0.01887313
v 0.01430648 0.02931235 0.01893279
v 0.01447434 0.02965626 0.01895374
v 0.02095020 0.04429548 0.01971392
v 0.02111382 0.04464142 0.01968976
v 0.02125253 0.04493469 0.01962094
v 0.02134521 0.04513065 0.01951796
v 0.02137775 0.04519946 0.01400000
v 0.02137775 0.04519946 0.01939648
v 0.02149220 0.04403505 0.01895374
v 0.02166005 0.04437896 0.01893279
v 0.02180234 0.04467051 0.01887313
v 0.02189742 0.04486532 0.01878385
v 0.02193081 0.04493372 0.01400000
v 0.02193081 0.04493372 0.01867853
f 15 21 22
f 14 21 15
f 19 13 9
f 3 2 7
f 15 22 16
f 18 16 24
f 24 16 22
f 12 19 9
f 9 5 12
f 20 14 13
f 13 19 20
f 21 14 20
f 10 5 4
f 11 12 5
f 5 10 11
f 4 3 8
f 8 10 4
f 8 3 7
f 1 17 6
f 6 17 23
f 6 2 1
f 7 2 6
f 16 18 17
f 16 17 1
f 1 2 16
f 16 5 9
f 9 13 16
f 2 3 16
f 16 14 15
f 13 14 16
f 16 3 4
f 4 5 16
f 17 18 24
f 23 17 24
f 8 6 23
f 7 6 8
f 23 24 8
f 8 22 21
f 21 20 8
f 8 24 22
f 19 12 8
f 8 20 19
f 12 11 8
f 8 11 10

