# https://github.com/mikedh/trimesh
v -0.00733652 0.04945883 0.01400000
v -0.00733652 0.04945883 0.03100000
v -0.00732535 0.04938353 0.03138268
v -0.00729355 0.04916910 0.03170711
v -0.00724594 0.04884819 0.03192388
v -0.00718979 0.04846965 0.03200000
v -0.00672904 0.04954513 0.01400000
v -0.00672904 0.04954513 0.03100000
v -0.00671879 0.04946970 0.03138268
v -0.00668962 0.04925490 0.03170711
v -0.00664596 0.04893343 0.03192388
v -0.00659445 0.04855423 0.03200000
v -0.00484211 0.03264282 0.03200000
v -0.00478595 0.03226428 0.03192388
v -0.00473835 0.03194337 0.03170711
v -0.00470654 0.03172894 0.03138268
v -0.00469538 0.03165365 0.01400000
v -0.00469538 0.03165365 0.03100000
v -0.00444116 0.03269979 0.03200000
v -0.00438966 0.03232058 0.03192388
v -0.00434600 0.03199911 0.03170711
v -0.00431683 0.03178431 0.03138268
v -0.00430658 0.03170888 0.01400000
v -0.00430658 0.03170888 0.03100000
f 17 7 23
f 1 7 17
f 8 7 1
f 1 2 8
f 11 5 6
f 6 12 11
f 4 5 11
f 11 10 4
f 9 8 2
f 2 3 9
f 9 3 4
f 4 10 9
f 16 22 21
f 16 21 15
f 24 17 23
f 24 18 17
f 24 16 18
f 22 16 24
f 1 17 14
f 14 2 1
f 17 18 14
f 6 5 14
f 14 3 2
f 14 5 4
f 4 3 14
f 14 13 6
f 14 16 15
f 18 16 14
f 21 20 14
f 15 21 14
f 23 7 19
f 8 9 19
f 7 8 19
f 19 11 12
f 19 24 23
f 10 11 19
f 19 9 10
f 21 22 19
f 19 20 21
f 22 24 19
f 6 13 19
f 19 12 6
f 13 14 19
f 19 14 20

