# https://github.com/mikedh/trimesh
v 0.02638686 0.01810342 0.01400000
v 0.02638686 0.01810342 0.01406389
v 0.02644963 0.01814648 0.01406533
v 0.02660703 0.01777825 0.01400000
v 0.02660703 0.01777825 0.01414552
v 0.02662837 0.01826912 0.01406655
v 0.02667032 0.01782054 0.01414880
v 0.02685056 0.01794097 0.01415157
v 0.02689589 0.01845265 0.01406736
v 0.02712031 0.01812121 0.01415343
v 0.02721145 0.01866915 0.01406765
v 0.02743850 0.01833382 0.01415408
v 0.04040488 0.02772086 0.01406765
v 0.04072043 0.02793735 0.01406736
v 0.04074201 0.02722294 0.01415408
v 0.04098795 0.02812089 0.01406655
v 0.04106020 0.02743555 0.01415343
v 0.04116670 0.02824353 0.01406533
v 0.04122947 0.02828659 0.01400000
v 0.04122947 0.02828659 0.01406389
v 0.04132995 0.02761579 0.01415157
v 0.04151019 0.02773622 0.01414880
v 0.04157348 0.02777851 0.01400000
v 0.04157348 0.02777851 0.01414552
f 6 8 10
f 13 11 10
f 12 13 10
f 7 2 5
f 12 15 14
f 14 13 12
f 6 10 9
f 9 10 11
f 3 7 8
f 2 7 3
f 3 8 6
f 24 20 22
f 16 14 15
f 21 22 18
f 18 22 20
f 17 16 15
f 17 18 16
f 21 18 17
f 4 19 23
f 1 19 4
f 1 4 2
f 4 5 2
f 23 19 20
f 20 24 23
f 18 19 1
f 1 2 18
f 18 11 13
f 13 14 18
f 6 9 18
f 18 20 19
f 18 3 6
f 18 9 11
f 2 3 18
f 14 16 18
f 17 4 23
f 23 24 17
f 17 5 4
f 17 15 12
f 12 10 17
f 17 7 5
f 17 10 8
f 8 7 17
f 24 22 17
f 17 22 21

