# https://github.com/mikedh/trimesh
v -0.04191124 -0.02726625 0.01400000
v -0.04191124 -0.02726625 0.01427289
v -0.04184743 -0.02722474 0.01427903
v -0.04166572 -0.02710653 0.01428424
v -0.04157348 -0.02777851 0.01400000
v -0.04157348 -0.02777851 0.01414552
v -0.04151019 -0.02773622 0.01414880
v -0.04139379 -0.02692961 0.01428772
v -0.04132995 -0.02761579 0.01415157
v -0.04107301 -0.02672092 0.01428894
v -0.04106020 -0.02743555 0.01415343
v -0.04074201 -0.02722294 0.01415408
v -0.02766142 -0.01799572 0.01428894
v -0.02743850 -0.01833382 0.01415408
v -0.02734064 -0.01778704 0.01428772
v -0.02712031 -0.01812121 0.01415343
v -0.02706870 -0.01761012 0.01428424
v -0.02688700 -0.01749191 0.01427903
v -0.02685056 -0.01794097 0.01415157
v -0.02682319 -0.01745040 0.01400000
v -0.02682319 -0.01745040 0.01427289
v -0.02667032 -0.01782054 0.01414880
v -0.02660703 -0.01777825 0.01400000
v -0.02660703 -0.01777825 0.01414552
f 17 19 22
f 7 4 3
f 3 6 7
f 2 6 3
f 10 9 11
f 11 13 10
f 12 13 11
f 8 9 10
f 7 9 8
f 8 4 7
f 17 22 18
f 21 18 24
f 24 18 22
f 12 14 15
f 15 13 12
f 15 19 17
f 19 15 16
f 16 15 14
f 23 5 20
f 20 5 1
f 1 5 6
f 6 2 1
f 23 20 24
f 20 21 24
f 15 20 1
f 1 2 15
f 10 13 15
f 15 21 20
f 15 8 10
f 17 18 15
f 2 3 15
f 15 3 4
f 4 8 15
f 15 18 21
f 16 5 23
f 16 14 12
f 16 6 5
f 12 11 16
f 16 9 7
f 7 6 16
f 16 22 19
f 23 24 16
f 16 11 9
f 16 24 22

