# https://github.com/mikedh/trimesh
v 0.02638686 -0.01810342 0.01400000
v 0.02638686 -0.01810342 0.01406389
v 0.02644963 -0.01814648 0.01406533
v 0.02660703 -0.01777825 0.01400000
v 0.02660703 -0.01777825 0.01414552
v 0.02662837 -0.01826912 0.01406655
v 0.02667032 -0.01782054 0.01414880
v 0.02685056 -0.01794097 0.01415157
v 0.02689589 -0.01845265 0.01406736
v 0.02712031 -0.01812121 0.01415343
v 0.02721145 -0.01866915 0.01406765
v 0.02743850 -0.01833382 0.01415408
v 0.04040488 -0.02772086 0.01406765
v 0.04072043 -0.02793735 0.01406736
v 0.04074201 -0.02722294 0.01415408
v 0.04098795 -0.02812089 0.01406655
v 0.04106020 -0.02743555 0.01415343
v 0.04116670 -0.02824353 0.01406533
v 0.04122947 -0.02828659 0.01400000
v 0.04122947 -0.02828659 0.01406389
v 0.04132995 -0.02761579 0.01415157
v 0.04151019 -0.02773622 0.01414880
v 0.04157348 -0.02777851 0.01400000
v 0.04157348 -0.02777851 0.01414552
f 10 8 6
f 10 11 13
f 10 13 12
f 5 2 7
f 14 15 12
f 12 13 14
f 9 10 6
f 11 10 9
f 8 7 3
f 3 7 2
f 6 8 3
f 22 20 24
f 15 14 16
f 18 22 21
f 20 22 18
f 15 16 17
f 16 18 17
f 17 18 21
f 23 19 4
f 4 19 1
f 2 4 1
f 2 5 4
f 20 19 23
f 23 24 20
f 1 19 18
f 18 2 1
f 13 11 18
f 18 14 13
f 18 9 6
f 19 20 18
f 6 3 18
f 11 9 18
f 18 3 2
f 18 16 14
f 23 4 17
f 17 24 23
f 4 5 17
f 12 15 17
f 17 10 12
f 5 7 17
f 8 10 17
f 17 7 8
f 17 22 24
f 21 22 17

