# https://github.com/mikedh/trimesh
v 0.00815570 -0.03094325 0.01400000
v 0.00815570 -0.03094325 0.02965831
v 0.00817510 -0.03101685 0.03001079
v 0.00823035 -0.03122647 0.03030961
v 0.00831303 -0.03154018 0.03050928
v 0.00841057 -0.03191022 0.03057939
v 0.00853481 -0.03084083 0.01400000
v 0.00853481 -0.03084083 0.02924023
v 0.00855511 -0.03091420 0.02958330
v 0.00861293 -0.03112312 0.02987414
v 0.00869945 -0.03143579 0.03006848
v 0.00880152 -0.03180461 0.03013672
v 0.01248842 -0.04738185 0.03057939
v 0.01258595 -0.04775189 0.03050928
v 0.01266863 -0.04806560 0.03030961
v 0.01272388 -0.04827522 0.03001079
v 0.01274328 -0.04834882 0.01400000
v 0.01274328 -0.04834882 0.02965831
v 0.01306893 -0.04722503 0.03013672
v 0.01317099 -0.04759385 0.03006848
v 0.01325752 -0.04790652 0.02987414
v 0.01331534 -0.04811544 0.02958330
v 0.01333564 -0.04818880 0.01400000
v 0.01333564 -0.04818880 0.02924023
f 22 21 15
f 15 21 14
f 6 13 19
f 8 2 3
f 16 22 15
f 24 16 18
f 22 16 24
f 6 19 12
f 12 5 6
f 13 14 20
f 20 19 13
f 20 14 21
f 5 12 11
f 4 5 10
f 5 11 10
f 9 3 4
f 4 10 9
f 8 3 9
f 7 17 1
f 23 17 7
f 1 2 7
f 7 2 8
f 17 18 16
f 1 17 16
f 16 2 1
f 6 5 16
f 16 13 6
f 16 3 2
f 15 14 16
f 16 14 13
f 4 3 16
f 16 5 4
f 24 18 17
f 24 17 23
f 23 7 9
f 9 7 8
f 9 24 23
f 21 22 9
f 9 20 21
f 22 24 9
f 9 12 19
f 19 20 9
f 9 11 12
f 9 10 11

