# https://github.com/mikedh/trimesh
v -0.02879041 0.04087924 0.01400000
v -0.02879041 0.04087924 0.01401969
v -0.02874658 0.04081701 0.01402013
v -0.02862176 0.04063978 0.01402051
v -0.02843495 0.04037453 0.01402076
v -0.02828659 0.04122947 0.01400000
v -0.02828659 0.04122947 0.01406389
v -0.02824353 0.04116670 0.01406533
v -0.02821460 0.04006166 0.01402085
v -0.02812089 0.04098795 0.01406655
v -0.02793735 0.04072043 0.01406736
v -0.02772086 0.04040488 0.01406765
v -0.01900167 0.02698030 0.01402085
v -0.01878132 0.02666742 0.01402076
v -0.01866915 0.02721145 0.01406765
v -0.01859451 0.02640218 0.01402051
v -0.01846969 0.02622495 0.01402013
v -0.01845265 0.02689589 0.01406736
v -0.01842586 0.02616271 0.01400000
v -0.01842586 0.02616271 0.01401969
v -0.01826912 0.02662837 0.01406655
v -0.01814648 0.02644963 0.01406533
v -0.01810342 0.02638686 0.01400000
v -0.01810342 0.02638686 0.01406389
f 11 4 12
f 17 21 16
f 20 24 22
f 17 20 22
f 22 21 17
f 7 2 8
f 8 2 10
f 3 11 10
f 10 2 3
f 4 11 3
f 18 16 21
f 18 9 13
f 14 18 13
f 16 18 14
f 9 18 5
f 4 5 15
f 15 5 18
f 12 4 15
f 19 6 23
f 1 6 19
f 24 19 23
f 24 20 19
f 2 7 6
f 2 6 1
f 1 19 5
f 5 2 1
f 5 20 17
f 19 20 5
f 17 16 5
f 5 14 13
f 4 3 5
f 13 9 5
f 5 3 2
f 16 14 5
f 6 7 15
f 23 6 15
f 15 24 23
f 7 8 15
f 21 22 15
f 15 11 12
f 10 11 15
f 15 22 24
f 15 8 10
f 15 18 21

