# https://github.com/mikedh/trimesh
v -0.04087924 0.02879041 0.01400000
v -0.04087924 0.02879041 0.01401969
v -0.04081701 0.02874658 0.01402013
v -0.04063978 0.02862176 0.01402051
v -0.04052286 0.02928989 0.01400000
v -0.04052286 0.02928989 0.01400256
v -0.04046117 0.02924530 0.01400262
v -0.04037453 0.02843495 0.01402076
v -0.04028548 0.02911832 0.01400266
v -0.04006166 0.02821460 0.01402085
v -0.04002255 0.02892827 0.01400270
v -0.03971240 0.02870410 0.01400271
v -0.02698030 0.01900167 0.01402085
v -0.02674509 0.01933133 0.01400271
v -0.02666742 0.01878132 0.01402076
v -0.02643494 0.01910715 0.01400270
v -0.02640218 0.01859451 0.01402051
v -0.02622495 0.01846969 0.01402013
v -0.02617201 0.01891711 0.01400266
v -0.02616271 0.01842586 0.01400000
v -0.02616271 0.01842586 0.01401969
v -0.02599632 0.01879012 0.01400262
v -0.02593463 0.01874553 0.01400000
v -0.02593463 0.01874553 0.01400256
f 3 6 2
f 3 4 6
f 6 4 8
f 10 13 7
f 7 8 10
f 6 8 7
f 21 24 18
f 18 24 17
f 22 19 17
f 17 24 22
f 15 14 12
f 15 16 14
f 19 16 15
f 17 19 15
f 11 15 12
f 15 11 9
f 13 15 9
f 9 7 13
f 20 5 23
f 1 5 20
f 6 5 1
f 1 2 6
f 24 20 23
f 24 21 20
f 1 20 15
f 15 2 1
f 20 21 15
f 15 3 2
f 10 8 15
f 15 13 10
f 15 18 17
f 4 3 15
f 15 8 4
f 21 18 15
f 23 5 9
f 5 6 9
f 9 24 23
f 12 14 9
f 19 22 9
f 9 16 19
f 6 7 9
f 14 16 9
f 9 22 24
f 9 11 12

