# https://github.com/mikedh/trimesh
v 0.01611323 -0.02764713 0.01400000
v 0.01611323 -0.02764713 0.01534169
v 0.01615156 -0.02771290 0.01537189
v 0.01626071 -0.02790018 0.01539749
v 0.01642407 -0.02818048 0.01541460
v 0.01645129 -0.02744732 0.01400000
v 0.01645129 -0.02744732 0.01498464
v 0.01649042 -0.02751261 0.01500681
v 0.01660187 -0.02769854 0.01502560
v 0.01661677 -0.02851110 0.01542061
v 0.01676865 -0.02797681 0.01503815
v 0.01696539 -0.02830504 0.01504256
v 0.02467338 -0.04233467 0.01542061
v 0.02486608 -0.04266530 0.01541460
v 0.02502944 -0.04294559 0.01539749
v 0.02513859 -0.04313288 0.01537189
v 0.02517692 -0.04319864 0.01400000
v 0.02517692 -0.04319864 0.01534169
v 0.02519103 -0.04202870 0.01504256
v 0.02538777 -0.04235694 0.01503815
v 0.02555456 -0.04263521 0.01502560
v 0.02566600 -0.04282114 0.01500681
v 0.02570514 -0.04288643 0.01400000
v 0.02570514 -0.04288643 0.01498464
f 7 2 3
f 10 13 19
f 13 20 19
f 14 20 13
f 15 16 22
f 12 5 10
f 10 19 12
f 21 14 15
f 15 22 21
f 20 14 21
f 24 16 18
f 24 22 16
f 4 5 9
f 5 12 11
f 11 9 5
f 8 3 4
f 4 9 8
f 7 3 8
f 6 17 1
f 23 17 6
f 1 2 6
f 6 2 7
f 17 18 14
f 1 17 14
f 14 2 1
f 14 13 10
f 14 16 15
f 10 5 14
f 18 16 14
f 14 3 2
f 4 3 14
f 14 5 4
f 24 18 17
f 24 17 23
f 23 6 8
f 8 6 7
f 20 21 8
f 8 19 20
f 8 24 23
f 8 12 19
f 8 21 22
f 22 24 8
f 8 11 12
f 9 11 8

