# https://github.com/mikedh/trimesh
v 0.03175935 -0.00391714 0.01400000
v 0.03175935 -0.00391714 0.03100000
v 0.03180502 -0.00352711 0.01400000
v 0.03180502 -0.00352711 0.03100000
v 0.03183489 -0.00392646 0.03138268
v 0.03188068 -0.00353550 0.03138268
v 0.03205004 -0.00395299 0.03170711
v 0.03209613 -0.00355939 0.03170711
v 0.03237202 -0.00399271 0.03192388
v 0.03241858 -0.00359515 0.03192388
v 0.03275182 -0.00403955 0.03200000
v 0.03279893 -0.00363733 0.03200000
v 0.04863150 -0.00599812 0.03200000
v 0.04870144 -0.00540089 0.03200000
v 0.04901130 -0.00604497 0.03192388
v 0.04908179 -0.00544307 0.03192388
v 0.04933329 -0.00608468 0.03170711
v 0.04940424 -0.00547883 0.03170711
v 0.04954843 -0.00611122 0.03138268
v 0.04961969 -0.00550272 0.03138268
v 0.04962398 -0.00612053 0.01400000
v 0.04962398 -0.00612053 0.03100000
v 0.04969535 -0.00551111 0.01400000
v 0.04969535 -0.00551111 0.03100000
f 3 21 1
f 23 21 3
f 1 2 3
f 3 2 4
f 21 22 19
f 1 21 19
f 19 2 1
f 11 9 19
f 19 13 11
f 19 5 2
f 17 15 19
f 19 15 13
f 7 5 19
f 19 9 7
f 19 20 18
f 19 18 17
f 24 22 21
f 24 21 23
f 24 19 22
f 20 19 24
f 11 13 12
f 13 14 12
f 16 15 17
f 17 18 16
f 13 15 16
f 16 14 13
f 10 9 11
f 11 12 10
f 7 9 8
f 9 10 8
f 23 3 6
f 6 3 4
f 6 24 23
f 18 20 6
f 6 16 18
f 20 24 6
f 6 12 14
f 14 16 6
f 6 10 12
f 6 8 10
f 4 2 6
f 2 5 6
f 6 5 7
f 7 8 6

