# https://github.com/mikedh/trimesh
v -0.04945883 -0.00733652 0.01400000
v -0.04945883 -0.00733652 0.03100000
v -0.04938353 -0.00732535 0.03138268
v -0.04936507 -0.00794291 0.01400000
v -0.04936507 -0.00794291 0.03099744
v -0.04928992 -0.00793081 0.03138007
v -0.04916910 -0.00729355 0.03170711
v -0.04907590 -0.00789638 0.03170444
v -0.04884819 -0.00724594 0.03192388
v -0.04875559 -0.00784484 0.03192118
v -0.04846965 -0.00718979 0.03200000
v -0.04837777 -0.00778405 0.03199729
v -0.03264282 -0.00484211 0.03200000
v -0.03258095 -0.00524232 0.03199729
v -0.03226428 -0.00478595 0.03192388
v -0.03220312 -0.00518153 0.03192118
v -0.03194337 -0.00473835 0.03170711
v -0.03188282 -0.00512999 0.03170444
v -0.03172894 -0.00470654 0.03138268
v -0.03166880 -0.00509555 0.03138007
v -0.03165365 -0.00469538 0.01400000
v -0.03165365 -0.00469538 0.03100000
v -0.03159365 -0.00508346 0.01400000
v -0.03159365 -0.00508346 0.03099744
f 9 7 8
f 2 5 3
f 13 12 14
f 11 12 13
f 10 9 8
f 11 9 10
f 10 12 11
f 6 3 5
f 7 3 6
f 8 7 6
f 24 22 19
f 24 19 20
f 20 19 17
f 17 18 20
f 15 16 18
f 15 18 17
f 14 16 15
f 15 13 14
f 23 4 21
f 21 4 1
f 1 4 5
f 5 2 1
f 23 21 22
f 22 24 23
f 20 4 23
f 23 24 20
f 20 5 4
f 14 12 20
f 20 10 8
f 8 6 20
f 20 16 14
f 12 10 20
f 20 6 5
f 18 16 20
f 15 21 1
f 1 2 15
f 15 22 21
f 15 9 11
f 2 3 15
f 7 9 15
f 15 3 7
f 11 13 15
f 17 19 15
f 15 19 22

