# https://github.com/mikedh/trimesh
v 0.00196226 0.03193978 0.01400000
v 0.00196226 0.03193978 0.03100000
v 0.00196693 0.03201576 0.03138268
v 0.00198022 0.03223212 0.03170711
v 0.00200012 0.03255593 0.03192388
v 0.00202358 0.03293790 0.03200000
v 0.00235407 0.03191329 0.01400000
v 0.00235407 0.03191329 0.03100000
v 0.00235967 0.03198921 0.03138268
v 0.00237561 0.03220539 0.03170711
v 0.00239948 0.03252894 0.03192388
v 0.00242763 0.03291059 0.03200000
v 0.00300472 0.04890779 0.03200000
v 0.00302818 0.04928975 0.03192388
v 0.00304808 0.04961356 0.03170711
v 0.00306137 0.04982993 0.03138268
v 0.00306604 0.04990591 0.01400000
v 0.00306604 0.04990591 0.03100000
v 0.00360466 0.04886723 0.03200000
v 0.00363282 0.04924888 0.03192388
v 0.00365668 0.04957242 0.03170711
v 0.00367263 0.04978861 0.03138268
v 0.00367823 0.04986452 0.01400000
v 0.00367823 0.04986452 0.03100000
f 1 17 7
f 7 17 23
f 7 2 1
f 8 2 7
f 16 18 17
f 16 17 1
f 1 2 16
f 16 5 6
f 6 13 16
f 2 3 16
f 16 14 15
f 13 14 16
f 16 3 4
f 4 5 16
f 21 22 16
f 15 21 16
f 17 18 24
f 23 17 24
f 18 16 24
f 24 16 22
f 12 13 6
f 12 19 13
f 15 14 20
f 20 21 15
f 20 14 13
f 13 19 20
f 6 5 11
f 11 12 6
f 10 5 4
f 10 11 5
f 9 7 23
f 8 7 9
f 23 24 9
f 9 22 21
f 21 20 9
f 9 24 22
f 19 12 9
f 9 20 19
f 12 11 9
f 11 10 9
f 9 2 8
f 9 3 2
f 4 3 9
f 9 10 4

