# https://github.com/mikedh/trimesh
v 0.03138513 0.00624289 0.01400000
v 0.03138513 0.00624289 0.03085448
v 0.03145938 0.00585728 0.01400000
v 0.03145938 0.00585728 0.03093611
v 0.03145979 0.00625774 0.03123389
v 0.03153421 0.00587121 0.03131735
v 0.03167239 0.00630003 0.03155553
v 0.03174732 0.00591089 0.03164056
v 0.03199058 0.00636332 0.03177045
v 0.03206626 0.00597027 0.03185651
v 0.03236591 0.00643798 0.03184592
v 0.03244248 0.00604032 0.03193235
v 0.04805848 0.00955943 0.03184592
v 0.04817217 0.00896895 0.03193235
v 0.04843381 0.00963408 0.03177045
v 0.04854839 0.00903900 0.03185651
v 0.04875200 0.00969738 0.03155553
v 0.04886733 0.00909838 0.03164056
v 0.04896461 0.00973967 0.03123389
v 0.04903926 0.00975452 0.01400000
v 0.04903926 0.00975452 0.03085448
v 0.04908044 0.00913806 0.03131735
v 0.04915527 0.00915199 0.01400000
v 0.04915527 0.00915199 0.03093611
f 14 13 12
f 24 21 22
f 17 16 18
f 12 13 11
f 16 17 15
f 14 16 15
f 13 14 15
f 18 22 19
f 19 17 18
f 19 22 21
f 6 2 4
f 12 11 10
f 7 8 10
f 2 6 5
f 5 6 8
f 5 8 7
f 7 10 9
f 9 10 11
f 3 20 23
f 1 20 3
f 23 20 21
f 21 24 23
f 1 3 2
f 3 4 2
f 10 3 23
f 23 24 10
f 10 22 18
f 18 16 10
f 10 4 3
f 10 14 12
f 10 16 14
f 24 22 10
f 10 6 4
f 8 6 10
f 9 20 1
f 9 21 20
f 9 11 13
f 1 2 9
f 13 15 9
f 9 19 21
f 9 5 7
f 9 15 17
f 17 19 9
f 2 5 9

