# https://github.com/mikedh/trimesh
v 0.00579555 -0.00155291 0.01400000
v 0.00579555 -0.00155291 0.02320000
v 0.00600000 -0.00000000 0.01400000
v 0.00600000 -0.00000000 0.02320000
v 0.01980148 -0.00530579 0.02320000
v 0.02017648 -0.00540627 0.02314889
v 0.02050000 -0.00000000 0.02320000
v 0.02052592 -0.00549990 0.02299904
v 0.02082600 -0.00558031 0.02276066
v 0.02088823 -0.00000000 0.02314889
v 0.02105625 -0.00564201 0.02245000
v 0.02120100 -0.00568079 0.02208823
v 0.02125000 -0.00000000 0.02299904
v 0.02125037 -0.00569402 0.01400000
v 0.02125037 -0.00569402 0.02170000
v 0.02156066 -0.00000000 0.02276066
v 0.02179904 -0.00000000 0.02245000
v 0.02194889 -0.00000000 0.02208823
v 0.02200000 -0.00000000 0.01400000
v 0.02200000 -0.00000000 0.02170000
f 3 14 1
f 19 14 3
f 1 2 4
f 4 3 1
f 20 14 19
f 20 15 14
f 2 5 7
f 7 4 2
f 5 6 7
f 7 6 10
f 9 2 1
f 1 14 9
f 14 15 9
f 9 5 2
f 15 12 9
f 8 6 9
f 9 12 11
f 9 6 5
f 13 6 8
f 10 6 13
f 8 9 13
f 13 9 16
f 17 9 11
f 16 9 17
f 19 3 18
f 3 4 18
f 18 20 19
f 10 13 18
f 4 7 18
f 18 7 10
f 18 13 16
f 16 17 18
f 15 20 18
f 18 12 15
f 11 12 18
f 18 17 11

