# https://github.com/mikedh/trimesh
v -0.00569402 -0.02125037 0.01400000
v -0.00569402 -0.02125037 0.02170000
v -0.00568079 -0.02120100 0.02208823
v -0.00564201 -0.02105625 0.02245000
v -0.00558031 -0.02082600 0.02276066
v -0.00549990 -0.02052592 0.02299904
v -0.00540627 -0.02017648 0.02314889
v -0.00530579 -0.01980148 0.02320000
v -0.00155291 -0.00579555 0.01400000
v -0.00155291 -0.00579555 0.02320000
v -0.00000000 -0.02200000 0.01400000
v -0.00000000 -0.02200000 0.02170000
v -0.00000000 -0.02194889 0.02208823
v -0.00000000 -0.02179904 0.02245000
v -0.00000000 -0.02156066 0.02276066
v -0.00000000 -0.02125000 0.02299904
v -0.00000000 -0.02088823 0.02314889
v -0.00000000 -0.02050000 0.02320000
v -0.00000000 -0.00600000 0.01400000
v -0.00000000 -0.00600000 0.02320000
f 9 11 1
f 19 11 9
f 18 20 10
f 8 18 10
f 19 9 10
f 10 20 19
f 1 11 2
f 11 12 2
f 2 12 13
f 13 3 2
f 14 3 13
f 14 4 3
f 19 20 15
f 15 11 19
f 15 12 11
f 15 20 18
f 13 12 15
f 15 14 13
f 18 17 15
f 15 17 16
f 5 4 15
f 4 14 15
f 6 15 16
f 5 15 6
f 7 9 1
f 3 4 7
f 8 10 7
f 7 10 9
f 1 2 7
f 7 2 3
f 7 4 5
f 5 6 7
f 7 18 8
f 7 17 18
f 16 17 7
f 7 6 16

