# https://github.com/mikedh/trimesh
v -0.04157348 0.02777851 0.01400000
v -0.04157348 0.02777851 0.01414552
v -0.04151019 0.02773622 0.01414880
v -0.04132995 0.02761579 0.01415157
v -0.04122947 0.02828659 0.01400000
v -0.04122947 0.02828659 0.01406389
v -0.04116670 0.02824353 0.01406533
v -0.04106020 0.02743555 0.01415343
v -0.04098795 0.02812089 0.01406655
v -0.04074201 0.02722294 0.01415408
v -0.04072043 0.02793735 0.01406736
v -0.04040488 0.02772086 0.01406765
v -0.02743850 0.01833382 0.01415408
v -0.02721145 0.01866915 0.01406765
v -0.02712031 0.01812121 0.01415343
v -0.02689589 0.01845265 0.01406736
v -0.02685056 0.01794097 0.01415157
v -0.02667032 0.01782054 0.01414880
v -0.02662837 0.01826912 0.01406655
v -0.02660703 0.01777825 0.01400000
v -0.02660703 0.01777825 0.01414552
v -0.02644963 0.01814648 0.01406533
v -0.02638686 0.01810342 0.01400000
v -0.02638686 0.01810342 0.01406389
f 10 13 11
f 11 13 12
f 22 19 17
f 7 4 8
f 3 6 2
f 7 6 3
f 3 4 7
f 18 22 17
f 24 18 21
f 22 18 24
f 15 14 12
f 12 13 15
f 17 19 15
f 7 8 9
f 9 8 10
f 10 11 9
f 16 15 19
f 14 15 16
f 20 5 23
f 1 5 20
f 6 5 1
f 1 2 6
f 24 20 23
f 24 21 20
f 1 20 15
f 15 2 1
f 15 13 10
f 20 21 15
f 15 3 2
f 15 18 17
f 10 8 15
f 15 8 4
f 4 3 15
f 21 18 15
f 23 5 16
f 16 11 12
f 5 6 16
f 12 14 16
f 16 24 23
f 16 6 7
f 19 22 16
f 7 9 16
f 22 24 16
f 16 9 11

