# https://github.com/mikedh/trimesh
v -0.02928989 -0.04052286 0.01400000
v -0.02928989 -0.04052286 0.01400256
v -0.02924530 -0.04046117 0.01400262
v -0.02911832 -0.04028548 0.01400266
v -0.02892827 -0.04002255 0.01400270
v -0.02879041 -0.04087924 0.01400000
v -0.02879041 -0.04087924 0.01401969
v -0.02874658 -0.04081701 0.01402013
v -0.02870410 -0.03971240 0.01400271
v -0.02862176 -0.04063978 0.01402051
v -0.02843495 -0.04037453 0.01402076
v -0.02821460 -0.04006166 0.01402085
v -0.01933133 -0.02674509 0.01400271
v -0.01910715 -0.02643494 0.01400270
v -0.01900167 -0.02698030 0.01402085
v -0.01891711 -0.02617201 0.01400266
v -0.01879012 -0.02599632 0.01400262
v -0.01878132 -0.02666742 0.01402076
v -0.01874553 -0.02593463 0.01400000
v -0.01874553 -0.02593463 0.01400256
v -0.01859451 -0.02640218 0.01402051
v -0.01846969 -0.02622495 0.01402013
v -0.01842586 -0.02616271 0.01400000
v -0.01842586 -0.02616271 0.01401969
f 12 15 3
f 22 24 20
f 22 20 21
f 12 3 11
f 10 11 2
f 2 11 3
f 2 8 10
f 7 8 2
f 15 18 4
f 4 3 15
f 16 18 21
f 18 13 9
f 14 13 18
f 18 16 14
f 21 20 17
f 17 16 21
f 5 4 18
f 18 9 5
f 23 6 19
f 19 6 1
f 19 24 23
f 20 24 19
f 18 22 21
f 18 6 23
f 18 7 6
f 18 15 12
f 18 8 7
f 12 11 18
f 23 24 18
f 24 22 18
f 18 11 10
f 10 8 18
f 6 7 2
f 1 6 2
f 5 19 1
f 20 19 5
f 1 2 5
f 5 2 3
f 3 4 5
f 13 14 5
f 5 17 20
f 5 9 13
f 5 14 16
f 16 17 5

