# https://github.com/mikedh/trimesh
v -0.02137775 -0.04519946 0.01400000
v -0.02137775 -0.04519946 0.01939648
v -0.02134521 -0.04513065 0.01951796
v -0.02125253 -0.04493469 0.01962094
v -0.02111382 -0.04464142 0.01968976
v -0.02095020 -0.04429548 0.01971392
v -0.02082148 -0.04545840 0.01400000
v -0.02082148 -0.04545840 0.02014499
v -0.02078978 -0.04538919 0.02028332
v -0.02069951 -0.04519211 0.02040059
v -0.02056441 -0.04489715 0.02047895
v -0.02040505 -0.04454923 0.02050646
v -0.01410932 -0.02983165 0.01971392
v -0.01394570 -0.02948570 0.01968976
v -0.01380699 -0.02919243 0.01962094
v -0.01374218 -0.03000254 0.02050646
v -0.01371431 -0.02899647 0.01951796
v -0.01368176 -0.02892766 0.01400000
v -0.01368176 -0.02892766 0.01939648
v -0.01358281 -0.02965462 0.02047895
v -0.01344772 -0.02935966 0.02040059
v -0.01335744 -0.02916258 0.02028332
v -0.01332575 -0.02909338 0.01400000
v -0.01332575 -0.02909338 0.02014499
f 10 3 9
f 8 9 2
f 2 9 3
f 12 5 11
f 4 3 10
f 10 11 4
f 4 11 5
f 24 19 22
f 12 16 6
f 6 5 12
f 20 21 15
f 17 22 19
f 21 22 17
f 15 21 17
f 13 6 16
f 16 20 13
f 14 20 15
f 14 13 20
f 23 7 18
f 18 7 1
f 7 8 2
f 1 7 2
f 23 18 19
f 19 24 23
f 20 9 8
f 20 7 23
f 20 8 7
f 23 24 20
f 12 11 20
f 20 16 12
f 10 9 20
f 20 11 10
f 20 22 21
f 24 22 20
f 14 18 1
f 3 4 14
f 1 2 14
f 14 2 3
f 15 17 14
f 14 19 18
f 14 4 5
f 5 6 14
f 14 17 19
f 6 13 14

