# https://github.com/mikedh/trimesh
v -0.02026207 0.04571049 0.01400000
v -0.02026207 0.04571049 0.02091684
v -0.02023122 0.04564090 0.02107255
v -0.02014337 0.04544272 0.02120455
v -0.02001190 0.04514613 0.02129274
v -0.01985682 0.04479628 0.02132372
v -0.01969960 0.04595569 0.01400000
v -0.01969960 0.04595569 0.02170445
v -0.01966961 0.04588573 0.02187789
v -0.01958420 0.04568649 0.02202492
v -0.01945638 0.04538831 0.02212316
v -0.01930561 0.04503658 0.02215766
v -0.01337296 0.03016892 0.02132372
v -0.01321788 0.02981907 0.02129274
v -0.01308641 0.02952248 0.02120455
v -0.01300174 0.03033076 0.02215766
v -0.01299857 0.02932430 0.02107255
v -0.01296772 0.02925471 0.01400000
v -0.01296772 0.02925471 0.02091684
v -0.01285096 0.02997903 0.02212316
v -0.01272314 0.02968085 0.02202492
v -0.01263774 0.02948161 0.02187789
v -0.01260775 0.02941164 0.01400000
v -0.01260775 0.02941164 0.02170445
f 9 3 10
f 2 9 8
f 3 9 2
f 11 5 12
f 10 3 4
f 4 11 10
f 5 11 4
f 22 19 24
f 6 16 12
f 12 5 6
f 15 21 20
f 19 22 17
f 17 22 21
f 17 21 15
f 16 6 13
f 13 20 16
f 15 20 14
f 20 13 14
f 18 7 23
f 1 7 18
f 2 8 7
f 2 7 1
f 19 18 23
f 23 24 19
f 8 9 20
f 23 7 20
f 7 8 20
f 20 24 23
f 20 11 12
f 12 16 20
f 20 9 10
f 10 11 20
f 21 22 20
f 20 22 24
f 1 18 14
f 14 4 3
f 14 2 1
f 3 2 14
f 14 17 15
f 18 19 14
f 5 4 14
f 14 6 5
f 19 17 14
f 14 13 6

