# https://github.com/mikedh/trimesh
v -0.04864700 -0.01155291 0.01400000
v -0.04864700 -0.01155291 0.03031133
v -0.04857294 -0.01153532 0.03067851
v -0.04850156 -0.01214901 0.01400000
v -0.04850156 -0.01214901 0.03001536
v -0.04842772 -0.01213051 0.03037588
v -0.04836203 -0.01148523 0.03098979
v -0.04821745 -0.01207784 0.03068151
v -0.04804639 -0.01141027 0.03119778
v -0.04790275 -0.01199901 0.03088573
v -0.04767406 -0.01132185 0.03127082
v -0.04753153 -0.01190603 0.03095744
v -0.03210702 -0.00762492 0.03127082
v -0.03201103 -0.00801835 0.03095744
v -0.03173469 -0.00753650 0.03119778
v -0.03163982 -0.00792536 0.03088573
v -0.03141905 -0.00746153 0.03098979
v -0.03132512 -0.00784653 0.03068151
v -0.03120814 -0.00741145 0.03067851
v -0.03113408 -0.00739386 0.01400000
v -0.03113408 -0.00739386 0.03031133
v -0.03111484 -0.00779386 0.03037588
v -0.03104100 -0.00777537 0.01400000
v -0.03104100 -0.00777537 0.03001536
f 11 12 13
f 10 12 11
f 17 18 22
f 14 13 12
f 9 10 11
f 8 10 9
f 9 7 8
f 2 5 3
f 17 22 19
f 21 19 24
f 24 19 22
f 13 14 15
f 15 18 17
f 6 3 5
f 7 3 6
f 8 7 6
f 18 15 16
f 16 15 14
f 23 4 20
f 20 4 1
f 1 4 5
f 5 2 1
f 23 20 24
f 20 21 24
f 15 20 1
f 1 2 15
f 11 13 15
f 15 21 20
f 2 3 15
f 17 19 15
f 15 9 11
f 7 9 15
f 15 3 7
f 15 19 21
f 16 4 23
f 12 10 16
f 16 5 4
f 16 14 12
f 16 10 8
f 23 24 16
f 16 22 18
f 8 6 16
f 16 24 22
f 16 6 5

