# https://github.com/mikedh/trimesh
v -0.04409606 0.02356984 0.01400000
v -0.04409606 0.02356984 0.01677236
v -0.04402893 0.02353395 0.01683477
v -0.04383775 0.02343177 0.01688767
v -0.04380350 0.02410919 0.01400000
v -0.04380350 0.02410919 0.01623751
v -0.04373682 0.02407248 0.01628788
v -0.04355164 0.02327884 0.01692303
v -0.04354691 0.02396796 0.01633058
v -0.04326269 0.02381153 0.01635911
v -0.04321414 0.02309844 0.01693544
v -0.04292743 0.02362700 0.01636913
v -0.02910340 0.01555609 0.01693544
v -0.02891031 0.01591206 0.01636913
v -0.02876591 0.01537570 0.01692303
v -0.02857506 0.01572754 0.01635911
v -0.02847979 0.01522276 0.01688767
v -0.02829084 0.01557111 0.01633058
v -0.02828861 0.01512058 0.01683477
v -0.02822148 0.01508470 0.01400000
v -0.02822148 0.01508470 0.01677236
v -0.02810093 0.01546658 0.01628788
v -0.02803424 0.01542988 0.01400000
v -0.02803424 0.01542988 0.01623751
f 13 12 11
f 11 12 10
f 22 18 17
f 12 13 14
f 11 10 8
f 8 10 9
f 9 4 8
f 3 6 2
f 19 22 17
f 24 19 21
f 22 19 24
f 15 14 13
f 17 18 15
f 6 3 7
f 7 3 4
f 7 4 9
f 16 15 18
f 14 15 16
f 20 5 23
f 1 5 20
f 6 5 1
f 1 2 6
f 24 20 23
f 24 21 20
f 1 20 15
f 15 2 1
f 15 13 11
f 20 21 15
f 15 3 2
f 15 19 17
f 11 8 15
f 15 8 4
f 4 3 15
f 21 19 15
f 23 5 16
f 16 10 12
f 5 6 16
f 12 14 16
f 9 10 16
f 16 24 23
f 18 22 16
f 16 7 9
f 22 24 16
f 6 7 16

