# https://github.com/mikedh/trimesh
v -0.02828659 0.04122947 0.01400000
v -0.02828659 0.04122947 0.01406389
v -0.02824353 0.04116670 0.01406533
v -0.02812089 0.04098795 0.01406655
v -0.02793735 0.04072043 0.01406736
v -0.02777851 0.04157348 0.01400000
v -0.02777851 0.04157348 0.01414552
v -0.02773622 0.04151019 0.01414880
v -0.02772086 0.04040488 0.01406765
v -0.02761579 0.04132995 0.01415157
v -0.02743555 0.04106020 0.01415343
v -0.02722294 0.04074201 0.01415408
v -0.01866915 0.02721145 0.01406765
v -0.01845265 0.02689589 0.01406736
v -0.01833382 0.02743850 0.01415408
v -0.01826912 0.02662837 0.01406655
v -0.01814648 0.02644963 0.01406533
v -0.01812121 0.02712031 0.01415343
v -0.01810342 0.02638686 0.01400000
v -0.01810342 0.02638686 0.01406389
v -0.01794097 0.02685056 0.01415157
v -0.01782054 0.02667032 0.01414880
v -0.01777825 0.02660703 0.01400000
v -0.01777825 0.02660703 0.01414552
f 11 4 12
f 17 21 16
f 17 20 22
f 20 24 22
f 22 21 17
f 7 2 8
f 3 11 10
f 4 11 3
f 10 8 3
f 3 8 2
f 18 16 21
f 18 9 13
f 14 18 13
f 16 18 14
f 9 18 15
f 9 15 5
f 5 15 12
f 12 4 5
f 19 6 23
f 1 6 19
f 24 19 23
f 24 20 19
f 2 7 6
f 2 6 1
f 6 7 15
f 23 6 15
f 15 24 23
f 7 8 15
f 21 22 15
f 15 11 12
f 10 11 15
f 15 22 24
f 15 8 10
f 15 18 21
f 1 19 5
f 5 2 1
f 5 20 17
f 19 20 5
f 17 16 5
f 5 14 13
f 4 3 5
f 13 9 5
f 5 3 2
f 16 14 5

