# https://github.com/mikedh/trimesh
v -0.04969535 0.00551111 0.01400000
v -0.04969535 0.00551111 0.03100000
v -0.04962398 0.00612053 0.01400000
v -0.04962398 0.00612053 0.03100000
v -0.04961969 0.00550272 0.03138268
v -0.04954843 0.00611122 0.03138268
v -0.04940424 0.00547883 0.03170711
v -0.04933329 0.00608468 0.03170711
v -0.04908179 0.00544307 0.03192388
v -0.04901130 0.00604497 0.03192388
v -0.04870144 0.00540089 0.03200000
v -0.04863150 0.00599812 0.03200000
v -0.03279893 0.00363733 0.03200000
v -0.03275182 0.00403955 0.03200000
v -0.03241858 0.00359515 0.03192388
v -0.03237202 0.00399271 0.03192388
v -0.03209613 0.00355939 0.03170711
v -0.03205004 0.00395299 0.03170711
v -0.03188068 0.00353550 0.03138268
v -0.03183489 0.00392646 0.03138268
v -0.03180502 0.00352711 0.01400000
v -0.03180502 0.00352711 0.03100000
v -0.03175935 0.00391714 0.01400000
v -0.03175935 0.00391714 0.03100000
f 21 3 23
f 1 3 21
f 4 3 1
f 1 2 4
f 22 21 23
f 23 24 22
f 14 12 13
f 13 12 11
f 6 5 7
f 6 7 8
f 6 4 2
f 2 5 6
f 12 10 9
f 11 12 9
f 9 10 8
f 8 7 9
f 23 3 20
f 20 24 23
f 3 4 20
f 8 10 20
f 20 6 8
f 20 12 14
f 20 10 12
f 14 16 20
f 4 6 20
f 20 16 18
f 20 22 24
f 20 19 22
f 17 19 20
f 20 18 17
f 1 21 15
f 15 2 1
f 15 13 11
f 21 22 15
f 15 5 2
f 7 5 15
f 11 9 15
f 15 19 17
f 15 9 7
f 22 19 15
f 18 16 15
f 17 18 15
f 14 13 15
f 15 16 14

