# https://github.com/mikedh/trimesh
v 0.02703531 -0.01711992 0.01400000
v 0.02703531 -0.01711992 0.01445240
v 0.02709962 -0.01716065 0.01446259
v 0.02724337 -0.01678687 0.01400000
v 0.02724337 -0.01678687 0.01468867
v 0.02728277 -0.01727662 0.01447122
v 0.02730817 -0.01682680 0.01470418
v 0.02749272 -0.01694052 0.01471732
v 0.02755686 -0.01745019 0.01447699
v 0.02776892 -0.01711071 0.01472610
v 0.02788017 -0.01765492 0.01447901
v 0.02809472 -0.01731146 0.01472918
v 0.04139782 -0.02621488 0.01447901
v 0.04171640 -0.02570489 0.01472918
v 0.04172114 -0.02641962 0.01447699
v 0.04199523 -0.02659318 0.01447122
v 0.04204220 -0.02590565 0.01472610
v 0.04217837 -0.02670916 0.01446259
v 0.04224268 -0.02674988 0.01400000
v 0.04224268 -0.02674988 0.01445240
v 0.04231840 -0.02607584 0.01471732
v 0.04250295 -0.02618955 0.01470418
v 0.04256776 -0.02622948 0.01400000
v 0.04256776 -0.02622948 0.01468867
f 12 13 14
f 22 20 24
f 11 13 12
f 21 17 16
f 18 22 21
f 20 22 18
f 21 16 18
f 5 2 7
f 10 11 12
f 10 8 6
f 15 17 14
f 15 16 17
f 15 14 13
f 3 7 2
f 8 7 3
f 6 8 3
f 9 10 6
f 11 10 9
f 23 19 4
f 4 19 1
f 20 19 23
f 23 24 20
f 2 4 1
f 2 5 4
f 23 4 10
f 10 24 23
f 21 22 10
f 10 17 21
f 4 5 10
f 12 14 10
f 14 17 10
f 10 22 24
f 5 7 10
f 10 7 8
f 1 19 9
f 19 20 9
f 13 11 9
f 9 2 1
f 9 15 13
f 6 3 9
f 20 18 9
f 9 18 16
f 16 15 9
f 9 3 2

