# https://github.com/mikedh/trimesh
v -0.00490086 -0.04975924 0.01400000
v -0.00490086 -0.04975924 0.03100000
v -0.00489340 -0.04968348 0.03138268
v -0.00487215 -0.04946775 0.03170711
v -0.00484035 -0.04914489 0.03192388
v -0.00480284 -0.04876405 0.03200000
v -0.00428987 -0.04981563 0.01400000
v -0.00428987 -0.04981563 0.03100000
v -0.00428333 -0.04973979 0.03138268
v -0.00426474 -0.04952382 0.03170711
v -0.00423690 -0.04920059 0.03192388
v -0.00420407 -0.04881932 0.03200000
v -0.00323457 -0.03284110 0.03200000
v -0.00319706 -0.03246026 0.03192388
v -0.00316526 -0.03213739 0.03170711
v -0.00314401 -0.03192167 0.03138268
v -0.00313655 -0.03184591 0.01400000
v -0.00313655 -0.03184591 0.03100000
v -0.00283131 -0.03287832 0.03200000
v -0.00279848 -0.03249704 0.03192388
v -0.00277064 -0.03217382 0.03170711
v -0.00275204 -0.03195784 0.03138268
v -0.00274551 -0.03188200 0.01400000
v -0.00274551 -0.03188200 0.03100000
f 23 7 17
f 17 7 1
f 1 7 8
f 8 2 1
f 6 5 11
f 11 12 6
f 11 5 4
f 4 10 11
f 2 8 9
f 9 3 2
f 4 3 9
f 9 10 4
f 23 17 24
f 17 18 24
f 12 19 13
f 6 12 13
f 20 7 23
f 20 9 8
f 20 8 7
f 20 19 12
f 12 11 20
f 20 22 21
f 20 11 10
f 10 9 20
f 23 24 20
f 24 22 20
f 20 13 19
f 20 14 13
f 15 20 21
f 14 20 15
f 16 17 1
f 1 2 16
f 2 3 16
f 16 5 6
f 4 5 16
f 16 3 4
f 16 18 17
f 6 13 16
f 13 14 16
f 14 15 16
f 16 24 18
f 16 22 24
f 21 22 16
f 16 15 21

