# https://github.com/mikedh/trimesh
v -0.04642530 -0.01856586 0.01400000
v -0.04642530 -0.01856586 0.02329555
v -0.04635463 -0.01853759 0.02350480
v -0.04619398 -0.01913417 0.01400000
v -0.04619398 -0.01913417 0.02250000
v -0.04615335 -0.01845710 0.02368219
v -0.04612365 -0.01910504 0.02269134
v -0.04592338 -0.01902209 0.02285355
v -0.04585212 -0.01833664 0.02380072
v -0.04562365 -0.01889793 0.02296194
v -0.04549680 -0.01819454 0.02384234
v -0.04527010 -0.01875149 0.02300000
v -0.03064070 -0.01225347 0.02384234
v -0.03048802 -0.01262855 0.02300000
v -0.03028538 -0.01211137 0.02380072
v -0.03013447 -0.01248211 0.02296194
v -0.02998415 -0.01199091 0.02368219
v -0.02983474 -0.01235796 0.02285355
v -0.02978287 -0.01191042 0.02350480
v -0.02971219 -0.01188215 0.01400000
v -0.02971219 -0.01188215 0.02329555
v -0.02963447 -0.01227500 0.02269134
v -0.02956415 -0.01224587 0.01400000
v -0.02956415 -0.01224587 0.02250000
f 9 6 8
f 2 5 3
f 13 12 14
f 11 12 13
f 10 9 8
f 11 9 10
f 10 12 11
f 7 3 5
f 6 3 7
f 8 6 7
f 24 21 19
f 24 19 22
f 22 19 17
f 17 18 22
f 15 16 18
f 15 18 17
f 14 16 15
f 15 13 14
f 23 4 20
f 20 4 1
f 1 4 5
f 5 2 1
f 23 20 21
f 21 24 23
f 22 4 23
f 23 24 22
f 22 5 4
f 14 12 22
f 22 10 8
f 8 7 22
f 22 16 14
f 12 10 22
f 22 7 5
f 18 16 22
f 15 20 1
f 1 2 15
f 15 21 20
f 15 9 11
f 2 3 15
f 6 9 15
f 15 3 6
f 11 13 15
f 17 19 15
f 15 19 21

