# https://github.com/mikedh/trimesh
v 0.00274551 -0.03188200 0.01400000
v 0.00274551 -0.03188200 0.03100000
v 0.00275204 -0.03195784 0.03138268
v 0.00277064 -0.03217382 0.03170711
v 0.00279848 -0.03249704 0.03192388
v 0.00283131 -0.03287832 0.03200000
v 0.00313655 -0.03184591 0.01400000
v 0.00313655 -0.03184591 0.03100000
v 0.00314401 -0.03192167 0.03138268
v 0.00316526 -0.03213739 0.03170711
v 0.00319706 -0.03246026 0.03192388
v 0.00323457 -0.03284110 0.03200000
v 0.00420407 -0.04881932 0.03200000
v 0.00423690 -0.04920059 0.03192388
v 0.00426474 -0.04952382 0.03170711
v 0.00428333 -0.04973979 0.03138268
v 0.00428987 -0.04981563 0.01400000
v 0.00428987 -0.04981563 0.03100000
v 0.00480284 -0.04876405 0.03200000
v 0.00484035 -0.04914489 0.03192388
v 0.00487215 -0.04946775 0.03170711
v 0.00489340 -0.04968348 0.03138268
v 0.00490086 -0.04975924 0.01400000
v 0.00490086 -0.04975924 0.03100000
f 7 17 1
f 23 17 7
f 1 2 7
f 7 2 8
f 16 22 21
f 16 21 15
f 24 18 17
f 24 17 23
f 24 16 18
f 22 16 24
f 17 18 14
f 1 17 14
f 14 2 1
f 6 5 14
f 14 13 6
f 14 16 15
f 14 3 2
f 4 3 14
f 14 5 4
f 18 16 14
f 21 20 14
f 15 21 14
f 13 14 19
f 19 14 20
f 6 13 12
f 13 19 12
f 11 5 6
f 6 12 11
f 4 5 10
f 5 11 10
f 23 7 9
f 9 7 8
f 9 24 23
f 21 22 9
f 9 20 21
f 22 24 9
f 9 19 20
f 9 12 19
f 9 11 12
f 9 10 11
f 8 2 9
f 2 3 9
f 9 3 4
f 4 10 9

