# https://github.com/mikedh/trimesh
v 0.00155291 -0.00579555 0.01400000
v 0.00155291 -0.00579555 0.02320000
v 0.00300000 -0.00519615 0.01400000
v 0.00300000 -0.00519615 0.02320000
v 0.00530579 -0.01980148 0.02320000
v 0.00540627 -0.02017648 0.02314889
v 0.00549990 -0.02052592 0.02299904
v 0.00558031 -0.02082600 0.02276066
v 0.00564201 -0.02105625 0.02245000
v 0.00568079 -0.02120100 0.02208823
v 0.00569402 -0.02125037 0.01400000
v 0.00569402 -0.02125037 0.02170000
v 0.01025000 -0.01775352 0.02320000
v 0.01044411 -0.01808974 0.02314889
v 0.01062500 -0.01840304 0.02299904
v 0.01078033 -0.01867208 0.02276066
v 0.01089952 -0.01887852 0.02245000
v 0.01097444 -0.01900830 0.02208823
v 0.01100000 -0.01905256 0.01400000
v 0.01100000 -0.01905256 0.02170000
f 3 11 1
f 19 11 3
f 1 2 4
f 4 3 1
f 20 11 19
f 20 12 11
f 2 5 13
f 13 4 2
f 5 6 13
f 13 6 14
f 8 2 1
f 1 11 8
f 11 12 8
f 8 5 2
f 12 10 8
f 7 6 8
f 8 10 9
f 8 6 5
f 15 6 7
f 14 6 15
f 7 8 15
f 15 8 16
f 17 8 9
f 16 8 17
f 19 3 18
f 3 4 18
f 18 20 19
f 14 15 18
f 4 13 18
f 18 13 14
f 18 15 16
f 16 17 18
f 12 20 18
f 18 10 12
f 9 10 18
f 18 17 9

