# https://github.com/mikedh/trimesh
v 0.03197832 0.00117783 0.01400000
v 0.03197832 0.00117783 0.03100000
v 0.03199036 0.00078532 0.01400000
v 0.03199036 0.00078532 0.03100000
v 0.03205439 0.00118063 0.03138268
v 0.03206646 0.00078719 0.03138268
v 0.03227101 0.00118861 0.03170711
v 0.03228317 0.00079251 0.03170711
v 0.03259521 0.00120055 0.03192388
v 0.03260749 0.00080047 0.03192388
v 0.03297764 0.00121464 0.03200000
v 0.03299006 0.00080986 0.03200000
v 0.04896680 0.00180355 0.03200000
v 0.04898524 0.00120252 0.03200000
v 0.04934922 0.00181764 0.03192388
v 0.04936781 0.00121191 0.03192388
v 0.04967342 0.00182958 0.03170711
v 0.04969214 0.00121987 0.03170711
v 0.04989005 0.00183756 0.03138268
v 0.04990884 0.00122519 0.03138268
v 0.04996612 0.00184036 0.01400000
v 0.04996612 0.00184036 0.03100000
v 0.04998494 0.00122706 0.01400000
v 0.04998494 0.00122706 0.03100000
f 1 21 3
f 3 21 23
f 3 2 1
f 4 2 3
f 18 20 19
f 17 18 19
f 21 22 24
f 23 21 24
f 22 19 24
f 24 19 20
f 15 22 21
f 15 21 1
f 1 2 15
f 15 9 11
f 11 13 15
f 17 19 15
f 2 5 15
f 15 5 7
f 7 9 15
f 15 19 22
f 15 16 18
f 15 18 17
f 14 15 13
f 16 15 14
f 12 13 11
f 12 14 13
f 11 9 10
f 10 12 11
f 8 9 7
f 8 10 9
f 6 3 23
f 4 3 6
f 23 24 6
f 6 20 18
f 18 16 6
f 6 24 20
f 16 14 6
f 14 12 6
f 12 10 6
f 10 8 6
f 6 2 4
f 6 5 2
f 7 5 6
f 6 8 7

