# https://github.com/mikedh/trimesh
v 0.01542988 0.02803424 0.01400000
v 0.01542988 0.02803424 0.01623751
v 0.01546658 0.02810093 0.01628788
v 0.01557111 0.02829084 0.01633058
v 0.01572754 0.02857506 0.01635911
v 0.01577274 0.02784278 0.01400000
v 0.01577274 0.02784278 0.01575977
v 0.01581026 0.02790902 0.01579938
v 0.01591206 0.02891031 0.01636913
v 0.01591711 0.02809763 0.01583296
v 0.01607702 0.02837990 0.01585540
v 0.01626564 0.02871287 0.01586328
v 0.02362700 0.04292743 0.01636913
v 0.02381153 0.04326269 0.01635911
v 0.02396796 0.04354691 0.01633058
v 0.02407248 0.04373682 0.01628788
v 0.02410919 0.04380350 0.01400000
v 0.02410919 0.04380350 0.01623751
v 0.02415201 0.04263426 0.01586328
v 0.02434064 0.04296723 0.01585540
v 0.02450054 0.04324951 0.01583296
v 0.02460739 0.04343812 0.01579938
v 0.02464491 0.04350435 0.01400000
v 0.02464491 0.04350435 0.01575977
f 19 13 9
f 3 2 7
f 12 19 9
f 9 5 12
f 13 19 20
f 10 5 4
f 13 20 14
f 22 16 15
f 11 12 5
f 5 10 11
f 4 3 8
f 8 10 4
f 8 3 7
f 21 22 15
f 15 14 21
f 21 14 20
f 18 16 24
f 16 22 24
f 1 17 6
f 6 17 23
f 6 2 1
f 7 2 6
f 14 18 17
f 14 17 1
f 1 2 14
f 9 13 14
f 15 16 14
f 14 5 9
f 14 16 18
f 2 3 14
f 14 3 4
f 4 5 14
f 24 6 23
f 7 6 24
f 12 11 24
f 19 12 24
f 24 20 19
f 24 21 20
f 24 8 7
f 24 11 10
f 10 8 24
f 22 21 24
f 17 18 24
f 23 17 24

