# https://github.com/mikedh/trimesh
v 0.01151664 0.02985577 0.01400000
v 0.01151664 0.02985577 0.02408316
v 0.01154404 0.02992679 0.02431014
v 0.01162205 0.03012904 0.02450256
v 0.01173881 0.03043172 0.02463113
v 0.01187654 0.03078876 0.02467628
v 0.01188215 0.02971219 0.01400000
v 0.01188215 0.02971219 0.02329555
v 0.01191042 0.02978287 0.02350480
v 0.01199091 0.02998415 0.02368219
v 0.01211137 0.03028538 0.02380072
v 0.01225347 0.03064070 0.02384234
v 0.01763486 0.04571665 0.02467628
v 0.01777258 0.04607369 0.02463113
v 0.01788934 0.04637637 0.02450256
v 0.01796736 0.04657862 0.02431014
v 0.01799475 0.04664964 0.01400000
v 0.01799475 0.04664964 0.02408316
v 0.01819454 0.04549680 0.02384234
v 0.01833664 0.04585212 0.02380072
v 0.01845710 0.04615335 0.02368219
v 0.01853759 0.04635463 0.02350480
v 0.01856586 0.04642530 0.01400000
v 0.01856586 0.04642530 0.02329555
f 15 21 22
f 14 21 15
f 19 13 6
f 3 2 8
f 15 22 16
f 18 16 24
f 24 16 22
f 12 19 6
f 6 5 12
f 20 14 13
f 13 19 20
f 21 14 20
f 10 5 4
f 11 12 5
f 5 10 11
f 4 3 9
f 9 10 4
f 9 3 8
f 1 17 7
f 7 17 23
f 7 2 1
f 8 2 7
f 16 18 17
f 16 17 1
f 1 2 16
f 16 5 6
f 6 13 16
f 2 3 16
f 16 14 15
f 13 14 16
f 16 3 4
f 4 5 16
f 17 18 24
f 23 17 24
f 9 7 23
f 8 7 9
f 23 24 9
f 9 22 21
f 21 20 9
f 9 24 22
f 19 12 9
f 9 20 19
f 12 11 9
f 9 11 10

