# https://github.com/mikedh/trimesh
v -0.04686695 -0.01742093 0.01400000
v -0.04686695 -0.01742093 0.02485501
v -0.04679560 -0.01739441 0.02509936
v -0.04664964 -0.01799475 0.01400000
v -0.04664964 -0.01799475 0.02408316
v -0.04659241 -0.01731888 0.02530652
v -0.04657862 -0.01796736 0.02431014
v -0.04637637 -0.01788934 0.02450256
v -0.04628832 -0.01720585 0.02544493
v -0.04607369 -0.01777258 0.02463113
v -0.04592961 -0.01707252 0.02549354
v -0.04571665 -0.01763486 0.02467628
v -0.03093219 -0.01149782 0.02549354
v -0.03078876 -0.01187654 0.02467628
v -0.03057348 -0.01136448 0.02544493
v -0.03043172 -0.01173881 0.02463113
v -0.03026939 -0.01125145 0.02530652
v -0.03012904 -0.01162205 0.02450256
v -0.03006620 -0.01117592 0.02509936
v -0.02999485 -0.01114940 0.01400000
v -0.02999485 -0.01114940 0.02485501
v -0.02992679 -0.01154404 0.02431014
v -0.02985577 -0.01151664 0.01400000
v -0.02985577 -0.01151664 0.02408316
f 11 12 13
f 10 12 11
f 17 18 22
f 14 13 12
f 9 10 11
f 8 10 9
f 9 6 8
f 2 5 3
f 17 22 19
f 21 19 24
f 24 19 22
f 13 14 15
f 15 18 17
f 7 3 5
f 6 3 7
f 8 6 7
f 18 15 16
f 16 15 14
f 23 4 20
f 20 4 1
f 1 4 5
f 5 2 1
f 23 20 24
f 20 21 24
f 15 20 1
f 1 2 15
f 11 13 15
f 15 21 20
f 2 3 15
f 17 19 15
f 15 9 11
f 6 9 15
f 15 3 6
f 15 19 21
f 16 4 23
f 12 10 16
f 16 5 4
f 16 14 12
f 16 10 8
f 23 24 16
f 16 22 18
f 8 7 16
f 16 24 22
f 16 7 5

