# https://github.com/mikedh/trimesh
v -0.04903926 -0.00975452 0.01400000
v -0.04903926 -0.00975452 0.03085448
v -0.04896461 -0.00973967 0.03123389
v -0.04891587 -0.01035557 0.01400000
v -0.04891587 -0.01035557 0.03072711
v -0.04884140 -0.01033980 0.03110365
v -0.04875200 -0.00969738 0.03155553
v -0.04862933 -0.01029491 0.03142287
v -0.04843381 -0.00963408 0.03177045
v -0.04831194 -0.01022772 0.03163616
v -0.04805848 -0.00955943 0.03184592
v -0.04793755 -0.01014846 0.03171106
v -0.03236591 -0.00643798 0.03184592
v -0.03228447 -0.00683468 0.03171106
v -0.03199058 -0.00636332 0.03177045
v -0.03191009 -0.00675542 0.03163616
v -0.03167239 -0.00630003 0.03155553
v -0.03159270 -0.00668823 0.03142287
v -0.03145979 -0.00625774 0.03123389
v -0.03138513 -0.00624289 0.01400000
v -0.03138513 -0.00624289 0.03085448
v -0.03138063 -0.00664333 0.03110365
v -0.03130616 -0.00662756 0.01400000
v -0.03130616 -0.00662756 0.03072711
f 11 12 13
f 10 12 11
f 17 18 22
f 14 13 12
f 9 10 11
f 8 10 9
f 9 7 8
f 2 5 3
f 17 22 19
f 21 19 24
f 24 19 22
f 13 14 15
f 15 18 17
f 6 3 5
f 7 3 6
f 8 7 6
f 18 15 16
f 16 15 14
f 23 4 20
f 20 4 1
f 1 4 5
f 5 2 1
f 23 20 24
f 20 21 24
f 15 20 1
f 1 2 15
f 11 13 15
f 15 21 20
f 2 3 15
f 17 19 15
f 15 9 11
f 7 9 15
f 15 3 7
f 15 19 21
f 16 4 23
f 12 10 16
f 16 5 4
f 16 14 12
f 16 10 8
f 23 24 16
f 16 22 18
f 8 6 16
f 16 24 22
f 16 6 5

