# https://github.com/mikedh/trimesh
v 0.00624289 0.03138513 0.01400000
v 0.00624289 0.03138513 0.03085448
v 0.00625774 0.03145979 0.03123389
v 0.00630003 0.03167239 0.03155553
v 0.00636332 0.03199058 0.03177045
v 0.00643798 0.03236591 0.03184592
v 0.00662756 0.03130616 0.01400000
v 0.00662756 0.03130616 0.03072711
v 0.00664333 0.03138063 0.03110365
v 0.00668823 0.03159270 0.03142287
v 0.00675542 0.03191009 0.03163616
v 0.00683468 0.03228447 0.03171106
v 0.00955943 0.04805848 0.03184592
v 0.00963408 0.04843381 0.03177045
v 0.00969738 0.04875200 0.03155553
v 0.00973967 0.04896461 0.03123389
v 0.00975452 0.04903926 0.01400000
v 0.00975452 0.04903926 0.03085448
v 0.01014846 0.04793755 0.03171106
v 0.01022772 0.04831194 0.03163616
v 0.01029491 0.04862933 0.03142287
v 0.01033980 0.04884140 0.03110365
v 0.01035557 0.04891587 0.01400000
v 0.01035557 0.04891587 0.03072711
f 15 21 22
f 14 21 15
f 19 13 6
f 3 2 8
f 15 22 16
f 18 16 24
f 24 16 22
f 12 19 6
f 6 5 12
f 20 14 13
f 13 19 20
f 21 14 20
f 11 12 5
f 10 5 4
f 10 11 5
f 4 3 9
f 9 10 4
f 9 3 8
f 1 17 7
f 7 17 23
f 7 2 1
f 8 2 7
f 16 18 17
f 16 17 1
f 1 2 16
f 16 5 6
f 6 13 16
f 2 3 16
f 16 14 15
f 13 14 16
f 16 3 4
f 4 5 16
f 17 18 24
f 23 17 24
f 9 7 23
f 8 7 9
f 23 24 9
f 9 22 21
f 21 20 9
f 9 24 22
f 19 12 9
f 9 20 19
f 12 11 9
f 11 10 9

