# https://github.com/mikedh/trimesh
v -0.04545840 -0.02082148 0.01400000
v -0.04545840 -0.02082148 0.02014499
v -0.04538919 -0.02078978 0.02028332
v -0.04519946 -0.02137775 0.01400000
v -0.04519946 -0.02137775 0.01939648
v -0.04519211 -0.02069951 0.02040059
v -0.04513065 -0.02134521 0.01951796
v -0.04493469 -0.02125253 0.01962094
v -0.04489715 -0.02056441 0.02047895
v -0.04464142 -0.02111382 0.01968976
v -0.04454923 -0.02040505 0.02050646
v -0.04429548 -0.02095020 0.01971392
v -0.03000254 -0.01374218 0.02050646
v -0.02983165 -0.01410932 0.01971392
v -0.02965462 -0.01358281 0.02047895
v -0.02948570 -0.01394570 0.01968976
v -0.02935966 -0.01344772 0.02040059
v -0.02919243 -0.01380699 0.01962094
v -0.02916258 -0.01335744 0.02028332
v -0.02909338 -0.01332575 0.01400000
v -0.02909338 -0.01332575 0.02014499
v -0.02899647 -0.01371431 0.01951796
v -0.02892766 -0.01368176 0.01400000
v -0.02892766 -0.01368176 0.01939648
f 11 12 13
f 10 12 11
f 17 18 22
f 14 13 12
f 9 10 11
f 8 10 9
f 9 6 8
f 2 5 3
f 17 22 19
f 21 19 24
f 24 19 22
f 13 14 15
f 15 18 17
f 7 3 5
f 6 3 7
f 8 6 7
f 18 15 16
f 16 15 14
f 23 4 20
f 20 4 1
f 1 4 5
f 5 2 1
f 23 20 24
f 20 21 24
f 15 20 1
f 1 2 15
f 11 13 15
f 15 21 20
f 2 3 15
f 17 19 15
f 15 9 11
f 6 9 15
f 15 3 6
f 15 19 21
f 16 4 23
f 12 10 16
f 16 5 4
f 16 14 12
f 16 10 8
f 23 24 16
f 16 22 18
f 8 7 16
f 16 24 22
f 16 7 5

