# https://github.com/mikedh/trimesh
v -0.04380350 -0.02410919 0.01400000
v -0.04380350 -0.02410919 0.01623751
v -0.04373682 -0.02407248 0.01628788
v -0.04354691 -0.02396796 0.01633058
v -0.04350435 -0.02464491 0.01400000
v -0.04350435 -0.02464491 0.01575977
v -0.04343812 -0.02460739 0.01579938
v -0.04326269 -0.02381153 0.01635911
v -0.04324951 -0.02450054 0.01583296
v -0.04296723 -0.02434064 0.01585540
v -0.04292743 -0.02362700 0.01636913
v -0.04263426 -0.02415201 0.01586328
v -0.02891031 -0.01591206 0.01636913
v -0.02871287 -0.01626564 0.01586328
v -0.02857506 -0.01572754 0.01635911
v -0.02837990 -0.01607702 0.01585540
v -0.02829084 -0.01557111 0.01633058
v -0.02810093 -0.01546658 0.01628788
v -0.02809763 -0.01591711 0.01583296
v -0.02803424 -0.01542988 0.01400000
v -0.02803424 -0.01542988 0.01623751
v -0.02790902 -0.01581026 0.01579938
v -0.02784278 -0.01577274 0.01400000
v -0.02784278 -0.01577274 0.01575977
f 11 12 13
f 10 12 11
f 17 19 22
f 14 13 12
f 8 10 11
f 9 10 8
f 8 4 9
f 2 6 3
f 17 22 18
f 21 18 24
f 24 18 22
f 13 14 15
f 15 19 17
f 7 3 6
f 4 3 7
f 9 4 7
f 19 15 16
f 16 15 14
f 23 5 20
f 20 5 1
f 1 5 6
f 6 2 1
f 23 20 24
f 20 21 24
f 15 20 1
f 1 2 15
f 11 13 15
f 15 21 20
f 2 3 15
f 17 18 15
f 15 8 11
f 4 8 15
f 15 3 4
f 15 18 21
f 16 5 23
f 12 10 16
f 16 6 5
f 16 14 12
f 16 10 9
f 23 24 16
f 16 22 19
f 9 7 16
f 16 24 22
f 16 7 6

