# https://github.com/mikedh/trimesh
v -0.01214901 -0.04850156 0.01400000
v -0.01214901 -0.04850156 0.03001536
v -0.01213051 -0.04842772 0.03037588
v -0.01207784 -0.04821745 0.03068151
v -0.01199901 -0.04790275 0.03088573
v -0.01190603 -0.04753153 0.03095744
v -0.01155291 -0.04864700 0.01400000
v -0.01155291 -0.04864700 0.03031133
v -0.01153532 -0.04857294 0.03067851
v -0.01148523 -0.04836203 0.03098979
v -0.01141027 -0.04804639 0.03119778
v -0.01132185 -0.04767406 0.03127082
v -0.00801835 -0.03201103 0.03095744
v -0.00792536 -0.03163982 0.03088573
v -0.00784653 -0.03132512 0.03068151
v -0.00779386 -0.03111484 0.03037588
v -0.00777537 -0.03104100 0.01400000
v -0.00777537 -0.03104100 0.03001536
v -0.00762492 -0.03210702 0.03127082
v -0.00753650 -0.03173469 0.03119778
v -0.00746153 -0.03141905 0.03098979
v -0.00741145 -0.03120814 0.03067851
v -0.00739386 -0.03113408 0.01400000
v -0.00739386 -0.03113408 0.03031133
f 12 6 5
f 19 6 12
f 9 2 8
f 12 5 11
f 11 5 4
f 4 10 11
f 6 19 13
f 2 9 3
f 3 9 10
f 3 10 4
f 24 18 22
f 20 13 19
f 20 21 15
f 16 22 18
f 21 22 16
f 15 21 16
f 14 20 15
f 13 20 14
f 23 7 17
f 17 7 1
f 7 8 2
f 1 7 2
f 23 17 18
f 18 24 23
f 20 8 7
f 20 7 23
f 20 9 8
f 23 24 20
f 20 19 12
f 12 11 20
f 20 22 21
f 10 9 20
f 20 11 10
f 24 22 20
f 14 17 1
f 4 5 14
f 14 3 4
f 1 2 14
f 15 16 14
f 14 5 6
f 14 18 17
f 6 13 14
f 2 3 14
f 14 16 18

