# https://github.com/mikedh/trimesh
v 0.03122247 0.00701124 0.01400000
v 0.03122247 0.00701124 0.03054760
v 0.03129674 0.00702792 0.03092010
v 0.03130616 0.00662756 0.01400000
v 0.03130616 0.00662756 0.03072711
v 0.03138063 0.00664333 0.03110365
v 0.03150824 0.00707541 0.03123589
v 0.03159270 0.00668823 0.03142287
v 0.03182479 0.00714649 0.03144689
v 0.03191009 0.00675542 0.03163616
v 0.03219817 0.00723034 0.03152099
v 0.03228447 0.00683468 0.03171106
v 0.04780940 0.01073596 0.03152099
v 0.04793755 0.01014846 0.03171106
v 0.04818279 0.01081981 0.03144689
v 0.04831194 0.01022772 0.03163616
v 0.04849933 0.01089089 0.03123589
v 0.04862933 0.01029491 0.03142287
v 0.04871084 0.01093838 0.03092010
v 0.04878511 0.01095506 0.01400000
v 0.04878511 0.01095506 0.03054760
v 0.04884140 0.01033980 0.03110365
v 0.04891587 0.01035557 0.01400000
v 0.04891587 0.01035557 0.03072711
f 14 13 12
f 24 21 22
f 17 16 18
f 12 13 11
f 16 17 15
f 14 16 15
f 13 14 15
f 18 22 19
f 19 17 18
f 19 22 21
f 6 2 5
f 12 11 10
f 7 8 10
f 2 6 3
f 3 6 8
f 3 8 7
f 7 10 9
f 9 10 11
f 4 20 23
f 1 20 4
f 23 20 21
f 21 24 23
f 1 4 2
f 4 5 2
f 10 4 23
f 23 24 10
f 10 22 18
f 18 16 10
f 10 5 4
f 10 14 12
f 10 16 14
f 24 22 10
f 10 6 5
f 8 6 10
f 9 20 1
f 9 21 20
f 9 11 13
f 1 2 9
f 13 15 9
f 9 19 21
f 9 3 7
f 9 15 17
f 17 19 9
f 2 3 9

