# https://github.com/mikedh/trimesh
v -0.04224268 -0.02674988 0.01400000
v -0.04224268 -0.02674988 0.01445240
v -0.04217837 -0.02670916 0.01446259
v -0.04199523 -0.02659318 0.01447122
v -0.04191124 -0.02726625 0.01400000
v -0.04191124 -0.02726625 0.01427289
v -0.04184743 -0.02722474 0.01427903
v -0.04172114 -0.02641962 0.01447699
v -0.04166572 -0.02710653 0.01428424
v -0.04139782 -0.02621488 0.01447901
v -0.04139379 -0.02692961 0.01428772
v -0.04107301 -0.02672092 0.01428894
v -0.02788017 -0.01765492 0.01447901
v -0.02766142 -0.01799572 0.01428894
v -0.02755686 -0.01745019 0.01447699
v -0.02734064 -0.01778704 0.01428772
v -0.02728277 -0.01727662 0.01447122
v -0.02709962 -0.01716065 0.01446259
v -0.02706870 -0.01761012 0.01428424
v -0.02703531 -0.01711992 0.01400000
v -0.02703531 -0.01711992 0.01445240
v -0.02688700 -0.01749191 0.01427903
v -0.02682319 -0.01745040 0.01400000
v -0.02682319 -0.01745040 0.01427289
f 9 4 7
f 17 19 22
f 7 4 3
f 3 6 7
f 2 6 3
f 11 13 10
f 12 13 11
f 4 9 8
f 9 11 8
f 8 11 10
f 17 22 18
f 21 18 24
f 24 18 22
f 12 14 15
f 15 13 12
f 15 19 17
f 19 15 16
f 16 15 14
f 23 5 20
f 20 5 1
f 1 5 6
f 6 2 1
f 23 20 24
f 20 21 24
f 15 20 1
f 1 2 15
f 10 13 15
f 15 21 20
f 15 8 10
f 17 18 15
f 2 3 15
f 15 3 4
f 4 8 15
f 15 18 21
f 16 5 23
f 16 14 12
f 16 6 5
f 12 11 16
f 16 9 7
f 7 6 16
f 16 22 19
f 23 24 16
f 16 11 9
f 16 24 22

