# https://github.com/mikedh/trimesh
v 0.02971219 -0.01188215 0.01400000
v 0.02971219 -0.01188215 0.02329555
v 0.02978287 -0.01191042 0.02350480
v 0.02985577 -0.01151664 0.01400000
v 0.02985577 -0.01151664 0.02408316
v 0.02992679 -0.01154404 0.02431014
v 0.02998415 -0.01199091 0.02368219
v 0.03012904 -0.01162205 0.02450256
v 0.03028538 -0.01211137 0.02380072
v 0.03043172 -0.01173881 0.02463113
v 0.03064070 -0.01225347 0.02384234
v 0.03078876 -0.01187654 0.02467628
v 0.04549680 -0.01819454 0.02384234
v 0.04571665 -0.01763486 0.02467628
v 0.04585212 -0.01833664 0.02380072
v 0.04607369 -0.01777258 0.02463113
v 0.04615335 -0.01845710 0.02368219
v 0.04635463 -0.01853759 0.02350480
v 0.04637637 -0.01788934 0.02450256
v 0.04642530 -0.01856586 0.01400000
v 0.04642530 -0.01856586 0.02329555
v 0.04657862 -0.01796736 0.02431014
v 0.04664964 -0.01799475 0.01400000
v 0.04664964 -0.01799475 0.02408316
f 12 13 14
f 22 21 24
f 19 16 17
f 11 13 12
f 15 17 16
f 15 16 14
f 15 14 13
f 18 22 19
f 19 17 18
f 21 22 18
f 5 2 6
f 10 11 12
f 10 8 7
f 3 6 2
f 8 6 3
f 7 8 3
f 9 10 7
f 11 10 9
f 23 20 4
f 4 20 1
f 21 20 23
f 23 24 21
f 2 4 1
f 2 5 4
f 23 4 10
f 10 24 23
f 19 22 10
f 10 16 19
f 4 5 10
f 12 14 10
f 14 16 10
f 10 22 24
f 5 6 10
f 10 6 8
f 1 20 9
f 20 21 9
f 13 11 9
f 9 2 1
f 9 15 13
f 21 18 9
f 7 3 9
f 17 15 9
f 9 18 17
f 9 3 2

