# https://github.com/mikedh/trimesh
v -0.04619398 -0.01913417 0.01400000
v -0.04619398 -0.01913417 0.02250000
v -0.04612365 -0.01910504 0.02269134
v -0.04595569 -0.01969960 0.01400000
v -0.04595569 -0.01969960 0.02170445
v -0.04592338 -0.01902209 0.02285355
v -0.04588573 -0.01966961 0.02187789
v -0.04568649 -0.01958420 0.02202492
v -0.04562365 -0.01889793 0.02296194
v -0.04538831 -0.01945638 0.02212316
v -0.04527010 -0.01875149 0.02300000
v -0.04503658 -0.01930561 0.02215766
v -0.03048802 -0.01262855 0.02300000
v -0.03033076 -0.01300174 0.02215766
v -0.03013447 -0.01248211 0.02296194
v -0.02997903 -0.01285096 0.02212316
v -0.02983474 -0.01235796 0.02285355
v -0.02968085 -0.01272314 0.02202492
v -0.02963447 -0.01227500 0.02269134
v -0.02956415 -0.01224587 0.01400000
v -0.02956415 -0.01224587 0.02250000
v -0.02948161 -0.01263774 0.02187789
v -0.02941164 -0.01260775 0.01400000
v -0.02941164 -0.01260775 0.02170445
f 9 6 8
f 2 5 3
f 13 12 14
f 11 12 13
f 10 9 8
f 11 9 10
f 10 12 11
f 7 3 5
f 6 3 7
f 8 6 7
f 24 21 19
f 24 19 22
f 22 19 17
f 17 18 22
f 15 16 18
f 15 18 17
f 14 16 15
f 15 13 14
f 23 4 20
f 20 4 1
f 1 4 5
f 5 2 1
f 23 20 21
f 21 24 23
f 22 4 23
f 23 24 22
f 22 5 4
f 14 12 22
f 22 10 8
f 8 7 22
f 22 16 14
f 12 10 22
f 22 7 5
f 18 16 22
f 15 20 1
f 1 2 15
f 15 21 20
f 15 9 11
f 2 3 15
f 6 9 15
f 15 3 6
f 11 13 15
f 17 19 15
f 15 19 21

