# https://github.com/mikedh/trimesh
v -0.04707720 -0.01684449 0.01400000
v -0.04707720 -0.01684449 0.02560352
v -0.04700553 -0.01681885 0.02586472
v -0.04686695 -0.01742093 0.01400000
v -0.04686695 -0.01742093 0.02485501
v -0.04680143 -0.01674582 0.02608616
v -0.04679560 -0.01739441 0.02509936
v -0.04659241 -0.01731888 0.02530652
v -0.04649597 -0.01663652 0.02623412
v -0.04628832 -0.01720585 0.02544493
v -0.04613566 -0.01650760 0.02628608
v -0.04592961 -0.01707252 0.02549354
v -0.03107095 -0.01111737 0.02628608
v -0.03093219 -0.01149782 0.02549354
v -0.03071064 -0.01098844 0.02623412
v -0.03057348 -0.01136448 0.02544493
v -0.03040518 -0.01087915 0.02608616
v -0.03026939 -0.01125145 0.02530652
v -0.03020108 -0.01080612 0.02586472
v -0.03012941 -0.01078048 0.01400000
v -0.03012941 -0.01078048 0.02560352
v -0.03006620 -0.01117592 0.02509936
v -0.02999485 -0.01114940 0.01400000
v -0.02999485 -0.01114940 0.02485501
f 11 12 13
f 10 12 11
f 17 18 22
f 14 13 12
f 9 10 11
f 8 10 9
f 9 6 8
f 2 5 3
f 17 22 19
f 21 19 24
f 24 19 22
f 13 14 15
f 15 18 17
f 7 3 5
f 6 3 7
f 8 6 7
f 18 15 16
f 16 15 14
f 23 4 20
f 20 4 1
f 1 4 5
f 5 2 1
f 23 20 24
f 20 21 24
f 15 20 1
f 1 2 15
f 11 13 15
f 15 21 20
f 2 3 15
f 17 19 15
f 15 9 11
f 6 9 15
f 15 3 6
f 15 19 21
f 16 4 23
f 12 10 16
f 16 5 4
f 16 14 12
f 16 10 8
f 23 24 16
f 16 22 18
f 8 7 16
f 16 24 22
f 16 7 5

