# https://github.com/mikedh/trimesh
v -0.04438198 0.02302694 0.01400000
v -0.04438198 0.02302694 0.01736068
v -0.04431441 0.02299188 0.01743633
v -0.04412200 0.02289205 0.01750047
v -0.04409606 0.02356984 0.01400000
v -0.04409606 0.02356984 0.01677236
v -0.04402893 0.02353395 0.01683477
v -0.04383775 0.02343177 0.01688767
v -0.04383403 0.02274264 0.01754332
v -0.04355164 0.02327884 0.01692303
v -0.04349434 0.02256640 0.01755837
v -0.04321414 0.02309844 0.01693544
v -0.02929211 0.01519778 0.01755837
v -0.02910340 0.01555609 0.01693544
v -0.02895242 0.01502154 0.01754332
v -0.02876591 0.01537570 0.01692303
v -0.02866445 0.01487213 0.01750047
v -0.02847979 0.01522276 0.01688767
v -0.02847204 0.01477230 0.01743633
v -0.02840447 0.01473724 0.01400000
v -0.02840447 0.01473724 0.01736068
v -0.02828861 0.01512058 0.01683477
v -0.02822148 0.01508470 0.01400000
v -0.02822148 0.01508470 0.01677236
f 13 12 11
f 11 12 10
f 22 18 17
f 12 13 14
f 11 10 9
f 9 10 8
f 8 4 9
f 3 6 2
f 19 22 17
f 24 19 21
f 22 19 24
f 15 14 13
f 17 18 15
f 6 3 7
f 7 3 4
f 7 4 8
f 16 15 18
f 14 15 16
f 20 5 23
f 1 5 20
f 6 5 1
f 1 2 6
f 24 20 23
f 24 21 20
f 1 20 15
f 15 2 1
f 15 13 11
f 20 21 15
f 15 3 2
f 15 19 17
f 11 9 15
f 15 9 4
f 4 3 15
f 21 19 15
f 23 5 16
f 16 10 12
f 5 6 16
f 12 14 16
f 8 10 16
f 16 24 23
f 18 22 16
f 16 7 8
f 22 24 16
f 6 7 16

