# https://github.com/mikedh/trimesh
v 0.00424264 0.00424264 0.01400000
v 0.00424264 0.00424264 0.02320000
v 0.00519615 0.00300000 0.01400000
v 0.00519615 0.00300000 0.02320000
v 0.01449569 0.01449569 0.02320000
v 0.01477021 0.01477021 0.02314889
v 0.01502602 0.01502602 0.02299904
v 0.01524569 0.01524569 0.02276066
v 0.01541425 0.01541425 0.02245000
v 0.01552021 0.01552021 0.02208823
v 0.01555635 0.01555635 0.01400000
v 0.01555635 0.01555635 0.02170000
v 0.01775352 0.01025000 0.02320000
v 0.01808974 0.01044411 0.02314889
v 0.01840304 0.01062500 0.02299904
v 0.01867208 0.01078033 0.02276066
v 0.01887852 0.01089952 0.02245000
v 0.01900830 0.01097444 0.02208823
v 0.01905256 0.01100000 0.01400000
v 0.01905256 0.01100000 0.02170000
f 1 11 3
f 3 11 19
f 4 2 1
f 1 3 4
f 19 11 20
f 11 12 20
f 13 5 2
f 2 4 13
f 13 6 5
f 14 6 13
f 1 2 8
f 8 11 1
f 8 12 11
f 2 5 8
f 8 10 12
f 8 6 7
f 9 10 8
f 5 6 8
f 7 6 15
f 15 6 14
f 15 8 7
f 16 8 15
f 9 8 17
f 17 8 16
f 18 3 19
f 18 4 3
f 19 20 18
f 18 15 14
f 18 13 4
f 14 13 18
f 16 15 18
f 18 17 16
f 18 20 12
f 12 10 18
f 18 10 9
f 9 17 18

