# https://github.com/mikedh/trimesh
v -0.02622948 -0.04256776 0.01400000
v -0.02622948 -0.04256776 0.01468867
v -0.02618955 -0.04250295 0.01470418
v -0.02607584 -0.04231840 0.01471732
v -0.02590565 -0.04204220 0.01472610
v -0.02570514 -0.04288643 0.01400000
v -0.02570514 -0.04288643 0.01498464
v -0.02570489 -0.04171640 0.01472918
v -0.02566600 -0.04282114 0.01500681
v -0.02555456 -0.04263521 0.01502560
v -0.02538777 -0.04235694 0.01503815
v -0.02519103 -0.04202870 0.01504256
v -0.01731146 -0.02809472 0.01472918
v -0.01711071 -0.02776892 0.01472610
v -0.01696539 -0.02830504 0.01504256
v -0.01694052 -0.02749272 0.01471732
v -0.01682680 -0.02730817 0.01470418
v -0.01678687 -0.02724337 0.01400000
v -0.01678687 -0.02724337 0.01468867
v -0.01676865 -0.02797681 0.01503815
v -0.01660187 -0.02769854 0.01502560
v -0.01649042 -0.02751261 0.01500681
v -0.01645129 -0.02744732 0.01400000
v -0.01645129 -0.02744732 0.01498464
f 4 10 11
f 9 2 7
f 12 8 5
f 5 11 12
f 4 11 5
f 2 9 3
f 3 9 10
f 3 10 4
f 24 19 22
f 20 21 16
f 17 22 19
f 21 22 17
f 16 21 17
f 14 20 16
f 13 20 14
f 15 13 8
f 15 20 13
f 15 8 12
f 23 6 18
f 18 6 1
f 6 7 2
f 1 6 2
f 23 18 19
f 19 24 23
f 14 18 1
f 14 3 4
f 1 2 14
f 4 5 14
f 16 17 14
f 14 19 18
f 8 13 14
f 14 5 8
f 2 3 14
f 14 17 19
f 15 7 6
f 15 6 23
f 23 24 15
f 15 22 21
f 12 11 15
f 15 9 7
f 15 11 10
f 10 9 15
f 24 22 15
f 21 20 15

