# https://github.com/mikedh/trimesh
v -0.05000000 0.00000000 0.01400000
v -0.05000000 0.00000000 0.03100000
v -0.04999624 0.00061358 0.01400000
v -0.04999624 0.00061358 0.03100000
v -0.04992388 0.00000000 0.03138268
v -0.04992012 0.00061264 0.03138268
v -0.04970711 0.00000000 0.03170711
v -0.04970336 0.00060998 0.03170711
v -0.04938268 0.00000000 0.03192388
v -0.04937897 0.00060600 0.03192388
v -0.04900000 0.00000000 0.03200000
v -0.04899631 0.00060131 0.03200000
v -0.03300000 0.00000000 0.03200000
v -0.03299752 0.00040496 0.03200000
v -0.03261732 0.00000000 0.03192388
v -0.03261486 0.00040026 0.03192388
v -0.03229289 0.00000000 0.03170711
v -0.03229046 0.00039628 0.03170711
v -0.03207612 0.00000000 0.03138268
v -0.03207371 0.00039362 0.03138268
v -0.03200000 0.00000000 0.01400000
v -0.03200000 0.00000000 0.03100000
v -0.03199759 0.00039269 0.01400000
v -0.03199759 0.00039269 0.03100000
f 21 3 23
f 1 3 21
f 2 3 1
f 2 4 3
f 12 10 9
f 11 12 9
f 4 2 6
f 2 5 6
f 17 19 20
f 18 17 20
f 22 21 23
f 23 24 22
f 24 20 22
f 22 20 19
f 13 14 12
f 13 12 11
f 7 9 8
f 8 9 10
f 8 5 7
f 8 6 5
f 1 21 15
f 11 9 15
f 15 2 1
f 21 22 15
f 15 5 2
f 7 5 15
f 15 19 17
f 15 9 7
f 15 22 19
f 15 13 11
f 23 3 16
f 3 4 16
f 16 24 23
f 16 8 10
f 4 6 16
f 16 10 12
f 12 14 16
f 18 20 16
f 16 20 24
f 6 8 16
f 16 17 18
f 16 15 17
f 14 13 16
f 13 15 16

