# https://github.com/mikedh/trimesh
v 0.01577274 0.02784278 0.01400000
v 0.01577274 0.02784278 0.01575977
v 0.01581026 0.02790902 0.01579938
v 0.01591711 0.02809763 0.01583296
v 0.01607702 0.02837990 0.01585540
v 0.01611323 0.02764713 0.01400000
v 0.01611323 0.02764713 0.01534169
v 0.01615156 0.02771290 0.01537189
v 0.01626071 0.02790018 0.01539749
v 0.01626564 0.02871287 0.01586328
v 0.01642407 0.02818048 0.01541460
v 0.01661677 0.02851110 0.01542061
v 0.02415201 0.04263426 0.01586328
v 0.02434064 0.04296723 0.01585540
v 0.02450054 0.04324951 0.01583296
v 0.02460739 0.04343812 0.01579938
v 0.02464491 0.04350435 0.01400000
v 0.02464491 0.04350435 0.01575977
v 0.02467338 0.04233467 0.01542061
v 0.02486608 0.04266530 0.01541460
v 0.02502944 0.04294559 0.01539749
v 0.02513859 0.04313288 0.01537189
v 0.02517692 0.04319864 0.01400000
v 0.02517692 0.04319864 0.01534169
f 3 2 7
f 19 13 10
f 19 20 13
f 13 20 14
f 22 16 15
f 12 19 10
f 10 5 12
f 21 22 15
f 15 14 21
f 21 14 20
f 18 16 24
f 16 22 24
f 9 5 4
f 11 12 5
f 5 9 11
f 4 3 8
f 8 9 4
f 8 3 7
f 1 17 6
f 6 17 23
f 6 2 1
f 7 2 6
f 14 18 17
f 14 17 1
f 1 2 14
f 10 13 14
f 15 16 14
f 14 5 10
f 14 16 18
f 2 3 14
f 14 3 4
f 4 5 14
f 17 18 24
f 23 17 24
f 8 6 23
f 7 6 8
f 8 21 20
f 20 19 8
f 23 24 8
f 19 12 8
f 22 21 8
f 8 24 22
f 12 11 8
f 8 11 9

