# https://github.com/mikedh/trimesh
v -0.01555635 -0.01555635 0.01400000
v -0.01555635 -0.01555635 0.02170000
v -0.01552021 -0.01552021 0.02208823
v -0.01541425 -0.01541425 0.02245000
v -0.01524569 -0.01524569 0.02276066
v -0.01502602 -0.01502602 0.02299904
v -0.01477021 -0.01477021 0.02314889
v -0.01449569 -0.01449569 0.02320000
v -0.01100000 -0.01905256 0.01400000
v -0.01100000 -0.01905256 0.02170000
v -0.01097444 -0.01900830 0.02208823
v -0.01089952 -0.01887852 0.02245000
v -0.01078033 -0.01867208 0.02276066
v -0.01062500 -0.01840304 0.02299904
v -0.01044411 -0.01808974 0.02314889
v -0.01025000 -0.01775352 0.02320000
v -0.00424264 -0.00424264 0.01400000
v -0.00424264 -0.00424264 0.02320000
v -0.00300000 -0.00519615 0.01400000
v -0.00300000 -0.00519615 0.02320000
f 19 9 17
f 17 9 1
f 18 16 20
f 8 16 18
f 19 17 18
f 18 20 19
f 1 9 10
f 10 2 1
f 3 2 10
f 10 11 3
f 3 11 12
f 12 4 3
f 5 4 12
f 12 13 5
f 6 17 1
f 8 18 6
f 1 2 6
f 6 18 17
f 6 2 3
f 6 7 8
f 3 4 6
f 6 4 5
f 13 14 6
f 5 13 6
f 15 9 19
f 19 20 15
f 20 16 15
f 15 10 9
f 11 10 15
f 15 12 11
f 15 14 13
f 13 12 15
f 15 16 8
f 8 7 15
f 7 6 15
f 15 6 14

