# https://github.com/mikedh/trimesh
v -0.01913417 -0.04619398 0.01400000
v -0.01913417 -0.04619398 0.02250000
v -0.01910504 -0.04612365 0.02269134
v -0.01902209 -0.04592338 0.02285355
v -0.01889793 -0.04562365 0.02296194
v -0.01875149 -0.04527010 0.02300000
v -0.01856586 -0.04642530 0.01400000
v -0.01856586 -0.04642530 0.02329555
v -0.01853759 -0.04635463 0.02350480
v -0.01845710 -0.04615335 0.02368219
v -0.01833664 -0.04585212 0.02380072
v -0.01819454 -0.04549680 0.02384234
v -0.01262855 -0.03048802 0.02300000
v -0.01248211 -0.03013447 0.02296194
v -0.01235796 -0.02983474 0.02285355
v -0.01227500 -0.02963447 0.02269134
v -0.01225347 -0.03064070 0.02384234
v -0.01224587 -0.02956415 0.01400000
v -0.01224587 -0.02956415 0.02250000
v -0.01211137 -0.03028538 0.02380072
v -0.01199091 -0.02998415 0.02368219
v -0.01191042 -0.02978287 0.02350480
v -0.01188215 -0.02971219 0.01400000
v -0.01188215 -0.02971219 0.02329555
f 10 3 9
f 8 9 2
f 2 9 3
f 12 5 11
f 4 3 10
f 10 11 4
f 4 11 5
f 24 19 22
f 12 17 6
f 6 5 12
f 20 21 15
f 16 22 19
f 21 22 16
f 15 21 16
f 13 6 17
f 17 20 13
f 14 20 15
f 14 13 20
f 23 7 18
f 18 7 1
f 7 8 2
f 1 7 2
f 23 18 19
f 19 24 23
f 20 9 8
f 20 7 23
f 20 8 7
f 23 24 20
f 12 11 20
f 20 17 12
f 10 9 20
f 20 11 10
f 20 22 21
f 24 22 20
f 14 18 1
f 3 4 14
f 1 2 14
f 14 2 3
f 15 16 14
f 14 19 18
f 14 4 5
f 5 6 14
f 14 16 19
f 6 13 14

