# https://github.com/mikedh/trimesh
v 0.02999485 0.01114940 0.01400000
v 0.02999485 0.01114940 0.02485501
v 0.03006620 0.01117592 0.02509936
v 0.03012941 0.01078048 0.01400000
v 0.03012941 0.01078048 0.02560352
v 0.03020108 0.01080612 0.02586472
v 0.03026939 0.01125145 0.02530652
v 0.03040518 0.01087915 0.02608616
v 0.03057348 0.01136448 0.02544493
v 0.03071064 0.01098844 0.02623412
v 0.03093219 0.01149782 0.02549354
v 0.03107095 0.01111737 0.02628608
v 0.04592961 0.01707252 0.02549354
v 0.04613566 0.01650760 0.02628608
v 0.04628832 0.01720585 0.02544493
v 0.04649597 0.01663652 0.02623412
v 0.04659241 0.01731888 0.02530652
v 0.04679560 0.01739441 0.02509936
v 0.04680143 0.01674582 0.02608616
v 0.04686695 0.01742093 0.01400000
v 0.04686695 0.01742093 0.02485501
v 0.04700553 0.01681885 0.02586472
v 0.04707720 0.01684449 0.01400000
v 0.04707720 0.01684449 0.02560352
f 18 17 19
f 19 17 16
f 12 14 13
f 13 11 12
f 22 18 19
f 21 22 24
f 18 22 21
f 14 16 15
f 15 13 14
f 15 16 17
f 6 2 5
f 12 11 10
f 10 7 8
f 3 6 8
f 8 7 3
f 2 6 3
f 9 10 11
f 7 10 9
f 4 20 23
f 1 20 4
f 1 4 2
f 4 5 2
f 23 20 21
f 21 24 23
f 10 4 23
f 23 24 10
f 19 16 10
f 10 6 5
f 10 5 4
f 10 14 12
f 10 16 14
f 10 22 19
f 24 22 10
f 8 6 10
f 9 20 1
f 1 2 9
f 11 13 9
f 9 15 17
f 17 18 9
f 9 21 20
f 18 21 9
f 13 15 9
f 2 3 9
f 9 3 7

