# https://github.com/mikedh/trimesh
v 0.02840447 -0.01473724 0.01400000
v 0.02840447 -0.01473724 0.01736068
v 0.02847204 -0.01477230 0.01743633
v 0.02858318 -0.01438756 0.01400000
v 0.02858318 -0.01438756 0.01799788
v 0.02865117 -0.01442179 0.01808787
v 0.02866445 -0.01487213 0.01750047
v 0.02884480 -0.01451925 0.01816417
v 0.02895242 -0.01502154 0.01754332
v 0.02913458 -0.01466512 0.01821515
v 0.02929211 -0.01519778 0.01755837
v 0.02947640 -0.01483717 0.01823305
v 0.04349434 -0.02256640 0.01755837
v 0.04376799 -0.02203096 0.01823305
v 0.04383403 -0.02274264 0.01754332
v 0.04410981 -0.02220301 0.01821515
v 0.04412200 -0.02289205 0.01750047
v 0.04431441 -0.02299188 0.01743633
v 0.04438198 -0.02302694 0.01400000
v 0.04438198 -0.02302694 0.01736068
v 0.04439960 -0.02234888 0.01816417
v 0.04459322 -0.02244634 0.01808787
v 0.04466122 -0.02248057 0.01400000
v 0.04466122 -0.02248057 0.01799788
f 12 13 14
f 22 20 24
f 21 16 17
f 11 13 12
f 15 17 16
f 15 16 14
f 15 14 13
f 18 22 21
f 21 17 18
f 20 22 18
f 5 2 6
f 10 11 12
f 10 8 7
f 3 6 2
f 8 6 3
f 7 8 3
f 9 10 7
f 11 10 9
f 23 19 4
f 4 19 1
f 20 19 23
f 23 24 20
f 2 4 1
f 2 5 4
f 23 4 10
f 10 24 23
f 21 22 10
f 10 16 21
f 4 5 10
f 12 14 10
f 14 16 10
f 10 22 24
f 5 6 10
f 10 6 8
f 1 19 9
f 19 20 9
f 13 11 9
f 9 2 1
f 9 15 13
f 20 18 9
f 7 3 9
f 17 15 9
f 9 18 17
f 9 3 2

