# https://github.com/mikedh/trimesh
v 0.01542988 -0.02803424 0.01400000
v 0.01542988 -0.02803424 0.01623751
v 0.01546658 -0.02810093 0.01628788
v 0.01557111 -0.02829084 0.01633058
v 0.01572754 -0.02857506 0.01635911
v 0.01577274 -0.02784278 0.01400000
v 0.01577274 -0.02784278 0.01575977
v 0.01581026 -0.02790902 0.01579938
v 0.01591206 -0.02891031 0.01636913
v 0.01591711 -0.02809763 0.01583296
v 0.01607702 -0.02837990 0.01585540
v 0.01626564 -0.02871287 0.01586328
v 0.02362700 -0.04292743 0.01636913
v 0.02381153 -0.04326269 0.01635911
v 0.02396796 -0.04354691 0.01633058
v 0.02407248 -0.04373682 0.01628788
v 0.02410919 -0.04380350 0.01400000
v 0.02410919 -0.04380350 0.01623751
v 0.02415201 -0.04263426 0.01586328
v 0.02434064 -0.04296723 0.01585540
v 0.02450054 -0.04324951 0.01583296
v 0.02460739 -0.04343812 0.01579938
v 0.02464491 -0.04350435 0.01400000
v 0.02464491 -0.04350435 0.01575977
f 9 13 19
f 7 2 3
f 9 19 12
f 12 5 9
f 20 19 13
f 4 5 10
f 14 20 13
f 15 16 22
f 5 12 11
f 11 10 5
f 8 3 4
f 4 10 8
f 7 3 8
f 15 22 21
f 21 14 15
f 20 14 21
f 24 16 18
f 24 22 16
f 6 17 1
f 23 17 6
f 1 2 6
f 6 2 7
f 17 18 14
f 1 17 14
f 14 2 1
f 14 13 9
f 14 16 15
f 9 5 14
f 18 16 14
f 14 3 2
f 4 3 14
f 14 5 4
f 23 6 24
f 24 6 7
f 24 11 12
f 24 12 19
f 19 20 24
f 20 21 24
f 7 8 24
f 10 11 24
f 24 8 10
f 24 21 22
f 24 18 17
f 24 17 23

