# https://github.com/mikedh/trimesh
v 0.02858318 0.01438756 0.01400000
v 0.02858318 0.01438756 0.01799788
v 0.02865117 0.01442179 0.01808787
v 0.02875758 0.01403572 0.01400000
v 0.02875758 0.01403572 0.01867853
v 0.02882599 0.01406911 0.01878385
v 0.02884480 0.01451925 0.01816417
v 0.02902080 0.01416419 0.01887313
v 0.02913458 0.01466512 0.01821515
v 0.02931235 0.01430648 0.01893279
v 0.02947640 0.01483717 0.01823305
v 0.02965626 0.01447434 0.01895374
v 0.04376799 0.02203096 0.01823305
v 0.04403505 0.02149220 0.01895374
v 0.04410981 0.02220301 0.01821515
v 0.04437896 0.02166005 0.01893279
v 0.04439960 0.02234888 0.01816417
v 0.04459322 0.02244634 0.01808787
v 0.04466122 0.02248057 0.01400000
v 0.04466122 0.02248057 0.01799788
v 0.04467051 0.02180234 0.01887313
v 0.04486532 0.02189742 0.01878385
v 0.04493372 0.02193081 0.01400000
v 0.04493372 0.02193081 0.01867853
f 14 13 12
f 24 20 22
f 17 16 21
f 12 13 11
f 16 17 15
f 14 16 15
f 13 14 15
f 21 22 18
f 18 17 21
f 18 22 20
f 6 2 5
f 12 11 10
f 7 8 10
f 2 6 3
f 3 6 8
f 3 8 7
f 7 10 9
f 9 10 11
f 4 19 23
f 1 19 4
f 23 19 20
f 20 24 23
f 1 4 2
f 4 5 2
f 10 4 23
f 23 24 10
f 10 22 21
f 21 16 10
f 10 5 4
f 10 14 12
f 10 16 14
f 24 22 10
f 10 6 5
f 8 6 10
f 9 19 1
f 9 20 19
f 9 11 13
f 1 2 9
f 13 15 9
f 9 18 20
f 9 3 7
f 9 15 17
f 17 18 9
f 2 3 9

