# https://github.com/mikedh/trimesh
v -0.02356984 0.04409606 0.01400000
v -0.02356984 0.04409606 0.01677236
v -0.02353395 0.04402893 0.01683477
v -0.02343177 0.04383775 0.01688767
v -0.02327884 0.04355164 0.01692303
v -0.02309844 0.04321414 0.01693544
v -0.02302694 0.04438198 0.01400000
v -0.02302694 0.04438198 0.01736068
v -0.02299188 0.04431441 0.01743633
v -0.02289205 0.04412200 0.01750047
v -0.02274264 0.04383403 0.01754332
v -0.02256640 0.04349434 0.01755837
v -0.01555609 0.02910340 0.01693544
v -0.01537570 0.02876591 0.01692303
v -0.01522276 0.02847979 0.01688767
v -0.01519778 0.02929211 0.01755837
v -0.01512058 0.02828861 0.01683477
v -0.01508470 0.02822148 0.01400000
v -0.01508470 0.02822148 0.01677236
v -0.01502154 0.02895242 0.01754332
v -0.01487213 0.02866445 0.01750047
v -0.01477230 0.02847204 0.01743633
v -0.01473724 0.02840447 0.01400000
v -0.01473724 0.02840447 0.01736068
f 9 3 10
f 2 9 8
f 3 9 2
f 11 5 12
f 10 3 4
f 4 11 10
f 5 11 4
f 22 19 24
f 6 16 12
f 12 5 6
f 15 21 20
f 19 22 17
f 17 22 21
f 17 21 15
f 16 6 13
f 13 20 16
f 15 20 14
f 20 13 14
f 18 7 23
f 1 7 18
f 2 8 7
f 2 7 1
f 19 18 23
f 23 24 19
f 8 9 20
f 23 7 20
f 7 8 20
f 20 24 23
f 20 11 12
f 12 16 20
f 20 9 10
f 10 11 20
f 21 22 20
f 20 22 24
f 1 18 14
f 14 4 3
f 14 2 1
f 3 2 14
f 14 17 15
f 18 19 14
f 5 4 14
f 14 6 5
f 19 17 14
f 14 13 6

