# https://github.com/mikedh/trimesh
v 0.01224587 -0.02956415 0.01400000
v 0.01224587 -0.02956415 0.02250000
v 0.01227500 -0.02963447 0.02269134
v 0.01235796 -0.02983474 0.02285355
v 0.01248211 -0.03013447 0.02296194
v 0.01260775 -0.02941164 0.01400000
v 0.01260775 -0.02941164 0.02170445
v 0.01262855 -0.03048802 0.02300000
v 0.01263774 -0.02948161 0.02187789
v 0.01272314 -0.02968085 0.02202492
v 0.01285096 -0.02997903 0.02212316
v 0.01300174 -0.03033076 0.02215766
v 0.01875149 -0.04527010 0.02300000
v 0.01889793 -0.04562365 0.02296194
v 0.01902209 -0.04592338 0.02285355
v 0.01910504 -0.04612365 0.02269134
v 0.01913417 -0.04619398 0.01400000
v 0.01913417 -0.04619398 0.02250000
v 0.01930561 -0.04503658 0.02215766
v 0.01945638 -0.04538831 0.02212316
v 0.01958420 -0.04568649 0.02202492
v 0.01966961 -0.04588573 0.02187789
v 0.01969960 -0.04595569 0.01400000
v 0.01969960 -0.04595569 0.02170445
f 22 21 15
f 15 21 14
f 8 13 19
f 7 2 3
f 16 22 15
f 24 16 18
f 22 16 24
f 8 19 12
f 12 5 8
f 13 14 20
f 20 19 13
f 20 14 21
f 4 5 10
f 5 12 11
f 11 10 5
f 9 3 4
f 4 10 9
f 7 3 9
f 6 17 1
f 23 17 6
f 1 2 6
f 6 2 7
f 17 18 16
f 1 17 16
f 16 2 1
f 8 5 16
f 16 13 8
f 16 3 2
f 15 14 16
f 16 14 13
f 4 3 16
f 16 5 4
f 24 18 17
f 24 17 23
f 23 6 9
f 9 6 7
f 9 24 23
f 21 22 9
f 9 20 21
f 22 24 9
f 9 12 19
f 19 20 9
f 9 11 12
f 10 11 9

