# https://github.com/mikedh/trimesh
v 0.03191329 0.00235407 0.01400000
v 0.03191329 0.00235407 0.03100000
v 0.03193978 0.00196226 0.01400000
v 0.03193978 0.00196226 0.03100000
v 0.03198921 0.00235967 0.03138268
v 0.03201576 0.00196693 0.03138268
v 0.03220539 0.00237561 0.03170711
v 0.03223212 0.00198022 0.03170711
v 0.03252894 0.00239948 0.03192388
v 0.03255593 0.00200012 0.03192388
v 0.03291059 0.00242763 0.03200000
v 0.03293790 0.00202358 0.03200000
v 0.04886723 0.00360466 0.03200000
v 0.04890779 0.00300472 0.03200000
v 0.04924888 0.00363282 0.03192388
v 0.04928975 0.00302818 0.03192388
v 0.04957242 0.00365668 0.03170711
v 0.04961356 0.00304808 0.03170711
v 0.04978861 0.00367263 0.03138268
v 0.04982993 0.00306137 0.03138268
v 0.04986452 0.00367823 0.01400000
v 0.04986452 0.00367823 0.03100000
v 0.04990591 0.00306604 0.01400000
v 0.04990591 0.00306604 0.03100000
f 1 21 3
f 3 21 23
f 3 2 1
f 4 2 3
f 18 20 19
f 17 18 19
f 21 22 24
f 23 21 24
f 22 19 24
f 24 19 20
f 15 22 21
f 15 21 1
f 1 2 15
f 15 9 11
f 11 13 15
f 17 19 15
f 2 5 15
f 15 5 7
f 7 9 15
f 15 19 22
f 15 16 18
f 15 18 17
f 14 15 13
f 16 15 14
f 12 13 11
f 12 14 13
f 11 9 10
f 10 12 11
f 8 9 7
f 8 10 9
f 6 3 23
f 4 3 6
f 23 24 6
f 6 20 18
f 18 16 6
f 6 24 20
f 16 14 6
f 14 12 6
f 12 10 6
f 10 8 6
f 6 2 4
f 6 5 2
f 7 5 6
f 6 8 7

