# https://github.com/mikedh/trimesh
v -0.04350435 0.02464491 0.01400000
v -0.04350435 0.02464491 0.01575977
v -0.04343812 0.02460739 0.01579938
v -0.04324951 0.02450054 0.01583296
v -0.04319864 0.02517692 0.01400000
v -0.04319864 0.02517692 0.01534169
v -0.04313288 0.02513859 0.01537189
v -0.04296723 0.02434064 0.01585540
v -0.04294559 0.02502944 0.01539749
v -0.04266530 0.02486608 0.01541460
v -0.04263426 0.02415201 0.01586328
v -0.04233467 0.02467338 0.01542061
v -0.02871287 0.01626564 0.01586328
v -0.02851110 0.01661677 0.01542061
v -0.02837990 0.01607702 0.01585540
v -0.02818048 0.01642407 0.01541460
v -0.02809763 0.01591711 0.01583296
v -0.02790902 0.01581026 0.01579938
v -0.02790018 0.01626071 0.01539749
v -0.02784278 0.01577274 0.01400000
v -0.02784278 0.01577274 0.01575977
v -0.02771290 0.01615156 0.01537189
v -0.02764713 0.01611323 0.01400000
v -0.02764713 0.01611323 0.01534169
f 13 12 11
f 11 12 10
f 22 19 17
f 12 13 14
f 11 10 8
f 8 10 9
f 9 4 8
f 3 6 2
f 18 22 17
f 24 18 21
f 22 18 24
f 15 14 13
f 17 19 15
f 6 3 7
f 7 3 4
f 7 4 9
f 16 15 19
f 14 15 16
f 20 5 23
f 1 5 20
f 6 5 1
f 1 2 6
f 24 20 23
f 24 21 20
f 1 20 15
f 15 2 1
f 15 13 11
f 20 21 15
f 15 3 2
f 15 18 17
f 11 8 15
f 15 8 4
f 4 3 15
f 21 18 15
f 23 5 16
f 16 10 12
f 5 6 16
f 12 14 16
f 9 10 16
f 16 24 23
f 19 22 16
f 16 7 9
f 22 24 16
f 6 7 16

