# https://github.com/mikedh/trimesh
v -0.04728037 0.01626551 0.01400000
v -0.04728037 0.01626551 0.02632147
v -0.04720839 0.01624075 0.02659884
v -0.04707720 0.01684449 0.01400000
v -0.04707720 0.01684449 0.02560352
v -0.04700553 0.01681885 0.02586472
v -0.04700340 0.01617023 0.02683398
v -0.04680143 0.01674582 0.02608616
v -0.04669663 0.01606470 0.02699109
v -0.04649597 0.01663652 0.02623412
v -0.04633476 0.01594020 0.02704626
v -0.04613566 0.01650760 0.02628608
v -0.03120504 0.01073524 0.02704626
v -0.03107095 0.01111737 0.02628608
v -0.03084317 0.01061075 0.02699109
v -0.03071064 0.01098844 0.02623412
v -0.03053640 0.01050521 0.02683398
v -0.03040518 0.01087915 0.02608616
v -0.03033141 0.01043469 0.02659884
v -0.03025943 0.01040993 0.01400000
v -0.03025943 0.01040993 0.02632147
v -0.03020108 0.01080612 0.02586472
v -0.03012941 0.01078048 0.01400000
v -0.03012941 0.01078048 0.02560352
f 8 7 9
f 3 5 2
f 14 12 13
f 13 12 11
f 8 9 10
f 10 9 11
f 11 12 10
f 5 3 6
f 6 3 7
f 6 7 8
f 19 21 24
f 22 19 24
f 17 19 22
f 22 18 17
f 18 16 15
f 17 18 15
f 15 16 14
f 14 13 15
f 20 4 23
f 1 4 20
f 5 4 1
f 1 2 5
f 21 20 23
f 23 24 21
f 23 4 22
f 22 24 23
f 4 5 22
f 22 12 14
f 8 10 22
f 22 6 8
f 14 16 22
f 22 10 12
f 5 6 22
f 22 16 18
f 1 20 15
f 15 2 1
f 20 21 15
f 11 9 15
f 15 3 2
f 15 9 7
f 7 3 15
f 15 13 11
f 15 19 17
f 21 19 15

