# https://github.com/mikedh/trimesh
v 0.01874553 -0.02593463 0.01400000
v 0.01874553 -0.02593463 0.01400256
v 0.01879012 -0.02599632 0.01400262
v 0.01891711 -0.02617201 0.01400266
v 0.01906238 -0.02570264 0.01400000
v 0.01910715 -0.02643494 0.01400270
v 0.01933133 -0.02674509 0.01400271
v 0.02870410 -0.03971240 0.01400271
v 0.02892827 -0.04002255 0.01400270
v 0.02911832 -0.04028548 0.01400266
v 0.02924530 -0.04046117 0.01400262
v 0.02928989 -0.04052286 0.01400000
v 0.02928989 -0.04052286 0.01400256
v 0.02978497 -0.04016038 0.01400000
f 2 5 1
f 14 5 6
f 6 7 14
f 13 12 14
f 14 7 8
f 4 6 5
f 14 10 11
f 11 13 14
f 9 10 14
f 14 8 9
f 5 2 3
f 3 4 5
f 14 12 5
f 5 12 1
f 1 12 3
f 7 6 3
f 12 13 3
f 3 2 1
f 3 8 7
f 10 9 3
f 3 11 10
f 6 4 3
f 13 11 3
f 3 9 8

