# https://github.com/mikedh/trimesh
v -0.04747641 -0.01568409 0.01400000
v -0.04747641 -0.01568409 0.02700212
v -0.04740413 -0.01566021 0.02729481
v -0.04728037 -0.01626551 0.01400000
v -0.04728037 -0.01626551 0.02632147
v -0.04720839 -0.01624075 0.02659884
v -0.04719830 -0.01559221 0.02754294
v -0.04700340 -0.01617023 0.02683398
v -0.04689025 -0.01549045 0.02770873
v -0.04669663 -0.01606470 0.02699109
v -0.04652688 -0.01537041 0.02776695
v -0.04633476 -0.01594020 0.02704626
v -0.03133443 -0.01035150 0.02776695
v -0.03120504 -0.01073524 0.02704626
v -0.03097106 -0.01023146 0.02770873
v -0.03084317 -0.01061075 0.02699109
v -0.03066301 -0.01012969 0.02754294
v -0.03053640 -0.01050521 0.02683398
v -0.03045718 -0.01006169 0.02729481
v -0.03038490 -0.01003782 0.01400000
v -0.03038490 -0.01003782 0.02700212
v -0.03033141 -0.01043469 0.02659884
v -0.03025943 -0.01040993 0.01400000
v -0.03025943 -0.01040993 0.02632147
f 9 7 8
f 2 5 3
f 13 12 14
f 11 12 13
f 10 9 8
f 11 9 10
f 10 12 11
f 6 3 5
f 7 3 6
f 8 7 6
f 24 21 19
f 24 19 22
f 22 19 17
f 17 18 22
f 15 16 18
f 15 18 17
f 14 16 15
f 15 13 14
f 23 4 20
f 20 4 1
f 1 4 5
f 5 2 1
f 23 20 21
f 21 24 23
f 22 4 23
f 23 24 22
f 22 5 4
f 14 12 22
f 22 10 8
f 8 6 22
f 22 16 14
f 12 10 22
f 22 6 5
f 18 16 22
f 15 20 1
f 1 2 15
f 15 21 20
f 15 9 11
f 2 3 15
f 7 9 15
f 15 3 7
f 11 13 15
f 17 19 15
f 15 19 21

