# https://github.com/mikedh/trimesh
v -0.04975924 0.00490086 0.01400000
v -0.04975924 0.00490086 0.03100000
v -0.04969535 0.00551111 0.01400000
v -0.04969535 0.00551111 0.03100000
v -0.04968348 0.00489340 0.03138268
v -0.04961969 0.00550272 0.03138268
v -0.04946775 0.00487215 0.03170711
v -0.04940424 0.00547883 0.03170711
v -0.04914489 0.00484035 0.03192388
v -0.04908179 0.00544307 0.03192388
v -0.04876405 0.00480284 0.03200000
v -0.04870144 0.00540089 0.03200000
v -0.03284110 0.00323457 0.03200000
v -0.03279893 0.00363733 0.03200000
v -0.03246026 0.00319706 0.03192388
v -0.03241858 0.00359515 0.03192388
v -0.03213739 0.00316526 0.03170711
v -0.03209613 0.00355939 0.03170711
v -0.03192167 0.00314401 0.03138268
v -0.03188068 0.00353550 0.03138268
v -0.03184591 0.00313655 0.01400000
v -0.03184591 0.00313655 0.03100000
v -0.03180502 0.00352711 0.01400000
v -0.03180502 0.00352711 0.03100000
f 21 3 23
f 1 3 21
f 2 3 1
f 2 4 3
f 12 10 9
f 11 12 9
f 4 2 6
f 2 5 6
f 17 19 20
f 18 17 20
f 22 21 23
f 23 24 22
f 24 20 22
f 22 20 19
f 13 14 12
f 13 12 11
f 7 9 8
f 8 9 10
f 8 5 7
f 8 6 5
f 23 3 16
f 3 4 16
f 16 24 23
f 16 8 10
f 4 6 16
f 16 10 12
f 12 14 16
f 18 20 16
f 16 20 24
f 6 8 16
f 1 21 15
f 11 9 15
f 15 2 1
f 21 22 15
f 15 5 2
f 7 5 15
f 15 19 17
f 15 9 7
f 15 22 19
f 15 13 11
f 15 17 18
f 18 16 15
f 14 13 15
f 15 16 14

