# https://github.com/mikedh/trimesh
v -0.01100000 -0.01905256 0.01400000
v -0.01100000 -0.01905256 0.02170000
v -0.01097444 -0.01900830 0.02208823
v -0.01089952 -0.01887852 0.02245000
v -0.01078033 -0.01867208 0.02276066
v -0.01062500 -0.01840304 0.02299904
v -0.01044411 -0.01808974 0.02314889
v -0.01025000 -0.01775352 0.02320000
v -0.00569402 -0.02125037 0.01400000
v -0.00569402 -0.02125037 0.02170000
v -0.00568079 -0.02120100 0.02208823
v -0.00564201 -0.02105625 0.02245000
v -0.00558031 -0.02082600 0.02276066
v -0.00549990 -0.02052592 0.02299904
v -0.00540627 -0.02017648 0.02314889
v -0.00530579 -0.01980148 0.02320000
v -0.00300000 -0.00519615 0.01400000
v -0.00300000 -0.00519615 0.02320000
v -0.00155291 -0.00579555 0.01400000
v -0.00155291 -0.00579555 0.02320000
f 17 9 1
f 19 9 17
f 16 20 18
f 8 16 18
f 19 17 18
f 18 20 19
f 1 9 2
f 9 10 2
f 2 10 11
f 11 3 2
f 19 20 14
f 14 9 19
f 14 10 9
f 14 20 16
f 11 10 14
f 14 12 11
f 13 12 14
f 16 15 14
f 7 16 8
f 7 15 16
f 4 3 11
f 11 12 4
f 4 12 13
f 13 5 4
f 6 17 1
f 8 18 6
f 1 2 6
f 6 18 17
f 6 2 3
f 6 7 8
f 3 4 6
f 6 4 5
f 13 14 6
f 6 5 13
f 6 14 15
f 15 7 6

