# https://github.com/mikedh/trimesh
v 0.01473724 0.02840447 0.01400000
v 0.01473724 0.02840447 0.01736068
v 0.01477230 0.02847204 0.01743633
v 0.01487213 0.02866445 0.01750047
v 0.01502154 0.02895242 0.01754332
v 0.01508470 0.02822148 0.01400000
v 0.01508470 0.02822148 0.01677236
v 0.01512058 0.02828861 0.01683477
v 0.01519778 0.02929211 0.01755837
v 0.01522276 0.02847979 0.01688767
v 0.01537570 0.02876591 0.01692303
v 0.01555609 0.02910340 0.01693544
v 0.02256640 0.04349434 0.01755837
v 0.02274264 0.04383403 0.01754332
v 0.02289205 0.04412200 0.01750047
v 0.02299188 0.04431441 0.01743633
v 0.02302694 0.04438198 0.01400000
v 0.02302694 0.04438198 0.01736068
v 0.02309844 0.04321414 0.01693544
v 0.02327884 0.04355164 0.01692303
v 0.02343177 0.04383775 0.01688767
v 0.02353395 0.04402893 0.01683477
v 0.02356984 0.04409606 0.01400000
v 0.02356984 0.04409606 0.01677236
f 15 21 22
f 14 21 15
f 19 13 9
f 3 2 7
f 15 22 16
f 18 16 24
f 24 16 22
f 12 19 9
f 9 5 12
f 20 14 13
f 13 19 20
f 21 14 20
f 10 5 4
f 11 12 5
f 5 10 11
f 4 3 8
f 8 10 4
f 8 3 7
f 1 17 6
f 6 17 23
f 6 2 1
f 7 2 6
f 16 18 17
f 16 17 1
f 1 2 16
f 16 5 9
f 9 13 16
f 2 3 16
f 16 14 15
f 13 14 16
f 16 3 4
f 4 5 16
f 17 18 24
f 23 17 24
f 8 6 23
f 7 6 8
f 23 24 8
f 8 22 21
f 21 20 8
f 8 24 22
f 19 12 8
f 8 20 19
f 12 11 8
f 8 11 10

