# https://github.com/mikedh/trimesh
v -0.04595569 0.01969960 0.01400000
v -0.04595569 0.01969960 0.02170445
v -0.04588573 0.01966961 0.02187789
v -0.04571049 0.02026207 0.01400000
v -0.04571049 0.02026207 0.02091684
v -0.04568649 0.01958420 0.02202492
v -0.04564090 0.02023122 0.02107255
v -0.04544272 0.02014337 0.02120455
v -0.04538831 0.01945638 0.02212316
v -0.04514613 0.02001190 0.02129274
v -0.04503658 0.01930561 0.02215766
v -0.04479628 0.01985682 0.02132372
v -0.03033076 0.01300174 0.02215766
v -0.03016892 0.01337296 0.02132372
v -0.02997903 0.01285096 0.02212316
v -0.02981907 0.01321788 0.02129274
v -0.02968085 0.01272314 0.02202492
v -0.02952248 0.01308641 0.02120455
v -0.02948161 0.01263774 0.02187789
v -0.02941164 0.01260775 0.01400000
v -0.02941164 0.01260775 0.02170445
v -0.02932430 0.01299857 0.02107255
v -0.02925471 0.01296772 0.01400000
v -0.02925471 0.01296772 0.02091684
f 8 6 9
f 3 5 2
f 14 12 13
f 13 12 11
f 8 9 10
f 10 9 11
f 11 12 10
f 5 3 7
f 7 3 6
f 7 6 8
f 19 21 24
f 22 19 24
f 17 19 22
f 22 18 17
f 18 16 15
f 17 18 15
f 15 16 14
f 14 13 15
f 20 4 23
f 1 4 20
f 5 4 1
f 1 2 5
f 21 20 23
f 23 24 21
f 23 4 22
f 22 24 23
f 4 5 22
f 22 12 14
f 8 10 22
f 22 7 8
f 14 16 22
f 22 10 12
f 5 7 22
f 22 16 18
f 1 20 15
f 15 2 1
f 20 21 15
f 11 9 15
f 15 3 2
f 15 9 6
f 6 3 15
f 15 13 11
f 15 19 17
f 21 19 15

