# https://github.com/mikedh/trimesh
v -0.04926388 0.00854809 0.01400000
v -0.04926388 0.00854809 0.03098031
v -0.04918888 0.00853508 0.03136255
v -0.04915527 0.00915199 0.01400000
v -0.04915527 0.00915199 0.03093611
v -0.04908044 0.00913806 0.03131735
v -0.04897530 0.00849802 0.03168660
v -0.04886733 0.00909838 0.03164056
v -0.04865565 0.00844256 0.03190312
v -0.04854839 0.00903900 0.03185651
v -0.04827860 0.00837713 0.03197915
v -0.04817217 0.00896895 0.03193235
v -0.03251416 0.00564174 0.03197915
v -0.03244248 0.00604032 0.03193235
v -0.03213711 0.00557632 0.03190312
v -0.03206626 0.00597027 0.03185651
v -0.03181747 0.00552085 0.03168660
v -0.03174732 0.00591089 0.03164056
v -0.03160388 0.00548379 0.03136255
v -0.03153421 0.00587121 0.03131735
v -0.03152888 0.00547078 0.01400000
v -0.03152888 0.00547078 0.03098031
v -0.03145938 0.00585728 0.01400000
v -0.03145938 0.00585728 0.03093611
f 13 12 11
f 11 12 10
f 20 18 17
f 12 13 14
f 11 10 9
f 9 10 8
f 8 7 9
f 3 5 2
f 19 20 17
f 24 19 22
f 20 19 24
f 15 14 13
f 17 18 15
f 5 3 6
f 6 3 7
f 6 7 8
f 16 15 18
f 14 15 16
f 21 4 23
f 1 4 21
f 5 4 1
f 1 2 5
f 24 21 23
f 24 22 21
f 1 21 15
f 15 2 1
f 15 13 11
f 21 22 15
f 15 3 2
f 15 19 17
f 11 9 15
f 15 9 7
f 7 3 15
f 22 19 15
f 23 4 16
f 16 10 12
f 4 5 16
f 12 14 16
f 8 10 16
f 16 24 23
f 18 20 16
f 16 6 8
f 20 24 16
f 5 6 16

