# https://github.com/mikedh/trimesh
v -0.04850156 0.01214901 0.01400000
v -0.04850156 0.01214901 0.03001536
v -0.04842772 0.01213051 0.03037588
v -0.04834882 0.01274328 0.01400000
v -0.04834882 0.01274328 0.02965831
v -0.04827522 0.01272388 0.03001079
v -0.04821745 0.01207784 0.03068151
v -0.04806560 0.01266863 0.03030961
v -0.04790275 0.01199901 0.03088573
v -0.04775189 0.01258595 0.03050928
v -0.04753153 0.01190603 0.03095744
v -0.04738185 0.01248842 0.03057939
v -0.03201103 0.00801835 0.03095744
v -0.03191022 0.00841057 0.03057939
v -0.03163982 0.00792536 0.03088573
v -0.03154018 0.00831303 0.03050928
v -0.03132512 0.00784653 0.03068151
v -0.03122647 0.00823035 0.03030961
v -0.03111484 0.00779386 0.03037588
v -0.03104100 0.00777537 0.01400000
v -0.03104100 0.00777537 0.03001536
v -0.03101685 0.00817510 0.03001079
v -0.03094325 0.00815570 0.01400000
v -0.03094325 0.00815570 0.02965831
f 8 7 9
f 3 5 2
f 14 12 13
f 13 12 11
f 8 9 10
f 10 9 11
f 11 12 10
f 5 3 6
f 6 3 7
f 6 7 8
f 19 21 24
f 22 19 24
f 17 19 22
f 22 18 17
f 18 16 15
f 17 18 15
f 15 16 14
f 14 13 15
f 20 4 23
f 1 4 20
f 5 4 1
f 1 2 5
f 21 20 23
f 23 24 21
f 23 4 22
f 22 24 23
f 4 5 22
f 22 12 14
f 8 10 22
f 22 6 8
f 14 16 22
f 22 10 12
f 5 6 22
f 22 16 18
f 1 20 15
f 15 2 1
f 20 21 15
f 11 9 15
f 15 3 2
f 15 9 7
f 7 3 15
f 15 13 11
f 15 19 17
f 21 19 15

