# https://github.com/mikedh/trimesh
v -0.04962398 -0.00612053 0.01400000
v -0.04962398 -0.00612053 0.03100000
v -0.04954843 -0.00611122 0.03138268
v -0.04954513 -0.00672904 0.01400000
v -0.04954513 -0.00672904 0.03100000
v -0.04946970 -0.00671879 0.03138268
v -0.04933329 -0.00608468 0.03170711
v -0.04925490 -0.00668962 0.03170711
v -0.04901130 -0.00604497 0.03192388
v -0.04893343 -0.00664596 0.03192388
v -0.04863150 -0.00599812 0.03200000
v -0.04855423 -0.00659445 0.03200000
v -0.03275182 -0.00403955 0.03200000
v -0.03269979 -0.00444116 0.03200000
v -0.03237202 -0.00399271 0.03192388
v -0.03232058 -0.00438966 0.03192388
v -0.03205004 -0.00395299 0.03170711
v -0.03199911 -0.00434600 0.03170711
v -0.03183489 -0.00392646 0.03138268
v -0.03178431 -0.00431683 0.03138268
v -0.03175935 -0.00391714 0.01400000
v -0.03175935 -0.00391714 0.03100000
v -0.03170888 -0.00430658 0.01400000
v -0.03170888 -0.00430658 0.03100000
f 23 4 21
f 21 4 1
f 1 4 5
f 5 2 1
f 11 9 10
f 10 12 11
f 10 9 7
f 7 8 10
f 2 5 6
f 6 3 2
f 7 3 6
f 6 8 7
f 23 21 24
f 21 22 24
f 15 21 1
f 1 2 15
f 15 22 21
f 15 9 11
f 2 3 15
f 7 9 15
f 15 3 7
f 11 13 15
f 17 19 15
f 15 19 22
f 14 13 11
f 11 12 14
f 20 19 17
f 17 18 20
f 22 19 20
f 20 24 22
f 16 4 23
f 16 6 5
f 16 5 4
f 12 10 16
f 23 24 16
f 16 10 8
f 8 6 16
f 16 14 12
f 16 20 18
f 24 20 16
f 17 15 16
f 16 18 17
f 16 15 13
f 13 14 16

