# https://github.com/mikedh/trimesh
v -0.04936507 0.00794291 0.01400000
v -0.04936507 0.00794291 0.03099744
v -0.04928992 0.00793081 0.03138007
v -0.04926388 0.00854809 0.01400000
v -0.04926388 0.00854809 0.03098031
v -0.04918888 0.00853508 0.03136255
v -0.04907590 0.00789638 0.03170444
v -0.04897530 0.00849802 0.03168660
v -0.04875559 0.00784484 0.03192118
v -0.04865565 0.00844256 0.03190312
v -0.04837777 0.00778405 0.03199729
v -0.04827860 0.00837713 0.03197915
v -0.03258095 0.00524232 0.03199729
v -0.03251416 0.00564174 0.03197915
v -0.03220312 0.00518153 0.03192118
v -0.03213711 0.00557632 0.03190312
v -0.03188282 0.00512999 0.03170444
v -0.03181747 0.00552085 0.03168660
v -0.03166880 0.00509555 0.03138007
v -0.03160388 0.00548379 0.03136255
v -0.03159365 0.00508346 0.01400000
v -0.03159365 0.00508346 0.03099744
v -0.03152888 0.00547078 0.01400000
v -0.03152888 0.00547078 0.03098031
f 13 12 11
f 11 12 10
f 20 18 17
f 12 13 14
f 11 10 9
f 9 10 8
f 8 7 9
f 3 5 2
f 19 20 17
f 24 19 22
f 20 19 24
f 15 14 13
f 17 18 15
f 5 3 6
f 6 3 7
f 6 7 8
f 16 15 18
f 14 15 16
f 21 4 23
f 1 4 21
f 5 4 1
f 1 2 5
f 24 21 23
f 24 22 21
f 1 21 15
f 15 2 1
f 15 13 11
f 21 22 15
f 15 3 2
f 15 19 17
f 11 9 15
f 15 9 7
f 7 3 15
f 22 19 15
f 23 4 16
f 16 10 12
f 4 5 16
f 12 14 16
f 8 10 16
f 16 24 23
f 18 20 16
f 16 6 8
f 20 24 16
f 5 6 16

