# https://github.com/mikedh/trimesh
v -0.04288643 -0.02570514 0.01400000
v -0.04288643 -0.02570514 0.01498464
v -0.04282114 -0.02566600 0.01500681
v -0.04263521 -0.02555456 0.01502560
v -0.04256776 -0.02622948 0.01400000
v -0.04256776 -0.02622948 0.01468867
v -0.04250295 -0.02618955 0.01470418
v -0.04235694 -0.02538777 0.01503815
v -0.04231840 -0.02607584 0.01471732
v -0.04204220 -0.02590565 0.01472610
v -0.04202870 -0.02519103 0.01504256
v -0.04171640 -0.02570489 0.01472918
v -0.02830504 -0.01696539 0.01504256
v -0.02809472 -0.01731146 0.01472918
v -0.02797681 -0.01676865 0.01503815
v -0.02776892 -0.01711071 0.01472610
v -0.02769854 -0.01660187 0.01502560
v -0.02751261 -0.01649042 0.01500681
v -0.02749272 -0.01694052 0.01471732
v -0.02744732 -0.01645129 0.01400000
v -0.02744732 -0.01645129 0.01498464
v -0.02730817 -0.01682680 0.01470418
v -0.02724337 -0.01678687 0.01400000
v -0.02724337 -0.01678687 0.01468867
f 11 12 13
f 10 12 11
f 17 19 22
f 14 13 12
f 7 4 3
f 3 6 7
f 2 6 3
f 8 10 11
f 17 22 18
f 21 18 24
f 24 18 22
f 13 14 15
f 15 19 17
f 10 8 9
f 9 8 4
f 9 4 7
f 19 15 16
f 16 15 14
f 23 5 20
f 20 5 1
f 1 5 6
f 6 2 1
f 23 20 24
f 20 21 24
f 15 20 1
f 1 2 15
f 11 13 15
f 15 21 20
f 15 8 11
f 17 18 15
f 2 3 15
f 15 3 4
f 4 8 15
f 15 18 21
f 16 5 23
f 12 10 16
f 16 6 5
f 16 14 12
f 23 24 16
f 7 6 16
f 16 22 19
f 16 9 7
f 16 24 22
f 10 9 16

