# https://github.com/mikedh/trimesh
v -0.04571049 0.02026207 0.01400000
v -0.04571049 0.02026207 0.02091684
v -0.04564090 0.02023122 0.02107255
v -0.04545840 0.02082148 0.01400000
v -0.04545840 0.02082148 0.02014499
v -0.04544272 0.02014337 0.02120455
v -0.04538919 0.02078978 0.02028332
v -0.04519211 0.02069951 0.02040059
v -0.04514613 0.02001190 0.02129274
v -0.04489715 0.02056441 0.02047895
v -0.04479628 0.01985682 0.02132372
v -0.04454923 0.02040505 0.02050646
v -0.03016892 0.01337296 0.02132372
v -0.03000254 0.01374218 0.02050646
v -0.02981907 0.01321788 0.02129274
v -0.02965462 0.01358281 0.02047895
v -0.02952248 0.01308641 0.02120455
v -0.02935966 0.01344772 0.02040059
v -0.02932430 0.01299857 0.02107255
v -0.02925471 0.01296772 0.01400000
v -0.02925471 0.01296772 0.02091684
v -0.02916258 0.01335744 0.02028332
v -0.02909338 0.01332575 0.01400000
v -0.02909338 0.01332575 0.02014499
f 13 12 11
f 11 12 10
f 22 18 17
f 12 13 14
f 11 10 9
f 9 10 8
f 8 6 9
f 3 5 2
f 19 22 17
f 24 19 21
f 22 19 24
f 15 14 13
f 17 18 15
f 5 3 7
f 7 3 6
f 7 6 8
f 16 15 18
f 14 15 16
f 20 4 23
f 1 4 20
f 5 4 1
f 1 2 5
f 24 20 23
f 24 21 20
f 1 20 15
f 15 2 1
f 15 13 11
f 20 21 15
f 15 3 2
f 15 19 17
f 11 9 15
f 15 9 6
f 6 3 15
f 21 19 15
f 23 4 16
f 16 10 12
f 4 5 16
f 12 14 16
f 8 10 16
f 16 24 23
f 18 22 16
f 16 7 8
f 22 24 16
f 5 7 16

