# https://github.com/mikedh/trimesh
v -0.02193081 0.04493372 0.01400000
v -0.02193081 0.04493372 0.01867853
v -0.02189742 0.04486532 0.01878385
v -0.02180234 0.04467051 0.01887313
v -0.02166005 0.04437896 0.01893279
v -0.02149220 0.04403505 0.01895374
v -0.02137775 0.04519946 0.01400000
v -0.02137775 0.04519946 0.01939648
v -0.02134521 0.04513065 0.01951796
v -0.02125253 0.04493469 0.01962094
v -0.02111382 0.04464142 0.01968976
v -0.02095020 0.04429548 0.01971392
v -0.01447434 0.02965626 0.01895374
v -0.01430648 0.02931235 0.01893279
v -0.01416419 0.02902080 0.01887313
v -0.01410932 0.02983165 0.01971392
v -0.01406911 0.02882599 0.01878385
v -0.01403572 0.02875758 0.01400000
v -0.01403572 0.02875758 0.01867853
v -0.01394570 0.02948570 0.01968976
v -0.01380699 0.02919243 0.01962094
v -0.01371431 0.02899647 0.01951796
v -0.01368176 0.02892766 0.01400000
v -0.01368176 0.02892766 0.01939648
f 9 3 10
f 2 9 8
f 3 9 2
f 11 5 12
f 10 3 4
f 4 11 10
f 5 11 4
f 22 19 24
f 6 16 12
f 12 5 6
f 15 21 20
f 19 22 17
f 17 22 21
f 17 21 15
f 16 6 13
f 13 20 16
f 15 20 14
f 20 13 14
f 18 7 23
f 1 7 18
f 2 8 7
f 2 7 1
f 19 18 23
f 23 24 19
f 8 9 20
f 23 7 20
f 7 8 20
f 20 24 23
f 20 11 12
f 12 16 20
f 20 9 10
f 10 11 20
f 21 22 20
f 20 22 24
f 1 18 14
f 14 4 3
f 14 2 1
f 3 2 14
f 14 17 15
f 18 19 14
f 5 4 14
f 14 6 5
f 19 17 14
f 14 13 6

