# https://github.com/mikedh/trimesh
v 0.00352711 0.03180502 0.01400000
v 0.00352711 0.03180502 0.03100000
v 0.00353550 0.03188068 0.03138268
v 0.00355939 0.03209613 0.03170711
v 0.00359515 0.03241858 0.03192388
v 0.00363733 0.03279893 0.03200000
v 0.00391714 0.03175935 0.01400000
v 0.00391714 0.03175935 0.03100000
v 0.00392646 0.03183489 0.03138268
v 0.00395299 0.03205004 0.03170711
v 0.00399271 0.03237202 0.03192388
v 0.00403955 0.03275182 0.03200000
v 0.00540089 0.04870144 0.03200000
v 0.00544307 0.04908179 0.03192388
v 0.00547883 0.04940424 0.03170711
v 0.00550272 0.04961969 0.03138268
v 0.00551111 0.04969535 0.01400000
v 0.00551111 0.04969535 0.03100000
v 0.00599812 0.04863150 0.03200000
v 0.00604497 0.04901130 0.03192388
v 0.00608468 0.04933329 0.03170711
v 0.00611122 0.04954843 0.03138268
v 0.00612053 0.04962398 0.01400000
v 0.00612053 0.04962398 0.03100000
f 1 17 7
f 7 17 23
f 7 2 1
f 8 2 7
f 21 22 16
f 15 21 16
f 17 18 24
f 23 17 24
f 18 16 24
f 24 16 22
f 14 18 17
f 14 17 1
f 1 2 14
f 14 5 6
f 6 13 14
f 15 16 14
f 2 3 14
f 14 3 4
f 4 5 14
f 14 16 18
f 14 20 21
f 14 21 15
f 19 14 13
f 20 14 19
f 12 13 6
f 12 19 13
f 6 5 11
f 11 12 6
f 10 5 4
f 10 11 5
f 9 7 23
f 8 7 9
f 23 24 9
f 9 22 21
f 21 20 9
f 9 24 22
f 20 19 9
f 19 12 9
f 12 11 9
f 11 10 9
f 9 2 8
f 9 3 2
f 4 3 9
f 9 10 4

