# https://github.com/mikedh/trimesh
v -0.00245338 -0.04993977 0.01400000
v -0.00245338 -0.04993977 0.03100000
v -0.00244965 -0.04986374 0.03138268
v -0.00243901 -0.04964723 0.03170711
v -0.00242309 -0.04932320 0.03192388
v -0.00240432 -0.04894098 0.03200000
v -0.00184036 -0.04996612 0.01400000
v -0.00184036 -0.04996612 0.03100000
v -0.00183756 -0.04989005 0.03138268
v -0.00182958 -0.04967342 0.03170711
v -0.00181764 -0.04934922 0.03192388
v -0.00180355 -0.04896680 0.03200000
v -0.00161923 -0.03296025 0.03200000
v -0.00160046 -0.03257803 0.03192388
v -0.00158454 -0.03225400 0.03170711
v -0.00157390 -0.03203748 0.03138268
v -0.00157017 -0.03196145 0.01400000
v -0.00157017 -0.03196145 0.03100000
v -0.00121464 -0.03297764 0.03200000
v -0.00120055 -0.03259521 0.03192388
v -0.00118861 -0.03227101 0.03170711
v -0.00118063 -0.03205439 0.03138268
v -0.00117783 -0.03197832 0.01400000
v -0.00117783 -0.03197832 0.03100000
f 23 7 17
f 17 7 1
f 1 7 8
f 8 2 1
f 6 5 11
f 11 12 6
f 11 5 4
f 4 10 11
f 2 8 9
f 9 3 2
f 4 3 9
f 9 10 4
f 23 17 24
f 17 18 24
f 12 19 13
f 6 12 13
f 20 7 23
f 20 9 8
f 20 8 7
f 20 19 12
f 12 11 20
f 20 22 21
f 20 11 10
f 10 9 20
f 23 24 20
f 24 22 20
f 20 13 19
f 20 14 13
f 15 20 21
f 14 20 15
f 16 17 1
f 1 2 16
f 2 3 16
f 16 5 6
f 4 5 16
f 16 3 4
f 16 18 17
f 6 13 16
f 13 14 16
f 14 15 16
f 16 24 18
f 16 22 24
f 21 22 16
f 16 15 21

