# https://github.com/mikedh/trimesh
v -0.01274328 -0.04834882 0.01400000
v -0.01274328 -0.04834882 0.02965831
v -0.01272388 -0.04827522 0.03001079
v -0.01266863 -0.04806560 0.03030961
v -0.01258595 -0.04775189 0.03050928
v -0.01248842 -0.04738185 0.03057939
v -0.01214901 -0.04850156 0.01400000
v -0.01214901 -0.04850156 0.03001536
v -0.01213051 -0.04842772 0.03037588
v -0.01207784 -0.04821745 0.03068151
v -0.01199901 -0.04790275 0.03088573
v -0.01190603 -0.04753153 0.03095744
v -0.00841057 -0.03191022 0.03057939
v -0.00831303 -0.03154018 0.03050928
v -0.00823035 -0.03122647 0.03030961
v -0.00817510 -0.03101685 0.03001079
v -0.00815570 -0.03094325 0.01400000
v -0.00815570 -0.03094325 0.02965831
v -0.00801835 -0.03201103 0.03095744
v -0.00792536 -0.03163982 0.03088573
v -0.00784653 -0.03132512 0.03068151
v -0.00779386 -0.03111484 0.03037588
v -0.00777537 -0.03104100 0.01400000
v -0.00777537 -0.03104100 0.03001536
f 10 3 9
f 8 9 2
f 2 9 3
f 20 21 15
f 12 5 11
f 4 3 10
f 10 11 4
f 4 11 5
f 12 19 6
f 6 5 12
f 24 18 22
f 13 6 19
f 19 20 13
f 16 22 18
f 21 22 16
f 15 21 16
f 14 20 15
f 14 13 20
f 23 7 17
f 17 7 1
f 7 8 2
f 1 7 2
f 23 17 18
f 18 24 23
f 21 20 22
f 22 7 23
f 22 8 7
f 23 24 22
f 22 19 12
f 22 9 8
f 12 11 22
f 10 9 22
f 22 20 19
f 22 11 10
f 14 17 1
f 3 4 14
f 1 2 14
f 14 2 3
f 15 16 14
f 14 18 17
f 14 4 5
f 5 6 14
f 6 13 14
f 14 16 18

