# https://github.com/mikedh/trimesh
v 0.01188215 -0.02971219 0.01400000
v 0.01188215 -0.02971219 0.02329555
v 0.01191042 -0.02978287 0.02350480
v 0.01199091 -0.02998415 0.02368219
v 0.01211137 -0.03028538 0.02380072
v 0.01224587 -0.02956415 0.01400000
v 0.01224587 -0.02956415 0.02250000
v 0.01225347 -0.03064070 0.02384234
v 0.01227500 -0.02963447 0.02269134
v 0.01235796 -0.02983474 0.02285355
v 0.01248211 -0.03013447 0.02296194
v 0.01262855 -0.03048802 0.02300000
v 0.01819454 -0.04549680 0.02384234
v 0.01833664 -0.04585212 0.02380072
v 0.01845710 -0.04615335 0.02368219
v 0.01853759 -0.04635463 0.02350480
v 0.01856586 -0.04642530 0.01400000
v 0.01856586 -0.04642530 0.02329555
v 0.01875149 -0.04527010 0.02300000
v 0.01889793 -0.04562365 0.02296194
v 0.01902209 -0.04592338 0.02285355
v 0.01910504 -0.04612365 0.02269134
v 0.01913417 -0.04619398 0.01400000
v 0.01913417 -0.04619398 0.02250000
f 22 21 15
f 15 21 14
f 8 13 19
f 7 2 3
f 16 22 15
f 24 16 18
f 22 16 24
f 8 19 12
f 12 5 8
f 13 14 20
f 20 19 13
f 20 14 21
f 4 5 10
f 5 12 11
f 11 10 5
f 9 3 4
f 4 10 9
f 7 3 9
f 6 17 1
f 23 17 6
f 1 2 6
f 6 2 7
f 17 18 16
f 1 17 16
f 16 2 1
f 8 5 16
f 16 13 8
f 16 3 2
f 15 14 16
f 16 14 13
f 4 3 16
f 16 5 4
f 24 18 17
f 24 17 23
f 23 6 9
f 9 6 7
f 9 24 23
f 21 22 9
f 9 20 21
f 22 24 9
f 9 12 19
f 19 20 9
f 9 11 12
f 10 11 9

