# https://github.com/mikedh/trimesh
v 0.03199759 -0.00039269 0.01400000
v 0.03199759 -0.00039269 0.03100000
v 0.03200000 0.00000000 0.01400000
v 0.03200000 0.00000000 0.03100000
v 0.03207371 -0.00039362 0.03138268
v 0.03207612 0.00000000 0.03138268
v 0.03229046 -0.00039628 0.03170711
v 0.03229289 0.00000000 0.03170711
v 0.03261486 -0.00040026 0.03192388
v 0.03261732 0.00000000 0.03192388
v 0.03299752 -0.00040496 0.03200000
v 0.03300000 0.00000000 0.03200000
v 0.04899631 -0.00060131 0.03200000
v 0.04900000 0.00000000 0.03200000
v 0.04937897 -0.00060600 0.03192388
v 0.04938268 0.00000000 0.03192388
v 0.04970336 -0.00060998 0.03170711
v 0.04970711 0.00000000 0.03170711
v 0.04992012 -0.00061264 0.03138268
v 0.04992388 0.00000000 0.03138268
v 0.04999624 -0.00061358 0.01400000
v 0.04999624 -0.00061358 0.03100000
v 0.05000000 0.00000000 0.01400000
v 0.05000000 0.00000000 0.03100000
f 3 21 1
f 23 21 3
f 1 2 3
f 3 2 4
f 21 22 19
f 1 21 19
f 19 2 1
f 11 9 19
f 19 13 11
f 19 5 2
f 17 15 19
f 19 15 13
f 7 5 19
f 19 9 7
f 19 20 18
f 19 18 17
f 24 22 21
f 24 21 23
f 24 19 22
f 20 19 24
f 11 13 12
f 13 14 12
f 16 15 17
f 17 18 16
f 13 15 16
f 16 14 13
f 10 9 11
f 11 12 10
f 7 9 8
f 9 10 8
f 23 3 6
f 6 3 4
f 6 24 23
f 18 20 6
f 6 16 18
f 20 24 6
f 6 12 14
f 14 16 6
f 6 10 12
f 6 8 10
f 4 2 6
f 2 5 6
f 6 5 7
f 7 8 6

