# https://github.com/mikedh/trimesh
v 0.01810342 -0.02638686 0.01400000
v 0.01810342 -0.02638686 0.01406389
v 0.01814648 -0.02644963 0.01406533
v 0.01826912 -0.02662837 0.01406655
v 0.01842586 -0.02616271 0.01400000
v 0.01842586 -0.02616271 0.01401969
v 0.01845265 -0.02689589 0.01406736
v 0.01846969 -0.02622495 0.01402013
v 0.01859451 -0.02640218 0.01402051
v 0.01866915 -0.02721145 0.01406765
v 0.01878132 -0.02666742 0.01402076
v 0.01900167 -0.02698030 0.01402085
v 0.02772086 -0.04040488 0.01406765
v 0.02793735 -0.04072043 0.01406736
v 0.02812089 -0.04098795 0.01406655
v 0.02821460 -0.04006166 0.01402085
v 0.02824353 -0.04116670 0.01406533
v 0.02828659 -0.04122947 0.01400000
v 0.02828659 -0.04122947 0.01406389
v 0.02843495 -0.04037453 0.01402076
v 0.02862176 -0.04063978 0.01402051
v 0.02874658 -0.04081701 0.01402013
v 0.02879041 -0.04087924 0.01400000
v 0.02879041 -0.04087924 0.01401969
f 13 21 10
f 6 2 3
f 7 16 12
f 4 7 9
f 21 13 14
f 19 24 17
f 17 24 15
f 10 21 20
f 20 7 10
f 16 7 20
f 4 9 8
f 8 3 4
f 6 3 8
f 11 7 12
f 11 9 7
f 21 14 22
f 22 14 15
f 15 24 22
f 5 18 1
f 23 18 5
f 2 5 1
f 6 5 2
f 24 18 23
f 24 19 18
f 17 2 1
f 1 18 17
f 17 3 2
f 18 19 17
f 15 14 17
f 17 13 10
f 10 7 17
f 4 3 17
f 17 7 4
f 17 14 13
f 23 5 22
f 22 5 6
f 22 20 21
f 22 24 23
f 22 11 12
f 12 16 22
f 6 8 22
f 16 20 22
f 22 8 9
f 9 11 22

