# https://github.com/mikedh/trimesh
v -0.00551111 -0.04969535 0.01400000
v -0.00551111 -0.04969535 0.03100000
v -0.00550272 -0.04961969 0.03138268
v -0.00547883 -0.04940424 0.03170711
v -0.00544307 -0.04908179 0.03192388
v -0.00540089 -0.04870144 0.03200000
v -0.00490086 -0.04975924 0.01400000
v -0.00490086 -0.04975924 0.03100000
v -0.00489340 -0.04968348 0.03138268
v -0.00487215 -0.04946775 0.03170711
v -0.00484035 -0.04914489 0.03192388
v -0.00480284 -0.04876405 0.03200000
v -0.00363733 -0.03279893 0.03200000
v -0.00359515 -0.03241858 0.03192388
v -0.00355939 -0.03209613 0.03170711
v -0.00353550 -0.03188068 0.03138268
v -0.00352711 -0.03180502 0.01400000
v -0.00352711 -0.03180502 0.03100000
v -0.00323457 -0.03284110 0.03200000
v -0.00319706 -0.03246026 0.03192388
v -0.00316526 -0.03213739 0.03170711
v -0.00314401 -0.03192167 0.03138268
v -0.00313655 -0.03184591 0.01400000
v -0.00313655 -0.03184591 0.03100000
f 23 7 17
f 17 7 1
f 1 7 2
f 7 8 2
f 23 17 18
f 18 24 23
f 5 11 12
f 5 12 6
f 9 2 8
f 9 3 2
f 21 22 16
f 16 15 21
f 16 22 24
f 24 18 16
f 19 13 6
f 6 12 19
f 10 5 4
f 11 5 10
f 4 3 10
f 3 9 10
f 20 7 23
f 20 8 7
f 23 24 20
f 20 9 8
f 20 22 21
f 12 11 20
f 24 22 20
f 11 10 20
f 20 19 12
f 20 10 9
f 14 17 1
f 6 13 14
f 1 2 14
f 14 18 17
f 2 3 14
f 14 3 4
f 14 5 6
f 15 16 14
f 4 5 14
f 14 16 18
f 21 15 14
f 14 20 21
f 13 19 14
f 19 20 14

