# https://github.com/mikedh/trimesh
v -0.04945883 0.00733652 0.01400000
v -0.04945883 0.00733652 0.03100000
v -0.04938353 0.00732535 0.03138268
v -0.04936507 0.00794291 0.01400000
v -0.04936507 0.00794291 0.03099744
v -0.04928992 0.00793081 0.03138007
v -0.04916910 0.00729355 0.03170711
v -0.04907590 0.00789638 0.03170444
v -0.04884819 0.00724594 0.03192388
v -0.04875559 0.00784484 0.03192118
v -0.04846965 0.00718979 0.03200000
v -0.04837777 0.00778405 0.03199729
v -0.03264282 0.00484211 0.03200000
v -0.03258095 0.00524232 0.03199729
v -0.03226428 0.00478595 0.03192388
v -0.03220312 0.00518153 0.03192118
v -0.03194337 0.00473835 0.03170711
v -0.03188282 0.00512999 0.03170444
v -0.03172894 0.00470654 0.03138268
v -0.03166880 0.00509555 0.03138007
v -0.03165365 0.00469538 0.01400000
v -0.03165365 0.00469538 0.03100000
v -0.03159365 0.00508346 0.01400000
v -0.03159365 0.00508346 0.03099744
f 13 12 11
f 11 12 10
f 20 18 17
f 12 13 14
f 11 10 9
f 9 10 8
f 8 7 9
f 3 5 2
f 19 20 17
f 24 19 22
f 20 19 24
f 15 14 13
f 17 18 15
f 5 3 6
f 6 3 7
f 6 7 8
f 16 15 18
f 14 15 16
f 21 4 23
f 1 4 21
f 5 4 1
f 1 2 5
f 24 21 23
f 24 22 21
f 1 21 15
f 15 2 1
f 15 13 11
f 21 22 15
f 15 3 2
f 15 19 17
f 11 9 15
f 15 9 7
f 7 3 15
f 22 19 15
f 23 4 16
f 16 10 12
f 4 5 16
f 12 14 16
f 8 10 16
f 16 24 23
f 18 20 16
f 16 6 8
f 20 24 16
f 5 6 16

