# https://github.com/mikedh/trimesh
v 0.02925471 -0.01296772 0.01400000
v 0.02925471 -0.01296772 0.02091684
v 0.02932430 -0.01299857 0.02107255
v 0.02941164 -0.01260775 0.01400000
v 0.02941164 -0.01260775 0.02170445
v 0.02948161 -0.01263774 0.02187789
v 0.02952248 -0.01308641 0.02120455
v 0.02968085 -0.01272314 0.02202492
v 0.02981907 -0.01321788 0.02129274
v 0.02997903 -0.01285096 0.02212316
v 0.03016892 -0.01337296 0.02132372
v 0.03033076 -0.01300174 0.02215766
v 0.04479628 -0.01985682 0.02132372
v 0.04503658 -0.01930561 0.02215766
v 0.04514613 -0.02001190 0.02129274
v 0.04538831 -0.01945638 0.02212316
v 0.04544272 -0.02014337 0.02120455
v 0.04564090 -0.02023122 0.02107255
v 0.04568649 -0.01958420 0.02202492
v 0.04571049 -0.02026207 0.01400000
v 0.04571049 -0.02026207 0.02091684
v 0.04588573 -0.01966961 0.02187789
v 0.04595569 -0.01969960 0.01400000
v 0.04595569 -0.01969960 0.02170445
f 19 17 18
f 16 17 19
f 13 14 12
f 12 11 13
f 19 18 22
f 24 22 21
f 21 22 18
f 15 16 14
f 14 13 15
f 17 16 15
f 5 2 6
f 10 11 12
f 8 7 10
f 8 6 3
f 3 7 8
f 3 6 2
f 11 10 9
f 9 10 7
f 23 20 4
f 4 20 1
f 2 4 1
f 2 5 4
f 21 20 23
f 23 24 21
f 23 4 10
f 10 24 23
f 10 16 19
f 5 6 10
f 4 5 10
f 12 14 10
f 14 16 10
f 19 22 10
f 10 22 24
f 10 6 8
f 1 20 9
f 9 2 1
f 9 13 11
f 17 15 9
f 9 18 17
f 20 21 9
f 9 21 18
f 9 15 13
f 9 3 2
f 7 3 9

