# https://github.com/mikedh/trimesh
v -0.00975452 0.04903926 0.01400000
v -0.00975452 0.04903926 0.03085448
v -0.00973967 0.04896461 0.03123389
v -0.00969738 0.04875200 0.03155553
v -0.00963408 0.04843381 0.03177045
v -0.00955943 0.04805848 0.03184592
v -0.00915199 0.04915527 0.01400000
v -0.00915199 0.04915527 0.03093611
v -0.00913806 0.04908044 0.03131735
v -0.00909838 0.04886733 0.03164056
v -0.00903900 0.04854839 0.03185651
v -0.00896895 0.04817217 0.03193235
v -0.00643798 0.03236591 0.03184592
v -0.00636332 0.03199058 0.03177045
v -0.00630003 0.03167239 0.03155553
v -0.00625774 0.03145979 0.03123389
v -0.00624289 0.03138513 0.01400000
v -0.00624289 0.03138513 0.03085448
v -0.00604032 0.03244248 0.03193235
v -0.00597027 0.03206626 0.03185651
v -0.00591089 0.03174732 0.03164056
v -0.00587121 0.03153421 0.03131735
v -0.00585728 0.03145938 0.01400000
v -0.00585728 0.03145938 0.03093611
f 5 6 12
f 12 6 19
f 8 2 9
f 11 5 12
f 4 5 11
f 11 10 4
f 13 19 6
f 3 9 2
f 10 9 3
f 4 10 3
f 22 18 24
f 19 13 20
f 15 21 20
f 18 22 16
f 16 22 21
f 16 21 15
f 15 20 14
f 14 20 13
f 17 7 23
f 1 7 17
f 2 8 7
f 2 7 1
f 18 17 23
f 23 24 18
f 7 8 20
f 23 7 20
f 8 9 20
f 20 24 23
f 12 19 20
f 20 11 12
f 21 22 20
f 20 9 10
f 10 11 20
f 20 22 24
f 1 17 14
f 14 5 4
f 4 3 14
f 14 2 1
f 14 16 15
f 6 5 14
f 17 18 14
f 14 13 6
f 14 3 2
f 18 16 14

