# https://github.com/mikedh/trimesh
v 0.00701124 -0.03122247 0.01400000
v 0.00701124 -0.03122247 0.03054760
v 0.00702792 -0.03129674 0.03092010
v 0.00707541 -0.03150824 0.03123589
v 0.00714649 -0.03182479 0.03144689
v 0.00723034 -0.03219817 0.03152099
v 0.00739386 -0.03113408 0.01400000
v 0.00739386 -0.03113408 0.03031133
v 0.00741145 -0.03120814 0.03067851
v 0.00746153 -0.03141905 0.03098979
v 0.00753650 -0.03173469 0.03119778
v 0.00762492 -0.03210702 0.03127082
v 0.01073596 -0.04780940 0.03152099
v 0.01081981 -0.04818279 0.03144689
v 0.01089089 -0.04849933 0.03123589
v 0.01093838 -0.04871084 0.03092010
v 0.01095506 -0.04878511 0.01400000
v 0.01095506 -0.04878511 0.03054760
v 0.01132185 -0.04767406 0.03127082
v 0.01141027 -0.04804639 0.03119778
v 0.01148523 -0.04836203 0.03098979
v 0.01153532 -0.04857294 0.03067851
v 0.01155291 -0.04864700 0.01400000
v 0.01155291 -0.04864700 0.03031133
f 22 21 15
f 15 21 14
f 6 13 19
f 8 2 3
f 16 22 15
f 24 16 18
f 22 16 24
f 6 19 12
f 12 5 6
f 13 14 20
f 20 19 13
f 20 14 21
f 5 12 11
f 4 5 10
f 5 11 10
f 9 3 4
f 4 10 9
f 8 3 9
f 7 17 1
f 23 17 7
f 1 2 7
f 7 2 8
f 17 18 16
f 1 17 16
f 16 2 1
f 6 5 16
f 16 13 6
f 16 3 2
f 15 14 16
f 16 14 13
f 4 3 16
f 16 5 4
f 24 18 17
f 24 17 23
f 23 7 9
f 9 7 8
f 9 24 23
f 21 22 9
f 9 20 21
f 22 24 9
f 9 12 19
f 19 20 9
f 9 11 12
f 9 10 11

