# https://github.com/mikedh/trimesh
v -0.04784702 0.01451423 0.01400000
v -0.04784702 0.01451423 0.02822764
v -0.04777417 0.01449214 0.02854792
v -0.04766530 0.01510030 0.01400000
v -0.04766530 0.01510030 0.02763932
v -0.04759274 0.01507731 0.02794635
v -0.04756674 0.01442921 0.02881943
v -0.04738609 0.01501184 0.02820664
v -0.04725628 0.01433504 0.02900085
v -0.04707681 0.01491386 0.02838056
v -0.04689008 0.01422395 0.02906456
v -0.04671200 0.01479829 0.02844163
v -0.03157903 0.00957939 0.02906456
v -0.03145910 0.00996620 0.02844163
v -0.03121283 0.00946831 0.02900085
v -0.03109428 0.00985062 0.02838056
v -0.03090237 0.00937413 0.02881943
v -0.03078501 0.00975265 0.02820664
v -0.03069493 0.00931121 0.02854792
v -0.03062209 0.00928911 0.01400000
v -0.03062209 0.00928911 0.02822764
v -0.03057836 0.00968718 0.02794635
v -0.03050579 0.00966419 0.01400000
v -0.03050579 0.00966419 0.02763932
f 8 7 9
f 3 5 2
f 14 12 13
f 13 12 11
f 8 9 10
f 10 9 11
f 11 12 10
f 5 3 6
f 6 3 7
f 6 7 8
f 19 21 24
f 22 19 24
f 17 19 22
f 22 18 17
f 18 16 15
f 17 18 15
f 15 16 14
f 14 13 15
f 20 4 23
f 1 4 20
f 5 4 1
f 1 2 5
f 21 20 23
f 23 24 21
f 23 4 22
f 22 24 23
f 4 5 22
f 22 12 14
f 8 10 22
f 22 6 8
f 14 16 22
f 22 10 12
f 5 6 22
f 22 16 18
f 1 20 15
f 15 2 1
f 20 21 15
f 11 9 15
f 15 3 2
f 15 9 7
f 7 3 15
f 15 13 11
f 15 19 17
f 21 19 15

