# Parametric PetalDock simulation geometry; SI units
v -0.0075223231055 0.0433522162651 0.014
v -0.0075223231055 0.0433522162651 0.0299230769231
v -0.0074795826333 0.0431058968545 0.0299230769231
v -0.0074368421611 0.0428595774439 0.0299230769231
v -0.0073941016889 0.0426132580333 0.0299230769231
v -0.0073513612167 0.0423669386227 0.0299230769231
v -0.0073086207445 0.0421206192121 0.0299230769231
v -0.0072658802723 0.0418742998015 0.0299230769231
v -0.0072231398001 0.0416279803909 0.0299230769231
v -0.0071803993279 0.0413816609803 0.0299230769231
v -0.0071376588557 0.0411353415697 0.0299230769231
v -0.0070949183836 0.0408890221591 0.0299230769231
v -0.0070521779114 0.0406427027485 0.0299230769231
v -0.0070094374392 0.0403963833379 0.0299230769231
v -0.0069897583067 0.0434412623989 0.014
v -0.0069897583067 0.0434412623989 0.0303076923077
v -0.006966696967 0.0401500639273 0.0299230769231
v -0.0069500437709 0.0431944370444 0.0303076923077
v -0.0069239564948 0.0399037445168 0.0299230769231
v -0.006910329235 0.0429476116899 0.0303076923077
v -0.0068812160226 0.0396574251062 0.0299230769231
v -0.0068706146992 0.0427007863353 0.0303076923077
v -0.0068384755504 0.0394111056956 0.0299230769231
v -0.0068309001634 0.0424539609808 0.0303076923077
v -0.0067957350782 0.039164786285 0.0299230769231
v -0.0067911856275 0.0422071356262 0.0303076923077
v -0.006752994606 0.0389184668744 0.0299230769231
v -0.0067514710917 0.0419603102717 0.0303076923077
v -0.0067117565559 0.0417134849172 0.0303076923077
v -0.0067102541338 0.0386721474638 0.0299230769231
v -0.00667204202 0.0414666595626 0.0303076923077
v -0.0066675136617 0.0384258280532 0.0299230769231
v -0.0066323274842 0.0412198342081 0.0303076923077
v -0.0066247731895 0.0381795086426 0.0299230769231
v -0.0065926129484 0.0409730088536 0.0303076923077
v -0.0065820327173 0.037933189232 0.0299230769231
v -0.0065528984125 0.040726183499 0.0303076923077
v -0.0065392922451 0.0376868698214 0.0299230769231
v -0.0065131838767 0.0404793581445 0.0303076923077
v -0.0064965517729 0.0374405504108 0.014
v -0.0064965517729 0.0374405504108 0.0299230769231
v -0.0064734693409 0.0402325327899 0.0303076923077
v -0.006433754805 0.0399857074354 0.0303076923077
v -0.0063940402692 0.0397388820809 0.0303076923077
v -0.0063543257334 0.0394920567263 0.0303076923077
v -0.0063146111975 0.0392452313718 0.0303076923077
v -0.0062748966617 0.0389984060172 0.0303076923077
v -0.0062351821259 0.0387515806627 0.0303076923077
v -0.00619546759 0.0385047553082 0.0303076923077
v -0.0061557530542 0.0382579299536 0.0303076923077
v -0.0061160385184 0.0380111045991 0.0303076923077
v -0.0060763239825 0.0377642792445 0.0303076923077
v -0.0060366094467 0.03751745389 0.014
v -0.0060366094467 0.03751745389 0.0303076923077
f 32 41 54
f 32 1 40
f 32 40 41
f 20 53 15
f 20 15 16
f 18 16 2
f 18 2 42
f 51 2 54
f 51 42 2
f 12 54 2
f 12 32 54
f 12 2 1
f 12 1 32
f 49 53 20
f 52 54 53
f 52 53 49
f 40 15 53
f 40 1 15
f 2 15 1
f 2 16 15
f 54 40 53
f 54 41 40
f 52 16 18
f 52 20 16
f 52 51 54
f 52 18 42
f 52 42 51
f 52 49 20
