# Parametric PetalDock simulation geometry; SI units
v 0.033349448892 -0.0359000593119 0.014
v 0.033349448892 -0.0359000593119 0.0166111111111
v 0.0336099036179 -0.0361804339634 0.016811771776
v 0.0337874866921 -0.0354881070646 0.014
v 0.0337874866921 -0.0354881070646 0.0166111111111
v 0.0338307064728 -0.0364181241157 0.0169121147719
v 0.0339782422236 -0.036576943598 0.0168945233466
v 0.0340300498898 -0.0366327135836 0.014
v 0.0340300498898 -0.0366327135836 0.0168333333333
v 0.0340513624345 -0.0357652644242 0.016811771776
v 0.0342750654872 -0.0360002270882 0.0169121147719
v 0.0344245390882 -0.036157224121 0.0168945233466
v 0.0344770272369 -0.0362123541476 0.014
v 0.0344770272369 -0.0362123541476 0.0168333333333
f 7 1 8
f 9 7 8
f 3 7 6
f 3 2 1
f 3 1 7
f 10 3 6
f 10 5 2
f 10 2 3
f 11 6 7
f 11 7 12
f 11 10 6
f 11 5 10
f 11 13 4
f 11 4 5
f 14 7 9
f 14 12 7
f 14 13 11
f 14 11 12
f 4 13 8
f 4 8 1
f 2 4 1
f 2 5 4
f 14 8 13
f 14 9 8
