# Parametric PetalDock simulation geometry; SI units
v 0.0314590993317 0.0099661963275 0.014
v 0.0314590993317 0.0099661963275 0.0249112060779
v 0.0315790310792 0.0095793943494 0.014
v 0.0315790310792 0.0095793943494 0.0251842355176
v 0.0316974258418 0.0100416978149 0.0249527540361
v 0.0318182661631 0.0096519655187 0.0252317188984
v 0.0319357523519 0.0101171993022 0.0249943019943
v 0.032057501247 0.009724536688 0.0252792022792
v 0.032174078862 0.0101927007895 0.0250358499525
v 0.032296736331 0.0097971078573 0.02532668566
v 0.032412405372 0.0102682022769 0.0250773979107
v 0.0325359714149 0.0098696790267 0.0253741690408
v 0.0326507318821 0.0103437037642 0.0251189458689
v 0.0327752064988 0.009942250196 0.0254216524217
v 0.0328890583922 0.0104192052515 0.0251604938272
v 0.0330144415828 0.0100148213653 0.0254691358025
v 0.0331273849023 0.0104947067388 0.0252020417854
v 0.0332536766667 0.0100873925346 0.0255166191833
v 0.0333657114124 0.0105702082262 0.0252435897436
v 0.0334929117506 0.0101599637039 0.0255641025641
v 0.0336040379225 0.0106457097135 0.0252851377018
v 0.0337321468346 0.0102325348732 0.0256115859449
v 0.0338423644326 0.0107212112008 0.02532668566
v 0.0339713819185 0.0103051060425 0.0256590693257
v 0.0340806909427 0.0107967126882 0.0253682336182
v 0.0342106170024 0.0103776772118 0.0257065527066
v 0.0343190174528 0.0108722141755 0.0254097815764
v 0.0344498520864 0.0104502483812 0.0257540360874
v 0.0345573439628 0.0109477156628 0.0254513295347
v 0.0346890871703 0.0105228195505 0.0258015194682
v 0.0347956704729 0.0110232171502 0.0254928774929
v 0.0349283222542 0.0105953907198 0.025849002849
v 0.035033996983 0.0110987186375 0.0255344254511
v 0.0351675573382 0.0106679618891 0.0258964862298
v 0.0352723234931 0.0111742201248 0.0255759734093
v 0.0354067924221 0.0107405330584 0.0259439696106
v 0.0355106500032 0.0112497216121 0.0256175213675
v 0.035646027506 0.0108131042277 0.0259914529915
v 0.0357489765133 0.0113252230995 0.0256576843938
v 0.03588526259 0.010885675397 0.0260373535929
v 0.0359873030234 0.0114007245868 0.0256836518677
v 0.0361244976739 0.0109582465664 0.0260670307059
v 0.0362256295335 0.0114762260741 0.014
v 0.0362256295335 0.0114762260741 0.0256923076923
v 0.0363637327578 0.0110308177357 0.014
v 0.0363637327578 0.0110308177357 0.0260769230769
f 11 43 1
f 40 45 46
f 40 3 45
f 31 43 11
f 42 46 44
f 42 40 46
f 39 43 31
f 39 40 42
f 37 31 40
f 37 40 39
f 37 39 31
f 41 42 44
f 41 39 42
f 5 1 2
f 5 11 1
f 5 31 11
f 5 2 40
f 5 40 31
f 38 40 2
f 14 2 4
f 14 38 2
f 10 4 3
f 10 3 40
f 26 4 10
f 26 14 4
f 26 38 14
f 26 40 38
f 26 10 40
f 44 46 45
f 44 45 43
f 3 43 45
f 3 1 43
f 2 1 3
f 2 3 4
f 41 44 43
f 41 43 39
