# Parametric PetalDock simulation geometry; SI units
v 0.0248921996745 -0.0362819293225 0.014
v 0.0248921996745 -0.0362819293225 0.0164615384615
v 0.0250336326272 -0.0364880766482 0.0164825597499
v 0.0251750655799 -0.0366942239739 0.0165456236151
v 0.0253164985326 -0.0369003712996 0.0166431623932
v 0.0253355604224 -0.0359737317787 0.014
v 0.0253355604224 -0.0359737317787 0.0160769230769
v 0.0254579314853 -0.0371065186253 0.0167440645774
v 0.0254795124702 -0.036178127982 0.0160991809117
v 0.025599364438 -0.037312665951 0.0168449667616
v 0.0256234645181 -0.0363825241852 0.016165954416
v 0.0257407973907 -0.0375188132767 0.0169458689459
v 0.0257674165659 -0.0365869203885 0.0162692307692
v 0.0258822303434 -0.0377249606024 0.0170467711301
v 0.0259113686138 -0.0367913165918 0.0163760683761
v 0.026023663296 -0.0379311079281 0.0171476733143
v 0.0260553206617 -0.0369957127951 0.0164829059829
v 0.0261650962487 -0.0381372552538 0.0172485754986
v 0.0261992727095 -0.0372001089984 0.0165897435897
v 0.0263065292014 -0.0383434025795 0.0173494776828
v 0.0263432247574 -0.0374045052017 0.0166965811966
v 0.0264479621541 -0.0385495499052 0.017450379867
v 0.0264871768052 -0.037608901405 0.0168034188034
v 0.0265893951068 -0.0387556972309 0.0175512820513
v 0.0266311288531 -0.0378132976083 0.0169102564103
v 0.0267308280595 -0.0389618445566 0.0176521842355
v 0.0267750809009 -0.0380176938115 0.0170170940171
v 0.0268722610122 -0.0391679918823 0.0177530864198
v 0.0269190329488 -0.0382220900148 0.0171239316239
v 0.0270136939649 -0.039374139208 0.017853988604
v 0.0270629849966 -0.0384264862181 0.0172307692308
v 0.0271551269176 -0.0395802865337 0.0179548907882
v 0.0272069370445 -0.0386308824214 0.0173376068376
v 0.0272965598703 -0.0397864338594 0.0180557929725
v 0.0273508890923 -0.0388352786247 0.0174444444444
v 0.027437992823 -0.0399925811851 0.0181566951567
v 0.0274948411402 -0.039039674828 0.0175512820513
v 0.0275794257757 -0.0401987285108 0.0182575973409
v 0.0276387931881 -0.0392440710313 0.0176581196581
v 0.0277208587284 -0.0404048758365 0.014
v 0.0277208587284 -0.0404048758365 0.0183584995252
v 0.0277827452359 -0.0394484672346 0.017764957265
v 0.0279266972838 -0.0396528634379 0.0178717948718
v 0.0280706493316 -0.0398572596411 0.0179786324786
v 0.0282146013795 -0.0400616558444 0.014
v 0.0282146013795 -0.0400616558444 0.0180854700855
f 46 2 41
f 46 7 2
f 16 1 40
f 16 40 41
f 16 41 2
f 16 2 1
f 17 46 45
f 17 7 46
f 11 45 6
f 11 17 45
f 11 6 7
f 11 7 17
f 6 45 40
f 6 40 1
f 2 6 1
f 2 7 6
f 46 40 45
f 46 41 40
