# Parametric PetalDock simulation geometry; SI units
v -0.0088015209967 -0.0318046101712 0.014
v -0.0088015209967 -0.0318046101712 0.025730294397
v -0.0086994544432 -0.0314357890384 0.0255902166852
v -0.0086129265972 -0.0311231175796 0.0253926297234
v -0.008555110539 -0.0309141971901 0.0251686145237
v -0.0085348082392 -0.0308408341055 0.014
v -0.0085348082392 -0.0308408341055 0.0249216524217
v -0.0084105667669 -0.0319102235445 0.014
v -0.0084105667669 -0.0319102235445 0.0260033238367
v -0.0083130339015 -0.0315401776695 0.025853044377
v -0.0082303495308 -0.0312264679246 0.0256465373567
v -0.0081751016005 -0.0310168537745 0.0254163418045
v -0.0081557011073 -0.0309432470734 0.014
v -0.0081557011073 -0.0309432470734 0.0251638176638
f 5 6 1
f 5 1 2
f 5 7 6
f 10 9 14
f 3 5 2
f 3 4 5
f 3 10 4
f 3 2 9
f 3 9 10
f 12 14 7
f 12 7 5
f 12 10 14
f 11 5 4
f 11 12 5
f 11 4 10
f 11 10 12
f 6 13 8
f 6 8 1
f 2 1 8
f 2 8 9
f 14 8 13
f 14 9 8
f 14 13 6
f 14 6 7
