# Parametric PetalDock simulation geometry; SI units
v -0.0438807800939 0.0032368407984 0.014
v -0.0438807800939 0.0032368407984 0.032
v -0.043837754936 0.0037750817432 0.014
v -0.043837754936 0.0037750817432 0.0319630177515
v -0.0436314574797 0.0032184496575 0.032
v -0.043588676783 0.0037536324151 0.0319630177515
v -0.0433821348655 0.0032000585166 0.032
v -0.04333959863 0.003732183087 0.0319630177515
v -0.0431328122514 0.0031816673757 0.032
v -0.0430905204769 0.0037107337589 0.0319630177515
v -0.0428834896372 0.0031632762348 0.032
v -0.0428414423239 0.0036892844308 0.0319630177515
v -0.042634167023 0.0031448850939 0.032
v -0.0425923641708 0.0036678351027 0.0319630177515
v -0.0423848444088 0.003126493953 0.032
v -0.0423432860178 0.0036463857746 0.0319630177515
v -0.0421355217947 0.0031081028121 0.032
v -0.0420942078647 0.0036249364466 0.0319630177515
v -0.0418861991805 0.0030897116712 0.032
v -0.0418451297117 0.0036034871185 0.0319630177515
v -0.0416368765663 0.0030713205303 0.032
v -0.0415960515586 0.0035820377904 0.0319630177515
v -0.0413875539522 0.0030529293894 0.032
v -0.0413469734056 0.0035605884623 0.0319630177515
v -0.041138231338 0.0030345382485 0.032
v -0.0410978952525 0.0035391391342 0.0319630177515
v -0.0408889087238 0.0030161471076 0.032
v -0.0408488170995 0.0035176898061 0.0319630177515
v -0.0406395861097 0.0029977559667 0.032
v -0.0405997389464 0.003496240478 0.0319630177515
v -0.0403902634955 0.0029793648258 0.032
v -0.0403506607934 0.0034747911499 0.0319630177515
v -0.0401409408813 0.0029609736849 0.032
v -0.0401015826404 0.0034533418219 0.0319630177515
v -0.0398916182671 0.002942582544 0.032
v -0.0398525044873 0.0034318924938 0.0319630177515
v -0.039642295653 0.0029241914031 0.032
v -0.0396034263343 0.0034104431657 0.0319630177515
v -0.0393929730388 0.0029058002622 0.032
v -0.0393543481812 0.0033889938376 0.0319630177515
v -0.0391436504246 0.0028874091213 0.032
v -0.0391052700282 0.0033675445095 0.0319630177515
v -0.0388943278105 0.0028690179804 0.032
v -0.0388561918751 0.0033460951814 0.0319630177515
v -0.0386450051963 0.0028506268395 0.032
v -0.0386071137221 0.0033246458533 0.0319630177515
v -0.0383956825821 0.0028322356986 0.032
v -0.038358035569 0.0033031965253 0.0319630177515
v -0.038146359968 0.0028138445577 0.032
v -0.038108957416 0.0032817471972 0.0319630177515
v -0.0378970373538 0.0027954534168 0.014
v -0.0378970373538 0.0027954534168 0.032
v -0.0378598792629 0.0032602978691 0.014
v -0.0378598792629 0.0032602978691 0.0319630177515
f 48 53 3
f 49 1 51
f 18 3 4
f 18 48 3
f 9 2 1
f 9 1 49
f 52 49 51
f 54 48 52
f 54 53 48
f 15 4 2
f 15 52 4
f 51 3 53
f 51 1 3
f 4 3 1
f 4 1 2
f 52 48 18
f 52 18 4
f 54 51 53
f 54 52 51
f 15 49 52
f 15 9 49
f 15 2 9
