# Parametric PetalDock simulation geometry; SI units
v 0.0289103131084 -0.0159120644786 0.014
v 0.0289103131084 -0.0159120644786 0.0205427350427
v 0.0291034017235 -0.0155560923153 0.014
v 0.0291034017235 -0.0155560923153 0.0208157644824
v 0.029129330632 -0.0160326104216 0.0204893162393
v 0.0293238820396 -0.0156739414995 0.0207682811016
v 0.0293483481555 -0.0161531563647 0.0204358974359
v 0.0295443623557 -0.0157917906837 0.0207207977208
v 0.0295673656791 -0.0162737023077 0.0203824786325
v 0.0297648426718 -0.0159096398679 0.02067331434
v 0.0297863832026 -0.0163942482507 0.0203290598291
v 0.0299853229878 -0.0160274890521 0.0206258309592
v 0.0300054007262 -0.0165147941937 0.0202756410256
v 0.0302058033039 -0.0161453382363 0.0205783475783
v 0.0302244182497 -0.0166353401367 0.0202222222222
v 0.03042628362 -0.0162631874205 0.0205308641975
v 0.0304434357733 -0.0167558860797 0.0201688034188
v 0.0306467639361 -0.0163810366047 0.0204833808167
v 0.0306624532968 -0.0168764320228 0.0201153846154
v 0.0308672442522 -0.0164988857889 0.0204358974359
v 0.0308814708204 -0.0169969779658 0.020061965812
v 0.0310877245683 -0.0166167349731 0.0203884140551
v 0.0311004883439 -0.0171175239088 0.0200085470085
v 0.0313082048844 -0.0167345841573 0.0203409306743
v 0.0313195058675 -0.0172380698518 0.0199551282051
v 0.0315286852005 -0.0168524333415 0.0202934472934
v 0.031538523391 -0.0173586157948 0.0199017094017
v 0.0317491655165 -0.0169702825257 0.0202459639126
v 0.0317575409146 -0.0174791617379 0.0198482905983
v 0.0319696458326 -0.0170881317099 0.0201984805318
v 0.0319765584381 -0.0175997076809 0.0197948717949
v 0.0321901261487 -0.0172059808941 0.020150997151
v 0.0321955759617 -0.0177202536239 0.0197414529915
v 0.0324106064648 -0.0173238300784 0.0201035137702
v 0.0324145934852 -0.0178407995669 0.019688034188
v 0.0326310867809 -0.0174416792626 0.0200560303894
v 0.0326336110088 -0.0179613455099 0.0196346153846
v 0.032851567097 -0.0175595284468 0.0200085470085
v 0.0328526285323 -0.018081891453 0.019582977208
v 0.0330716460559 -0.018202437396 0.0195495904558
v 0.0330720474131 -0.017677377631 0.0199626464071
v 0.0332906635794 -0.018322983339 0.014
v 0.0332906635794 -0.018322983339 0.0195384615385
v 0.0332925277292 -0.0177952268152 0.0199329692941
v 0.0335130080452 -0.0179130759994 0.014
v 0.0335130080452 -0.0179130759994 0.0199230769231
f 2 46 4
f 26 45 3
f 7 1 42
f 7 2 1
f 44 46 45
f 44 26 46
f 10 3 4
f 10 26 3
f 10 4 46
f 10 46 26
f 43 46 2
f 43 2 7
f 32 45 26
f 32 44 45
f 32 26 44
f 39 42 43
f 39 7 42
f 39 43 7
f 3 45 42
f 3 42 1
f 2 3 1
f 2 4 3
f 43 42 45
f 43 45 46
