# Parametric PetalDock simulation geometry; SI units
v 0.0147372387507 0.0284044678529 0.014
v 0.0147372387507 0.0284044678529 0.0208048433048
v 0.0147722951726 0.0284720353958 0.0209572507509
v 0.0148721274161 0.0286644514785 0.0210761999576
v 0.015021536927 0.0289524224967 0.021122145923
v 0.0150846955784 0.0282214804591 0.014
v 0.0150846955784 0.0282214804591 0.0205626780627
v 0.0151205785184 0.0282886127181 0.0207095234702
v 0.0151977774616 0.0292921074733 0.014
v 0.0151977774616 0.0292921074733 0.0210887939221
v 0.015222764486 0.028479789217 0.0208222923244
v 0.015375696594 0.028765905067 0.0208593182311
v 0.0155560923153 0.0291034017235 0.014
v 0.0155560923153 0.0291034017235 0.0208157644824
f 12 10 5
f 4 5 10
f 14 10 12
f 3 2 7
f 3 1 2
f 3 9 1
f 3 10 9
f 3 4 10
f 11 7 14
f 11 14 12
f 11 12 5
f 11 5 4
f 8 3 7
f 8 7 11
f 8 4 3
f 8 11 4
f 6 9 13
f 6 1 9
f 2 1 6
f 2 6 7
f 14 13 9
f 14 9 10
f 14 6 13
f 14 7 6
