# Parametric PetalDock simulation geometry; SI units
v -0.0235698368413 -0.0440960632174 0.014
v -0.0235698368413 -0.0440960632174 0.0205626780627
v -0.0235339539013 -0.0440289309585 0.0207095234702
v -0.0234317679337 -0.0438377544596 0.0208222923244
v -0.0232788358257 -0.0435516386096 0.0208593182311
v -0.0230984401045 -0.0432141419531 0.014
v -0.0230984401045 -0.0432141419531 0.0208157644824
v -0.0230269355479 -0.0443819810201 0.014
v -0.0230269355479 -0.0443819810201 0.0208048433048
v -0.0229918791259 -0.0443144134773 0.0209572507509
v -0.0228920468825 -0.0441219973946 0.0210761999576
v -0.0227426373716 -0.0438340263764 0.021122145923
v -0.022566396837 -0.0434943413997 0.014
v -0.022566396837 -0.0434943413997 0.0210887939221
f 14 12 13
f 10 9 8
f 10 8 13
f 10 13 12
f 5 4 12
f 5 7 4
f 5 14 7
f 5 12 14
f 11 10 12
f 11 12 4
f 2 9 10
f 2 4 7
f 3 2 10
f 3 4 2
f 3 10 11
f 3 11 4
f 6 13 8
f 6 8 1
f 14 13 6
f 14 6 7
f 2 1 8
f 2 8 9
f 2 6 1
f 2 7 6
