# Parametric PetalDock simulation geometry; SI units
v -0.0105837481966 0.0364963597378 0.014
v -0.0105837481966 0.0364963597378 0.0264615384615
v -0.0105141182743 0.0362562521079 0.0264504095442
v -0.0104444883519 0.0360161444781 0.026417022792
v -0.0103748584296 0.0357760368482 0.0263653846154
v -0.0103052285072 0.0355359292184 0.026311965812
v -0.0102355985849 0.0352958215885 0.0262585470085
v -0.0101659686626 0.0350557139587 0.0262051282051
v -0.010135084784 0.0366234905002 0.014
v -0.010135084784 0.0366234905002 0.0268461538462
v -0.0100963387402 0.0348156063288 0.0261517094017
v -0.0100684065947 0.0363825464838 0.0268337883824
v -0.0100267088179 0.034575498699 0.0260982905983
v -0.0100017284053 0.0361416024673 0.0267966919911
v -0.0099570788955 0.0343353910691 0.0260448717949
v -0.0099350502159 0.0359006584509 0.0267393162393
v -0.0098874489732 0.0340952834393 0.0259914529915
v -0.0098683720266 0.0356597144344 0.0266799620133
v -0.0098178190508 0.0338551758094 0.025938034188
v -0.0098016938372 0.035418770418 0.0266206077873
v -0.0097481891285 0.0336150681795 0.0258846153846
v -0.0097350156478 0.0351778264015 0.0265612535613
v -0.0096785592061 0.0333749605497 0.0258311965812
v -0.0096683374585 0.0349368823851 0.0265018993352
v -0.0096089292838 0.0331348529198 0.0257777777778
v -0.0096016592691 0.0346959383686 0.0264425451092
v -0.0095392993614 0.03289474529 0.0257243589744
v -0.0095349810797 0.0344549943522 0.0263831908832
v -0.0094696694391 0.0326546376601 0.0256709401709
v -0.0094683028904 0.0342140503357 0.0263238366572
v -0.009401624701 0.0339731063193 0.0262644824311
v -0.0094000395167 0.0324145300303 0.0256175213675
v -0.0093349465116 0.0337321623028 0.0262051282051
v -0.0093304095944 0.0321744224004 0.0255641025641
v -0.0092682683223 0.0334912182864 0.0261457739791
v -0.0092607796721 0.0319343147706 0.0255106837607
v -0.0092015901329 0.0332502742699 0.0260864197531
v -0.0091911497497 0.0316942071407 0.014
v -0.0091911497497 0.0316942071407 0.0254572649573
v -0.0091349119435 0.0330093302535 0.0260270655271
v -0.0090682337541 0.032768386237 0.025967711301
v -0.0090015555648 0.0325274422206 0.025908357075
v -0.0089348773754 0.0322864982041 0.025849002849
v -0.008868199186 0.0320455541877 0.025789648623
v -0.0088015209967 0.0318046101712 0.014
v -0.0088015209967 0.0318046101712 0.025730294397
f 8 1 38
f 16 14 39
f 16 10 14
f 16 9 10
f 12 4 14
f 12 10 2
f 12 14 10
f 3 12 2
f 3 4 12
f 3 2 1
f 3 1 8
f 36 38 39
f 36 8 38
f 18 16 39
f 44 45 9
f 44 9 16
f 44 46 45
f 5 4 3
f 5 3 8
f 5 14 4
f 25 39 14
f 25 36 39
f 30 39 46
f 30 18 39
f 17 14 5
f 17 25 14
f 17 5 25
f 21 5 8
f 21 25 5
f 21 8 36
f 21 36 25
f 22 16 18
f 22 18 30
f 22 44 16
f 22 46 44
f 22 30 46
f 38 9 45
f 38 1 9
f 2 9 1
f 2 10 9
f 46 38 45
f 46 39 38
