# Parametric PetalDock simulation geometry; SI units
v -0.0244513871367 -0.02216144551 0.014
v -0.0244513871367 -0.02216144551 0.0166111111111
v -0.0241775909652 -0.0224598329272 0.014
v -0.0241775909652 -0.0224598329272 0.0166111111111
v -0.0241678374168 -0.0219044510241 0.016811771776
v -0.0239274555714 -0.021686581619 0.0169121147719
v -0.0238972163138 -0.0221993782013 0.016811771776
v -0.0237668375574 -0.0215410059367 0.0168945233466
v -0.0237104360114 -0.0214898865551 0.014
v -0.0237104360114 -0.0214898865551 0.0168333333333
v -0.0236595261614 -0.0219785753464 0.0169121147719
v -0.0235007066792 -0.0218310395956 0.0168945233466
v -0.0234449366935 -0.0217792319295 0.014
v -0.0234449366935 -0.0217792319295 0.0168333333333
f 10 2 6
f 4 7 2
f 11 14 12
f 11 6 7
f 11 4 14
f 11 7 4
f 5 6 2
f 5 7 6
f 5 2 7
f 8 10 6
f 8 6 11
f 8 11 12
f 8 14 10
f 8 12 14
f 9 13 3
f 9 3 1
f 10 13 9
f 10 14 13
f 10 9 1
f 10 1 2
f 4 3 13
f 4 13 14
f 4 1 3
f 4 2 1
