# Parametric PetalDock simulation geometry; SI units
v 0.022566396837 -0.0434943413997 0.014
v 0.022566396837 -0.0434943413997 0.0210887939221
v 0.0227426373716 -0.0438340263764 0.021122145923
v 0.0228920468825 -0.0441219973946 0.0210761999576
v 0.0229918791259 -0.0443144134773 0.0209572507509
v 0.0230269355479 -0.0443819810201 0.014
v 0.0230269355479 -0.0443819810201 0.0208048433048
v 0.0230984401045 -0.0432141419531 0.014
v 0.0230984401045 -0.0432141419531 0.0208157644824
v 0.0232788358257 -0.0435516386096 0.0208593182311
v 0.0234317679337 -0.0438377544596 0.0208222923244
v 0.0235339539013 -0.0440289309585 0.0207095234702
v 0.0235698368413 -0.0440960632174 0.014
v 0.0235698368413 -0.0440960632174 0.0205626780627
f 5 1 6
f 5 3 1
f 2 1 3
f 7 5 6
f 10 3 11
f 10 11 9
f 10 9 2
f 10 2 3
f 4 3 5
f 4 11 3
f 14 5 7
f 14 9 11
f 12 5 14
f 12 14 11
f 12 4 5
f 12 11 4
f 8 13 6
f 8 6 1
f 2 8 1
f 2 9 8
f 14 6 13
f 14 7 6
f 14 13 8
f 14 8 9
