# Parametric PetalDock simulation geometry; SI units
v -0.0317196642082 -0.0386505226681 0.014
v -0.0317196642082 -0.0386505226681 0.0169264738111
v -0.0316713738948 -0.0385916807511 0.0169898030699
v -0.0315338547172 -0.0384241131483 0.0170097715539
v -0.0313280427235 -0.0381733305083 0.0169128593498
v -0.0312429744071 -0.0390368614286 0.014
v -0.0312429744071 -0.0390368614286 0.0170428994083
v -0.0311954098108 -0.0389774313458 0.0171089027241
v -0.031085270924 -0.0378775122148 0.014
v -0.031085270924 -0.0378775122148 0.0167161224341
v -0.0310599573003 -0.0388081887887 0.0171318425314
v -0.0308572382926 -0.0385548994024 0.0170392188171
v -0.030618114919 -0.0382561242 0.014
v -0.030618114919 -0.0382561242 0.0168473865878
f 11 6 13
f 7 6 11
f 12 13 14
f 12 11 13
f 8 7 11
f 8 11 3
f 2 7 8
f 2 8 3
f 5 14 10
f 5 12 14
f 5 9 1
f 5 10 9
f 5 1 2
f 4 2 3
f 4 5 2
f 4 3 11
f 4 11 12
f 4 12 5
f 9 13 6
f 9 6 1
f 14 13 9
f 14 9 10
f 2 1 6
f 2 6 7
