# Parametric PetalDock simulation geometry; SI units
v 0.0035271106334 -0.0318050230401 0.014
v 0.0035271106334 -0.0318050230401 0.0279571005917
v 0.0035355007994 -0.0318806797033 0.0282737807082
v 0.0035593939705 -0.0320961316517 0.0285752642497
v 0.0035951526281 -0.0324185782793 0.0288846607154
v 0.0036373328407 -0.0327989300101 0.014
v 0.0036373328407 -0.0327989300101 0.0291526134122
v 0.0039171416064 -0.0317593451072 0.014
v 0.0039171416064 -0.0317593451072 0.0277941047556
v 0.0039264595642 -0.0318348931133 0.0281070411923
v 0.0039529948631 -0.0320500356327 0.0284043648812
v 0.0039927077442 -0.0323720191669 0.0287077574613
v 0.0040395522816 -0.0327518246418 0.014
v 0.0040395522816 -0.0327518246418 0.028968843597
f 4 2 7
f 3 9 2
f 3 2 4
f 5 4 7
f 11 13 8
f 11 8 9
f 11 14 13
f 11 4 5
f 10 9 3
f 10 11 9
f 10 3 4
f 10 4 11
f 12 14 11
f 12 11 5
f 12 7 14
f 12 5 7
f 8 13 6
f 8 6 1
f 2 1 6
f 2 6 7
f 2 8 1
f 2 9 8
f 14 6 13
f 14 7 6
