# Parametric PetalDock simulation geometry; SI units
v -0.0080183459368 0.0320110313554 0.014
v -0.0080183459368 0.0320110313554 0.0262763532764
v -0.0079253614476 0.0316398164659 0.0261158720689
v -0.0078465330039 0.0313251156783 0.0259004449899
v -0.0077938615218 0.0311148393347 0.0256640690852
v -0.0077753657569 0.0310410001022 0.014
v -0.0077753657569 0.0310410001022 0.025405982906
v -0.0076249175733 0.0321070184228 0.014
v -0.0076249175733 0.0321070184228 0.026549382716
v -0.0075364954633 0.0317346904224 0.0263786997608
v -0.007461534818 0.0314190459849 0.0261543526232
v -0.0074114477162 0.0312081391146 0.025911796366
v -0.007393859465 0.0311340784706 0.014
v -0.007393859465 0.0311340784706 0.0256481481481
f 3 9 2
f 3 2 1
f 3 1 6
f 10 8 9
f 10 9 3
f 10 3 4
f 12 7 14
f 12 14 13
f 5 7 12
f 5 4 3
f 5 6 7
f 5 3 6
f 11 10 4
f 11 4 5
f 11 5 12
f 11 12 13
f 11 13 8
f 11 8 10
f 6 8 13
f 6 1 8
f 2 8 1
f 2 9 8
f 14 6 13
f 14 7 6
