# Parametric PetalDock simulation geometry; SI units
v -0.0162656403436 0.0287128707066 0.014
v -0.0162656403436 0.0287128707066 0.020269705603
v -0.0160770163716 0.0283799028304 0.0203336628474
v -0.0159171086894 0.028097626295 0.0203144770578
v -0.0159120644786 0.0289103131084 0.014
v -0.0159120644786 0.0289103131084 0.0205427350427
v -0.0158102617922 0.027909015144 0.0202140689087
v -0.0157727421514 0.0278427837155 0.014
v -0.0157727421514 0.0278427837155 0.0200783475783
v -0.0157275407377 0.0285750555978 0.0205964905392
v -0.0155711090636 0.028290838004 0.0205683846911
v -0.0154665847607 0.0281009298794 0.0204617961894
v -0.0154298807065 0.0280342430143 0.014
v -0.0154298807065 0.0280342430143 0.0203205128205
f 14 6 10
f 3 10 6
f 11 14 10
f 2 3 6
f 12 9 14
f 12 14 11
f 4 10 3
f 4 11 10
f 7 12 11
f 7 11 4
f 7 9 12
f 7 4 3
f 7 2 9
f 7 3 2
f 8 5 13
f 8 1 5
f 14 8 13
f 14 9 8
f 14 13 5
f 14 5 6
f 2 5 1
f 2 6 5
f 2 1 8
f 2 8 9
