# Parametric PetalDock simulation geometry; SI units
v -0.0174209340125 0.0468669505956 0.014
v -0.0174209340125 0.0468669505956 0.0232264957265
v -0.0173944122196 0.0467955999118 0.0234345235584
v -0.0173188845437 0.0465924103553 0.0236152762904
v -0.0172058493887 0.0462883156941 0.0237504228419
v -0.0170725153322 0.0459296115837 0.014
v -0.0170725153322 0.0459296115837 0.0238190883191
v -0.0168444926696 0.0470772032592 0.014
v -0.0168444926696 0.0470772032592 0.0234686609687
v -0.0168188484565 0.0470055324847 0.0236822508392
v -0.0167458199161 0.0468014313872 0.0238691839237
v -0.0166365249816 0.0464959725086 0.0240132505338
v -0.0165076028162 0.046135659194 0.014
v -0.0165076028162 0.046135659194 0.0240921177588
f 12 14 13
f 12 13 8
f 12 8 9
f 5 1 6
f 5 2 1
f 5 14 12
f 10 9 2
f 10 12 9
f 7 14 5
f 7 5 6
f 3 10 2
f 4 2 5
f 4 3 2
f 4 5 12
f 11 10 3
f 11 3 4
f 11 12 10
f 11 4 12
f 6 8 13
f 6 1 8
f 2 9 8
f 2 8 1
f 7 6 13
f 7 13 14
