# Parametric PetalDock simulation geometry; SI units
v -0.030761579529 0.0394173213813 0.014
v -0.030761579529 0.0394173213813 0.0172058952444
v -0.0307147478127 0.0393573120827 0.01727564224
v -0.0305813823682 0.0391864200586 0.0173027419
v -0.0303817868752 0.0389306620705 0.0172161220713
v -0.0302755520702 0.0397918452304 0.014
v -0.0302755520702 0.0397918452304 0.0174154613193
v -0.0302294602867 0.0397312657532 0.0174900216176
v -0.0301463479385 0.0386289749537 0.014
v -0.0301463479385 0.0386289749537 0.017031156403
v -0.0300982019923 0.0395587499978 0.0175224696596
v -0.0299017600725 0.0393005619241 0.0174435691123
v -0.0296700410288 0.0389960083258 0.014
v -0.0296700410288 0.0389960083258 0.0172674318796
f 12 14 7
f 12 7 11
f 8 11 7
f 8 3 11
f 2 8 7
f 2 3 8
f 5 10 14
f 5 14 12
f 4 10 5
f 4 3 2
f 4 11 3
f 4 1 9
f 4 9 10
f 4 2 1
f 4 12 11
f 4 5 12
f 9 6 13
f 9 1 6
f 14 9 13
f 14 10 9
f 14 13 6
f 14 6 7
f 2 6 1
f 2 7 6
