# Parametric PetalDock simulation geometry; SI units
v -0.033349448892 -0.0359000593119 0.014
v -0.033349448892 -0.0359000593119 0.0166111111111
v -0.0331792986425 -0.035716895744 0.0164722222222
v -0.0330091483931 -0.0355337321761 0.0163333333333
v -0.0329063887875 -0.0363066051424 0.014
v -0.0329063887875 -0.0363066051424 0.0166111111111
v -0.0328389981436 -0.0353505686082 0.0161944444444
v -0.0327384990488 -0.0361213673611 0.0164722222222
v -0.0326688478942 -0.0351674050403 0.0160555555556
v -0.0325706093101 -0.0359361295797 0.0163333333333
v -0.0324986976447 -0.0349842414724 0.0159166666667
v -0.0324027195714 -0.0357508917984 0.0161944444444
v -0.0323285473953 -0.0348010779044 0.0157777777778
v -0.0322348298327 -0.035565654017 0.0160555555556
v -0.0321583971458 -0.0346179143365 0.0156388888889
v -0.0320669400939 -0.0353804162357 0.0159166666667
v -0.0319882468964 -0.0344347507686 0.0155
v -0.0318990503552 -0.0351951784544 0.0157777777778
v -0.0318180966469 -0.0342515872007 0.0153611111111
v -0.0317311606165 -0.035009940673 0.0156388888889
v -0.0316479463975 -0.0340684236328 0.0152222222222
v -0.0315632708778 -0.0348247028917 0.0155
v -0.031477796148 -0.0338852600648 0.0150833333333
v -0.0313953811391 -0.0346394651103 0.0153611111111
v -0.0313076458986 -0.0337020964969 0.0149444444444
v -0.0312274914004 -0.034454227329 0.0152222222222
v -0.0311374956491 -0.033518932929 0.0148055555556
v -0.0310596016617 -0.0342689895477 0.0150833333333
v -0.0309673453997 -0.0333357693611 0.0146666666667
v -0.030891711923 -0.0340837517663 0.0149444444444
v -0.0307971951502 -0.0331526057932 0.0145277777778
v -0.0307238221843 -0.033898513985 0.0148055555556
v -0.0306270449008 -0.0329694422253 0.0143888888889
v -0.0305559324455 -0.0337132762037 0.0146666666667
v -0.0304568946513 -0.0327862786573 0.01425
v -0.0303880427068 -0.0335280384223 0.0145277777778
v -0.0302867444019 -0.0326031150894 0.0141157407407
v -0.0302201529681 -0.033342800641 0.0143888888889
v -0.0301165941524 -0.0324199515215 0.0140289351852
v -0.0300522632294 -0.0331575628596 0.01425
v -0.029946443903 -0.0322367879536 0.014
v -0.0298843734907 -0.0329723250783 0.0141157407407
v -0.029716483752 -0.032787087297 0.0140289351852
v -0.0295485940133 -0.0326018495156 0.014
f 6 44 2
f 41 2 44
f 37 1 2
f 37 41 1
f 37 2 41
f 43 5 44
f 43 44 34
f 43 34 5
f 18 34 44
f 18 5 34
f 8 6 5
f 8 5 18
f 8 44 6
f 8 18 44
f 6 2 1
f 6 1 5
f 41 5 1
f 41 44 5
