# Parametric PetalDock simulation geometry; SI units
v 0.0276471313959 0.0161132282792 0.014
v 0.0276471313959 0.0161132282792 0.0198361823362
v 0.0277128974136 0.0161515578564 0.0199663416279
v 0.0278427837155 0.0157727421514 0.014
v 0.0278427837155 0.0157727421514 0.0200783475783
v 0.0279001831867 0.0162607112572 0.0200605694245
v 0.027909015144 0.0158102617922 0.0202140689087
v 0.028097626295 0.0159171086894 0.0203144770578
v 0.028180476154 0.0164240708659 0.0200708351555
v 0.0283799028304 0.0160770163716 0.0203336628474
v 0.028511104252 0.0166167666629 0.014
v 0.028511104252 0.0166167666629 0.0199966761633
v 0.0287128707066 0.0162656403436 0.014
v 0.0287128707066 0.0162656403436 0.020269705603
f 14 9 10
f 3 11 1
f 8 4 13
f 8 13 14
f 8 14 10
f 12 9 14
f 12 11 3
f 5 4 8
f 6 3 8
f 6 9 12
f 6 12 3
f 6 10 9
f 6 8 10
f 2 3 1
f 7 8 3
f 7 5 8
f 7 2 5
f 7 3 2
f 4 11 13
f 4 1 11
f 12 13 11
f 12 14 13
f 2 1 4
f 2 4 5
