# Parametric PetalDock simulation geometry; SI units
v 0.0071897932483 0.0484696489883 0.014
v 0.0071897932483 0.0484696489883 0.0284605887939
v 0.0072459445699 0.0488481904503 0.028218493604
v 0.0072935473618 0.0491691024063 0.0279317060562
v 0.0073253545305 0.0493835289199 0.0276458873312
v 0.0073365237228 0.0494588254982 0.014
v 0.0073365237228 0.0494588254982 0.0273433048433
v 0.0077840490234 0.0483777694897 0.014
v 0.0077840490234 0.0483777694897 0.0281875593542
v 0.0078448414029 0.0487555933852 0.0279556659122
v 0.0078963786938 0.0490758970176 0.0276777984229
v 0.0079308148106 0.0492899170624 0.0273981600505
v 0.0079429071667 0.0493650709079 0.014
v 0.0079429071667 0.0493650709079 0.0271011396011
f 4 1 2
f 4 6 1
f 4 7 6
f 12 8 13
f 12 13 14
f 9 8 12
f 5 14 7
f 5 12 14
f 5 7 4
f 5 4 12
f 10 2 9
f 3 4 2
f 3 2 10
f 11 12 4
f 11 4 3
f 11 3 10
f 11 9 12
f 11 10 9
f 8 1 6
f 8 6 13
f 14 6 7
f 14 13 6
f 9 1 8
f 9 2 1
