# Parametric PetalDock simulation geometry; SI units
v -0.0450365787328 -0.019305609963 0.014
v -0.0450365787328 -0.019305609963 0.0227269705603
v -0.0448068002699 -0.019207111953 0.0227210351377
v -0.0447962780295 -0.0198568243862 0.014
v -0.0447962780295 -0.0198568243862 0.0224539411206
v -0.044577021807 -0.019108613943 0.0227150997151
v -0.0445677255905 -0.0197555140577 0.0224420702754
v -0.044347243344 -0.0190101159329 0.0227091642925
v -0.0443391731516 -0.0196542037292 0.0224301994302
v -0.0441174648811 -0.0189116179229 0.0227032288699
v -0.0441106207127 -0.0195528934007 0.022418328585
v -0.0438876864182 -0.0188131199129 0.0226972934473
v -0.0438820682738 -0.0194515830722 0.0224064577398
v -0.0436579079553 -0.0187146219029 0.0226913580247
v -0.0436535158348 -0.0193502727437 0.0223945868946
v -0.0434281294924 -0.0186161238929 0.0226854226021
v -0.0434249633959 -0.0192489624152 0.0223827160494
v -0.0431983510294 -0.0185176258829 0.0226794871795
v -0.043196410957 -0.0191476520867 0.0223708452042
v -0.0429685725665 -0.0184191278729 0.0226735517569
v -0.0429678585181 -0.0190463417582 0.022358974359
v -0.0427393060791 -0.0189450314297 0.0223471035138
v -0.0427387941036 -0.0183206298628 0.0226676163343
v -0.0425107536402 -0.0188437211012 0.0223352326686
v -0.0425090156407 -0.0182221318528 0.0226616809117
v -0.0422822012013 -0.0187424107727 0.0223233618234
v -0.0422792371777 -0.0181236338428 0.0226557454891
v -0.0420536487624 -0.0186411004442 0.0223114909782
v -0.0420494587148 -0.0180251358328 0.0226498100665
v -0.0418250963234 -0.0185397901157 0.022299620133
v -0.0418196802519 -0.0179266378228 0.0226438746439
v -0.0415965438845 -0.0184384797872 0.0222877492877
v -0.041589901789 -0.0178281398128 0.0226379392213
v -0.0413679914456 -0.0183371694587 0.0222758784425
v -0.0413601233261 -0.0177296418027 0.0226320037987
v -0.0411394390067 -0.0182358591302 0.0222640075973
v -0.0411303448631 -0.0176311437927 0.0226260683761
v -0.0409108865677 -0.0181345488017 0.0222521367521
v -0.0409005664002 -0.0175326457827 0.0226203308009
v -0.0406823341288 -0.0180332384732 0.0222406616018
v -0.0406707879373 -0.0174341477727 0.0226166211618
v -0.0404537816899 -0.0179319281447 0.0222332423235
v -0.0404410094744 -0.0173356497627 0.014
v -0.0404410094744 -0.0173356497627 0.0226153846154
v -0.040225229251 -0.0178306178162 0.014
v -0.040225229251 -0.0178306178162 0.0222307692308
f 7 5 4
f 35 43 1
f 38 4 45
f 38 7 4
f 8 1 2
f 8 35 1
f 46 5 7
f 46 7 38
f 46 38 45
f 44 5 46
f 44 43 35
f 44 35 8
f 44 2 5
f 44 8 2
f 5 2 1
f 5 1 4
f 43 4 1
f 43 45 4
f 44 45 43
f 44 46 45
