# Parametric PetalDock simulation geometry; SI units
v -0.0073365237228 -0.0494588254982 0.014
v -0.0073365237228 -0.0494588254982 0.0273433048433
v -0.0073253545305 -0.0493835289199 0.0276458873312
v -0.0072935473618 -0.0491691024063 0.0279317060562
v -0.0072459445699 -0.0488481904503 0.028218493604
v -0.0071897932483 -0.0484696489883 0.014
v -0.0071897932483 -0.0484696489883 0.0284605887939
v -0.0067290354254 -0.0495451317714 0.014
v -0.0067290354254 -0.0495451317714 0.0275845386807
v -0.0067187910789 -0.0494697037995 0.0278926618148
v -0.0066896176485 -0.049254903109 0.0281846371216
v -0.0066459565243 -0.0489334311576 0.0284803104202
v -0.0065944547168 -0.048554229136 0.014
v -0.0065944547168 -0.048554229136 0.0287325681204
f 10 13 14
f 10 8 13
f 10 9 8
f 10 2 9
f 3 6 1
f 3 1 2
f 3 2 10
f 7 6 3
f 12 10 14
f 11 3 10
f 11 10 12
f 5 14 7
f 5 12 14
f 5 7 3
f 4 11 12
f 4 12 5
f 4 3 11
f 4 5 3
f 6 13 8
f 6 8 1
f 2 8 9
f 2 1 8
f 7 13 6
f 7 14 13
