# Parametric PetalDock simulation geometry; SI units
v 0.0294764019395 0.0148371738786 0.014
v 0.0294764019395 0.0148371738786 0.0213618233618
v 0.0296562573679 0.0144743358718 0.014
v 0.0296562573679 0.0144743358718 0.0216348528015
v 0.0296997080148 0.014949576711 0.0213262108262
v 0.0298809259843 0.0145839899314 0.0216051756885
v 0.02992301409 0.0150619795434 0.0212905982906
v 0.0301055946007 0.014693643991 0.0215754985755
v 0.0301463201653 0.0151743823758 0.021254985755
v 0.0303302632172 0.0148032980507 0.0215458214625
v 0.0303696262406 0.0152867852083 0.0212193732194
v 0.0305549318336 0.0149129521103 0.0215161443495
v 0.0305929323159 0.0153991880407 0.0211837606838
v 0.03077960045 0.0150226061699 0.0214864672365
v 0.0308162383912 0.0155115908731 0.0211481481481
v 0.0310042690664 0.0151322602296 0.0214567901235
v 0.0310395444665 0.0156239937055 0.0211125356125
v 0.0312289376829 0.0152419142892 0.0214271130104
v 0.0312628505418 0.0157363965379 0.0210769230769
v 0.0314536062993 0.0153515683488 0.0213974358974
v 0.0314861566171 0.0158487993703 0.0210413105413
v 0.0316782749157 0.0154612224085 0.0213677587844
v 0.0317094626924 0.0159612022027 0.0210056980057
v 0.0319029435321 0.0155708764681 0.0213380816714
v 0.0319327687677 0.0160736050352 0.0209700854701
v 0.0321276121486 0.0156805305278 0.0213084045584
v 0.032156074843 0.0161860078676 0.0209344729345
v 0.032352280765 0.0157901845874 0.0212787274454
v 0.0323793809183 0.0162984107 0.0208988603989
v 0.0325769493814 0.015899838647 0.0212490503324
v 0.0326026869936 0.0164108135324 0.0208632478632
v 0.0328016179978 0.0160094927067 0.0212193732194
v 0.0328259930689 0.0165232163648 0.0208276353276
v 0.0330262866143 0.0161191467663 0.0211896961064
v 0.0330492991442 0.0166356191972 0.020792022792
v 0.0332509552307 0.0162288008259 0.0211600189934
v 0.0332726052195 0.0167480220296 0.0207564102564
v 0.0334756238471 0.0163384548856 0.0211303418803
v 0.0334959112948 0.016860424862 0.0207219848053
v 0.0337002924635 0.0164481089452 0.0211016540044
v 0.0337192173701 0.0169728276945 0.0206997269706
v 0.0339249610799 0.0165577630048 0.0210831058088
v 0.0339425234454 0.0170852305269 0.014
v 0.0339425234454 0.0170852305269 0.0206923076923
v 0.0341496296964 0.0166674170645 0.014
v 0.0341496296964 0.0166674170645 0.0210769230769
f 2 4 46
f 20 3 45
f 11 43 1
f 11 1 2
f 36 20 45
f 36 46 20
f 8 4 3
f 8 3 20
f 8 46 4
f 8 20 46
f 44 2 46
f 44 11 2
f 42 45 46
f 42 36 45
f 42 46 36
f 25 43 11
f 25 11 44
f 41 44 43
f 41 43 25
f 41 25 44
f 3 43 45
f 3 1 43
f 2 1 3
f 2 3 4
f 44 45 43
f 44 46 45
