# Parametric PetalDock simulation geometry; SI units
v -0.0359000593119 -0.033349448892 0.014
v -0.0359000593119 -0.033349448892 0.0166111111111
v -0.035716895744 -0.0331792986425 0.0164722222222
v -0.0355337321761 -0.0330091483931 0.0163333333333
v -0.0354881070646 -0.0337874866921 0.014
v -0.0354881070646 -0.0337874866921 0.0166111111111
v -0.0353505686082 -0.0328389981436 0.0161944444444
v -0.0353070452939 -0.0336151015559 0.0164722222222
v -0.0351674050403 -0.0326688478942 0.0160555555556
v -0.0351259835231 -0.0334427164197 0.0163333333333
v -0.0349842414724 -0.0324986976447 0.0159166666667
v -0.0349449217524 -0.0332703312836 0.0161944444444
v -0.0348010779044 -0.0323285473953 0.0157777777778
v -0.0347638599817 -0.0330979461474 0.0160555555556
v -0.0346179143365 -0.0321583971458 0.0156388888889
v -0.0345827982109 -0.0329255610112 0.0159166666667
v -0.0344347507686 -0.0319882468964 0.0155
v -0.0344017364402 -0.032753175875 0.0157777777778
v -0.0342515872007 -0.0318180966469 0.0153611111111
v -0.0342206746695 -0.0325807907388 0.0156388888889
v -0.0340684236328 -0.0316479463975 0.0152222222222
v -0.0340396128987 -0.0324084056026 0.0155
v -0.0338852600648 -0.031477796148 0.0150833333333
v -0.033858551128 -0.0322360204665 0.0153611111111
v -0.0337020964969 -0.0313076458986 0.0149444444444
v -0.0336774893572 -0.0320636353303 0.0152222222222
v -0.033518932929 -0.0311374956491 0.0148055555556
v -0.0334964275865 -0.0318912501941 0.0150833333333
v -0.0333357693611 -0.0309673453997 0.0146666666667
v -0.0333153658158 -0.0317188650579 0.0149444444444
v -0.0331526057932 -0.0307971951502 0.0145277777778
v -0.033134304045 -0.0315464799217 0.0148055555556
v -0.0329694422253 -0.0306270449008 0.0143888888889
v -0.0329532422743 -0.0313740947855 0.0146666666667
v -0.0327862786573 -0.0304568946513 0.01425
v -0.0327721805036 -0.0312017096494 0.0145277777778
v -0.0326031150894 -0.0302867444019 0.0141157407407
v -0.0325911187328 -0.0310293245132 0.0143888888889
v -0.0324199515215 -0.0301165941524 0.0140289351852
v -0.0324100569621 -0.030856939377 0.01425
v -0.0322367879536 -0.029946443903 0.014
v -0.0322289951913 -0.0306845542408 0.0141157407407
v -0.0320479334206 -0.0305121691046 0.0140289351852
v -0.0318668716499 -0.0303397839684 0.014
f 41 2 6
f 41 6 44
f 42 38 5
f 26 42 44
f 26 38 42
f 26 5 38
f 31 1 11
f 31 11 41
f 3 2 41
f 3 41 11
f 3 1 2
f 3 11 1
f 43 5 44
f 43 44 42
f 43 42 5
f 12 44 6
f 12 26 44
f 12 6 5
f 12 5 26
f 39 41 1
f 39 1 31
f 39 31 41
f 6 2 1
f 6 1 5
f 41 5 1
f 41 44 5
