# Parametric PetalDock simulation geometry; SI units
v -0.0325141621988 -0.0056417423291 0.014
v -0.0325141621988 -0.0056417423291 0.0279145299145
v -0.0324424810852 -0.0060403163025 0.014
v -0.0324424810852 -0.0060403163025 0.0276415004748
v -0.0321371127688 -0.0055763180467 0.0276928382203
v -0.0320662629029 -0.0059702699699 0.0274300105284
v -0.0318174656966 -0.0055208540182 0.0274238907896
v -0.0317473205284 -0.0059108875565 0.0271699831563
v -0.0316038843512 -0.0054837941392 0.0271504327697
v -0.0315342100471 -0.0058712094964 0.026902705489
v -0.0315288845564 -0.0054707804403 0.014
v -0.0315288845564 -0.0054707804403 0.026858974359
v -0.0314593755978 -0.0058572764146 0.014
v -0.0314593755978 -0.0058572764146 0.0266168091168
f 7 1 2
f 7 11 1
f 5 7 2
f 8 4 14
f 8 7 5
f 9 14 12
f 9 12 11
f 9 11 7
f 6 4 8
f 6 8 5
f 6 2 4
f 6 5 2
f 10 8 14
f 10 14 9
f 10 7 8
f 10 9 7
f 4 2 1
f 4 1 3
f 11 3 1
f 11 13 3
f 14 4 3
f 14 3 13
f 12 13 11
f 12 14 13
