# Parametric PetalDock simulation geometry; SI units
v -0.0304880245729 -0.012628553268 0.014
v -0.0304880245729 -0.012628553268 0.023
v -0.0303307571058 -0.013001737322 0.014
v -0.0303307571058 -0.013001737322 0.0227269705603
v -0.0301344711823 -0.0124821066586 0.0229619397663
v -0.0299790274623 -0.0128509630958 0.0226991120744
v -0.0298347430904 -0.012357955218 0.0228535533906
v -0.0296808454686 -0.0127231428788 0.0225996457573
v -0.0296344711823 -0.0122749998775 0.0226913417162
v -0.0295641450404 -0.0122458698357 0.014
v -0.0295641450404 -0.0122458698357 0.0225
v -0.0294816066301 -0.0126377361402 0.0224436144354
v -0.0294116432541 -0.012607745282 0.014
v -0.0294116432541 -0.012607745282 0.0222578347578
f 8 4 3
f 8 3 13
f 5 1 2
f 5 10 1
f 11 10 5
f 6 2 4
f 6 5 2
f 6 4 8
f 6 8 5
f 14 8 13
f 7 5 8
f 9 11 5
f 9 5 7
f 9 14 11
f 12 8 14
f 12 14 9
f 12 7 8
f 12 9 7
f 4 2 1
f 4 1 3
f 10 3 1
f 10 13 3
f 14 13 10
f 14 10 11
