# Parametric PetalDock simulation geometry; SI units
v 0.0106911279157 -0.0426813751406 0.014
v 0.0106911279157 -0.0426813751406 0.0276153846154
v 0.0107518729607 -0.0429238829539 0.0276005460589
v 0.0108126180057 -0.0431663907672 0.0275560303894
v 0.0108733630507 -0.0434088985805 0.0274871794872
v 0.0109341080956 -0.0436514063938 0.027415954416
v 0.0109948531406 -0.0438939142071 0.0273447293447
v 0.0110555981856 -0.0441364220204 0.0272735042735
v 0.0111163432306 -0.0443789298337 0.0272022792023
v 0.0111770882756 -0.0446214376469 0.0271310541311
v 0.0112140890226 -0.042546964726 0.014
v 0.0112140890226 -0.042546964726 0.0272307692308
v 0.0112378333205 -0.0448639454602 0.0270598290598
v 0.0112778054375 -0.0427887088437 0.0272171672206
v 0.0112985783655 -0.0451064532735 0.0269886039886
v 0.0113415218524 -0.0430304529615 0.0271763611903
v 0.0113593234105 -0.0453489610868 0.0269173789174
v 0.0114052382673 -0.0432721970793 0.0271132478632
v 0.0114200684555 -0.0455914689001 0.0268461538462
v 0.0114689546822 -0.043513941197 0.0270479582146
v 0.0114808135004 -0.0458339767134 0.0267749287749
v 0.0115326710971 -0.0437556853148 0.026982668566
v 0.0115415585454 -0.0460764845267 0.0267037037037
v 0.011596387512 -0.0439974294325 0.0269173789174
v 0.0116023035904 -0.04631899234 0.0266324786325
v 0.0116601039269 -0.0442391735503 0.0268520892688
v 0.0116630486354 -0.0465615001533 0.0265612535613
v 0.0117237936803 -0.0468040079666 0.02649002849
v 0.0117238203418 -0.0444809176681 0.0267867996201
v 0.0117845387253 -0.0470465157799 0.0264188034188
v 0.0117875367567 -0.0447226617858 0.0267215099715
v 0.0118452837703 -0.0472890235932 0.0263475783476
v 0.0118512531716 -0.0449644059036 0.0266562203229
v 0.0119060288153 -0.0475315314065 0.014
v 0.0119060288153 -0.0475315314065 0.0262763532764
v 0.0119149695865 -0.0452061500213 0.0265909306743
v 0.0119786860014 -0.0454478941391 0.0265256410256
v 0.0120424024163 -0.0456896382569 0.026460351377
v 0.0121061188312 -0.0459313823746 0.0263950617284
v 0.0121698352461 -0.0461731264924 0.0263297720798
v 0.012233551661 -0.0464148706102 0.0262644824311
v 0.0122972680759 -0.0466566147279 0.0261991927825
v 0.0123609844908 -0.0468983588457 0.0261339031339
v 0.0124247009057 -0.0471401029634 0.0260686134853
v 0.0124884173206 -0.0473818470812 0.014
v 0.0124884173206 -0.0473818470812 0.0260033238367
f 28 1 34
f 28 34 35
f 36 45 11
f 6 2 1
f 6 1 28
f 6 28 35
f 44 46 45
f 44 45 36
f 44 36 46
f 10 35 46
f 10 6 35
f 14 11 12
f 14 12 2
f 5 10 46
f 5 6 10
f 4 5 46
f 4 6 5
f 18 16 4
f 3 16 14
f 3 4 16
f 3 14 2
f 3 2 6
f 3 6 4
f 20 16 18
f 20 14 16
f 24 14 20
f 26 36 24
f 26 46 36
f 26 4 46
f 26 18 4
f 11 34 1
f 11 45 34
f 46 35 34
f 46 34 45
f 12 11 1
f 12 1 2
f 24 11 14
f 24 36 11
f 26 24 20
f 26 20 18
