# Parametric PetalDock simulation geometry; SI units
v -0.0173114595284 0.0280947213725 0.014
v -0.0173114595284 0.0280947213725 0.019450617284
v -0.017110707748 0.027768921845 0.0195451797717
v -0.0169653905584 0.02830504413 0.014
v -0.0169653905584 0.02830504413 0.0197236467236
v -0.0169405186064 0.0274927223422 0.019552754158
v -0.0168268018576 0.0273081717347 0.0194708870664
v -0.0167868698457 0.0272433661794 0.014
v -0.0167868698457 0.0272433661794 0.0193518518519
v -0.0167686519556 0.0279768056015 0.0198080074636
v -0.0166018650217 0.0276985384135 0.0198066617913
v -0.0164904215554 0.0275126062228 0.0197186143472
v -0.0164512878142 0.02744731552 0.014
v -0.0164512878142 0.02744731552 0.019594017094
f 5 10 4
f 3 10 5
f 11 13 4
f 11 4 10
f 2 3 5
f 12 9 14
f 12 14 13
f 12 13 11
f 6 3 2
f 6 10 3
f 6 11 10
f 6 1 8
f 6 2 1
f 7 12 11
f 7 11 6
f 7 9 12
f 7 8 9
f 7 6 8
f 8 4 13
f 8 1 4
f 14 8 13
f 14 9 8
f 2 4 1
f 2 5 4
