# Parametric PetalDock simulation geometry; SI units
v 0.022627416998 -0.022627416998 0.014
v 0.022627416998 -0.022627416998 0.0168333333333
v 0.0226812422967 -0.0226812422967 0.0168945233466
v 0.0228345237792 -0.0228345237792 0.0169121147719
v 0.0229033864091 -0.0223480399811 0.014
v 0.0229033864091 -0.0223480399811 0.0168333333333
v 0.0229578681741 -0.0224012007077 0.0168945233466
v 0.0230639257291 -0.0230639257291 0.016811771776
v 0.0231130191143 -0.0225525896487 0.0169121147719
v 0.0233345237792 -0.0233345237792 0.014
v 0.0233345237792 -0.0233345237792 0.0166111111111
v 0.0233452189055 -0.0227791592103 0.016811771776
v 0.0236191172344 -0.0230464162305 0.014
v 0.0236191172344 -0.0230464162305 0.0166111111111
f 3 6 2
f 12 8 11
f 12 11 14
f 12 4 8
f 9 13 5
f 9 5 6
f 9 14 13
f 9 12 14
f 9 4 12
f 9 3 4
f 7 6 3
f 7 9 6
f 7 3 9
f 5 10 1
f 5 13 10
f 5 1 2
f 5 2 6
f 14 11 10
f 14 10 13
f 3 10 11
f 3 1 10
f 3 2 1
f 3 8 4
f 3 11 8
