# Parametric PetalDock simulation geometry; SI units
v 0.0489963103901 -0.000601305376 0.014
v 0.0489963103901 -0.000601305376 0.0293888888889
v 0.049 0 0.014
v 0.049 0 0.0293888888889
v 0.0493789650071 -0.0006060014904 0.0291121077565
v 0.0493826834324 0 0.0291121077565
v 0.0497033639275 -0.0006099826639 0.0287949920093
v 0.0497071067812 0 0.0287949920093
v 0.0499201203562 -0.0006126427991 0.0284881600858
v 0.0499238795325 0 0.0284881600858
v 0.049996235092 -0.0006135769143 0.014
v 0.049996235092 -0.0006135769143 0.0281666666667
v 0.05 0 0.014
v 0.05 0 0.0281666666667
f 9 2 1
f 9 1 11
f 5 2 9
f 12 9 11
f 6 4 2
f 6 2 5
f 7 5 9
f 7 6 5
f 10 12 14
f 10 9 12
f 10 7 9
f 8 6 7
f 8 7 10
f 3 13 11
f 3 11 1
f 12 11 13
f 12 13 14
f 4 3 1
f 4 1 2
f 8 13 3
f 8 14 13
f 8 3 4
f 8 4 6
f 8 10 14
