# Parametric PetalDock simulation geometry; SI units
v -0.0036373328407 0.0327989300101 0.014
v -0.0036373328407 0.0327989300101 0.0291526134122
v -0.0035951526281 0.0324185782793 0.0288846607154
v -0.0035593939705 0.0320961316517 0.0285752642497
v -0.0035355007994 0.0318806797033 0.0282737807082
v -0.0035271106334 0.0318050230401 0.014
v -0.0035271106334 0.0318050230401 0.0279571005917
v -0.0032345656309 0.0328410959802 0.014
v -0.0032345656309 0.0328410959802 0.0292838775659
v -0.0031970560952 0.0324602552731 0.0290110201827
v -0.0031652570463 0.0321373941114 0.0286973352273
v -0.0031440096011 0.0319216651801 0.0283928803624
v -0.0031365484905 0.0318459112535 0.014
v -0.0031365484905 0.0318459112535 0.0280735261889
f 3 9 2
f 10 14 9
f 10 9 3
f 10 3 4
f 12 7 14
f 5 7 12
f 5 6 7
f 5 1 6
f 5 4 3
f 5 2 1
f 5 3 2
f 11 10 4
f 11 4 5
f 11 5 12
f 11 14 10
f 11 12 14
f 6 8 13
f 6 1 8
f 2 8 1
f 2 9 8
f 14 13 8
f 14 8 9
f 14 6 13
f 14 7 6
