# Parametric PetalDock simulation geometry; SI units
v 0.0445492311714 0.0204050484448 0.014
v 0.0445492311714 0.0204050484448 0.0221809116809
v 0.0447962780295 0.0198568243862 0.014
v 0.0447962780295 0.0198568243862 0.0224539411206
v 0.0448971546958 0.0205644091382 0.0221734566906
v 0.0451461309567 0.0200119035232 0.0224362843825
v 0.0451921100175 0.0206995086106 0.0220918304908
v 0.0453891928626 0.0207897791921 0.0219481598739
v 0.0454427219472 0.0201433732674 0.022345738124
v 0.0454583991545 0.0208214780049 0.014
v 0.0454583991545 0.0208214780049 0.0217735042735
v 0.0456408977112 0.020231218542 0.0221958871547
v 0.0457104877852 0.0202620657002 0.014
v 0.0457104877852 0.0202620657002 0.0220156695157
f 5 2 4
f 6 5 4
f 6 4 14
f 6 14 9
f 6 9 7
f 6 7 5
f 8 5 7
f 8 7 9
f 8 11 2
f 8 2 5
f 12 9 14
f 12 8 9
f 12 14 11
f 12 11 8
f 3 10 13
f 3 1 10
f 3 13 14
f 3 14 4
f 2 1 3
f 2 3 4
f 11 13 10
f 11 14 13
f 11 10 1
f 11 1 2
