# Parametric PetalDock simulation geometry; SI units
v -0.0457104877852 0.0202620657002 0.014
v -0.0457104877852 0.0202620657002 0.0220156695157
v -0.0456408977112 0.020231218542 0.0221958871547
v -0.0454583991545 0.0208214780049 0.014
v -0.0454583991545 0.0208214780049 0.0217735042735
v -0.0454427219472 0.0201433732674 0.022345738124
v -0.0453891928626 0.0207897791921 0.0219481598739
v -0.0451921100175 0.0206995086106 0.0220918304908
v -0.0451461309567 0.0200119035232 0.0224362843825
v -0.0448971546958 0.0205644091382 0.0221734566906
v -0.0447962780295 0.0198568243862 0.014
v -0.0447962780295 0.0198568243862 0.0224539411206
v -0.0445492311714 0.0204050484448 0.014
v -0.0445492311714 0.0204050484448 0.0221809116809
f 10 12 14
f 9 12 10
f 9 2 12
f 9 6 2
f 9 8 6
f 9 10 8
f 7 8 10
f 7 6 8
f 7 14 5
f 7 10 14
f 3 2 6
f 3 6 7
f 3 5 2
f 3 7 5
f 11 4 13
f 11 1 4
f 11 2 1
f 11 12 2
f 14 11 13
f 14 12 11
f 5 4 1
f 5 1 2
f 5 13 4
f 5 14 13
