# Parametric PetalDock simulation geometry; SI units
v -0.0313344299596 0.0103514974332 0.014
v -0.0313344299596 0.0103514974332 0.0246381766382
v -0.0312050417376 0.0107352396414 0.014
v -0.0312050417376 0.0107352396414 0.0243651471985
v -0.0309710612563 0.0102314566281 0.0245389059176
v -0.0308431734806 0.0106107487822 0.0242760782257
v -0.0306630121441 0.0101296909474 0.0243769991903
v -0.0305363963854 0.0105052105278 0.024123091557
v -0.030457180308 0.0100616932935 0.0241777054007
v -0.030384901779 0.0100378156928 0.014
v -0.030384901779 0.0100378156928 0.023952991453
v -0.0303314144838 0.0104346921207 0.0239299781199
v -0.0302594344122 0.0104099293492 0.014
v -0.0302594344122 0.0104099293492 0.0237108262108
f 8 13 3
f 9 2 1
f 9 1 10
f 6 3 4
f 6 8 3
f 6 4 2
f 5 2 9
f 5 6 2
f 5 8 6
f 11 9 10
f 7 8 5
f 7 5 9
f 14 13 8
f 14 9 11
f 12 14 8
f 12 9 14
f 12 8 7
f 12 7 9
f 4 1 2
f 4 3 1
f 10 1 3
f 10 3 13
f 14 10 13
f 14 11 10
