# Parametric PetalDock simulation geometry; SI units
v 0.048554229136 0.0065944547168 0.014
v 0.048554229136 0.0065944547168 0.0287325681204
v 0.0486314971953 0.0059981230848 0.014
v 0.0486314971953 0.0059981230848 0.028968843597
v 0.0489334311576 0.0066459565243 0.0284803104202
v 0.0490113026702 0.0060449676221 0.0287077574613
v 0.049254903109 0.0066896176485 0.0281846371216
v 0.0493332862044 0.0060846805033 0.0284043648812
v 0.0494697037995 0.0067187910789 0.0278926618148
v 0.0495451317714 0.0067290354254 0.014
v 0.0495451317714 0.0067290354254 0.0275845386807
v 0.0495484287238 0.0061112158021 0.0281070411923
v 0.0496239767299 0.00612053376 0.014
v 0.0496239767299 0.00612053376 0.0277941047556
f 7 10 1
f 7 1 2
f 11 10 7
f 5 2 4
f 5 7 2
f 12 3 13
f 12 13 14
f 12 14 11
f 6 5 4
f 6 12 8
f 6 8 7
f 6 7 5
f 6 4 3
f 6 3 12
f 9 11 7
f 9 12 11
f 9 7 8
f 9 8 12
f 3 10 13
f 3 1 10
f 2 1 3
f 2 3 4
f 11 13 10
f 11 14 13
