# Parametric PetalDock simulation geometry; SI units
v -0.0435043495554 0.0246449096115 0.014
v -0.0435043495554 0.0246449096115 0.0200783475783
v -0.0434381181269 0.0246073899707 0.0202140689087
v -0.043249506976 0.0245005430734 0.0203144770578
v -0.0431986428061 0.0251769191863 0.014
v -0.0431986428061 0.0251769191863 0.0198361823362
v -0.0431328767884 0.0251385896091 0.0199663416279
v -0.0429672304405 0.0243406353913 0.0203336628474
v -0.0429455910153 0.0250294362083 0.0200605694245
v -0.042665298048 0.0248660765996 0.0200708351555
v -0.0426342625643 0.0241520114193 0.014
v -0.0426342625643 0.0241520114193 0.020269705603
v -0.04233466995 0.0246733808026 0.014
v -0.04233466995 0.0246733808026 0.0199966761633
f 10 13 5
f 12 10 8
f 6 10 5
f 14 13 10
f 14 10 12
f 9 8 10
f 9 10 6
f 3 6 2
f 7 9 6
f 7 6 3
f 4 3 2
f 4 1 11
f 4 2 1
f 4 11 12
f 4 12 8
f 4 8 9
f 4 9 7
f 4 7 3
f 11 5 13
f 11 1 5
f 6 5 1
f 6 1 2
f 14 11 13
f 14 12 11
