# Parametric PetalDock simulation geometry; SI units
v 0.0266070275937 0.0177782474566 0.014
v 0.0266070275937 0.0177782474566 0.0186253561254
v 0.0266703194493 0.0178205377225 0.0187277052241
v 0.0268231905778 0.0174503996295 0.014
v 0.0268231905778 0.0174503996295 0.0188675213675
v 0.0268505594048 0.0179409702105 0.0187910312581
v 0.0268869966342 0.0174919100226 0.0189754325049
v 0.0270687009099 0.0176101216207 0.0190449388914
v 0.0271203075608 0.018121210166 0.018756696696
v 0.0273406405759 0.0177870377796 0.0190195243879
v 0.027438497206 0.0183338176896 0.014
v 0.027438497206 0.0183338176896 0.0186315289649
v 0.0276614152833 0.0179957246179 0.014
v 0.0276614152833 0.0179957246179 0.0189045584046
f 9 11 1
f 9 1 6
f 12 11 9
f 12 9 14
f 10 6 8
f 10 9 6
f 10 14 9
f 10 5 14
f 10 8 5
f 3 1 2
f 3 6 1
f 3 8 6
f 7 2 5
f 7 3 2
f 7 5 8
f 7 8 3
f 4 11 13
f 4 1 11
f 5 4 13
f 5 13 14
f 2 1 4
f 2 4 5
f 12 13 11
f 12 14 13
