# Parametric PetalDock simulation geometry; SI units
v 0.0054008881574 -0.0487014415301 0.014
v 0.0054008881574 -0.0487014415301 0.0291526134122
v 0.00544306837 -0.0490817932608 0.0288846607154
v 0.0054788270276 -0.0494042398885 0.0285752642497
v 0.0055027201987 -0.0496196918369 0.0282737807082
v 0.0055111103647 -0.0496953485001 0.014
v 0.0055111103647 -0.0496953485001 0.0279571005917
v 0.0059981230848 -0.0486314971953 0.014
v 0.0059981230848 -0.0486314971953 0.028968843597
v 0.0060449676221 -0.0490113026702 0.0287077574613
v 0.0060846805033 -0.0493332862044 0.0284043648812
v 0.0061112158021 -0.0495484287238 0.0281070411923
v 0.00612053376 -0.0496239767299 0.014
v 0.00612053376 -0.0496239767299 0.0277941047556
f 5 2 1
f 5 1 6
f 5 6 7
f 5 7 14
f 11 14 9
f 10 9 2
f 10 11 9
f 12 5 14
f 12 14 11
f 12 4 5
f 12 11 4
f 3 11 10
f 3 4 11
f 3 10 2
f 3 2 5
f 3 5 4
f 8 6 1
f 8 13 6
f 14 7 6
f 14 6 13
f 9 8 1
f 9 1 2
f 9 13 8
f 9 14 13
