# Parametric PetalDock simulation geometry; SI units
v 0.012607745282 0.0294116432541 0.014
v 0.012607745282 0.0294116432541 0.0222578347578
v 0.0126377361402 0.0294816066301 0.0224436144354
v 0.0127231428788 0.0296808454686 0.0225996457573
v 0.0128509630958 0.0299790274623 0.0226991120744
v 0.0129677220482 0.0292547121825 0.014
v 0.0129677220482 0.0292547121825 0.0220156695157
v 0.0129985692064 0.0293243022565 0.0221958871547
v 0.013001737322 0.0303307571058 0.014
v 0.013001737322 0.0303307571058 0.0227269705603
v 0.013086414481 0.0295224780205 0.022345738124
v 0.0132178842252 0.029819069011 0.0224362843825
v 0.0133729633622 0.0301689219382 0.014
v 0.0133729633622 0.0301689219382 0.0224539411206
f 3 2 7
f 3 9 1
f 3 10 9
f 3 1 2
f 5 10 3
f 5 3 4
f 11 5 4
f 12 7 14
f 12 11 7
f 12 5 11
f 12 14 10
f 12 10 5
f 8 3 7
f 8 7 11
f 8 4 3
f 8 11 4
f 6 9 13
f 6 1 9
f 2 1 6
f 2 6 7
f 14 13 9
f 14 9 10
f 14 6 13
f 14 7 6
