# Parametric PetalDock simulation geometry; SI units
v 0.0450365787328 0.019305609963 0.014
v 0.0450365787328 0.019305609963 0.0227269705603
v 0.0452700970931 0.0187514881859 0.014
v 0.0452700970931 0.0187514881859 0.023
v 0.0453883083763 0.0194563841892 0.0226991120744
v 0.0456236504836 0.0188979347953 0.0229619397663
v 0.04568649037 0.0195842044063 0.0225996457573
v 0.0458857292084 0.0196696111448 0.0224436144354
v 0.0459233785755 0.019022086236 0.0228535533906
v 0.0459556925845 0.0196996020031 0.014
v 0.0459556925845 0.0196996020031 0.0222578347578
v 0.0461236504836 0.0191050415765 0.0226913417162
v 0.0461939766256 0.0191341716183 0.014
v 0.0461939766256 0.0191341716183 0.0225
f 7 10 1
f 7 1 2
f 11 10 7
f 5 2 4
f 5 7 2
f 12 4 14
f 12 9 4
f 12 14 11
f 6 4 9
f 6 5 4
f 6 9 7
f 6 7 5
f 8 11 7
f 8 12 11
f 8 7 9
f 8 9 12
f 3 10 13
f 3 1 10
f 3 13 14
f 3 14 4
f 2 1 3
f 2 3 4
f 11 13 10
f 11 14 13
