# Parametric PetalDock simulation geometry; SI units
v -0.0390368614286 0.0312429744071 0.014
v -0.0390368614286 0.0312429744071 0.0170428994083
v -0.0389774313458 0.0311954098108 0.0171089027241
v -0.0388081887887 0.0310599573003 0.0171318425314
v -0.0386505226681 0.0317196642082 0.014
v -0.0386505226681 0.0317196642082 0.0169264738111
v -0.0385916807511 0.0316713738948 0.0169898030699
v -0.0385548994024 0.0308572382926 0.0170392188171
v -0.0384241131483 0.0315338547172 0.0170097715539
v -0.0382561242 0.030618114919 0.014
v -0.0382561242 0.030618114919 0.0168473865878
v -0.0381733305083 0.0313280427235 0.0169128593498
v -0.0378775122148 0.031085270924 0.014
v -0.0378775122148 0.031085270924 0.0167161224341
f 10 4 1
f 2 1 4
f 12 13 5
f 6 12 5
f 6 9 12
f 7 4 9
f 7 9 6
f 14 13 12
f 14 12 11
f 8 11 12
f 8 9 4
f 8 12 9
f 8 10 11
f 8 4 10
f 3 6 2
f 3 7 6
f 3 2 4
f 3 4 7
f 10 5 13
f 10 1 5
f 6 5 1
f 6 1 2
f 14 10 13
f 14 11 10
