# Parametric PetalDock simulation geometry; SI units
v -0.05 0 0.014
v -0.05 0 0.0281666666667
v -0.049996235092 0.0006135769143 0.014
v -0.049996235092 0.0006135769143 0.0281666666667
v -0.0499238795325 0 0.0284881600858
v -0.0499201203562 0.0006126427991 0.0284881600858
v -0.0497071067812 0 0.0287949920093
v -0.0497033639275 0.0006099826639 0.0287949920093
v -0.0493826834324 0 0.0291121077565
v -0.0493789650071 0.0006060014904 0.0291121077565
v -0.049 0 0.014
v -0.049 0 0.0293888888889
v -0.0489963103901 0.000601305376 0.014
v -0.0489963103901 0.000601305376 0.0293888888889
f 9 12 14
f 9 8 7
f 10 9 14
f 10 8 9
f 5 4 2
f 5 7 8
f 6 3 4
f 6 13 3
f 6 8 10
f 6 14 13
f 6 10 14
f 6 5 8
f 6 4 5
f 11 3 13
f 11 1 3
f 14 11 13
f 14 12 11
f 4 3 1
f 4 1 2
f 5 1 11
f 5 2 1
f 5 11 12
f 5 12 9
f 5 9 7
