# Parametric PetalDock simulation geometry; SI units
v -0.0353411313851 -0.0262107693977 0.014
v -0.0353411313851 -0.0262107693977 0.0153076923077
v -0.0351403295023 -0.0260618445715 0.0153076923077
v -0.0350168238028 -0.0266424858218 0.014
v -0.0350168238028 -0.0266424858218 0.014924556213
v -0.0349395276194 -0.0259129197454 0.0153076923077
v -0.0348178645766 -0.0264911080614 0.014924556213
v -0.0347387257365 -0.0257639949193 0.0153076923077
v -0.0346189053505 -0.0263397303011 0.014924556213
v -0.0345379238537 -0.0256150700932 0.0153076923077
v -0.0344199461243 -0.0261883525407 0.014924556213
v -0.0343371219708 -0.0254661452671 0.0153076923077
v -0.0342209868982 -0.0260369747804 0.014924556213
v -0.0341363200879 -0.0253172204409 0.0153076923077
v -0.034022027672 -0.02588559702 0.014924556213
v -0.0339355182051 -0.0251682956148 0.0153076923077
v -0.0338230684459 -0.0257342192597 0.014924556213
v -0.0337347163222 -0.0250193707887 0.0153076923077
v -0.0336241092197 -0.0255828414993 0.014924556213
v -0.0335339144393 -0.0248704459626 0.0153076923077
v -0.0334251499936 -0.025431463739 0.014924556213
v -0.0333331125564 -0.0247215211364 0.0153076923077
v -0.0332261907674 -0.0252800859786 0.014924556213
v -0.0331323106736 -0.0245725963103 0.0153076923077
v -0.0330272315413 -0.0251287082183 0.014924556213
v -0.0329315087907 -0.0244236714842 0.0153076923077
v -0.0328282723151 -0.0249773304579 0.014924556213
v -0.0327307069078 -0.0242747466581 0.0153076923077
v -0.032629313089 -0.0248259526976 0.014924556213
v -0.032529905025 -0.0241258218319 0.0153076923077
v -0.0324303538628 -0.0246745749372 0.014924556213
v -0.0323291031421 -0.0239768970058 0.0153076923077
v -0.0322313946367 -0.0245231971769 0.014924556213
v -0.0321283012592 -0.0238279721797 0.0153076923077
v -0.0320324354105 -0.0243718194165 0.014924556213
v -0.0319274993764 -0.0236790473536 0.0153076923077
v -0.0318334761844 -0.0242204416562 0.014924556213
v -0.0317266974935 -0.0235301225275 0.0153076923077
v -0.0316345169582 -0.0240690638958 0.014924556213
v -0.0315258956106 -0.0233811977013 0.0153076923077
v -0.0314355577321 -0.0239176861355 0.014924556213
v -0.0313250937277 -0.0232322728752 0.0153076923077
v -0.0312365985059 -0.0237663083751 0.014924556213
v -0.0311242918449 -0.0230833480491 0.0153076923077
v -0.0310376392797 -0.0236149306148 0.014924556213
v -0.030923489962 -0.022934423223 0.0153076923077
v -0.0308386800536 -0.0234635528544 0.014924556213
v -0.0307226880791 -0.0227854983968 0.0153076923077
v -0.0306397208274 -0.0233121750941 0.014924556213
v -0.0305218861963 -0.0226365735707 0.014
v -0.0305218861963 -0.0226365735707 0.0153076923077
v -0.0304407616013 -0.0231607973337 0.014924556213
v -0.0302418023751 -0.0230094195734 0.014
v -0.0302418023751 -0.0230094195734 0.014924556213
f 45 4 53
f 5 4 45
f 51 5 45
f 54 45 53
f 54 51 45
f 46 5 51
f 3 50 1
f 3 1 2
f 28 2 5
f 28 5 46
f 30 51 50
f 30 50 3
f 50 53 4
f 50 4 1
f 5 1 4
f 5 2 1
f 54 53 50
f 54 50 51
f 30 46 51
f 30 3 2
f 30 2 28
f 30 28 46
