# Parametric PetalDock simulation geometry; SI units
v -0.0260154321117 0.0203026424892 0.014
v -0.0260154321117 0.0203026424892 0.017031156403
v -0.0257643285429 0.0206203631087 0.014
v -0.0257643285429 0.0206203631087 0.0168473865878
v -0.0257137449949 0.0200672035524 0.0172161220713
v -0.0254655533405 0.020381239735 0.0170392188171
v -0.0254579870068 0.0198676080595 0.0173027419
v -0.0252870949827 0.0197342426149 0.01727564224
v -0.0252270856841 0.0196874108986 0.014
v -0.0252270856841 0.0196874108986 0.0172058952444
v -0.0252122639542 0.0201785207273 0.0171318425314
v -0.0250430213971 0.0200430682169 0.0171089027241
v -0.0249835913143 0.0199955036206 0.014
v -0.0249835913143 0.0199955036206 0.0170428994083
f 12 11 7
f 4 6 11
f 4 11 12
f 4 12 14
f 4 2 6
f 5 7 11
f 5 11 6
f 5 6 2
f 5 1 9
f 5 2 1
f 5 9 10
f 8 12 7
f 8 7 5
f 8 5 10
f 8 10 14
f 8 14 12
f 9 3 13
f 9 1 3
f 14 9 13
f 14 10 9
f 4 13 3
f 4 14 13
f 4 3 1
f 4 1 2
