# Parametric PetalDock simulation geometry; SI units
v 0.0486314971953 0.0059981230848 0.014
v 0.0486314971953 0.0059981230848 0.028968843597
v 0.0487014415301 0.0054008881574 0.014
v 0.0487014415301 0.0054008881574 0.0291526134122
v 0.0490113026702 0.0060449676221 0.0287077574613
v 0.0490817932608 0.00544306837 0.0288846607154
v 0.0493332862044 0.0060846805033 0.0284043648812
v 0.0494042398885 0.0054788270276 0.0285752642497
v 0.0495484287238 0.0061112158021 0.0281070411923
v 0.0496196918369 0.0055027201987 0.0282737807082
v 0.0496239767299 0.00612053376 0.014
v 0.0496239767299 0.00612053376 0.0277941047556
v 0.0496953485001 0.0055111103647 0.014
v 0.0496953485001 0.0055111103647 0.0279571005917
f 5 2 4
f 5 7 2
f 12 2 7
f 6 5 4
f 6 8 7
f 6 7 5
f 9 7 8
f 9 12 7
f 10 14 12
f 10 12 9
f 10 9 8
f 10 13 14
f 10 3 13
f 10 4 3
f 10 6 4
f 10 8 6
f 3 11 13
f 3 1 11
f 2 1 3
f 2 3 4
f 12 13 11
f 12 14 13
f 12 11 1
f 12 1 2
