# Parametric PetalDock simulation geometry; SI units
v -0.0268700576851 0.0268700576851 0.014
v -0.0266932809898 0.0266932809898 0.0140289351852
v -0.0265382974775 0.0271977713608 0.014
v -0.0265165042945 0.0265165042945 0.0141157407407
v -0.0263637034152 0.0270188386545 0.0140289351852
v -0.0263397275992 0.0263397275992 0.01425
v -0.0261891093528 0.0268399059481 0.0141157407407
v -0.0261629509039 0.0261629509039 0.0143888888889
v -0.0260145152905 0.0266609732418 0.01425
v -0.0259861742086 0.0259861742086 0.0145277777778
v -0.0258399212281 0.0264820405355 0.0143888888889
v -0.0258093975133 0.0258093975133 0.0146666666667
v -0.0256653271658 0.0263031078292 0.0145277777778
v -0.025632620818 0.025632620818 0.0148055555556
v -0.0254907331034 0.0261241751229 0.0146666666667
v -0.0254558441227 0.0254558441227 0.0149444444444
v -0.0253161390411 0.0259452424165 0.0148055555556
v -0.0252790674274 0.0252790674274 0.0150833333333
v -0.0251415449787 0.0257663097102 0.0149444444444
v -0.0251022907321 0.0251022907321 0.0152222222222
v -0.0249669509164 0.0255873770039 0.0150833333333
v -0.0249255140368 0.0249255140368 0.0153611111111
v -0.024792356854 0.0254084442976 0.0152222222222
v -0.0247487373415 0.0247487373415 0.0155
v -0.0246177627917 0.0252295115913 0.0153611111111
v -0.0245719606462 0.0245719606462 0.0156388888889
v -0.0244431687293 0.0250505788849 0.0155
v -0.0243951839509 0.0243951839509 0.0157777777778
v -0.024268574667 0.0248716461786 0.0156388888889
v -0.0242184072556 0.0242184072556 0.0159166666667
v -0.0240939806046 0.0246927134723 0.0157777777778
v -0.0240416305603 0.0240416305603 0.0160555555556
v -0.0239193865423 0.024513780766 0.0159166666667
v -0.023864853865 0.023864853865 0.0161944444444
v -0.0237447924799 0.0243348480596 0.0160555555556
v -0.0236880771697 0.0236880771697 0.0163333333333
v -0.0235701984176 0.0241559153533 0.0161944444444
v -0.0235113004745 0.0235113004745 0.0164722222222
v -0.0233956043552 0.023976982647 0.0163333333333
v -0.0233345237792 0.0233345237792 0.014
v -0.0233345237792 0.0233345237792 0.0166111111111
v -0.0232210102928 0.0237980499407 0.0164722222222
v -0.0230464162305 0.0236191172344 0.014
v -0.0230464162305 0.0236191172344 0.0166111111111
f 41 3 1
f 44 3 41
f 40 41 1
f 42 44 43
f 42 3 44
f 15 43 3
f 15 42 43
f 15 3 42
f 40 3 43
f 40 1 3
f 40 43 44
f 40 44 41
