# Parametric PetalDock simulation geometry; SI units
v 0.046135659194 0.0165076028162 0.014
v 0.046135659194 0.0165076028162 0.0240921177588
v 0.0463347589436 0.015940204316 0.014
v 0.0463347589436 0.015940204316 0.0243651471985
v 0.0464959725086 0.0166365249816 0.0240132505338
v 0.0466966272006 0.0160646951751 0.0242760782257
v 0.0468014313872 0.0167458199161 0.0238691839237
v 0.0470034042958 0.0161702334295 0.024123091557
v 0.0470055324847 0.0168188484565 0.0236822508392
v 0.0470772032592 0.0168444926696 0.014
v 0.0470772032592 0.0168444926696 0.0234686609687
v 0.0472083861974 0.0162407518366 0.0239299781199
v 0.047280366269 0.0162655146081 0.014
v 0.047280366269 0.0162655146081 0.0237108262108
f 7 10 1
f 7 1 2
f 8 13 14
f 5 2 4
f 5 7 2
f 12 14 11
f 12 8 14
f 6 5 4
f 6 4 3
f 6 8 7
f 6 7 5
f 6 3 13
f 6 13 8
f 9 12 11
f 9 11 10
f 9 10 7
f 9 7 8
f 9 8 12
f 3 10 13
f 3 1 10
f 2 1 3
f 2 3 4
f 11 13 10
f 11 14 13
