# Parametric PetalDock simulation geometry; SI units
v 0.0319975904589 0.0003926892251 0.014
v 0.0319975904589 0.0003926892251 0.0281666666667
v 0.032 0 0.014
v 0.032 0 0.0281666666667
v 0.0320737051946 0.0003936233404 0.0284881600858
v 0.0320761204675 0 0.0284881600858
v 0.0322904616233 0.0003962834755 0.0287949920093
v 0.0322928932188 0 0.0287949920093
v 0.0326148605437 0.000400264649 0.0291121077565
v 0.0326173165676 0 0.0291121077565
v 0.0329975151607 0.0004049607634 0.014
v 0.0329975151607 0.0004049607634 0.0293888888889
v 0.033 0 0.014
v 0.033 0 0.0293888888889
f 5 2 4
f 5 1 2
f 5 11 1
f 5 12 11
f 5 7 12
f 9 12 7
f 6 5 4
f 6 7 5
f 6 8 7
f 10 14 12
f 10 12 9
f 10 9 7
f 10 7 8
f 3 11 13
f 3 1 11
f 2 1 3
f 2 3 4
f 14 13 11
f 14 11 12
f 10 3 13
f 10 4 3
f 10 13 14
f 10 6 4
f 10 8 6
