# Parametric PetalDock simulation geometry; SI units
v 0.032878316202 -0.0028313113074 0.014
v 0.032878316202 -0.0028313113074 0.0293626360581
v 0.0329105850704 -0.0024276305988 0.014
v 0.0329105850704 -0.0024276305988 0.0293888888889
v 0.0331273943551 -0.0028527606355 0.0295009542333
v 0.0331599076846 -0.0024460217397 0.0295277777778
v 0.0333764725081 -0.0028742099635 0.0296392724085
v 0.0334092302987 -0.0024644128806 0.0296666666667
v 0.0336255506612 -0.0028956592916 0.0297775905837
v 0.0336585529129 -0.0024828040215 0.0298055555556
v 0.0338746288142 -0.0029171086197 0.0299159087589
v 0.0339078755271 -0.0025011951624 0.0299444444444
v 0.0341237069673 -0.0029385579478 0.030054226934
v 0.0341571981412 -0.0025195863033 0.0300833333333
v 0.0343727851203 -0.0029600072759 0.0301925451092
v 0.0344065207554 -0.0025379774442 0.0302222222222
v 0.0346218632734 -0.002981456604 0.0303308632844
v 0.0346558433696 -0.0025563685851 0.0303611111111
v 0.0348709414264 -0.0030029059321 0.0304691814596
v 0.0349051659838 -0.002574759726 0.0305
v 0.0351200195794 -0.0030243552601 0.0306074996347
v 0.0351544885979 -0.0025931508669 0.0306388888889
v 0.0353690977325 -0.0030458045882 0.0307458178099
v 0.0354038112121 -0.0026115420078 0.0307777777778
v 0.0356181758855 -0.0030672539163 0.0308841359851
v 0.0356531338263 -0.0026299331487 0.0309166666667
v 0.0358672540386 -0.0030887032444 0.0310224541603
v 0.0359024564404 -0.0026483242896 0.0310555555556
v 0.0361163321916 -0.0031101525725 0.0311607723355
v 0.0361517790546 -0.0026667154305 0.0311944444444
v 0.0363654103447 -0.0031316019006 0.0312990905106
v 0.0364011016688 -0.0026851065714 0.0313333333333
v 0.0366144884977 -0.0031530512287 0.0314374086858
v 0.0366504242829 -0.0027034977123 0.0314722222222
v 0.0368635666508 -0.0031745005567 0.031575726861
v 0.0368997468971 -0.0027218888532 0.0316111111111
v 0.0371126448038 -0.0031959498848 0.0317140450362
v 0.0371490695113 -0.0027402799941 0.03175
v 0.0373617229569 -0.0032173992129 0.0318477526055
v 0.0373983921255 -0.002758671135 0.0318842592593
v 0.0376108011099 -0.003238848541 0.031934201465
v 0.0376477147396 -0.0027770622759 0.0319710648148
v 0.0378598792629 -0.0032602978691 0.014
v 0.0378598792629 -0.0032602978691 0.0319630177515
v 0.0378970373538 -0.0027954534168 0.014
v 0.0378970373538 -0.0027954534168 0.032
f 33 43 44
f 33 1 43
f 40 46 45
f 42 44 46
f 42 46 40
f 42 40 39
f 6 20 3
f 6 3 4
f 41 44 42
f 41 42 39
f 41 33 44
f 41 39 33
f 37 33 39
f 37 39 40
f 37 40 38
f 26 20 6
f 5 2 1
f 11 38 2
f 28 38 26
f 28 2 38
f 29 37 38
f 29 38 11
f 29 33 37
f 8 4 2
f 8 2 28
f 19 11 2
f 19 29 11
f 19 2 5
f 19 33 29
f 10 28 26
f 10 26 6
f 10 8 28
f 44 45 46
f 44 43 45
f 3 45 43
f 3 43 1
f 40 45 3
f 40 3 20
f 2 3 1
f 2 4 3
f 26 40 20
f 26 38 40
f 19 5 1
f 19 1 33
f 10 4 8
f 10 6 4
