# Parametric PetalDock simulation geometry; SI units
v 0.0287575829022 -0.0140357196332 0.014
v 0.0287575829022 -0.0140357196332 0.0212891737892
v 0.0288259904227 -0.0140691073064 0.0214527053124
v 0.02892765738 -0.0136817629898 0.014
v 0.02892765738 -0.0136817629898 0.0215313390313
v 0.0289964694675 -0.0137143086834 0.0217004325932
v 0.0290207985591 -0.0141641873552 0.0215840152242
v 0.0291924297138 -0.0138069909773 0.0218379228575
v 0.0293123495388 -0.0143064847041 0.0216478013068
v 0.0294857049476 -0.0139456998325 0.0219106289987
v 0.0296562573679 -0.0144743358718 0.014
v 0.0296562573679 -0.0144743358718 0.0216348528015
v 0.0298316466731 -0.0141093180832 0.014
v 0.0298316466731 -0.0141093180832 0.0219078822412
f 4 10 13
f 14 13 10
f 14 10 9
f 7 1 11
f 7 9 10
f 12 14 9
f 12 7 11
f 12 9 7
f 5 10 4
f 8 7 10
f 8 10 5
f 6 5 2
f 6 8 5
f 3 6 2
f 3 2 1
f 3 1 7
f 3 7 8
f 3 8 6
f 4 13 11
f 4 11 1
f 12 11 13
f 12 13 14
f 2 4 1
f 2 5 4
