# Parametric PetalDock simulation geometry; SI units
v 0.0065944547168 -0.048554229136 0.014
v 0.0065944547168 -0.048554229136 0.0287325681204
v 0.0066459565243 -0.0489334311576 0.0284803104202
v 0.0066896176485 -0.049254903109 0.0281846371216
v 0.0067187910789 -0.0494697037995 0.0278926618148
v 0.0067290354254 -0.0495451317714 0.014
v 0.0067290354254 -0.0495451317714 0.0275845386807
v 0.0071897932483 -0.0484696489883 0.014
v 0.0071897932483 -0.0484696489883 0.0284605887939
v 0.0072459445699 -0.0488481904503 0.028218493604
v 0.0072935473618 -0.0491691024063 0.0279317060562
v 0.0073253545305 -0.0493835289199 0.0276458873312
v 0.0073365237228 -0.0494588254982 0.014
v 0.0073365237228 -0.0494588254982 0.0273433048433
f 5 2 1
f 5 1 6
f 5 6 7
f 5 7 14
f 12 13 8
f 12 14 13
f 12 5 14
f 9 12 8
f 3 2 5
f 4 5 12
f 4 3 5
f 10 9 2
f 10 2 3
f 10 12 9
f 11 3 4
f 11 10 3
f 11 4 12
f 11 12 10
f 8 6 1
f 8 13 6
f 14 7 6
f 14 6 13
f 9 8 1
f 9 1 2
