# Parametric PetalDock simulation geometry; SI units
v 0.0187514881859 0.0452700970931 0.014
v 0.0187514881859 0.0452700970931 0.023
v 0.0188979347953 0.0456236504836 0.0229619397663
v 0.019022086236 0.0459233785755 0.0228535533906
v 0.0191050415765 0.0461236504836 0.0226913417162
v 0.0191341716183 0.0461939766256 0.014
v 0.0191341716183 0.0461939766256 0.0225
v 0.019305609963 0.0450365787328 0.014
v 0.019305609963 0.0450365787328 0.0227269705603
v 0.0194563841892 0.0453883083763 0.0226991120744
v 0.0195842044063 0.04568649037 0.0225996457573
v 0.0196696111448 0.0458857292084 0.0224436144354
v 0.0196996020031 0.0459556925845 0.014
v 0.0196996020031 0.0459556925845 0.0222578347578
f 11 8 13
f 11 13 14
f 5 14 7
f 5 7 2
f 5 2 4
f 9 8 11
f 3 4 2
f 3 11 4
f 12 11 14
f 12 14 5
f 12 4 11
f 12 5 4
f 10 2 9
f 10 3 2
f 10 9 11
f 10 11 3
f 7 1 2
f 7 6 1
f 8 1 6
f 8 6 13
f 14 6 7
f 14 13 6
f 9 2 1
f 9 1 8
