# Parametric PetalDock simulation geometry; SI units
v -0.0486469976103 0.011552905414 0.014
v -0.0486469976103 0.011552905414 0.0256481481481
v -0.0485729369663 0.0115353171628 0.025911796366
v -0.0485015626597 0.0121490089952 0.014
v -0.0485015626597 0.0121490089952 0.025405982906
v -0.0484277234273 0.0121305132303 0.0256640690852
v -0.048362030096 0.011485230061 0.0261543526232
v -0.0482174470836 0.0120778417482 0.0259004449899
v -0.0480463856585 0.0114102694157 0.0263786997608
v -0.047902746296 0.0119990133045 0.0261158720689
v -0.0476740576581 0.0113218473058 0.014
v -0.0476740576581 0.0113218473058 0.026549382716
v -0.0475315314065 0.0119060288153 0.014
v -0.0475315314065 0.0119060288153 0.0262763532764
f 10 12 14
f 10 14 8
f 5 8 14
f 3 5 2
f 9 12 10
f 9 7 3
f 9 8 7
f 9 10 8
f 9 3 2
f 9 1 11
f 9 2 1
f 9 11 12
f 6 8 5
f 6 5 3
f 6 7 8
f 6 3 7
f 11 4 13
f 11 1 4
f 14 11 13
f 14 12 11
f 5 4 1
f 5 1 2
f 5 13 4
f 5 14 13
