# Parametric PetalDock simulation geometry; SI units
v 0.0489852421161 -0.0012025201976 0.014
v 0.0489852421161 -0.0012025201976 0.0293888888889
v 0.0489963103901 -0.000601305376 0.014
v 0.0489963103901 -0.000601305376 0.0293888888889
v 0.0493678102914 -0.0012119117192 0.0291121077565
v 0.0493789650071 -0.0006060014904 0.0291121077565
v 0.04969213593 -0.0012198734667 0.0287949920093
v 0.0497033639275 -0.0006099826639 0.0287949920093
v 0.0499088433934 -0.0012251933364 0.0284881600858
v 0.0499201203562 -0.0006126427991 0.0284881600858
v 0.0499849409348 -0.0012270614261 0.014
v 0.0499849409348 -0.0012270614261 0.0281666666667
v 0.049996235092 -0.0006135769143 0.014
v 0.049996235092 -0.0006135769143 0.0281666666667
f 9 1 11
f 9 11 12
f 9 12 14
f 8 13 3
f 8 14 13
f 5 2 1
f 5 1 9
f 4 8 3
f 4 2 5
f 10 9 14
f 10 14 8
f 10 8 9
f 7 9 8
f 7 5 9
f 7 8 5
f 6 5 8
f 6 8 4
f 6 4 5
f 3 11 1
f 3 13 11
f 14 12 11
f 14 11 13
f 4 3 1
f 4 1 2
