# Parametric PetalDock simulation geometry; SI units
v 0.0216875204581 0.0382838276088 0.014
v 0.0216875204581 0.0382838276088 0.0191538461538
v 0.0218107450062 0.0385013493566 0.0191662116176
v 0.0219339695542 0.0387188711043 0.0192033080089
v 0.0220571941023 0.0389363928521 0.0192606837607
v 0.0221556888839 0.0380148056693 0.014
v 0.0221556888839 0.0380148056693 0.0187692307692
v 0.0221804186503 0.0391539145999 0.0193200379867
v 0.0222815734799 0.0382307988834 0.0187828327794
v 0.0223036431984 0.0393714363477 0.0193793922127
v 0.0224074580758 0.0384467920974 0.0188236388097
v 0.0224268677465 0.0395889580954 0.0194387464387
v 0.0225333426717 0.0386627853114 0.0188867521368
v 0.0225500922945 0.0398064798432 0.0194981006648
v 0.0226592272677 0.0388787785255 0.0189520417854
v 0.0226733168426 0.040024001591 0.0195574548908
v 0.0227851118636 0.0390947717395 0.019017331434
v 0.0227965413906 0.0402415233388 0.0196168091168
v 0.0229109964595 0.0393107649535 0.0190826210826
v 0.0229197659387 0.0404590450866 0.0196761633428
v 0.0230368810555 0.0395267581676 0.0191479107312
v 0.0230429904867 0.0406765668343 0.0197355175689
v 0.0231627656514 0.0397427513816 0.0192132003799
v 0.0231662150348 0.0408940885821 0.0197948717949
v 0.0232886502473 0.0399587445956 0.0192784900285
v 0.0232894395829 0.0411116103299 0.0198542260209
v 0.0234126641309 0.0413291320777 0.0199135802469
v 0.0234145348432 0.0401747378097 0.0193437796771
v 0.023535888679 0.0415466538254 0.0199729344729
v 0.0235404194392 0.0403907310237 0.0194090693257
v 0.023659113227 0.0417641755732 0.020032288699
v 0.0236663040351 0.0406067242377 0.0194743589744
v 0.0237823377751 0.041981697321 0.020091642925
v 0.023792188631 0.0408227174517 0.019539648623
v 0.0239055623231 0.0421992190688 0.020150997151
v 0.023918073227 0.0410387106658 0.0196049382716
v 0.0240287868712 0.0424167408165 0.020210351377
v 0.0240439578229 0.0412547038798 0.0196702279202
v 0.0241520114193 0.0426342625643 0.014
v 0.0241520114193 0.0426342625643 0.020269705603
v 0.0241698424188 0.0414706970938 0.0197355175689
v 0.0242957270148 0.0416866903079 0.0198008072175
v 0.0244216116107 0.0419026835219 0.0198660968661
v 0.0245474962066 0.0421186767359 0.0199313865147
v 0.0246733808026 0.04233466995 0.014
v 0.0246733808026 0.04233466995 0.0199966761633
f 46 40 2
f 46 2 7
f 35 39 1
f 35 40 39
f 35 2 40
f 9 6 45
f 9 7 6
f 9 46 7
f 8 1 2
f 8 35 1
f 8 2 35
f 21 45 46
f 21 9 45
f 21 46 9
f 6 39 45
f 6 1 39
f 2 1 6
f 2 6 7
f 46 45 39
f 46 39 40
