# Parametric PetalDock simulation geometry; SI units
v 0.0311340784706 0.007393859465 0.014
v 0.0311340784706 0.007393859465 0.0256481481481
v 0.0312081391146 0.0074114477162 0.025911796366
v 0.0312224681612 0.007011239685 0.014
v 0.0312224681612 0.007011239685 0.0258903133903
v 0.0312967390635 0.0070279177738 0.0261595236467
v 0.0314190459849 0.007461534818 0.0261543526232
v 0.0315082446987 0.0070754129525 0.0264082602565
v 0.0317346904224 0.0075364954633 0.0263786997608
v 0.0318247852512 0.0071464945106 0.0266415274527
v 0.0321070184228 0.0076249175733 0.014
v 0.0321070184228 0.0076249175733 0.026549382716
v 0.0321981702913 0.0072303409252 0.014
v 0.0321981702913 0.0072303409252 0.0268224121557
f 6 13 14
f 6 4 13
f 5 4 6
f 5 6 2
f 8 6 14
f 8 14 10
f 8 10 7
f 3 12 2
f 3 2 6
f 3 6 8
f 3 8 7
f 9 12 3
f 9 3 7
f 9 7 10
f 9 14 12
f 9 10 14
f 12 14 13
f 12 13 11
f 4 11 13
f 4 1 11
f 2 12 11
f 2 11 1
f 5 1 4
f 5 2 1
