# Parametric PetalDock simulation geometry; SI units
v -0.0464253040237 -0.0185658596976 0.014
v -0.0464253040237 -0.0185658596976 0.0227421652422
v -0.0463546257067 -0.0185375948592 0.0229390689969
v -0.0461939766256 -0.0191341716183 0.014
v -0.0461939766256 -0.0191341716183 0.0225
v -0.0461533508891 -0.0184571034095 0.0231074610239
v -0.0461236504836 -0.0191050415765 0.0226913417162
v -0.0459233785755 -0.019022086236 0.0228535533906
v -0.045852121837 -0.0183366394419 0.0232247674581
v -0.0456236504836 -0.0188979347953 0.0229619397663
v -0.0454967979432 -0.0181945425036 0.014
v -0.0454967979432 -0.0181945425036 0.0232730294397
v -0.0452700970931 -0.0187514881859 0.014
v -0.0452700970931 -0.0187514881859 0.023
f 10 14 12
f 10 13 14
f 10 4 13
f 10 8 4
f 3 2 5
f 9 10 12
f 9 3 6
f 9 6 8
f 9 8 10
f 9 12 2
f 9 2 3
f 7 5 4
f 7 4 8
f 7 3 5
f 7 8 6
f 7 6 3
f 11 13 4
f 11 4 1
f 11 1 2
f 11 2 12
f 14 13 11
f 14 11 12
f 5 1 4
f 5 2 1
