# Parametric PetalDock simulation geometry; SI units
v 0.0075223231055 -0.0433522162651 0.014
v 0.0075223231055 -0.0433522162651 0.0299230769231
v 0.0075650635776 -0.0435985356757 0.0299008190883
v 0.0076078040498 -0.0438448550863 0.029834045584
v 0.007650544522 -0.0440911744969 0.0297307692308
v 0.0076932849942 -0.0443374939075 0.0296239316239
v 0.0077360254664 -0.0445838133181 0.0295170940171
v 0.0077787659386 -0.0448301327287 0.0294102564103
v 0.0078215064108 -0.0450764521393 0.0293034188034
v 0.007864246883 -0.0453227715499 0.0291965811966
v 0.0079069873552 -0.0455690909605 0.0290897435897
v 0.0079497278274 -0.0458154103711 0.0289829059829
v 0.0079924682995 -0.0460617297817 0.0288760683761
v 0.0080352087717 -0.0463080491923 0.0287692307692
v 0.00805375507 -0.043256641447 0.014
v 0.00805375507 -0.043256641447 0.0295384615385
v 0.0080779492439 -0.0465543686029 0.0286623931624
v 0.008099515042 -0.0435024178188 0.0295174402501
v 0.0081206897161 -0.0468006880135 0.0285555555556
v 0.008145275014 -0.0437481941907 0.0294543763849
v 0.0081634301883 -0.0470470074241 0.0284487179487
v 0.008191034986 -0.0439939705625 0.0293568376068
v 0.0082061706605 -0.0472933268347 0.0283418803419
v 0.008236794958 -0.0442397469344 0.0292559354226
v 0.0082489111327 -0.0475396462453 0.028235042735
v 0.00828255493 -0.0444855233063 0.0291550332384
v 0.0082916516049 -0.0477859656559 0.0281282051282
v 0.008328314902 -0.0447312996781 0.0290541310541
v 0.0083343920771 -0.0480322850665 0.0280213675214
v 0.0083740748739 -0.04497707605 0.0289532288699
v 0.0083771325493 -0.0482786044771 0.014
v 0.0083771325493 -0.0482786044771 0.0279145299145
v 0.0084198348459 -0.0452228524218 0.0288523266857
v 0.0084655948179 -0.0454686287937 0.0287514245014
v 0.0085113547899 -0.0457144051656 0.0286505223172
v 0.0085571147619 -0.0459601815374 0.028549620133
v 0.0086028747339 -0.0462059579093 0.0284487179487
v 0.0086486347059 -0.0464517342811 0.0283478157645
v 0.0086943946779 -0.046697510653 0.0282469135802
v 0.0087401546499 -0.0469432870248 0.028146011396
v 0.0087859146218 -0.0471890633967 0.0280451092118
v 0.0088316745938 -0.0474348397686 0.0279442070275
v 0.0088774345658 -0.0476806161404 0.0278433048433
v 0.0089231945378 -0.0479263925123 0.0277424026591
v 0.0089689545098 -0.0481721688841 0.014
v 0.0089689545098 -0.0481721688841 0.0276415004748
f 13 1 31
f 28 45 15
f 3 2 1
f 3 1 13
f 29 32 46
f 40 46 45
f 40 45 28
f 4 3 13
f 22 28 15
f 44 46 40
f 44 4 46
f 8 29 46
f 18 15 16
f 18 22 15
f 18 16 2
f 18 2 3
f 26 28 22
f 26 22 4
f 26 4 44
f 26 40 28
f 26 44 40
f 19 29 8
f 5 4 13
f 5 46 4
f 5 8 46
f 20 4 22
f 20 22 18
f 20 3 4
f 20 18 3
f 15 31 1
f 15 45 31
f 46 32 31
f 46 31 45
f 16 15 1
f 16 1 2
f 19 31 32
f 19 13 31
f 19 32 29
f 5 13 19
f 5 19 8
