# Parametric PetalDock simulation geometry; SI units
v -0.0374931960155 0.0315477456016 0.014
v -0.0374931960155 0.0315477456016 0.0166373639419
v -0.0373019041991 0.0313867877159 0.0164990457667
v -0.0371106123827 0.0312258298302 0.0163607275915
v -0.0371032334788 0.0320054693047 0.014
v -0.0371032334788 0.0320054693047 0.0166111111111
v -0.0369193205663 0.0310648719444 0.0162224094163
v -0.0369139312672 0.031842176094 0.0164722222222
v -0.0367280287499 0.0309039140587 0.0160840912411
v -0.0367246290556 0.0316788828833 0.0163333333333
v -0.0365367369335 0.030742956173 0.015945773066
v -0.0365353268439 0.0315155896725 0.0161944444444
v -0.0363460246323 0.0313522964618 0.0160555555556
v -0.0363454451171 0.0305819982873 0.0158074548908
v -0.0361567224207 0.031189003251 0.0159166666667
v -0.0361541533007 0.0304210404015 0.0156691367156
v -0.0359674202091 0.0310257100403 0.0157777777778
v -0.0359628614843 0.0302600825158 0.0155308185404
v -0.0357781179974 0.0308624168296 0.0156388888889
v -0.0357715696678 0.0300991246301 0.0153925003653
v -0.0355888157858 0.0306991236188 0.0155
v -0.0355802778514 0.0299381667444 0.0152541821901
v -0.0353995135742 0.0305358304081 0.0153611111111
v -0.035388986035 0.0297772088587 0.0151158640149
v -0.0352102113626 0.0303725371974 0.0152222222222
v -0.0351976942186 0.0296162509729 0.0149775458397
v -0.0350209091509 0.0302092439866 0.0150833333333
v -0.0350064024022 0.0294552930872 0.0148392276645
v -0.0348316069393 0.0300459507759 0.0149444444444
v -0.0348151105858 0.0292943352015 0.0147009094894
v -0.0346423047277 0.0298826575651 0.0148055555556
v -0.0346238187694 0.0291333773158 0.0145625913142
v -0.034453002516 0.0297193643544 0.0146666666667
v -0.034432526953 0.02897241943 0.014424273139
v -0.0342637003044 0.0295560711437 0.0145277777778
v -0.0342412351366 0.0288114615443 0.0142859549638
v -0.0340743980928 0.0293927779329 0.0143888888889
v -0.0340499433202 0.0286505036586 0.0141522473945
v -0.0338850958812 0.0292294847222 0.01425
v -0.0338586515038 0.0284895457729 0.014065798535
v -0.0336957936695 0.0290661915114 0.0141157407407
v -0.0336673596874 0.0283285878872 0.014
v -0.0336673596874 0.0283285878872 0.0140369822485
v -0.0335064914579 0.0289028983007 0.0140289351852
v -0.0333171892463 0.02873960509 0.014
f 43 42 45
f 43 6 2
f 43 45 6
f 35 45 5
f 35 19 45
f 35 5 19
f 10 6 45
f 10 45 19
f 10 5 6
f 10 19 5
f 34 16 1
f 34 43 16
f 7 43 2
f 7 16 43
f 7 2 1
f 7 1 16
f 40 1 42
f 40 38 1
f 36 34 1
f 36 1 38
f 6 1 2
f 6 5 1
f 42 1 5
f 42 5 45
f 36 43 34
f 36 42 43
f 36 40 42
f 36 38 40
