# Parametric PetalDock simulation geometry; SI units
v 0.0475315314065 -0.0119060288153 0.014
v 0.0475315314065 -0.0119060288153 0.0262763532764
v 0.0476740576581 -0.0113218473058 0.014
v 0.0476740576581 -0.0113218473058 0.026549382716
v 0.047902746296 -0.0119990133045 0.0261158720689
v 0.0480463856585 -0.0114102694157 0.0263786997608
v 0.0482174470836 -0.0120778417482 0.0259004449899
v 0.048362030096 -0.011485230061 0.0261543526232
v 0.0484277234273 -0.0121305132303 0.0256640690852
v 0.0485015626597 -0.0121490089952 0.014
v 0.0485015626597 -0.0121490089952 0.025405982906
v 0.0485729369663 -0.0115353171628 0.025911796366
v 0.0486469976103 -0.011552905414 0.014
v 0.0486469976103 -0.011552905414 0.0256481481481
f 5 4 2
f 5 2 7
f 11 7 2
f 12 11 14
f 6 4 5
f 6 8 12
f 6 7 8
f 6 5 7
f 6 12 14
f 6 13 3
f 6 14 13
f 6 3 4
f 9 7 11
f 9 11 12
f 9 8 7
f 9 12 8
f 3 13 10
f 3 10 1
f 2 3 1
f 2 4 3
f 11 10 13
f 11 13 14
f 11 1 10
f 11 2 1
