# Parametric PetalDock simulation geometry; SI units
v 0.0099661963275 -0.0314590993317 0.014
v 0.0099661963275 -0.0314590993317 0.0249112060779
v 0.0100416978149 -0.0316974258418 0.0249527540361
v 0.0101171993022 -0.0319357523519 0.0249943019943
v 0.0101927007895 -0.032174078862 0.0250358499525
v 0.0102682022769 -0.032412405372 0.0250773979107
v 0.0103437037642 -0.0326507318821 0.0251189458689
v 0.0103514974332 -0.0313344299596 0.014
v 0.0103514974332 -0.0313344299596 0.0246381766382
v 0.0104192052515 -0.0328890583922 0.0251604938272
v 0.0104299178683 -0.0315718120047 0.0246737891738
v 0.0104947067388 -0.0331273849023 0.0252020417854
v 0.0105083383034 -0.0318091940499 0.0247094017094
v 0.0105702082262 -0.0333657114124 0.0252435897436
v 0.0105867587385 -0.032046576095 0.024745014245
v 0.0106457097135 -0.0336040379225 0.0252851377018
v 0.0106651791736 -0.0322839581402 0.0247806267806
v 0.0107212112008 -0.0338423644326 0.02532668566
v 0.0107435996087 -0.0325213401853 0.0248162393162
v 0.0107967126882 -0.0340806909427 0.0253682336182
v 0.0108220200438 -0.0327587222305 0.0248518518519
v 0.0108722141755 -0.0343190174528 0.0254097815764
v 0.0109004404789 -0.0329961042756 0.0248874643875
v 0.0109477156628 -0.0345573439628 0.0254513295347
v 0.010978860914 -0.0332334863208 0.0249230769231
v 0.0110232171502 -0.0347956704729 0.0254928774929
v 0.0110572813491 -0.0334708683659 0.0249586894587
v 0.0110987186375 -0.035033996983 0.0255344254511
v 0.0111357017842 -0.0337082504111 0.0249943019943
v 0.0111742201248 -0.0352723234931 0.0255759734093
v 0.0112141222193 -0.0339456324562 0.0250299145299
v 0.0112497216121 -0.0355106500032 0.0256175213675
v 0.0112925426544 -0.0341830145013 0.0250655270655
v 0.0113252230995 -0.0357489765133 0.0256576843938
v 0.0113709630895 -0.0344203965465 0.0251011396011
v 0.0114007245868 -0.0359873030234 0.0256836518677
v 0.0114493835246 -0.0346577785916 0.0251367521368
v 0.0114762260741 -0.0362256295335 0.014
v 0.0114762260741 -0.0362256295335 0.0256923076923
v 0.0115278039597 -0.0348951606368 0.0251723646724
v 0.0116062243948 -0.0351325426819 0.025207977208
v 0.0116846448299 -0.0353699247271 0.0252435897436
v 0.011763065265 -0.0356073067722 0.0252780151947
v 0.0118414857001 -0.0358446888174 0.0253002730294
v 0.0119199061352 -0.0360820708625 0.014
v 0.0119199061352 -0.0360820708625 0.0253076923077
f 32 34 9
f 32 38 39
f 36 39 46
f 36 32 39
f 36 34 32
f 43 34 36
f 26 32 9
f 42 34 43
f 44 36 46
f 44 46 43
f 44 43 36
f 3 9 2
f 3 26 9
f 24 32 26
f 12 32 24
f 12 2 1
f 10 26 3
f 10 3 2
f 10 24 26
f 41 34 42
f 41 37 34
f 41 42 43
f 11 8 9
f 11 9 34
f 11 34 37
f 11 45 8
f 33 45 11
f 33 11 37
f 8 45 38
f 8 38 1
f 2 8 1
f 2 9 8
f 46 38 45
f 46 39 38
f 12 1 38
f 12 38 32
f 10 12 24
f 10 2 12
f 33 46 45
f 33 43 46
f 33 41 43
f 33 37 41
