# Parametric PetalDock simulation geometry; SI units
v 0.0247215010193 0.0218597206605 0.014
v 0.0247215010193 0.0218597206605 0.0166111111111
v 0.0249087851179 0.0220253246049 0.0164722222222
v 0.0249878919347 0.0215547038175 0.014
v 0.0249878919347 0.0215547038175 0.0166111111111
v 0.0250960692165 0.0221909285493 0.0163333333333
v 0.0251771941463 0.0217179970282 0.0164722222222
v 0.0252833533152 0.0223565324937 0.0161944444444
v 0.025366496358 0.021881290239 0.0163333333333
v 0.0254706374138 0.0225221364381 0.0160555555556
v 0.0255557985696 0.0220445834497 0.0161944444444
v 0.0256579215124 0.0226877403825 0.0159166666667
v 0.0257451007812 0.0222078766604 0.0160555555556
v 0.0258452056111 0.0228533443269 0.0157777777778
v 0.0259344029928 0.0223711698712 0.0159166666667
v 0.0260324897097 0.0230189482713 0.0156388888889
v 0.0261237052045 0.0225344630819 0.0157777777778
v 0.0262197738083 0.0231845522157 0.0155
v 0.0263130074161 0.0226977562926 0.0156388888889
v 0.026407057907 0.0233501561601 0.0153611111111
v 0.0265023096277 0.0228610495034 0.0155
v 0.0265943420056 0.0235157601045 0.0152222222222
v 0.0266916118394 0.0230243427141 0.0153611111111
v 0.0267816261042 0.0236813640488 0.0150833333333
v 0.026880914051 0.0231876359249 0.0152222222222
v 0.0269689102028 0.0238469679932 0.0149444444444
v 0.0270702162626 0.0233509291356 0.0150833333333
v 0.0271561943015 0.0240125719376 0.0148055555556
v 0.0272595184742 0.0235142223463 0.0149444444444
v 0.0273434784001 0.024178175882 0.0146666666667
v 0.0274488206859 0.0236775155571 0.0148055555556
v 0.0275307624987 0.0243437798264 0.0145277777778
v 0.0276381228975 0.0238408087678 0.0146666666667
v 0.0277180465974 0.0245093837708 0.0143888888889
v 0.0278274251091 0.0240041019786 0.0145277777778
v 0.027905330696 0.0246749877152 0.01425
v 0.0280167273207 0.0241673951893 0.0143888888889
v 0.0280926147946 0.0248405916596 0.0141157407407
v 0.0282060295324 0.0243306884 0.01425
v 0.0282798988933 0.025006195604 0.0140289351852
v 0.028395331744 0.0244939816108 0.0141157407407
v 0.0284671829919 0.0251717995484 0.014
v 0.0285846339556 0.0246572748215 0.0140289351852
v 0.0287739361672 0.0248205680322 0.014
f 5 44 42
f 5 42 2
f 38 42 1
f 38 1 18
f 38 18 42
f 6 1 2
f 6 18 1
f 6 2 42
f 6 42 18
f 39 4 44
f 39 44 23
f 39 23 4
f 7 5 4
f 7 44 5
f 19 4 23
f 19 23 44
f 4 42 44
f 4 1 42
f 5 1 4
f 5 2 1
f 19 7 4
f 19 44 7
