# Parametric PetalDock simulation geometry; SI units
v -0.0077840490234 0.0483777694897 0.014
v -0.0077840490234 0.0483777694897 0.0281875593542
v -0.0077443344875 0.0481309441352 0.0283003323837
v -0.0077046199517 0.0478841187807 0.0284131054131
v -0.0076649054159 0.0476372934261 0.0285258784425
v -0.00762519088 0.0473904680716 0.028638651472
v -0.0075854763442 0.047143642717 0.0287514245014
v -0.0075457618084 0.0468968173625 0.0288641975309
v -0.0075060472725 0.046649992008 0.0289769705603
v -0.0074663327367 0.0464031666534 0.0290897435897
v -0.0074266182009 0.0461563412989 0.0292025166192
v -0.007386903665 0.0459095159443 0.0293152896486
v -0.0073471891292 0.0456626905898 0.0294280626781
v -0.0073074745934 0.0454158652353 0.0295408357075
v -0.0072677600575 0.0451690398807 0.0296536087369
v -0.0072280455217 0.0449222145262 0.0297663817664
v -0.0071897932483 0.0484696489883 0.014
v -0.0071897932483 0.0484696489883 0.0284605887939
v -0.0071883309859 0.0446753891716 0.0298791547958
v -0.0071531106297 0.0482223548608 0.028579297246
v -0.00714861645 0.0444285638171 0.0299919278253
v -0.0071164280111 0.0479750607333 0.028698005698
v -0.0071089019142 0.0441817384626 0.0301047008547
v -0.0070797453925 0.0477277666058 0.02881671415
v -0.0070691873784 0.043934913108 0.0302137147832
v -0.0070430627739 0.0474804724783 0.0289354226021
v -0.0070294728425 0.0436880877535 0.0302841979266
v -0.0070063801552 0.0472331783508 0.0290541310541
v -0.0069897583067 0.0434412623989 0.014
v -0.0069897583067 0.0434412623989 0.0303076923077
v -0.0069696975366 0.0469858842233 0.0291728395062
v -0.006933014918 0.0467385900958 0.0292915479582
v -0.0068963322994 0.0464912959683 0.0294102564103
v -0.0068596496808 0.0462440018409 0.0295289648623
v -0.0068229670622 0.0459967077134 0.0296476733143
v -0.0067862844436 0.0457494135859 0.0297663817664
v -0.0067496018249 0.0455021194584 0.0298850902184
v -0.0067129192063 0.0452548253309 0.0300037986705
v -0.0066762365877 0.0450075312034 0.0301225071225
v -0.0066395539691 0.0447602370759 0.0302412155745
v -0.0066028713505 0.0445129429484 0.0303599240266
v -0.0065661887319 0.0442656488209 0.0304786324786
v -0.0065295061133 0.0440183546934 0.0305933839823
v -0.0064928234946 0.0437710605659 0.0306675767648
v -0.006456140876 0.0435237664385 0.014
v -0.006456140876 0.0435237664385 0.0306923076923
f 28 45 17
f 28 17 18
f 25 1 29
f 37 46 45
f 37 45 28
f 19 2 1
f 19 1 25
f 30 25 29
f 44 46 37
f 27 30 46
f 27 46 44
f 27 25 30
f 27 44 25
f 23 19 25
f 43 25 44
f 43 23 25
f 20 18 2
f 20 2 36
f 42 2 43
f 42 43 44
f 8 2 19
f 38 20 36
f 38 31 20
f 3 43 2
f 3 2 8
f 3 8 43
f 14 23 43
f 14 43 8
f 14 19 23
f 14 8 19
f 41 38 36
f 41 36 2
f 41 2 42
f 29 17 45
f 29 1 17
f 2 18 17
f 2 17 1
f 30 29 45
f 30 45 46
f 31 18 20
f 31 28 18
f 38 28 31
f 38 37 28
f 41 42 44
f 41 44 37
f 41 37 38
