# Parametric PetalDock simulation geometry; SI units
v -0.02216144551 -0.0244513871367 0.014
v -0.02216144551 -0.0244513871367 0.0166111111111
v -0.0219044510241 -0.0241678374168 0.016811771776
v -0.0218597206605 -0.0247215010193 0.014
v -0.0218597206605 -0.0247215010193 0.0166111111111
v -0.021686581619 -0.0239274555714 0.0169121147719
v -0.0216062251171 -0.0244348189325 0.016811771776
v -0.0215410059367 -0.0237668375574 0.0168945233466
v -0.0214898865551 -0.0237104360114 0.014
v -0.0214898865551 -0.0237104360114 0.0168333333333
v -0.0213913219722 -0.0241917815947 0.0169121147719
v -0.0212477282815 -0.0240293892373 0.0168945233466
v -0.0211973048829 -0.0239723646248 0.014
v -0.0211973048829 -0.0239723646248 0.0168333333333
f 12 4 13
f 14 12 13
f 5 4 12
f 10 12 14
f 7 2 5
f 8 10 9
f 8 6 12
f 8 12 10
f 3 2 7
f 3 1 2
f 3 6 8
f 3 9 1
f 3 8 9
f 11 12 6
f 11 6 3
f 11 3 7
f 11 5 12
f 11 7 5
f 9 13 4
f 9 4 1
f 5 1 4
f 5 2 1
f 10 13 9
f 10 14 13
