# Parametric PetalDock simulation geometry; SI units
v 0.0386289749537 -0.0301463479385 0.014
v 0.0386289749537 -0.0301463479385 0.017031156403
v 0.0389306620705 -0.0303817868752 0.0172161220713
v 0.0389960083258 -0.0296700410288 0.014
v 0.0389960083258 -0.0296700410288 0.0172674318796
v 0.0391864200586 -0.0305813823682 0.0173027419
v 0.0393005619241 -0.0299017600725 0.0174435691123
v 0.0393573120827 -0.0307147478127 0.01727564224
v 0.0394173213813 -0.030761579529 0.014
v 0.0394173213813 -0.030761579529 0.0172058952444
v 0.0395587499978 -0.0300982019923 0.0175224696596
v 0.0397312657532 -0.0302294602867 0.0174900216176
v 0.0397918452304 -0.0302755520702 0.014
v 0.0397918452304 -0.0302755520702 0.0174154613193
f 6 1 9
f 2 1 6
f 10 6 9
f 7 14 5
f 7 11 14
f 7 6 11
f 8 11 6
f 8 6 10
f 3 5 2
f 3 7 5
f 3 2 6
f 3 6 7
f 12 10 14
f 12 8 10
f 12 14 11
f 12 11 8
f 4 13 9
f 4 9 1
f 5 13 4
f 5 14 13
f 5 4 1
f 5 1 2
f 10 9 13
f 10 13 14
