# Parametric PetalDock simulation geometry; SI units
v 0.0178306178162 -0.040225229251 0.014
v 0.0178306178162 -0.040225229251 0.0222307692308
v 0.0179319281447 -0.0404537816899 0.0222332423235
v 0.0180332384732 -0.0406823341288 0.0222406616018
v 0.0181345488017 -0.0409108865677 0.0222521367521
v 0.0182358591302 -0.0411394390067 0.0222640075973
v 0.0183229006443 -0.040003391256 0.014
v 0.0183229006443 -0.040003391256 0.0218461538462
v 0.0183371694587 -0.0413679914456 0.0222758784425
v 0.0184270080343 -0.0402306832518 0.0218498634853
v 0.0184384797872 -0.0415965438845 0.0222877492877
v 0.0185311154243 -0.0404579752475 0.0218609924027
v 0.0185397901157 -0.0418250963234 0.022299620133
v 0.0186352228144 -0.0406852672433 0.0218782051282
v 0.0186411004442 -0.0420536487624 0.0223114909782
v 0.0187393302044 -0.0409125592391 0.021896011396
v 0.0187424107727 -0.0422822012013 0.0223233618234
v 0.0188434375944 -0.0411398512348 0.0219138176638
v 0.0188437211012 -0.0425107536402 0.0223352326686
v 0.0189450314297 -0.0427393060791 0.0223471035138
v 0.0189475449844 -0.0413671432306 0.0219316239316
v 0.0190463417582 -0.0429678585181 0.022358974359
v 0.0190516523745 -0.0415944352264 0.0219494301994
v 0.0191476520867 -0.043196410957 0.0223708452042
v 0.0191557597645 -0.0418217272222 0.0219672364672
v 0.0192489624152 -0.0434249633959 0.0223827160494
v 0.0192598671545 -0.0420490192179 0.021985042735
v 0.0193502727437 -0.0436535158348 0.0223945868946
v 0.0193639745445 -0.0422763112137 0.0220028490028
v 0.0194515830722 -0.0438820682738 0.0224064577398
v 0.0194680819346 -0.0425036032095 0.0220206552707
v 0.0195528934007 -0.0441106207127 0.022418328585
v 0.0195721893246 -0.0427308952053 0.0220384615385
v 0.0196542037292 -0.0443391731516 0.0224301994302
v 0.0196762967146 -0.042958187201 0.0220562678063
v 0.0197555140577 -0.0445677255905 0.0224420702754
v 0.0197804041046 -0.0431854791968 0.0220740740741
v 0.0198568243862 -0.0447962780295 0.014
v 0.0198568243862 -0.0447962780295 0.0224539411206
v 0.0198845114947 -0.0434127711926 0.0220918803419
v 0.0199886188847 -0.0436400631883 0.0221096866097
v 0.0200927262747 -0.0438673551841 0.0221274928775
v 0.0201968336647 -0.0440946471799 0.0221452991453
v 0.0203009410548 -0.0443219391757 0.0221631054131
v 0.0204050484448 -0.0445492311714 0.014
v 0.0204050484448 -0.0445492311714 0.0221809116809
f 46 2 39
f 46 8 2
f 14 45 7
f 14 7 8
f 41 8 46
f 41 14 8
f 41 46 45
f 41 45 14
f 7 45 38
f 7 38 1
f 2 1 38
f 2 38 39
f 2 7 1
f 2 8 7
f 46 38 45
f 46 39 38
