# Parametric PetalDock simulation geometry; SI units
v -0.0303307571058 -0.013001737322 0.014
v -0.0303307571058 -0.013001737322 0.0227269705603
v -0.0301689219382 -0.0133729633622 0.014
v -0.0301689219382 -0.0133729633622 0.0224539411206
v -0.0299790274623 -0.0128509630958 0.0226991120744
v -0.029819069011 -0.0132178842252 0.0224362843825
v -0.0296808454686 -0.0127231428788 0.0225996457573
v -0.0295224780205 -0.013086414481 0.022345738124
v -0.0294816066301 -0.0126377361402 0.0224436144354
v -0.0294116432541 -0.012607745282 0.014
v -0.0294116432541 -0.012607745282 0.0222578347578
v -0.0293243022565 -0.0129985692064 0.0221958871547
v -0.0292547121825 -0.0129677220482 0.014
v -0.0292547121825 -0.0129677220482 0.0220156695157
f 9 1 2
f 9 10 1
f 11 10 9
f 11 9 14
f 5 9 2
f 5 7 9
f 8 7 5
f 6 4 14
f 6 14 8
f 6 8 5
f 6 2 4
f 6 5 2
f 12 14 9
f 12 8 14
f 12 9 7
f 12 7 8
f 4 2 1
f 4 1 3
f 10 3 1
f 10 13 3
f 14 4 3
f 14 3 13
f 11 13 10
f 11 14 13
