# Parametric PetalDock simulation geometry; SI units
v -0.043837754936 0.0037750817432 0.014
v -0.043837754936 0.0037750817432 0.0319630177515
v -0.0437881279736 0.0043127541745 0.014
v -0.0437881279736 0.0043127541745 0.0318520710059
v -0.043588676783 0.0037536324151 0.0319630177515
v -0.0435393317919 0.0042882498894 0.0318520710059
v -0.04333959863 0.003732183087 0.0319630177515
v -0.0432905356102 0.0042637456043 0.0318520710059
v -0.0430905204769 0.0037107337589 0.0319630177515
v -0.0430417394286 0.0042392413193 0.0318520710059
v -0.0428414423239 0.0036892844308 0.0319630177515
v -0.0427929432469 0.0042147370342 0.0318520710059
v -0.0425923641708 0.0036678351027 0.0319630177515
v -0.0425441470652 0.0041902327491 0.0318520710059
v -0.0423432860178 0.0036463857746 0.0319630177515
v -0.0422953508836 0.004165728464 0.0318520710059
v -0.0420942078647 0.0036249364466 0.0319630177515
v -0.0420465547019 0.0041412241789 0.0318520710059
v -0.0418451297117 0.0036034871185 0.0319630177515
v -0.0417977585202 0.0041167198938 0.0318520710059
v -0.0415960515586 0.0035820377904 0.0319630177515
v -0.0415489623386 0.0040922156088 0.0318520710059
v -0.0413469734056 0.0035605884623 0.0319630177515
v -0.0413001661569 0.0040677113237 0.0318520710059
v -0.0410978952525 0.0035391391342 0.0319630177515
v -0.0410513699752 0.0040432070386 0.0318520710059
v -0.0408488170995 0.0035176898061 0.0319630177515
v -0.0408025737936 0.0040187027535 0.0318520710059
v -0.0405997389464 0.003496240478 0.0319630177515
v -0.0405537776119 0.0039941984684 0.0318520710059
v -0.0403506607934 0.0034747911499 0.0319630177515
v -0.0403049814302 0.0039696941833 0.0318520710059
v -0.0401015826404 0.0034533418219 0.0319630177515
v -0.0400561852486 0.0039451898983 0.0318520710059
v -0.0398525044873 0.0034318924938 0.0319630177515
v -0.0398073890669 0.0039206856132 0.0318520710059
v -0.0396034263343 0.0034104431657 0.0319630177515
v -0.0395585928852 0.0038961813281 0.0318520710059
v -0.0393543481812 0.0033889938376 0.0319630177515
v -0.0393097967036 0.003871677043 0.0318520710059
v -0.0391052700282 0.0033675445095 0.0319630177515
v -0.0390610005219 0.0038471727579 0.0318520710059
v -0.0388561918751 0.0033460951814 0.0319630177515
v -0.0388122043402 0.0038226684729 0.0318520710059
v -0.0386071137221 0.0033246458533 0.0319630177515
v -0.0385634081585 0.0037981641878 0.0318520710059
v -0.038358035569 0.0033031965253 0.0319630177515
v -0.0383146119769 0.0037736599027 0.0318520710059
v -0.038108957416 0.0032817471972 0.0319630177515
v -0.0380658157952 0.0037491556176 0.0318520710059
v -0.0378598792629 0.0032602978691 0.014
v -0.0378598792629 0.0032602978691 0.0319630177515
v -0.0378170196135 0.0037246513325 0.014
v -0.0378170196135 0.0037246513325 0.0318520710059
f 44 53 3
f 15 1 51
f 7 2 1
f 7 1 15
f 45 51 52
f 10 52 44
f 10 4 52
f 10 3 4
f 10 44 3
f 47 52 4
f 46 52 54
f 46 44 52
f 46 54 53
f 46 53 44
f 31 15 51
f 31 51 45
f 17 4 2
f 17 47 4
f 51 3 53
f 51 1 3
f 4 3 1
f 4 1 2
f 54 51 53
f 54 52 51
f 17 2 7
f 17 15 31
f 17 7 15
f 17 45 52
f 17 52 47
f 17 31 45
