# Parametric PetalDock simulation geometry; SI units
v 0 0.044 0.014
v 0 0.044 0.032
v 0 0.04425 0.0319710648148
v 0 0.0445 0.0318842592593
v 0 0.04475 0.03175
v 0 0.045 0.0316111111111
v 0 0.04525 0.0314722222222
v 0 0.0455 0.0313333333333
v 0 0.04575 0.0311944444444
v 0 0.046 0.0310555555556
v 0 0.04625 0.0309166666667
v 0 0.0465 0.0307777777778
v 0 0.04675 0.0306388888889
v 0 0.047 0.0305
v 0 0.04725 0.0303611111111
v 0 0.0475 0.0302222222222
v 0 0.04775 0.0300833333333
v 0 0.048 0.0299444444444
v 0 0.04825 0.0298055555556
v 0 0.0485 0.0296666666667
v 0 0.04875 0.0295277777778
v 0 0.049 0.014
v 0 0.049 0.0293888888889
v 0.0005399476846 0.0439966868809 0.014
v 0.0005399476846 0.0439966868809 0.032
v 0.0005430155691 0.0442466680564 0.0319710648148
v 0.0005460834537 0.0444966492318 0.0318842592593
v 0.0005491513383 0.0447466304073 0.03175
v 0.0005522192229 0.0449966115828 0.0316111111111
v 0.0005552871074 0.0452465927582 0.0314722222222
v 0.000558354992 0.0454965739337 0.0313333333333
v 0.0005614228766 0.0457465551091 0.0311944444444
v 0.0005644907611 0.0459965362846 0.0310555555556
v 0.0005675586457 0.0462465174601 0.0309166666667
v 0.0005706265303 0.0464964986355 0.0307777777778
v 0.0005736944149 0.046746479811 0.0306388888889
v 0.0005767622994 0.0469964609864 0.0305
v 0.000579830184 0.0472464421619 0.0303611111111
v 0.0005828980686 0.0474964233374 0.0302222222222
v 0.0005859659531 0.0477464045128 0.0300833333333
v 0.0005890338377 0.0479963856883 0.0299444444444
v 0.0005921017223 0.0482463668637 0.0298055555556
v 0.0005951696069 0.0484963480392 0.0296666666667
v 0.0005982374914 0.0487463292147 0.0295277777778
v 0.000601305376 0.0489963103901 0.014
v 0.000601305376 0.0489963103901 0.0293888888889
f 43 24 45
f 43 45 46
f 44 46 23
f 44 43 46
f 29 25 24
f 29 24 43
f 26 2 25
f 34 43 44
f 34 29 43
f 3 2 26
f 3 26 4
f 27 4 26
f 27 26 25
f 19 44 23
f 19 10 34
f 19 34 44
f 28 5 4
f 28 4 27
f 28 29 5
f 28 25 29
f 28 27 25
f 24 1 22
f 24 22 45
f 46 22 23
f 46 45 22
f 25 2 1
f 25 1 24
f 34 10 5
f 34 5 29
f 19 1 2
f 19 22 1
f 19 23 22
f 19 2 3
f 19 4 5
f 19 5 10
f 19 3 4
