# Parametric PetalDock simulation geometry; SI units
v -0.0241069447982 0.0293743972278 0.014
v -0.0241069447982 0.0293743972278 0.0141479289941
v -0.0239483464772 0.0291811446144 0.0141763885845
v -0.0237897481561 0.0289878920011 0.0142617673558
v -0.0237446605494 0.0296680146857 0.014
v -0.0237446605494 0.0296680146857 0.0143328402367
v -0.0236311498351 0.0287946393878 0.0143938198554
v -0.0235884456774 0.0294728303786 0.0143607053337
v -0.0234725515141 0.0286013867744 0.0145304258894
v -0.0234322308053 0.0292776460715 0.0144443006246
v -0.023313953193 0.0284081341611 0.0146670319234
v -0.0232760159333 0.0290824617643 0.0145735946746
v -0.023155354872 0.0282148815477 0.0148036379575
v -0.0231198010613 0.0288872774572 0.01470734714
v -0.0229967565509 0.0280216289344 0.0149402439915
v -0.0229635861892 0.02869209315 0.0148410996055
v -0.0228381582299 0.0278283763211 0.0150768500256
v -0.0228073713172 0.0284969088429 0.014974852071
v -0.0226795599089 0.0276351237077 0.0152134560596
v -0.0226511564452 0.0283017245357 0.0151086045365
v -0.0225209615878 0.0274418710944 0.0153500620937
v -0.0224949415731 0.0281065402286 0.015242357002
v -0.0223623632668 0.027248618481 0.0154866681277
v -0.0223387267011 0.0279113559215 0.0153761094675
v -0.0222037649457 0.0270553658677 0.0156232741617
v -0.0221825118291 0.0277161716143 0.0155098619329
v -0.0220451666247 0.0268621132544 0.0157598801958
v -0.022026296957 0.0275209873072 0.0156436143984
v -0.0218865683036 0.026668860641 0.0158964862298
v -0.021870082085 0.027325803 0.0157773668639
v -0.0217279699826 0.0264756080277 0.0160330922639
v -0.0217138672129 0.0271306186929 0.0159111193294
v -0.0215693716616 0.0262823554143 0.0161696982979
v -0.0215576523409 0.0269354343857 0.0160448717949
v -0.0214107733405 0.026089102801 0.0163063043319
v -0.0214014374689 0.0267402500786 0.0161786242604
v -0.0212521750195 0.0258958501877 0.016442910366
v -0.0212452225968 0.0265450657715 0.0163123767258
v -0.0210935766984 0.0257025975743 0.0165795164
v -0.0210890077248 0.0263498814643 0.0164461291913
v -0.0209349783774 0.025509344961 0.014
v -0.0209349783774 0.025509344961 0.0167161224341
v -0.0209327928528 0.0261546971572 0.0165798816568
v -0.0207765779807 0.02595951285 0.0167136341223
v -0.0206203631087 0.0257643285429 0.014
v -0.0206203631087 0.0257643285429 0.0168473865878
f 42 46 6
f 10 45 5
f 10 5 6
f 2 42 6
f 38 46 45
f 38 45 10
f 38 6 46
f 38 10 6
f 33 41 42
f 33 42 2
f 19 9 41
f 19 41 33
f 3 33 2
f 3 19 33
f 3 9 19
f 3 2 1
f 3 1 41
f 3 41 9
f 41 5 45
f 41 1 5
f 42 41 45
f 42 45 46
f 2 5 1
f 2 6 5
