# Parametric PetalDock simulation geometry; SI units
v 0.0193763533249 0.0254667809475 0.014
v 0.0193763533249 0.0254667809475 0.0174154613193
v 0.0194224451085 0.0255273604247 0.0174900216176
v 0.0195537034029 0.0256998761801 0.0175224696596
v 0.0196874108986 0.0252270856841 0.014
v 0.0196874108986 0.0252270856841 0.0172058952444
v 0.0197342426149 0.0252870949827 0.01727564224
v 0.0197501453227 0.0259580642538 0.0174435691123
v 0.0198676080595 0.0254579870068 0.0173027419
v 0.0199818643663 0.0262626178521 0.014
v 0.0199818643663 0.0262626178521 0.0172674318796
v 0.0200672035524 0.0257137449949 0.0172161220713
v 0.0203026424892 0.0260154321117 0.014
v 0.0203026424892 0.0260154321117 0.017031156403
f 2 4 11
f 3 2 6
f 3 4 2
f 9 5 13
f 8 11 4
f 8 12 11
f 8 4 9
f 8 9 12
f 14 11 12
f 14 9 13
f 14 12 9
f 7 4 3
f 7 9 4
f 7 3 6
f 7 6 5
f 7 5 9
f 5 10 13
f 5 1 10
f 2 1 5
f 2 5 6
f 2 10 1
f 2 11 10
f 14 13 10
f 14 10 11
