# Parametric PetalDock simulation geometry; SI units
v 0.0164512878142 0.02744731552 0.014
v 0.0164512878142 0.02744731552 0.019594017094
v 0.0164904215554 0.0275126062228 0.0197186143472
v 0.0166018650217 0.0276985384135 0.0198066617913
v 0.0167686519556 0.0279768056015 0.0198080074636
v 0.0167868698457 0.0272433661794 0.014
v 0.0167868698457 0.0272433661794 0.0193518518519
v 0.0168268018576 0.0273081717347 0.0194708870664
v 0.0169405186064 0.0274927223422 0.019552754158
v 0.0169653905584 0.02830504413 0.014
v 0.0169653905584 0.02830504413 0.0197236467236
v 0.017110707748 0.027768921845 0.0195451797717
v 0.0173114595284 0.0280947213725 0.014
v 0.0173114595284 0.0280947213725 0.019450617284
f 11 10 5
f 12 11 5
f 4 10 1
f 4 5 10
f 14 11 12
f 3 2 7
f 3 1 2
f 3 4 1
f 9 14 12
f 9 12 5
f 9 5 4
f 9 6 13
f 9 13 14
f 8 4 3
f 8 9 4
f 8 3 7
f 8 7 6
f 8 6 9
f 6 10 13
f 6 1 10
f 2 1 6
f 2 6 7
f 14 13 10
f 14 10 11
