# Parametric PetalDock simulation geometry; SI units
v -0.0415734806151 -0.027778511651 0.014
v -0.0415734806151 -0.027778511651 0.0186253561254
v -0.0415101887595 -0.0277362213851 0.0187277052241
v -0.041329948804 -0.0276157888972 0.0187910312581
v -0.0412294651393 -0.0282865905392 0.014
v -0.0412294651393 -0.0282865905392 0.0183831908832
v -0.041166697016 -0.0282435267693 0.0184799779434
v -0.041060200648 -0.0274355489417 0.018756696696
v -0.0409879485242 -0.0281208915281 0.0185371236249
v -0.0407420110028 -0.027222941418 0.014
v -0.0407420110028 -0.027222941418 0.0186315289649
v -0.0407204325011 -0.0279373549195 0.0184938690041
v -0.0404048758365 -0.0277208587284 0.014
v -0.0404048758365 -0.0277208587284 0.0183584995252
f 3 10 1
f 3 1 2
f 6 3 2
f 7 6 5
f 7 5 13
f 7 12 9
f 7 3 6
f 7 9 4
f 7 4 3
f 14 11 12
f 14 7 13
f 14 12 7
f 8 12 11
f 8 4 9
f 8 9 12
f 8 3 4
f 8 11 10
f 8 10 3
f 10 13 5
f 10 5 1
f 6 1 5
f 6 2 1
f 14 13 10
f 14 10 11
