# Parametric PetalDock simulation geometry; SI units
v 0.0457166471429 -0.0176348567902 0.014
v 0.0457166471429 -0.0176348567902 0.0235460588794
v 0.0459296115837 -0.0170725153322 0.014
v 0.0459296115837 -0.0170725153322 0.0238190883191
v 0.0460736880295 -0.0177725826581 0.02348759515
v 0.0462883156941 -0.0172058493887 0.0237504228419
v 0.0463763726778 -0.0178893410111 0.0233613686572
v 0.0465786200937 -0.0179673564483 0.0231867962777
v 0.0465924103553 -0.0173188845437 0.0236152762904
v 0.0466496399417 -0.0179947518267 0.014
v 0.0466496399417 -0.0179947518267 0.0229843304843
v 0.0467955999118 -0.0173944122196 0.0234345235584
v 0.0468669505956 -0.0174209340125 0.014
v 0.0468669505956 -0.0174209340125 0.0232264957265
f 7 1 10
f 5 2 1
f 5 1 7
f 5 4 2
f 12 13 3
f 12 14 13
f 12 3 4
f 12 4 9
f 12 11 14
f 6 4 5
f 6 9 4
f 6 5 7
f 6 7 9
f 8 11 12
f 8 10 11
f 8 7 10
f 8 9 7
f 8 12 9
f 3 13 10
f 3 10 1
f 2 3 1
f 2 4 3
f 11 10 13
f 11 13 14
