# Parametric PetalDock simulation geometry; SI units
v 0.027438497206 -0.0183338176896 0.014
v 0.027438497206 -0.0183338176896 0.0186315289649
v 0.0276463646091 -0.0184727102479 0.0185365622032
v 0.0276614152833 -0.0179957246179 0.014
v 0.0276614152833 -0.0179957246179 0.0189045584046
v 0.0278542320121 -0.0186116028062 0.0184415954416
v 0.0278709714597 -0.018132055865 0.0188155270655
v 0.0280620994152 -0.0187504953644 0.01834662868
v 0.0280805276361 -0.0182683871121 0.0187264957265
v 0.0282699668183 -0.0188893879227 0.0182516619183
v 0.0282900838125 -0.0184047183592 0.0186374643875
v 0.0284778342214 -0.0190282804809 0.0181566951567
v 0.0284996399889 -0.0185410496063 0.0185484330484
v 0.0286857016244 -0.0191671730392 0.0180617283951
v 0.0287091961653 -0.0186773808535 0.0184594017094
v 0.0288935690275 -0.0193060655974 0.0179667616334
v 0.0289187523416 -0.0188137121006 0.0183703703704
v 0.0291014364306 -0.0194449581557 0.0178717948718
v 0.029128308518 -0.0189500433477 0.0182813390313
v 0.0293093038337 -0.0195838507139 0.0177768281102
v 0.0293378646944 -0.0190863745948 0.0181923076923
v 0.0295171712367 -0.0197227432722 0.0176818613485
v 0.0295474208708 -0.0192227058419 0.0181032763533
v 0.0297250386398 -0.0198616358305 0.0175868945869
v 0.0297569770472 -0.019359037089 0.0180142450142
v 0.0299329060429 -0.0200005283887 0.0174919278253
v 0.0299665332236 -0.0194953683361 0.0179252136752
v 0.030140773446 -0.020139420947 0.0173969610636
v 0.0301760894 -0.0196316995832 0.0178361823362
v 0.030348640849 -0.0202783135052 0.017301994302
v 0.0303856455764 -0.0197680308303 0.0177471509972
v 0.0305565082521 -0.0204172060635 0.0172070275404
v 0.0305952017528 -0.0199043620774 0.0176581196581
v 0.0307643756552 -0.0205560986217 0.0171120607787
v 0.0308047579291 -0.0200406933245 0.0175690883191
v 0.0309722430583 -0.02069499118 0.0170170940171
v 0.0310143141055 -0.0201770245716 0.0174800569801
v 0.0311801104613 -0.0208338837382 0.0169252928142
v 0.0312238702819 -0.0203133558187 0.017391025641
v 0.0313879778644 -0.0209727762965 0.0168659385882
v 0.0314334264583 -0.0204496870658 0.0173049620133
v 0.0315958452675 -0.0211116688547 0.014
v 0.0315958452675 -0.0211116688547 0.0168461538462
v 0.0316429826347 -0.0205860183129 0.0172493174264
v 0.0318525388111 -0.02072234956 0.014
v 0.0318525388111 -0.02072234956 0.0172307692308
f 2 46 5
f 13 45 4
f 13 46 45
f 13 5 46
f 13 4 5
f 6 2 1
f 43 46 2
f 43 2 6
f 40 42 43
f 40 43 6
f 24 40 6
f 24 1 42
f 24 6 1
f 32 42 40
f 32 24 42
f 32 40 24
f 4 45 42
f 4 42 1
f 2 4 1
f 2 5 4
f 43 42 45
f 43 45 46
