# Parametric PetalDock simulation geometry; SI units
v 0.0176348567902 -0.0457166471429 0.014
v 0.0176348567902 -0.0457166471429 0.0235460588794
v 0.0177725826581 -0.0460736880295 0.02348759515
v 0.0178893410111 -0.0463763726778 0.0233613686572
v 0.0179673564483 -0.0465786200937 0.0231867962777
v 0.0179947518267 -0.0466496399417 0.014
v 0.0179947518267 -0.0466496399417 0.0229843304843
v 0.0181945425036 -0.0454967979432 0.014
v 0.0181945425036 -0.0454967979432 0.0232730294397
v 0.0183366394419 -0.045852121837 0.0232247674581
v 0.0184571034095 -0.0461533508891 0.0231074610239
v 0.0185375948592 -0.0463546257067 0.0229390689969
v 0.0185658596976 -0.0464253040237 0.014
v 0.0185658596976 -0.0464253040237 0.0227421652422
f 11 13 8
f 5 7 14
f 5 2 7
f 5 4 2
f 12 14 13
f 12 13 11
f 12 5 14
f 12 11 4
f 12 4 5
f 3 2 4
f 3 4 11
f 10 9 2
f 10 2 3
f 10 3 11
f 10 8 9
f 10 11 8
f 7 2 1
f 7 1 6
f 8 6 1
f 8 13 6
f 14 7 6
f 14 6 13
f 9 1 2
f 9 8 1
