# Parametric PetalDock simulation geometry; SI units
v 0.0305057932913 -0.0096641903782 0.014
v 0.0305057932913 -0.0096641903782 0.0241951566952
v 0.0305783593928 -0.0096871792123 0.0244254326815
v 0.0306220907434 -0.0092891096721 0.014
v 0.0306220907434 -0.0092891096721 0.0244373219373
v 0.0306949334891 -0.0093112062775 0.0246731599622
v 0.030785010166 -0.0097526458728 0.0246309068235
v 0.0309023720786 -0.0093741320856 0.0248848144568
v 0.0310942849041 -0.0098506236543 0.0248017336095
v 0.0312128258669 -0.0094683072127 0.0250645613014
v 0.0314590993317 -0.0099661963275 0.014
v 0.0314590993317 -0.0099661963275 0.0249112060779
v 0.0315790310792 -0.0095793943494 0.014
v 0.0315790310792 -0.0095793943494 0.0251842355176
f 9 11 12
f 9 1 11
f 9 12 14
f 10 14 13
f 10 13 4
f 10 9 14
f 3 2 1
f 3 1 9
f 7 9 10
f 7 3 9
f 6 5 2
f 6 2 3
f 8 5 6
f 8 4 5
f 8 10 4
f 8 7 10
f 8 3 7
f 8 6 3
f 12 13 14
f 12 11 13
f 4 13 11
f 4 11 1
f 2 4 1
f 2 5 4
