# Parametric PetalDock simulation geometry; SI units
v 0.0324583731019 -0.0367076833316 0.014
v 0.0324583731019 -0.0367076833316 0.0166111111111
v 0.0327118686453 -0.0369943654184 0.016811771776
v 0.0329063887875 -0.0363066051424 0.014
v 0.0329063887875 -0.0363066051424 0.0166111111111
v 0.0329267717902 -0.0372374027563 0.0169121147719
v 0.0330703654808 -0.0373997951136 0.0168945233466
v 0.0331207888795 -0.0374568197262 0.014
v 0.0331207888795 -0.0374568197262 0.0168333333333
v 0.0331633832734 -0.0365901548623 0.016811771776
v 0.0333812526784 -0.0368305367077 0.0169121147719
v 0.0335268283608 -0.0369911547217 0.0168945233466
v 0.0335779477424 -0.0370475562677 0.014
v 0.0335779477424 -0.0370475562677 0.0168333333333
f 6 1 8
f 9 6 8
f 3 5 2
f 3 2 1
f 3 1 6
f 11 6 12
f 11 3 6
f 7 6 9
f 7 12 6
f 7 9 12
f 14 12 9
f 10 11 12
f 10 14 5
f 10 12 14
f 10 5 3
f 10 3 11
f 4 13 8
f 4 8 1
f 2 4 1
f 2 5 4
f 14 8 13
f 14 9 8
f 14 13 4
f 14 4 5
