# Parametric PetalDock simulation geometry; SI units
v 0.0426813751406 -0.0106911279157 0.014
v 0.0426813751406 -0.0106911279157 0.0276153846154
v 0.042809357897 -0.0101665567643 0.014
v 0.042809357897 -0.0101665567643 0.028
v 0.0429238829539 -0.0107518729607 0.0276005460589
v 0.0430525928851 -0.0102243212914 0.0279839248971
v 0.0431663907672 -0.0108126180057 0.0275560303894
v 0.0432958278731 -0.0102820858185 0.0279356995885
v 0.0434088985805 -0.0108733630507 0.0274871794872
v 0.0435390628612 -0.0103398503456 0.0278611111111
v 0.0436514063938 -0.0109341080956 0.027415954416
v 0.0437822978493 -0.0103976148726 0.0277839506173
v 0.0438939142071 -0.0109948531406 0.0273447293447
v 0.0440255328373 -0.0104553793997 0.0277067901235
v 0.0441364220204 -0.0110555981856 0.0272735042735
v 0.0442687678254 -0.0105131439268 0.0276296296296
v 0.0443789298337 -0.0111163432306 0.0272022792023
v 0.0445120028134 -0.0105709084538 0.0275524691358
v 0.0446214376469 -0.0111770882756 0.0271310541311
v 0.0447552378015 -0.0106286729809 0.027475308642
v 0.0448639454602 -0.0112378333205 0.0270598290598
v 0.0449984727895 -0.010686437508 0.0273981481481
v 0.0451064532735 -0.0112985783655 0.0269886039886
v 0.0452417077776 -0.0107442020351 0.0273209876543
v 0.0453489610868 -0.0113593234105 0.0269173789174
v 0.0454849427656 -0.0108019665621 0.0272438271605
v 0.0455914689001 -0.0114200684555 0.0268461538462
v 0.0457281777537 -0.0108597310892 0.0271666666667
v 0.0458339767134 -0.0114808135004 0.0267749287749
v 0.0459714127417 -0.0109174956163 0.0270895061728
v 0.0460764845267 -0.0115415585454 0.0267037037037
v 0.0462146477298 -0.0109752601433 0.027012345679
v 0.04631899234 -0.0116023035904 0.0266324786325
v 0.0464578827178 -0.0110330246704 0.0269351851852
v 0.0465615001533 -0.0116630486354 0.0265612535613
v 0.0467011177059 -0.0110907891975 0.0268580246914
v 0.0468040079666 -0.0117237936803 0.02649002849
v 0.0469443526939 -0.0111485537245 0.0267808641975
v 0.0470465157799 -0.0117845387253 0.0264188034188
v 0.047187587682 -0.0112063182516 0.0267037037037
v 0.0472890235932 -0.0118452837703 0.0263475783476
v 0.04743082267 -0.0112640827787 0.0266265432099
v 0.0475315314065 -0.0119060288153 0.014
v 0.0475315314065 -0.0119060288153 0.0262763532764
v 0.0476740576581 -0.0113218473058 0.014
v 0.0476740576581 -0.0113218473058 0.026549382716
f 19 1 43
f 9 1 19
f 5 4 2
f 8 9 19
f 44 10 8
f 7 9 8
f 6 4 5
f 6 5 7
f 6 7 8
f 38 45 3
f 12 4 6
f 12 3 4
f 12 6 8
f 12 8 10
f 40 46 45
f 40 45 38
f 32 38 3
f 32 3 12
f 32 40 38
f 14 10 44
f 14 44 36
f 14 36 12
f 14 12 10
f 42 44 46
f 42 36 44
f 42 40 36
f 42 46 40
f 3 45 43
f 3 43 1
f 2 3 1
f 2 4 3
f 44 43 45
f 44 45 46
f 44 19 43
f 44 8 19
f 7 2 1
f 7 1 9
f 7 5 2
f 36 40 32
f 36 32 12
