# Parametric PetalDock simulation geometry; SI units
v -0.0495451317714 -0.0067290354254 0.014
v -0.0495451317714 -0.0067290354254 0.0275845386807
v -0.0494697037995 -0.0067187910789 0.0278926618148
v -0.0494588254982 -0.0073365237228 0.014
v -0.0494588254982 -0.0073365237228 0.0273433048433
v -0.0493835289199 -0.0073253545305 0.0276458873312
v -0.049254903109 -0.0066896176485 0.0281846371216
v -0.0491691024063 -0.0072935473618 0.0279317060562
v -0.0489334311576 -0.0066459565243 0.0284803104202
v -0.0488481904503 -0.0072459445699 0.028218493604
v -0.048554229136 -0.0065944547168 0.014
v -0.048554229136 -0.0065944547168 0.0287325681204
v -0.0484696489883 -0.0071897932483 0.014
v -0.0484696489883 -0.0071897932483 0.0284605887939
f 10 14 12
f 3 11 1
f 3 1 2
f 3 12 11
f 3 2 5
f 9 10 12
f 9 12 3
f 9 3 7
f 9 7 8
f 9 8 10
f 6 4 13
f 6 13 14
f 6 5 4
f 6 14 10
f 6 10 8
f 6 3 5
f 6 8 7
f 6 7 3
f 11 13 4
f 11 4 1
f 14 13 11
f 14 11 12
f 5 1 4
f 5 2 1
