# Parametric PetalDock simulation geometry; SI units
v -0.0349188124704 -0.0357865412642 0.014
v -0.0349188124704 -0.0357865412642 0.0168333333333
v -0.0348656517439 -0.0357320594992 0.0168945233466
v -0.0347142628028 -0.035576908559 0.0169121147719
v -0.0344876932412 -0.0353447087678 0.016811771776
v -0.0344770272369 -0.0362123541476 0.014
v -0.0344770272369 -0.0362123541476 0.0168333333333
v -0.0344245390882 -0.036157224121 0.0168945233466
v -0.0342750654872 -0.0360002270882 0.0169121147719
v -0.034220436221 -0.0350708104389 0.014
v -0.034220436221 -0.0350708104389 0.0166111111111
v -0.0340513624345 -0.0357652644242 0.016811771776
v -0.0337874866921 -0.0354881070646 0.014
v -0.0337874866921 -0.0354881070646 0.0166111111111
f 12 6 13
f 3 1 2
f 3 10 1
f 3 9 4
f 7 3 2
f 11 3 4
f 11 10 3
f 8 7 6
f 8 6 12
f 8 12 9
f 8 9 3
f 8 3 7
f 14 12 13
f 14 11 12
f 5 11 4
f 5 12 11
f 5 4 9
f 5 9 12
f 10 13 6
f 10 6 1
f 7 1 6
f 7 2 1
f 14 13 10
f 14 10 11
