# Parametric PetalDock simulation geometry; SI units
v -0.0335779477424 -0.0370475562677 0.014
v -0.0335779477424 -0.0370475562677 0.0168333333333
v -0.0335268283608 -0.0369911547217 0.0168945233466
v -0.0333812526784 -0.0368305367077 0.0169121147719
v -0.0331633832734 -0.0365901548623 0.016811771776
v -0.0331207888795 -0.0374568197262 0.014
v -0.0331207888795 -0.0374568197262 0.0168333333333
v -0.0330703654808 -0.0373997951136 0.0168945233466
v -0.0329267717902 -0.0372374027563 0.0169121147719
v -0.0329063887875 -0.0363066051424 0.014
v -0.0329063887875 -0.0363066051424 0.0166111111111
v -0.0327118686453 -0.0369943654184 0.016811771776
v -0.0324583731019 -0.0367076833316 0.014
v -0.0324583731019 -0.0367076833316 0.0166111111111
f 14 12 13
f 11 12 14
f 5 11 2
f 5 4 12
f 5 12 11
f 9 7 6
f 9 6 13
f 9 13 12
f 9 12 4
f 3 2 7
f 3 9 4
f 3 4 5
f 3 5 2
f 8 7 9
f 8 3 7
f 8 9 3
f 10 13 6
f 10 6 1
f 11 10 1
f 11 1 2
f 11 13 10
f 11 14 13
f 7 1 6
f 7 2 1
