# Parametric PetalDock simulation geometry; SI units
v 0.0249835913143 -0.0199955036206 0.014
v 0.0249835913143 -0.0199955036206 0.0170428994083
v 0.0250430213971 -0.0200430682169 0.0171089027241
v 0.0252122639542 -0.0201785207273 0.0171318425314
v 0.0252270856841 -0.0196874108986 0.014
v 0.0252270856841 -0.0196874108986 0.0172058952444
v 0.0252870949827 -0.0197342426149 0.01727564224
v 0.0254579870068 -0.0198676080595 0.0173027419
v 0.0254655533405 -0.020381239735 0.0170392188171
v 0.0257137449949 -0.0200672035524 0.0172161220713
v 0.0257643285429 -0.0206203631087 0.014
v 0.0257643285429 -0.0206203631087 0.0168473865878
v 0.0260154321117 -0.0203026424892 0.014
v 0.0260154321117 -0.0203026424892 0.017031156403
f 3 4 8
f 12 9 4
f 12 4 3
f 12 3 2
f 12 14 9
f 10 8 4
f 10 4 9
f 10 9 14
f 10 13 5
f 10 14 13
f 10 5 6
f 7 3 8
f 7 8 10
f 7 10 6
f 7 6 2
f 7 2 3
f 5 13 11
f 5 11 1
f 2 5 1
f 2 6 5
f 12 1 11
f 12 2 1
f 12 11 13
f 12 13 14
