# Parametric PetalDock simulation geometry; SI units
v 0.0285831776383 -0.0143875625489 0.014
v 0.0285831776383 -0.0143875625489 0.021047008547
v 0.0286511702896 -0.0144217871735 0.0212049780317
v 0.0287575829022 -0.0140357196332 0.014
v 0.0287575829022 -0.0140357196332 0.0212891737892
v 0.0288259904227 -0.0140691073064 0.0214527053124
v 0.028844796979 -0.0145192506585 0.0213301075909
v 0.0290207985591 -0.0141641873552 0.0215840152242
v 0.029134579798 -0.0146651150717 0.0213849736149
v 0.0293123495388 -0.0143064847041 0.0216478013068
v 0.0294764019395 -0.0148371738786 0.014
v 0.0294764019395 -0.0148371738786 0.0213618233618
v 0.0296562573679 -0.0144743358718 0.014
v 0.0296562573679 -0.0144743358718 0.0216348528015
f 4 10 13
f 14 13 10
f 14 10 9
f 3 1 11
f 12 14 9
f 5 10 4
f 7 12 9
f 7 9 10
f 7 11 12
f 7 3 11
f 2 1 3
f 8 7 10
f 8 3 7
f 6 3 8
f 6 5 2
f 6 2 3
f 6 10 5
f 6 8 10
f 4 13 11
f 4 11 1
f 12 11 13
f 12 13 14
f 2 4 1
f 2 5 4
