# Parametric PetalDock simulation geometry; SI units
v 0.027035314088 0.0171199238364 0.014
v 0.027035314088 0.0171199238364 0.0191096866097
v 0.0270996247363 0.0171606481053 0.0192231597856
v 0.0272433661794 0.0167868698457 0.014
v 0.0272433661794 0.0167868698457 0.0193518518519
v 0.0272827659681 0.0172766210113 0.0192988465247
v 0.0273081717347 0.0168268018576 0.0194708870664
v 0.0274927223422 0.0169405186064 0.019552754158
v 0.027556856191 0.0174501867308 0.0192823520798
v 0.027768921845 0.017110707748 0.0195451797717
v 0.0278801676532 0.0176549214563 0.014
v 0.0278801676532 0.0176549214563 0.0191775878443
v 0.0280947213725 0.0173114595284 0.014
v 0.0280947213725 0.0173114595284 0.019450617284
f 9 11 1
f 2 9 1
f 2 5 7
f 12 11 9
f 12 9 14
f 10 6 8
f 10 9 6
f 10 14 9
f 10 8 7
f 10 7 5
f 10 4 13
f 10 13 14
f 10 5 4
f 3 6 9
f 3 9 2
f 3 2 7
f 3 8 6
f 3 7 8
f 4 11 13
f 4 1 11
f 2 1 4
f 2 4 5
f 12 13 11
f 12 14 13
