# Parametric PetalDock simulation geometry; SI units
v -0.049 0 0.014
v -0.049 0 0.0293888888889
v -0.0489963103901 0.000601305376 0.014
v -0.0489963103901 0.000601305376 0.0293888888889
v -0.04875 0 0.0295277777778
v -0.0487463292147 0.0005982374914 0.0295277777778
v -0.0485 0 0.0296666666667
v -0.0484963480392 0.0005951696069 0.0296666666667
v -0.04825 0 0.0298055555556
v -0.0482463668637 0.0005921017223 0.0298055555556
v -0.048 0 0.0299444444444
v -0.0479963856883 0.0005890338377 0.0299444444444
v -0.04775 0 0.0300833333333
v -0.0477464045128 0.0005859659531 0.0300833333333
v -0.0475 0 0.0302222222222
v -0.0474964233374 0.0005828980686 0.0302222222222
v -0.04725 0 0.0303611111111
v -0.0472464421619 0.000579830184 0.0303611111111
v -0.047 0 0.0305
v -0.0469964609864 0.0005767622994 0.0305
v -0.04675 0 0.0306388888889
v -0.046746479811 0.0005736944149 0.0306388888889
v -0.0465 0 0.0307777777778
v -0.0464964986355 0.0005706265303 0.0307777777778
v -0.04625 0 0.0309166666667
v -0.0462465174601 0.0005675586457 0.0309166666667
v -0.046 0 0.0310555555556
v -0.0459965362846 0.0005644907611 0.0310555555556
v -0.04575 0 0.0311944444444
v -0.0457465551091 0.0005614228766 0.0311944444444
v -0.0455 0 0.0313333333333
v -0.0454965739337 0.000558354992 0.0313333333333
v -0.04525 0 0.0314722222222
v -0.0452465927582 0.0005552871074 0.0314722222222
v -0.045 0 0.0316111111111
v -0.0449966115828 0.0005522192229 0.0316111111111
v -0.04475 0 0.03175
v -0.0447466304073 0.0005491513383 0.03175
v -0.0445 0 0.0318842592593
v -0.0444966492318 0.0005460834537 0.0318842592593
v -0.04425 0 0.0319710648148
v -0.0442466680564 0.0005430155691 0.0319710648148
v -0.044 0 0.014
v -0.044 0 0.032
v -0.0439966868809 0.0005399476846 0.014
v -0.0439966868809 0.0005399476846 0.032
f 42 44 46
f 41 44 42
f 41 42 39
f 37 39 38
f 40 39 42
f 40 38 39
f 40 42 46
f 40 46 38
f 6 4 2
f 36 37 38
f 36 38 46
f 36 46 45
f 9 6 2
f 9 27 26
f 9 26 6
f 8 6 26
f 8 4 6
f 8 3 4
f 8 45 3
f 43 3 45
f 43 1 3
f 46 43 45
f 46 44 43
f 4 3 1
f 4 1 2
f 36 27 37
f 36 26 27
f 9 1 43
f 9 2 1
f 9 43 44
f 9 44 41
f 9 41 39
f 9 39 37
f 9 37 27
f 8 26 36
f 8 36 45
