# Parametric PetalDock simulation geometry; SI units
v 0.0203299095557 0.0321044354795 0.014
v 0.0203299095557 0.0321044354795 0.0176153846154
v 0.0204636589607 0.0323156488708 0.0176153846154
v 0.0205974083657 0.0325268622621 0.0176153846154
v 0.02072234956 0.0318525388111 0.014
v 0.02072234956 0.0318525388111 0.0172307692308
v 0.0207311577706 0.0327380756534 0.0176153846154
v 0.0208586808071 0.0320620949875 0.0172307692308
v 0.0208649071756 0.0329492890447 0.0176153846154
v 0.0209950120542 0.0322716511639 0.0172307692308
v 0.0209986565806 0.0331605024361 0.0176153846154
v 0.0211313433014 0.0324812073402 0.0172307692308
v 0.0211324059855 0.0333717158274 0.0176153846154
v 0.0212661553905 0.0335829292187 0.0176153846154
v 0.0212676745485 0.0326907635166 0.0172307692308
v 0.0213999047955 0.03379414261 0.0176153846154
v 0.0214040057956 0.032900319693 0.0172307692308
v 0.0215336542005 0.0340053560013 0.0176153846154
v 0.0215403370427 0.0331098758694 0.0172307692308
v 0.0216674036054 0.0342165693926 0.0176153846154
v 0.0216766682898 0.0333194320458 0.0172307692308
v 0.0218011530104 0.0344277827839 0.0176153846154
v 0.0218129995369 0.0335289882222 0.0172307692308
v 0.0219349024154 0.0346389961752 0.0176153846154
v 0.021949330784 0.0337385443986 0.0172307692308
v 0.0220686518203 0.0348502095666 0.0176153846154
v 0.0220856620311 0.033948100575 0.0172307692308
v 0.0222024012253 0.0350614229579 0.0176153846154
v 0.0222219932782 0.0341576567514 0.0172307692308
v 0.0223361506303 0.0352726363492 0.0176153846154
v 0.0223583245253 0.0343672129277 0.0172307692308
v 0.0224699000353 0.0354838497405 0.0176153846154
v 0.0224946557724 0.0345767691041 0.0172307692308
v 0.0226036494402 0.0356950631318 0.0176153846154
v 0.0226309870195 0.0347863252805 0.0172307692308
v 0.0227373988452 0.0359062765231 0.0176153846154
v 0.0227673182666 0.0349958814569 0.0172307692308
v 0.0228711482502 0.0361174899144 0.0176153846154
v 0.0229036495137 0.0352054376333 0.0172307692308
v 0.0230048976551 0.0363287033057 0.0176153846154
v 0.0230399807608 0.0354149938097 0.0172307692308
v 0.0231386470601 0.036539916697 0.0176153846154
v 0.0231763120079 0.0356245499861 0.0172307692308
v 0.0232723964651 0.0367511300884 0.0176153846154
v 0.023312643255 0.0358341061625 0.0172307692308
v 0.0234061458701 0.0369623434797 0.0176153846154
v 0.0234489745021 0.0360436623389 0.0172307692308
v 0.023539895275 0.037173556871 0.014
v 0.023539895275 0.037173556871 0.0176153846154
v 0.0235853057493 0.0362532185152 0.0172307692308
v 0.0237216369964 0.0364627746916 0.0172307692308
v 0.0238579682435 0.036672330868 0.0172307692308
v 0.0239942994906 0.0368818870444 0.014
v 0.0239942994906 0.0368818870444 0.0172307692308
f 26 48 1
f 26 49 48
f 12 5 53
f 13 1 2
f 13 26 1
f 46 54 49
f 4 2 54
f 4 54 24
f 50 53 54
f 50 12 53
f 50 54 2
f 50 2 12
f 6 12 2
f 6 5 12
f 38 24 54
f 38 54 46
f 5 1 48
f 5 48 53
f 54 48 49
f 54 53 48
f 6 1 5
f 6 2 1
f 38 49 26
f 38 46 49
f 38 13 2
f 38 26 13
f 38 2 4
f 38 4 24
