# Parametric PetalDock simulation geometry; SI units
v -0.002023584298 -0.0329378977257 0.014
v -0.002023584298 -0.0329378977257 0.0293888888889
v -0.0020001178681 -0.0325559344604 0.0291121077565
v -0.0019802239895 -0.0322321216396 0.0287949920093
v -0.0019669313248 -0.0320157568302 0.0284881600858
v -0.0019622635617 -0.0319397796128 0.014
v -0.0019622635617 -0.0319397796128 0.0281666666667
v -0.0016192332528 -0.0329602500548 0.014
v -0.0016192332528 -0.0329602500548 0.0293888888889
v -0.0016004558668 -0.0325780275814 0.0291121077565
v -0.0015845371676 -0.0322539950147 0.0287949920093
v -0.0015739006328 -0.0320374833756 0.0284881600858
v -0.0015701655785 -0.0319614545986 0.014
v -0.0015701655785 -0.0319614545986 0.0281666666667
f 12 9 8
f 12 8 13
f 10 2 9
f 10 9 12
f 14 12 13
f 14 7 12
f 3 2 10
f 3 4 2
f 3 10 4
f 11 10 12
f 11 12 4
f 11 4 10
f 5 7 2
f 5 2 4
f 5 12 7
f 5 4 12
f 9 2 1
f 9 1 8
f 6 8 1
f 6 13 8
f 7 1 2
f 7 6 1
f 14 13 6
f 14 6 7
