# Parametric PetalDock simulation geometry; SI units
v -0.0425677596553 -0.0262294841339 0.014
v -0.0425677596553 -0.0262294841339 0.0193518518519
v -0.0425029541 -0.026189552122 0.0194708870664
v -0.0423184034924 -0.0260758353732 0.019552754158
v -0.0422426782625 -0.0267498809944 0.014
v -0.0422426782625 -0.0267498809944 0.0191096866097
v -0.0421783676141 -0.0267091567254 0.0192231597856
v -0.0420422039896 -0.0259056462316 0.0195451797717
v -0.0419952263823 -0.0265931838194 0.0192988465247
v -0.0417211361594 -0.0264196181 0.0192823520798
v -0.0417164044622 -0.0257048944512 0.014
v -0.0417164044622 -0.0257048944512 0.019450617284
v -0.0413978246972 -0.0262148833745 0.014
v -0.0413978246972 -0.0262148833745 0.0191775878443
f 10 5 13
f 3 11 1
f 3 1 2
f 6 5 10
f 6 10 9
f 6 3 2
f 12 3 4
f 12 11 3
f 7 6 9
f 7 3 6
f 7 9 4
f 7 4 3
f 14 10 13
f 14 12 10
f 8 12 4
f 8 10 12
f 8 4 9
f 8 9 10
f 11 13 5
f 11 5 1
f 6 1 5
f 6 2 1
f 14 13 11
f 14 11 12
