# Parametric PetalDock simulation geometry; SI units
v 0.0379885551105 0.0009325666839 0.014
v 0.0379885551105 0.0009325666839 0.032
v 0.0379971386699 0.0004663184549 0.014
v 0.0379971386699 0.0004663184549 0.032
v 0.0382384798151 0.000938701991 0.032
v 0.0382471198453 0.0004693863394 0.032
v 0.0384884045198 0.0009448372981 0.032
v 0.0384971010208 0.000472454224 0.032
v 0.0387383292245 0.0009509726053 0.032
v 0.0387470821963 0.0004755221086 0.032
v 0.0389882539292 0.0009571079124 0.032
v 0.0389970633717 0.0004785899931 0.032
v 0.0392381786338 0.0009632432195 0.032
v 0.0392470445472 0.0004816578777 0.032
v 0.0394881033385 0.0009693785267 0.032
v 0.0394970257226 0.0004847257623 0.032
v 0.0397380280432 0.0009755138338 0.032
v 0.0397470068981 0.0004877936469 0.032
v 0.0399879527478 0.0009816491409 0.032
v 0.0399969880736 0.0004908615314 0.032
v 0.0402378774525 0.000987784448 0.032
v 0.040246969249 0.000493929416 0.032
v 0.0404878021572 0.0009939197552 0.032
v 0.0404969504245 0.0004969973006 0.032
v 0.0407377268619 0.0010000550623 0.032
v 0.0407469315999 0.0005000651851 0.032
v 0.0409876515665 0.0010061903694 0.032
v 0.0409969127754 0.0005031330697 0.032
v 0.0412375762712 0.0010123256766 0.032
v 0.0412468939509 0.0005062009543 0.032
v 0.0414875009759 0.0010184609837 0.032
v 0.0414968751263 0.0005092688389 0.032
v 0.0417374256806 0.0010245962908 0.032
v 0.0417468563018 0.0005123367234 0.032
v 0.0419873503852 0.001030731598 0.032
v 0.0419968374772 0.000515404608 0.032
v 0.0422372750899 0.0010368669051 0.032
v 0.0422468186527 0.0005184724926 0.032
v 0.0424871997946 0.0010430022122 0.032
v 0.0424967998282 0.0005215403771 0.032
v 0.0427371244993 0.0010491375194 0.032
v 0.0427467810036 0.0005246082617 0.032
v 0.0429870492039 0.0010552728265 0.032
v 0.0429967621791 0.0005276761463 0.032
v 0.0432369739086 0.0010614081336 0.032
v 0.0432467433545 0.0005307440309 0.032
v 0.0434868986133 0.0010675434407 0.032
v 0.04349672453 0.0005338119154 0.032
v 0.043736823318 0.0010736787479 0.032
v 0.0437467057055 0.0005368798 0.032
v 0.0439867480226 0.001079814055 0.014
v 0.0439867480226 0.001079814055 0.032
v 0.0439966868809 0.0005399476846 0.014
v 0.0439966868809 0.0005399476846 0.032
f 41 51 1
f 12 3 53
f 15 1 2
f 15 41 1
f 49 52 51
f 49 51 41
f 40 12 53
f 48 40 53
f 6 4 3
f 6 3 12
f 50 53 54
f 50 48 53
f 3 1 51
f 3 51 53
f 54 51 52
f 54 53 51
f 4 1 3
f 4 2 1
f 50 54 52
f 50 2 4
f 50 15 2
f 50 52 49
f 50 41 15
f 50 49 41
f 50 12 40
f 50 6 12
f 50 40 48
f 50 4 6
