# Parametric PetalDock simulation geometry; SI units
v 0.03774005884 0.0226205207445 0.014
v 0.03774005884 0.0226205207445 0.0183846153846
v 0.0379544909925 0.0227490464306 0.0183994539411
v 0.0380148056693 0.0221556888839 0.014
v 0.0380148056693 0.0221556888839 0.0187692307692
v 0.038168923145 0.0228775721166 0.0184439696106
v 0.0382307988834 0.0222815734799 0.0187828327794
v 0.0383833552975 0.0230060978026 0.0185128205128
v 0.0384467920974 0.0224074580758 0.0188236388097
v 0.03859778745 0.0231346234887 0.018584045584
v 0.0386627853114 0.0225333426717 0.0188867521368
v 0.0388122196025 0.0232631491747 0.0186552706553
v 0.0388787785255 0.0226592272677 0.0189520417854
v 0.039026651755 0.0233916748608 0.0187264957265
v 0.0390947717395 0.0227851118636 0.019017331434
v 0.0392410839075 0.0235202005468 0.0187977207977
v 0.0393107649535 0.0229109964595 0.0190826210826
v 0.03945551606 0.0236487262329 0.0188689458689
v 0.0395267581676 0.0230368810555 0.0191479107312
v 0.0396699482125 0.0237772519189 0.0189401709402
v 0.0397427513816 0.0231627656514 0.0192132003799
v 0.039884380365 0.023905777605 0.0190113960114
v 0.0399587445956 0.0232886502473 0.0192784900285
v 0.0400988125175 0.024034303291 0.0190826210826
v 0.0401747378097 0.0234145348432 0.0193437796771
v 0.04031324467 0.0241628289771 0.0191538461538
v 0.0403907310237 0.0235404194392 0.0194090693257
v 0.0405276768225 0.0242913546631 0.0192250712251
v 0.0406067242377 0.0236663040351 0.0194743589744
v 0.040742108975 0.0244198803492 0.0192962962963
v 0.0408227174517 0.023792188631 0.019539648623
v 0.0409565411275 0.0245484060352 0.0193675213675
v 0.0410387106658 0.023918073227 0.0196049382716
v 0.04117097328 0.0246769317213 0.0194387464387
v 0.0412547038798 0.0240439578229 0.0196702279202
v 0.0413854054325 0.0248054574073 0.01950997151
v 0.0414706970938 0.0241698424188 0.0197355175689
v 0.041599837585 0.0249339830934 0.0195811965812
v 0.0416866903079 0.0242957270148 0.0198008072175
v 0.0418142697375 0.0250625087794 0.0196524216524
v 0.0419026835219 0.0244216116107 0.0198660968661
v 0.04202870189 0.0251910344655 0.014
v 0.04202870189 0.0251910344655 0.0197236467236
v 0.0421186767359 0.0245474962066 0.0199313865147
v 0.04233466995 0.0246733808026 0.014
v 0.04233466995 0.0246733808026 0.0199966761633
f 3 43 42
f 3 42 1
f 25 4 45
f 5 4 25
f 5 46 43
f 44 45 46
f 44 25 45
f 44 46 5
f 44 5 25
f 2 3 1
f 2 43 3
f 2 5 43
f 43 46 45
f 43 45 42
f 4 42 45
f 4 1 42
f 2 1 4
f 2 4 5
