# Parametric PetalDock simulation geometry; SI units
v -0.0461939766256 0.0191341716183 0.014
v -0.0461939766256 0.0191341716183 0.0225
v -0.0461236504836 0.0191050415765 0.0226913417162
v -0.0459556925845 0.0196996020031 0.014
v -0.0459556925845 0.0196996020031 0.0222578347578
v -0.0459233785755 0.019022086236 0.0228535533906
v -0.0458857292084 0.0196696111448 0.0224436144354
v -0.04568649037 0.0195842044063 0.0225996457573
v -0.0456236504836 0.0188979347953 0.0229619397663
v -0.0453883083763 0.0194563841892 0.0226991120744
v -0.0452700970931 0.0187514881859 0.014
v -0.0452700970931 0.0187514881859 0.023
v -0.0450365787328 0.019305609963 0.014
v -0.0450365787328 0.019305609963 0.0227269705603
f 8 13 4
f 8 14 13
f 10 12 14
f 10 14 8
f 5 8 4
f 3 2 12
f 3 12 6
f 3 5 2
f 9 6 12
f 9 12 10
f 9 8 6
f 9 10 8
f 7 8 5
f 7 5 3
f 7 6 8
f 7 3 6
f 11 4 13
f 11 1 4
f 11 2 1
f 11 12 2
f 14 11 13
f 14 12 11
f 5 4 1
f 5 1 2
