# Parametric PetalDock simulation geometry; SI units
v -0.0214978088098 -0.0313343935058 0.014
v -0.0214978088098 -0.0313343935058 0.0164615384615
v -0.0213563758571 -0.0311282461801 0.0164825597499
v -0.0212149429044 -0.0309220988544 0.0165456236151
v -0.0211116688547 -0.0315958452675 0.014
v -0.0211116688547 -0.0315958452675 0.0168461538462
v -0.0210735099517 -0.0307159515287 0.0166431623932
v -0.0209727762965 -0.0313879778644 0.0168659385882
v -0.020932076999 -0.030509804203 0.0167440645774
v -0.0208338837382 -0.0311801104613 0.0169252928142
v -0.0207906440463 -0.0303036568773 0.0168449667616
v -0.02069499118 -0.0309722430583 0.0170170940171
v -0.0206492110936 -0.0300975095517 0.0169458689459
v -0.0205560986217 -0.0307643756552 0.0171120607787
v -0.0205077781409 -0.029891362226 0.0170467711301
v -0.0204172060635 -0.0305565082521 0.0172070275404
v -0.0203663451882 -0.0296852149003 0.0171476733143
v -0.0202783135052 -0.030348640849 0.017301994302
v -0.0202249122355 -0.0294790675746 0.0172485754986
v -0.020139420947 -0.030140773446 0.0173969610636
v -0.0200834792828 -0.0292729202489 0.0173494776828
v -0.0200005283887 -0.0299329060429 0.0174919278253
v -0.0199420463301 -0.0290667729232 0.017450379867
v -0.0198616358305 -0.0297250386398 0.0175868945869
v -0.0198006133774 -0.0288606255975 0.0175512820513
v -0.0197227432722 -0.0295171712367 0.0176818613485
v -0.0196591804247 -0.0286544782718 0.0176521842355
v -0.0195838507139 -0.0293093038337 0.0177768281102
v -0.019517747472 -0.0284483309461 0.0177530864198
v -0.0194449581557 -0.0291014364306 0.0178717948718
v -0.0193763145193 -0.0282421836204 0.017853988604
v -0.0193060655974 -0.0288935690275 0.0179667616334
v -0.0192348815666 -0.0280360362947 0.0179548907882
v -0.0191671730392 -0.0286857016244 0.0180617283951
v -0.0190934486139 -0.027829888969 0.0180557929725
v -0.0190282804809 -0.0284778342214 0.0181566951567
v -0.0189520156613 -0.0276237416433 0.0181566951567
v -0.0188893879227 -0.0282699668183 0.0182516619183
v -0.0188105827086 -0.0274175943176 0.0182575973409
v -0.0187504953644 -0.0280620994152 0.01834662868
v -0.0186691497559 -0.0272114469919 0.014
v -0.0186691497559 -0.0272114469919 0.0183584995252
v -0.0186116028062 -0.0278542320121 0.0184415954416
v -0.0184727102479 -0.0276463646091 0.0185365622032
v -0.0183338176896 -0.027438497206 0.014
v -0.0183338176896 -0.027438497206 0.0186315289649
f 28 45 46
f 28 5 45
f 28 46 6
f 28 6 5
f 37 41 1
f 37 1 2
f 42 41 37
f 42 6 46
f 42 2 6
f 42 37 2
f 41 45 5
f 41 5 1
f 2 5 6
f 2 1 5
f 42 45 41
f 42 46 45
