# Parametric PetalDock simulation geometry; SI units
v -0.0230269355479 -0.0443819810201 0.014
v -0.0230269355479 -0.0443819810201 0.0208048433048
v -0.0229918791259 -0.0443144134773 0.0209572507509
v -0.0228920468825 -0.0441219973946 0.0210761999576
v -0.0227426373716 -0.0438340263764 0.021122145923
v -0.022566396837 -0.0434943413997 0.014
v -0.022566396837 -0.0434943413997 0.0210887939221
v -0.0224805664827 -0.0446612150598 0.014
v -0.0224805664827 -0.0446612150598 0.021047008547
v -0.0224463418581 -0.0445932224084 0.0212049780317
v -0.0223488783732 -0.0443995957191 0.0213301075909
v -0.0222030139599 -0.0441098129 0.0213849736149
v -0.0220309551531 -0.0437679907586 0.014
v -0.0220309551531 -0.0437679907586 0.0213618233618
f 12 8 13
f 9 8 12
f 14 12 13
f 11 12 4
f 11 4 3
f 2 3 4
f 2 4 7
f 5 4 12
f 5 7 4
f 5 14 7
f 5 12 14
f 10 11 3
f 10 2 9
f 10 3 2
f 10 9 12
f 10 12 11
f 6 13 8
f 6 8 1
f 14 13 6
f 14 6 7
f 2 1 8
f 2 8 9
f 2 6 1
f 2 7 6
