# Parametric PetalDock simulation geometry; SI units
v 0.0307887623615 0.0118765362057 0.014
v 0.0307887623615 0.0118765362057 0.0235460588794
v 0.0309321873931 0.0114978164482 0.014
v 0.0309321873931 0.0114978164482 0.0238190883191
v 0.0310220105613 0.0119665099648 0.0235579297246
v 0.0311665221461 0.0115849211183 0.0238368945869
v 0.031255258761 0.0120564837239 0.0235698005698
v 0.0314008568991 0.0116720257884 0.0238547008547
v 0.0314885069607 0.0121464574831 0.023581671415
v 0.031635191652 0.0117591304584 0.0238725071225
v 0.0317217551604 0.0122364312422 0.0235935422602
v 0.031869526405 0.0118462351285 0.0238903133903
v 0.0319550033601 0.0123264050013 0.0236054131054
v 0.032103861158 0.0119333397985 0.0239081196581
v 0.0321882515598 0.0124163787605 0.0236172839506
v 0.032338195911 0.0120204444686 0.0239259259259
v 0.0324214997595 0.0125063525196 0.0236291547958
v 0.032572530664 0.0121075491387 0.0239437321937
v 0.0326547479592 0.0125963262787 0.023641025641
v 0.0328068654169 0.0121946538087 0.0239615384615
v 0.0328879961589 0.0126863000379 0.0236528964862
v 0.0330412001699 0.0122817584788 0.0239793447293
v 0.0331212443586 0.012776273797 0.0236647673314
v 0.0332755349229 0.0123688631489 0.0239971509972
v 0.0333544925583 0.0128662475561 0.0236766381766
v 0.0335098696759 0.0124559678189 0.024014957265
v 0.0335877407581 0.0129562213153 0.0236885090218
v 0.0337442044289 0.012543072489 0.0240327635328
v 0.0338209889578 0.0130461950744 0.023700379867
v 0.0339785391818 0.012630177159 0.0240505698006
v 0.0340542371575 0.0131361688335 0.0237122507123
v 0.0342128739348 0.0127172818291 0.0240683760684
v 0.0342874853572 0.0132261425927 0.0237241215575
v 0.0344472086878 0.0128043864992 0.0240861823362
v 0.0345207335569 0.0133161163518 0.0237359924027
v 0.0346815434408 0.0128914911692 0.024103988604
v 0.0347539817566 0.0134060901109 0.0237478632479
v 0.0349158781937 0.0129785958393 0.0241217948718
v 0.0349872299563 0.0134960638701 0.0237593383982
v 0.0351502129467 0.0130657005094 0.0241390075973
v 0.035220478156 0.0135860376292 0.0237667576765
v 0.0353845476997 0.0131528051794 0.0241501365147
v 0.0354537263557 0.0136760113883 0.014
v 0.0354537263557 0.0136760113883 0.0237692307692
v 0.0356188824527 0.0132399098495 0.014
v 0.0356188824527 0.0132399098495 0.0241538461538
f 39 43 1
f 36 3 45
f 42 45 46
f 42 36 45
f 42 41 39
f 42 46 44
f 42 44 41
f 40 42 39
f 40 36 42
f 14 3 36
f 14 4 3
f 37 40 39
f 38 36 40
f 38 40 2
f 38 2 24
f 8 2 4
f 8 4 24
f 8 24 2
f 26 24 4
f 33 2 40
f 33 40 37
f 33 21 2
f 33 39 21
f 33 37 39
f 30 26 36
f 30 36 38
f 30 38 24
f 30 24 26
f 44 46 45
f 44 45 43
f 3 43 45
f 3 1 43
f 41 44 43
f 41 43 39
f 2 1 3
f 2 3 4
f 26 4 14
f 26 14 36
f 21 1 2
f 21 39 1
