# Parametric PetalDock simulation geometry; SI units
v 0.0282214804591 -0.0150846955784 0.014
v 0.0282214804591 -0.0150846955784 0.0205626780627
v 0.0282886127181 -0.0151205785184 0.0207095234702
v 0.0284044678529 -0.0147372387507 0.014
v 0.0284044678529 -0.0147372387507 0.0208048433048
v 0.0284720353958 -0.0147722951726 0.0209572507509
v 0.028479789217 -0.015222764486 0.0208222923244
v 0.0286644514785 -0.0148721274161 0.0210761999576
v 0.028765905067 -0.015375696594 0.0208593182311
v 0.0289524224967 -0.015021536927 0.021122145923
v 0.0291034017235 -0.0155560923153 0.014
v 0.0291034017235 -0.0155560923153 0.0208157644824
v 0.0292921074733 -0.0151977774616 0.014
v 0.0292921074733 -0.0151977774616 0.0210887939221
f 14 10 9
f 6 13 4
f 6 14 13
f 12 14 9
f 8 10 14
f 8 14 6
f 5 6 4
f 5 2 6
f 7 9 10
f 7 10 8
f 7 2 12
f 7 12 9
f 3 6 2
f 3 2 7
f 3 8 6
f 3 7 8
f 4 13 11
f 4 11 1
f 12 11 13
f 12 13 14
f 12 1 11
f 12 2 1
f 5 4 1
f 5 1 2
