# Parametric PetalDock simulation geometry; SI units
v 0.0211973048829 0.0239723646248 0.014
v 0.0211973048829 0.0239723646248 0.0168333333333
v 0.0212477282815 0.0240293892373 0.0168945233466
v 0.0213913219722 0.0241917815947 0.0169121147719
v 0.0214898865551 0.0237104360114 0.014
v 0.0214898865551 0.0237104360114 0.0168333333333
v 0.0215410059367 0.0237668375574 0.0168945233466
v 0.0216062251171 0.0244348189325 0.016811771776
v 0.021686581619 0.0239274555714 0.0169121147719
v 0.0218597206605 0.0247215010193 0.014
v 0.0218597206605 0.0247215010193 0.0166111111111
v 0.0219044510241 0.0241678374168 0.016811771776
v 0.02216144551 0.0244513871367 0.014
v 0.02216144551 0.0244513871367 0.0166111111111
f 12 5 13
f 3 2 6
f 3 4 11
f 3 10 1
f 3 1 2
f 3 11 10
f 9 12 4
f 9 4 3
f 8 11 4
f 8 4 12
f 14 12 13
f 14 11 8
f 14 8 12
f 7 3 6
f 7 9 3
f 7 6 5
f 7 5 12
f 7 12 9
f 5 10 13
f 5 1 10
f 2 1 5
f 2 5 6
f 14 13 10
f 14 10 11
