# Parametric PetalDock simulation geometry; SI units
v 0.0229033864091 -0.0223480399811 0.014
v 0.0229033864091 -0.0223480399811 0.0168333333333
v 0.0229578681741 -0.0224012007077 0.0168945233466
v 0.0231130191143 -0.0225525896487 0.0169121147719
v 0.0231759066544 -0.0220652974316 0.014
v 0.0231759066544 -0.0220652974316 0.0168333333333
v 0.023231036681 -0.0221177855802 0.0168945233466
v 0.0233452189055 -0.0227791592103 0.016811771776
v 0.0233880337138 -0.0222672591812 0.0169121147719
v 0.0236191172344 -0.0230464162305 0.014
v 0.0236191172344 -0.0230464162305 0.0166111111111
v 0.0236229963778 -0.0224909622339 0.016811771776
v 0.0239001537374 -0.0227548379763 0.014
v 0.0239001537374 -0.0227548379763 0.0166111111111
f 11 8 10
f 12 8 11
f 3 6 2
f 3 8 4
f 3 2 1
f 3 1 10
f 3 10 8
f 7 3 4
f 7 6 3
f 7 5 6
f 9 4 8
f 9 8 12
f 9 7 4
f 9 13 5
f 9 5 7
f 14 12 11
f 14 13 9
f 14 9 12
f 5 13 10
f 5 10 1
f 2 5 1
f 2 6 5
f 14 10 13
f 14 11 10
