# Parametric PetalDock simulation geometry; SI units
v -0.0012025201976 0.0489852421161 0.014
v -0.0012025201976 0.0489852421161 0.0293888888889
v -0.0011963848905 0.0487353174114 0.0295277777778
v -0.0011902495834 0.0484853927068 0.0296666666667
v -0.0011841142762 0.0482354680021 0.0298055555556
v -0.0011779789691 0.0479855432974 0.0299444444444
v -0.001171843662 0.0477356185927 0.0300833333333
v -0.0011657083548 0.0474856938881 0.0302222222222
v -0.0011595730477 0.0472357691834 0.0303611111111
v -0.0011534377406 0.0469858444787 0.0305
v -0.0011473024334 0.046735919774 0.0306388888889
v -0.0011411671263 0.0464859950694 0.0307777777778
v -0.0011350318192 0.0462360703647 0.0309166666667
v -0.0011288965121 0.04598614566 0.0310555555556
v -0.0011227612049 0.0457362209554 0.0311944444444
v -0.0011166258978 0.0454862962507 0.0313333333333
v -0.0011104905907 0.045236371546 0.0314722222222
v -0.0011043552835 0.0449864468413 0.0316111111111
v -0.0010982199764 0.0447365221367 0.03175
v -0.0010920846693 0.044486597432 0.0318842592593
v -0.0010859493621 0.0442366727273 0.0319710648148
v -0.001079814055 0.0439867480226 0.014
v -0.001079814055 0.0439867480226 0.032
v -0.000601305376 0.0489963103901 0.014
v -0.000601305376 0.0489963103901 0.0293888888889
v -0.0005982374914 0.0487463292147 0.0295277777778
v -0.0005951696069 0.0484963480392 0.0296666666667
v -0.0005921017223 0.0482463668637 0.0298055555556
v -0.0005890338377 0.0479963856883 0.0299444444444
v -0.0005859659531 0.0477464045128 0.0300833333333
v -0.0005828980686 0.0474964233374 0.0302222222222
v -0.000579830184 0.0472464421619 0.0303611111111
v -0.0005767622994 0.0469964609864 0.0305
v -0.0005736944149 0.046746479811 0.0306388888889
v -0.0005706265303 0.0464964986355 0.0307777777778
v -0.0005675586457 0.0462465174601 0.0309166666667
v -0.0005644907611 0.0459965362846 0.0310555555556
v -0.0005614228766 0.0457465551091 0.0311944444444
v -0.000558354992 0.0454965739337 0.0313333333333
v -0.0005552871074 0.0452465927582 0.0314722222222
v -0.0005522192229 0.0449966115828 0.0316111111111
v -0.0005491513383 0.0447466304073 0.03175
v -0.0005460834537 0.0444966492318 0.0318842592593
v -0.0005430155691 0.0442466680564 0.0319710648148
v -0.0005399476846 0.0439966868809 0.014
v -0.0005399476846 0.0439966868809 0.032
f 20 22 23
f 44 45 24
f 4 1 22
f 21 20 23
f 21 23 44
f 21 44 20
f 46 45 44
f 46 44 23
f 42 19 20
f 26 25 2
f 26 2 4
f 26 24 25
f 26 30 24
f 14 19 4
f 14 4 22
f 3 2 1
f 3 1 4
f 3 4 2
f 43 20 44
f 43 42 20
f 37 30 26
f 17 20 19
f 17 19 14
f 40 42 43
f 40 37 42
f 40 44 37
f 40 43 44
f 36 4 19
f 36 26 4
f 36 37 26
f 41 19 42
f 41 36 19
f 22 24 45
f 22 1 24
f 25 24 1
f 25 1 2
f 46 22 45
f 46 23 22
f 37 24 30
f 37 44 24
f 17 14 22
f 17 22 20
f 41 37 36
f 41 42 37
