# Parametric PetalDock simulation geometry; SI units
v 0.0107359607677 0.0478094043719 0.014
v 0.0107359607677 0.0478094043719 0.0268224121557
v 0.0108198071823 0.048182789412 0.0266415274527
v 0.0108908887404 0.0484993299645 0.0264082602565
v 0.010938383919 0.0487108355997 0.0261595236467
v 0.0109550620078 0.0487851065019 0.014
v 0.0109550620078 0.0487851065019 0.0258903133903
v 0.0113218473058 0.0476740576581 0.014
v 0.0113218473058 0.0476740576581 0.026549382716
v 0.0114102694157 0.0480463856585 0.0263786997608
v 0.011485230061 0.048362030096 0.0261543526232
v 0.0115353171628 0.0485729369663 0.025911796366
v 0.011552905414 0.0486469976103 0.014
v 0.011552905414 0.0486469976103 0.0256481481481
f 3 1 2
f 3 6 1
f 3 7 6
f 11 8 13
f 12 13 14
f 12 11 13
f 9 8 11
f 5 14 7
f 5 12 14
f 5 7 3
f 10 2 9
f 10 3 2
f 10 11 3
f 10 9 11
f 4 3 11
f 4 5 3
f 4 11 12
f 4 12 5
f 8 1 6
f 8 6 13
f 14 6 7
f 14 13 6
f 9 1 8
f 9 2 1
