# Parametric PetalDock simulation geometry; SI units
v 0.0489409773541 -0.002404316042 0.014
v 0.0489409773541 -0.002404316042 0.0293888888889
v 0.0489667968448 -0.0018035539241 0.014
v 0.0489667968448 -0.0018035539241 0.0293888888889
v 0.0493231998275 -0.0024230934281 0.0291121077565
v 0.049349220965 -0.0018176394385 0.0291121077565
v 0.0496472323942 -0.0024390121273 0.0287949920093
v 0.0496734244796 -0.0018295805611 0.0287949920093
v 0.0498637440332 -0.0024496486621 0.0284881600858
v 0.0498900503423 -0.0018375593641 0.0284881600858
v 0.0499397728103 -0.0024533837164 0.014
v 0.0499397728103 -0.0024533837164 0.0281666666667
v 0.0499661192294 -0.0018403611471 0.014
v 0.0499661192294 -0.0018403611471 0.0281666666667
f 5 2 1
f 5 1 11
f 6 13 3
f 6 14 13
f 6 2 5
f 9 11 12
f 9 5 11
f 4 2 6
f 4 6 3
f 7 5 9
f 10 12 14
f 10 9 12
f 10 14 6
f 8 7 9
f 8 9 10
f 8 10 6
f 8 6 5
f 8 5 7
f 3 11 1
f 3 13 11
f 14 12 11
f 14 11 13
f 4 3 1
f 4 1 2
