# Parametric PetalDock simulation geometry; SI units
v -0.0153991699322 -0.0347399707167 0.014
v -0.0153991699322 -0.0347399707167 0.0222307692308
v -0.0152978596037 -0.0345114182778 0.0222332423235
v -0.0151965492752 -0.0342828658389 0.0222406616018
v -0.0150952389467 -0.0340543134 0.0222521367521
v -0.0149939286182 -0.033825760961 0.0222640075973
v -0.0149716975223 -0.0349263263642 0.014
v -0.0149716975223 -0.0349263263642 0.0226153846154
v -0.0148926182897 -0.0335972085221 0.0222758784425
v -0.0148731995123 -0.0346965479013 0.0226166211618
v -0.0147913079612 -0.0333686560832 0.0222877492877
v -0.0147747015023 -0.0344667694384 0.0226203308009
v -0.0146899976327 -0.0331401036443 0.022299620133
v -0.0146762034923 -0.0342369909755 0.0226260683761
v -0.0145886873042 -0.0329115512053 0.0223114909782
v -0.0145777054823 -0.0340072125125 0.0226320037987
v -0.0144873769757 -0.0326829987664 0.0223233618234
v -0.0144792074722 -0.0337774340496 0.0226379392213
v -0.0143860666472 -0.0324544463275 0.0223352326686
v -0.0143807094622 -0.0335476555867 0.0226438746439
v -0.0142847563187 -0.0322258938885 0.0223471035138
v -0.0142822114522 -0.0333178771238 0.0226498100665
v -0.0141837134422 -0.0330880986608 0.0226557454891
v -0.0141834459902 -0.0319973414496 0.022358974359
v -0.0140852154322 -0.0328583201979 0.0226616809117
v -0.0140821356617 -0.0317687890107 0.0223708452042
v -0.0139867174222 -0.032628541735 0.0226676163343
v -0.0139808253332 -0.0315402365718 0.0223827160494
v -0.0138882194122 -0.0323987632721 0.0226735517569
v -0.0138795150047 -0.0313116841328 0.0223945868946
v -0.0137897214021 -0.0321689848092 0.0226794871795
v -0.0137782046762 -0.0310831316939 0.0224064577398
v -0.0136912233921 -0.0319392063462 0.0226854226021
v -0.0136768943477 -0.030854579255 0.022418328585
v -0.0135927253821 -0.0317094278833 0.0226913580247
v -0.0135755840192 -0.0306260268161 0.0224301994302
v -0.0134942273721 -0.0314796494204 0.0226972934473
v -0.0134742736907 -0.0303974743771 0.0224420702754
v -0.0133957293621 -0.0312498709575 0.0227032288699
v -0.0133729633622 -0.0301689219382 0.014
v -0.0133729633622 -0.0301689219382 0.0224539411206
v -0.0132972313521 -0.0310200924945 0.0227091642925
v -0.013198733342 -0.0307903140316 0.0227150997151
v -0.013100235332 -0.0305605355687 0.0227210351377
v -0.013001737322 -0.0303307571058 0.014
v -0.013001737322 -0.0303307571058 0.0227269705603
f 31 7 45
f 43 45 46
f 43 31 45
f 43 46 8
f 43 8 31
f 18 8 7
f 18 7 31
f 18 31 8
f 21 1 2
f 41 8 46
f 41 2 8
f 38 41 40
f 38 2 41
f 40 45 7
f 40 7 1
f 2 7 8
f 2 1 7
f 41 45 40
f 41 46 45
f 38 40 1
f 38 1 21
f 38 21 2
