# Parametric PetalDock simulation geometry; SI units
v 0.0249878919347 -0.0215547038175 0.014
v 0.0249878919347 -0.0215547038175 0.0166111111111
v 0.0251771941463 -0.0217179970282 0.0164722222222
v 0.0252505197655 -0.0212464409154 0.014
v 0.0252505197655 -0.0212464409154 0.0166373639419
v 0.025366496358 -0.021881290239 0.0163333333333
v 0.0254418115819 -0.0214073988011 0.0164990457667
v 0.0255557985696 -0.0220445834497 0.0161944444444
v 0.0256331033984 -0.0215683566868 0.0163607275915
v 0.0257451007812 -0.0222078766604 0.0160555555556
v 0.0258243952148 -0.0217293145725 0.0162224094163
v 0.0259344029928 -0.0223711698712 0.0159166666667
v 0.0260156870312 -0.0218902724583 0.0160840912411
v 0.0261237052045 -0.0225344630819 0.0157777777778
v 0.0262069788476 -0.022051230344 0.015945773066
v 0.0263130074161 -0.0226977562926 0.0156388888889
v 0.026398270664 -0.0222121882297 0.0158074548908
v 0.0265023096277 -0.0228610495034 0.0155
v 0.0265895624804 -0.0223731461154 0.0156691367156
v 0.0266916118394 -0.0230243427141 0.0153611111111
v 0.0267808542968 -0.0225341040011 0.0155308185404
v 0.026880914051 -0.0231876359249 0.0152222222222
v 0.0269721461132 -0.0226950618869 0.0153925003653
v 0.0270702162626 -0.0233509291356 0.0150833333333
v 0.0271634379296 -0.0228560197726 0.0152541821901
v 0.0272595184742 -0.0235142223463 0.0149444444444
v 0.027354729746 -0.0230169776583 0.0151158640149
v 0.0274488206859 -0.0236775155571 0.0148055555556
v 0.0275460215624 -0.023177935544 0.0149775458397
v 0.0276381228975 -0.0238408087678 0.0146666666667
v 0.0277373133788 -0.0233388934298 0.0148392276645
v 0.0278274251091 -0.0240041019786 0.0145277777778
v 0.0279286051952 -0.0234998513155 0.0147009094894
v 0.0280167273207 -0.0241673951893 0.0143888888889
v 0.0281198970116 -0.0236608092012 0.0145625913142
v 0.0282060295324 -0.0243306884 0.01425
v 0.028311188828 -0.0238217670869 0.014424273139
v 0.028395331744 -0.0244939816108 0.0141157407407
v 0.0285024806444 -0.0239827249726 0.0142859549638
v 0.0285846339556 -0.0246572748215 0.0140289351852
v 0.0286937724608 -0.0241436828584 0.0141522473945
v 0.0287739361672 -0.0248205680322 0.014
v 0.0288850642772 -0.0243046407441 0.014065798535
v 0.0290763560937 -0.0244655986298 0.014
v 0.0290763560937 -0.0244655986298 0.0140369822485
f 45 42 44
f 45 5 2
f 45 2 42
f 11 44 4
f 11 45 44
f 38 32 1
f 38 42 32
f 12 2 1
f 12 1 32
f 12 42 2
f 12 32 42
f 9 4 5
f 9 11 4
f 9 5 45
f 9 45 11
f 40 1 42
f 40 38 1
f 40 42 38
f 4 44 42
f 4 42 1
f 2 4 1
f 2 5 4
