# Parametric PetalDock simulation geometry; SI units
v 0.0291034017235 -0.0155560923153 0.014
v 0.0291034017235 -0.0155560923153 0.0208157644824
v 0.0292921074733 -0.0151977774616 0.014
v 0.0292921074733 -0.0151977774616 0.0210887939221
v 0.0293238820396 -0.0156739414995 0.0207682811016
v 0.0295140173784 -0.0153129121394 0.0210472459639
v 0.0295443623557 -0.0157917906837 0.0207207977208
v 0.0297359272835 -0.0154280468171 0.0210056980057
v 0.0297648426718 -0.0159096398679 0.02067331434
v 0.0299578371886 -0.0155431814948 0.0209641500475
v 0.0299853229878 -0.0160274890521 0.0206258309592
v 0.0301797470937 -0.0156583161726 0.0209226020893
v 0.0302058033039 -0.0161453382363 0.0205783475783
v 0.0304016569988 -0.0157734508503 0.0208810541311
v 0.03042628362 -0.0162631874205 0.0205308641975
v 0.0306235669039 -0.0158885855281 0.0208395061728
v 0.0306467639361 -0.0163810366047 0.0204833808167
v 0.030845476809 -0.0160037202058 0.0207979582146
v 0.0308672442522 -0.0164988857889 0.0204358974359
v 0.0310673867141 -0.0161188548835 0.0207564102564
v 0.0310877245683 -0.0166167349731 0.0203884140551
v 0.0312892966192 -0.0162339895613 0.0207148622982
v 0.0313082048844 -0.0167345841573 0.0203409306743
v 0.0315112065243 -0.016349124239 0.02067331434
v 0.0315286852005 -0.0168524333415 0.0202934472934
v 0.0317331164294 -0.0164642589168 0.0206317663818
v 0.0317491655165 -0.0169702825257 0.0202459639126
v 0.0319550263345 -0.0165793935945 0.0205902184236
v 0.0319696458326 -0.0170881317099 0.0201984805318
v 0.0321769362396 -0.0166945282722 0.0205486704653
v 0.0321901261487 -0.0172059808941 0.020150997151
v 0.0323988461447 -0.01680966295 0.0205071225071
v 0.0324106064648 -0.0173238300784 0.0201035137702
v 0.0326207560498 -0.0169247976277 0.0204655745489
v 0.0326310867809 -0.0174416792626 0.0200560303894
v 0.0328426659549 -0.0170399323055 0.0204240265907
v 0.032851567097 -0.0175595284468 0.0200085470085
v 0.03306457586 -0.0171550669832 0.0203824786325
v 0.0330720474131 -0.017677377631 0.0199626464071
v 0.0332864857651 -0.0172702016609 0.0203423156062
v 0.0332925277292 -0.0177952268152 0.0199329692941
v 0.0335083956702 -0.0173853363387 0.0203163481323
v 0.0335130080452 -0.0179130759994 0.014
v 0.0335130080452 -0.0179130759994 0.0199230769231
v 0.0337303055753 -0.0175004710164 0.014
v 0.0337303055753 -0.0175004710164 0.0203076923077
f 2 46 4
f 33 1 43
f 33 2 1
f 40 46 45
f 40 45 3
f 10 3 4
f 10 4 46
f 10 46 40
f 44 33 43
f 44 46 2
f 44 2 33
f 3 45 43
f 3 43 1
f 2 3 1
f 2 4 3
f 10 40 3
f 44 43 45
f 44 45 46
