# Parametric PetalDock simulation geometry; SI units
v 0.0192991144957 -0.0395416764905 0.014
v 0.0192991144957 -0.0395416764905 0.0210769230769
v 0.0194087685553 -0.039766345107 0.0210831058088
v 0.019518422615 -0.0399910137234 0.0211016540044
v 0.0196280766746 -0.0402156823398 0.0211303418803
v 0.0197377307342 -0.0404403509562 0.0211600189934
v 0.0197828985048 -0.0393018692526 0.014
v 0.0197828985048 -0.0393018692526 0.0206923076923
v 0.0198473847939 -0.0406650195727 0.0211896961064
v 0.0198953013372 -0.0395251753279 0.0206997269706
v 0.0199570388535 -0.0408896881891 0.0212193732194
v 0.0200077041696 -0.0397484814032 0.0207219848053
v 0.0200666929131 -0.0411143568055 0.0212490503324
v 0.020120107002 -0.0399717874785 0.0207564102564
v 0.0201763469728 -0.0413390254219 0.0212787274454
v 0.0202325098345 -0.0401950935538 0.020792022792
v 0.0202860010324 -0.0415636940383 0.0213084045584
v 0.0203449126669 -0.0404183996291 0.0208276353276
v 0.020395655092 -0.0417883626548 0.0213380816714
v 0.0204573154993 -0.0406417057044 0.0208632478632
v 0.0205053091517 -0.0420130312712 0.0213677587844
v 0.0205697183317 -0.0408650117797 0.0208988603989
v 0.0206149632113 -0.0422376998876 0.0213974358974
v 0.0206821211641 -0.041088317855 0.0209344729345
v 0.0207246172709 -0.042462368504 0.0214271130104
v 0.0207945239965 -0.0413116239303 0.0209700854701
v 0.0208342713306 -0.0426870371205 0.0214567901235
v 0.0209069268289 -0.0415349300056 0.0210056980057
v 0.0209439253902 -0.0429117057369 0.0214864672365
v 0.0210193296614 -0.0417582360809 0.0210413105413
v 0.0210535794498 -0.0431363743533 0.0215161443495
v 0.0211317324938 -0.0419815421562 0.0210769230769
v 0.0211632335095 -0.0433610429697 0.0215458214625
v 0.0212441353262 -0.0422048482315 0.0211125356125
v 0.0212728875691 -0.0435857115862 0.0215754985755
v 0.0213565381586 -0.0424281543068 0.0211481481481
v 0.0213825416288 -0.0438103802026 0.0216051756885
v 0.021468940991 -0.0426514603821 0.0211837606838
v 0.0214921956884 -0.044035048819 0.014
v 0.0214921956884 -0.044035048819 0.0216348528015
v 0.0215813438234 -0.0428747664574 0.0212193732194
v 0.0216937466558 -0.0430980725327 0.021254985755
v 0.0218061494882 -0.043321378608 0.0212905982906
v 0.0219185523207 -0.0435446846833 0.0213262108262
v 0.0220309551531 -0.0437679907586 0.014
v 0.0220309551531 -0.0437679907586 0.0213618233618
f 46 2 40
f 46 8 2
f 16 45 7
f 16 7 8
f 35 39 40
f 35 40 2
f 3 2 1
f 3 35 2
f 30 16 8
f 30 45 16
f 31 19 39
f 31 39 35
f 31 3 19
f 31 35 3
f 44 8 46
f 44 30 8
f 44 46 45
f 44 45 30
f 7 45 39
f 7 39 1
f 2 7 1
f 2 8 7
f 46 39 45
f 46 40 39
f 3 1 39
f 3 39 19
