# Parametric PetalDock simulation geometry; SI units
v 0.0046953751826 0.0316536483189 0.014
v 0.0046953751826 0.0316536483189 0.0273433048433
v 0.0047065443749 0.0317289448972 0.0276458873312
v 0.0047383515435 0.0319433714109 0.0279317060562
v 0.0047859543354 0.0322642833668 0.028218493604
v 0.004842105657 0.0326428248288 0.014
v 0.004842105657 0.0326428248288 0.0284605887939
v 0.0050834605867 0.0315936453811 0.014
v 0.0050834605867 0.0315936453811 0.0271011396011
v 0.0050955529428 0.0316687992266 0.0273981600505
v 0.0051299890596 0.0318828192714 0.0276777984229
v 0.0051815263505 0.0322031229037 0.0279556659122
v 0.00524231873 0.0325809467992 0.014
v 0.00524231873 0.0325809467992 0.0281875593542
f 4 6 1
f 4 1 2
f 3 2 9
f 3 4 2
f 11 5 4
f 12 8 13
f 12 9 8
f 12 13 14
f 12 5 11
f 12 14 7
f 12 7 5
f 10 3 9
f 10 9 12
f 10 12 11
f 10 4 3
f 10 11 4
f 8 6 13
f 8 1 6
f 2 1 8
f 2 8 9
f 14 13 6
f 14 6 7
f 5 7 6
f 5 6 4
