# Parametric PetalDock simulation geometry; SI units
v -0.0473818470812 -0.0124884173206 0.014
v -0.0473818470812 -0.0124884173206 0.0260033238367
v -0.047225027224 -0.0130689251163 0.014
v -0.047225027224 -0.0130689251163 0.025730294397
v -0.0471401029634 -0.0124247009057 0.0260686134853
v -0.0469840832075 -0.0130022469269 0.025789648623
v -0.0468983588457 -0.0123609844908 0.0261339031339
v -0.0467431391911 -0.0129355687375 0.025849002849
v -0.0466566147279 -0.0122972680759 0.0261991927825
v -0.0465021951746 -0.0128688905482 0.025908357075
v -0.0464148706102 -0.012233551661 0.0262644824311
v -0.0462612511582 -0.0128022123588 0.025967711301
v -0.0461731264924 -0.0121698352461 0.0263297720798
v -0.0460203071417 -0.0127355341694 0.0260270655271
v -0.0459313823746 -0.0121061188312 0.0263950617284
v -0.0457793631253 -0.0126688559801 0.0260864197531
v -0.0456896382569 -0.0120424024163 0.026460351377
v -0.0455384191088 -0.0126021777907 0.0261457739791
v -0.0454478941391 -0.0119786860014 0.0265256410256
v -0.0452974750924 -0.0125354996013 0.0262051282051
v -0.0452061500213 -0.0119149695865 0.0265909306743
v -0.0450565310759 -0.012468821412 0.0262644824311
v -0.0449644059036 -0.0118512531716 0.0266562203229
v -0.0448155870595 -0.0124021432226 0.0263238366572
v -0.0447226617858 -0.0117875367567 0.0267215099715
v -0.044574643043 -0.0123354650332 0.0263831908832
v -0.0444809176681 -0.0117238203418 0.0267867996201
v -0.0443336990266 -0.0122687868438 0.0264425451092
v -0.0442391735503 -0.0116601039269 0.0268520892688
v -0.0440927550101 -0.0122021086545 0.0265018993352
v -0.0439974294325 -0.011596387512 0.0269173789174
v -0.0438518109937 -0.0121354304651 0.0265612535613
v -0.0437556853148 -0.0115326710971 0.026982668566
v -0.0436108669772 -0.0120687522757 0.0266206077873
v -0.043513941197 -0.0114689546822 0.0270479582146
v -0.0433699229608 -0.0120020740864 0.0266799620133
v -0.0432721970793 -0.0114052382673 0.0271132478632
v -0.0431289789443 -0.011935395897 0.0267393162393
v -0.0430304529615 -0.0113415218524 0.0271763611903
v -0.0428880349279 -0.0118687177076 0.0267966919911
v -0.0427887088437 -0.0112778054375 0.0272171672206
v -0.0426470909114 -0.0118020395183 0.0268337883824
v -0.042546964726 -0.0112140890226 0.014
v -0.042546964726 -0.0112140890226 0.0272307692308
v -0.042406146895 -0.0117353613289 0.014
v -0.042406146895 -0.0117353613289 0.0268461538462
f 29 2 4
f 11 43 1
f 11 1 2
f 42 45 46
f 42 41 40
f 42 46 44
f 42 44 41
f 37 29 4
f 37 44 43
f 37 43 11
f 39 41 44
f 39 44 37
f 39 40 41
f 39 37 4
f 38 42 40
f 38 36 42
f 38 40 39
f 38 39 36
f 22 42 36
f 22 3 45
f 22 45 42
f 32 39 4
f 32 36 39
f 16 22 36
f 10 4 3
f 10 3 22
f 43 45 3
f 43 3 1
f 46 45 43
f 46 43 44
f 4 1 3
f 4 2 1
f 37 2 29
f 37 11 2
f 16 36 32
f 16 32 4
f 10 16 4
f 10 22 16
