# Parametric PetalDock simulation geometry; SI units
v 0.0294116432541 -0.012607745282 0.014
v 0.0294116432541 -0.012607745282 0.0222578347578
v 0.0294816066301 -0.0126377361402 0.0224436144354
v 0.0295641450404 -0.0122458698357 0.014
v 0.0295641450404 -0.0122458698357 0.0225
v 0.0296344711823 -0.0122749998775 0.0226913417162
v 0.0296808454686 -0.0127231428788 0.0225996457573
v 0.0298347430904 -0.012357955218 0.0228535533906
v 0.0299790274623 -0.0128509630958 0.0226991120744
v 0.0301344711823 -0.0124821066586 0.0229619397663
v 0.0303307571058 -0.013001737322 0.014
v 0.0303307571058 -0.013001737322 0.0227269705603
v 0.0304880245729 -0.012628553268 0.014
v 0.0304880245729 -0.012628553268 0.023
f 7 11 12
f 7 1 11
f 10 14 13
f 10 13 4
f 5 10 4
f 9 12 14
f 9 14 10
f 9 7 12
f 9 10 7
f 2 1 7
f 8 7 10
f 6 10 5
f 6 8 10
f 6 5 2
f 3 2 7
f 3 6 2
f 3 7 8
f 3 8 6
f 12 13 14
f 12 11 13
f 4 13 11
f 4 11 1
f 2 4 1
f 2 5 4
