# Parametric PetalDock simulation geometry; SI units
v 0.0329063887875 0.0363066051424 0.014
v 0.0329063887875 0.0363066051424 0.0166111111111
v 0.0331633832734 0.0365901548623 0.016811771776
v 0.033349448892 0.0359000593119 0.014
v 0.033349448892 0.0359000593119 0.0166111111111
v 0.0333812526784 0.0368305367077 0.0169121147719
v 0.0335268283608 0.0369911547217 0.0168945233466
v 0.0335779477424 0.0370475562677 0.014
v 0.0335779477424 0.0370475562677 0.0168333333333
v 0.0336099036179 0.0361804339634 0.016811771776
v 0.0338307064728 0.0364181241157 0.0169121147719
v 0.0339782422236 0.036576943598 0.0168945233466
v 0.0340300498898 0.0366327135836 0.014
v 0.0340300498898 0.0366327135836 0.0168333333333
f 6 8 1
f 2 6 1
f 7 8 6
f 7 9 8
f 3 2 5
f 3 6 2
f 14 9 7
f 11 5 14
f 11 6 3
f 11 7 6
f 10 3 5
f 10 5 11
f 10 11 3
f 12 14 7
f 12 7 11
f 12 11 14
f 4 8 13
f 4 1 8
f 2 1 4
f 2 4 5
f 14 4 13
f 14 5 4
f 14 13 8
f 14 8 9
