# Parametric PetalDock simulation geometry; SI units
v -0.0480584787398 0.0095594257788 0.014
v -0.0480584787398 0.0095594257788 0.0273684710351
v -0.0479375511653 0.0101484574334 0.014
v -0.0479375511653 0.0101484574334 0.0270954415954
v -0.0478132824197 0.0095106531983 0.0274634377968
v -0.0476929718226 0.0100966795894 0.0271844729345
v -0.0475680860996 0.0094618806178 0.0275584045584
v -0.0474483924799 0.0100449017453 0.0272735042735
v -0.0473228897795 0.0094131080373 0.02765337132
v -0.0472038131372 0.0099931239013 0.0273625356125
v -0.0470776934594 0.0093643354568 0.0277483380817
v -0.0469592337945 0.0099413460572 0.0274515669516
v -0.0468324971393 0.0093155628763 0.0278433048433
v -0.0467146544519 0.0098895682132 0.0275405982906
v -0.0465873008192 0.0092667902958 0.0279382716049
v -0.0464700751092 0.0098377903691 0.0276296296296
v -0.0463421044991 0.0092180177153 0.0280332383666
v -0.0462254957665 0.0097860125251 0.0277186609687
v -0.046096908179 0.0091692451348 0.0281282051282
v -0.0459809164238 0.009734234681 0.0278076923077
v -0.0458517118589 0.0091204725543 0.0282231718898
v -0.0457363370811 0.009682456837 0.0278967236467
v -0.0456065155388 0.0090716999737 0.0283181386515
v -0.0454917577385 0.0096306789929 0.0279857549858
v -0.0453613192186 0.0090229273932 0.0284131054131
v -0.0452471783958 0.0095789011489 0.0280747863248
v -0.0451161228985 0.0089741548127 0.0285080721747
v -0.0450025990531 0.0095271233048 0.0281638176638
v -0.0448709265784 0.0089253822322 0.0286030389364
v -0.0447580197104 0.0094753454608 0.0282528490028
v -0.0446257302583 0.0088766096517 0.028698005698
v -0.0445134403677 0.0094235676167 0.0283418803419
v -0.0443805339382 0.0088278370712 0.0287929724596
v -0.0442688610251 0.0093717897727 0.0284309116809
v -0.0441353376181 0.0087790644907 0.0288879392213
v -0.0440242816824 0.0093200119286 0.0285199430199
v -0.043890141298 0.0087302919102 0.0289829059829
v -0.0437797023397 0.0092682340846 0.028608974359
v -0.0436449449779 0.0086815193297 0.0290747071858
v -0.043535122997 0.0092164562406 0.0286950379867
v -0.0433997486578 0.0086327467492 0.0291340614118
v -0.0432905436543 0.0091646783965 0.0287506825736
v -0.0431545523377 0.0085839741687 0.014
v -0.0431545523377 0.0085839741687 0.0291538461538
v -0.0430459643117 0.0091129005525 0.014
v -0.0430459643117 0.0091129005525 0.0287692307692
f 40 46 45
f 42 44 46
f 42 46 40
f 5 4 2
f 5 17 4
f 41 42 40
f 41 40 39
f 41 44 42
f 37 39 4
f 38 39 40
f 23 5 2
f 23 2 1
f 23 17 5
f 23 1 43
f 23 43 44
f 23 44 41
f 23 41 39
f 23 39 37
f 10 40 45
f 35 17 23
f 35 23 37
f 35 4 17
f 35 37 4
f 22 38 40
f 22 40 10
f 6 45 3
f 6 10 45
f 6 3 4
f 6 4 39
f 18 39 38
f 18 6 39
f 18 38 22
f 43 3 45
f 43 1 3
f 46 43 45
f 46 44 43
f 4 3 1
f 4 1 2
f 18 10 6
f 18 22 10
