# Parametric PetalDock simulation geometry; SI units
v -0.0410730105722 0.0267209244327 0.014
v -0.0410730105722 0.0267209244327 0.0189045584046
v -0.0408634543958 0.0265845931856 0.0188155270655
v -0.0407420110028 0.027222941418 0.014
v -0.0407420110028 0.027222941418 0.0186315289649
v -0.0406538982194 0.0264482619385 0.0187264957265
v -0.0405341435997 0.0270840488597 0.0185365622032
v -0.040444342043 0.0263119306914 0.0186374643875
v -0.0403262761967 0.0269451563015 0.0184415954416
v -0.0402347858666 0.0261755994443 0.0185484330484
v -0.0401184087936 0.0268062637432 0.01834662868
v -0.0400252296902 0.0260392681972 0.0184594017094
v -0.0399105413905 0.0266673711849 0.0182516619183
v -0.0398156735139 0.02590293695 0.0183703703704
v -0.0397026739874 0.0265284786267 0.0181566951567
v -0.0396061173375 0.0257666057029 0.0182813390313
v -0.0394948065844 0.0263895860684 0.0180617283951
v -0.0393965611611 0.0256302744558 0.0181923076923
v -0.0392869391813 0.0262506935102 0.0179667616334
v -0.0391870049847 0.0254939432087 0.0181032763533
v -0.0390790717782 0.0261118009519 0.0178717948718
v -0.0389774488083 0.0253576119616 0.0180142450142
v -0.0388712043751 0.0259729083937 0.0177768281102
v -0.0387678926319 0.0252212807145 0.0179252136752
v -0.0386633369721 0.0258340158354 0.0176818613485
v -0.0385583364555 0.0250849494674 0.0178361823362
v -0.038455469569 0.0256951232772 0.0175868945869
v -0.0383487802791 0.0249486182203 0.0177471509972
v -0.0382476021659 0.0255562307189 0.0174919278253
v -0.0381392241027 0.0248122869732 0.0176581196581
v -0.0380397347628 0.0254173381606 0.0173969610636
v -0.0379296679264 0.0246759557261 0.0175690883191
v -0.0378318673598 0.0252784456024 0.017301994302
v -0.03772011175 0.024539624479 0.0174800569801
v -0.0376239999567 0.0251395530441 0.0172070275404
v -0.0375105555736 0.0244032932319 0.017391025641
v -0.0374161325536 0.0250006604859 0.0171120607787
v -0.0373009993972 0.0242669619848 0.0173049620133
v -0.0372082651505 0.0248617679276 0.0170170940171
v -0.0370914432208 0.0241306307377 0.0172493174264
v -0.0370003977475 0.0247228753694 0.0169252928142
v -0.0368818870444 0.0239942994906 0.014
v -0.0368818870444 0.0239942994906 0.0172307692308
v -0.0367925303444 0.0245839828111 0.0168659385882
v -0.0365846629413 0.0244450902529 0.014
v -0.0365846629413 0.0244450902529 0.0168461538462
f 23 4 5
f 23 45 4
f 14 2 1
f 14 1 42
f 43 5 2
f 43 2 14
f 46 45 23
f 46 23 5
f 46 5 43
f 32 42 43
f 32 14 42
f 32 43 14
f 5 1 2
f 5 4 1
f 42 1 4
f 42 4 45
f 46 42 45
f 46 43 42
