# Parametric PetalDock simulation geometry; SI units
v 0.0084105667669 -0.0319102235445 0.014
v 0.0084105667669 -0.0319102235445 0.0260033238367
v 0.0084742831819 -0.0321519676622 0.0260686134853
v 0.0085379995968 -0.03239371178 0.0261339031339
v 0.0086017160117 -0.0326354558978 0.0261991927825
v 0.0086654324266 -0.0328772000155 0.0262644824311
v 0.0087291488415 -0.0331189441333 0.0263297720798
v 0.0087928652564 -0.033360688251 0.0263950617284
v 0.0088015209967 -0.0318046101712 0.014
v 0.0088015209967 -0.0318046101712 0.025730294397
v 0.0088565816713 -0.0336024323688 0.026460351377
v 0.008868199186 -0.0320455541877 0.025789648623
v 0.0089202980862 -0.0338441764866 0.0265256410256
v 0.0089348773754 -0.0322864982041 0.025849002849
v 0.0089840145011 -0.0340859206043 0.0265909306743
v 0.0090015555648 -0.0325274422206 0.025908357075
v 0.009047730916 -0.0343276647221 0.0266562203229
v 0.0090682337541 -0.032768386237 0.025967711301
v 0.0091114473309 -0.0345694088399 0.0267215099715
v 0.0091349119435 -0.0330093302535 0.0260270655271
v 0.0091751637458 -0.0348111529576 0.0267867996201
v 0.0092015901329 -0.0332502742699 0.0260864197531
v 0.0092388801607 -0.0350528970754 0.0268520892688
v 0.0092682683223 -0.0334912182864 0.0261457739791
v 0.0093025965756 -0.0352946411931 0.0269173789174
v 0.0093349465116 -0.0337321623028 0.0262051282051
v 0.0093663129905 -0.0355363853109 0.026982668566
v 0.009401624701 -0.0339731063193 0.0262644824311
v 0.0094300294054 -0.0357781294287 0.0270479582146
v 0.0094683028904 -0.0342140503357 0.0263238366572
v 0.0094937458203 -0.0360198735464 0.0271132478632
v 0.0095349810797 -0.0344549943522 0.0263831908832
v 0.0095574622352 -0.0362616176642 0.0271763611903
v 0.0096016592691 -0.0346959383686 0.0264425451092
v 0.0096211786501 -0.0365033617819 0.0272171672206
v 0.0096683374585 -0.0349368823851 0.0265018993352
v 0.009684895065 -0.0367451058997 0.014
v 0.009684895065 -0.0367451058997 0.0272307692308
v 0.0097350156478 -0.0351778264015 0.0265612535613
v 0.0098016938372 -0.035418770418 0.0266206077873
v 0.0098683720266 -0.0356597144344 0.0266799620133
v 0.0099350502159 -0.0359006584509 0.0267393162393
v 0.0100017284053 -0.0361416024673 0.0267966919911
v 0.0100684065947 -0.0363825464838 0.0268337883824
v 0.010135084784 -0.0366234905002 0.014
v 0.010135084784 -0.0366234905002 0.0268461538462
f 33 2 38
f 31 33 10
f 35 38 46
f 35 33 38
f 43 33 35
f 29 2 33
f 29 33 31
f 42 33 43
f 44 46 45
f 44 35 46
f 44 43 35
f 3 10 2
f 3 15 10
f 3 2 15
f 25 31 10
f 25 10 15
f 41 33 42
f 41 42 43
f 41 43 44
f 41 45 9
f 41 44 45
f 23 15 2
f 23 25 15
f 23 2 29
f 30 9 10
f 30 41 9
f 30 10 33
f 30 33 41
f 9 45 37
f 9 37 1
f 2 1 37
f 2 37 38
f 2 9 1
f 2 10 9
f 46 37 45
f 46 38 37
f 23 31 25
f 23 29 31
