# Parametric PetalDock simulation geometry; SI units
v -0.0111173651619 -0.031070954151 0.014
v -0.0111173651619 -0.031070954151 0.0240921177588
v -0.0109884429965 -0.0307106408365 0.0240132505338
v -0.0108791480621 -0.0304051819578 0.0238691839237
v -0.0108061195217 -0.0302010808603 0.0236822508392
v -0.0107804753086 -0.0301294100859 0.014
v -0.0107804753086 -0.0301294100859 0.0234686609687
v -0.0107352396414 -0.0312050417376 0.014
v -0.0107352396414 -0.0312050417376 0.0243651471985
v -0.0106107487822 -0.0308431734806 0.0242760782257
v -0.0105052105278 -0.0305363963854 0.024123091557
v -0.0104346921207 -0.0303314144838 0.0239299781199
v -0.0104099293492 -0.0302594344122 0.014
v -0.0104099293492 -0.0302594344122 0.0237108262108
f 4 7 2
f 3 2 9
f 3 4 2
f 10 3 9
f 10 4 3
f 12 14 7
f 12 9 14
f 12 10 9
f 5 7 4
f 5 12 7
f 11 4 10
f 11 10 12
f 11 5 4
f 11 12 5
f 6 13 8
f 6 8 1
f 2 1 8
f 2 8 9
f 2 6 1
f 2 7 6
f 14 8 13
f 14 9 8
f 14 13 6
f 14 6 7
