# Parametric PetalDock simulation geometry; SI units
v 0.0287040950154 -0.0397124027144 0.014
v 0.0287040950154 -0.0397124027144 0.0178124406458
v 0.0289282701501 -0.0400225512568 0.0179682136204
v 0.0291183166528 -0.0402854824951 0.0180293083583
v 0.0291892659201 -0.0393571690426 0.014
v 0.0291892659201 -0.0393571690426 0.0175394112061
v 0.0292453016661 -0.0404611675318 0.0179845233819
v 0.0292898928728 -0.0405228599126 0.014
v 0.0292898928728 -0.0405228599126 0.0178988603989
v 0.0294172301746 -0.0396645432576 0.0177053859285
v 0.0296104889379 -0.0399251225348 0.017775400725
v 0.0297396203151 -0.0400992360412 0.0177367961011
v 0.0297849652246 -0.040160376574 0.014
v 0.0297849652246 -0.040160376574 0.0176566951567
f 12 13 5
f 12 5 6
f 3 9 4
f 3 1 8
f 3 2 1
f 3 8 9
f 7 4 9
f 7 12 4
f 14 13 12
f 14 7 9
f 14 12 7
f 10 6 2
f 10 2 3
f 10 12 6
f 11 4 12
f 11 12 10
f 11 3 4
f 11 10 3
f 5 13 8
f 5 8 1
f 2 5 1
f 2 6 5
f 14 8 13
f 14 9 8
