# Parametric PetalDock simulation geometry; SI units
v -0.0247215010193 -0.0218597206605 0.014
v -0.0247215010193 -0.0218597206605 0.0166111111111
v -0.0244513871367 -0.02216144551 0.014
v -0.0244513871367 -0.02216144551 0.0166111111111
v -0.0244348189325 -0.0216062251171 0.016811771776
v -0.0241917815947 -0.0213913219722 0.0169121147719
v -0.0241678374168 -0.0219044510241 0.016811771776
v -0.0240293892373 -0.0212477282815 0.0168945233466
v -0.0239723646248 -0.0211973048829 0.014
v -0.0239723646248 -0.0211973048829 0.0168333333333
v -0.0239274555714 -0.021686581619 0.0169121147719
v -0.0237668375574 -0.0215410059367 0.0168945233466
v -0.0237104360114 -0.0214898865551 0.014
v -0.0237104360114 -0.0214898865551 0.0168333333333
f 5 2 4
f 5 6 2
f 7 6 5
f 7 11 6
f 7 5 4
f 7 4 3
f 7 3 13
f 12 13 14
f 12 7 13
f 12 11 7
f 8 9 1
f 8 1 2
f 8 10 9
f 8 2 6
f 8 6 11
f 8 11 12
f 8 14 10
f 8 12 14
f 9 13 3
f 9 3 1
f 2 1 3
f 2 3 4
f 10 13 9
f 10 14 13
