# Parametric PetalDock simulation geometry; SI units
v 0.0375887073787 0.0055757580293 0.014
v 0.0375887073787 0.0055757580293 0.0306923076923
v 0.0376543001463 0.0051140669233 0.014
v 0.0376543001463 0.0051140669233 0.031075443787
v 0.0378360015062 0.0056124406479 0.0306923076923
v 0.0379020258051 0.0051477121004 0.031075443787
v 0.0380832956336 0.0056491232665 0.0306923076923
v 0.038149751464 0.0051813572775 0.031075443787
v 0.0383305897611 0.0056858058851 0.0306923076923
v 0.0383974771228 0.0052150024547 0.031075443787
v 0.0385778838886 0.0057224885038 0.0306923076923
v 0.0386452027817 0.0052486476318 0.031075443787
v 0.0388251780161 0.0057591711224 0.0306923076923
v 0.0388929284405 0.0052822928089 0.031075443787
v 0.0390724721436 0.005795853741 0.0306923076923
v 0.0391406540994 0.005315937986 0.031075443787
v 0.0393197662711 0.0058325363596 0.0306923076923
v 0.0393883797583 0.0053495831632 0.031075443787
v 0.0395670603986 0.0058692189782 0.0306923076923
v 0.0396361054171 0.0053832283403 0.031075443787
v 0.0398143545261 0.0059059015968 0.0306923076923
v 0.039883831076 0.0054168735174 0.031075443787
v 0.0400616486536 0.0059425842154 0.0306923076923
v 0.0401315567348 0.0054505186945 0.031075443787
v 0.0403089427811 0.0059792668341 0.0306923076923
v 0.0403792823937 0.0054841638717 0.031075443787
v 0.0405562369086 0.0060159494527 0.0306923076923
v 0.0406270080525 0.0055178090488 0.031075443787
v 0.040803531036 0.0060526320713 0.0306923076923
v 0.0408747337114 0.0055514542259 0.031075443787
v 0.0410508251635 0.0060893146899 0.0306923076923
v 0.0411224593703 0.005585099403 0.031075443787
v 0.041298119291 0.0061259973085 0.0306923076923
v 0.0413701850291 0.0056187445802 0.031075443787
v 0.0415454134185 0.0061626799271 0.0306923076923
v 0.041617910688 0.0056523897573 0.031075443787
v 0.041792707546 0.0061993625457 0.0306923076923
v 0.0418656363468 0.0056860349344 0.031075443787
v 0.0420400016735 0.0062360451644 0.0306923076923
v 0.0421133620057 0.0057196801116 0.031075443787
v 0.042287295801 0.006272727783 0.0306923076923
v 0.0423610876645 0.0057533252887 0.031075443787
v 0.0425345899285 0.0063094104016 0.0306923076923
v 0.0426088133234 0.0057869704658 0.031075443787
v 0.042781884056 0.0063460930202 0.0306923076923
v 0.0428565389823 0.0058206156429 0.031075443787
v 0.0430291781835 0.0063827756388 0.0306923076923
v 0.0431042646411 0.0058542608201 0.031075443787
v 0.043276472311 0.0064194582574 0.0306923076923
v 0.0433519903 0.0058879059972 0.031075443787
v 0.0435237664385 0.006456140876 0.014
v 0.0435237664385 0.006456140876 0.0306923076923
v 0.0435997159588 0.0059215511743 0.014
v 0.0435997159588 0.0059215511743 0.031075443787
f 39 51 1
f 32 3 53
f 52 51 39
f 52 48 54
f 52 39 4
f 46 53 54
f 46 32 53
f 8 4 3
f 8 3 32
f 11 2 4
f 11 4 39
f 11 1 2
f 11 39 1
f 10 52 4
f 40 48 52
f 40 52 10
f 3 51 53
f 3 1 51
f 2 1 3
f 2 3 4
f 52 53 51
f 52 54 53
f 40 4 8
f 40 46 54
f 40 54 48
f 40 32 46
f 40 8 32
f 40 10 4
