# Parametric PetalDock simulation geometry; SI units
v 0.0346482322781 -0.0346482322781 0.014
v 0.0346482322781 -0.0346482322781 0.0166111111111
v 0.0349188303282 -0.0349188303282 0.016811771776
v 0.0350708104389 -0.034220436221 0.014
v 0.0350708104389 -0.034220436221 0.0166111111111
v 0.0351482322781 -0.0351482322781 0.0169121147719
v 0.0353015137606 -0.0353015137606 0.0168945233466
v 0.0353447087678 -0.0344876932412 0.016811771776
v 0.0353553390593 -0.0353553390593 0.014
v 0.0353553390593 -0.0353553390593 0.0168333333333
v 0.035576908559 -0.0347142628028 0.0169121147719
v 0.0357320594992 -0.0348656517439 0.0168945233466
v 0.0357865412642 -0.0349188124704 0.014
v 0.0357865412642 -0.0349188124704 0.0168333333333
f 7 10 12
f 11 6 7
f 11 7 12
f 14 12 10
f 14 11 12
f 8 3 6
f 8 6 11
f 8 5 2
f 8 2 3
f 8 11 14
f 8 13 4
f 8 4 5
f 8 14 13
f 4 9 1
f 4 13 9
f 2 4 1
f 2 5 4
f 7 9 10
f 7 1 9
f 7 6 3
f 7 2 1
f 7 3 2
f 14 10 9
f 14 9 13
