# Parametric PetalDock simulation geometry; SI units
v -0.0226365735707 0.0305218861963 0.014
v -0.0226365735707 0.0305218861963 0.0153076923077
v -0.0224876487446 0.0303210843134 0.0153324232352
v -0.0223387239185 0.0301202824305 0.0154066160177
v -0.0222603185833 0.0307973735336 0.014
v -0.0222603185833 0.0307973735336 0.0156923076923
v -0.0221897990923 0.0299194805477 0.0155213675214
v -0.022113869119 0.030594759234 0.0157158020734
v -0.0220408742662 0.0297186786648 0.0156400759734
v -0.0219674196546 0.0303921449345 0.0157862852168
v -0.0218919494401 0.0295178767819 0.0157587844255
v -0.0218209701903 0.0301895306349 0.0158952991453
v -0.021743024614 0.029317074899 0.0158774928775
v -0.0216745207259 0.0299869163353 0.0160080721747
v -0.0215940997879 0.0291162730162 0.0159962013295
v -0.0215280712615 0.0297843020358 0.0161208452042
v -0.0214451749617 0.0289154711333 0.0161149097816
v -0.0213816217972 0.0295816877362 0.0162336182336
v -0.0212962501356 0.0287146692504 0.0162336182336
v -0.0212351723328 0.0293790734367 0.0163463912631
v -0.0211473253095 0.0285138673676 0.0163523266857
v -0.0210887228684 0.0291764591371 0.0164591642925
v -0.0209984004834 0.0283130654847 0.0164710351377
v -0.0209422734041 0.0289738448375 0.0165719373219
v -0.0208494756572 0.0281122636018 0.0165897435897
v -0.0207958239397 0.028771230538 0.0166847103514
v -0.0207005508311 0.027911461719 0.0167084520418
v -0.0206493744753 0.0285686162384 0.0167974833808
v -0.020551626005 0.0277106598361 0.0168271604938
v -0.020502925011 0.0283660019388 0.0169102564103
v -0.0204027011789 0.0275098579532 0.0169458689459
v -0.0203564755466 0.0281633876393 0.0170230294397
v -0.0202537763527 0.0273090560703 0.0170645773979
v -0.0202100260822 0.0279607733397 0.0171358024691
v -0.0201048515266 0.0271082541875 0.01718328585
v -0.0200635766179 0.0277581590402 0.0172485754986
v -0.0199559267005 0.0269074523046 0.017301994302
v -0.0199171271535 0.0275555447406 0.017361348528
v -0.0198070018744 0.0267066504217 0.017420702754
v -0.0197706776892 0.027352930441 0.0174741215575
v -0.0196580770483 0.0265058485389 0.014
v -0.0196580770483 0.0265058485389 0.0175394112061
v -0.0196242282248 0.0271503161415 0.0175868945869
v -0.0194777787604 0.0269477018419 0.0176996676163
v -0.0193313292961 0.0267450875423 0.014
v -0.0193313292961 0.0267450875423 0.0178124406458
f 44 46 45
f 44 45 5
f 44 6 46
f 4 1 41
f 4 2 1
f 34 5 6
f 34 44 5
f 34 6 44
f 42 6 2
f 42 46 6
f 39 41 42
f 39 42 2
f 13 4 41
f 13 41 39
f 13 2 4
f 13 39 2
f 41 5 45
f 41 1 5
f 2 6 5
f 2 5 1
f 42 41 45
f 42 45 46
