# Parametric PetalDock simulation geometry; SI units
v 0.0319132946137 -0.0023540660352 0.014
v 0.0319132946137 -0.0023540660352 0.0281666666667
v 0.0319397796128 -0.0019622635617 0.014
v 0.0319397796128 -0.0019622635617 0.0281666666667
v 0.0319892088295 -0.0023596658042 0.0284881600858
v 0.0320157568302 -0.0019669313248 0.0284881600858
v 0.0322053942257 -0.002375612597 0.0287949920093
v 0.0322321216396 -0.0019802239895 0.0287949920093
v 0.0325289385354 -0.0023994786591 0.0291121077565
v 0.0325559344604 -0.0020001178681 0.0291121077565
v 0.0329105850704 -0.0024276305988 0.014
v 0.0329105850704 -0.0024276305988 0.0293888888889
v 0.0329378977257 -0.002023584298 0.014
v 0.0329378977257 -0.002023584298 0.0293888888889
f 10 13 3
f 10 14 13
f 5 4 2
f 5 1 11
f 5 11 12
f 5 2 1
f 6 3 4
f 6 10 3
f 6 4 5
f 9 12 14
f 9 14 10
f 9 5 12
f 9 7 5
f 8 10 6
f 8 7 9
f 8 9 10
f 8 5 7
f 8 6 5
f 3 13 11
f 3 11 1
f 2 3 1
f 2 4 3
f 14 11 13
f 14 12 11
