# Parametric PetalDock simulation geometry; SI units
v -0.0312050417376 -0.0107352396414 0.014
v -0.0312050417376 -0.0107352396414 0.0243651471985
v -0.031070954151 -0.0111173651619 0.014
v -0.031070954151 -0.0111173651619 0.0240921177588
v -0.0308431734806 -0.0106107487822 0.0242760782257
v -0.0307106408365 -0.0109884429965 0.0240132505338
v -0.0305363963854 -0.0105052105278 0.024123091557
v -0.0304051819578 -0.0108791480621 0.0238691839237
v -0.0303314144838 -0.0104346921207 0.0239299781199
v -0.0302594344122 -0.0104099293492 0.014
v -0.0302594344122 -0.0104099293492 0.0237108262108
v -0.0302010808603 -0.0108061195217 0.0236822508392
v -0.0301294100859 -0.0107804753086 0.014
v -0.0301294100859 -0.0107804753086 0.0234686609687
f 8 4 14
f 6 2 4
f 6 4 8
f 9 11 2
f 9 14 11
f 5 9 2
f 5 7 9
f 5 2 6
f 5 6 8
f 5 8 7
f 12 8 14
f 12 14 9
f 12 7 8
f 12 9 7
f 4 2 1
f 4 1 3
f 10 3 1
f 10 13 3
f 14 4 3
f 14 3 13
f 11 1 2
f 11 10 1
f 11 13 10
f 11 14 13
