# Parametric PetalDock simulation geometry; SI units
v 0.00524231873 0.0325809467992 0.014
v 0.00524231873 0.0325809467992 0.0281875593542
v 0.0052820332659 0.0328277721537 0.0283003323837
v 0.0053217478017 0.0330745975083 0.0284131054131
v 0.0053614623375 0.0333214228628 0.0285258784425
v 0.0054011768734 0.0335682482174 0.028638651472
v 0.0054408914092 0.0338150735719 0.0287514245014
v 0.005480605945 0.0340618989264 0.0288641975309
v 0.0055203204809 0.034308724281 0.0289769705603
v 0.0055600350167 0.0345555496355 0.0290897435897
v 0.0055997495525 0.0348023749901 0.0292025166192
v 0.0056394640884 0.0350492003446 0.0293152896486
v 0.0056417423291 0.0325141621988 0.014
v 0.0056417423291 0.0325141621988 0.0279145299145
v 0.0056791786242 0.0352960256991 0.0294280626781
v 0.0056844828013 0.0327604816094 0.0280213675214
v 0.00571889316 0.0355428510537 0.0295408357075
v 0.0057272232735 0.03300680102 0.0281282051282
v 0.0057586076959 0.0357896764082 0.0296536087369
v 0.0057699637457 0.0332531204306 0.028235042735
v 0.0057983222317 0.0360365017628 0.0297663817664
v 0.0058127042179 0.0334994398412 0.0283418803419
v 0.0058380367675 0.0362833271173 0.0298791547958
v 0.00585544469 0.0337457592518 0.0284487179487
v 0.0058777513034 0.0365301524718 0.0299919278253
v 0.0058981851622 0.0339920786624 0.0285555555556
v 0.0059174658392 0.0367769778264 0.0301047008547
v 0.0059409256344 0.034238398073 0.0286623931624
v 0.005957180375 0.0370238031809 0.0302137147832
v 0.0059836661066 0.0344847174836 0.0287692307692
v 0.0059968949109 0.0372706285355 0.0302841979266
v 0.0060264065788 0.0347310368942 0.0288760683761
v 0.0060366094467 0.03751745389 0.014
v 0.0060366094467 0.03751745389 0.0303076923077
v 0.006069147051 0.0349773563048 0.0289829059829
v 0.0061118875232 0.0352236757154 0.0290897435897
v 0.0061546279954 0.035469995126 0.0291965811966
v 0.0061973684676 0.0357163145366 0.0293034188034
v 0.0062401089398 0.0359626339472 0.0294102564103
v 0.0062828494119 0.0362089533578 0.0295170940171
v 0.0063255898841 0.0364552727684 0.0296239316239
v 0.0063683303563 0.036701592179 0.0297307692308
v 0.0064110708285 0.0369479115896 0.029834045584
v 0.0064538113007 0.0371942310002 0.0299008190883
v 0.0064965517729 0.0374405504108 0.014
v 0.0064965517729 0.0374405504108 0.0299230769231
f 29 33 1
f 29 34 33
f 31 46 34
f 31 34 29
f 43 31 29
f 3 2 14
f 23 27 29
f 39 45 46
f 25 14 27
f 25 3 14
f 25 27 23
f 11 1 2
f 44 39 46
f 44 43 39
f 44 46 31
f 44 31 43
f 22 13 45
f 22 45 39
f 22 39 27
f 42 29 27
f 42 27 39
f 42 43 29
f 42 39 43
f 8 3 25
f 8 2 3
f 8 11 2
f 8 23 11
f 8 25 23
f 16 27 14
f 16 22 27
f 13 33 45
f 13 1 33
f 2 1 13
f 2 13 14
f 46 45 33
f 46 33 34
f 11 23 29
f 11 29 1
f 16 14 13
f 16 13 22
