# Parametric PetalDock simulation geometry; SI units
v -0.0378604423253 0.0326586421477 0.014
v -0.0378604423253 0.0326586421477 0.0168333333333
v -0.0378028032339 0.0326089223255 0.0168945233466
v -0.037638660989 0.0324673322513 0.0169121147719
v -0.0374568197262 0.0331207888795 0.014
v -0.0374568197262 0.0331207888795 0.0168333333333
v -0.0373997951136 0.0330703654808 0.0168945233466
v -0.0373930047592 0.0322554277302 0.016811771776
v -0.0372374027563 0.0329267717902 0.0169121147719
v -0.0371032334788 0.0320054693047 0.014
v -0.0371032334788 0.0320054693047 0.0166111111111
v -0.0369943654184 0.0327118686453 0.016811771776
v -0.0367076833316 0.0324583731019 0.014
v -0.0367076833316 0.0324583731019 0.0166111111111
f 10 4 1
f 3 1 4
f 3 2 1
f 6 2 3
f 11 4 10
f 11 14 12
f 7 14 6
f 7 12 14
f 7 9 12
f 7 6 3
f 7 4 9
f 7 3 4
f 8 4 11
f 8 11 12
f 8 9 4
f 8 12 9
f 10 5 13
f 10 1 5
f 6 5 1
f 6 1 2
f 6 13 5
f 6 14 13
f 11 10 13
f 11 13 14
