# Parametric PetalDock simulation geometry; SI units
v -0.0179957246179 -0.0276614152833 0.014
v -0.0179957246179 -0.0276614152833 0.0189045584046
v -0.0177870377796 -0.0273406405759 0.0190195243879
v -0.0176549214563 -0.0278801676532 0.014
v -0.0176549214563 -0.0278801676532 0.0191775878443
v -0.0176101216207 -0.0270687009099 0.0190449388914
v -0.0174919100226 -0.0268869966342 0.0189754325049
v -0.0174503996295 -0.0268231905778 0.014
v -0.0174503996295 -0.0268231905778 0.0188675213675
v -0.0174501867308 -0.027556856191 0.0192823520798
v -0.0172766210113 -0.0272827659681 0.0192988465247
v -0.0171606481053 -0.0270996247363 0.0192231597856
v -0.0171199238364 -0.027035314088 0.014
v -0.0171199238364 -0.027035314088 0.0191096866097
f 11 4 13
f 5 4 11
f 14 11 13
f 12 14 9
f 12 11 14
f 10 5 11
f 7 8 1
f 7 9 8
f 7 1 2
f 7 11 12
f 7 12 9
f 6 10 11
f 6 11 7
f 3 7 2
f 3 6 7
f 3 10 6
f 3 2 5
f 3 5 10
f 8 13 4
f 8 4 1
f 14 13 8
f 14 8 9
f 2 1 4
f 2 4 5
