# Parametric PetalDock simulation geometry; SI units
v 0.0153704052795 -0.0465268808491 0.014
v 0.0153704052795 -0.0465268808491 0.0246381766382
v 0.0154904460846 -0.0468902495523 0.0245389059176
v 0.0155922117653 -0.0471982986645 0.0243769991903
v 0.0156602094192 -0.0474041305007 0.0241777054007
v 0.0156840870199 -0.0474764090297 0.014
v 0.0156840870199 -0.0474764090297 0.023952991453
v 0.015940204316 -0.0463347589436 0.014
v 0.015940204316 -0.0463347589436 0.0243651471985
v 0.0160646951751 -0.0466966272006 0.0242760782257
v 0.0161702334295 -0.0470034042958 0.024123091557
v 0.0162407518366 -0.0472083861974 0.0239299781199
v 0.0162655146081 -0.047280366269 0.014
v 0.0162655146081 -0.047280366269 0.0237108262108
f 5 7 14
f 5 2 7
f 5 4 2
f 10 9 2
f 3 2 4
f 3 10 2
f 12 14 9
f 12 5 14
f 12 4 5
f 11 9 10
f 11 12 9
f 11 4 12
f 11 3 4
f 11 10 3
f 7 2 1
f 7 1 6
f 8 6 1
f 8 13 6
f 14 7 6
f 14 6 13
f 9 1 2
f 9 8 1
f 9 13 8
f 9 14 13
