# Parametric PetalDock simulation geometry; SI units
v -0.015330421931 0.0412429165242 0.014
v -0.015330421931 0.0412429165242 0.0241538461538
v -0.0152433172609 0.0410085817712 0.0241538461538
v -0.0151562125909 0.0407742470182 0.0241538461538
v -0.0150691079208 0.0405399122652 0.0241538461538
v -0.0149820032507 0.0403055775122 0.0241538461538
v -0.0148948985807 0.0400712427593 0.0241538461538
v -0.0148231535493 0.0414279388681 0.014
v -0.0148231535493 0.0414279388681 0.0245384615385
v -0.0148077939106 0.0398369080063 0.0241538461538
v -0.0147389310859 0.0411925528518 0.0245384615385
v -0.0147206892405 0.0396025732533 0.0241538461538
v -0.0146547086226 0.0409571668355 0.0245384615385
v -0.0146335845705 0.0393682385003 0.0241538461538
v -0.0145704861592 0.0407217808192 0.0245384615385
v -0.0145464799004 0.0391339037474 0.0241538461538
v -0.0144862636959 0.0404863948029 0.0245384615385
v -0.0144593752304 0.0388995689944 0.0241538461538
v -0.0144020412325 0.0402510087866 0.0245384615385
v -0.0143722705603 0.0386652342414 0.0241538461538
v -0.0143178187692 0.0400156227703 0.0245384615385
v -0.0142851658902 0.0384308994884 0.0241538461538
v -0.0142335963058 0.039780236754 0.0245384615385
v -0.0141980612202 0.0381965647354 0.0241538461538
v -0.0141493738425 0.0395448507377 0.0245384615385
v -0.0141109565501 0.0379622299825 0.0241538461538
v -0.0140651513791 0.0393094647214 0.0245384615385
v -0.01402385188 0.0377278952295 0.0241538461538
v -0.0139809289158 0.0390740787051 0.0245384615385
v -0.01393674721 0.0374935604765 0.0241538461538
v -0.0138967064524 0.0388386926888 0.0245384615385
v -0.0138496425399 0.0372592257235 0.0241538461538
v -0.0138124839891 0.0386033066725 0.0245384615385
v -0.0137625378699 0.0370248909705 0.0241538461538
v -0.0137282615257 0.0383679206562 0.0245384615385
v -0.0136754331998 0.0367905562176 0.0241538461538
v -0.0136440390624 0.0381325346399 0.0245384615385
v -0.0135883285297 0.0365562214646 0.0241538461538
v -0.013559816599 0.0378971486236 0.0245384615385
v -0.0135012238597 0.0363218867116 0.0241538461538
v -0.0134755941357 0.0376617626073 0.0245384615385
v -0.0134141191896 0.0360875519586 0.0241538461538
v -0.0133913716723 0.037426376591 0.0245384615385
v -0.0133270145195 0.0358532172057 0.0241538461538
v -0.013307149209 0.0371909905747 0.0245384615385
v -0.0132399098495 0.0356188824527 0.014
v -0.0132399098495 0.0356188824527 0.0241538461538
v -0.0132229267456 0.0369556045584 0.0245384615385
v -0.0131387042823 0.0367202185421 0.0245384615385
v -0.0130544818189 0.0364848325258 0.0245384615385
v -0.0129702593556 0.0362494465095 0.0245384615385
v -0.0128860368923 0.0360140604933 0.0245384615385
v -0.0128018144289 0.035778674477 0.014
v -0.0128018144289 0.035778674477 0.0245384615385
f 52 9 2
f 52 2 54
f 34 47 54
f 34 1 46
f 34 46 47
f 11 53 8
f 11 8 9
f 4 54 2
f 4 34 54
f 4 2 1
f 4 1 34
f 50 54 53
f 50 53 11
f 46 8 53
f 46 1 8
f 2 8 1
f 2 9 8
f 54 46 53
f 54 47 46
f 50 52 54
f 50 9 52
f 50 11 9
