# Parametric PetalDock simulation geometry; SI units
v -0.0030047160788 -0.0489077875321 0.014
v -0.0030047160788 -0.0489077875321 0.0293888888889
v -0.0029893858947 -0.0486582580039 0.0295277777778
v -0.0029740557107 -0.0484087284757 0.0296666666667
v -0.0029587255266 -0.0481591989474 0.0298055555556
v -0.0029433953425 -0.0479096694192 0.0299444444444
v -0.0029280651584 -0.047660139891 0.0300833333333
v -0.0029127349744 -0.0474106103628 0.0302222222222
v -0.0028974047903 -0.0471610808345 0.0303611111111
v -0.0028820746062 -0.0469115513063 0.0305
v -0.0028667444221 -0.0466620217781 0.0306388888889
v -0.0028514142381 -0.0464124922499 0.0307777777778
v -0.002836084054 -0.0461629627216 0.0309166666667
v -0.0028207538699 -0.0459134331934 0.0310555555556
v -0.0028054236858 -0.0456639036652 0.0311944444444
v -0.0027900935018 -0.045414374137 0.0313333333333
v -0.0027747633177 -0.0451648446087 0.0314722222222
v -0.0027594331336 -0.0449153150805 0.0316111111111
v -0.0027441029495 -0.0446657855523 0.03175
v -0.0027287727654 -0.0444162560241 0.0318842592593
v -0.0027134425814 -0.0441667264958 0.0319710648148
v -0.0026981123973 -0.0439171969676 0.014
v -0.0026981123973 -0.0439171969676 0.032
v -0.002404316042 -0.0489409773541 0.014
v -0.002404316042 -0.0489409773541 0.0293888888889
v -0.0023920491235 -0.04869127849 0.0295277777778
v -0.0023797822049 -0.048441579626 0.0296666666667
v -0.0023675152863 -0.0481918807619 0.0298055555556
v -0.0023552483677 -0.0479421818978 0.0299444444444
v -0.0023429814491 -0.0476924830338 0.0300833333333
v -0.0023307145306 -0.0474427841697 0.0302222222222
v -0.002318447612 -0.0471930853057 0.0303611111111
v -0.0023061806934 -0.0469433864416 0.0305
v -0.0022939137748 -0.0466936875776 0.0306388888889
v -0.0022816468562 -0.0464439887135 0.0307777777778
v -0.0022693799376 -0.0461942898495 0.0309166666667
v -0.0022571130191 -0.0459445909854 0.0310555555556
v -0.0022448461005 -0.0456948921214 0.0311944444444
v -0.0022325791819 -0.0454451932573 0.0313333333333
v -0.0022203122633 -0.0451954943933 0.0314722222222
v -0.0022080453447 -0.0449457955292 0.0316111111111
v -0.0021957784262 -0.0446960966652 0.03175
v -0.0021835115076 -0.0444463978011 0.0318842592593
v -0.002171244589 -0.0441966989371 0.0319710648148
v -0.0021589776704 -0.043947000073 0.014
v -0.0021589776704 -0.043947000073 0.032
f 44 46 23
f 4 22 1
f 4 1 2
f 21 44 23
f 21 20 44
f 21 16 17
f 21 23 22
f 21 22 16
f 25 4 2
f 19 20 21
f 19 21 17
f 19 17 16
f 43 44 20
f 36 24 45
f 36 25 24
f 27 4 25
f 27 25 36
f 12 19 16
f 12 4 27
f 12 27 36
f 42 20 19
f 42 43 20
f 41 43 42
f 41 42 36
f 41 44 43
f 41 46 44
f 41 45 46
f 41 36 45
f 14 12 36
f 14 36 42
f 14 19 12
f 14 42 19
f 22 45 24
f 22 24 1
f 46 45 22
f 46 22 23
f 25 1 24
f 25 2 1
f 12 22 4
f 12 16 22
