# Parametric PetalDock simulation geometry; SI units
v -0.0233345237792 0.0233345237792 0.014
v -0.0233345237792 0.0233345237792 0.0166111111111
v -0.0230639257291 0.0230639257291 0.016811771776
v -0.0230464162305 0.0236191172344 0.014
v -0.0230464162305 0.0236191172344 0.0166111111111
v -0.0228345237792 0.0228345237792 0.0169121147719
v -0.0227791592103 0.0233452189055 0.016811771776
v -0.0226812422967 0.0226812422967 0.0168945233466
v -0.022627416998 0.022627416998 0.014
v -0.022627416998 0.022627416998 0.0168333333333
v -0.0225525896487 0.0231130191143 0.0169121147719
v -0.0224012007077 0.0229578681741 0.0168945233466
v -0.0223480399811 0.0229033864091 0.014
v -0.0223480399811 0.0229033864091 0.0168333333333
f 11 13 4
f 14 13 11
f 7 6 11
f 3 6 7
f 3 7 2
f 5 2 7
f 5 11 4
f 5 7 11
f 8 11 6
f 8 10 14
f 12 14 11
f 12 11 8
f 12 8 14
f 9 4 13
f 9 1 4
f 10 9 13
f 10 13 14
f 5 4 1
f 5 1 2
f 8 1 9
f 8 2 1
f 8 6 3
f 8 9 10
f 8 3 2
