# Parametric PetalDock simulation geometry; SI units
v -0.0359330783645 0.0123617911022 0.014
v -0.0359330783645 0.0123617911022 0.0249230769231
v -0.035778674477 0.0128018144289 0.014
v -0.035778674477 0.0128018144289 0.0245384615385
v -0.0356966765331 0.0122804635291 0.0249168941912
v -0.0355432884607 0.0127175919656 0.024533515353
v -0.0354602747018 0.0121991359561 0.0248983459956
v -0.0353079024444 0.0126333695022 0.0245186767965
v -0.0352238728704 0.012117808383 0.0248696581197
v -0.0350725164281 0.0125491470389 0.0244957264957
v -0.0349874710391 0.01203648081 0.0248399810066
v -0.0348371304118 0.0124649245755 0.0244719848053
v -0.0347510692077 0.011955153237 0.0248103038936
v -0.0346017443955 0.0123807021122 0.0244482431149
v -0.0345146673764 0.0118738256639 0.0247806267806
v -0.0343663583792 0.0122964796488 0.0244245014245
v -0.034278265545 0.0117924980909 0.0247509496676
v -0.0341309723629 0.0122122571855 0.0244007597341
v -0.0340418637137 0.0117111705178 0.0247212725546
v -0.0338955863466 0.0121280347221 0.0243770180437
v -0.0338054618824 0.0116298429448 0.0246915954416
v -0.0336602003303 0.0120438122588 0.0243532763533
v -0.033569060051 0.0115485153718 0.0246619183286
v -0.033424814314 0.0119595897954 0.0243295346629
v -0.0333326582197 0.0114671877987 0.0246322412156
v -0.0331894282977 0.0118753673321 0.0243057929725
v -0.0330962563883 0.0113858602257 0.0246025641026
v -0.0329540422814 0.0117911448687 0.0242820512821
v -0.032859854557 0.0113045326526 0.0245728869896
v -0.0327186562651 0.0117069224054 0.0242583095916
v -0.0326234527256 0.0112232050796 0.0245432098765
v -0.0324832702488 0.011622699942 0.0242345679012
v -0.0323870508943 0.0111418775066 0.0245135327635
v -0.0322478842325 0.0115384774787 0.0242108262108
v -0.0321506490629 0.0110605499335 0.0244838556505
v -0.0320124982162 0.0114542550153 0.0241870845204
v -0.0319142472316 0.0109792223605 0.0244541785375
v -0.0317771121999 0.011370032552 0.02416334283
v -0.0316778454002 0.0108978947874 0.0244245014245
v -0.0315417261836 0.0112858100886 0.0241396011396
v -0.0314414435689 0.0108165672144 0.0243948243115
v -0.0313063401673 0.0112015876253 0.0241158594492
v -0.0312050417376 0.0107352396414 0.014
v -0.0312050417376 0.0107352396414 0.0243651471985
v -0.031070954151 0.0111173651619 0.014
v -0.031070954151 0.0111173651619 0.0240921177588
f 29 1 43
f 6 3 4
f 9 1 29
f 42 45 3
f 5 2 1
f 5 1 9
f 5 4 2
f 5 6 4
f 39 29 43
f 39 43 44
f 39 44 29
f 46 45 42
f 8 10 6
f 8 6 5
f 27 44 46
f 27 46 9
f 27 9 29
f 27 29 44
f 7 10 8
f 7 26 10
f 7 5 9
f 7 8 5
f 7 42 26
f 7 9 46
f 7 46 42
f 4 1 2
f 4 3 1
f 43 1 3
f 43 3 45
f 46 43 45
f 46 44 43
f 26 6 10
f 26 3 6
f 26 42 3
