# Parametric PetalDock simulation geometry; SI units
v 0.0124884173206 -0.0473818470812 0.014
v 0.0124884173206 -0.0473818470812 0.0260033238367
v 0.012585950186 -0.0477518929562 0.025853044377
v 0.0126686345568 -0.0480656027011 0.0256465373567
v 0.0127238824871 -0.0482752168512 0.0254163418045
v 0.0127432829802 -0.0483488235522 0.014
v 0.0127432829802 -0.0483488235522 0.0251638176638
v 0.0130689251163 -0.047225027224 0.014
v 0.0130689251163 -0.047225027224 0.025730294397
v 0.0131709916698 -0.0475938483569 0.0255902166852
v 0.0132575195157 -0.0479065198156 0.0253926297234
v 0.013315335574 -0.0481154402051 0.0251686145237
v 0.0133356378737 -0.0481888032898 0.014
v 0.0133356378737 -0.0481888032898 0.0249216524217
f 3 2 1
f 3 1 6
f 3 6 7
f 12 13 8
f 12 14 13
f 5 7 14
f 5 14 12
f 10 8 9
f 10 12 8
f 10 9 2
f 10 2 3
f 4 3 7
f 4 7 5
f 4 5 12
f 11 12 10
f 11 4 12
f 11 10 3
f 11 3 4
f 8 6 1
f 8 13 6
f 14 7 6
f 14 6 13
f 9 8 1
f 9 1 2
