# Parametric PetalDock simulation geometry; SI units
v 0.0230984401045 0.0432141419531 0.014
v 0.0230984401045 0.0432141419531 0.0208157644824
v 0.0232788358257 0.0435516386096 0.0208593182311
v 0.0234317679337 0.0438377544596 0.0208222923244
v 0.0235339539013 0.0440289309585 0.0207095234702
v 0.0235698368413 0.0440960632174 0.014
v 0.0235698368413 0.0440960632174 0.0205626780627
v 0.0236270048319 0.0429274346156 0.014
v 0.0236270048319 0.0429274346156 0.0205427350427
v 0.0238115285728 0.0432626921262 0.0205964905392
v 0.0239679602469 0.04354690972 0.0205683846911
v 0.0240724845498 0.0437368178446 0.0204617961894
v 0.024109188604 0.0438035047098 0.014
v 0.024109188604 0.0438035047098 0.0203205128205
f 3 6 1
f 2 3 1
f 5 7 6
f 4 6 3
f 4 5 6
f 14 7 5
f 11 4 3
f 12 9 14
f 12 14 5
f 12 5 4
f 12 4 11
f 10 9 12
f 10 12 11
f 10 11 3
f 10 2 9
f 10 3 2
f 8 6 13
f 8 1 6
f 2 1 8
f 2 8 9
f 14 8 13
f 14 9 8
f 14 13 6
f 14 6 7
