# Parametric PetalDock simulation geometry; SI units
v 0.0032345656309 0.0328410959802 0.014
v 0.0032345656309 0.0328410959802 0.0292838775659
v 0.003259069916 0.0330898921619 0.0294204836
v 0.003283574201 0.0333386883435 0.029557089634
v 0.0033080784861 0.0335874845252 0.0296936956681
v 0.0033325827712 0.0338362807069 0.0298303017021
v 0.0033570870563 0.0340850768885 0.0299669077361
v 0.0033815913414 0.0343338730702 0.0301035137702
v 0.0034060956265 0.0345826692519 0.0302401198042
v 0.0034305999115 0.0348314654335 0.0303767258383
v 0.0034551041966 0.0350802616152 0.0305133318723
v 0.0034796084817 0.0353290577969 0.0306499379063
v 0.0035041127668 0.0355778539785 0.0307865439404
v 0.0035286170519 0.0358266501602 0.0309231499744
v 0.0035531213369 0.0360754463419 0.0310597560085
v 0.003577625622 0.0363242425235 0.0311963620425
v 0.0036021299071 0.0365730387052 0.0313329680766
v 0.0036266341922 0.0368218348869 0.0314695741106
v 0.0036373328407 0.0327989300101 0.014
v 0.0036373328407 0.0327989300101 0.0291526134122
v 0.0036511384773 0.0370706310685 0.0316061801446
v 0.0036648883925 0.0330474067526 0.0292863658777
v 0.0036756427624 0.0373194272502 0.0317382326442
v 0.0036924439443 0.0332958834951 0.0294201183432
v 0.0037001470474 0.0375682234319 0.0318236114155
v 0.0037199994962 0.0335443602376 0.0295538708087
v 0.0037246513325 0.0378170196135 0.014
v 0.0037246513325 0.0378170196135 0.0318520710059
v 0.003747555048 0.0337928369801 0.0296876232742
v 0.0037751105998 0.0340413137226 0.0298213757396
v 0.0038026661516 0.0342897904651 0.0299551282051
v 0.0038302217035 0.0345382672076 0.0300888806706
v 0.0038577772553 0.0347867439501 0.0302226331361
v 0.0038853328071 0.0350352206926 0.0303563856016
v 0.0039128883589 0.0352836974351 0.0304901380671
v 0.0039404439108 0.0355321741776 0.0306238905325
v 0.0039679994626 0.0357806509201 0.030757642998
v 0.0039955550144 0.0360291276626 0.0308913954635
v 0.0040231105662 0.0362776044051 0.031025147929
v 0.0040506661181 0.0365260811476 0.0311589003945
v 0.0040782216699 0.0367745578901 0.03129265286
v 0.0041057772217 0.0370230346326 0.0314264053254
v 0.0041333327735 0.0372715113751 0.0315556993754
v 0.0041608883253 0.0375199881176 0.0316392946663
v 0.0041884438772 0.0377684648601 0.014
v 0.0041884438772 0.0377684648601 0.0316671597633
f 25 46 28
f 25 28 27
f 43 25 23
f 40 45 46
f 44 46 25
f 44 43 46
f 44 25 43
f 5 20 10
f 17 20 21
f 17 10 20
f 42 46 43
f 42 23 21
f 42 43 23
f 26 19 45
f 26 45 40
f 26 20 19
f 26 21 20
f 3 2 20
f 3 20 5
f 4 1 2
f 4 27 1
f 4 5 10
f 18 17 21
f 15 10 17
f 15 4 10
f 15 18 25
f 15 17 18
f 15 25 27
f 15 27 4
f 41 42 21
f 29 21 26
f 29 41 21
f 19 27 45
f 19 1 27
f 2 1 19
f 2 19 20
f 46 45 27
f 46 27 28
f 4 3 5
f 4 2 3
f 18 23 25
f 18 21 23
f 41 46 42
f 41 40 46
f 29 40 41
f 29 26 40
