# Parametric PetalDock simulation geometry; SI units
v -0.0297849652246 0.040160376574 0.014
v -0.0297849652246 0.040160376574 0.0176566951567
v -0.0297396203151 0.0400992360412 0.0177367961011
v -0.0296104889379 0.0399251225348 0.017775400725
v -0.0294172301746 0.0396645432576 0.0177053859285
v -0.0292898928728 0.0405228599126 0.014
v -0.0292898928728 0.0405228599126 0.0178988603989
v -0.0292453016661 0.0404611675318 0.0179845233819
v -0.0291892659201 0.0393571690426 0.014
v -0.0291892659201 0.0393571690426 0.0175394112061
v -0.0291183166528 0.0402854824951 0.0180293083583
v -0.0289282701501 0.0400225512568 0.0179682136204
v -0.0287040950154 0.0397124027144 0.014
v -0.0287040950154 0.0397124027144 0.0178124406458
f 3 1 9
f 3 9 10
f 12 7 11
f 12 13 6
f 12 14 13
f 12 6 7
f 8 11 7
f 8 3 11
f 2 1 3
f 2 8 7
f 2 3 8
f 5 10 14
f 5 14 12
f 5 3 10
f 4 11 3
f 4 3 5
f 4 12 11
f 4 5 12
f 9 6 13
f 9 1 6
f 14 9 13
f 14 10 9
f 2 6 1
f 2 7 6
