# Parametric PetalDock simulation geometry; SI units
v -0.0236270048319 0.0429274346156 0.014
v -0.0236270048319 0.0429274346156 0.0205427350427
v -0.0235064588889 0.042708417092 0.0204893162393
v -0.0233859129458 0.0424893995685 0.0204358974359
v -0.0232653670028 0.0422703820449 0.0203824786325
v -0.0231448210598 0.0420513645214 0.0203290598291
v -0.0230984401045 0.0432141419531 0.014
v -0.0230984401045 0.0432141419531 0.0208157644824
v -0.0230242751168 0.0418323469978 0.0202756410256
v -0.0229805909203 0.042993661637 0.0207682811016
v -0.0229037291738 0.0416133294743 0.0202222222222
v -0.0228627417361 0.0427731813209 0.0207207977208
v -0.0227831832307 0.0413943119507 0.0201688034188
v -0.0227448925519 0.0425527010048 0.02067331434
v -0.0226626372877 0.0411752944272 0.0201153846154
v -0.0226270433676 0.0423322206887 0.0206258309592
v -0.0225420913447 0.0409562769036 0.020061965812
v -0.0225091941834 0.0421117403726 0.0205783475783
v -0.0224215454017 0.0407372593801 0.0200085470085
v -0.0223913449992 0.0418912600565 0.0205308641975
v -0.0223009994587 0.0405182418565 0.0199551282051
v -0.022273495815 0.0416707797405 0.0204833808167
v -0.0221804535156 0.040299224333 0.0199017094017
v -0.0221556466308 0.0414502994244 0.0204358974359
v -0.0220599075726 0.0400802068094 0.0198482905983
v -0.0220377974466 0.0412298191083 0.0203884140551
v -0.0219393616296 0.0398611892859 0.0197948717949
v -0.0219199482624 0.0410093387922 0.0203409306743
v -0.0218188156866 0.0396421717623 0.0197414529915
v -0.0218020990782 0.0407888584761 0.0202934472934
v -0.0216982697436 0.0394231542388 0.019688034188
v -0.021684249894 0.04056837816 0.0202459639126
v -0.0215777238005 0.0392041367152 0.0196346153846
v -0.0215664007098 0.0403478978439 0.0201984805318
v -0.0214571778575 0.0389851191917 0.019582977208
v -0.0214485515256 0.0401274175279 0.020150997151
v -0.0213366319145 0.0387661016681 0.0195495904558
v -0.0213307023414 0.0399069372118 0.0201035137702
v -0.0212160859715 0.0385470841446 0.014
v -0.0212160859715 0.0385470841446 0.0195384615385
v -0.0212128531572 0.0396864568957 0.0200560303894
v -0.021095003973 0.0394659765796 0.0200085470085
v -0.0209771547888 0.0392454962635 0.0199626464071
v -0.0208593056046 0.0390250159474 0.0199329692941
v -0.0207414564203 0.0388045356313 0.014
v -0.0207414564203 0.0388045356313 0.0199230769231
f 46 8 2
f 46 2 40
f 3 2 1
f 3 40 2
f 22 45 7
f 22 46 45
f 21 1 39
f 21 3 1
f 21 40 3
f 16 7 8
f 16 22 7
f 16 8 46
f 16 46 22
f 37 39 40
f 37 40 21
f 37 21 39
f 39 7 45
f 39 1 7
f 2 7 1
f 2 8 7
f 46 39 45
f 46 40 39
