# Parametric PetalDock simulation geometry; SI units
v -0.0026981123973 0.0439171969676 0.014
v -0.0026981123973 0.0439171969676 0.032
v -0.0026827822132 0.0436676674394 0.032
v -0.0026674520291 0.0434181379112 0.032
v -0.0026521218451 0.0431686083829 0.032
v -0.002636791661 0.0429190788547 0.032
v -0.0026214614769 0.0426695493265 0.032
v -0.0026061312928 0.0424200197983 0.032
v -0.0025908011088 0.04217049027 0.032
v -0.0025754709247 0.0419209607418 0.032
v -0.0025601407406 0.0416714312136 0.032
v -0.0025448105565 0.0414219016854 0.032
v -0.0025294803725 0.0411723721571 0.032
v -0.0025141501884 0.0409228426289 0.032
v -0.0024988200043 0.0406733131007 0.032
v -0.0024834898202 0.0404237835725 0.032
v -0.0024681596362 0.0401742540442 0.032
v -0.0024528294521 0.039924724516 0.032
v -0.002437499268 0.0396751949878 0.032
v -0.0024221690839 0.0394256654596 0.032
v -0.0024068388999 0.0391761359313 0.032
v -0.0023915087158 0.0389266064031 0.032
v -0.0023761785317 0.0386770768749 0.032
v -0.0023608483476 0.0384275473467 0.032
v -0.0023455181636 0.0381780178184 0.032
v -0.0023301879795 0.0379284882902 0.014
v -0.0023301879795 0.0379284882902 0.032
v -0.0021589776704 0.043947000073 0.014
v -0.0021589776704 0.043947000073 0.032
v -0.0021467107518 0.043697301209 0.032
v -0.0021344438332 0.0434476023449 0.032
v -0.0021221769147 0.0431979034809 0.032
v -0.0021099099961 0.0429482046168 0.032
v -0.0020976430775 0.0426985057528 0.032
v -0.0020853761589 0.0424488068887 0.032
v -0.0020731092403 0.0421991080247 0.032
v -0.0020608423218 0.0419494091606 0.032
v -0.0020485754032 0.0416997102966 0.032
v -0.0020363084846 0.0414500114325 0.032
v -0.002024041566 0.0412003125685 0.032
v -0.0020117746474 0.0409506137044 0.032
v -0.0019995077288 0.0407009148404 0.032
v -0.0019872408103 0.0404512159763 0.032
v -0.0019749738917 0.0402015171123 0.032
v -0.0019627069731 0.0399518182482 0.032
v -0.0019504400545 0.0397021193842 0.032
v -0.0019381731359 0.0394524205201 0.032
v -0.0019259062174 0.0392027216561 0.032
v -0.0019136392988 0.038953022792 0.032
v -0.0019013723802 0.038703323928 0.032
v -0.0018891054616 0.0384536250639 0.032
v -0.001876838543 0.0382039261998 0.032
v -0.0018645716244 0.0379542273358 0.014
v -0.0018645716244 0.0379542273358 0.032
f 31 53 28
f 30 28 29
f 30 31 28
f 5 2 1
f 42 54 53
f 42 53 31
f 25 26 27
f 26 28 53
f 26 1 28
f 29 28 1
f 29 1 2
f 27 26 53
f 27 53 54
f 25 1 26
f 25 5 1
f 25 29 2
f 25 31 30
f 25 2 5
f 25 30 29
f 25 42 31
f 25 27 54
f 25 54 42
