# Parametric PetalDock simulation geometry; SI units
v -0.0357865412642 -0.0349188124704 0.014
v -0.0357865412642 -0.0349188124704 0.0168333333333
v -0.0357320594992 -0.0348656517439 0.0168945233466
v -0.035576908559 -0.0347142628028 0.0169121147719
v -0.0353553390593 -0.0353553390593 0.014
v -0.0353553390593 -0.0353553390593 0.0168333333333
v -0.0353447087678 -0.0344876932412 0.016811771776
v -0.0353015137606 -0.0353015137606 0.0168945233466
v -0.0351482322781 -0.0351482322781 0.0169121147719
v -0.0350708104389 -0.034220436221 0.014
v -0.0350708104389 -0.034220436221 0.0166111111111
v -0.0349188303282 -0.0349188303282 0.016811771776
v -0.0346482322781 -0.0346482322781 0.014
v -0.0346482322781 -0.0346482322781 0.0166111111111
f 7 10 1
f 7 4 9
f 2 7 1
f 2 4 7
f 8 9 4
f 3 2 6
f 3 6 8
f 3 4 2
f 3 8 4
f 11 10 7
f 11 7 14
f 12 7 9
f 12 14 7
f 10 13 5
f 10 5 1
f 2 1 5
f 2 5 6
f 11 13 10
f 11 14 13
f 12 5 13
f 12 9 8
f 12 6 5
f 12 8 6
f 12 13 14
