# Parametric PetalDock simulation geometry; SI units
v -0.042546964726 0.0112140890226 0.014
v -0.042546964726 0.0112140890226 0.0272307692308
v -0.042406146895 0.0117353613289 0.014
v -0.042406146895 0.0117353613289 0.0268461538462
v -0.0423052206082 0.0111503726077 0.0272307692308
v -0.0421652028786 0.0116686831395 0.0268461538462
v -0.0420634764905 0.0110866561928 0.0272307692308
v -0.0419242588621 0.0116020049502 0.0268461538462
v -0.0418217323727 0.0110229397779 0.0272307692308
v -0.0416833148457 0.0115353267608 0.0268461538462
v -0.0415799882549 0.010959223363 0.0272307692308
v -0.0414423708292 0.0114686485714 0.0268461538462
v -0.0413382441372 0.0108955069481 0.0272307692308
v -0.0412014268128 0.0114019703821 0.0268461538462
v -0.0410965000194 0.0108317905332 0.0272307692308
v -0.0409604827963 0.0113352921927 0.0268461538462
v -0.0408547559016 0.0107680741183 0.0272307692308
v -0.0407195387799 0.0112686140033 0.0268461538462
v -0.0406130117839 0.0107043577034 0.0272307692308
v -0.0404785947634 0.0112019358139 0.0268461538462
v -0.0403712676661 0.0106406412885 0.0272307692308
v -0.040237650747 0.0111352576246 0.0268461538462
v -0.0401295235484 0.0105769248736 0.0272307692308
v -0.0399967067305 0.0110685794352 0.0268461538462
v -0.0398877794306 0.0105132084587 0.0272307692308
v -0.0397557627141 0.0110019012458 0.0268461538462
v -0.0396460353128 0.0104494920438 0.0272307692308
v -0.0395148186976 0.0109352230565 0.0268461538462
v -0.0394042911951 0.0103857756289 0.0272307692308
v -0.0392738746812 0.0108685448671 0.0268461538462
v -0.0391625470773 0.010322059214 0.0272307692308
v -0.0390329306647 0.0108018666777 0.0268461538462
v -0.0389208029596 0.0102583427991 0.0272307692308
v -0.0387919866483 0.0107351884884 0.0268461538462
v -0.0386790588418 0.0101946263842 0.0272307692308
v -0.0385510426318 0.010668510299 0.0268461538462
v -0.038437314724 0.0101309099693 0.0272307692308
v -0.0383100986154 0.0106018321096 0.0268461538462
v -0.0381955706063 0.0100671935544 0.0272307692308
v -0.0380691545989 0.0105351539203 0.0268461538462
v -0.0379538264885 0.0100034771395 0.0272307692308
v -0.0378282105825 0.0104684757309 0.0268461538462
v -0.0377120823707 0.0099397607246 0.0272307692308
v -0.037587266566 0.0104017975415 0.0268461538462
v -0.037470338253 0.0098760443097 0.0272307692308
v -0.0373463225496 0.0103351193522 0.0268461538462
v -0.0372285941352 0.0098123278948 0.0272307692308
v -0.0371053785331 0.0102684411628 0.0268461538462
v -0.0369868500175 0.0097486114799 0.0272307692308
v -0.0368644345167 0.0102017629734 0.0268461538462
v -0.0367451058997 0.009684895065 0.014
v -0.0367451058997 0.009684895065 0.0272307692308
v -0.0366234905002 0.010135084784 0.014
v -0.0366234905002 0.010135084784 0.0268461538462
f 40 53 3
f 7 2 1
f 8 3 4
f 8 40 3
f 52 49 51
f 52 40 8
f 52 8 4
f 52 4 43
f 33 7 1
f 17 43 4
f 5 4 2
f 5 17 4
f 46 40 52
f 46 53 40
f 48 52 54
f 48 46 52
f 48 54 53
f 48 53 46
f 51 3 53
f 51 1 3
f 4 3 1
f 4 1 2
f 33 1 51
f 33 51 49
f 54 51 53
f 54 52 51
f 5 49 52
f 5 2 7
f 5 33 49
f 5 52 43
f 5 7 33
f 5 43 17
