# Parametric PetalDock simulation geometry; SI units
v -0.0298316466731 0.0141093180832 0.014
v -0.0298316466731 0.0141093180832 0.0219078822412
v -0.0296562573679 0.0144743358718 0.014
v -0.0296562573679 0.0144743358718 0.0216348528015
v -0.0294857049476 0.0139456998325 0.0219106289987
v -0.0293123495388 0.0143064847041 0.0216478013068
v -0.0291924297138 0.0138069909773 0.0218379228575
v -0.0290207985591 0.0141641873552 0.0215840152242
v -0.0289964694675 0.0137143086834 0.0217004325932
v -0.02892765738 0.0136817629898 0.014
v -0.02892765738 0.0136817629898 0.0215313390313
v -0.0288259904227 0.0140691073064 0.0214527053124
v -0.0287575829022 0.0140357196332 0.014
v -0.0287575829022 0.0140357196332 0.0212891737892
f 10 5 1
f 2 1 5
f 2 5 6
f 8 13 3
f 8 6 5
f 4 2 6
f 4 8 3
f 4 6 8
f 11 5 10
f 7 8 5
f 7 5 11
f 9 11 14
f 9 7 11
f 12 9 14
f 12 14 13
f 12 13 8
f 12 8 7
f 12 7 9
f 10 3 13
f 10 1 3
f 4 3 1
f 4 1 2
f 14 10 13
f 14 11 10
