# Parametric PetalDock simulation geometry; SI units
v -0.0366327135836 -0.0340300498898 0.014
v -0.0366327135836 -0.0340300498898 0.0168333333333
v -0.036576943598 -0.0339782422236 0.0168945233466
v -0.0364181241157 -0.0338307064728 0.0169121147719
v -0.0362123541476 -0.0344770272369 0.014
v -0.0362123541476 -0.0344770272369 0.0168333333333
v -0.0361804339634 -0.0336099036179 0.016811771776
v -0.036157224121 -0.0344245390882 0.0168945233466
v -0.0360002270882 -0.0342750654872 0.0169121147719
v -0.0359000593119 -0.033349448892 0.014
v -0.0359000593119 -0.033349448892 0.0166111111111
v -0.0357652644242 -0.0340513624345 0.016811771776
v -0.0354881070646 -0.0337874866921 0.014
v -0.0354881070646 -0.0337874866921 0.0166111111111
f 9 5 13
f 3 1 2
f 3 4 7
f 3 9 4
f 3 10 1
f 3 7 10
f 6 5 9
f 6 3 2
f 14 9 13
f 8 9 3
f 8 6 9
f 8 3 6
f 11 10 7
f 12 9 14
f 12 4 9
f 12 7 4
f 12 14 11
f 12 11 7
f 10 13 5
f 10 5 1
f 6 1 5
f 6 2 1
f 11 13 10
f 11 14 13
