# Parametric PetalDock simulation geometry; SI units
v -0.0410516831487 0.0158353816075 0.014
v -0.0410516831487 0.0158353816075 0.0237692307692
v -0.0408542675408 0.0163379565339 0.014
v -0.0408542675408 0.0163379565339 0.0233846153846
v -0.040818434949 0.0157454078484 0.0237692307692
v -0.0406221410207 0.0162451272354 0.0233846153846
v -0.0405851867493 0.0156554340893 0.0237692307692
v -0.0403900145006 0.0161522979369 0.0233846153846
v -0.0403519385496 0.0155654603301 0.0237692307692
v -0.0401578879805 0.0160594686384 0.0233846153846
v -0.0401186903499 0.015475486571 0.0237692307692
v -0.0399257614603 0.0159666393399 0.0233846153846
v -0.0398854421502 0.0153855128119 0.0237692307692
v -0.0396936349402 0.0158738100414 0.0233846153846
v -0.0396521939505 0.0152955390527 0.0237692307692
v -0.0394615084201 0.015780980743 0.0233846153846
v -0.0394189457508 0.0152055652936 0.0237692307692
v -0.0392293819 0.0156881514445 0.0233846153846
v -0.0391856975511 0.0151155915345 0.0237692307692
v -0.0389972553799 0.015595322146 0.0233846153846
v -0.0389524493514 0.0150256177753 0.0237692307692
v -0.0387651288598 0.0155024928475 0.0233846153846
v -0.0387192011516 0.0149356440162 0.0237692307692
v -0.0385330023396 0.015409663549 0.0233846153846
v -0.0384859529519 0.0148456702571 0.0237692307692
v -0.0383008758195 0.0153168342505 0.0233846153846
v -0.0382527047522 0.0147556964979 0.0237692307692
v -0.0380687492994 0.015224004952 0.0233846153846
v -0.0380194565525 0.0146657227388 0.0237692307692
v -0.0378366227793 0.0151311756535 0.0233846153846
v -0.0377862083528 0.0145757489797 0.0237692307692
v -0.0376044962592 0.015038346355 0.0233846153846
v -0.0375529601531 0.0144857752205 0.0237692307692
v -0.037372369739 0.0149455170566 0.0233846153846
v -0.0373197119534 0.0143958014614 0.0237692307692
v -0.0371402432189 0.0148526877581 0.0233846153846
v -0.0370864637537 0.0143058277023 0.0237692307692
v -0.0369081166988 0.0147598584596 0.0233846153846
v -0.036853215554 0.0142158539431 0.0237692307692
v -0.0366759901787 0.0146670291611 0.0233846153846
v -0.0366199673543 0.014125880184 0.0237692307692
v -0.0364438636586 0.0145741998626 0.0233846153846
v -0.0363867191546 0.0140359064249 0.0237692307692
v -0.0362117371385 0.0144813705641 0.0233846153846
v -0.0361534709548 0.0139459326657 0.0237692307692
v -0.0359796106183 0.0143885412656 0.0233846153846
v -0.0359202227551 0.0138559589066 0.0237692307692
v -0.0357474840982 0.0142957119671 0.0233846153846
v -0.0356869745554 0.0137659851475 0.0237692307692
v -0.0355153575781 0.0142028826687 0.0233846153846
v -0.0354537263557 0.0136760113883 0.014
v -0.0354537263557 0.0136760113883 0.0237692307692
v -0.035283231058 0.0141100533702 0.014
v -0.035283231058 0.0141100533702 0.0233846153846
f 34 53 3
f 21 1 51
f 21 2 1
f 39 51 52
f 39 21 51
f 16 52 34
f 16 4 52
f 16 3 4
f 16 34 3
f 49 52 4
f 50 52 54
f 50 34 52
f 50 54 53
f 50 53 34
f 7 4 2
f 25 49 4
f 25 4 7
f 51 3 53
f 51 1 3
f 4 3 1
f 4 1 2
f 54 51 53
f 54 52 51
f 25 21 39
f 25 2 21
f 25 39 52
f 25 52 49
f 25 7 2
