# Parametric PetalDock simulation geometry; SI units
v -0.0176348567902 -0.0457166471429 0.014
v -0.0176348567902 -0.0457166471429 0.0235460588794
v -0.0175448830311 -0.0454833989432 0.0235579297246
v -0.0174549092719 -0.0452501507435 0.0235698005698
v -0.0173649355128 -0.0450169025438 0.023581671415
v -0.0172749617537 -0.0447836543441 0.0235935422602
v -0.0171849879945 -0.0445504061444 0.0236054131054
v -0.0170950142354 -0.0443171579447 0.0236172839506
v -0.0170725153322 -0.0459296115837 0.014
v -0.0170725153322 -0.0459296115837 0.0238190883191
v -0.0170050404763 -0.0440839097449 0.0236291547958
v -0.0169854106622 -0.0456952768307 0.0238368945869
v -0.0169150667171 -0.0438506615452 0.023641025641
v -0.0168983059921 -0.0454609420778 0.0238547008547
v -0.016825092958 -0.0436174133455 0.0236528964862
v -0.016811201322 -0.0452266073248 0.0238725071225
v -0.0167351191989 -0.0433841651458 0.0236647673314
v -0.016724096652 -0.0449922725718 0.0238903133903
v -0.0166451454397 -0.0431509169461 0.0236766381766
v -0.0166369919819 -0.0447579378188 0.0239081196581
v -0.0165551716806 -0.0429176687464 0.0236885090218
v -0.0165498873118 -0.0445236030658 0.0239259259259
v -0.0164651979215 -0.0426844205467 0.023700379867
v -0.0164627826418 -0.0442892683129 0.0239437321937
v -0.0163756779717 -0.0440549335599 0.0239615384615
v -0.0163752241623 -0.042451172347 0.0237122507123
v -0.0162885733017 -0.0438205988069 0.0239793447293
v -0.0162852504032 -0.0422179241473 0.0237241215575
v -0.0162014686316 -0.0435862640539 0.0239971509972
v -0.0161952766441 -0.0419846759476 0.0237359924027
v -0.0161143639615 -0.043351929301 0.024014957265
v -0.0161053028849 -0.0417514277479 0.0237478632479
v -0.0160272592915 -0.043117594548 0.0240327635328
v -0.0160153291258 -0.0415181795481 0.0237593383982
v -0.0159401546214 -0.042883259795 0.0240505698006
v -0.0159253553667 -0.0412849313484 0.0237667576765
v -0.0158530499513 -0.042648925042 0.0240683760684
v -0.0158353816075 -0.0410516831487 0.014
v -0.0158353816075 -0.0410516831487 0.0237692307692
v -0.0157659452813 -0.042414590289 0.0240861823362
v -0.0156788406112 -0.0421802555361 0.024103988604
v -0.0155917359412 -0.0419459207831 0.0241217948718
v -0.0155046312711 -0.0417115860301 0.0241390075973
v -0.015417526601 -0.0414772512771 0.0241501365147
v -0.015330421931 -0.0412429165242 0.014
v -0.015330421931 -0.0412429165242 0.0241538461538
f 31 9 45
f 36 38 1
f 16 10 9
f 16 9 31
f 16 31 10
f 29 10 31
f 11 36 1
f 39 36 46
f 39 38 36
f 12 2 10
f 12 10 29
f 12 29 2
f 33 2 29
f 33 29 31
f 3 1 2
f 3 11 1
f 34 36 11
f 42 43 2
f 42 2 33
f 44 2 43
f 44 3 2
f 44 46 36
f 44 36 34
f 44 45 46
f 41 43 42
f 41 44 43
f 41 31 45
f 41 45 44
f 30 11 3
f 30 3 44
f 30 34 11
f 32 44 34
f 32 34 30
f 32 30 44
f 38 45 9
f 38 9 1
f 2 9 10
f 2 1 9
f 39 45 38
f 39 46 45
f 41 42 33
f 41 33 31
