# Parametric PetalDock simulation geometry; SI units
v -0.0431986428061 0.0251769191863 0.014
v -0.0431986428061 0.0251769191863 0.0198361823362
v -0.0431328767884 0.0251385896091 0.0199663416279
v -0.0429455910153 0.0250294362083 0.0200605694245
v -0.0428864305 0.0257051372097 0.014
v -0.0428864305 0.0257051372097 0.019594017094
v -0.0428211397972 0.0256660034684 0.0197186143472
v -0.042665298048 0.0248660765996 0.0200708351555
v -0.0426352076066 0.0255545600021 0.0198066617913
v -0.0423569404185 0.0253877730682 0.0198080074636
v -0.04233466995 0.0246733808026 0.014
v -0.04233466995 0.0246733808026 0.0199966761633
v -0.04202870189 0.0251910344655 0.014
v -0.04202870189 0.0251910344655 0.0197236467236
f 12 10 8
f 14 10 12
f 6 10 14
f 6 7 10
f 3 6 2
f 3 7 6
f 3 1 11
f 3 2 1
f 3 11 12
f 9 8 10
f 9 10 7
f 4 8 9
f 4 12 8
f 4 3 12
f 4 7 3
f 4 9 7
f 11 5 13
f 11 1 5
f 14 11 13
f 14 12 11
f 6 13 5
f 6 14 13
f 6 5 1
f 6 1 2
