# Parametric PetalDock simulation geometry; SI units
v -0.0324424810852 0.0060403163025 0.014
v -0.0324424810852 0.0060403163025 0.0276415004748
v -0.0323659142533 0.0064379806265 0.014
v -0.0323659142533 0.0064379806265 0.0273684710351
v -0.0320662629029 0.0059702699699 0.0274300105284
v -0.0319905839758 0.0063633227925 0.0271671828365
v -0.0317473205284 0.0059108875565 0.0271699831563
v -0.0316723943306 0.0063000309369 0.026916075523
v -0.0315342100471 0.0058712094964 0.026902705489
v -0.031459786807 0.006257740671 0.0266549782082
v -0.0314593755978 0.0058572764146 0.014
v -0.0314593755978 0.0058572764146 0.0266168091168
v -0.0313851289729 0.0062428903045 0.014
v -0.0313851289729 0.0062428903045 0.0263746438746
f 6 3 4
f 6 13 3
f 6 4 2
f 5 2 1
f 5 6 2
f 9 1 11
f 9 5 1
f 12 9 11
f 7 5 9
f 14 9 12
f 8 14 13
f 8 13 6
f 8 6 5
f 8 5 7
f 10 9 14
f 10 14 8
f 10 7 9
f 10 8 7
f 4 1 2
f 4 3 1
f 11 1 3
f 11 3 13
f 14 11 13
f 14 12 11
