# Parametric PetalDock simulation geometry; SI units
v 0.0439867480226 0.001079814055 0.014
v 0.0439867480226 0.001079814055 0.032
v 0.0439966868809 0.0005399476846 0.014
v 0.0439966868809 0.0005399476846 0.032
v 0.0442366727273 0.0010859493621 0.0319710648148
v 0.0442466680564 0.0005430155691 0.0319710648148
v 0.044486597432 0.0010920846693 0.0318842592593
v 0.0444966492318 0.0005460834537 0.0318842592593
v 0.0447365221367 0.0010982199764 0.03175
v 0.0447466304073 0.0005491513383 0.03175
v 0.0449864468413 0.0011043552835 0.0316111111111
v 0.0449966115828 0.0005522192229 0.0316111111111
v 0.045236371546 0.0011104905907 0.0314722222222
v 0.0452465927582 0.0005552871074 0.0314722222222
v 0.0454862962507 0.0011166258978 0.0313333333333
v 0.0454965739337 0.000558354992 0.0313333333333
v 0.0457362209554 0.0011227612049 0.0311944444444
v 0.0457465551091 0.0005614228766 0.0311944444444
v 0.04598614566 0.0011288965121 0.0310555555556
v 0.0459965362846 0.0005644907611 0.0310555555556
v 0.0462360703647 0.0011350318192 0.0309166666667
v 0.0462465174601 0.0005675586457 0.0309166666667
v 0.0464859950694 0.0011411671263 0.0307777777778
v 0.0464964986355 0.0005706265303 0.0307777777778
v 0.046735919774 0.0011473024334 0.0306388888889
v 0.046746479811 0.0005736944149 0.0306388888889
v 0.0469858444787 0.0011534377406 0.0305
v 0.0469964609864 0.0005767622994 0.0305
v 0.0472357691834 0.0011595730477 0.0303611111111
v 0.0472464421619 0.000579830184 0.0303611111111
v 0.0474856938881 0.0011657083548 0.0302222222222
v 0.0474964233374 0.0005828980686 0.0302222222222
v 0.0477356185927 0.001171843662 0.0300833333333
v 0.0477464045128 0.0005859659531 0.0300833333333
v 0.0479855432974 0.0011779789691 0.0299444444444
v 0.0479963856883 0.0005890338377 0.0299444444444
v 0.0482354680021 0.0011841142762 0.0298055555556
v 0.0482463668637 0.0005921017223 0.0298055555556
v 0.0484853927068 0.0011902495834 0.0296666666667
v 0.0484963480392 0.0005951696069 0.0296666666667
v 0.0487353174114 0.0011963848905 0.0295277777778
v 0.0487463292147 0.0005982374914 0.0295277777778
v 0.0489852421161 0.0012025201976 0.014
v 0.0489852421161 0.0012025201976 0.0293888888889
v 0.0489963103901 0.000601305376 0.014
v 0.0489963103901 0.000601305376 0.0293888888889
f 7 1 2
f 39 43 1
f 39 1 19
f 9 39 19
f 5 7 2
f 6 3 45
f 6 4 3
f 6 7 5
f 6 2 4
f 6 5 2
f 13 9 19
f 13 7 9
f 41 44 43
f 41 43 39
f 41 39 44
f 42 45 46
f 42 34 45
f 42 46 44
f 42 44 39
f 8 6 14
f 8 7 6
f 20 14 6
f 20 34 42
f 10 8 14
f 10 14 20
f 10 12 9
f 10 9 7
f 10 7 8
f 22 9 12
f 22 39 9
f 22 42 39
f 22 20 42
f 3 43 45
f 3 1 43
f 4 1 3
f 4 2 1
f 44 45 43
f 44 46 45
f 13 1 7
f 13 19 1
f 20 45 34
f 20 6 45
f 22 10 20
f 22 12 10
