# Parametric PetalDock simulation geometry; SI units
v 0.0181034179451 0.0263868576891 0.014
v 0.0181034179451 0.0263868576891 0.0183831908832
v 0.018146481715 0.0264496258123 0.0184799779434
v 0.0182691169561 0.0266283743042 0.0185371236249
v 0.0184258621254 0.0261627140209 0.014
v 0.0184258621254 0.0261627140209 0.018141025641
v 0.0184526535647 0.0268958903272 0.0184938690041
v 0.0184696929141 0.026224948959 0.0182322506626
v 0.01859451244 0.0264021790684 0.0182832159916
v 0.0186691497559 0.0272114469919 0.014
v 0.0186691497559 0.0272114469919 0.0183584995252
v 0.0187813180617 0.0266674226715 0.0182310413122
v 0.0190016703168 0.026980298834 0.014
v 0.0190016703168 0.026980298834 0.0180854700855
f 4 10 1
f 7 10 4
f 7 11 10
f 2 4 1
f 3 2 6
f 3 4 2
f 12 14 11
f 12 11 7
f 8 5 13
f 8 6 5
f 8 4 3
f 8 3 6
f 9 13 14
f 9 8 13
f 9 14 12
f 9 4 8
f 9 7 4
f 9 12 7
f 5 10 13
f 5 1 10
f 2 1 5
f 2 5 6
f 14 13 10
f 14 10 11
