# Parametric PetalDock simulation geometry; SI units
v -0.0221556888839 0.0380148056693 0.014
v -0.0221556888839 0.0380148056693 0.0187692307692
v -0.022029804288 0.0377988124553 0.0187692307692
v -0.0219039196921 0.0375828192413 0.0187692307692
v -0.0217780350961 0.0373668260273 0.0187692307692
v -0.0216875204581 0.0382838276088 0.014
v -0.0216875204581 0.0382838276088 0.0191538461538
v -0.0216521505002 0.0371508328132 0.0187692307692
v -0.0215642959101 0.038066305861 0.0191538461538
v -0.0215262659043 0.0369348395992 0.0187692307692
v -0.021441071362 0.0378487841132 0.0191538461538
v -0.0214003813083 0.0367188463852 0.0187692307692
v -0.0213178468139 0.0376312623655 0.0191538461538
v -0.0212744967124 0.0365028531711 0.0187692307692
v -0.0211946222659 0.0374137406177 0.0191538461538
v -0.0211486121165 0.0362868599571 0.0187692307692
v -0.0210713977178 0.0371962188699 0.0191538461538
v -0.0210227275205 0.0360708667431 0.0187692307692
v -0.0209481731698 0.0369786971221 0.0191538461538
v -0.0208968429246 0.035854873529 0.0187692307692
v -0.0208249486217 0.0367611753743 0.0191538461538
v -0.0207709583287 0.035638880315 0.0187692307692
v -0.0207017240737 0.0365436536266 0.0191538461538
v -0.0206450737328 0.035422887101 0.0187692307692
v -0.0205784995256 0.0363261318788 0.0191538461538
v -0.0205191891368 0.035206893887 0.0187692307692
v -0.0204552749775 0.036108610131 0.0191538461538
v -0.0203933045409 0.0349909006729 0.0187692307692
v -0.0203320504295 0.0358910883832 0.0191538461538
v -0.020267419945 0.0347749074589 0.0187692307692
v -0.0202088258814 0.0356735666355 0.0191538461538
v -0.020141535349 0.0345589142449 0.0187692307692
v -0.0200856013334 0.0354560448877 0.0191538461538
v -0.0200156507531 0.0343429210308 0.0187692307692
v -0.0199623767853 0.0352385231399 0.0191538461538
v -0.0198897661572 0.0341269278168 0.0187692307692
v -0.0198391522372 0.0350210013921 0.0191538461538
v -0.0197638815612 0.0339109346028 0.0187692307692
v -0.0197159276892 0.0348034796443 0.0191538461538
v -0.0196379969653 0.0336949413887 0.0187692307692
v -0.0195927031411 0.0345859578966 0.0191538461538
v -0.0195121123694 0.0334789481747 0.0187692307692
v -0.0194694785931 0.0343684361488 0.0191538461538
v -0.0193862277734 0.0332629549607 0.0187692307692
v -0.019346254045 0.034150914401 0.0191538461538
v -0.0192603431775 0.0330469617467 0.0187692307692
v -0.019223029497 0.0339333926532 0.0191538461538
v -0.0191344585816 0.0328309685326 0.014
v -0.0191344585816 0.0328309685326 0.0187692307692
v -0.0190998049489 0.0337158709055 0.0191538461538
v -0.0189765804008 0.0334983491577 0.0191538461538
v -0.0188533558528 0.0332808274099 0.0191538461538
v -0.0187301313047 0.0330633056621 0.014
v -0.0187301313047 0.0330633056621 0.0191538461538
f 4 54 2
f 4 1 48
f 4 2 1
f 13 53 6
f 13 6 7
f 9 7 2
f 9 2 47
f 52 2 54
f 52 47 2
f 24 49 54
f 24 54 4
f 24 48 49
f 24 4 48
f 51 54 53
f 51 53 13
f 48 6 53
f 48 1 6
f 2 6 1
f 2 7 6
f 54 48 53
f 54 49 48
f 51 7 9
f 51 13 7
f 51 52 54
f 51 9 47
f 51 47 52
