# Parametric PetalDock simulation geometry; SI units
v -0.0307887623615 -0.0118765362057 0.014
v -0.0307887623615 -0.0118765362057 0.0235460588794
v -0.0306407006556 -0.0122534674004 0.014
v -0.0306407006556 -0.0122534674004 0.0232730294397
v -0.0304317214749 -0.0117388103378 0.02348759515
v -0.0302853767618 -0.0121113704621 0.0232247674581
v -0.0301290368267 -0.0116220519848 0.0233613686572
v -0.0299841477097 -0.0119909064946 0.0231074610239
v -0.0299267894107 -0.0115440365475 0.0231867962777
v -0.0298557695627 -0.0115166411691 0.014
v -0.0298557695627 -0.0115166411691 0.0229843304843
v -0.0297828728921 -0.0119104150448 0.0229390689969
v -0.0297121945751 -0.0118821502065 0.014
v -0.0297121945751 -0.0118821502065 0.0227421652422
f 9 1 2
f 9 10 1
f 11 10 9
f 11 9 14
f 5 9 2
f 8 4 14
f 6 4 8
f 6 8 5
f 6 2 4
f 6 5 2
f 12 14 9
f 12 8 14
f 7 9 5
f 7 5 8
f 7 12 9
f 7 8 12
f 4 2 1
f 4 1 3
f 10 3 1
f 10 13 3
f 14 4 3
f 14 3 13
f 11 13 10
f 11 14 13
