# Parametric PetalDock simulation geometry; SI units
v -0.0053860697088 -0.0436690995223 0.014
v -0.0053860697088 -0.0436690995223 0.0314082840237
v -0.00535546704 -0.0434209796387 0.0314082840237
v -0.0053248643712 -0.043172859755 0.0314082840237
v -0.0052942617024 -0.0429247398714 0.0314082840237
v -0.0052636590336 -0.0426766199877 0.0314082840237
v -0.0052330563648 -0.0424285001041 0.0314082840237
v -0.005202453696 -0.0421803802204 0.0314082840237
v -0.0051718510272 -0.0419322603368 0.0314082840237
v -0.0051412483584 -0.0416841404531 0.0314082840237
v -0.0051106456896 -0.0414360205695 0.0314082840237
v -0.0050800430208 -0.0411879006858 0.0314082840237
v -0.005049440352 -0.0409397808022 0.0314082840237
v -0.0050188376832 -0.0406916609185 0.0314082840237
v -0.0049882350144 -0.0404435410349 0.0314082840237
v -0.0049576323456 -0.0401954211512 0.0314082840237
v -0.0049270296768 -0.0399473012676 0.0314082840237
v -0.004896427008 -0.0396991813839 0.0314082840237
v -0.0048658243392 -0.0394510615003 0.0314082840237
v -0.0048497771209 -0.0437319066801 0.014
v -0.0048497771209 -0.0437319066801 0.0316671597633
v -0.0048352216704 -0.0392029416166 0.0314082840237
v -0.0048222215691 -0.0434834299376 0.0316671597633
v -0.0048046190016 -0.038954821733 0.0314082840237
v -0.0047946660173 -0.0432349531951 0.0316671597633
v -0.0047740163328 -0.0387067018493 0.0314082840237
v -0.0047671104655 -0.0429864764526 0.0316671597633
v -0.004743413664 -0.0384585819657 0.0314082840237
v -0.0047395549136 -0.0427379997101 0.0316671597633
v -0.0047128109952 -0.0382104620821 0.0314082840237
v -0.0047119993618 -0.0424895229676 0.0316671597633
v -0.00468444381 -0.0422410462251 0.0316671597633
v -0.0046822083264 -0.0379623421984 0.0314082840237
v -0.0046568882582 -0.0419925694826 0.0316671597633
v -0.0046516056576 -0.0377142223148 0.014
v -0.0046516056576 -0.0377142223148 0.0314082840237
v -0.0046293327063 -0.0417440927401 0.0316671597633
v -0.0046017771545 -0.0414956159976 0.0316671597633
v -0.0045742216027 -0.0412471392551 0.0316671597633
v -0.0045466660509 -0.0409986625126 0.0316671597633
v -0.004519110499 -0.0407501857701 0.0316671597633
v -0.0044915549472 -0.0405017090276 0.0316671597633
v -0.0044639993954 -0.0402532322851 0.0316671597633
v -0.0044364438436 -0.0400047555426 0.0316671597633
v -0.0044088882918 -0.0397562788001 0.0316671597633
v -0.0043813327399 -0.0395078020576 0.0316671597633
v -0.0043537771881 -0.0392593253151 0.0316671597633
v -0.0043262216363 -0.0390108485726 0.0316671597633
v -0.0042986660845 -0.0387623718301 0.0316671597633
v -0.0042711105326 -0.0385138950876 0.0316671597633
v -0.0042435549808 -0.0382654183451 0.0316671597633
v -0.004215999429 -0.0380169416026 0.0316671597633
v -0.0041884438772 -0.0377684648601 0.014
v -0.0041884438772 -0.0377684648601 0.0316671597633
f 27 2 21
f 50 20 53
f 50 53 54
f 26 35 1
f 45 54 2
f 45 2 27
f 41 21 20
f 41 20 50
f 33 54 36
f 33 26 54
f 33 36 35
f 33 35 26
f 35 53 20
f 35 20 1
f 2 1 20
f 2 20 21
f 54 53 35
f 54 35 36
f 26 2 54
f 26 1 2
f 41 54 45
f 41 27 21
f 41 50 54
f 41 45 27
