# Parametric PetalDock simulation geometry; SI units
v 0.0429308937217 0.0096404545669 0.014
v 0.0429308937217 0.0096404545669 0.0283846153846
v 0.0430459643117 0.0091129005525 0.014
v 0.0430459643117 0.0091129005525 0.0287692307692
v 0.0431748192542 0.0096952298769 0.0283673037354
v 0.0432905436543 0.0091646783965 0.0287506825736
v 0.0434187447867 0.009750005187 0.0283153687876
v 0.043535122997 0.0092164562406 0.0286950379867
v 0.0436626703192 0.009804780497 0.028235042735
v 0.0437797023397 0.0092682340846 0.028608974359
v 0.0439065958517 0.0098595558071 0.0281519468186
v 0.0440242816824 0.0093200119286 0.0285199430199
v 0.0441505213842 0.0099143311171 0.0280688509022
v 0.0442688610251 0.0093717897727 0.0284309116809
v 0.0443944469168 0.0099691064271 0.0279857549858
v 0.0445134403677 0.0094235676167 0.0283418803419
v 0.0446383724493 0.0100238817372 0.0279026590693
v 0.0447580197104 0.0094753454608 0.0282528490028
v 0.0448822979818 0.0100786570472 0.0278195631529
v 0.0450025990531 0.0095271233048 0.0281638176638
v 0.0451262235143 0.0101334323573 0.0277364672365
v 0.0452471783958 0.0095789011489 0.0280747863248
v 0.0453701490468 0.0101882076673 0.02765337132
v 0.0454917577385 0.0096306789929 0.0279857549858
v 0.0456140745793 0.0102429829773 0.0275702754036
v 0.0457363370811 0.009682456837 0.0278967236467
v 0.0458580001118 0.0102977582874 0.0274871794872
v 0.0459809164238 0.009734234681 0.0278076923077
v 0.0461019256443 0.0103525335974 0.0274040835708
v 0.0462254957665 0.0097860125251 0.0277186609687
v 0.0463458511768 0.0104073089075 0.0273209876543
v 0.0464700751092 0.0098377903691 0.0276296296296
v 0.0465897767093 0.0104620842175 0.0272378917379
v 0.0467146544519 0.0098895682132 0.0275405982906
v 0.0468337022418 0.0105168595275 0.0271547958215
v 0.0469592337945 0.0099413460572 0.0274515669516
v 0.0470776277744 0.0105716348376 0.027071699905
v 0.0472038131372 0.0099931239013 0.0273625356125
v 0.0473215533069 0.0106264101476 0.0269886039886
v 0.0474483924799 0.0100449017453 0.0272735042735
v 0.0475654788394 0.0106811854576 0.0269055080722
v 0.0476929718226 0.0100966795894 0.0271844729345
v 0.0478094043719 0.0107359607677 0.014
v 0.0478094043719 0.0107359607677 0.0268224121557
v 0.0479375511653 0.0101484574334 0.014
v 0.0479375511653 0.0101484574334 0.0270954415954
f 31 43 1
f 31 1 11
f 21 31 11
f 21 37 31
f 5 2 4
f 5 7 2
f 8 21 11
f 9 11 7
f 9 8 11
f 9 7 8
f 6 5 4
f 6 7 5
f 6 8 7
f 6 4 3
f 44 43 31
f 44 31 37
f 12 3 45
f 12 6 3
f 41 8 44
f 41 44 37
f 41 21 8
f 41 37 21
f 10 44 8
f 10 8 6
f 10 6 12
f 10 30 44
f 24 45 46
f 24 12 45
f 24 10 12
f 24 30 10
f 42 46 44
f 42 44 30
f 42 24 46
f 42 30 24
f 3 43 45
f 3 1 43
f 2 1 3
f 2 3 4
f 7 1 2
f 7 11 1
f 44 45 43
f 44 46 45
