# Parametric PetalDock simulation geometry; SI units
v -0.0106911279157 -0.0426813751406 0.014
v -0.0106911279157 -0.0426813751406 0.0276153846154
v -0.0106303828708 -0.0424388673273 0.0276153846154
v -0.0105696378258 -0.042196359514 0.0276153846154
v -0.0105088927808 -0.0419538517007 0.0276153846154
v -0.0104481477358 -0.0417113438874 0.0276153846154
v -0.0103874026909 -0.0414688360741 0.0276153846154
v -0.0103266576459 -0.0412263282608 0.0276153846154
v -0.0102659126009 -0.0409838204475 0.0276153846154
v -0.0102051675559 -0.0407413126342 0.0276153846154
v -0.0101665567643 -0.042809357897 0.014
v -0.0101665567643 -0.042809357897 0.028
v -0.010144422511 -0.0404988048209 0.0276153846154
v -0.0101087922373 -0.042566122909 0.028
v -0.010083677466 -0.0402562970076 0.0276153846154
v -0.0100510277102 -0.0423228879209 0.028
v -0.010022932421 -0.0400137891943 0.0276153846154
v -0.0099932631831 -0.0420796529329 0.028
v -0.009962187376 -0.039771281381 0.0276153846154
v -0.0099354986561 -0.0418364179448 0.028
v -0.0099014423311 -0.0395287735677 0.0276153846154
v -0.009877734129 -0.0415931829568 0.028
v -0.0098406972861 -0.0392862657544 0.0276153846154
v -0.0098199696019 -0.0413499479687 0.028
v -0.0097799522411 -0.0390437579411 0.0276153846154
v -0.0097622050749 -0.0411067129807 0.028
v -0.0097192071961 -0.0388012501278 0.0276153846154
v -0.0097044405478 -0.0408634779926 0.028
v -0.0096584621512 -0.0385587423145 0.0276153846154
v -0.0096466760207 -0.0406202430046 0.028
v -0.0095977171062 -0.0383162345012 0.0276153846154
v -0.0095889114936 -0.0403770080165 0.028
v -0.0095369720612 -0.0380737266879 0.0276153846154
v -0.0095311469666 -0.0401337730285 0.028
v -0.0094762270162 -0.0378312188746 0.0276153846154
v -0.0094733824395 -0.0398905380404 0.028
v -0.0094156179124 -0.0396473030524 0.028
v -0.0094154819713 -0.0375887110613 0.0276153846154
v -0.0093578533854 -0.0394040680643 0.028
v -0.0093547369263 -0.037346203248 0.0276153846154
v -0.0093000888583 -0.0391608330763 0.028
v -0.0092939918813 -0.0371036954347 0.0276153846154
v -0.0092423243312 -0.0389175980882 0.028
v -0.0092332468363 -0.0368611876214 0.014
v -0.0092332468363 -0.0368611876214 0.0276153846154
v -0.0091845598042 -0.0386743631002 0.028
v -0.0091267952771 -0.0384311281121 0.028
v -0.00906903075 -0.0381878931241 0.028
v -0.0090112662229 -0.037944658136 0.028
v -0.0089535016959 -0.037701423148 0.028
v -0.0088957371688 -0.0374581881599 0.028
v -0.0088379726417 -0.0372149531719 0.028
v -0.0087802081147 -0.0369717181838 0.014
v -0.0087802081147 -0.0369717181838 0.028
f 20 54 2
f 52 11 53
f 52 53 54
f 14 2 12
f 14 20 2
f 38 54 45
f 38 45 44
f 3 2 54
f 3 1 2
f 18 12 11
f 18 11 52
f 44 53 11
f 44 11 1
f 2 1 11
f 2 11 12
f 54 53 44
f 54 44 45
f 3 54 38
f 3 44 1
f 3 38 44
f 18 54 20
f 18 14 12
f 18 52 54
f 18 20 14
