# Parametric PetalDock simulation geometry; SI units
v 0.0037750817432 0.043837754936 0.014
v 0.0037750817432 0.043837754936 0.0319630177515
v 0.0037965310712 0.0440868330891 0.031934201465
v 0.0038179803993 0.0443359112421 0.0318477526055
v 0.0038394297274 0.0445849893952 0.0317140450362
v 0.0038608790555 0.0448340675482 0.031575726861
v 0.0038823283836 0.0450831457013 0.0314374086858
v 0.0039037777117 0.0453322238543 0.0312990905106
v 0.0039252270398 0.0455813020074 0.0311607723355
v 0.0039466763678 0.0458303801604 0.0310224541603
v 0.0039681256959 0.0460794583135 0.0308841359851
v 0.003989575024 0.0463285364665 0.0307458178099
v 0.0040110243521 0.0465776146195 0.0306074996347
v 0.0040324736802 0.0468266927726 0.0304691814596
v 0.0040539230083 0.0470757709256 0.0303308632844
v 0.0040753723364 0.0473248490787 0.0301925451092
v 0.0040968216644 0.0475739272317 0.030054226934
v 0.0041182709925 0.0478230053848 0.0299159087589
v 0.0041397203206 0.0480720835378 0.0297775905837
v 0.0041611696487 0.0483211616909 0.0296392724085
v 0.0041826189768 0.0485702398439 0.0295009542333
v 0.0042040683049 0.048819317997 0.014
v 0.0042040683049 0.048819317997 0.0293626360581
v 0.0043127541745 0.0437881279736 0.014
v 0.0043127541745 0.0437881279736 0.0318520710059
v 0.0043372584596 0.0440369241552 0.0318236114155
v 0.0043617627447 0.0442857203369 0.0317382326442
v 0.0043862670297 0.0445345165186 0.0316061801446
v 0.0044107713148 0.0447833127002 0.0314695741106
v 0.0044352755999 0.0450321088819 0.0313329680766
v 0.004459779885 0.0452809050636 0.0311963620425
v 0.0044842841701 0.0455297012453 0.0310597560085
v 0.0045087884552 0.0457784974269 0.0309231499744
v 0.0045332927402 0.0460272936086 0.0307865439404
v 0.0045577970253 0.0462760897903 0.0306499379063
v 0.0045823013104 0.0465248859719 0.0305133318723
v 0.0046068055955 0.0467736821536 0.0303767258383
v 0.0046313098806 0.0470224783353 0.0302401198042
v 0.0046558141657 0.0472712745169 0.0301035137702
v 0.0046803184507 0.0475200706986 0.0299669077361
v 0.0047048227358 0.0477688668803 0.0298303017021
v 0.0047293270209 0.0480176630619 0.0296936956681
v 0.004753831306 0.0482664592436 0.029557089634
v 0.0047783355911 0.0485152554253 0.0294204836
v 0.0048028398761 0.0487640516069 0.014
v 0.0048028398761 0.0487640516069 0.0292838775659
f 3 1 2
f 3 22 1
f 39 24 45
f 44 45 46
f 44 39 45
f 18 23 22
f 18 22 17
f 18 46 23
f 10 18 17
f 4 10 3
f 4 3 27
f 26 25 24
f 26 24 27
f 26 27 3
f 26 2 25
f 26 3 2
f 5 10 4
f 5 44 46
f 5 18 10
f 9 46 18
f 9 5 46
f 9 18 5
f 32 39 44
f 32 44 5
f 28 4 27
f 28 5 4
f 33 39 32
f 30 32 5
f 30 5 28
f 30 33 32
f 29 27 33
f 29 33 30
f 29 28 27
f 29 30 28
f 24 1 22
f 24 22 45
f 46 22 23
f 46 45 22
f 25 1 24
f 25 2 1
f 10 17 22
f 10 22 3
f 33 27 24
f 33 24 39
