# Parametric PetalDock simulation geometry; SI units
v -0.0187514881859 0.0452700970931 0.014
v -0.0187514881859 0.0452700970931 0.023
v -0.0186558173278 0.0450391272099 0.023
v -0.0185601464697 0.0448081573268 0.023
v -0.0184644756116 0.0445771874437 0.023
v -0.0183688047535 0.0443462175605 0.023
v -0.0182731338954 0.0441152476774 0.023
v -0.0181945425036 0.0454967979432 0.014
v -0.0181945425036 0.0454967979432 0.0232730294397
v -0.0181774630373 0.0438842777943 0.023
v -0.0181017132052 0.0452646714231 0.0232789648623
v -0.0180817921793 0.0436533079112 0.023
v -0.0180088839067 0.045032544903 0.0232849002849
v -0.0179861213212 0.043422338028 0.023
v -0.0179160546082 0.0448004183828 0.0232908357075
v -0.0178904504631 0.0431913681449 0.023
v -0.0178232253097 0.0445682918627 0.0232967711301
v -0.017794779605 0.0429603982618 0.023
v -0.0177303960112 0.0443361653426 0.0233027065527
v -0.0176991087469 0.0427294283786 0.023
v -0.0176375667127 0.0441040388225 0.0233086419753
v -0.0176034378888 0.0424984584955 0.023
v -0.0175447374142 0.0438719123024 0.0233145773979
v -0.0175077670307 0.0422674886124 0.023
v -0.0174519081157 0.0436397857822 0.0233205128205
v -0.0174120961726 0.0420365187293 0.023
v -0.0173590788172 0.0434076592621 0.0233264482431
v -0.0173164253145 0.0418055488461 0.023
v -0.0172662495188 0.043175532742 0.0233323836657
v -0.0172207544564 0.041574578963 0.023
v -0.0171734202203 0.0429434062219 0.0233383190883
v -0.0171250835983 0.0413436090799 0.023
v -0.0170805909218 0.0427112797018 0.0233442545109
v -0.0170294127402 0.0411126391968 0.023
v -0.0169877616233 0.0424791531816 0.0233501899335
v -0.0169337418822 0.0408816693136 0.023
v -0.0168949323248 0.0422470266615 0.0233561253561
v -0.0168380710241 0.0406506994305 0.014
v -0.0168380710241 0.0406506994305 0.023
v -0.0168021030263 0.0420149001414 0.0233620607787
v -0.0167092737278 0.0417827736213 0.0233679962013
v -0.0166164444293 0.0415506471012 0.0233739316239
v -0.0165236151309 0.0413185205811 0.0233796691991
v -0.0164307858324 0.0410863940609 0.0233833788382
v -0.0163379565339 0.0408542675408 0.014
v -0.0163379565339 0.0408542675408 0.0233846153846
f 42 46 45
f 42 45 8
f 42 8 9
f 14 1 38
f 44 2 46
f 44 46 42
f 3 2 1
f 3 1 14
f 3 46 2
f 3 14 46
f 11 9 2
f 11 2 29
f 35 2 42
f 35 29 2
f 43 42 2
f 43 2 44
f 43 44 42
f 36 38 39
f 36 14 38
f 36 39 46
f 36 46 14
f 13 9 11
f 23 42 9
f 23 9 13
f 38 8 45
f 38 1 8
f 2 9 8
f 2 8 1
f 39 38 45
f 39 45 46
f 33 29 35
f 33 35 42
f 33 42 23
f 33 23 13
f 33 11 29
f 33 13 11
