# Parametric PetalDock simulation geometry; SI units
v -0.0267498809944 -0.0422426782625 0.014
v -0.0267498809944 -0.0422426782625 0.0191096866097
v -0.0267091567254 -0.0421783676141 0.0192231597856
v -0.0265931838194 -0.0419952263823 0.0192988465247
v -0.0264196181 -0.0417211361594 0.0192823520798
v -0.0262294841339 -0.0425677596553 0.014
v -0.0262294841339 -0.0425677596553 0.0193518518519
v -0.0262148833745 -0.0413978246972 0.014
v -0.0262148833745 -0.0413978246972 0.0191775878443
v -0.026189552122 -0.0425029541 0.0194708870664
v -0.0260758353732 -0.0423184034924 0.019552754158
v -0.0259056462316 -0.0420422039896 0.0195451797717
v -0.0257048944512 -0.0417164044622 0.014
v -0.0257048944512 -0.0417164044622 0.019450617284
f 12 11 14
f 10 11 3
f 10 14 11
f 10 6 13
f 10 13 14
f 10 7 6
f 2 7 10
f 2 10 3
f 5 14 9
f 5 12 14
f 5 8 1
f 5 9 8
f 5 1 2
f 4 2 3
f 4 5 2
f 4 3 11
f 4 11 12
f 4 12 5
f 8 13 6
f 8 6 1
f 14 13 8
f 14 8 9
f 2 1 6
f 2 6 7
