# Parametric PetalDock simulation geometry; SI units
v -0.0326997869691 -0.0044411633807 0.014
v -0.0326997869691 -0.0044411633807 0.0287325681204
v -0.0326428248288 -0.004842105657 0.014
v -0.0326428248288 -0.004842105657 0.0284605887939
v -0.0323205849475 -0.0043896615733 0.0284803104202
v -0.0322642833668 -0.0047859543354 0.028218493604
v -0.0319991129961 -0.0043460004491 0.0281846371216
v -0.0319433714109 -0.0047383515435 0.0279317060562
v -0.0317843123055 -0.0043168270187 0.0278926618148
v -0.0317289448972 -0.0047065443749 0.0276458873312
v -0.0317088843337 -0.0043065826722 0.014
v -0.0317088843337 -0.0043065826722 0.0275845386807
v -0.0316536483189 -0.0046953751826 0.014
v -0.0316536483189 -0.0046953751826 0.0273433048433
f 10 4 3
f 10 3 13
f 7 1 2
f 7 11 1
f 12 11 7
f 6 2 4
f 6 4 10
f 14 10 13
f 9 7 10
f 9 12 7
f 9 14 12
f 9 10 14
f 5 7 2
f 5 2 6
f 8 10 7
f 8 6 10
f 8 7 5
f 8 5 6
f 4 2 1
f 4 1 3
f 11 3 1
f 11 13 3
f 14 13 11
f 14 11 12
