# Parametric PetalDock simulation geometry; SI units
v 0.0320054693047 0.0371032334788 0.014
v 0.0320054693047 0.0371032334788 0.0166111111111
v 0.0322554277302 0.0373930047592 0.016811771776
v 0.0324583731019 0.0367076833316 0.014
v 0.0324583731019 0.0367076833316 0.0166111111111
v 0.0324673322513 0.037638660989 0.0169121147719
v 0.0326089223255 0.0378028032339 0.0168945233466
v 0.0326586421477 0.0378604423253 0.014
v 0.0326586421477 0.0378604423253 0.0168333333333
v 0.0327118686453 0.0369943654184 0.016811771776
v 0.0329267717902 0.0372374027563 0.0169121147719
v 0.0330703654808 0.0373997951136 0.0168945233466
v 0.0331207888795 0.0374568197262 0.014
v 0.0331207888795 0.0374568197262 0.0168333333333
f 6 8 1
f 2 6 1
f 7 8 6
f 7 9 8
f 3 6 2
f 14 9 7
f 12 5 14
f 12 14 7
f 12 7 6
f 12 6 11
f 10 5 12
f 10 12 11
f 10 2 5
f 10 3 2
f 4 8 13
f 4 1 8
f 2 1 4
f 2 4 5
f 14 4 13
f 14 5 4
f 14 13 8
f 14 8 9
f 10 11 6
f 10 6 3
