# Parametric PetalDock simulation geometry; SI units
v 0.0118821502065 -0.0297121945751 0.014
v 0.0118821502065 -0.0297121945751 0.0227421652422
v 0.0119104150448 -0.0297828728921 0.0229390689969
v 0.0119909064946 -0.0299841477097 0.0231074610239
v 0.0121113704621 -0.0302853767618 0.0232247674581
v 0.0122458698357 -0.0295641450404 0.014
v 0.0122458698357 -0.0295641450404 0.0225
v 0.0122534674004 -0.0306407006556 0.014
v 0.0122534674004 -0.0306407006556 0.0232730294397
v 0.0122749998775 -0.0296344711823 0.0226913417162
v 0.012357955218 -0.0298347430904 0.0228535533906
v 0.0124821066586 -0.0301344711823 0.0229619397663
v 0.012628553268 -0.0304880245729 0.014
v 0.012628553268 -0.0304880245729 0.023
f 3 7 2
f 3 2 1
f 3 1 8
f 5 4 3
f 5 8 9
f 5 3 8
f 11 13 6
f 11 14 13
f 11 4 5
f 10 6 7
f 10 11 6
f 10 7 3
f 10 3 4
f 10 4 11
f 12 14 11
f 12 11 5
f 12 9 14
f 12 5 9
f 6 13 8
f 6 8 1
f 2 6 1
f 2 7 6
f 14 8 13
f 14 9 8
