# Parametric PetalDock simulation geometry; SI units
v -0.040160376574 -0.0297849652246 0.014
v -0.040160376574 -0.0297849652246 0.0176566951567
v -0.0400992360412 -0.0297396203151 0.0177367961011
v -0.0399251225348 -0.0296104889379 0.017775400725
v -0.0397918452304 -0.0302755520702 0.014
v -0.0397918452304 -0.0302755520702 0.0174154613193
v -0.0397312657532 -0.0302294602867 0.0174900216176
v -0.0396645432576 -0.0294172301746 0.0177053859285
v -0.0395587499978 -0.0300982019923 0.0175224696596
v -0.0393571690426 -0.0291892659201 0.014
v -0.0393571690426 -0.0291892659201 0.0175394112061
v -0.0393005619241 -0.0299017600725 0.0174435691123
v -0.0389960083258 -0.0296700410288 0.014
v -0.0389960083258 -0.0296700410288 0.0172674318796
f 11 2 4
f 11 12 14
f 7 6 5
f 7 5 13
f 7 9 4
f 7 12 9
f 7 13 14
f 7 14 12
f 8 11 4
f 8 12 11
f 8 4 9
f 8 9 12
f 3 2 6
f 3 6 7
f 3 4 2
f 3 7 4
f 10 13 5
f 10 5 1
f 6 1 5
f 6 2 1
f 11 13 10
f 11 14 13
f 11 10 1
f 11 1 2
