# Parametric PetalDock simulation geometry; SI units
v -0.0219308119269 -0.0449337232847 0.014
v -0.0219308119269 -0.0449337232847 0.0212891737892
v -0.0218974242538 -0.0448653157642 0.0214527053124
v -0.021802344205 -0.0446705076278 0.0215840152242
v -0.021660046856 -0.0443789566481 0.0216478013068
v -0.0214921956884 -0.044035048819 0.014
v -0.0214921956884 -0.044035048819 0.0216348528015
v -0.0213777546715 -0.0451994646562 0.014
v -0.0213777546715 -0.0451994646562 0.0215313390313
v -0.0213452089779 -0.0451306525686 0.0217004325932
v -0.021252526684 -0.0449346923223 0.0218379228575
v -0.0211138178288 -0.0446414170886 0.0219106289987
v -0.0209501995781 -0.044295475363 0.014
v -0.0209501995781 -0.044295475363 0.0219078822412
f 3 6 1
f 3 7 6
f 4 7 3
f 11 12 4
f 11 4 3
f 2 3 1
f 5 4 12
f 5 7 4
f 5 14 7
f 5 12 14
f 10 11 3
f 10 2 9
f 10 3 2
f 10 12 11
f 10 14 12
f 10 8 13
f 10 13 14
f 10 9 8
f 6 13 8
f 6 8 1
f 14 13 6
f 14 6 7
f 2 1 8
f 2 8 9
