# Parametric PetalDock simulation geometry; SI units
v -0.0362123541476 0.0344770272369 0.014
v -0.0362123541476 0.0344770272369 0.0168333333333
v -0.036157224121 0.0344245390882 0.0168945233466
v -0.0360002270882 0.0342750654872 0.0169121147719
v -0.0357865412642 0.0349188124704 0.014
v -0.0357865412642 0.0349188124704 0.0168333333333
v -0.0357652644242 0.0340513624345 0.016811771776
v -0.0357320594992 0.0348656517439 0.0168945233466
v -0.035576908559 0.0347142628028 0.0169121147719
v -0.0354881070646 0.0337874866921 0.014
v -0.0354881070646 0.0337874866921 0.0166111111111
v -0.0353447087678 0.0344876932412 0.016811771776
v -0.0350708104389 0.034220436221 0.014
v -0.0350708104389 0.034220436221 0.0166111111111
f 7 1 10
f 7 12 4
f 7 14 12
f 3 2 1
f 3 1 7
f 3 7 4
f 11 7 10
f 11 14 7
f 8 13 5
f 8 5 6
f 8 14 13
f 8 3 4
f 8 6 2
f 8 2 3
f 9 12 14
f 9 14 8
f 9 4 12
f 9 8 4
f 10 5 13
f 10 1 5
f 6 5 1
f 6 1 2
f 11 10 13
f 11 13 14
