# Parametric PetalDock simulation geometry; SI units
v 0.0317593451072 -0.0039171416064 0.014
v 0.0317593451072 -0.0039171416064 0.0277941047556
v 0.0318050230401 -0.0035271106334 0.014
v 0.0318050230401 -0.0035271106334 0.0279571005917
v 0.0318348931133 -0.0039264595642 0.0281070411923
v 0.0318806797033 -0.0035355007994 0.0282737807082
v 0.0320500356327 -0.0039529948631 0.0284043648812
v 0.0320961316517 -0.0035593939705 0.0285752642497
v 0.0323720191669 -0.0039927077442 0.0287077574613
v 0.0324185782793 -0.0035951526281 0.0288846607154
v 0.0327518246418 -0.0040395522816 0.014
v 0.0327518246418 -0.0040395522816 0.028968843597
v 0.0327989300101 -0.0036373328407 0.014
v 0.0327989300101 -0.0036373328407 0.0291526134122
f 7 11 12
f 7 1 11
f 9 12 14
f 9 7 12
f 2 1 7
f 8 14 4
f 10 9 14
f 10 14 8
f 10 7 9
f 10 8 7
f 6 4 2
f 6 8 4
f 5 2 7
f 5 6 2
f 5 7 8
f 5 8 6
f 12 13 14
f 12 11 13
f 3 13 11
f 3 11 1
f 4 14 13
f 4 13 3
f 2 3 1
f 2 4 3
