# Parametric PetalDock simulation geometry; SI units
v 0.0019622635617 -0.0319397796128 0.014
v 0.0019622635617 -0.0319397796128 0.0281666666667
v 0.0019669313248 -0.0320157568302 0.0284881600858
v 0.0019802239895 -0.0322321216396 0.0287949920093
v 0.0020001178681 -0.0325559344604 0.0291121077565
v 0.002023584298 -0.0329378977257 0.014
v 0.002023584298 -0.0329378977257 0.0293888888889
v 0.0023540660352 -0.0319132946137 0.014
v 0.0023540660352 -0.0319132946137 0.0281666666667
v 0.0023596658042 -0.0319892088295 0.0284881600858
v 0.002375612597 -0.0322053942257 0.0287949920093
v 0.0023994786591 -0.0325289385354 0.0291121077565
v 0.0024276305988 -0.0329105850704 0.014
v 0.0024276305988 -0.0329105850704 0.0293888888889
f 3 2 1
f 5 6 7
f 5 1 6
f 5 3 1
f 5 4 3
f 10 13 8
f 10 8 9
f 10 14 13
f 10 9 2
f 10 2 3
f 10 3 4
f 10 4 11
f 12 14 10
f 12 10 11
f 12 7 14
f 12 5 7
f 12 4 5
f 12 11 4
f 8 13 6
f 8 6 1
f 2 8 1
f 2 9 8
f 14 6 13
f 14 7 6
