# Parametric PetalDock simulation geometry; SI units
v 0.0115166411691 0.0298557695627 0.014
v 0.0115166411691 0.0298557695627 0.0229843304843
v 0.0115440365475 0.0299267894107 0.0231867962777
v 0.0116220519848 0.0301290368267 0.0233613686572
v 0.0117388103378 0.0304317214749 0.02348759515
v 0.0118765362057 0.0307887623615 0.014
v 0.0118765362057 0.0307887623615 0.0235460588794
v 0.0118821502065 0.0297121945751 0.014
v 0.0118821502065 0.0297121945751 0.0227421652422
v 0.0119104150448 0.0297828728921 0.0229390689969
v 0.0119909064946 0.0299841477097 0.0231074610239
v 0.0121113704621 0.0302853767618 0.0232247674581
v 0.0122534674004 0.0306407006556 0.014
v 0.0122534674004 0.0306407006556 0.0232730294397
f 3 2 9
f 3 1 2
f 3 6 1
f 3 7 6
f 5 7 3
f 5 3 4
f 11 9 14
f 11 5 4
f 10 3 9
f 10 9 11
f 10 4 3
f 10 11 4
f 12 11 14
f 12 5 11
f 12 14 7
f 12 7 5
f 8 6 13
f 8 1 6
f 2 1 8
f 2 8 9
f 14 13 6
f 14 6 7
f 14 8 13
f 14 9 8
