# Parametric PetalDock simulation geometry; SI units
v 0.030384901779 -0.0100378156928 0.014
v 0.030384901779 -0.0100378156928 0.023952991453
v 0.030457180308 -0.0100616932935 0.0241777054007
v 0.0305057932913 -0.0096641903782 0.014
v 0.0305057932913 -0.0096641903782 0.0241951566952
v 0.0305783593928 -0.0096871792123 0.0244254326815
v 0.0306630121441 -0.0101296909474 0.0243769991903
v 0.030785010166 -0.0097526458728 0.0246309068235
v 0.0309710612563 -0.0102314566281 0.0245389059176
v 0.0310942849041 -0.0098506236543 0.0248017336095
v 0.0313344299596 -0.0103514974332 0.014
v 0.0313344299596 -0.0103514974332 0.0246381766382
v 0.0314590993317 -0.0099661963275 0.014
v 0.0314590993317 -0.0099661963275 0.0249112060779
f 7 2 12
f 9 12 14
f 9 7 12
f 8 14 5
f 10 9 14
f 10 14 8
f 10 7 9
f 10 8 7
f 6 5 2
f 6 8 5
f 3 2 7
f 3 6 2
f 3 7 8
f 3 8 6
f 12 13 14
f 12 11 13
f 4 13 11
f 4 11 1
f 2 11 12
f 2 1 11
f 5 14 13
f 5 13 4
f 5 4 1
f 5 1 2
