# Parametric PetalDock simulation geometry; SI units
v 0.0004663184549 0.0379971386699 0.014
v 0.0004663184549 0.0379971386699 0.032
v 0.0004693863394 0.0382471198453 0.032
v 0.000472454224 0.0384971010208 0.032
v 0.0004755221086 0.0387470821963 0.032
v 0.0004785899931 0.0389970633717 0.032
v 0.0004816578777 0.0392470445472 0.032
v 0.0004847257623 0.0394970257226 0.032
v 0.0004877936469 0.0397470068981 0.032
v 0.0004908615314 0.0399969880736 0.032
v 0.000493929416 0.040246969249 0.032
v 0.0004969973006 0.0404969504245 0.032
v 0.0005000651851 0.0407469315999 0.032
v 0.0005031330697 0.0409969127754 0.032
v 0.0005062009543 0.0412468939509 0.032
v 0.0005092688389 0.0414968751263 0.032
v 0.0005123367234 0.0417468563018 0.032
v 0.000515404608 0.0419968374772 0.032
v 0.0005184724926 0.0422468186527 0.032
v 0.0005215403771 0.0424967998282 0.032
v 0.0005246082617 0.0427467810036 0.032
v 0.0005276761463 0.0429967621791 0.032
v 0.0005307440309 0.0432467433545 0.032
v 0.0005338119154 0.04349672453 0.032
v 0.0005368798 0.0437467057055 0.032
v 0.0005399476846 0.0439966868809 0.014
v 0.0005399476846 0.0439966868809 0.032
v 0.0009325666839 0.0379885551105 0.014
v 0.0009325666839 0.0379885551105 0.032
v 0.000938701991 0.0382384798151 0.032
v 0.0009448372981 0.0384884045198 0.032
v 0.0009509726053 0.0387383292245 0.032
v 0.0009571079124 0.0389882539292 0.032
v 0.0009632432195 0.0392381786338 0.032
v 0.0009693785267 0.0394881033385 0.032
v 0.0009755138338 0.0397380280432 0.032
v 0.0009816491409 0.0399879527478 0.032
v 0.000987784448 0.0402378774525 0.032
v 0.0009939197552 0.0404878021572 0.032
v 0.0010000550623 0.0407377268619 0.032
v 0.0010061903694 0.0409876515665 0.032
v 0.0010123256766 0.0412375762712 0.032
v 0.0010184609837 0.0414875009759 0.032
v 0.0010245962908 0.0417374256806 0.032
v 0.001030731598 0.0419873503852 0.032
v 0.0010368669051 0.0422372750899 0.032
v 0.0010430022122 0.0424871997946 0.032
v 0.0010491375194 0.0427371244993 0.032
v 0.0010552728265 0.0429870492039 0.032
v 0.0010614081336 0.0432369739086 0.032
v 0.0010675434407 0.0434868986133 0.032
v 0.0010736787479 0.043736823318 0.032
v 0.001079814055 0.0439867480226 0.014
v 0.001079814055 0.0439867480226 0.032
f 6 26 1
f 48 28 53
f 3 1 2
f 3 6 1
f 20 26 6
f 52 53 54
f 52 48 53
f 24 26 20
f 35 29 28
f 35 28 48
f 25 27 26
f 25 26 24
f 28 1 26
f 28 26 53
f 54 26 27
f 54 53 26
f 29 1 28
f 29 2 1
f 25 54 27
f 25 52 54
f 25 3 2
f 25 2 29
f 25 6 3
f 25 20 6
f 25 48 52
f 25 35 48
f 25 24 20
f 25 29 35
