# Parametric PetalDock simulation geometry; SI units
v 0.0476740576581 -0.0113218473058 0.014
v 0.0476740576581 -0.0113218473058 0.026549382716
v 0.0478094043719 -0.0107359607677 0.014
v 0.0478094043719 -0.0107359607677 0.0268224121557
v 0.0480463856585 -0.0114102694157 0.0263786997608
v 0.048182789412 -0.0108198071823 0.0266415274527
v 0.048362030096 -0.011485230061 0.0261543526232
v 0.0484993299645 -0.0108908887404 0.0264082602565
v 0.0485729369663 -0.0115353171628 0.025911796366
v 0.0486469976103 -0.011552905414 0.014
v 0.0486469976103 -0.011552905414 0.0256481481481
v 0.0487108355997 -0.010938383919 0.0261595236467
v 0.0487851065019 -0.0109550620078 0.014
v 0.0487851065019 -0.0109550620078 0.0258903133903
f 7 1 10
f 7 2 1
f 5 4 2
f 5 2 7
f 12 11 14
f 6 4 5
f 6 8 12
f 6 7 8
f 6 5 7
f 6 12 14
f 6 13 3
f 6 14 13
f 6 3 4
f 9 11 12
f 9 10 11
f 9 7 10
f 9 8 7
f 9 12 8
f 3 13 10
f 3 10 1
f 2 3 1
f 2 4 3
f 11 10 13
f 11 13 14
