# Parametric PetalDock simulation geometry; SI units
v 0.0176549214563 0.0278801676532 0.014
v 0.0176549214563 0.0278801676532 0.0191775878443
v 0.0177886708612 0.0280913810446 0.0190944919278
v 0.0179224202662 0.0283025944359 0.0190113960114
v 0.0179957246179 0.0276614152833 0.014
v 0.0179957246179 0.0276614152833 0.0189045584046
v 0.0180561696712 0.0285138078272 0.018928300095
v 0.018132055865 0.0278709714597 0.0188155270655
v 0.0181899190762 0.0287250212185 0.0188452041785
v 0.0182683871121 0.0280805276361 0.0187264957265
v 0.0183236684811 0.0289362346098 0.0187621082621
v 0.0184047183592 0.0282900838125 0.0186374643875
v 0.0184574178861 0.0291474480011 0.0186790123457
v 0.0185410496063 0.0284996399889 0.0185484330484
v 0.0185911672911 0.0293586613924 0.0185959164292
v 0.0186773808535 0.0287091961653 0.0184594017094
v 0.018724916696 0.0295698747837 0.0185128205128
v 0.0188137121006 0.0289187523416 0.0183703703704
v 0.018858666101 0.0297810881751 0.0184297245964
v 0.0189500433477 0.029128308518 0.0182813390313
v 0.018992415506 0.0299923015664 0.01834662868
v 0.0190863745948 0.0293378646944 0.0181923076923
v 0.019126164911 0.0302035149577 0.0182635327635
v 0.0192227058419 0.0295474208708 0.0181032763533
v 0.0192599143159 0.030414728349 0.0181804368471
v 0.019359037089 0.0297569770472 0.0180142450142
v 0.0193936637209 0.0306259417403 0.0180973409307
v 0.0194953683361 0.0299665332236 0.0179252136752
v 0.0195274131259 0.0308371551316 0.0180142450142
v 0.0196316995832 0.0301760894 0.0178361823362
v 0.0196611625309 0.0310483685229 0.0179311490978
v 0.0197680308303 0.0303856455764 0.0177471509972
v 0.0197949119358 0.0312595819142 0.0178480531814
v 0.0199043620774 0.0305952017528 0.0176581196581
v 0.0199286613408 0.0314707953056 0.017764957265
v 0.0200406933245 0.0308047579291 0.0175690883191
v 0.0200624107458 0.0316820086969 0.0176846312124
v 0.0201770245716 0.0310143141055 0.0174800569801
v 0.0201961601507 0.0318932220882 0.0176326962646
v 0.0203133558187 0.0312238702819 0.017391025641
v 0.0203299095557 0.0321044354795 0.014
v 0.0203299095557 0.0321044354795 0.0176153846154
v 0.0204496870658 0.0314334264583 0.0173049620133
v 0.0205860183129 0.0316429826347 0.0172493174264
v 0.02072234956 0.0318525388111 0.014
v 0.02072234956 0.0318525388111 0.0172307692308
f 3 1 2
f 3 41 1
f 3 2 42
f 18 5 45
f 39 42 41
f 39 41 3
f 39 3 42
f 36 45 46
f 36 18 45
f 36 46 18
f 6 5 18
f 6 42 2
f 6 46 42
f 6 18 46
f 5 1 41
f 5 41 45
f 46 41 42
f 46 45 41
f 6 1 5
f 6 2 1
