# Parametric PetalDock simulation geometry; SI units
v 0.0489667968448 0.0018035539241 0.014
v 0.0489667968448 0.0018035539241 0.0293888888889
v 0.0489852421161 0.0012025201976 0.014
v 0.0489852421161 0.0012025201976 0.0293888888889
v 0.049349220965 0.0018176394385 0.0291121077565
v 0.0493678102914 0.0012119117192 0.0291121077565
v 0.0496734244796 0.0018295805611 0.0287949920093
v 0.04969213593 0.0012198734667 0.0287949920093
v 0.0498900503423 0.0018375593641 0.0284881600858
v 0.0499088433934 0.0012251933364 0.0284881600858
v 0.0499661192294 0.0018403611471 0.014
v 0.0499661192294 0.0018403611471 0.0281666666667
v 0.0499849409348 0.0012270614261 0.014
v 0.0499849409348 0.0012270614261 0.0281666666667
f 9 11 1
f 9 12 11
f 7 1 2
f 7 9 1
f 6 2 4
f 5 7 2
f 5 2 6
f 5 6 7
f 8 4 14
f 8 6 4
f 8 7 6
f 10 8 14
f 10 14 12
f 10 12 9
f 10 9 7
f 10 7 8
f 3 1 11
f 3 11 13
f 14 11 12
f 14 13 11
f 4 1 3
f 4 2 1
f 4 3 13
f 4 13 14
