# Parametric PetalDock simulation geometry; SI units
v -0.0103555688096 0.048915868536 0.014
v -0.0103555688096 0.048915868536 0.0261324786325
v -0.0103398033948 0.0488413985604 0.0264072509275
v -0.010294907292 0.0486293260123 0.0266621678898
v -0.0102277155257 0.0483119370146 0.0269043551446
v -0.0101484574334 0.0479375511653 0.014
v -0.0101484574334 0.0479375511653 0.0270954415954
v -0.0097545161008 0.0490392640202 0.014
v -0.0097545161008 0.0490392640202 0.0263746438746
v -0.0097396657343 0.0489646061861 0.0266549782082
v -0.0096973754684 0.0487519986624 0.026916075523
v -0.0096340836128 0.0484338090173 0.0271671828365
v -0.0095594257788 0.0480584787398 0.014
v -0.0095594257788 0.0480584787398 0.0273684710351
f 12 14 13
f 12 13 8
f 12 8 9
f 4 1 6
f 4 2 1
f 7 4 6
f 10 9 2
f 5 7 14
f 5 14 12
f 5 12 4
f 5 4 7
f 3 2 4
f 3 10 2
f 11 12 9
f 11 9 10
f 11 4 12
f 11 3 4
f 11 10 3
f 6 8 13
f 6 1 8
f 2 9 8
f 2 8 1
f 7 6 13
f 7 13 14
