# Parametric PetalDock simulation geometry; SI units
v -0.013001737322 -0.0303307571058 0.014
v -0.013001737322 -0.0303307571058 0.0227269705603
v -0.0128509630958 -0.0299790274623 0.0226991120744
v -0.0127231428788 -0.0296808454686 0.0225996457573
v -0.0126377361402 -0.0294816066301 0.0224436144354
v -0.012628553268 -0.0304880245729 0.014
v -0.012628553268 -0.0304880245729 0.023
v -0.012607745282 -0.0294116432541 0.014
v -0.012607745282 -0.0294116432541 0.0222578347578
v -0.0124821066586 -0.0301344711823 0.0229619397663
v -0.012357955218 -0.0298347430904 0.0228535533906
v -0.0122749998775 -0.0296344711823 0.0226913417162
v -0.0122458698357 -0.0295641450404 0.014
v -0.0122458698357 -0.0295641450404 0.0225
f 4 8 1
f 4 1 2
f 4 9 8
f 3 2 7
f 3 4 2
f 10 6 13
f 10 7 6
f 10 13 14
f 10 3 7
f 10 4 3
f 12 14 9
f 12 10 14
f 5 9 4
f 5 12 9
f 11 4 10
f 11 10 12
f 11 5 4
f 11 12 5
f 8 13 6
f 8 6 1
f 2 1 6
f 2 6 7
f 14 13 8
f 14 8 9
