# Parametric PetalDock simulation geometry; SI units
v -0.0087802081147 0.0369717181838 0.014
v -0.0087802081147 0.0369717181838 0.028
v -0.0087224435876 0.0367284831958 0.0279839248971
v -0.0086646790605 0.0364852482077 0.0279356995885
v -0.0086069145335 0.0362420132197 0.0278611111111
v -0.0085491500064 0.0359987782316 0.0277839506173
v -0.0084913854793 0.0357555432436 0.0277067901235
v -0.0084336209522 0.0355123082555 0.0276296296296
v -0.0083758564252 0.0352690732675 0.0275524691358
v -0.008325847126 0.0370766809415 0.014
v -0.008325847126 0.0370766809415 0.0283846153846
v -0.0083180918981 0.0350258382794 0.027475308642
v -0.0082710718159 0.036832755409 0.0283673037354
v -0.008260327371 0.0347826032913 0.0273981481481
v -0.0082162965059 0.0365888298764 0.0283153687876
v -0.008202562844 0.0345393683033 0.0273209876543
v -0.0081615211958 0.0363449043439 0.028235042735
v -0.0081447983169 0.0342961333152 0.0272438271605
v -0.0081067458858 0.0361009788114 0.0281519468186
v -0.0080870337898 0.0340528983272 0.0271666666667
v -0.0080519705758 0.0358570532789 0.0280688509022
v -0.0080292692628 0.0338096633391 0.0270895061728
v -0.0079971952657 0.0356131277464 0.0279857549858
v -0.0079715047357 0.0335664283511 0.027012345679
v -0.0079424199557 0.0353692022139 0.0279026590693
v -0.0079137402086 0.033323193363 0.0269351851852
v -0.0078876446456 0.0351252766814 0.0278195631529
v -0.0078559756815 0.033079958375 0.0268580246914
v -0.0078328693356 0.0348813511489 0.0277364672365
v -0.0077982111545 0.0328367233869 0.0267808641975
v -0.0077780940256 0.0346374256164 0.02765337132
v -0.0077404466274 0.0325934883989 0.0267037037037
v -0.0077233187155 0.0343935000839 0.0275702754036
v -0.0076826821003 0.0323502534108 0.0266265432099
v -0.0076685434055 0.0341495745513 0.0274871794872
v -0.0076249175733 0.0321070184228 0.014
v -0.0076249175733 0.0321070184228 0.026549382716
v -0.0076137680955 0.0339056490188 0.0274040835708
v -0.0075589927854 0.0336617234863 0.0273209876543
v -0.0075042174754 0.0334177979538 0.0272378917379
v -0.0074494421653 0.0331738724213 0.0271547958215
v -0.0073946668553 0.0329299468888 0.027071699905
v -0.0073398915453 0.0326860213563 0.0269886039886
v -0.0072851162352 0.0324420958238 0.0269055080722
v -0.0072303409252 0.0321981702913 0.014
v -0.0072303409252 0.0321981702913 0.0268224121557
f 5 4 3
f 5 3 2
f 5 15 4
f 17 15 37
f 13 3 4
f 13 4 15
f 13 11 2
f 13 2 3
f 13 15 17
f 13 10 11
f 22 5 2
f 22 1 36
f 22 2 1
f 22 36 37
f 34 37 15
f 6 15 5
f 6 5 22
f 44 37 46
f 44 38 37
f 44 46 45
f 21 17 37
f 21 37 38
f 30 22 37
f 30 37 34
f 18 6 22
f 18 34 15
f 18 15 6
f 41 38 44
f 41 44 45
f 27 41 45
f 27 10 13
f 27 13 17
f 27 45 10
f 23 38 41
f 23 21 38
f 23 41 27
f 23 17 21
f 23 27 17
f 36 10 45
f 36 1 10
f 2 10 1
f 2 11 10
f 46 36 45
f 46 37 36
f 18 30 34
f 18 22 30
