# Parametric PetalDock simulation geometry; SI units
v 0.0132399098495 0.0356188824527 0.014
v 0.0132399098495 0.0356188824527 0.0241538461538
v 0.0133270145195 0.0358532172057 0.0241538461538
v 0.0134141191896 0.0360875519586 0.0241538461538
v 0.0135012238597 0.0363218867116 0.0241538461538
v 0.0135883285297 0.0365562214646 0.0241538461538
v 0.0136754331998 0.0367905562176 0.0241538461538
v 0.0136760113883 0.0354537263557 0.014
v 0.0136760113883 0.0354537263557 0.0237692307692
v 0.0137625378699 0.0370248909705 0.0241538461538
v 0.0137659851475 0.0356869745554 0.0237692307692
v 0.0138496425399 0.0372592257235 0.0241538461538
v 0.0138559589066 0.0359202227551 0.0237692307692
v 0.01393674721 0.0374935604765 0.0241538461538
v 0.0139459326657 0.0361534709548 0.0237692307692
v 0.01402385188 0.0377278952295 0.0241538461538
v 0.0140359064249 0.0363867191546 0.0237692307692
v 0.0141109565501 0.0379622299825 0.0241538461538
v 0.014125880184 0.0366199673543 0.0237692307692
v 0.0141980612202 0.0381965647354 0.0241538461538
v 0.0142158539431 0.036853215554 0.0237692307692
v 0.0142851658902 0.0384308994884 0.0241538461538
v 0.0143058277023 0.0370864637537 0.0237692307692
v 0.0143722705603 0.0386652342414 0.0241538461538
v 0.0143958014614 0.0373197119534 0.0237692307692
v 0.0144593752304 0.0388995689944 0.0241538461538
v 0.0144857752205 0.0375529601531 0.0237692307692
v 0.0145464799004 0.0391339037474 0.0241538461538
v 0.0145757489797 0.0377862083528 0.0237692307692
v 0.0146335845705 0.0393682385003 0.0241538461538
v 0.0146657227388 0.0380194565525 0.0237692307692
v 0.0147206892405 0.0396025732533 0.0241538461538
v 0.0147556964979 0.0382527047522 0.0237692307692
v 0.0148077939106 0.0398369080063 0.0241538461538
v 0.0148456702571 0.0384859529519 0.0237692307692
v 0.0148948985807 0.0400712427593 0.0241538461538
v 0.0149356440162 0.0387192011516 0.0237692307692
v 0.0149820032507 0.0403055775122 0.0241538461538
v 0.0150256177753 0.0389524493514 0.0237692307692
v 0.0150691079208 0.0405399122652 0.0241538461538
v 0.0151155915345 0.0391856975511 0.0237692307692
v 0.0151562125909 0.0407742470182 0.0241538461538
v 0.0152055652936 0.0394189457508 0.0237692307692
v 0.0152433172609 0.0410085817712 0.0241538461538
v 0.0152955390527 0.0396521939505 0.0237692307692
v 0.015330421931 0.0412429165242 0.014
v 0.015330421931 0.0412429165242 0.0241538461538
v 0.0153855128119 0.0398854421502 0.0237692307692
v 0.015475486571 0.0401186903499 0.0237692307692
v 0.0155654603301 0.0403519385496 0.0237692307692
v 0.0156554340893 0.0405851867493 0.0237692307692
v 0.0157454078484 0.040818434949 0.0237692307692
v 0.0158353816075 0.0410516831487 0.014
v 0.0158353816075 0.0410516831487 0.0237692307692
f 3 1 2
f 3 46 1
f 10 2 54
f 44 47 46
f 42 54 47
f 42 10 54
f 51 53 54
f 51 54 2
f 9 11 2
f 9 8 11
f 32 46 3
f 32 44 46
f 35 53 51
f 35 2 11
f 35 51 2
f 8 1 46
f 8 46 53
f 54 46 47
f 54 53 46
f 9 1 8
f 9 2 1
f 32 2 10
f 32 3 2
f 32 47 44
f 32 42 47
f 32 10 42
f 35 8 53
f 35 11 8
