# Parametric PetalDock simulation geometry; SI units
v 0.0327989300101 -0.0036373328407 0.014
v 0.0327989300101 -0.0036373328407 0.0291526134122
v 0.0328410959802 -0.0032345656309 0.014
v 0.0328410959802 -0.0032345656309 0.0292838775659
v 0.0330474067526 -0.0036648883925 0.0292863658777
v 0.0330898921619 -0.003259069916 0.0294204836
v 0.0332958834951 -0.0036924439443 0.0294201183432
v 0.0333386883435 -0.003283574201 0.029557089634
v 0.0335443602376 -0.0037199994962 0.0295538708087
v 0.0335874845252 -0.0033080784861 0.0296936956681
v 0.0337928369801 -0.003747555048 0.0296876232742
v 0.0338362807069 -0.0033325827712 0.0298303017021
v 0.0340413137226 -0.0037751105998 0.0298213757396
v 0.0340850768885 -0.0033570870563 0.0299669077361
v 0.0342897904651 -0.0038026661516 0.0299551282051
v 0.0343338730702 -0.0033815913414 0.0301035137702
v 0.0345382672076 -0.0038302217035 0.0300888806706
v 0.0345826692519 -0.0034060956265 0.0302401198042
v 0.0347867439501 -0.0038577772553 0.0302226331361
v 0.0348314654335 -0.0034305999115 0.0303767258383
v 0.0350352206926 -0.0038853328071 0.0303563856016
v 0.0350802616152 -0.0034551041966 0.0305133318723
v 0.0352836974351 -0.0039128883589 0.0304901380671
v 0.0353290577969 -0.0034796084817 0.0306499379063
v 0.0355321741776 -0.0039404439108 0.0306238905325
v 0.0355778539785 -0.0035041127668 0.0307865439404
v 0.0357806509201 -0.0039679994626 0.030757642998
v 0.0358266501602 -0.0035286170519 0.0309231499744
v 0.0360291276626 -0.0039955550144 0.0308913954635
v 0.0360754463419 -0.0035531213369 0.0310597560085
v 0.0362776044051 -0.0040231105662 0.031025147929
v 0.0363242425235 -0.003577625622 0.0311963620425
v 0.0365260811476 -0.0040506661181 0.0311589003945
v 0.0365730387052 -0.0036021299071 0.0313329680766
v 0.0367745578901 -0.0040782216699 0.03129265286
v 0.0368218348869 -0.0036266341922 0.0314695741106
v 0.0370230346326 -0.0041057772217 0.0314264053254
v 0.0370706310685 -0.0036511384773 0.0316061801446
v 0.0372715113751 -0.0041333327735 0.0315556993754
v 0.0373194272502 -0.0036756427624 0.0317382326442
v 0.0375199881176 -0.0041608883253 0.0316392946663
v 0.0375682234319 -0.0037001470474 0.0318236114155
v 0.0377684648601 -0.0041884438772 0.014
v 0.0377684648601 -0.0041884438772 0.0316671597633
v 0.0378170196135 -0.0037246513325 0.014
v 0.0378170196135 -0.0037246513325 0.0318520710059
f 9 1 43
f 8 45 3
f 33 43 44
f 33 9 43
f 30 45 8
f 4 8 3
f 42 46 45
f 42 45 30
f 42 44 46
f 20 30 8
f 2 1 9
f 39 42 40
f 36 42 30
f 6 4 2
f 37 39 40
f 37 44 39
f 41 44 42
f 41 39 44
f 41 42 39
f 34 30 20
f 34 36 30
f 34 20 2
f 10 20 8
f 10 2 20
f 10 6 2
f 38 34 2
f 38 36 34
f 38 2 9
f 38 9 11
f 38 11 35
f 38 35 37
f 38 37 40
f 44 45 46
f 44 43 45
f 3 45 43
f 3 43 1
f 2 3 1
f 2 4 3
f 10 4 6
f 10 8 4
f 35 44 37
f 35 33 44
f 35 9 33
f 35 11 9
f 38 42 36
f 38 40 42
