# Parametric PetalDock simulation geometry; SI units
v 0.0224598329272 0.0241775909652 0.014
v 0.0224598329272 0.0241775909652 0.0166111111111
v 0.0226299831767 0.0243607545331 0.0164722222222
v 0.0227548379763 0.0239001537374 0.014
v 0.0227548379763 0.0239001537374 0.0166111111111
v 0.0228001334261 0.024543918101 0.0163333333333
v 0.0229272231125 0.0240812155081 0.0164722222222
v 0.0229702836756 0.0247270816689 0.0161944444444
v 0.0230996082487 0.0242622772789 0.0163333333333
v 0.023140433925 0.0249102452369 0.0160555555556
v 0.0232719933849 0.0244433390496 0.0161944444444
v 0.0233105841745 0.0250934088048 0.0159166666667
v 0.0234443785211 0.0246244008203 0.0160555555556
v 0.0234807344239 0.0252765723727 0.0157777777778
v 0.0236167636572 0.0248054625911 0.0159166666667
v 0.0236508846734 0.0254597359406 0.0156388888889
v 0.0237891487934 0.0249865243618 0.0157777777778
v 0.0238210349228 0.0256428995085 0.0155
v 0.0239615339296 0.0251675861326 0.0156388888889
v 0.0239911851723 0.0258260630765 0.0153611111111
v 0.0241339190658 0.0253486479033 0.0155
v 0.0241613354217 0.0260092266444 0.0152222222222
v 0.024306304202 0.025529709674 0.0153611111111
v 0.0243314856712 0.0261923902123 0.0150833333333
v 0.0244786893382 0.0257107714448 0.0152222222222
v 0.0245016359206 0.0263755537802 0.0149444444444
v 0.0246510744744 0.0258918332155 0.0150833333333
v 0.0246717861701 0.0265587173481 0.0148055555556
v 0.0248234596105 0.0260728949863 0.0149444444444
v 0.0248419364195 0.026741880916 0.0146666666667
v 0.0249958447467 0.026253956757 0.0148055555556
v 0.025012086669 0.026925044484 0.0145277777778
v 0.0251682298829 0.0264350185277 0.0146666666667
v 0.0251822369184 0.0271082080519 0.0143888888889
v 0.0253406150191 0.0266160802985 0.0145277777778
v 0.0253523871679 0.0272913716198 0.01425
v 0.0255130001553 0.0267971420692 0.0143888888889
v 0.0255225374173 0.0274745351877 0.0141157407407
v 0.0256853852915 0.0269782038399 0.01425
v 0.0256926876668 0.0276576987556 0.0140289351852
v 0.0258577704276 0.0271592656107 0.0141157407407
v 0.0258628379162 0.0278408623236 0.014
v 0.0260301555638 0.0273403273814 0.0140289351852
v 0.0262025407 0.0275213891522 0.014
f 10 42 1
f 10 1 2
f 10 2 42
f 5 44 42
f 5 42 2
f 43 4 44
f 43 44 39
f 43 39 4
f 13 4 39
f 13 39 44
f 7 5 4
f 7 4 13
f 7 44 5
f 7 13 44
f 4 42 44
f 4 1 42
f 5 1 4
f 5 2 1
