# Parametric PetalDock simulation geometry; SI units
v -0.0142239491855 0.0468900764509 0.014
v -0.0142239491855 0.0468900764509 0.0251842355176
v -0.0141513780162 0.0466508413669 0.0252317188984
v -0.0140788068468 0.046411606283 0.0252792022792
v -0.0140062356775 0.0461723711991 0.02532668566
v -0.0139336645082 0.0459331361151 0.0253741690408
v -0.0138610933389 0.0456939010312 0.0254216524217
v -0.0137885221696 0.0454546659473 0.0254691358025
v -0.0137159510003 0.0452154308633 0.0255166191833
v -0.0136474647799 0.0470610954514 0.014
v -0.0136474647799 0.0470610954514 0.0254572649573
v -0.013643379831 0.0449761957794 0.0255641025641
v -0.0135778348575 0.0468209878215 0.0255106837607
v -0.0135708086616 0.0447369606955 0.0256115859449
v -0.0135082049352 0.0465808801917 0.0255641025641
v -0.0134982374923 0.0444977256115 0.0256590693257
v -0.0134385750128 0.0463407725618 0.0256175213675
v -0.013425666323 0.0442584905276 0.0257065527066
v -0.0133689450905 0.0461006649319 0.0256709401709
v -0.0133530951537 0.0440192554437 0.0257540360874
v -0.0132993151681 0.0458605573021 0.0257243589744
v -0.0132805239844 0.0437800203597 0.0258015194682
v -0.0132296852458 0.0456204496722 0.0257777777778
v -0.0132079528151 0.0435407852758 0.025849002849
v -0.0131600553234 0.0453803420424 0.0258311965812
v -0.0131353816458 0.0433015501919 0.0258964862298
v -0.0130904254011 0.0451402344125 0.0258846153846
v -0.0130628104765 0.0430623151079 0.0259439696106
v -0.0130207954788 0.0449001267827 0.025938034188
v -0.0129902393071 0.042823080024 0.0259914529915
v -0.0129511655564 0.0446600191528 0.0259914529915
v -0.0129176681378 0.0425838449401 0.0260373535929
v -0.0128815356341 0.044419911523 0.0260448717949
v -0.0128450969685 0.0423446098562 0.0260670307059
v -0.0128119057117 0.0441798038931 0.0260982905983
v -0.0127725257992 0.0421053747722 0.014
v -0.0127725257992 0.0421053747722 0.0260769230769
v -0.0127422757894 0.0439396962633 0.0261517094017
v -0.012672645867 0.0436995886334 0.0262051282051
v -0.0126030159447 0.0434594810036 0.0262585470085
v -0.0125333860223 0.0432193733737 0.026311965812
v -0.0124637561 0.0429792657438 0.0263653846154
v -0.0123941261776 0.042739158114 0.026417022792
v -0.0123244962553 0.0424990504841 0.0264504095442
v -0.0122548663329 0.0422589428543 0.014
v -0.0122548663329 0.0422589428543 0.0264615384615
f 25 46 45
f 25 45 10
f 28 1 36
f 13 10 11
f 3 2 1
f 3 1 28
f 37 28 36
f 21 13 11
f 33 11 2
f 33 2 42
f 43 46 25
f 43 42 2
f 41 25 21
f 41 43 25
f 41 42 43
f 41 33 42
f 34 37 46
f 34 28 37
f 31 11 33
f 31 21 11
f 31 33 41
f 31 41 21
f 44 46 43
f 44 34 46
f 32 28 34
f 32 44 43
f 32 34 44
f 22 3 28
f 7 2 3
f 7 43 2
f 30 28 32
f 30 32 43
f 30 22 28
f 36 10 45
f 36 1 10
f 2 11 10
f 2 10 1
f 37 36 45
f 37 45 46
f 21 10 13
f 21 25 10
f 30 7 3
f 30 3 22
f 30 43 7
