# Parametric PetalDock simulation geometry; SI units
v 0.0077840490234 0.0483777694897 0.014
v 0.0077840490234 0.0483777694897 0.0281875593542
v 0.0078448414029 0.0487555933852 0.0279556659122
v 0.0078963786938 0.0490758970176 0.0276777984229
v 0.0079308148106 0.0492899170624 0.0273981600505
v 0.0079429071667 0.0493650709079 0.014
v 0.0079429071667 0.0493650709079 0.0271011396011
v 0.0083771325493 0.0482786044771 0.014
v 0.0083771325493 0.0482786044771 0.0279145299145
v 0.0084425568316 0.0486556539071 0.0276928382203
v 0.0084980208601 0.0489753009793 0.0274238907896
v 0.0085350807391 0.0491888823247 0.0271504327697
v 0.008548094438 0.0492638821194 0.014
v 0.008548094438 0.0492638821194 0.026858974359
f 3 1 2
f 3 6 1
f 3 7 6
f 5 14 7
f 5 7 3
f 10 2 9
f 10 3 2
f 4 5 3
f 11 10 9
f 11 3 10
f 11 4 3
f 12 9 14
f 12 11 9
f 12 14 5
f 12 5 4
f 12 4 11
f 8 1 6
f 8 6 13
f 14 6 7
f 14 13 6
f 9 1 8
f 9 2 1
f 9 8 13
f 9 13 14
