# Parametric PetalDock simulation geometry; SI units
v -0.0191344585816 0.0328309685326 0.014
v -0.0191344585816 0.0328309685326 0.0187692307692
v -0.0190085739856 0.0326149753186 0.0187828327794
v -0.0188826893897 0.0323989821046 0.0188236388097
v -0.0187568047938 0.0321829888905 0.0188867521368
v -0.0187301313047 0.0330633056621 0.014
v -0.0187301313047 0.0330633056621 0.0191538461538
v -0.0186309201979 0.0319669956765 0.0189520417854
v -0.0186069067567 0.0328457839144 0.0191662116176
v -0.0185050356019 0.0317510024625 0.019017331434
v -0.0184836822086 0.0326282621666 0.0192033080089
v -0.018379151006 0.0315350092484 0.0190826210826
v -0.0183604576606 0.0324107404188 0.0192606837607
v -0.0182532664101 0.0313190160344 0.0191479107312
v -0.0182372331125 0.032193218671 0.0193200379867
v -0.0181273818141 0.0311030228204 0.0192132003799
v -0.0181140085644 0.0319756969232 0.0193793922127
v -0.0180014972182 0.0308870296063 0.0192784900285
v -0.0179907840164 0.0317581751755 0.0194387464387
v -0.0178756126223 0.0306710363923 0.0193437796771
v -0.0178675594683 0.0315406534277 0.0194981006648
v -0.0177497280263 0.0304550431783 0.0194090693257
v -0.0177443349203 0.0313231316799 0.0195574548908
v -0.0176238434304 0.0302390499643 0.0194743589744
v -0.0176211103722 0.0311056099321 0.0196168091168
v -0.0174979588345 0.0300230567502 0.019539648623
v -0.0174978858242 0.0308880881844 0.0196761633428
v -0.0173746612761 0.0306705664366 0.0197355175689
v -0.0173720742385 0.0298070635362 0.0196049382716
v -0.017251436728 0.0304530446888 0.0197948717949
v -0.0172461896426 0.0295910703222 0.0196702279202
v -0.01712821218 0.030235522941 0.0198542260209
v -0.0171203050467 0.0293750771081 0.0197355175689
v -0.0170049876319 0.0300180011933 0.0199135802469
v -0.0169944204507 0.0291590838941 0.0198008072175
v -0.0168817630839 0.0298004794455 0.0199729344729
v -0.0168685358548 0.0289430906801 0.0198660968661
v -0.0167585385358 0.0295829576977 0.020032288699
v -0.0167426512589 0.028727097466 0.0199313865147
v -0.0166353139878 0.0293654359499 0.020091642925
v -0.0166167666629 0.028511104252 0.014
v -0.0166167666629 0.028511104252 0.0199966761633
v -0.0165120894397 0.0291479142021 0.020150997151
v -0.0163888648916 0.0289303924544 0.020210351377
v -0.0162656403436 0.0287128707066 0.014
v -0.0162656403436 0.0287128707066 0.020269705603
f 44 46 45
f 44 45 6
f 44 7 46
f 39 1 41
f 11 6 7
f 8 2 1
f 8 1 39
f 8 39 2
f 42 39 41
f 42 46 7
f 42 7 2
f 42 2 39
f 34 44 6
f 34 6 11
f 34 7 44
f 34 11 7
f 41 6 45
f 41 1 6
f 2 7 6
f 2 6 1
f 42 41 45
f 42 45 46
