# Parametric PetalDock simulation geometry; SI units
v -0.0281561427635 -0.0255192402842 0.014
v -0.0279709049821 -0.0253513505455 0.0140289351852
v -0.0278408623236 -0.0258628379162 0.014
v -0.0277856672008 -0.0251834608068 0.0141157407407
v -0.0276576987556 -0.0256926876668 0.0140289351852
v -0.0276004294195 -0.0250155710681 0.01425
v -0.0274745351877 -0.0255225374173 0.0141157407407
v -0.0274151916381 -0.0248476813293 0.0143888888889
v -0.0272913716198 -0.0253523871679 0.01425
v -0.0272299538568 -0.0246797915906 0.0145277777778
v -0.0271082080519 -0.0251822369184 0.0143888888889
v -0.0270447160755 -0.0245119018519 0.0146666666667
v -0.026925044484 -0.025012086669 0.0145277777778
v -0.0268594782941 -0.0243440121132 0.0148055555556
v -0.026741880916 -0.0248419364195 0.0146666666667
v -0.0266742405128 -0.0241761223745 0.0149444444444
v -0.0265587173481 -0.0246717861701 0.0148055555556
v -0.0264890027314 -0.0240082326358 0.0150833333333
v -0.0263755537802 -0.0245016359206 0.0149444444444
v -0.0263037649501 -0.0238403428971 0.0152222222222
v -0.0261923902123 -0.0243314856712 0.0150833333333
v -0.0261185271688 -0.0236724531584 0.0153611111111
v -0.0260092266444 -0.0241613354217 0.0152222222222
v -0.0259332893874 -0.0235045634196 0.0155
v -0.0258260630765 -0.0239911851723 0.0153611111111
v -0.0257480516061 -0.0233366736809 0.0156388888889
v -0.0256428995085 -0.0238210349228 0.0155
v -0.0255628138247 -0.0231687839422 0.0157777777778
v -0.0254597359406 -0.0236508846734 0.0156388888889
v -0.0253775760434 -0.0230008942035 0.0159166666667
v -0.0252765723727 -0.0234807344239 0.0157777777778
v -0.0251923382621 -0.0228330044648 0.0160555555556
v -0.0250934088048 -0.0233105841745 0.0159166666667
v -0.0250071004807 -0.0226651147261 0.0161944444444
v -0.0249102452369 -0.023140433925 0.0160555555556
v -0.0248218626994 -0.0224972249874 0.0163333333333
v -0.0247270816689 -0.0229702836756 0.0161944444444
v -0.0246366249181 -0.0223293352487 0.0164722222222
v -0.024543918101 -0.0228001334261 0.0163333333333
v -0.0244513871367 -0.02216144551 0.014
v -0.0244513871367 -0.02216144551 0.0166111111111
v -0.0243607545331 -0.0226299831767 0.0164722222222
v -0.0241775909652 -0.0224598329272 0.014
v -0.0241775909652 -0.0224598329272 0.0166111111111
f 41 1 3
f 44 41 3
f 5 3 43
f 37 5 43
f 37 3 5
f 12 40 1
f 12 1 26
f 12 26 40
f 38 41 40
f 38 40 26
f 38 1 41
f 38 26 1
f 42 43 44
f 42 37 43
f 42 44 3
f 42 3 37
f 40 43 3
f 40 3 1
f 40 44 43
f 40 41 44
