# Parametric PetalDock simulation geometry; SI units
v -0.006456140876 0.0435237664385 0.014
v -0.006456140876 0.0435237664385 0.0306923076923
v -0.0064194582574 0.043276472311 0.0306923076923
v -0.0063827756388 0.0430291781835 0.0306923076923
v -0.0063460930202 0.042781884056 0.0306923076923
v -0.0063094104016 0.0425345899285 0.0306923076923
v -0.006272727783 0.042287295801 0.0306923076923
v -0.0062360451644 0.0420400016735 0.0306923076923
v -0.0061993625457 0.041792707546 0.0306923076923
v -0.0061626799271 0.0415454134185 0.0306923076923
v -0.0061259973085 0.041298119291 0.0306923076923
v -0.0060893146899 0.0410508251635 0.0306923076923
v -0.0060526320713 0.040803531036 0.0306923076923
v -0.0060159494527 0.0405562369086 0.0306923076923
v -0.0059792668341 0.0403089427811 0.0306923076923
v -0.0059425842154 0.0400616486536 0.0306923076923
v -0.0059215511743 0.0435997159588 0.014
v -0.0059215511743 0.0435997159588 0.031075443787
v -0.0059059015968 0.0398143545261 0.0306923076923
v -0.0058879059972 0.0433519903 0.031075443787
v -0.0058692189782 0.0395670603986 0.0306923076923
v -0.0058542608201 0.0431042646411 0.031075443787
v -0.0058325363596 0.0393197662711 0.0306923076923
v -0.0058206156429 0.0428565389823 0.031075443787
v -0.005795853741 0.0390724721436 0.0306923076923
v -0.0057869704658 0.0426088133234 0.031075443787
v -0.0057591711224 0.0388251780161 0.0306923076923
v -0.0057533252887 0.0423610876645 0.031075443787
v -0.0057224885038 0.0385778838886 0.0306923076923
v -0.0057196801116 0.0421133620057 0.031075443787
v -0.0056860349344 0.0418656363468 0.031075443787
v -0.0056858058851 0.0383305897611 0.0306923076923
v -0.0056523897573 0.041617910688 0.031075443787
v -0.0056491232665 0.0380832956336 0.0306923076923
v -0.0056187445802 0.0413701850291 0.031075443787
v -0.0056124406479 0.0378360015062 0.0306923076923
v -0.005585099403 0.0411224593703 0.031075443787
v -0.0055757580293 0.0375887073787 0.014
v -0.0055757580293 0.0375887073787 0.0306923076923
v -0.0055514542259 0.0408747337114 0.031075443787
v -0.0055178090488 0.0406270080525 0.031075443787
v -0.0054841638717 0.0403792823937 0.031075443787
v -0.0054505186945 0.0401315567348 0.031075443787
v -0.0054168735174 0.039883831076 0.031075443787
v -0.0053832283403 0.0396361054171 0.031075443787
v -0.0053495831632 0.0393883797583 0.031075443787
v -0.005315937986 0.0391406540994 0.031075443787
v -0.0052822928089 0.0388929284405 0.031075443787
v -0.0052486476318 0.0386452027817 0.031075443787
v -0.0052150024547 0.0383974771228 0.031075443787
v -0.0051813572775 0.038149751464 0.031075443787
v -0.0051477121004 0.0379020258051 0.031075443787
v -0.0051140669233 0.0376543001463 0.014
v -0.0051140669233 0.0376543001463 0.031075443787
f 22 18 2
f 8 54 2
f 8 1 38
f 8 2 1
f 37 53 17
f 50 2 54
f 29 39 54
f 29 54 8
f 29 38 39
f 29 8 38
f 24 17 18
f 24 37 17
f 51 54 53
f 51 53 37
f 30 22 2
f 30 2 50
f 38 17 53
f 38 1 17
f 2 17 1
f 2 18 17
f 54 38 53
f 54 39 38
f 30 50 54
f 30 18 22
f 30 24 18
f 30 54 51
f 30 37 24
f 30 51 37
