# Parametric PetalDock simulation geometry; SI units
v -0.027778511651 -0.0415734806151 0.014
v -0.027778511651 -0.0415734806151 0.0186253561254
v -0.0277362213851 -0.0415101887595 0.0187277052241
v -0.0276157888972 -0.041329948804 0.0187910312581
v -0.0274355489417 -0.041060200648 0.018756696696
v -0.0272662494211 -0.0419112352777 0.014
v -0.0272662494211 -0.0419112352777 0.0188675213675
v -0.0272247390281 -0.0418474292213 0.0189754325049
v -0.027222941418 -0.0407420110028 0.014
v -0.027222941418 -0.0407420110028 0.0186315289649
v -0.0271065274299 -0.0416657249456 0.0190449388914
v -0.026929611271 -0.0413937852796 0.0190195243879
v -0.0267209244327 -0.0410730105722 0.014
v -0.0267209244327 -0.0410730105722 0.0189045584046
f 11 6 13
f 7 6 11
f 14 11 13
f 12 11 14
f 8 7 11
f 8 11 3
f 2 7 8
f 2 8 3
f 5 14 10
f 5 12 14
f 4 5 10
f 4 9 1
f 4 10 9
f 4 1 2
f 4 2 3
f 4 3 11
f 4 11 12
f 4 12 5
f 9 13 6
f 9 6 1
f 14 13 9
f 14 9 10
f 2 1 6
f 2 6 7
