# Parametric PetalDock simulation geometry; SI units
v 0.0290933754589 0.0133257459231 0.014
v 0.0290933754589 0.0133257459231 0.0217735042735
v 0.0291625817508 0.0133574447359 0.0219481598739
v 0.0292547121825 0.0129677220482 0.014
v 0.0292547121825 0.0129677220482 0.0220156695157
v 0.0293243022565 0.0129985692064 0.0221958871547
v 0.0293596645959 0.0134477153174 0.0220918304908
v 0.0295224780205 0.013086414481 0.022345738124
v 0.0296546199176 0.0135828147898 0.0221734566906
v 0.029819069011 0.0132178842252 0.0224362843825
v 0.030002543442 0.0137421754832 0.014
v 0.030002543442 0.0137421754832 0.0221809116809
v 0.0301689219382 0.0133729633622 0.014
v 0.0301689219382 0.0133729633622 0.0224539411206
f 7 12 11
f 7 11 1
f 6 13 14
f 6 4 13
f 9 14 12
f 9 12 7
f 5 4 6
f 10 9 7
f 10 7 8
f 10 14 9
f 10 6 14
f 10 8 6
f 2 7 1
f 2 5 6
f 3 7 2
f 3 2 6
f 3 8 7
f 3 6 8
f 12 14 13
f 12 13 11
f 4 11 13
f 4 1 11
f 2 1 4
f 2 4 5
