# Parametric PetalDock simulation geometry; SI units
v 0.0359000593119 -0.033349448892 0.014
v 0.0359000593119 -0.033349448892 0.0166111111111
v 0.0361804339634 -0.0336099036179 0.016811771776
v 0.0363066051424 -0.0329063887875 0.014
v 0.0363066051424 -0.0329063887875 0.0166111111111
v 0.0364181241157 -0.0338307064728 0.0169121147719
v 0.036576943598 -0.0339782422236 0.0168945233466
v 0.0365901548623 -0.0331633832734 0.016811771776
v 0.0366327135836 -0.0340300498898 0.014
v 0.0366327135836 -0.0340300498898 0.0168333333333
v 0.0368305367077 -0.0333812526784 0.0169121147719
v 0.0369911547217 -0.0335268283608 0.0168945233466
v 0.0370475562677 -0.0335779477424 0.014
v 0.0370475562677 -0.0335779477424 0.0168333333333
f 2 10 6
f 3 2 6
f 11 6 12
f 11 4 5
f 11 13 4
f 11 12 13
f 7 6 10
f 7 12 6
f 7 10 12
f 14 13 12
f 14 12 10
f 8 11 5
f 8 5 2
f 8 2 3
f 4 13 9
f 4 9 1
f 2 4 1
f 2 5 4
f 2 1 9
f 2 9 10
f 14 9 13
f 14 10 9
f 8 6 11
f 8 3 6
