# Parametric PetalDock simulation geometry; SI units
v 0.0183229006443 -0.040003391256 0.014
v 0.0183229006443 -0.040003391256 0.0218461538462
v 0.0184270080343 -0.0402306832518 0.0218498634853
v 0.0185311154243 -0.0404579752475 0.0218609924027
v 0.0186352228144 -0.0406852672433 0.0218782051282
v 0.0187393302044 -0.0409125592391 0.021896011396
v 0.0188124241109 -0.0397755288974 0.014
v 0.0188124241109 -0.0397755288974 0.0214615384615
v 0.0188434375944 -0.0411398512348 0.0219138176638
v 0.0189193128843 -0.0400015262207 0.021466484647
v 0.0189475449844 -0.0413671432306 0.0219316239316
v 0.0190262016576 -0.040227523544 0.0214813232035
v 0.0190516523745 -0.0415944352264 0.0219494301994
v 0.019133090431 -0.0404535208673 0.0215042735043
v 0.0191557597645 -0.0418217272222 0.0219672364672
v 0.0192399792044 -0.0406795181906 0.0215280151947
v 0.0192598671545 -0.0420490192179 0.021985042735
v 0.0193468679777 -0.0409055155138 0.0215517568851
v 0.0193639745445 -0.0422763112137 0.0220028490028
v 0.0194537567511 -0.0411315128371 0.0215754985755
v 0.0194680819346 -0.0425036032095 0.0220206552707
v 0.0195606455244 -0.0413575101604 0.0215992402659
v 0.0195721893246 -0.0427308952053 0.0220384615385
v 0.0196675342978 -0.0415835074837 0.0216229819563
v 0.0196762967146 -0.042958187201 0.0220562678063
v 0.0197744230712 -0.041809504807 0.0216467236467
v 0.0197804041046 -0.0431854791968 0.0220740740741
v 0.0198813118445 -0.0420355021302 0.0216704653371
v 0.0198845114947 -0.0434127711926 0.0220918803419
v 0.0199882006179 -0.0422614994535 0.0216942070275
v 0.0199886188847 -0.0436400631883 0.0221096866097
v 0.0200927262747 -0.0438673551841 0.0221274928775
v 0.0200950893912 -0.0424874967768 0.0217179487179
v 0.0201968336647 -0.0440946471799 0.0221452991453
v 0.0202019781646 -0.0427134941001 0.0217416904084
v 0.0203009410548 -0.0443219391757 0.0221631054131
v 0.0203088669379 -0.0429394914234 0.0217654320988
v 0.0204050484448 -0.0445492311714 0.014
v 0.0204050484448 -0.0445492311714 0.0221809116809
v 0.0204157557113 -0.0431654887466 0.0217891737892
v 0.0205226444847 -0.0433914860699 0.0218129154796
v 0.020629533258 -0.0436174833932 0.02183665717
v 0.0207364220314 -0.0438434807165 0.0218603988604
v 0.0208433108047 -0.0440694780398 0.0218841405508
v 0.0209501995781 -0.044295475363 0.014
v 0.0209501995781 -0.044295475363 0.0219078822412
f 46 2 39
f 46 8 2
f 34 1 38
f 34 38 39
f 34 39 2
f 10 45 7
f 10 7 8
f 3 2 1
f 3 1 34
f 3 34 2
f 41 8 46
f 41 10 8
f 41 46 45
f 7 45 38
f 7 38 1
f 2 7 1
f 2 8 7
f 46 38 45
f 46 39 38
f 41 45 10
