# Parametric PetalDock simulation geometry; SI units
v -0.0490392640202 -0.0097545161008 0.014
v -0.0490392640202 -0.0097545161008 0.0263746438746
v -0.0489646061861 -0.0097396657343 0.0266549782082
v -0.048915868536 -0.0103555688096 0.014
v -0.048915868536 -0.0103555688096 0.0261324786325
v -0.0488413985604 -0.0103398033948 0.0264072509275
v -0.0487519986624 -0.0096973754684 0.026916075523
v -0.0486293260123 -0.010294907292 0.0266621678898
v -0.0484338090173 -0.0096340836128 0.0271671828365
v -0.0483119370146 -0.0102277155257 0.0269043551446
v -0.0480584787398 -0.0095594257788 0.014
v -0.0480584787398 -0.0095594257788 0.0273684710351
v -0.0479375511653 -0.0101484574334 0.014
v -0.0479375511653 -0.0101484574334 0.0270954415954
f 8 4 13
f 8 13 14
f 10 14 12
f 10 8 14
f 5 4 8
f 9 10 12
f 9 12 11
f 9 7 8
f 9 8 10
f 9 11 1
f 9 1 2
f 9 2 7
f 6 8 7
f 6 5 8
f 3 2 5
f 3 5 6
f 3 7 2
f 3 6 7
f 11 13 4
f 11 4 1
f 14 13 11
f 14 11 12
f 5 1 4
f 5 2 1
