# Parametric PetalDock simulation geometry; SI units
v 0.0287128707066 0.0162656403436 0.014
v 0.0287128707066 0.0162656403436 0.020269705603
v 0.0289103131084 0.0159120644786 0.014
v 0.0289103131084 0.0159120644786 0.0205427350427
v 0.0289303924544 0.0163888648916 0.020210351377
v 0.029129330632 0.0160326104216 0.0204893162393
v 0.0291479142021 0.0165120894397 0.020150997151
v 0.0293483481555 0.0161531563647 0.0204358974359
v 0.0293654359499 0.0166353139878 0.020091642925
v 0.0295673656791 0.0162737023077 0.0203824786325
v 0.0295829576977 0.0167585385358 0.020032288699
v 0.0297863832026 0.0163942482507 0.0203290598291
v 0.0298004794455 0.0168817630839 0.0199729344729
v 0.0300054007262 0.0165147941937 0.0202756410256
v 0.0300180011933 0.0170049876319 0.0199135802469
v 0.0302244182497 0.0166353401367 0.0202222222222
v 0.030235522941 0.01712821218 0.0198542260209
v 0.0304434357733 0.0167558860797 0.0201688034188
v 0.0304530446888 0.017251436728 0.0197948717949
v 0.0306624532968 0.0168764320228 0.0201153846154
v 0.0306705664366 0.0173746612761 0.0197355175689
v 0.0308814708204 0.0169969779658 0.020061965812
v 0.0308880881844 0.0174978858242 0.0196761633428
v 0.0311004883439 0.0171175239088 0.0200085470085
v 0.0311056099321 0.0176211103722 0.0196168091168
v 0.0313195058675 0.0172380698518 0.0199551282051
v 0.0313231316799 0.0177443349203 0.0195574548908
v 0.031538523391 0.0173586157948 0.0199017094017
v 0.0315406534277 0.0178675594683 0.0194981006648
v 0.0317575409146 0.0174791617379 0.0198482905983
v 0.0317581751755 0.0179907840164 0.0194387464387
v 0.0319756969232 0.0181140085644 0.0193793922127
v 0.0319765584381 0.0175997076809 0.0197948717949
v 0.032193218671 0.0182372331125 0.0193200379867
v 0.0321955759617 0.0177202536239 0.0197414529915
v 0.0324107404188 0.0183604576606 0.0192606837607
v 0.0324145934852 0.0178407995669 0.019688034188
v 0.0326282621666 0.0184836822086 0.0192033080089
v 0.0326336110088 0.0179613455099 0.0196346153846
v 0.0328457839144 0.0186069067567 0.0191662116176
v 0.0328526285323 0.018081891453 0.019582977208
v 0.0330633056621 0.0187301313047 0.014
v 0.0330633056621 0.0187301313047 0.0191538461538
v 0.0330716460559 0.018202437396 0.0195495904558
v 0.0332906635794 0.018322983339 0.014
v 0.0332906635794 0.018322983339 0.0195384615385
f 2 4 46
f 39 3 45
f 39 45 46
f 36 42 1
f 6 4 3
f 6 46 4
f 9 1 2
f 9 36 1
f 43 42 36
f 43 36 9
f 43 2 46
f 43 9 2
f 18 3 39
f 18 6 3
f 18 39 46
f 18 46 6
f 3 42 45
f 3 1 42
f 2 1 3
f 2 3 4
f 43 45 42
f 43 46 45
