# Parametric PetalDock simulation geometry; SI units
v 0.010135084784 0.0366234905002 0.014
v 0.010135084784 0.0366234905002 0.0268461538462
v 0.0102017629734 0.0368644345167 0.0268461538462
v 0.0102684411628 0.0371053785331 0.0268461538462
v 0.0103351193522 0.0373463225496 0.0268461538462
v 0.0104017975415 0.037587266566 0.0268461538462
v 0.0104684757309 0.0378282105825 0.0268461538462
v 0.0105351539203 0.0380691545989 0.0268461538462
v 0.0105837481966 0.0364963597378 0.014
v 0.0105837481966 0.0364963597378 0.0264615384615
v 0.0106018321096 0.0383100986154 0.0268461538462
v 0.010653378119 0.0367364673676 0.0264615384615
v 0.010668510299 0.0385510426318 0.0268461538462
v 0.0107230080413 0.0369765749975 0.0264615384615
v 0.0107351884884 0.0387919866483 0.0268461538462
v 0.0107926379637 0.0372166826274 0.0264615384615
v 0.0108018666777 0.0390329306647 0.0268461538462
v 0.010862267886 0.0374567902572 0.0264615384615
v 0.0108685448671 0.0392738746812 0.0268461538462
v 0.0109318978084 0.0376968978871 0.0264615384615
v 0.0109352230565 0.0395148186976 0.0268461538462
v 0.0110015277307 0.0379370055169 0.0264615384615
v 0.0110019012458 0.0397557627141 0.0268461538462
v 0.0110685794352 0.0399967067305 0.0268461538462
v 0.0110711576531 0.0381771131468 0.0264615384615
v 0.0111352576246 0.040237650747 0.0268461538462
v 0.0111407875754 0.0384172207766 0.0264615384615
v 0.0112019358139 0.0404785947634 0.0268461538462
v 0.0112104174977 0.0386573284065 0.0264615384615
v 0.0112686140033 0.0407195387799 0.0268461538462
v 0.0112800474201 0.0388974360363 0.0264615384615
v 0.0113352921927 0.0409604827963 0.0268461538462
v 0.0113496773424 0.0391375436662 0.0264615384615
v 0.0114019703821 0.0412014268128 0.0268461538462
v 0.0114193072648 0.039377651296 0.0264615384615
v 0.0114686485714 0.0414423708292 0.0268461538462
v 0.0114889371871 0.0396177589259 0.0264615384615
v 0.0115353267608 0.0416833148457 0.0268461538462
v 0.0115585671095 0.0398578665557 0.0264615384615
v 0.0116020049502 0.0419242588621 0.0268461538462
v 0.0116281970318 0.0400979741856 0.0264615384615
v 0.0116686831395 0.0421652028786 0.0268461538462
v 0.0116978269542 0.0403380818155 0.0264615384615
v 0.0117353613289 0.042406146895 0.014
v 0.0117353613289 0.042406146895 0.0268461538462
v 0.0117674568765 0.0405781894453 0.0264615384615
v 0.0118370867989 0.0408182970752 0.0264615384615
v 0.0119067167212 0.041058404705 0.0264615384615
v 0.0119763466436 0.0412985123349 0.0264615384615
v 0.0120459765659 0.0415386199647 0.0264615384615
v 0.0121156064882 0.0417787275946 0.0264615384615
v 0.0121852364106 0.0420188352244 0.0264615384615
v 0.0122548663329 0.0422589428543 0.014
v 0.0122548663329 0.0422589428543 0.0264615384615
f 42 44 1
f 42 45 44
f 49 9 53
f 23 1 2
f 23 42 1
f 40 54 45
f 40 8 54
f 5 54 8
f 52 53 54
f 52 49 53
f 52 54 2
f 52 2 49
f 4 2 54
f 4 54 5
f 12 10 9
f 12 2 10
f 25 9 49
f 25 12 9
f 25 49 2
f 25 2 12
f 9 1 44
f 9 44 53
f 54 44 45
f 54 53 44
f 10 1 9
f 10 2 1
f 4 45 42
f 4 40 45
f 4 23 2
f 4 42 23
f 4 8 40
f 4 5 8
