# Parametric PetalDock simulation geometry; SI units
v 0.0204050484448 -0.0445492311714 0.014
v 0.0204050484448 -0.0445492311714 0.0221809116809
v 0.0205644091382 -0.0448971546958 0.0221734566906
v 0.0206995086106 -0.0451921100175 0.0220918304908
v 0.0207897791921 -0.0453891928626 0.0219481598739
v 0.0208214780049 -0.0454583991545 0.014
v 0.0208214780049 -0.0454583991545 0.0217735042735
v 0.0209501995781 -0.044295475363 0.014
v 0.0209501995781 -0.044295475363 0.0219078822412
v 0.0211138178288 -0.0446414170886 0.0219106289987
v 0.021252526684 -0.0449346923223 0.0218379228575
v 0.0213452089779 -0.0451306525686 0.0217004325932
v 0.0213777546715 -0.0451994646562 0.014
v 0.0213777546715 -0.0451994646562 0.0215313390313
f 4 2 1
f 4 1 6
f 4 6 7
f 11 13 8
f 11 14 13
f 5 7 14
f 5 4 7
f 9 11 8
f 3 2 4
f 3 4 11
f 12 14 11
f 12 5 14
f 12 11 4
f 12 4 5
f 10 9 2
f 10 2 3
f 10 11 9
f 10 3 11
f 8 6 1
f 8 13 6
f 14 7 6
f 14 6 13
f 9 8 1
f 9 1 2
