# Parametric PetalDock simulation geometry; SI units
v -0.0404410094744 0.0173356497627 0.014
v -0.0404410094744 0.0173356497627 0.0226153846154
v -0.040225229251 0.0178306178162 0.014
v -0.040225229251 0.0178306178162 0.0222307692308
v -0.0402112310114 0.0172371517527 0.0226153846154
v -0.039996676812 0.0177293074877 0.0222307692308
v -0.0399814525485 0.0171386537427 0.0226153846154
v -0.0397681243731 0.0176279971592 0.0222307692308
v -0.0397516740856 0.0170401557326 0.0226153846154
v -0.0395395719342 0.0175266868307 0.0222307692308
v -0.0395218956227 0.0169416577226 0.0226153846154
v -0.0393110194953 0.0174253765022 0.0222307692308
v -0.0392921171597 0.0168431597126 0.0226153846154
v -0.0390824670563 0.0173240661737 0.0222307692308
v -0.0390623386968 0.0167446617026 0.0226153846154
v -0.0388539146174 0.0172227558452 0.0222307692308
v -0.0388325602339 0.0166461636926 0.0226153846154
v -0.0386253621785 0.0171214455167 0.0222307692308
v -0.038602781771 0.0165476656826 0.0226153846154
v -0.0383968097395 0.0170201351882 0.0222307692308
v -0.0383730033081 0.0164491676725 0.0226153846154
v -0.0381682573006 0.0169188248597 0.0222307692308
v -0.0381432248451 0.0163506696625 0.0226153846154
v -0.0379397048617 0.0168175145312 0.0222307692308
v -0.0379134463822 0.0162521716525 0.0226153846154
v -0.0377111524228 0.0167162042027 0.0222307692308
v -0.0376836679193 0.0161536736425 0.0226153846154
v -0.0374825999838 0.0166148938742 0.0222307692308
v -0.0374538894564 0.0160551756325 0.0226153846154
v -0.0372540475449 0.0165135835457 0.0222307692308
v -0.0372241109934 0.0159566776225 0.0226153846154
v -0.037025495106 0.0164122732172 0.0222307692308
v -0.0369943325305 0.0158581796125 0.0226153846154
v -0.0367969426671 0.0163109628887 0.0222307692308
v -0.0367645540676 0.0157596816024 0.0226153846154
v -0.0365683902281 0.0162096525602 0.0222307692308
v -0.0365347756047 0.0156611835924 0.0226153846154
v -0.0363398377892 0.0161083422317 0.0222307692308
v -0.0363049971418 0.0155626855824 0.0226153846154
v -0.0361112853503 0.0160070319032 0.0222307692308
v -0.0360752186788 0.0154641875724 0.0226153846154
v -0.0358827329114 0.0159057215747 0.0222307692308
v -0.0358454402159 0.0153656895624 0.0226153846154
v -0.0356541804724 0.0158044112462 0.0222307692308
v -0.035615661753 0.0152671915524 0.0226153846154
v -0.0354256280335 0.0157031009177 0.0222307692308
v -0.0353858832901 0.0151686935424 0.0226153846154
v -0.0351970755946 0.0156017905892 0.0222307692308
v -0.0351561048271 0.0150701955323 0.0226153846154
v -0.0349685231557 0.0155004802607 0.0222307692308
v -0.0349263263642 0.0149716975223 0.014
v -0.0349263263642 0.0149716975223 0.0226153846154
v -0.0347399707167 0.0153991699322 0.014
v -0.0347399707167 0.0153991699322 0.0222307692308
f 6 53 3
f 4 6 3
f 20 53 6
f 20 54 53
f 52 54 20
f 52 20 6
f 52 6 4
f 21 1 51
f 7 33 4
f 47 52 4
f 47 4 33
f 9 2 1
f 9 1 21
f 49 51 52
f 49 21 51
f 5 4 2
f 5 7 4
f 51 3 53
f 51 1 3
f 4 3 1
f 4 1 2
f 52 51 53
f 52 53 54
f 5 49 52
f 5 52 47
f 5 2 9
f 5 33 7
f 5 47 33
f 5 9 21
f 5 21 49
