# Parametric PetalDock simulation geometry; SI units
v -0.0012270614261 0.0499849409348 0.014
v -0.0012270614261 0.0499849409348 0.0281666666667
v -0.0012251933364 0.0499088433934 0.0284881600858
v -0.0012198734667 0.04969213593 0.0287949920093
v -0.0012119117192 0.0493678102914 0.0291121077565
v -0.0012025201976 0.0489852421161 0.014
v -0.0012025201976 0.0489852421161 0.0293888888889
v -0.0006135769143 0.049996235092 0.014
v -0.0006135769143 0.049996235092 0.0281666666667
v -0.0006126427991 0.0499201203562 0.0284881600858
v -0.0006099826639 0.0497033639275 0.0287949920093
v -0.0006060014904 0.0493789650071 0.0291121077565
v -0.000601305376 0.0489963103901 0.014
v -0.000601305376 0.0489963103901 0.0293888888889
f 5 7 14
f 5 6 7
f 3 1 6
f 3 6 5
f 3 2 1
f 3 5 4
f 9 2 3
f 9 3 10
f 11 4 5
f 11 3 4
f 11 10 3
f 11 9 10
f 11 13 8
f 11 14 13
f 11 8 9
f 12 5 14
f 12 14 11
f 12 11 5
f 6 8 13
f 6 1 8
f 14 6 13
f 14 7 6
f 9 8 1
f 9 1 2
