# Parametric PetalDock simulation geometry; SI units
v -0.0489852421161 -0.0012025201976 0.014
v -0.0489852421161 -0.0012025201976 0.0293888888889
v -0.0489667968448 -0.0018035539241 0.014
v -0.0489667968448 -0.0018035539241 0.0293888888889
v -0.0487353174114 -0.0011963848905 0.0295277777778
v -0.0487169662487 -0.0017943521184 0.0295277777778
v -0.0484853927068 -0.0011902495834 0.0296666666667
v -0.0484671356525 -0.0017851503127 0.0296666666667
v -0.0482354680021 -0.0011841142762 0.0298055555556
v -0.0482173050564 -0.0017759485069 0.0298055555556
v -0.0479855432974 -0.0011779789691 0.0299444444444
v -0.0479674744602 -0.0017667467012 0.0299444444444
v -0.0477356185927 -0.001171843662 0.0300833333333
v -0.0477176438641 -0.0017575448954 0.0300833333333
v -0.0474856938881 -0.0011657083548 0.0302222222222
v -0.0474678132679 -0.0017483430897 0.0302222222222
v -0.0472357691834 -0.0011595730477 0.0303611111111
v -0.0472179826718 -0.001739141284 0.0303611111111
v -0.0469858444787 -0.0011534377406 0.0305
v -0.0469681520757 -0.0017299394782 0.0305
v -0.046735919774 -0.0011473024334 0.0306388888889
v -0.0467183214795 -0.0017207376725 0.0306388888889
v -0.0464859950694 -0.0011411671263 0.0307777777778
v -0.0464684908834 -0.0017115358668 0.0307777777778
v -0.0462360703647 -0.0011350318192 0.0309166666667
v -0.0462186602872 -0.001702334061 0.0309166666667
v -0.04598614566 -0.0011288965121 0.0310555555556
v -0.0459688296911 -0.0016931322553 0.0310555555556
v -0.0457362209554 -0.0011227612049 0.0311944444444
v -0.0457189990949 -0.0016839304496 0.0311944444444
v -0.0454862962507 -0.0011166258978 0.0313333333333
v -0.0454691684988 -0.0016747286438 0.0313333333333
v -0.045236371546 -0.0011104905907 0.0314722222222
v -0.0452193379026 -0.0016655268381 0.0314722222222
v -0.0449864468413 -0.0011043552835 0.0316111111111
v -0.0449695073065 -0.0016563250324 0.0316111111111
v -0.0447365221367 -0.0010982199764 0.03175
v -0.0447196767103 -0.0016471232266 0.03175
v -0.044486597432 -0.0010920846693 0.0318842592593
v -0.0444698461142 -0.0016379214209 0.0318842592593
v -0.0442366727273 -0.0010859493621 0.0319710648148
v -0.044220015518 -0.0016287196152 0.0319710648148
v -0.0439867480226 -0.001079814055 0.014
v -0.0439867480226 -0.001079814055 0.032
v -0.0439701849219 -0.0016195178094 0.014
v -0.0439701849219 -0.0016195178094 0.032
f 37 40 39
f 41 44 43
f 41 37 39
f 41 46 44
f 41 39 40
f 42 45 46
f 42 41 40
f 42 46 41
f 38 40 37
f 6 2 4
f 35 37 41
f 36 42 40
f 36 40 38
f 36 37 28
f 36 38 37
f 8 4 3
f 8 6 4
f 8 3 45
f 8 45 42
f 8 42 36
f 7 6 10
f 7 10 28
f 7 2 6
f 7 9 2
f 7 37 9
f 7 28 37
f 21 35 41
f 21 43 1
f 21 41 43
f 24 6 8
f 24 36 28
f 24 8 36
f 15 9 21
f 15 21 1
f 43 45 3
f 43 3 1
f 4 1 3
f 4 2 1
f 46 45 43
f 46 43 44
f 21 9 37
f 21 37 35
f 24 10 6
f 24 28 10
f 15 1 2
f 15 2 9
