# Parametric PetalDock simulation geometry; SI units
v -0.0123617911022 0.0359330783645 0.014
v -0.0123617911022 0.0359330783645 0.0249230769231
v -0.0122804635291 0.0356966765331 0.0249168941912
v -0.0121991359561 0.0354602747018 0.0248983459956
v -0.012117808383 0.0352238728704 0.0248696581197
v -0.01203648081 0.0349874710391 0.0248399810066
v -0.011955153237 0.0347510692077 0.0248103038936
v -0.0119199061352 0.0360820708625 0.014
v -0.0119199061352 0.0360820708625 0.0253076923077
v -0.0118738256639 0.0345146673764 0.0247806267806
v -0.0118414857001 0.0358446888174 0.0253002730294
v -0.0117924980909 0.034278265545 0.0247509496676
v -0.011763065265 0.0356073067722 0.0252780151947
v -0.0117111705178 0.0340418637137 0.0247212725546
v -0.0116846448299 0.0353699247271 0.0252435897436
v -0.0116298429448 0.0338054618824 0.0246915954416
v -0.0116062243948 0.0351325426819 0.025207977208
v -0.0115485153718 0.033569060051 0.0246619183286
v -0.0115278039597 0.0348951606368 0.0251723646724
v -0.0114671877987 0.0333326582197 0.0246322412156
v -0.0114493835246 0.0346577785916 0.0251367521368
v -0.0113858602257 0.0330962563883 0.0246025641026
v -0.0113709630895 0.0344203965465 0.0251011396011
v -0.0113045326526 0.032859854557 0.0245728869896
v -0.0112925426544 0.0341830145013 0.0250655270655
v -0.0112232050796 0.0326234527256 0.0245432098765
v -0.0112141222193 0.0339456324562 0.0250299145299
v -0.0111418775066 0.0323870508943 0.0245135327635
v -0.0111357017842 0.0337082504111 0.0249943019943
v -0.0110605499335 0.0321506490629 0.0244838556505
v -0.0110572813491 0.0334708683659 0.0249586894587
v -0.0109792223605 0.0319142472316 0.0244541785375
v -0.010978860914 0.0332334863208 0.0249230769231
v -0.0109004404789 0.0329961042756 0.0248874643875
v -0.0108978947874 0.0316778454002 0.0244245014245
v -0.0108220200438 0.0327587222305 0.0248518518519
v -0.0108165672144 0.0314414435689 0.0243948243115
v -0.0107435996087 0.0325213401853 0.0248162393162
v -0.0107352396414 0.0312050417376 0.014
v -0.0107352396414 0.0312050417376 0.0243651471985
v -0.0106651791736 0.0322839581402 0.0247806267806
v -0.0105867587385 0.032046576095 0.024745014245
v -0.0105083383034 0.0318091940499 0.0247094017094
v -0.0104299178683 0.0315718120047 0.0246737891738
v -0.0103514974332 0.0313344299596 0.014
v -0.0103514974332 0.0313344299596 0.0246381766382
f 7 4 2
f 7 1 39
f 7 2 1
f 15 13 40
f 3 2 4
f 22 40 13
f 29 45 8
f 11 9 2
f 11 2 3
f 11 13 15
f 11 4 13
f 11 3 4
f 11 8 9
f 11 15 29
f 11 29 8
f 5 22 13
f 5 13 4
f 5 4 7
f 44 40 46
f 44 21 40
f 17 15 40
f 17 40 21
f 18 5 7
f 18 22 5
f 18 40 22
f 19 21 36
f 39 8 45
f 39 1 8
f 2 8 1
f 2 9 8
f 46 39 45
f 46 40 39
f 36 21 44
f 36 44 46
f 36 46 45
f 36 45 29
f 18 39 40
f 18 7 39
f 19 17 21
f 19 15 17
f 19 36 29
f 19 29 15
