# Parametric PetalDock simulation geometry; SI units
v 0.007011239685 -0.0312224681612 0.014
v 0.007011239685 -0.0312224681612 0.0258903133903
v 0.0070279177738 -0.0312967390635 0.0261595236467
v 0.0070754129525 -0.0315082446987 0.0264082602565
v 0.0071464945106 -0.0318247852512 0.0266415274527
v 0.0072303409252 -0.0321981702913 0.014
v 0.0072303409252 -0.0321981702913 0.0268224121557
v 0.007393859465 -0.0311340784706 0.014
v 0.007393859465 -0.0311340784706 0.0256481481481
v 0.0074114477162 -0.0312081391146 0.025911796366
v 0.007461534818 -0.0314190459849 0.0261543526232
v 0.0075364954633 -0.0317346904224 0.0263786997608
v 0.0076249175733 -0.0321070184228 0.014
v 0.0076249175733 -0.0321070184228 0.026549382716
f 3 9 2
f 3 7 4
f 3 1 6
f 3 6 7
f 3 2 1
f 5 4 7
f 11 4 5
f 10 14 9
f 10 9 3
f 10 3 4
f 10 4 11
f 12 14 10
f 12 10 11
f 12 11 5
f 12 7 14
f 12 5 7
f 8 13 6
f 8 6 1
f 2 8 1
f 2 9 8
f 14 6 13
f 14 7 6
f 14 13 8
f 14 8 9
