# Parametric PetalDock simulation geometry; SI units
v -0.019305609963 0.0450365787328 0.014
v -0.019305609963 0.0450365787328 0.0227269705603
v -0.019207111953 0.0448068002699 0.0227210351377
v -0.019108613943 0.044577021807 0.0227150997151
v -0.0190101159329 0.044347243344 0.0227091642925
v -0.0189116179229 0.0441174648811 0.0227032288699
v -0.0188131199129 0.0438876864182 0.0226972934473
v -0.0187514881859 0.0452700970931 0.014
v -0.0187514881859 0.0452700970931 0.023
v -0.0187146219029 0.0436579079553 0.0226913580247
v -0.0186558173278 0.0450391272099 0.023
v -0.0186161238929 0.0434281294924 0.0226854226021
v -0.0185601464697 0.0448081573268 0.023
v -0.0185176258829 0.0431983510294 0.0226794871795
v -0.0184644756116 0.0445771874437 0.023
v -0.0184191278729 0.0429685725665 0.0226735517569
v -0.0183688047535 0.0443462175605 0.023
v -0.0183206298628 0.0427387941036 0.0226676163343
v -0.0182731338954 0.0441152476774 0.023
v -0.0182221318528 0.0425090156407 0.0226616809117
v -0.0181774630373 0.0438842777943 0.023
v -0.0181236338428 0.0422792371777 0.0226557454891
v -0.0180817921793 0.0436533079112 0.023
v -0.0180251358328 0.0420494587148 0.0226498100665
v -0.0179861213212 0.043422338028 0.023
v -0.0179266378228 0.0418196802519 0.0226438746439
v -0.0178904504631 0.0431913681449 0.023
v -0.0178281398128 0.041589901789 0.0226379392213
v -0.017794779605 0.0429603982618 0.023
v -0.0177296418027 0.0413601233261 0.0226320037987
v -0.0176991087469 0.0427294283786 0.023
v -0.0176311437927 0.0411303448631 0.0226260683761
v -0.0176034378888 0.0424984584955 0.023
v -0.0175326457827 0.0409005664002 0.0226203308009
v -0.0175077670307 0.0422674886124 0.023
v -0.0174341477727 0.0406707879373 0.0226166211618
v -0.0174120961726 0.0420365187293 0.023
v -0.0173356497627 0.0404410094744 0.014
v -0.0173356497627 0.0404410094744 0.0226153846154
v -0.0173164253145 0.0418055488461 0.023
v -0.0172207544564 0.041574578963 0.023
v -0.0171250835983 0.0413436090799 0.023
v -0.0170294127402 0.0411126391968 0.023
v -0.0169337418822 0.0408816693136 0.023
v -0.0168380710241 0.0406506994305 0.014
v -0.0168380710241 0.0406506994305 0.023
f 46 2 39
f 16 1 38
f 43 45 8
f 43 46 45
f 28 38 39
f 28 39 16
f 28 16 38
f 4 39 2
f 4 16 39
f 4 2 1
f 4 1 16
f 11 9 2
f 11 2 25
f 44 2 46
f 44 25 2
f 21 8 9
f 21 43 8
f 38 8 45
f 38 1 8
f 2 8 1
f 2 9 8
f 46 38 45
f 46 39 38
f 21 9 11
f 21 44 46
f 21 46 43
f 21 11 25
f 21 25 44
