# Parametric PetalDock simulation geometry; SI units
v -0.0336673596874 -0.0283285878872 0.014
v -0.0336673596874 -0.0283285878872 0.0140369822485
v -0.033476067871 -0.0281676300014 0.0140369822485
v -0.0333171892463 -0.02873960509 0.014
v -0.0332847760546 -0.0280066721157 0.0140369822485
v -0.0331278870347 -0.0285763118792 0.014
v -0.0330934842382 -0.02784571423 0.0140369822485
v -0.032938584823 -0.0284130186685 0.014
v -0.0329021924218 -0.0276847563443 0.0140369822485
v -0.0327492826114 -0.0282497254578 0.014
v -0.0327109006054 -0.0275237984585 0.0140369822485
v -0.0325599803998 -0.028086432247 0.014
v -0.032519608789 -0.0273628405728 0.0140369822485
v -0.0323706781882 -0.0279231390363 0.014
v -0.0323283169725 -0.0272018826871 0.0140369822485
v -0.0321813759765 -0.0277598458255 0.014
v -0.0321370251561 -0.0270409248014 0.0140369822485
v -0.0319920737649 -0.0275965526148 0.014
v -0.0319457333397 -0.0268799669156 0.0140369822485
v -0.0318027715533 -0.0274332594041 0.014
v -0.0317544415233 -0.0267190090299 0.0140369822485
v -0.0316134693416 -0.0272699661933 0.014
v -0.0315631497069 -0.0265580511442 0.0140369822485
v -0.03142416713 -0.0271066729826 0.014
v -0.0313718578905 -0.0263970932585 0.0140369822485
v -0.0312348649184 -0.0269433797718 0.014
v -0.0311805660741 -0.0262361353728 0.0140369822485
v -0.0310455627068 -0.0267800865611 0.014
v -0.0309892742577 -0.026075177487 0.0140369822485
v -0.0308562604951 -0.0266167933504 0.014
v -0.0307979824413 -0.0259142196013 0.0140369822485
v -0.0306669582835 -0.0264535001396 0.014
v -0.0306066906249 -0.0257532617156 0.0140369822485
v -0.0304776560719 -0.0262902069289 0.014
v -0.0304153988085 -0.0255923038299 0.0140369822485
v -0.0302883538603 -0.0261269137182 0.014
v -0.0302241069921 -0.0254313459441 0.0140369822485
v -0.0300990516486 -0.0259636205074 0.014
v -0.0300328151757 -0.0252703880584 0.0140369822485
v -0.029909749437 -0.0258003272967 0.014
v -0.0298415233593 -0.0251094301727 0.0140369822485
v -0.0297204472254 -0.0256370340859 0.014
v -0.0296502315429 -0.024948472287 0.0140369822485
v -0.0295311450138 -0.0254737408752 0.014
v -0.0294589397265 -0.0247875144013 0.0140369822485
v -0.0293418428021 -0.0253104476645 0.014
v -0.0292676479101 -0.0246265565155 0.0140369822485
v -0.0291525405905 -0.0251471544537 0.014
v -0.0290763560937 -0.0244655986298 0.014
v -0.0290763560937 -0.0244655986298 0.0140369822485
v -0.0289632383789 -0.024983861243 0.014
v -0.0287739361672 -0.0248205680322 0.014
f 2 1 4
f 50 52 49
f 50 46 52
f 10 50 4
f 11 49 1
f 30 46 50
f 30 50 10
f 17 2 4
f 17 4 27
f 45 4 50
f 45 27 4
f 3 1 2
f 3 11 1
f 47 50 49
f 47 49 11
f 30 1 49
f 30 4 1
f 30 49 52
f 30 52 46
f 30 10 4
f 47 2 17
f 47 45 50
f 47 3 2
f 47 17 27
f 47 27 45
f 47 11 3
