# Parametric PetalDock simulation geometry; SI units
v -0.0004049607634 -0.0329975151607 0.014
v -0.0004049607634 -0.0329975151607 0.0293888888889
v -0.000400264649 -0.0326148605437 0.0291121077565
v -0.0003962834755 -0.0322904616233 0.0287949920093
v -0.0003936233404 -0.0320737051946 0.0284881600858
v -0.0003926892251 -0.0319975904589 0.014
v -0.0003926892251 -0.0319975904589 0.0281666666667
v -0 -0.033 0.014
v -0 -0.033 0.0293888888889
v -0 -0.0326173165676 0.0291121077565
v -0 -0.0322928932188 0.0287949920093
v -0 -0.0320761204675 0.0284881600858
v -0 -0.032 0.014
v -0 -0.032 0.0281666666667
f 5 6 1
f 5 1 2
f 7 6 5
f 7 5 14
f 10 2 9
f 3 2 10
f 12 14 5
f 4 3 10
f 4 12 5
f 4 5 2
f 4 2 3
f 11 4 10
f 11 12 4
f 13 1 6
f 13 8 1
f 9 1 8
f 9 2 1
f 7 13 6
f 7 14 13
f 11 8 13
f 11 9 8
f 11 13 14
f 11 10 9
f 11 14 12
