# Parametric PetalDock simulation geometry; SI units
v 0.0374596284966 -0.0230819460379 0.014
v 0.0374596284966 -0.0230819460379 0.018
v 0.0376724672949 -0.0232130934585 0.0180160751029
v 0.03774005884 -0.0226205207445 0.014
v 0.03774005884 -0.0226205207445 0.0183846153846
v 0.0378853060932 -0.0233442408792 0.0180643004115
v 0.0379544909925 -0.0227490464306 0.0183994539411
v 0.0380981448915 -0.0234753882999 0.0181388888889
v 0.038168923145 -0.0228775721166 0.0184439696106
v 0.0383109836897 -0.0236065357205 0.0182160493827
v 0.0383833552975 -0.0230060978026 0.0185128205128
v 0.038523822488 -0.0237376831412 0.0182932098765
v 0.03859778745 -0.0231346234887 0.018584045584
v 0.0387366612863 -0.0238688305619 0.0183703703704
v 0.0388122196025 -0.0232631491747 0.0186552706553
v 0.0389495000846 -0.0239999779825 0.0184475308642
v 0.039026651755 -0.0233916748608 0.0187264957265
v 0.0391623388828 -0.0241311254032 0.018524691358
v 0.0392410839075 -0.0235202005468 0.0187977207977
v 0.0393751776811 -0.0242622728239 0.0186018518519
v 0.03945551606 -0.0236487262329 0.0188689458689
v 0.0395880164794 -0.0243934202445 0.0186790123457
v 0.0396699482125 -0.0237772519189 0.0189401709402
v 0.0398008552777 -0.0245245676652 0.0187561728395
v 0.039884380365 -0.023905777605 0.0190113960114
v 0.0400136940759 -0.0246557150859 0.0188333333333
v 0.0400988125175 -0.024034303291 0.0190826210826
v 0.0402265328742 -0.0247868625066 0.0189104938272
v 0.04031324467 -0.0241628289771 0.0191538461538
v 0.0404393716725 -0.0249180099272 0.018987654321
v 0.0405276768225 -0.0242913546631 0.0192250712251
v 0.0406522104708 -0.0250491573479 0.0190648148148
v 0.040742108975 -0.0244198803492 0.0192962962963
v 0.0408650492691 -0.0251803047686 0.0191419753086
v 0.0409565411275 -0.0245484060352 0.0193675213675
v 0.0410778880673 -0.0253114521892 0.0192191358025
v 0.04117097328 -0.0246769317213 0.0194387464387
v 0.0412907268656 -0.0254425996099 0.0192962962963
v 0.0413854054325 -0.0248054574073 0.01950997151
v 0.0415035656639 -0.0255737470306 0.0193734567901
v 0.041599837585 -0.0249339830934 0.0195811965812
v 0.0417164044622 -0.0257048944512 0.014
v 0.0417164044622 -0.0257048944512 0.019450617284
v 0.0418142697375 -0.0250625087794 0.0196524216524
v 0.04202870189 -0.0251910344655 0.014
v 0.04202870189 -0.0251910344655 0.0197236467236
f 28 1 42
f 40 42 43
f 40 28 42
f 5 43 46
f 44 46 45
f 44 5 46
f 11 45 4
f 11 4 5
f 2 1 28
f 2 43 5
f 2 40 43
f 2 28 40
f 43 45 46
f 43 42 45
f 4 45 42
f 4 42 1
f 11 44 45
f 11 5 44
f 2 4 1
f 2 5 4
