# Parametric PetalDock simulation geometry; SI units
v 0.0048028398761 0.0487640516069 0.014
v 0.0048028398761 0.0487640516069 0.0292838775659
v 0.0048403494118 0.049144892314 0.0290110201827
v 0.0048721484607 0.0494677534757 0.0286973352273
v 0.0048933959059 0.049683482407 0.0283928803624
v 0.0049008570165 0.0497592363336 0.014
v 0.0049008570165 0.0497592363336 0.0280735261889
v 0.0054008881574 0.0487014415301 0.014
v 0.0054008881574 0.0487014415301 0.0291526134122
v 0.00544306837 0.0490817932608 0.0288846607154
v 0.0054788270276 0.0494042398885 0.0285752642497
v 0.0055027201987 0.0496196918369 0.0282737807082
v 0.0055111103647 0.0496953485001 0.014
v 0.0055111103647 0.0496953485001 0.0279571005917
f 5 6 1
f 5 7 6
f 5 14 7
f 4 1 2
f 4 5 1
f 10 2 9
f 10 9 14
f 3 4 2
f 3 2 10
f 12 14 5
f 12 5 4
f 11 12 4
f 11 4 3
f 11 3 10
f 11 10 14
f 11 14 12
f 8 1 6
f 8 6 13
f 14 6 7
f 14 13 6
f 9 1 8
f 9 2 1
f 9 8 13
f 9 13 14
