# Parametric PetalDock simulation geometry; SI units
v -0.0340300498898 0.0366327135836 0.014
v -0.0340300498898 0.0366327135836 0.0168333333333
v -0.0339782422236 0.036576943598 0.0168945233466
v -0.0338307064728 0.0364181241157 0.0169121147719
v -0.0336099036179 0.0361804339634 0.016811771776
v -0.0335779477424 0.0370475562677 0.014
v -0.0335779477424 0.0370475562677 0.0168333333333
v -0.0335268283608 0.0369911547217 0.0168945233466
v -0.0333812526784 0.0368305367077 0.0169121147719
v -0.033349448892 0.0359000593119 0.014
v -0.033349448892 0.0359000593119 0.0166111111111
v -0.0331633832734 0.0365901548623 0.016811771776
v -0.0329063887875 0.0363066051424 0.014
v -0.0329063887875 0.0363066051424 0.0166111111111
f 11 4 2
f 11 14 12
f 5 4 11
f 5 11 12
f 9 13 6
f 9 14 13
f 9 12 14
f 8 6 7
f 8 9 6
f 8 7 2
f 8 4 9
f 3 2 4
f 3 4 8
f 3 8 2
f 10 6 13
f 10 1 6
f 11 1 10
f 11 2 1
f 11 10 13
f 11 13 14
f 7 6 1
f 7 1 2
f 9 5 12
f 9 4 5
