# Parametric PetalDock simulation geometry; SI units
v 0.035778674477 -0.0128018144289 0.014
v 0.035778674477 -0.0128018144289 0.0245384615385
v 0.0359330783645 -0.0123617911022 0.014
v 0.0359330783645 -0.0123617911022 0.0249230769231
v 0.0360140604933 -0.0128860368923 0.0245384615385
v 0.0361694801958 -0.0124431186752 0.0249230769231
v 0.0362494465095 -0.0129702593556 0.0245384615385
v 0.0364058820272 -0.0125244462482 0.0249230769231
v 0.0364848325258 -0.0130544818189 0.0245384615385
v 0.0366422838585 -0.0126057738213 0.0249230769231
v 0.0367202185421 -0.0131387042823 0.0245384615385
v 0.0368786856898 -0.0126871013943 0.0249230769231
v 0.0369556045584 -0.0132229267456 0.0245384615385
v 0.0371150875212 -0.0127684289674 0.0249230769231
v 0.0371909905747 -0.013307149209 0.0245384615385
v 0.0373514893525 -0.0128497565404 0.0249230769231
v 0.037426376591 -0.0133913716723 0.0245384615385
v 0.0375878911839 -0.0129310841134 0.0249230769231
v 0.0376617626073 -0.0134755941357 0.0245384615385
v 0.0378242930152 -0.0130124116865 0.0249230769231
v 0.0378971486236 -0.013559816599 0.0245384615385
v 0.0380606948466 -0.0130937392595 0.0249230769231
v 0.0381325346399 -0.0136440390624 0.0245384615385
v 0.0382970966779 -0.0131750668326 0.0249230769231
v 0.0383679206562 -0.0137282615257 0.0245384615385
v 0.0385334985093 -0.0132563944056 0.0249230769231
v 0.0386033066725 -0.0138124839891 0.0245384615385
v 0.0387699003406 -0.0133377219787 0.0249230769231
v 0.0388386926888 -0.0138967064524 0.0245384615385
v 0.0390063021719 -0.0134190495517 0.0249230769231
v 0.0390740787051 -0.0139809289158 0.0245384615385
v 0.0392427040033 -0.0135003771247 0.0249230769231
v 0.0393094647214 -0.0140651513791 0.0245384615385
v 0.0394791058346 -0.0135817046978 0.0249230769231
v 0.0395448507377 -0.0141493738425 0.0245384615385
v 0.039715507666 -0.0136630322708 0.0249230769231
v 0.039780236754 -0.0142335963058 0.0245384615385
v 0.0399519094973 -0.0137443598439 0.0249230769231
v 0.0400156227703 -0.0143178187692 0.0245384615385
v 0.0401883113287 -0.0138256874169 0.0249230769231
v 0.0402510087866 -0.0144020412325 0.0245384615385
v 0.04042471316 -0.0139070149899 0.0249230769231
v 0.0404863948029 -0.0144862636959 0.0245384615385
v 0.0406611149914 -0.013988342563 0.0249230769231
v 0.0407217808192 -0.0145704861592 0.0245384615385
v 0.0408975168227 -0.014069670136 0.0249230769231
v 0.0409571668355 -0.0146547086226 0.0245384615385
v 0.0411339186541 -0.0141509977091 0.0249230769231
v 0.0411925528518 -0.0147389310859 0.0245384615385
v 0.0413703204854 -0.0142323252821 0.0249230769231
v 0.0414279388681 -0.0148231535493 0.014
v 0.0414279388681 -0.0148231535493 0.0245384615385
v 0.0416067223167 -0.0143136528551 0.014
v 0.0416067223167 -0.0143136528551 0.0249230769231
f 5 1 51
f 8 53 3
f 8 3 4
f 2 1 5
f 2 5 4
f 52 5 51
f 52 4 5
f 18 54 53
f 18 53 8
f 48 52 54
f 48 38 52
f 28 4 52
f 28 52 38
f 3 53 51
f 3 51 1
f 2 3 1
f 2 4 3
f 52 51 53
f 52 53 54
f 28 48 54
f 28 8 4
f 28 54 18
f 28 18 8
f 28 38 48
