# Parametric PetalDock simulation geometry; SI units
v -0.0218807112739 -0.0310682228998 0.014
v -0.0218807112739 -0.0310682228998 0.0160769230769
v -0.021736759226 -0.0308638266965 0.0160991809117
v -0.0215928071782 -0.0306594304932 0.016165954416
v -0.0214978088098 -0.0313343935058 0.014
v -0.0214978088098 -0.0313343935058 0.0164615384615
v -0.0214488551303 -0.0304550342899 0.0162692307692
v -0.0213563758571 -0.0311282461801 0.0164825597499
v -0.0213049030825 -0.0302506380866 0.0163760683761
v -0.0212149429044 -0.0309220988544 0.0165456236151
v -0.0211609510346 -0.0300462418833 0.0164829059829
v -0.0210735099517 -0.0307159515287 0.0166431623932
v -0.0210169989868 -0.02984184568 0.0165897435897
v -0.020932076999 -0.030509804203 0.0167440645774
v -0.0208730469389 -0.0296374494767 0.0166965811966
v -0.0207906440463 -0.0303036568773 0.0168449667616
v -0.020729094891 -0.0294330532735 0.0168034188034
v -0.0206492110936 -0.0300975095517 0.0169458689459
v -0.0205851428432 -0.0292286570702 0.0169102564103
v -0.0205077781409 -0.029891362226 0.0170467711301
v -0.0204411907953 -0.0290242608669 0.0170170940171
v -0.0203663451882 -0.0296852149003 0.0171476733143
v -0.0202972387475 -0.0288198646636 0.0171239316239
v -0.0202249122355 -0.0294790675746 0.0172485754986
v -0.0201532866996 -0.0286154684603 0.0172307692308
v -0.0200834792828 -0.0292729202489 0.0173494776828
v -0.0200093346518 -0.028411072257 0.0173376068376
v -0.0199420463301 -0.0290667729232 0.017450379867
v -0.0198653826039 -0.0282066760537 0.0174444444444
v -0.0198006133774 -0.0288606255975 0.0175512820513
v -0.0197214305561 -0.0280022798504 0.0175512820513
v -0.0196591804247 -0.0286544782718 0.0176521842355
v -0.0195774785082 -0.0277978836472 0.0176581196581
v -0.019517747472 -0.0284483309461 0.0177530864198
v -0.0194335264604 -0.0275934874439 0.017764957265
v -0.0193763145193 -0.0282421836204 0.017853988604
v -0.0192895744125 -0.0273890912406 0.0178717948718
v -0.0192348815666 -0.0280360362947 0.0179548907882
v -0.0191456223646 -0.0271846950373 0.0179786324786
v -0.0190934486139 -0.027829888969 0.0180557929725
v -0.0190016703168 -0.026980298834 0.014
v -0.0190016703168 -0.026980298834 0.0180854700855
v -0.0189520156613 -0.0276237416433 0.0181566951567
v -0.0188105827086 -0.0274175943176 0.0182575973409
v -0.0186691497559 -0.0272114469919 0.014
v -0.0186691497559 -0.0272114469919 0.0183584995252
f 40 45 46
f 40 46 6
f 13 41 1
f 13 1 2
f 18 6 5
f 18 40 6
f 18 5 45
f 18 45 40
f 42 2 6
f 42 6 46
f 31 42 41
f 31 41 13
f 31 13 2
f 31 2 42
f 41 45 5
f 41 5 1
f 2 5 6
f 2 1 5
f 42 45 41
f 42 46 45
