# Parametric PetalDock simulation geometry; SI units
v 0.0306407006556 -0.0122534674004 0.014
v 0.0306407006556 -0.0122534674004 0.0232730294397
v 0.0307887623615 -0.0118765362057 0.014
v 0.0307887623615 -0.0118765362057 0.0235460588794
v 0.0308728271757 -0.0123462966989 0.0232789648623
v 0.0310220105613 -0.0119665099648 0.0235579297246
v 0.0311049536959 -0.0124391259974 0.0232849002849
v 0.031255258761 -0.0120564837239 0.0235698005698
v 0.031337080216 -0.0125319552959 0.0232908357075
v 0.0314885069607 -0.0121464574831 0.023581671415
v 0.0315692067361 -0.0126247845944 0.0232967711301
v 0.0317217551604 -0.0122364312422 0.0235935422602
v 0.0318013332562 -0.0127176138929 0.0233027065527
v 0.0319550033601 -0.0123264050013 0.0236054131054
v 0.0320334597763 -0.0128104431913 0.0233086419753
v 0.0321882515598 -0.0124163787605 0.0236172839506
v 0.0322655862964 -0.0129032724898 0.0233145773979
v 0.0324214997595 -0.0125063525196 0.0236291547958
v 0.0324977128166 -0.0129961017883 0.0233205128205
v 0.0326547479592 -0.0125963262787 0.023641025641
v 0.0327298393367 -0.0130889310868 0.0233264482431
v 0.0328879961589 -0.0126863000379 0.0236528964862
v 0.0329619658568 -0.0131817603853 0.0233323836657
v 0.0331212443586 -0.012776273797 0.0236647673314
v 0.0331940923769 -0.0132745896838 0.0233383190883
v 0.0333544925583 -0.0128662475561 0.0236766381766
v 0.033426218897 -0.0133674189823 0.0233442545109
v 0.0335877407581 -0.0129562213153 0.0236885090218
v 0.0336583454172 -0.0134602482808 0.0233501899335
v 0.0338209889578 -0.0130461950744 0.023700379867
v 0.0338904719373 -0.0135530775792 0.0233561253561
v 0.0340542371575 -0.0131361688335 0.0237122507123
v 0.0341225984574 -0.0136459068777 0.0233620607787
v 0.0342874853572 -0.0132261425927 0.0237241215575
v 0.0343547249775 -0.0137387361762 0.0233679962013
v 0.0345207335569 -0.0133161163518 0.0237359924027
v 0.0345868514976 -0.0138315654747 0.0233739316239
v 0.0347539817566 -0.0134060901109 0.0237478632479
v 0.0348189780177 -0.0139243947732 0.0233796691991
v 0.0349872299563 -0.0134960638701 0.0237593383982
v 0.0350511045379 -0.0140172240717 0.0233833788382
v 0.035220478156 -0.0135860376292 0.0237667576765
v 0.035283231058 -0.0141100533702 0.014
v 0.035283231058 -0.0141100533702 0.0233846153846
v 0.0354537263557 -0.0136760113883 0.014
v 0.0354537263557 -0.0136760113883 0.0237692307692
f 13 1 43
f 8 45 3
f 27 43 44
f 27 13 43
f 32 45 8
f 40 13 27
f 6 32 8
f 6 4 32
f 6 3 4
f 6 8 3
f 42 44 46
f 39 27 44
f 39 42 40
f 5 2 1
f 5 1 13
f 5 13 40
f 5 40 2
f 34 4 2
f 34 32 4
f 38 42 46
f 38 40 42
f 38 32 34
f 38 2 40
f 38 34 2
f 37 40 27
f 37 27 39
f 37 39 40
f 41 44 42
f 41 39 44
f 41 42 39
f 44 45 46
f 44 43 45
f 3 45 43
f 3 43 1
f 2 3 1
f 2 4 3
f 38 46 45
f 38 45 32
