# Parametric PetalDock simulation geometry; SI units
v -0.0196580770483 0.0265058485389 0.014
v -0.0196580770483 0.0265058485389 0.0175394112061
v -0.0194301127937 0.0261984743238 0.0177053859285
v -0.0193313292961 0.0267450875423 0.014
v -0.0193313292961 0.0267450875423 0.0178124406458
v -0.0192368540305 0.0259378950467 0.017775400725
v -0.0191077226533 0.0257637815402 0.0177367961011
v -0.0191071541613 0.0264349389999 0.0179682136204
v -0.0190623777438 0.0257026410074 0.014
v -0.0190623777438 0.0257026410074 0.0176566951567
v -0.0189171076587 0.0261720077616 0.0180293083583
v -0.0187901226454 0.0259963227249 0.0179845233819
v -0.0187455314386 0.0259346303441 0.014
v -0.0187455314386 0.0259346303441 0.0178988603989
f 12 10 14
f 12 14 11
f 3 5 2
f 8 5 3
f 8 11 14
f 8 13 4
f 8 14 13
f 8 4 5
f 6 11 8
f 6 8 3
f 6 2 10
f 6 3 2
f 7 12 11
f 7 11 6
f 7 10 12
f 7 6 10
f 9 4 13
f 9 1 4
f 14 9 13
f 14 10 9
f 2 4 1
f 2 5 4
f 2 1 9
f 2 9 10
