# Parametric PetalDock simulation geometry; SI units
v -0.0419112352777 -0.0272662494211 0.014
v -0.0419112352777 -0.0272662494211 0.0188675213675
v -0.0418474292213 -0.0272247390281 0.0189754325049
v -0.0416657249456 -0.0271065274299 0.0190449388914
v -0.0415734806151 -0.027778511651 0.014
v -0.0415734806151 -0.027778511651 0.0186253561254
v -0.0415101887595 -0.0277362213851 0.0187277052241
v -0.0413937852796 -0.026929611271 0.0190195243879
v -0.041329948804 -0.0276157888972 0.0187910312581
v -0.0410730105722 -0.0267209244327 0.014
v -0.0410730105722 -0.0267209244327 0.0189045584046
v -0.041060200648 -0.0274355489417 0.018756696696
v -0.0407420110028 -0.027222941418 0.014
v -0.0407420110028 -0.027222941418 0.0186315289649
f 9 5 13
f 10 1 4
f 2 4 1
f 14 9 13
f 6 5 9
f 12 9 14
f 11 10 4
f 11 12 14
f 7 9 4
f 7 6 9
f 8 11 4
f 8 12 11
f 8 4 9
f 8 9 12
f 3 2 6
f 3 6 7
f 3 4 2
f 3 7 4
f 10 13 5
f 10 5 1
f 6 1 5
f 6 2 1
f 11 13 10
f 11 14 13
