# Parametric PetalDock simulation geometry; SI units
v 0.02892765738 0.0136817629898 0.014
v 0.02892765738 0.0136817629898 0.0215313390313
v 0.0289964694675 0.0137143086834 0.0217004325932
v 0.0290933754589 0.0133257459231 0.014
v 0.0290933754589 0.0133257459231 0.0217735042735
v 0.0291625817508 0.0133574447359 0.0219481598739
v 0.0291924297138 0.0138069909773 0.0218379228575
v 0.0293596645959 0.0134477153174 0.0220918304908
v 0.0294857049476 0.0139456998325 0.0219106289987
v 0.0296546199176 0.0135828147898 0.0221734566906
v 0.0298316466731 0.0141093180832 0.014
v 0.0298316466731 0.0141093180832 0.0219078822412
v 0.030002543442 0.0137421754832 0.014
v 0.030002543442 0.0137421754832 0.0221809116809
f 3 11 1
f 12 9 14
f 12 11 3
f 10 14 9
f 2 3 1
f 7 10 9
f 7 9 12
f 7 12 3
f 6 5 14
f 6 14 10
f 6 2 5
f 6 3 2
f 8 10 7
f 8 6 10
f 8 7 3
f 8 3 6
f 4 11 13
f 4 1 11
f 12 13 11
f 12 14 13
f 5 4 13
f 5 13 14
f 2 1 4
f 2 4 5
