# Parametric PetalDock simulation geometry; SI units
v 0.0089126300603 -0.0307337766213 0.014
v 0.0089126300603 -0.0307337766213 0.0246794871795
v 0.0089338311093 -0.0308068850414 0.024920887243
v 0.0089942065886 -0.0310150802076 0.0251387220901
v 0.009084564879 -0.031326666293 0.0253273889933
v 0.0091911497497 -0.0316942071407 0.014
v 0.0091911497497 -0.0316942071407 0.0254572649573
v 0.0092891096721 -0.0306220907434 0.014
v 0.0092891096721 -0.0306220907434 0.0244373219373
v 0.0093112062775 -0.0306949334891 0.0246731599622
v 0.0093741320856 -0.0309023720786 0.0248848144568
v 0.0094683072127 -0.0312128258669 0.0250645613014
v 0.0095793943494 -0.0315790310792 0.014
v 0.0095793943494 -0.0315790310792 0.0251842355176
f 4 1 6
f 4 6 7
f 4 2 1
f 3 9 2
f 3 2 4
f 5 4 7
f 11 4 5
f 10 13 8
f 10 8 9
f 10 14 13
f 10 9 3
f 10 3 4
f 10 4 11
f 12 11 5
f 12 7 14
f 12 5 7
f 12 14 10
f 12 10 11
f 8 13 6
f 8 6 1
f 2 8 1
f 2 9 8
f 14 6 13
f 14 7 6
