# Parametric PetalDock simulation geometry; SI units
v -0.0417792399461 0.0138019965776 0.014
v -0.0417792399461 0.0138019965776 0.0253076923077
v -0.0416067223167 0.0143136528551 0.014
v -0.0416067223167 0.0143136528551 0.0249230769231
v -0.0415418579009 0.0137235761425 0.0253076923077
v -0.0413703204854 0.0142323252821 0.0249230769231
v -0.0413044758558 0.0136451557074 0.0253076923077
v -0.0411339186541 0.0141509977091 0.0249230769231
v -0.0410670938106 0.0135667352723 0.0253076923077
v -0.0408975168227 0.014069670136 0.0249230769231
v -0.0408297117655 0.0134883148372 0.0253076923077
v -0.0406611149914 0.013988342563 0.0249230769231
v -0.0405923297204 0.0134098944021 0.0253076923077
v -0.04042471316 0.0139070149899 0.0249230769231
v -0.0403549476752 0.013331473967 0.0253076923077
v -0.0401883113287 0.0138256874169 0.0249230769231
v -0.0401175656301 0.0132530535319 0.0253076923077
v -0.0399519094973 0.0137443598439 0.0249230769231
v -0.0398801835849 0.0131746330968 0.0253076923077
v -0.039715507666 0.0136630322708 0.0249230769231
v -0.0396428015398 0.0130962126617 0.0253076923077
v -0.0394791058346 0.0135817046978 0.0249230769231
v -0.0394054194946 0.0130177922266 0.0253076923077
v -0.0392427040033 0.0135003771247 0.0249230769231
v -0.0391680374495 0.0129393717915 0.0253076923077
v -0.0390063021719 0.0134190495517 0.0249230769231
v -0.0389306554043 0.0128609513564 0.0253076923077
v -0.0387699003406 0.0133377219787 0.0249230769231
v -0.0386932733592 0.0127825309213 0.0253076923077
v -0.0385334985093 0.0132563944056 0.0249230769231
v -0.038455891314 0.0127041104862 0.0253076923077
v -0.0382970966779 0.0131750668326 0.0249230769231
v -0.0382185092689 0.0126256900511 0.0253076923077
v -0.0380606948466 0.0130937392595 0.0249230769231
v -0.0379811272237 0.012547269616 0.0253076923077
v -0.0378242930152 0.0130124116865 0.0249230769231
v -0.0377437451786 0.0124688491809 0.0253076923077
v -0.0375878911839 0.0129310841134 0.0249230769231
v -0.0375063631334 0.0123904287458 0.0253076923077
v -0.0373514893525 0.0128497565404 0.0249230769231
v -0.0372689810883 0.0123120083107 0.0253076923077
v -0.0371150875212 0.0127684289674 0.0249230769231
v -0.0370315990431 0.0122335878756 0.0253076923077
v -0.0368786856898 0.0126871013943 0.0249230769231
v -0.036794216998 0.0121551674405 0.0253076923077
v -0.0366422838585 0.0126057738213 0.0249230769231
v -0.0365568349528 0.0120767470054 0.0253076923077
v -0.0364058820272 0.0125244462482 0.0249230769231
v -0.0363194529077 0.0119983265703 0.0253076923077
v -0.0361694801958 0.0124431186752 0.0249230769231
v -0.0360820708625 0.0119199061352 0.014
v -0.0360820708625 0.0119199061352 0.0253076923077
v -0.0359330783645 0.0123617911022 0.014
v -0.0359330783645 0.0123617911022 0.0249230769231
f 18 53 3
f 13 2 1
f 8 3 4
f 8 18 3
f 52 18 8
f 52 8 4
f 52 4 9
f 5 4 2
f 5 9 4
f 49 51 52
f 28 52 54
f 28 18 52
f 28 54 53
f 28 53 18
f 51 3 53
f 51 1 3
f 4 3 1
f 4 1 2
f 49 1 51
f 49 13 1
f 49 2 13
f 49 5 2
f 49 52 9
f 49 9 5
f 54 51 53
f 54 52 51
