# Parametric PetalDock simulation geometry; SI units
v -0.0468669505956 0.0174209340125 0.014
v -0.0468669505956 0.0174209340125 0.0232264957265
v -0.0467955999118 0.0173944122196 0.0234345235584
v -0.0466496399417 0.0179947518267 0.014
v -0.0466496399417 0.0179947518267 0.0229843304843
v -0.0465924103553 0.0173188845437 0.0236152762904
v -0.0465786200937 0.0179673564483 0.0231867962777
v -0.0463763726778 0.0178893410111 0.0233613686572
v -0.0462883156941 0.0172058493887 0.0237504228419
v -0.0460736880295 0.0177725826581 0.02348759515
v -0.0459296115837 0.0170725153322 0.014
v -0.0459296115837 0.0170725153322 0.0238190883191
v -0.0457166471429 0.0176348567902 0.014
v -0.0457166471429 0.0176348567902 0.0235460588794
f 8 13 4
f 10 12 14
f 10 14 13
f 10 13 8
f 9 6 12
f 9 12 10
f 9 8 6
f 9 10 8
f 7 4 5
f 7 8 4
f 7 6 8
f 3 6 7
f 3 2 1
f 3 5 2
f 3 7 5
f 3 1 11
f 3 11 12
f 3 12 6
f 11 4 13
f 11 1 4
f 14 11 13
f 14 12 11
f 5 4 1
f 5 1 2
