# Parametric PetalDock simulation geometry; SI units
v -0.0148371738786 -0.0294764019395 0.014
v -0.0148371738786 -0.0294764019395 0.0213618233618
v -0.0146651150717 -0.029134579798 0.0213849736149
v -0.0145192506585 -0.028844796979 0.0213301075909
v -0.0144743358718 -0.0296562573679 0.014
v -0.0144743358718 -0.0296562573679 0.0216348528015
v -0.0144217871735 -0.0286511702896 0.0212049780317
v -0.0143875625489 -0.0285831776383 0.014
v -0.0143875625489 -0.0285831776383 0.021047008547
v -0.0143064847041 -0.0293123495388 0.0216478013068
v -0.0141641873552 -0.0290207985591 0.0215840152242
v -0.0140691073064 -0.0288259904227 0.0214527053124
v -0.0140357196332 -0.0287575829022 0.014
v -0.0140357196332 -0.0287575829022 0.0212891737892
f 10 5 13
f 6 5 10
f 14 10 13
f 3 6 10
f 2 6 3
f 12 14 9
f 12 10 14
f 12 11 10
f 4 3 10
f 4 10 11
f 4 1 2
f 4 2 3
f 7 9 8
f 7 12 9
f 7 8 1
f 7 1 4
f 7 11 12
f 7 4 11
f 8 13 5
f 8 5 1
f 14 13 8
f 14 8 9
f 2 1 5
f 2 5 6
