# Parametric PetalDock simulation geometry; SI units
v -0.0486314971953 -0.0059981230848 0.014
v -0.0486314971953 -0.0059981230848 0.028968843597
v -0.048554229136 -0.0065944547168 0.014
v -0.048554229136 -0.0065944547168 0.0287325681204
v -0.0483833773117 -0.005967520416 0.0290986010665
v -0.0483065034771 -0.0065608095397 0.0288571891665
v -0.048135257428 -0.0059369177472 0.0292283585361
v -0.0480587778182 -0.0065271643626 0.0289818102126
v -0.0478871375444 -0.0059063150784 0.0293581160056
v -0.0478110521594 -0.0064935191855 0.0291064312587
v -0.0476390176607 -0.0058757124096 0.0294878734751
v -0.0475633265005 -0.0064598740083 0.0292310523048
v -0.0473908977771 -0.0058451097408 0.0296176309446
v -0.0473156008417 -0.0064262288312 0.0293556733509
v -0.0471427778934 -0.005814507072 0.0297473884141
v -0.0470678751828 -0.0063925836541 0.029480294397
v -0.0468946580098 -0.0057839044032 0.0298771458836
v -0.046820149524 -0.006358938477 0.0296049154431
v -0.0466465381261 -0.0057533017344 0.0300069033531
v -0.0465724238651 -0.0063252932998 0.0297295364892
v -0.0463984182425 -0.0057226990656 0.0301366608226
v -0.0463246982062 -0.0062916481227 0.0298541575352
v -0.0461502983588 -0.0056920963968 0.0302664182921
v -0.0460769725474 -0.0062580029456 0.0299787785813
v -0.0459021784752 -0.005661493728 0.0303961757616
v -0.0458292468885 -0.0062243577685 0.0301033996274
v -0.0456540585915 -0.0056308910592 0.0305259332311
v -0.0455815212297 -0.0061907125913 0.0302280206735
v -0.0454059387079 -0.0056002883904 0.0306556907006
v -0.0453337955708 -0.0061570674142 0.0303526417196
v -0.0451578188242 -0.0055696857216 0.0307854481701
v -0.045086069912 -0.0061234222371 0.0304772627657
v -0.0449096989406 -0.0055390830528 0.0309152056396
v -0.0448383442531 -0.0060897770599 0.0306018838118
v -0.0446615790569 -0.005508480384 0.0310449631091
v -0.0445906185943 -0.0060561318828 0.0307265048579
v -0.0444134591733 -0.0054778777152 0.0311747205786
v -0.0443428929354 -0.0060224867057 0.030851125904
v -0.0441653392896 -0.0054472750464 0.0313001527991
v -0.0440951672765 -0.0059888415286 0.0309715929152
v -0.043917219406 -0.0054166723776 0.0313812512175
v -0.0438474416177 -0.0059551963514 0.031049481069
v -0.0436690995223 -0.0053860697088 0.014
v -0.0436690995223 -0.0053860697088 0.0314082840237
v -0.0435997159588 -0.0059215511743 0.014
v -0.0435997159588 -0.0059215511743 0.031075443787
f 42 46 44
f 41 42 44
f 41 44 43
f 10 3 45
f 9 4 37
f 39 41 37
f 39 37 4
f 39 4 10
f 8 4 3
f 8 3 10
f 8 10 4
f 26 10 45
f 7 2 4
f 7 4 9
f 5 1 2
f 40 39 38
f 40 46 42
f 40 42 41
f 40 41 39
f 40 38 26
f 40 45 46
f 40 26 45
f 18 10 26
f 18 38 39
f 18 39 10
f 32 26 38
f 32 38 18
f 32 18 26
f 43 45 3
f 43 3 1
f 46 45 43
f 46 43 44
f 4 1 3
f 4 2 1
f 9 41 43
f 9 37 41
f 5 43 1
f 5 9 43
f 5 2 7
f 5 7 9
