# Parametric PetalDock simulation geometry; SI units
v 0.0329776386914 0.0012146383571 0.014
v 0.0329776386914 0.0012146383571 0.0293888888889
v 0.032990061017 0.0008098605413 0.014
v 0.032990061017 0.0008098605413 0.0293888888889
v 0.0332274692876 0.0012238401628 0.0295277777778
v 0.0332399857216 0.0008159958484 0.0295277777778
v 0.0334772998837 0.0012330419685 0.0296666666667
v 0.0334899104263 0.0008221311555 0.0296666666667
v 0.0337271304799 0.0012422437743 0.0298055555556
v 0.033739835131 0.0008282664626 0.0298055555556
v 0.033976961076 0.00125144558 0.0299444444444
v 0.0339897598357 0.0008344017698 0.0299444444444
v 0.0342267916722 0.0012606473857 0.0300833333333
v 0.0342396845403 0.0008405370769 0.0300833333333
v 0.0344766222683 0.0012698491915 0.0302222222222
v 0.034489609245 0.000846672384 0.0302222222222
v 0.0347264528644 0.0012790509972 0.0303611111111
v 0.0347395339497 0.0008528076912 0.0303611111111
v 0.0349762834606 0.0012882528029 0.0305
v 0.0349894586544 0.0008589429983 0.0305
v 0.0352261140567 0.0012974546087 0.0306388888889
v 0.035239383359 0.0008650783054 0.0306388888889
v 0.0354759446529 0.0013066564144 0.0307777777778
v 0.0354893080637 0.0008712136126 0.0307777777778
v 0.035725775249 0.0013158582202 0.0309166666667
v 0.0357392327684 0.0008773489197 0.0309166666667
v 0.0359756058452 0.0013250600259 0.0310555555556
v 0.0359891574731 0.0008834842268 0.0310555555556
v 0.0362254364413 0.0013342618316 0.0311944444444
v 0.0362390821777 0.000889619534 0.0311944444444
v 0.0364752670375 0.0013434636374 0.0313333333333
v 0.0364890068824 0.0008957548411 0.0313333333333
v 0.0367250976336 0.0013526654431 0.0314722222222
v 0.0367389315871 0.0009018901482 0.0314722222222
v 0.0369749282298 0.0013618672488 0.0316111111111
v 0.0369888562918 0.0009080254553 0.0316111111111
v 0.0372247588259 0.0013710690546 0.03175
v 0.0372387809964 0.0009141607625 0.03175
v 0.0374745894221 0.0013802708603 0.0318842592593
v 0.0374887057011 0.0009202960696 0.0318842592593
v 0.0377244200182 0.001389472666 0.0319710648148
v 0.0377386304058 0.0009264313767 0.0319710648148
v 0.0379742506144 0.0013986744718 0.014
v 0.0379742506144 0.0013986744718 0.032
v 0.0379885551105 0.0009325666839 0.014
v 0.0379885551105 0.0009325666839 0.032
f 10 3 45
f 10 4 3
f 42 45 46
f 6 2 4
f 6 4 10
f 25 43 1
f 25 1 2
f 36 10 45
f 36 45 42
f 41 46 44
f 41 42 46
f 41 44 39
f 7 2 6
f 7 25 2
f 7 6 25
f 28 36 38
f 37 25 38
f 37 44 43
f 37 43 25
f 37 39 44
f 40 36 42
f 40 38 36
f 40 41 39
f 40 42 41
f 40 39 37
f 40 37 38
f 22 10 36
f 22 36 28
f 22 28 38
f 22 6 10
f 22 25 6
f 22 38 25
f 3 43 45
f 3 1 43
f 2 1 3
f 2 3 4
f 46 45 43
f 46 43 44
