# Parametric PetalDock simulation geometry; SI units
v 0.0417164044622 0.0257048944512 0.014
v 0.0417164044622 0.0257048944512 0.019450617284
v 0.04202870189 0.0251910344655 0.014
v 0.04202870189 0.0251910344655 0.0197236467236
v 0.0420422039896 0.0259056462316 0.0195451797717
v 0.0423184034924 0.0260758353732 0.019552754158
v 0.0423569404185 0.0253877730682 0.0198080074636
v 0.0425029541 0.026189552122 0.0194708870664
v 0.0425677596553 0.0262294841339 0.014
v 0.0425677596553 0.0262294841339 0.0193518518519
v 0.0426352076066 0.0255545600021 0.0198066617913
v 0.0428211397972 0.0256660034684 0.0197186143472
v 0.0428864305 0.0257051372097 0.014
v 0.0428864305 0.0257051372097 0.019594017094
f 5 9 1
f 5 6 9
f 5 7 6
f 5 4 7
f 10 9 6
f 11 6 7
f 11 3 13
f 11 7 4
f 11 4 3
f 2 5 1
f 2 4 5
f 12 13 14
f 12 11 13
f 12 14 10
f 8 10 6
f 8 12 10
f 8 6 11
f 8 11 12
f 3 9 13
f 3 1 9
f 10 13 9
f 10 14 13
f 2 1 3
f 2 3 4
