# Parametric PetalDock simulation geometry; SI units
v 0.0345483833574 -0.0158243232837 0.014
v 0.0345483833574 -0.0158243232837 0.0218461538462
v 0.0347399707167 -0.0153991699322 0.014
v 0.0347399707167 -0.0153991699322 0.0222307692308
v 0.0347756753532 -0.0159284306737 0.0218461538462
v 0.0349685231557 -0.0155004802607 0.0222307692308
v 0.035002967349 -0.0160325380638 0.0218461538462
v 0.0351970755946 -0.0156017905892 0.0222307692308
v 0.0352302593448 -0.0161366454538 0.0218461538462
v 0.0354256280335 -0.0157031009177 0.0222307692308
v 0.0354575513405 -0.0162407528438 0.0218461538462
v 0.0356541804724 -0.0158044112462 0.0222307692308
v 0.0356848433363 -0.0163448602338 0.0218461538462
v 0.0358827329114 -0.0159057215747 0.0222307692308
v 0.0359121353321 -0.0164489676239 0.0218461538462
v 0.0361112853503 -0.0160070319032 0.0222307692308
v 0.0361394273278 -0.0165530750139 0.0218461538462
v 0.0363398377892 -0.0161083422317 0.0222307692308
v 0.0363667193236 -0.0166571824039 0.0218461538462
v 0.0365683902281 -0.0162096525602 0.0222307692308
v 0.0365940113194 -0.0167612897939 0.0218461538462
v 0.0367969426671 -0.0163109628887 0.0222307692308
v 0.0368213033152 -0.016865397184 0.0218461538462
v 0.037025495106 -0.0164122732172 0.0222307692308
v 0.0370485953109 -0.016969504574 0.0218461538462
v 0.0372540475449 -0.0165135835457 0.0222307692308
v 0.0372758873067 -0.017073611964 0.0218461538462
v 0.0374825999838 -0.0166148938742 0.0222307692308
v 0.0375031793025 -0.017177719354 0.0218461538462
v 0.0377111524228 -0.0167162042027 0.0222307692308
v 0.0377304712983 -0.0172818267441 0.0218461538462
v 0.0379397048617 -0.0168175145312 0.0222307692308
v 0.037957763294 -0.0173859341341 0.0218461538462
v 0.0381682573006 -0.0169188248597 0.0222307692308
v 0.0381850552898 -0.0174900415241 0.0218461538462
v 0.0383968097395 -0.0170201351882 0.0222307692308
v 0.0384123472856 -0.0175941489141 0.0218461538462
v 0.0386253621785 -0.0171214455167 0.0222307692308
v 0.0386396392813 -0.0176982563041 0.0218461538462
v 0.0388539146174 -0.0172227558452 0.0222307692308
v 0.0388669312771 -0.0178023636942 0.0218461538462
v 0.0390824670563 -0.0173240661737 0.0222307692308
v 0.0390942232729 -0.0179064710842 0.0218461538462
v 0.0393110194953 -0.0174253765022 0.0222307692308
v 0.0393215152687 -0.0180105784742 0.0218461538462
v 0.0395395719342 -0.0175266868307 0.0222307692308
v 0.0395488072644 -0.0181146858642 0.0218461538462
v 0.0397681243731 -0.0176279971592 0.0222307692308
v 0.0397760992602 -0.0182187932543 0.0218461538462
v 0.039996676812 -0.0177293074877 0.0222307692308
v 0.040003391256 -0.0183229006443 0.014
v 0.040003391256 -0.0183229006443 0.0218461538462
v 0.040225229251 -0.0178306178162 0.014
v 0.040225229251 -0.0178306178162 0.0222307692308
f 6 53 3
f 6 3 4
f 52 54 50
f 44 54 53
f 44 53 6
f 7 4 2
f 7 17 4
f 7 2 1
f 7 1 17
f 49 51 52
f 49 4 17
f 49 52 4
f 36 4 52
f 36 52 50
f 3 53 51
f 3 51 1
f 2 3 1
f 2 4 3
f 52 51 53
f 52 53 54
f 49 1 51
f 49 17 1
f 36 54 44
f 36 6 4
f 36 50 54
f 36 44 6
