# Parametric PetalDock simulation geometry; SI units
v -0.0287904095709 -0.0408792406576 0.014
v -0.0287904095709 -0.0408792406576 0.018141025641
v -0.0287465787822 -0.0408170057194 0.0182322506626
v -0.0286217592563 -0.04063977561 0.0182832159916
v -0.0284349536346 -0.040374532007 0.0182310413122
v -0.0282865905392 -0.0412294651393 0.014
v -0.0282865905392 -0.0412294651393 0.0183831908832
v -0.0282435267693 -0.041166697016 0.0184799779434
v -0.0282146013795 -0.0400616558444 0.014
v -0.0282146013795 -0.0400616558444 0.0180854700855
v -0.0281208915281 -0.0409879485242 0.0185371236249
v -0.0279373549195 -0.0407204325011 0.0184938690041
v -0.0277208587284 -0.0404048758365 0.014
v -0.0277208587284 -0.0404048758365 0.0183584995252
f 11 6 13
f 7 6 11
f 14 11 13
f 3 9 1
f 3 10 9
f 12 11 14
f 8 7 11
f 8 11 3
f 2 3 1
f 2 7 8
f 2 8 3
f 5 14 10
f 5 12 14
f 5 10 3
f 4 3 11
f 4 5 3
f 4 11 12
f 4 12 5
f 9 13 6
f 9 6 1
f 14 13 9
f 14 9 10
f 2 1 6
f 2 6 7
