# Parametric PetalDock simulation geometry; SI units
v -0.0359737317787 -0.0253355604224 0.014
v -0.0359737317787 -0.0253355604224 0.0160769230769
v -0.0357693355754 -0.0251916083745 0.0160769230769
v -0.0356601167231 -0.0257751057281 0.014
v -0.0356601167231 -0.0257751057281 0.0156923076923
v -0.0355649393721 -0.0250476563267 0.0160769230769
v -0.0354575024236 -0.0256286562637 0.0156923076923
v -0.0353605431688 -0.0249037042788 0.0160769230769
v -0.035254888124 -0.0254822067994 0.0156923076923
v -0.0351561469655 -0.024759752231 0.0160769230769
v -0.0350522738244 -0.025335757335 0.0156923076923
v -0.0349517507622 -0.0246158001831 0.0160769230769
v -0.0348496595249 -0.0251893078706 0.0156923076923
v -0.0347473545589 -0.0244718481353 0.0160769230769
v -0.0346470452253 -0.0250428584063 0.0156923076923
v -0.0345429583557 -0.0243278960874 0.0160769230769
v -0.0344444309257 -0.0248964089419 0.0156923076923
v -0.0343385621524 -0.0241839440395 0.0160769230769
v -0.0342418166262 -0.0247499594775 0.0156923076923
v -0.0341341659491 -0.0240399919917 0.0160769230769
v -0.0340392023266 -0.0246035100132 0.0156923076923
v -0.0339297697458 -0.0238960399438 0.0160769230769
v -0.033836588027 -0.0244570605488 0.0156923076923
v -0.0337253735425 -0.023752087896 0.0160769230769
v -0.0336339737275 -0.0243106110844 0.0156923076923
v -0.0335209773392 -0.0236081358481 0.0160769230769
v -0.0334313594279 -0.0241641616201 0.0156923076923
v -0.0333165811359 -0.0234641838003 0.0160769230769
v -0.0332287451284 -0.0240177121557 0.0156923076923
v -0.0331121849326 -0.0233202317524 0.0160769230769
v -0.0330261308288 -0.0238712626913 0.0156923076923
v -0.0329077887294 -0.0231762797046 0.0160769230769
v -0.0328235165292 -0.023724813227 0.0156923076923
v -0.0327033925261 -0.0230323276567 0.0160769230769
v -0.0326209022297 -0.0235783637626 0.0156923076923
v -0.0324989963228 -0.0228883756089 0.0160769230769
v -0.0324182879301 -0.0234319142983 0.0156923076923
v -0.0322946001195 -0.022744423561 0.0160769230769
v -0.0322156736305 -0.0232854648339 0.0156923076923
v -0.0320902039162 -0.0226004715132 0.0160769230769
v -0.032013059331 -0.0231390153695 0.0156923076923
v -0.0318858077129 -0.0224565194653 0.0160769230769
v -0.0318104450314 -0.0229925659052 0.0156923076923
v -0.0316814115096 -0.0223125674174 0.0160769230769
v -0.0316078307319 -0.0228461164408 0.0156923076923
v -0.0314770153063 -0.0221686153696 0.0160769230769
v -0.0314052164323 -0.0226996669764 0.0156923076923
v -0.031272619103 -0.0220246633217 0.0160769230769
v -0.0312026021327 -0.0225532175121 0.0156923076923
v -0.0310682228998 -0.0218807112739 0.014
v -0.0310682228998 -0.0218807112739 0.0160769230769
v -0.0309999878332 -0.0224067680477 0.0156923076923
v -0.0307973735336 -0.0222603185833 0.014
v -0.0307973735336 -0.0222603185833 0.0156923076923
f 49 4 53
f 54 49 53
f 54 51 49
f 14 2 5
f 9 51 5
f 9 5 4
f 18 50 1
f 46 5 51
f 37 4 49
f 37 9 4
f 37 49 51
f 37 51 9
f 3 1 2
f 3 18 1
f 44 51 50
f 44 50 18
f 40 14 5
f 40 5 46
f 50 53 4
f 50 4 1
f 5 1 4
f 5 2 1
f 54 53 50
f 54 50 51
f 40 46 51
f 40 2 14
f 40 3 2
f 40 51 44
f 40 18 3
f 40 44 18
