# Parametric PetalDock simulation geometry; SI units
v -0.0435237664385 -0.006456140876 0.014
v -0.0435237664385 -0.006456140876 0.0306923076923
v -0.0434412623989 -0.0069897583067 0.014
v -0.0434412623989 -0.0069897583067 0.0303076923077
v -0.043276472311 -0.0064194582574 0.0306923076923
v -0.0431944370444 -0.0069500437709 0.0303076923077
v -0.0430291781835 -0.0063827756388 0.0306923076923
v -0.0429476116899 -0.006910329235 0.0303076923077
v -0.042781884056 -0.0063460930202 0.0306923076923
v -0.0427007863353 -0.0068706146992 0.0303076923077
v -0.0425345899285 -0.0063094104016 0.0306923076923
v -0.0424539609808 -0.0068309001634 0.0303076923077
v -0.042287295801 -0.006272727783 0.0306923076923
v -0.0422071356262 -0.0067911856275 0.0303076923077
v -0.0420400016735 -0.0062360451644 0.0306923076923
v -0.0419603102717 -0.0067514710917 0.0303076923077
v -0.041792707546 -0.0061993625457 0.0306923076923
v -0.0417134849172 -0.0067117565559 0.0303076923077
v -0.0415454134185 -0.0061626799271 0.0306923076923
v -0.0414666595626 -0.00667204202 0.0303076923077
v -0.041298119291 -0.0061259973085 0.0306923076923
v -0.0412198342081 -0.0066323274842 0.0303076923077
v -0.0410508251635 -0.0060893146899 0.0306923076923
v -0.0409730088536 -0.0065926129484 0.0303076923077
v -0.040803531036 -0.0060526320713 0.0306923076923
v -0.040726183499 -0.0065528984125 0.0303076923077
v -0.0405562369086 -0.0060159494527 0.0306923076923
v -0.0404793581445 -0.0065131838767 0.0303076923077
v -0.0403089427811 -0.0059792668341 0.0306923076923
v -0.0402325327899 -0.0064734693409 0.0303076923077
v -0.0400616486536 -0.0059425842154 0.0306923076923
v -0.0399857074354 -0.006433754805 0.0303076923077
v -0.0398143545261 -0.0059059015968 0.0306923076923
v -0.0397388820809 -0.0063940402692 0.0303076923077
v -0.0395670603986 -0.0058692189782 0.0306923076923
v -0.0394920567263 -0.0063543257334 0.0303076923077
v -0.0393197662711 -0.0058325363596 0.0306923076923
v -0.0392452313718 -0.0063146111975 0.0303076923077
v -0.0390724721436 -0.005795853741 0.0306923076923
v -0.0389984060172 -0.0062748966617 0.0303076923077
v -0.0388251780161 -0.0057591711224 0.0306923076923
v -0.0387515806627 -0.0062351821259 0.0303076923077
v -0.0385778838886 -0.0057224885038 0.0306923076923
v -0.0385047553082 -0.00619546759 0.0303076923077
v -0.0383305897611 -0.0056858058851 0.0306923076923
v -0.0382579299536 -0.0061557530542 0.0303076923077
v -0.0380832956336 -0.0056491232665 0.0306923076923
v -0.0380111045991 -0.0061160385184 0.0303076923077
v -0.0378360015062 -0.0056124406479 0.0306923076923
v -0.0377642792445 -0.0060763239825 0.0303076923077
v -0.0375887073787 -0.0055757580293 0.014
v -0.0375887073787 -0.0055757580293 0.0306923076923
v -0.03751745389 -0.0060366094467 0.014
v -0.03751745389 -0.0060366094467 0.0303076923077
f 30 3 53
f 45 51 1
f 31 1 2
f 31 45 1
f 15 2 4
f 6 4 3
f 6 3 30
f 52 6 30
f 52 4 6
f 49 51 45
f 49 52 51
f 43 15 4
f 43 4 52
f 48 54 52
f 48 52 30
f 48 53 54
f 48 30 53
f 51 53 3
f 51 3 1
f 4 1 3
f 4 2 1
f 54 53 51
f 54 51 52
f 43 45 31
f 43 31 2
f 43 2 15
f 43 49 45
f 43 52 49
