# Parametric PetalDock simulation geometry; SI units
v 0 0.033 0.014
v 0 0.033 0.0293888888889
v 0 0.03325 0.0295277777778
v 0 0.0335 0.0296666666667
v 0 0.03375 0.0298055555556
v 0 0.034 0.0299444444444
v 0 0.03425 0.0300833333333
v 0 0.0345 0.0302222222222
v 0 0.03475 0.0303611111111
v 0 0.035 0.0305
v 0 0.03525 0.0306388888889
v 0 0.0355 0.0307777777778
v 0 0.03575 0.0309166666667
v 0 0.036 0.0310555555556
v 0 0.03625 0.0311944444444
v 0 0.0365 0.0313333333333
v 0 0.03675 0.0314722222222
v 0 0.037 0.0316111111111
v 0 0.03725 0.03175
v 0 0.0375 0.0318842592593
v 0 0.03775 0.0319710648148
v 0 0.038 0.014
v 0 0.038 0.032
v 0.0004049607634 0.0329975151607 0.014
v 0.0004049607634 0.0329975151607 0.0293888888889
v 0.000408028648 0.0332474963362 0.0295277777778
v 0.0004110965326 0.0334974775116 0.0296666666667
v 0.0004141644171 0.0337474586871 0.0298055555556
v 0.0004172323017 0.0339974398625 0.0299444444444
v 0.0004203001863 0.034247421038 0.0300833333333
v 0.0004233680709 0.0344974022135 0.0302222222222
v 0.0004264359554 0.0347473833889 0.0303611111111
v 0.00042950384 0.0349973645644 0.0305
v 0.0004325717246 0.0352473457398 0.0306388888889
v 0.0004356396091 0.0354973269153 0.0307777777778
v 0.0004387074937 0.0357473080907 0.0309166666667
v 0.0004417753783 0.0359972892662 0.0310555555556
v 0.0004448432629 0.0362472704417 0.0311944444444
v 0.0004479111474 0.0364972516171 0.0313333333333
v 0.000450979032 0.0367472327926 0.0314722222222
v 0.0004540469166 0.036997213968 0.0316111111111
v 0.0004571148011 0.0372471951435 0.03175
v 0.0004601826857 0.037497176319 0.0318842592593
v 0.0004632505703 0.0377471574944 0.0319710648148
v 0.0004663184549 0.0379971386699 0.014
v 0.0004663184549 0.0379971386699 0.032
f 27 24 45
f 27 45 31
f 27 25 24
f 27 2 25
f 27 5 2
f 44 41 46
f 44 43 41
f 44 46 23
f 44 23 21
f 44 21 20
f 44 20 43
f 38 46 41
f 42 19 41
f 42 41 43
f 42 20 19
f 42 43 20
f 36 19 14
f 36 41 19
f 36 14 5
f 36 5 27
f 37 27 41
f 37 41 36
f 37 36 27
f 24 22 45
f 24 1 22
f 2 1 24
f 2 24 25
f 46 45 22
f 46 22 23
f 5 22 1
f 5 23 22
f 5 1 2
f 5 21 23
f 5 19 20
f 5 20 21
f 5 14 19
f 38 45 46
f 38 31 45
f 38 27 31
f 38 41 27
