# Parametric PetalDock simulation geometry; SI units
v -0.0296700410288 -0.0389960083258 0.014
v -0.0296700410288 -0.0389960083258 0.0172674318796
v -0.0295186632685 -0.0387970490997 0.0171428108335
v -0.0293672855081 -0.0385980898735 0.0170181897874
v -0.0292159077478 -0.0383991306474 0.0168935687413
v -0.0291892659201 -0.0393571690426 0.014
v -0.0291892659201 -0.0393571690426 0.0175394112061
v -0.0290645299874 -0.0382001714212 0.0167689476952
v -0.029040341094 -0.0391563671597 0.017420702754
v -0.0289131522271 -0.0380012121951 0.0166443266491
v -0.0288914162679 -0.0389555652768 0.017301994302
v -0.0287617744667 -0.0378022529689 0.016519705603
v -0.0287424914418 -0.0387547633939 0.01718328585
v -0.0286103967064 -0.0376032937428 0.0163950845569
v -0.0285935666156 -0.0385539615111 0.0170645773979
v -0.028459018946 -0.0374043345166 0.0162704635108
v -0.0284446417895 -0.0383531596282 0.0169458689459
v -0.0283076411857 -0.0372053752905 0.0161458424648
v -0.0282957169634 -0.0381523577453 0.0168271604938
v -0.0281562634253 -0.0370064160643 0.0160212214187
v -0.0281467921373 -0.0379515558625 0.0167084520418
v -0.028004885665 -0.0368074568382 0.0158966003726
v -0.0279978673111 -0.0377507539796 0.0165897435897
v -0.0278535079046 -0.036608497612 0.0157719793265
v -0.027848942485 -0.0375499520967 0.0164710351377
v -0.0277021301442 -0.0364095383859 0.0156473582804
v -0.0277000176589 -0.0373491502138 0.0163523266857
v -0.0275510928328 -0.037148348331 0.0162336182336
v -0.0275507523839 -0.0362105791597 0.0155227372343
v -0.0274021680067 -0.0369475464481 0.0161149097816
v -0.0273993746235 -0.0360116199336 0.0153981161882
v -0.0272532431805 -0.0367467445652 0.0159962013295
v -0.0272479968632 -0.0358126607074 0.0152734951421
v -0.0271043183544 -0.0365459426824 0.0158774928775
v -0.0270966191028 -0.0356137014812 0.015148874096
v -0.0269553935283 -0.0363451407995 0.0157587844255
v -0.0269452413425 -0.0354147422551 0.0150284070848
v -0.0268064687022 -0.0361443389166 0.0156400759734
v -0.0267938635821 -0.0352157830289 0.014950518931
v -0.026657543876 -0.0359435370338 0.0155213675214
v -0.0266424858218 -0.0350168238028 0.014
v -0.0266424858218 -0.0350168238028 0.014924556213
v -0.0265086190499 -0.0357427351509 0.0154066160177
v -0.0263596942238 -0.035541933268 0.0153324232352
v -0.0262107693977 -0.0353411313851 0.014
v -0.0262107693977 -0.0353411313851 0.0153076923077
f 46 2 7
f 46 42 2
f 3 1 2
f 3 2 42
f 40 6 45
f 40 7 6
f 40 46 7
f 40 45 46
f 22 42 41
f 22 3 42
f 22 41 1
f 22 1 3
f 41 45 6
f 41 6 1
f 2 1 6
f 2 6 7
f 46 45 41
f 46 41 42
