# Parametric PetalDock simulation geometry; SI units
v 0.0329975151607 0.0004049607634 0.014
v 0.0329975151607 0.0004049607634 0.0293888888889
v 0.033 0 0.014
v 0.033 0 0.0293888888889
v 0.0332474963362 0.000408028648 0.0295277777778
v 0.03325 0 0.0295277777778
v 0.0334974775116 0.0004110965326 0.0296666666667
v 0.0335 0 0.0296666666667
v 0.0337474586871 0.0004141644171 0.0298055555556
v 0.03375 0 0.0298055555556
v 0.0339974398625 0.0004172323017 0.0299444444444
v 0.034 0 0.0299444444444
v 0.034247421038 0.0004203001863 0.0300833333333
v 0.03425 0 0.0300833333333
v 0.0344974022135 0.0004233680709 0.0302222222222
v 0.0345 0 0.0302222222222
v 0.0347473833889 0.0004264359554 0.0303611111111
v 0.03475 0 0.0303611111111
v 0.0349973645644 0.00042950384 0.0305
v 0.035 0 0.0305
v 0.0352473457398 0.0004325717246 0.0306388888889
v 0.03525 0 0.0306388888889
v 0.0354973269153 0.0004356396091 0.0307777777778
v 0.0355 0 0.0307777777778
v 0.0357473080907 0.0004387074937 0.0309166666667
v 0.03575 0 0.0309166666667
v 0.0359972892662 0.0004417753783 0.0310555555556
v 0.036 0 0.0310555555556
v 0.0362472704417 0.0004448432629 0.0311944444444
v 0.03625 0 0.0311944444444
v 0.0364972516171 0.0004479111474 0.0313333333333
v 0.0365 0 0.0313333333333
v 0.0367472327926 0.000450979032 0.0314722222222
v 0.03675 0 0.0314722222222
v 0.036997213968 0.0004540469166 0.0316111111111
v 0.037 0 0.0316111111111
v 0.0372471951435 0.0004571148011 0.03175
v 0.03725 0 0.03175
v 0.037497176319 0.0004601826857 0.0318842592593
v 0.0375 0 0.0318842592593
v 0.0377471574944 0.0004632505703 0.0319710648148
v 0.03775 0 0.0319710648148
v 0.0379971386699 0.0004663184549 0.014
v 0.0379971386699 0.0004663184549 0.032
v 0.038 0 0.014
v 0.038 0 0.032
f 7 43 1
f 7 15 43
f 7 1 2
f 7 2 4
f 41 44 35
f 41 35 39
f 41 46 44
f 41 42 46
f 41 40 42
f 41 39 40
f 29 35 44
f 37 39 35
f 37 35 38
f 37 38 40
f 37 40 39
f 25 28 38
f 25 38 35
f 10 7 4
f 10 28 25
f 10 25 7
f 27 35 7
f 27 25 35
f 27 7 25
f 3 43 45
f 3 1 43
f 2 1 3
f 2 3 4
f 46 45 43
f 46 43 44
f 29 44 43
f 29 43 15
f 29 15 7
f 29 7 35
f 10 3 45
f 10 4 3
f 10 45 46
f 10 46 42
f 10 42 40
f 10 40 38
f 10 38 28
