# Parametric PetalDock simulation geometry; SI units
v -0.0074134322366 0.0372698406553 0.014
v -0.0074134322366 0.0372698406553 0.0291538461538
v -0.0073646596561 0.0370246443352 0.0291340614118
v -0.0073158870756 0.0367794480151 0.0290747071858
v -0.0072671144951 0.036534251695 0.0289829059829
v -0.0072183419146 0.0362890553749 0.0288879392213
v -0.0071695693341 0.0360438590548 0.0287929724596
v -0.0071207967536 0.0357986627347 0.028698005698
v -0.0070720241731 0.0355534664146 0.0286030389364
v -0.0070232515926 0.0353082700945 0.0285080721747
v -0.0069744790121 0.0350630737744 0.0284131054131
v -0.0069555157423 0.0373580085224 0.014
v -0.0069555157423 0.0373580085224 0.0295384615385
v -0.0069257064316 0.0348178774543 0.0283181386515
v -0.0069097557703 0.0371122321505 0.0295174402501
v -0.0068769338511 0.0345726811342 0.0282231718898
v -0.0068639957983 0.0368664557787 0.0294543763849
v -0.0068281612706 0.0343274848141 0.0281282051282
v -0.0068182358263 0.0366206794068 0.0293568376068
v -0.0067793886901 0.034082288494 0.0280332383666
v -0.0067724758543 0.036374903035 0.0292559354226
v -0.0067306161096 0.0338370921739 0.0279382716049
v -0.0067267158824 0.0361291266631 0.0291550332384
v -0.0066818435291 0.0335918958538 0.0278433048433
v -0.0066809559104 0.0358833502912 0.0290541310541
v -0.0066351959384 0.0356375739194 0.0289532288699
v -0.0066330709485 0.0333466995337 0.0277483380817
v -0.0065894359664 0.0353917975475 0.0288523266857
v -0.006584298368 0.0331015032136 0.02765337132
v -0.0065436759944 0.0351460211757 0.0287514245014
v -0.0065355257875 0.0328563068935 0.0275584045584
v -0.0064979160224 0.0349002448038 0.0286505223172
v -0.006486753207 0.0326111105734 0.0274634377968
v -0.0064521560504 0.034654468432 0.028549620133
v -0.0064379806265 0.0323659142533 0.014
v -0.0064379806265 0.0323659142533 0.0273684710351
v -0.0064063960784 0.0344086920601 0.0284487179487
v -0.0063606361064 0.0341629156882 0.0283478157645
v -0.0063148761345 0.0339171393164 0.0282469135802
v -0.0062691161625 0.0336713629445 0.028146011396
v -0.0062233561905 0.0334255865727 0.0280451092118
v -0.0061775962185 0.0331798102008 0.0279442070275
v -0.0061318362465 0.0329340338289 0.0278433048433
v -0.0060860762745 0.0326882574571 0.0277424026591
v -0.0060403163025 0.0324424810852 0.014
v -0.0060403163025 0.0324424810852 0.0276415004748
f 17 4 5
f 19 17 36
f 15 3 4
f 15 4 17
f 15 17 13
f 15 13 2
f 15 2 3
f 23 19 36
f 21 45 12
f 21 19 23
f 21 17 19
f 33 36 17
f 33 17 20
f 6 17 5
f 6 20 17
f 24 35 36
f 24 36 33
f 24 33 20
f 24 1 35
f 44 36 46
f 28 23 36
f 28 36 44
f 28 21 23
f 38 44 46
f 38 46 45
f 38 45 21
f 38 21 28
f 38 28 44
f 35 12 45
f 35 1 12
f 2 12 1
f 2 13 12
f 46 35 45
f 46 36 35
f 21 12 13
f 21 13 17
f 24 2 1
f 24 3 2
f 24 4 3
f 24 5 4
f 24 6 5
f 24 20 6
