# Parametric PetalDock simulation geometry; SI units
v -0.049996235092 0.0006135769143 0.014
v -0.049996235092 0.0006135769143 0.0281666666667
v -0.0499849409348 0.0012270614261 0.014
v -0.0499849409348 0.0012270614261 0.0281666666667
v -0.0499201203562 0.0006126427991 0.0284881600858
v -0.0499088433934 0.0012251933364 0.0284881600858
v -0.0497033639275 0.0006099826639 0.0287949920093
v -0.04969213593 0.0012198734667 0.0287949920093
v -0.0493789650071 0.0006060014904 0.0291121077565
v -0.0493678102914 0.0012119117192 0.0291121077565
v -0.0489963103901 0.000601305376 0.014
v -0.0489963103901 0.000601305376 0.0293888888889
v -0.0489852421161 0.0012025201976 0.014
v -0.0489852421161 0.0012025201976 0.0293888888889
f 6 13 3
f 7 1 11
f 7 2 1
f 7 11 12
f 4 6 3
f 4 2 6
f 5 6 2
f 5 2 7
f 5 7 6
f 10 14 13
f 10 13 6
f 10 12 14
f 8 6 7
f 8 10 6
f 8 7 10
f 9 7 12
f 9 12 10
f 9 10 7
f 11 3 13
f 11 1 3
f 4 3 1
f 4 1 2
f 14 11 13
f 14 12 11
