# Parametric PetalDock simulation geometry; SI units
v 0.0298557695627 -0.0115166411691 0.014
v 0.0298557695627 -0.0115166411691 0.0229843304843
v 0.0299267894107 -0.0115440365475 0.0231867962777
v 0.0299948483812 -0.011149397768 0.014
v 0.0299948483812 -0.011149397768 0.0232264957265
v 0.030066199065 -0.0111759195608 0.0234345235584
v 0.0301290368267 -0.0116220519848 0.0233613686572
v 0.0302693886215 -0.0112514472367 0.0236152762904
v 0.0304317214749 -0.0117388103378 0.02348759515
v 0.0305734832827 -0.0113644823918 0.0237504228419
v 0.0307887623615 -0.0118765362057 0.014
v 0.0307887623615 -0.0118765362057 0.0235460588794
v 0.0309321873931 -0.0114978164482 0.014
v 0.0309321873931 -0.0114978164482 0.0238190883191
f 8 14 13
f 8 13 4
f 10 14 8
f 7 10 8
f 6 5 2
f 6 4 5
f 6 8 4
f 9 2 12
f 9 7 2
f 9 10 7
f 9 12 14
f 9 14 10
f 3 2 7
f 3 6 2
f 3 7 8
f 3 8 6
f 12 13 14
f 12 11 13
f 4 13 11
f 4 11 1
f 2 11 12
f 2 1 11
f 5 4 1
f 5 1 2
