# Parametric PetalDock simulation geometry; SI units
v 0.0432141419531 -0.0230984401045 0.014
v 0.0432141419531 -0.0230984401045 0.0208157644824
v 0.0434943413997 -0.022566396837 0.014
v 0.0434943413997 -0.022566396837 0.0210887939221
v 0.0435516386096 -0.0232788358257 0.0208593182311
v 0.0438340263764 -0.0227426373716 0.021122145923
v 0.0438377544596 -0.0234317679337 0.0208222923244
v 0.0440289309585 -0.0235339539013 0.0207095234702
v 0.0440960632174 -0.0235698368413 0.014
v 0.0440960632174 -0.0235698368413 0.0205626780627
v 0.0441219973946 -0.0228920468825 0.0210761999576
v 0.0443144134773 -0.0229918791259 0.0209572507509
v 0.0443819810201 -0.0230269355479 0.014
v 0.0443819810201 -0.0230269355479 0.0208048433048
f 4 6 3
f 4 5 6
f 2 5 4
f 7 2 10
f 7 5 2
f 7 6 5
f 7 11 6
f 12 10 14
f 12 6 11
f 12 14 13
f 12 13 3
f 12 3 6
f 8 7 10
f 8 10 12
f 8 11 7
f 8 12 11
f 3 13 9
f 3 9 1
f 2 3 1
f 2 4 3
f 10 1 9
f 10 2 1
f 10 9 13
f 10 13 14
