# Parametric PetalDock simulation geometry; SI units
v -0.0325809467992 -0.00524231873 0.014
v -0.0325809467992 -0.00524231873 0.0281875593542
v -0.0325141621988 -0.0056417423291 0.014
v -0.0325141621988 -0.0056417423291 0.0279145299145
v -0.0322031229037 -0.0051815263505 0.0279556659122
v -0.0321371127688 -0.0055763180467 0.0276928382203
v -0.0318828192714 -0.0051299890596 0.0276777984229
v -0.0318174656966 -0.0055208540182 0.0274238907896
v -0.0316687992266 -0.0050955529428 0.0273981600505
v -0.0316038843512 -0.0054837941392 0.0271504327697
v -0.0315936453811 -0.0050834605867 0.014
v -0.0315936453811 -0.0050834605867 0.0271011396011
v -0.0315288845564 -0.0054707804403 0.014
v -0.0315288845564 -0.0054707804403 0.026858974359
f 6 4 3
f 6 3 13
f 6 2 4
f 9 11 1
f 7 1 2
f 7 9 1
f 12 11 9
f 5 2 6
f 5 7 2
f 8 5 6
f 8 7 5
f 14 6 13
f 14 12 9
f 10 8 6
f 10 6 14
f 10 14 9
f 10 9 7
f 10 7 8
f 4 2 1
f 4 1 3
f 11 3 1
f 11 13 3
f 14 13 11
f 14 11 12
