# Parametric PetalDock simulation geometry; SI units
v -0.0327518246418 -0.0040395522816 0.014
v -0.0327518246418 -0.0040395522816 0.028968843597
v -0.0326997869691 -0.0044411633807 0.014
v -0.0326997869691 -0.0044411633807 0.0287325681204
v -0.0323720191669 -0.0039927077442 0.0287077574613
v -0.0323205849475 -0.0043896615733 0.0284803104202
v -0.0320500356327 -0.0039529948631 0.0284043648812
v -0.0319991129961 -0.0043460004491 0.0281846371216
v -0.0318348931133 -0.0039264595642 0.0281070411923
v -0.0317843123055 -0.0043168270187 0.0278926618148
v -0.0317593451072 -0.0039171416064 0.014
v -0.0317593451072 -0.0039171416064 0.0277941047556
v -0.0317088843337 -0.0043065826722 0.014
v -0.0317088843337 -0.0043065826722 0.0275845386807
f 10 3 13
f 5 1 2
f 5 11 1
f 6 4 3
f 6 3 10
f 6 2 4
f 6 5 2
f 8 6 10
f 8 5 6
f 14 10 13
f 9 14 12
f 9 10 14
f 9 12 11
f 9 11 5
f 7 8 10
f 7 10 9
f 7 5 8
f 7 9 5
f 4 2 1
f 4 1 3
f 11 3 1
f 11 13 3
f 14 13 11
f 14 11 12
