# Parametric PetalDock simulation geometry; SI units
v -0.0440960632174 0.0235698368413 0.014
v -0.0440960632174 0.0235698368413 0.0205626780627
v -0.0440289309585 0.0235339539013 0.0207095234702
v -0.0438377544596 0.0234317679337 0.0208222923244
v -0.0438035047098 0.024109188604 0.014
v -0.0438035047098 0.024109188604 0.0203205128205
v -0.0437368178446 0.0240724845498 0.0204617961894
v -0.0435516386096 0.0232788358257 0.0208593182311
v -0.04354690972 0.0239679602469 0.0205683846911
v -0.0432626921262 0.0238115285728 0.0205964905392
v -0.0432141419531 0.0230984401045 0.014
v -0.0432141419531 0.0230984401045 0.0208157644824
v -0.0429274346156 0.0236270048319 0.014
v -0.0429274346156 0.0236270048319 0.0205427350427
f 11 8 1
f 12 8 11
f 12 10 8
f 14 10 12
f 9 8 10
f 4 8 9
f 4 1 8
f 7 9 10
f 7 14 6
f 7 10 14
f 7 4 9
f 3 4 7
f 3 2 1
f 3 1 4
f 3 6 2
f 3 7 6
f 11 5 13
f 11 1 5
f 14 11 13
f 14 12 11
f 6 13 5
f 6 14 13
f 6 5 1
f 6 1 2
