# Parametric PetalDock simulation geometry; SI units
v 0.0111173651619 0.031070954151 0.014
v 0.0111173651619 0.031070954151 0.0240921177588
v 0.0112015876253 0.0313063401673 0.0241158594492
v 0.0112858100886 0.0315417261836 0.0241396011396
v 0.011370032552 0.0317771121999 0.02416334283
v 0.0114542550153 0.0320124982162 0.0241870845204
v 0.0114978164482 0.0309321873931 0.014
v 0.0114978164482 0.0309321873931 0.0238190883191
v 0.0115384774787 0.0322478842325 0.0242108262108
v 0.0115849211183 0.0311665221461 0.0238368945869
v 0.011622699942 0.0324832702488 0.0242345679012
v 0.0116720257884 0.0314008568991 0.0238547008547
v 0.0117069224054 0.0327186562651 0.0242583095916
v 0.0117591304584 0.031635191652 0.0238725071225
v 0.0117911448687 0.0329540422814 0.0242820512821
v 0.0118462351285 0.031869526405 0.0238903133903
v 0.0118753673321 0.0331894282977 0.0243057929725
v 0.0119333397985 0.032103861158 0.0239081196581
v 0.0119595897954 0.033424814314 0.0243295346629
v 0.0120204444686 0.032338195911 0.0239259259259
v 0.0120438122588 0.0336602003303 0.0243532763533
v 0.0121075491387 0.032572530664 0.0239437321937
v 0.0121280347221 0.0338955863466 0.0243770180437
v 0.0121946538087 0.0328068654169 0.0239615384615
v 0.0122122571855 0.0341309723629 0.0244007597341
v 0.0122817584788 0.0330412001699 0.0239793447293
v 0.0122964796488 0.0343663583792 0.0244245014245
v 0.0123688631489 0.0332755349229 0.0239971509972
v 0.0123807021122 0.0346017443955 0.0244482431149
v 0.0124559678189 0.0335098696759 0.024014957265
v 0.0124649245755 0.0348371304118 0.0244719848053
v 0.012543072489 0.0337442044289 0.0240327635328
v 0.0125491470389 0.0350725164281 0.0244957264957
v 0.012630177159 0.0339785391818 0.0240505698006
v 0.0126333695022 0.0353079024444 0.0245186767965
v 0.0127172818291 0.0342128739348 0.0240683760684
v 0.0127175919656 0.0355432884607 0.024533515353
v 0.0128018144289 0.035778674477 0.014
v 0.0128018144289 0.035778674477 0.0245384615385
v 0.0128043864992 0.0344472086878 0.0240861823362
v 0.0128914911692 0.0346815434408 0.024103988604
v 0.0129785958393 0.0349158781937 0.0241217948718
v 0.0130657005094 0.0351502129467 0.0241390075973
v 0.0131528051794 0.0353845476997 0.0241501365147
v 0.0132399098495 0.0356188824527 0.014
v 0.0132399098495 0.0356188824527 0.0241538461538
f 33 8 35
f 37 46 39
f 37 39 35
f 43 45 46
f 43 37 35
f 17 8 33
f 31 33 35
f 42 43 35
f 44 46 37
f 44 43 46
f 44 37 43
f 3 2 8
f 3 8 17
f 28 42 35
f 28 43 42
f 12 35 8
f 12 28 35
f 12 8 7
f 12 7 45
f 7 38 45
f 7 1 38
f 2 1 7
f 2 7 8
f 46 45 38
f 46 38 39
f 15 38 1
f 15 39 38
f 15 1 2
f 15 35 39
f 15 31 35
f 15 2 3
f 15 3 17
f 15 17 33
f 15 33 31
f 12 43 28
f 12 45 43
