# Parametric PetalDock simulation geometry; SI units
v -0.0485015626597 0.0121490089952 0.014
v -0.0485015626597 0.0121490089952 0.025405982906
v -0.0484277234273 0.0121305132303 0.0256640690852
v -0.0483488235522 0.0127432829802 0.014
v -0.0483488235522 0.0127432829802 0.0251638176638
v -0.0482752168512 0.0127238824871 0.0254163418045
v -0.0482174470836 0.0120778417482 0.0259004449899
v -0.0480656027011 0.0126686345568 0.0256465373567
v -0.047902746296 0.0119990133045 0.0261158720689
v -0.0477518929562 0.012585950186 0.025853044377
v -0.0475315314065 0.0119060288153 0.014
v -0.0475315314065 0.0119060288153 0.0262763532764
v -0.0473818470812 0.0124884173206 0.014
v -0.0473818470812 0.0124884173206 0.0260033238367
f 10 12 14
f 10 14 8
f 9 12 10
f 9 11 12
f 9 8 7
f 9 10 8
f 9 1 11
f 6 4 5
f 6 13 4
f 6 7 8
f 6 14 13
f 6 8 14
f 3 7 6
f 3 9 7
f 3 5 2
f 3 6 5
f 3 2 1
f 3 1 9
f 11 4 13
f 11 1 4
f 14 11 13
f 14 12 11
f 5 4 1
f 5 1 2
