# Parametric PetalDock simulation geometry; SI units
v -0.027438497206 -0.0183338176896 0.014
v -0.027438497206 -0.0183338176896 0.0186315289649
v -0.0272114469919 -0.0186691497559 0.014
v -0.0272114469919 -0.0186691497559 0.0183584995252
v -0.0271203075608 -0.018121210166 0.018756696696
v -0.0268958903272 -0.0184526535647 0.0184938690041
v -0.0268505594048 -0.0179409702105 0.0187910312581
v -0.0266703194493 -0.0178205377225 0.0187277052241
v -0.0266283743042 -0.0182691169561 0.0185371236249
v -0.0266070275937 -0.0177782474566 0.014
v -0.0266070275937 -0.0177782474566 0.0186253561254
v -0.0264496258123 -0.018146481715 0.0184799779434
v -0.0263868576891 -0.0181034179451 0.014
v -0.0263868576891 -0.0181034179451 0.0183831908832
f 12 7 9
f 5 7 2
f 5 9 7
f 6 12 9
f 6 5 2
f 6 9 5
f 8 7 12
f 8 11 2
f 8 2 7
f 8 14 11
f 8 12 14
f 4 14 12
f 4 12 6
f 4 6 2
f 10 13 3
f 10 3 1
f 11 10 1
f 11 1 2
f 14 13 10
f 14 10 11
f 4 3 13
f 4 13 14
f 4 1 3
f 4 2 1
