# Parametric PetalDock simulation geometry; SI units
v 0.0467119959774 -0.0147982915166 0.014
v 0.0467119959774 -0.0147982915166 0.0249112060779
v 0.0468900764509 -0.0142239491855 0.014
v 0.0468900764509 -0.0142239491855 0.0251842355176
v 0.047076810405 -0.0149138641899 0.0248017336095
v 0.0472562816631 -0.0143350363221 0.0250645613014
v 0.047386085143 -0.0150118419714 0.0246309068235
v 0.0475667354515 -0.0144292114492 0.0248848144568
v 0.0475927359163 -0.0150773086319 0.0244254326815
v 0.0476653020177 -0.015100297466 0.014
v 0.0476653020177 -0.015100297466 0.0241951566952
v 0.0477741740409 -0.0144921372574 0.0246731599622
v 0.0478470167866 -0.0145142338627 0.014
v 0.0478470167866 -0.0145142338627 0.0244373219373
f 7 1 10
f 7 2 1
f 11 7 10
f 8 13 3
f 8 14 13
f 5 4 2
f 5 2 7
f 12 11 14
f 12 14 8
f 6 4 5
f 6 3 4
f 6 8 3
f 6 7 8
f 6 5 7
f 9 7 11
f 9 11 12
f 9 8 7
f 9 12 8
f 3 13 10
f 3 10 1
f 2 3 1
f 2 4 3
f 11 10 13
f 11 13 14
