# Parametric PetalDock simulation geometry; SI units
v 0.0315936453811 0.0050834605867 0.014
v 0.0315936453811 0.0050834605867 0.0271011396011
v 0.0316536483189 0.0046953751826 0.014
v 0.0316536483189 0.0046953751826 0.0273433048433
v 0.0316687992266 0.0050955529428 0.0273981600505
v 0.0317289448972 0.0047065443749 0.0276458873312
v 0.0318828192714 0.0051299890596 0.0276777984229
v 0.0319433714109 0.0047383515435 0.0279317060562
v 0.0322031229037 0.0051815263505 0.0279556659122
v 0.0322642833668 0.0047859543354 0.028218493604
v 0.0325809467992 0.00524231873 0.014
v 0.0325809467992 0.00524231873 0.0281875593542
v 0.0326428248288 0.004842105657 0.014
v 0.0326428248288 0.004842105657 0.0284605887939
f 9 12 11
f 9 11 1
f 9 14 12
f 8 13 14
f 8 3 13
f 10 14 9
f 10 8 14
f 4 3 8
f 2 9 1
f 5 9 2
f 7 9 5
f 7 5 8
f 7 10 9
f 7 8 10
f 6 2 4
f 6 5 2
f 6 4 8
f 6 8 5
f 12 14 13
f 12 13 11
f 3 11 13
f 3 1 11
f 2 1 3
f 2 3 4
