# Parametric PetalDock simulation geometry; SI units
v 0.031306155863 -0.0066275640382 0.014
v 0.031306155863 -0.0066275640382 0.0261324786325
v 0.0313806258386 -0.0066433294529 0.0264072509275
v 0.0313851289729 -0.0062428903045 0.014
v 0.0313851289729 -0.0062428903045 0.0263746438746
v 0.031459786807 -0.006257740671 0.0266549782082
v 0.0315926983868 -0.0066882255558 0.0266621678898
v 0.0316723943306 -0.0063000309369 0.026916075523
v 0.0319100873844 -0.006755417322 0.0269043551446
v 0.0319905839758 -0.0063633227925 0.0271671828365
v 0.0322844732337 -0.0068346754143 0.014
v 0.0322844732337 -0.0068346754143 0.0270954415954
v 0.0323659142533 -0.0064379806265 0.014
v 0.0323659142533 -0.0064379806265 0.0273684710351
f 6 14 13
f 6 13 4
f 5 6 4
f 5 2 6
f 10 14 6
f 7 2 12
f 3 6 2
f 3 2 7
f 9 7 12
f 9 10 7
f 9 12 14
f 9 14 10
f 8 10 6
f 8 7 10
f 8 6 3
f 8 3 7
f 12 13 14
f 12 11 13
f 4 13 11
f 4 11 1
f 2 11 12
f 2 1 11
f 5 4 1
f 5 1 2
