# Parametric PetalDock simulation geometry; SI units
v -0.0199344079418 0.032351497338 0.014
v -0.0199344079418 0.032351497338 0.018
v -0.0198032605211 0.0321386585397 0.0180160751029
v -0.0196721131004 0.0319258197414 0.0180643004115
v -0.0195409656798 0.0317129809432 0.0181388888889
v -0.0195359042793 0.03259368718 0.014
v -0.0195359042793 0.03259368718 0.0183846153846
v -0.0194098182591 0.0315001421449 0.0182160493827
v -0.0194073785933 0.0323792550275 0.0183994539411
v -0.0192788529072 0.032164822875 0.0184439696106
v -0.0192786708384 0.0312873033466 0.0182932098765
v -0.0191503272212 0.0319503907225 0.0185128205128
v -0.0191475234178 0.0310744645483 0.0183703703704
v -0.0190218015351 0.03173595857 0.018584045584
v -0.0190163759971 0.0308616257501 0.0184475308642
v -0.0188932758491 0.0315215264175 0.0186552706553
v -0.0188852285764 0.0306487869518 0.018524691358
v -0.0187647501631 0.031307094265 0.0187264957265
v -0.0187540811558 0.0304359481535 0.0186018518519
v -0.018636224477 0.0310926621125 0.0187977207977
v -0.0186229337351 0.0302231093552 0.0186790123457
v -0.018507698791 0.03087822996 0.0188689458689
v -0.0184917863144 0.030010270557 0.0187561728395
v -0.0183791731049 0.0306637978075 0.0189401709402
v -0.0183606388937 0.0297974317587 0.0188333333333
v -0.0182506474189 0.030449365655 0.0190113960114
v -0.0182294914731 0.0295845929604 0.0189104938272
v -0.0181221217328 0.0302349335025 0.0190826210826
v -0.0180983440524 0.0293717541621 0.018987654321
v -0.0179935960468 0.03002050135 0.0191538461538
v -0.0179671966317 0.0291589153639 0.0190648148148
v -0.0178650703607 0.0298060691975 0.0192250712251
v -0.0178360492111 0.0289460765656 0.0191419753086
v -0.0177365446747 0.029591637045 0.0192962962963
v -0.0177049017904 0.0287332377673 0.0192191358025
v -0.0176080189886 0.0293772048925 0.0193675213675
v -0.0175737543697 0.028520398969 0.0192962962963
v -0.0174794933026 0.02916277274 0.0194387464387
v -0.0174426069491 0.0283075601708 0.0193734567901
v -0.0173509676165 0.0289483405875 0.01950997151
v -0.0173114595284 0.0280947213725 0.014
v -0.0173114595284 0.0280947213725 0.019450617284
v -0.0172224419305 0.028733908435 0.0195811965812
v -0.0170939162444 0.0285194762825 0.0196524216524
v -0.0169653905584 0.02830504413 0.014
v -0.0169653905584 0.02830504413 0.0197236467236
f 44 46 45
f 44 45 6
f 44 7 46
f 13 1 41
f 13 2 1
f 14 6 7
f 14 44 6
f 14 7 44
f 42 7 2
f 42 46 7
f 39 41 42
f 39 42 2
f 19 13 41
f 19 41 39
f 19 2 13
f 19 39 2
f 41 6 45
f 41 1 6
f 2 7 6
f 2 6 1
f 42 41 45
f 42 45 46
