# Parametric PetalDock simulation geometry; SI units
v 0.0039171416064 0.0317593451072 0.014
v 0.0039171416064 0.0317593451072 0.0277941047556
v 0.0039264595642 0.0318348931133 0.0281070411923
v 0.0039529948631 0.0320500356327 0.0284043648812
v 0.0039927077442 0.0323720191669 0.0287077574613
v 0.0040395522816 0.0327518246418 0.014
v 0.0040395522816 0.0327518246418 0.028968843597
v 0.0043065826722 0.0317088843337 0.014
v 0.0043065826722 0.0317088843337 0.0275845386807
v 0.0043168270187 0.0317843123055 0.0278926618148
v 0.0043460004491 0.0319991129961 0.0281846371216
v 0.0043896615733 0.0323205849475 0.0284803104202
v 0.0044411633807 0.0326997869691 0.014
v 0.0044411633807 0.0326997869691 0.0287325681204
f 3 2 9
f 3 1 2
f 5 3 4
f 5 7 6
f 5 6 1
f 5 1 3
f 11 5 4
f 10 8 13
f 10 9 8
f 10 3 9
f 10 4 3
f 10 11 4
f 12 11 10
f 12 5 11
f 12 13 14
f 12 10 13
f 12 14 7
f 12 7 5
f 8 6 13
f 8 1 6
f 2 1 8
f 2 8 9
f 14 13 6
f 14 6 7
