# Parametric PetalDock simulation geometry; SI units
v -0.048915868536 0.0103555688096 0.014
v -0.048915868536 0.0103555688096 0.0261324786325
v -0.0488413985604 0.0103398033948 0.0264072509275
v -0.0487851065019 0.0109550620078 0.014
v -0.0487851065019 0.0109550620078 0.0258903133903
v -0.0487108355997 0.010938383919 0.0261595236467
v -0.0486293260123 0.010294907292 0.0266621678898
v -0.0484993299645 0.0108908887404 0.0264082602565
v -0.0483119370146 0.0102277155257 0.0269043551446
v -0.048182789412 0.0108198071823 0.0266415274527
v -0.0479375511653 0.0101484574334 0.014
v -0.0479375511653 0.0101484574334 0.0270954415954
v -0.0478094043719 0.0107359607677 0.014
v -0.0478094043719 0.0107359607677 0.0268224121557
f 8 13 4
f 8 14 13
f 10 12 14
f 10 14 8
f 5 8 4
f 3 1 11
f 3 2 1
f 3 5 2
f 9 12 10
f 9 7 3
f 9 8 7
f 9 10 8
f 9 11 12
f 9 3 11
f 6 8 5
f 6 5 3
f 6 7 8
f 6 3 7
f 11 4 13
f 11 1 4
f 14 11 13
f 14 12 11
f 5 4 1
f 5 1 2
