# Parametric PetalDock simulation geometry; SI units
v -0.0480215259708 0.0139259844693 0.014
v -0.0480215259708 0.0139259844693 0.0246794871795
v -0.0479484175506 0.0139047834203 0.024920887243
v -0.0478470167866 0.0145142338627 0.014
v -0.0478470167866 0.0145142338627 0.0244373219373
v -0.0477741740409 0.0144921372574 0.0246731599622
v -0.0477402223845 0.0138444079409 0.0251387220901
v -0.0475667354515 0.0144292114492 0.0248848144568
v -0.0474286362991 0.0137540496506 0.0253273889933
v -0.0472562816631 0.0143350363221 0.0250645613014
v -0.0470610954514 0.0136474647799 0.014
v -0.0470610954514 0.0136474647799 0.0254572649573
v -0.0468900764509 0.0142239491855 0.014
v -0.0468900764509 0.0142239491855 0.0251842355176
f 7 1 11
f 7 11 12
f 10 12 14
f 9 7 12
f 9 12 10
f 9 8 7
f 9 10 8
f 3 5 2
f 3 2 1
f 3 1 7
f 6 13 4
f 6 14 13
f 6 4 5
f 6 10 14
f 6 8 10
f 6 5 3
f 6 7 8
f 6 3 7
f 11 4 13
f 11 1 4
f 14 11 13
f 14 12 11
f 5 4 1
f 5 1 2
