# Parametric PetalDock simulation geometry; SI units
v 0.0150846955784 0.0282214804591 0.014
v 0.0150846955784 0.0282214804591 0.0205626780627
v 0.0151205785184 0.0282886127181 0.0207095234702
v 0.015222764486 0.028479789217 0.0208222923244
v 0.015375696594 0.028765905067 0.0208593182311
v 0.0154298807065 0.0280342430143 0.014
v 0.0154298807065 0.0280342430143 0.0203205128205
v 0.0154665847607 0.0281009298794 0.0204617961894
v 0.0155560923153 0.0291034017235 0.014
v 0.0155560923153 0.0291034017235 0.0208157644824
v 0.0155711090636 0.028290838004 0.0205683846911
v 0.0157275407377 0.0285750555978 0.0205964905392
v 0.0159120644786 0.0289103131084 0.014
v 0.0159120644786 0.0289103131084 0.0205427350427
f 5 9 1
f 10 9 5
f 12 10 5
f 14 12 13
f 14 10 12
f 3 2 7
f 3 1 2
f 3 5 1
f 3 4 5
f 11 12 5
f 11 5 4
f 11 6 13
f 11 13 12
f 8 7 6
f 8 6 11
f 8 3 7
f 8 4 3
f 8 11 4
f 6 9 13
f 6 1 9
f 2 1 6
f 2 6 7
f 14 13 9
f 14 9 10
