# Parametric PetalDock simulation geometry; SI units
v 0.0378775122148 -0.031085270924 0.014
v 0.0378775122148 -0.031085270924 0.0167161224341
v 0.0381733305083 -0.0313280427235 0.0169128593498
v 0.0382561242 -0.030618114919 0.014
v 0.0382561242 -0.030618114919 0.0168473865878
v 0.0384241131483 -0.0315338547172 0.0170097715539
v 0.0385548994024 -0.0308572382926 0.0170392188171
v 0.0385916807511 -0.0316713738948 0.0169898030699
v 0.0386505226681 -0.0317196642082 0.014
v 0.0386505226681 -0.0317196642082 0.0169264738111
v 0.0388081887887 -0.0310599573003 0.0171318425314
v 0.0389774313458 -0.0311954098108 0.0171089027241
v 0.0390368614286 -0.0312429744071 0.014
v 0.0390368614286 -0.0312429744071 0.0170428994083
f 4 11 13
f 14 13 11
f 3 1 9
f 10 3 9
f 10 6 3
f 8 11 6
f 8 6 10
f 2 1 3
f 2 3 5
f 7 5 3
f 7 6 11
f 7 3 6
f 7 4 5
f 7 11 4
f 12 10 14
f 12 8 10
f 12 14 11
f 12 11 8
f 4 13 9
f 4 9 1
f 10 9 13
f 10 13 14
f 2 4 1
f 2 5 4
