# Parametric PetalDock simulation geometry; SI units
v -0.0353553390593 0.0353553390593 0.014
v -0.0353553390593 0.0353553390593 0.0168333333333
v -0.0353015137606 0.0353015137606 0.0168945233466
v -0.0351482322781 0.0351482322781 0.0169121147719
v -0.0349188303282 0.0349188303282 0.016811771776
v -0.0349188124704 0.0357865412642 0.014
v -0.0349188124704 0.0357865412642 0.0168333333333
v -0.0348656517439 0.0357320594992 0.0168945233466
v -0.0347142628028 0.035576908559 0.0169121147719
v -0.0346482322781 0.0346482322781 0.014
v -0.0346482322781 0.0346482322781 0.0166111111111
v -0.0344876932412 0.0353447087678 0.016811771776
v -0.034220436221 0.0350708104389 0.014
v -0.034220436221 0.0350708104389 0.0166111111111
f 12 13 6
f 7 12 6
f 14 13 12
f 14 12 11
f 5 12 4
f 5 11 12
f 8 7 2
f 3 8 2
f 9 4 12
f 9 3 4
f 9 8 3
f 9 12 7
f 9 7 8
f 10 6 13
f 10 1 6
f 7 6 1
f 7 1 2
f 14 10 13
f 14 11 10
f 3 1 10
f 3 2 1
f 3 5 4
f 3 10 11
f 3 11 5
