# Parametric PetalDock simulation geometry; SI units
v 0.0154298807065 0.0280342430143 0.014
v 0.0154298807065 0.0280342430143 0.0203205128205
v 0.0154665847607 0.0281009298794 0.0204617961894
v 0.0155711090636 0.028290838004 0.0205683846911
v 0.0157275407377 0.0285750555978 0.0205964905392
v 0.0157727421514 0.0278427837155 0.014
v 0.0157727421514 0.0278427837155 0.0200783475783
v 0.0158102617922 0.027909015144 0.0202140689087
v 0.0159120644786 0.0289103131084 0.014
v 0.0159120644786 0.0289103131084 0.0205427350427
v 0.0159171086894 0.028097626295 0.0203144770578
v 0.0160770163716 0.0283799028304 0.0203336628474
v 0.0162656403436 0.0287128707066 0.014
v 0.0162656403436 0.0287128707066 0.020269705603
f 2 5 10
f 12 10 5
f 4 5 2
f 14 10 12
f 3 2 7
f 3 4 2
f 11 12 5
f 11 5 4
f 8 4 3
f 8 11 4
f 8 3 7
f 8 12 11
f 8 7 14
f 8 14 12
f 6 9 13
f 6 1 9
f 2 1 6
f 2 6 7
f 2 9 1
f 2 10 9
f 14 13 9
f 14 9 10
f 14 6 13
f 14 7 6
