# Parametric PetalDock simulation geometry; SI units
v -0.0421053747722 0.0127725257992 0.014
v -0.0421053747722 0.0127725257992 0.0260769230769
v -0.0419454657756 0.01328826177 0.014
v -0.0419454657756 0.01328826177 0.0256923076923
v -0.0418661396883 0.0126999546299 0.0260769230769
v -0.0417071392655 0.0132127602827 0.0256923076923
v -0.0416269046044 0.0126273834606 0.0260769230769
v -0.0414688127554 0.0131372587954 0.0256923076923
v -0.0413876695204 0.0125548122913 0.0260769230769
v -0.0412304862453 0.0130617573081 0.0256923076923
v -0.0411484344365 0.0124822411219 0.0260769230769
v -0.0409921597352 0.0129862558207 0.0256923076923
v -0.0409091993526 0.0124096699526 0.0260769230769
v -0.0407538332251 0.0129107543334 0.0256923076923
v -0.0406699642686 0.0123370987833 0.0260769230769
v -0.0405155067151 0.0128352528461 0.0256923076923
v -0.0404307291847 0.012264527614 0.0260769230769
v -0.040277180205 0.0127597513587 0.0256923076923
v -0.0401914941008 0.0121919564447 0.0260769230769
v -0.0400388536949 0.0126842498714 0.0256923076923
v -0.0399522590168 0.0121193852754 0.0260769230769
v -0.0398005271848 0.0126087483841 0.0256923076923
v -0.0397130239329 0.0120468141061 0.0260769230769
v -0.0395622006747 0.0125332468967 0.0256923076923
v -0.039473788849 0.0119742429367 0.0260769230769
v -0.0393238741646 0.0124577454094 0.0256923076923
v -0.039234553765 0.0119016717674 0.0260769230769
v -0.0390855476545 0.0123822439221 0.0256923076923
v -0.0389953186811 0.0118291005981 0.0260769230769
v -0.0388472211444 0.0123067424348 0.0256923076923
v -0.0387560835972 0.0117565294288 0.0260769230769
v -0.0386088946343 0.0122312409474 0.0256923076923
v -0.0385168485132 0.0116839582595 0.0260769230769
v -0.0383705681243 0.0121557394601 0.0256923076923
v -0.0382776134293 0.0116113870902 0.0260769230769
v -0.0381322416142 0.0120802379728 0.0256923076923
v -0.0380383783454 0.0115388159209 0.0260769230769
v -0.0378939151041 0.0120047364854 0.0256923076923
v -0.0377991432614 0.0114662447516 0.0260769230769
v -0.037655588594 0.0119292349981 0.0256923076923
v -0.0375599081775 0.0113936735822 0.0260769230769
v -0.0374172620839 0.0118537335108 0.0256923076923
v -0.0373206730936 0.0113211024129 0.0260769230769
v -0.0371789355738 0.0117782320234 0.0256923076923
v -0.0370814380096 0.0112485312436 0.0260769230769
v -0.0369406090637 0.0117027305361 0.0256923076923
v -0.0368422029257 0.0111759600743 0.0260769230769
v -0.0367022825536 0.0116272290488 0.0256923076923
v -0.0366029678418 0.011103388905 0.0260769230769
v -0.0364639560435 0.0115517275615 0.0256923076923
v -0.0363637327578 0.0110308177357 0.014
v -0.0363637327578 0.0110308177357 0.0260769230769
v -0.0362256295335 0.0114762260741 0.014
v -0.0362256295335 0.0114762260741 0.0256923076923
f 10 53 3
f 4 10 3
f 25 1 51
f 11 2 1
f 11 1 25
f 52 10 4
f 9 4 2
f 39 52 4
f 39 4 9
f 41 25 51
f 41 51 43
f 49 51 52
f 49 43 51
f 50 52 54
f 50 10 52
f 50 54 53
f 50 53 10
f 51 3 53
f 51 1 3
f 4 3 1
f 4 1 2
f 54 51 53
f 54 52 51
f 49 11 25
f 49 2 11
f 49 52 39
f 49 9 2
f 49 25 41
f 49 39 9
f 49 41 43
