# Parametric PetalDock simulation geometry; SI units
v -0.0497592363336 -0.0049008570165 0.014
v -0.0497592363336 -0.0049008570165 0.0280735261889
v -0.0496953485001 -0.0055111103647 0.014
v -0.0496953485001 -0.0055111103647 0.0279571005917
v -0.049683482407 -0.0048933959059 0.0283928803624
v -0.0496196918369 -0.0055027201987 0.0282737807082
v -0.0494677534757 -0.0048721484607 0.0286973352273
v -0.0494042398885 -0.0054788270276 0.0285752642497
v -0.049144892314 -0.0048403494118 0.0290110201827
v -0.0490817932608 -0.00544306837 0.0288846607154
v -0.0487640516069 -0.0048028398761 0.014
v -0.0487640516069 -0.0048028398761 0.0292838775659
v -0.0487014415301 -0.0054008881574 0.014
v -0.0487014415301 -0.0054008881574 0.0291526134122
f 7 12 11
f 10 14 12
f 4 10 8
f 4 14 10
f 9 12 7
f 9 10 12
f 9 7 8
f 9 8 10
f 6 8 7
f 6 4 8
f 5 2 4
f 5 4 6
f 5 6 7
f 5 1 2
f 5 11 1
f 5 7 11
f 11 13 3
f 11 3 1
f 14 13 11
f 14 11 12
f 4 1 3
f 4 2 1
f 4 3 13
f 4 13 14
