# Parametric PetalDock simulation geometry; SI units
v -0.0027954534168 0.0378970373538 0.014
v -0.0027954534168 0.0378970373538 0.032
v -0.0027770622759 0.0376477147396 0.0319710648148
v -0.002758671135 0.0373983921255 0.0318842592593
v -0.0027402799941 0.0371490695113 0.03175
v -0.0027218888532 0.0368997468971 0.0316111111111
v -0.0027034977123 0.0366504242829 0.0314722222222
v -0.0026851065714 0.0364011016688 0.0313333333333
v -0.0026667154305 0.0361517790546 0.0311944444444
v -0.0026483242896 0.0359024564404 0.0310555555556
v -0.0026299331487 0.0356531338263 0.0309166666667
v -0.0026115420078 0.0354038112121 0.0307777777778
v -0.0025931508669 0.0351544885979 0.0306388888889
v -0.002574759726 0.0349051659838 0.0305
v -0.0025563685851 0.0346558433696 0.0303611111111
v -0.0025379774442 0.0344065207554 0.0302222222222
v -0.0025195863033 0.0341571981412 0.0300833333333
v -0.0025011951624 0.0339078755271 0.0299444444444
v -0.0024828040215 0.0336585529129 0.0298055555556
v -0.0024644128806 0.0334092302987 0.0296666666667
v -0.0024460217397 0.0331599076846 0.0295277777778
v -0.0024276305988 0.0329105850704 0.014
v -0.0024276305988 0.0329105850704 0.0293888888889
v -0.0023301879795 0.0379284882902 0.014
v -0.0023301879795 0.0379284882902 0.032
v -0.0023148577954 0.037678958762 0.0319710648148
v -0.0022995276113 0.0374294292338 0.0318842592593
v -0.0022841974273 0.0371798997055 0.03175
v -0.0022688672432 0.0369303701773 0.0316111111111
v -0.0022535370591 0.0366808406491 0.0314722222222
v -0.002238206875 0.0364313111209 0.0313333333333
v -0.002222876691 0.0361817815926 0.0311944444444
v -0.0022075465069 0.0359322520644 0.0310555555556
v -0.0021922163228 0.0356827225362 0.0309166666667
v -0.0021768861387 0.035433193008 0.0307777777778
v -0.0021615559547 0.0351836634797 0.0306388888889
v -0.0021462257706 0.0349341339515 0.0305
v -0.0021308955865 0.0346846044233 0.0303611111111
v -0.0021155654024 0.0344350748951 0.0302222222222
v -0.0021002352184 0.0341855453668 0.0300833333333
v -0.0020849050343 0.0339360158386 0.0299444444444
v -0.0020695748502 0.0336864863104 0.0298055555556
v -0.0020542446661 0.0334369567822 0.0296666666667
v -0.002038914482 0.0331874272539 0.0295277777778
v -0.002023584298 0.0329378977257 0.014
v -0.002023584298 0.0329378977257 0.0293888888889
f 44 45 24
f 27 44 24
f 3 2 1
f 3 1 7
f 3 25 2
f 17 1 22
f 17 7 1
f 4 27 3
f 4 28 27
f 26 25 3
f 26 3 27
f 31 44 27
f 31 27 28
f 5 28 4
f 5 3 7
f 5 4 3
f 20 17 22
f 20 22 23
f 20 23 44
f 46 45 44
f 46 44 23
f 35 33 44
f 35 44 31
f 10 5 7
f 10 44 33
f 10 20 44
f 10 33 28
f 10 28 5
f 25 1 2
f 25 24 1
f 22 1 24
f 22 24 45
f 26 24 25
f 26 27 24
f 46 22 45
f 46 23 22
f 35 31 28
f 35 28 33
f 10 17 20
f 10 7 17
