# Parametric PetalDock simulation geometry; SI units
v -0.0049008570165 -0.0497592363336 0.014
v -0.0049008570165 -0.0497592363336 0.0280735261889
v -0.0048933959059 -0.049683482407 0.0283928803624
v -0.0048721484607 -0.0494677534757 0.0286973352273
v -0.0048403494118 -0.049144892314 0.0290110201827
v -0.0048028398761 -0.0487640516069 0.014
v -0.0048028398761 -0.0487640516069 0.0292838775659
v -0.0042898656172 -0.0498156306091 0.014
v -0.0042898656172 -0.0498156306091 0.0281433815472
v -0.0042833346857 -0.0497397908273 0.028464340155
v -0.0042647361662 -0.0495238174012 0.0287705778138
v -0.0042369015149 -0.0492005903271 0.029086835863
v -0.0042040683049 -0.048819317997 0.014
v -0.0042040683049 -0.048819317997 0.0293626360581
f 11 13 14
f 11 8 13
f 11 9 8
f 10 2 9
f 10 9 11
f 5 14 7
f 5 7 2
f 12 11 14
f 12 14 5
f 3 2 10
f 3 10 11
f 4 3 11
f 4 11 12
f 4 12 5
f 4 5 2
f 4 2 3
f 6 13 8
f 6 8 1
f 2 8 9
f 2 1 8
f 7 13 6
f 7 14 13
f 7 6 1
f 7 1 2
