# Parametric PetalDock simulation geometry; SI units
v 0.0077753657569 -0.0310410001022 0.014
v 0.0077753657569 -0.0310410001022 0.025405982906
v 0.0077938615218 -0.0311148393347 0.0256640690852
v 0.0078465330039 -0.0313251156783 0.0259004449899
v 0.0079253614476 -0.0316398164659 0.0261158720689
v 0.0080183459368 -0.0320110313554 0.014
v 0.0080183459368 -0.0320110313554 0.0262763532764
v 0.0081557011073 -0.0309432470734 0.014
v 0.0081557011073 -0.0309432470734 0.0251638176638
v 0.0081751016005 -0.0310168537745 0.0254163418045
v 0.0082303495308 -0.0312264679246 0.0256465373567
v 0.0083130339015 -0.0315401776695 0.025853044377
v 0.0084105667669 -0.0319102235445 0.014
v 0.0084105667669 -0.0319102235445 0.0260033238367
f 4 2 7
f 3 9 2
f 3 2 4
f 5 4 7
f 11 13 8
f 11 14 13
f 11 4 5
f 10 8 9
f 10 11 8
f 10 9 3
f 10 3 4
f 10 4 11
f 12 14 11
f 12 11 5
f 12 7 14
f 12 5 7
f 8 13 6
f 8 6 1
f 2 1 6
f 2 6 7
f 2 8 1
f 2 9 8
f 14 6 13
f 14 7 6
