# Parametric PetalDock simulation geometry; SI units
v -0.040003391256 -0.0183229006443 0.014
v -0.040003391256 -0.0183229006443 0.0218461538462
v -0.0397760992602 -0.0182187932543 0.0218461538462
v -0.0397755288974 -0.0188124241109 0.014
v -0.0397755288974 -0.0188124241109 0.0214615384615
v -0.0395495315742 -0.0187055353376 0.0214615384615
v -0.0395488072644 -0.0181146858642 0.0218461538462
v -0.0393235342509 -0.0185986465642 0.0214615384615
v -0.0393215152687 -0.0180105784742 0.0218461538462
v -0.0390975369276 -0.0184917577909 0.0214615384615
v -0.0390942232729 -0.0179064710842 0.0218461538462
v -0.0388715396043 -0.0183848690175 0.0214615384615
v -0.0388669312771 -0.0178023636942 0.0218461538462
v -0.038645542281 -0.0182779802441 0.0214615384615
v -0.0386396392813 -0.0176982563041 0.0218461538462
v -0.0384195449577 -0.0181710914708 0.0214615384615
v -0.0384123472856 -0.0175941489141 0.0218461538462
v -0.0381935476345 -0.0180642026974 0.0214615384615
v -0.0381850552898 -0.0174900415241 0.0218461538462
v -0.0379675503112 -0.0179573139241 0.0214615384615
v -0.037957763294 -0.0173859341341 0.0218461538462
v -0.0377415529879 -0.0178504251507 0.0214615384615
v -0.0377304712983 -0.0172818267441 0.0218461538462
v -0.0375155556646 -0.0177435363774 0.0214615384615
v -0.0375031793025 -0.017177719354 0.0218461538462
v -0.0372895583413 -0.017636647604 0.0214615384615
v -0.0372758873067 -0.017073611964 0.0218461538462
v -0.0370635610181 -0.0175297588306 0.0214615384615
v -0.0370485953109 -0.016969504574 0.0218461538462
v -0.0368375636948 -0.0174228700573 0.0214615384615
v -0.0368213033152 -0.016865397184 0.0218461538462
v -0.0366115663715 -0.0173159812839 0.0214615384615
v -0.0365940113194 -0.0167612897939 0.0218461538462
v -0.0363855690482 -0.0172090925106 0.0214615384615
v -0.0363667193236 -0.0166571824039 0.0218461538462
v -0.0361595717249 -0.0171022037372 0.0214615384615
v -0.0361394273278 -0.0165530750139 0.0218461538462
v -0.0359335744017 -0.0169953149639 0.0214615384615
v -0.0359121353321 -0.0164489676239 0.0218461538462
v -0.0357075770784 -0.0168884261905 0.0214615384615
v -0.0356848433363 -0.0163448602338 0.0218461538462
v -0.0354815797551 -0.0167815374171 0.0214615384615
v -0.0354575513405 -0.0162407528438 0.0218461538462
v -0.0352555824318 -0.0166746486438 0.0214615384615
v -0.0352302593448 -0.0161366454538 0.0218461538462
v -0.0350295851085 -0.0165677598704 0.0214615384615
v -0.035002967349 -0.0160325380638 0.0218461538462
v -0.0348035877853 -0.0164608710971 0.0214615384615
v -0.0347756753532 -0.0159284306737 0.0218461538462
v -0.034577590462 -0.0163539823237 0.0214615384615
v -0.0345483833574 -0.0158243232837 0.014
v -0.0345483833574 -0.0158243232837 0.0218461538462
v -0.0343515931387 -0.0162470935504 0.014
v -0.0343515931387 -0.0162470935504 0.0214615384615
f 24 4 53
f 7 1 2
f 7 9 1
f 54 24 53
f 54 52 24
f 49 52 51
f 10 24 52
f 10 4 24
f 6 52 5
f 6 10 52
f 6 5 4
f 6 4 10
f 3 2 5
f 3 5 37
f 47 5 52
f 47 37 5
f 51 53 4
f 51 4 1
f 5 1 4
f 5 2 1
f 54 53 51
f 54 51 52
f 49 51 1
f 49 1 9
f 47 7 2
f 47 49 9
f 47 9 7
f 47 52 49
f 47 2 3
f 47 3 37
