# Parametric PetalDock simulation geometry; SI units
v -0.0186691497559 -0.0272114469919 0.014
v -0.0186691497559 -0.0272114469919 0.0183584995252
v -0.0184526535647 -0.0268958903272 0.0184938690041
v -0.0183338176896 -0.027438497206 0.014
v -0.0183338176896 -0.027438497206 0.0186315289649
v -0.0182691169561 -0.0266283743042 0.0185371236249
v -0.018146481715 -0.0264496258123 0.0184799779434
v -0.018121210166 -0.0271203075608 0.018756696696
v -0.0181034179451 -0.0263868576891 0.014
v -0.0181034179451 -0.0263868576891 0.0183831908832
v -0.0179409702105 -0.0268505594048 0.0187910312581
v -0.0178205377225 -0.0266703194493 0.0187277052241
v -0.0177782474566 -0.0266070275937 0.014
v -0.0177782474566 -0.0266070275937 0.0186253561254
f 12 14 10
f 12 5 14
f 12 11 5
f 3 2 5
f 8 5 11
f 8 3 5
f 7 10 2
f 7 2 3
f 7 11 12
f 7 12 10
f 6 11 7
f 6 7 3
f 6 8 11
f 6 3 8
f 9 13 4
f 9 4 1
f 14 13 9
f 14 9 10
f 14 4 13
f 14 5 4
f 2 1 4
f 2 4 5
f 2 9 1
f 2 10 9
