# Parametric PetalDock simulation geometry; SI units
v 0.0489963103901 0.000601305376 0.014
v 0.0489963103901 0.000601305376 0.0293888888889
v 0.049 0 0.014
v 0.049 0 0.0293888888889
v 0.0493789650071 0.0006060014904 0.0291121077565
v 0.0493826834324 0 0.0291121077565
v 0.0497033639275 0.0006099826639 0.0287949920093
v 0.0497071067812 0 0.0287949920093
v 0.0499201203562 0.0006126427991 0.0284881600858
v 0.0499238795325 0 0.0284881600858
v 0.049996235092 0.0006135769143 0.014
v 0.049996235092 0.0006135769143 0.0281666666667
v 0.05 0 0.014
v 0.05 0 0.0281666666667
f 9 1 2
f 9 11 1
f 5 9 2
f 12 11 9
f 6 2 4
f 6 5 2
f 7 9 5
f 7 5 6
f 10 14 12
f 10 12 9
f 10 9 7
f 8 7 6
f 8 10 7
f 3 11 13
f 3 1 11
f 12 13 11
f 12 14 13
f 4 1 3
f 4 2 1
f 8 3 13
f 8 13 14
f 8 4 3
f 8 6 4
f 8 14 10
