# Parametric PetalDock simulation geometry; SI units
v 0.0043065826722 -0.0317088843337 0.014
v 0.0043065826722 -0.0317088843337 0.0275845386807
v 0.0043168270187 -0.0317843123055 0.0278926618148
v 0.0043460004491 -0.0319991129961 0.0281846371216
v 0.0043896615733 -0.0323205849475 0.0284803104202
v 0.0044411633807 -0.0326997869691 0.014
v 0.0044411633807 -0.0326997869691 0.0287325681204
v 0.0046953751826 -0.0316536483189 0.014
v 0.0046953751826 -0.0316536483189 0.0273433048433
v 0.0047065443749 -0.0317289448972 0.0276458873312
v 0.0047383515435 -0.0319433714109 0.0279317060562
v 0.0047859543354 -0.0322642833668 0.028218493604
v 0.004842105657 -0.0326428248288 0.014
v 0.004842105657 -0.0326428248288 0.0284605887939
f 4 1 6
f 4 6 7
f 4 2 1
f 3 9 2
f 3 2 4
f 5 4 7
f 11 4 5
f 10 13 8
f 10 8 9
f 10 14 13
f 10 9 3
f 10 3 4
f 10 4 11
f 12 14 10
f 12 10 11
f 12 11 5
f 12 7 14
f 12 5 7
f 8 13 6
f 8 6 1
f 2 8 1
f 2 9 8
f 14 6 13
f 14 7 6
