# Parametric PetalDock simulation geometry; SI units
v 0.04202870189 -0.0251910344655 0.014
v 0.04202870189 -0.0251910344655 0.0197236467236
v 0.04233466995 -0.0246733808026 0.014
v 0.04233466995 -0.0246733808026 0.0199966761633
v 0.0423569404185 -0.0253877730682 0.0198080074636
v 0.0426352076066 -0.0255545600021 0.0198066617913
v 0.042665298048 -0.0248660765996 0.0200708351555
v 0.0428211397972 -0.0256660034684 0.0197186143472
v 0.0428864305 -0.0257051372097 0.014
v 0.0428864305 -0.0257051372097 0.019594017094
v 0.0429455910153 -0.0250294362083 0.0200605694245
v 0.0431328767884 -0.0251385896091 0.0199663416279
v 0.0431986428061 -0.0251769191863 0.014
v 0.0431986428061 -0.0251769191863 0.0198361823362
f 4 5 7
f 2 5 4
f 10 5 2
f 10 8 5
f 12 10 14
f 12 8 10
f 12 13 3
f 12 14 13
f 12 3 4
f 6 7 5
f 6 5 8
f 11 7 6
f 11 4 7
f 11 12 4
f 11 8 12
f 11 6 8
f 3 13 9
f 3 9 1
f 2 3 1
f 2 4 3
f 10 1 9
f 10 2 1
f 10 9 13
f 10 13 14
