# Parametric PetalDock simulation geometry; SI units
v 0.0032368407984 0.0438807800939 0.014
v 0.0032368407984 0.0438807800939 0.032
v 0.0032552319393 0.044130102708 0.0319710648148
v 0.0032736230802 0.0443794253222 0.0318842592593
v 0.0032920142211 0.0446287479364 0.03175
v 0.003310405362 0.0448780705505 0.0316111111111
v 0.0033287965029 0.0451273931647 0.0314722222222
v 0.0033471876438 0.0453767157789 0.0313333333333
v 0.0033655787847 0.0456260383931 0.0311944444444
v 0.0033839699256 0.0458753610072 0.0310555555556
v 0.0034023610665 0.0461246836214 0.0309166666667
v 0.0034207522074 0.0463740062356 0.0307777777778
v 0.0034391433483 0.0466233288497 0.0306388888889
v 0.0034575344892 0.0468726514639 0.0305
v 0.0034759256301 0.0471219740781 0.0303611111111
v 0.003494316771 0.0473712966922 0.0302222222222
v 0.0035127079119 0.0476206193064 0.0300833333333
v 0.0035310990528 0.0478699419206 0.0299444444444
v 0.0035494901937 0.0481192645347 0.0298055555556
v 0.0035678813346 0.0483685871489 0.0296666666667
v 0.0035862724755 0.0486179097631 0.0295277777778
v 0.0036046636164 0.0488672323773 0.014
v 0.0036046636164 0.0488672323773 0.0293888888889
v 0.0037750817432 0.043837754936 0.014
v 0.0037750817432 0.043837754936 0.0319630177515
v 0.0037965310712 0.0440868330891 0.031934201465
v 0.0038179803993 0.0443359112421 0.0318477526055
v 0.0038394297274 0.0445849893952 0.0317140450362
v 0.0038608790555 0.0448340675482 0.031575726861
v 0.0038823283836 0.0450831457013 0.0314374086858
v 0.0039037777117 0.0453322238543 0.0312990905106
v 0.0039252270398 0.0455813020074 0.0311607723355
v 0.0039466763678 0.0458303801604 0.0310224541603
v 0.0039681256959 0.0460794583135 0.0308841359851
v 0.003989575024 0.0463285364665 0.0307458178099
v 0.0040110243521 0.0465776146195 0.0306074996347
v 0.0040324736802 0.0468266927726 0.0304691814596
v 0.0040539230083 0.0470757709256 0.0303308632844
v 0.0040753723364 0.0473248490787 0.0301925451092
v 0.0040968216644 0.0475739272317 0.030054226934
v 0.0041182709925 0.0478230053848 0.0299159087589
v 0.0041397203206 0.0480720835378 0.0297775905837
v 0.0041611696487 0.0483211616909 0.0296392724085
v 0.0041826189768 0.0485702398439 0.0295009542333
v 0.0042040683049 0.048819317997 0.014
v 0.0042040683049 0.048819317997 0.0293626360581
f 9 1 2
f 9 22 1
f 9 23 22
f 39 24 45
f 39 45 46
f 12 46 23
f 12 23 9
f 25 24 39
f 5 46 12
f 5 12 9
f 5 41 46
f 5 9 2
f 26 2 25
f 31 29 25
f 3 2 26
f 27 3 26
f 27 25 29
f 27 26 25
f 32 41 5
f 32 29 31
f 32 46 41
f 32 39 46
f 32 25 39
f 32 31 25
f 28 27 29
f 28 32 5
f 28 29 32
f 4 3 27
f 4 5 2
f 4 2 3
f 4 28 5
f 4 27 28
f 24 1 22
f 24 22 45
f 46 22 23
f 46 45 22
f 25 1 24
f 25 2 1
