# Parametric PetalDock simulation geometry; SI units
v -0.0329776386914 -0.0012146383571 0.014
v -0.0329776386914 -0.0012146383571 0.0293888888889
v -0.0329602500548 -0.0016192332528 0.014
v -0.0329602500548 -0.0016192332528 0.0293888888889
v -0.0325952145712 -0.0012005528427 0.0291121077565
v -0.0325780275814 -0.0016004558668 0.0291121077565
v -0.0322710110567 -0.0011886117201 0.0287949920093
v -0.0322539950147 -0.0015845371676 0.0287949920093
v -0.0320543851939 -0.0011806329171 0.0284881600858
v -0.0320374833756 -0.0015739006328 0.0284881600858
v -0.0319783163068 -0.0011778311341 0.014
v -0.0319783163068 -0.0011778311341 0.0281666666667
v -0.0319614545986 -0.0015701655785 0.014
v -0.0319614545986 -0.0015701655785 0.0281666666667
f 8 3 13
f 9 11 1
f 5 2 4
f 7 1 2
f 7 9 1
f 7 2 5
f 7 5 8
f 14 8 13
f 6 5 4
f 6 8 5
f 12 11 9
f 10 8 14
f 10 7 8
f 10 9 7
f 10 14 12
f 10 12 9
f 4 2 1
f 4 1 3
f 11 3 1
f 11 13 3
f 6 4 3
f 6 3 8
f 12 13 11
f 12 14 13
