# Parametric PetalDock simulation geometry; SI units
v 0.0064379806265 0.0323659142533 0.014
v 0.0064379806265 0.0323659142533 0.0273684710351
v 0.006486753207 0.0326111105734 0.0274634377968
v 0.0065355257875 0.0328563068935 0.0275584045584
v 0.006584298368 0.0331015032136 0.02765337132
v 0.0066330709485 0.0333466995337 0.0277483380817
v 0.0066818435291 0.0335918958538 0.0278433048433
v 0.0067306161096 0.0338370921739 0.0279382716049
v 0.0067793886901 0.034082288494 0.0280332383666
v 0.0068281612706 0.0343274848141 0.0281282051282
v 0.0068346754143 0.0322844732337 0.014
v 0.0068346754143 0.0322844732337 0.0270954415954
v 0.0068769338511 0.0345726811342 0.0282231718898
v 0.0068864532584 0.0325290525764 0.0271844729345
v 0.0069257064316 0.0348178774543 0.0283181386515
v 0.0069382311024 0.0327736319191 0.0272735042735
v 0.0069744790121 0.0350630737744 0.0284131054131
v 0.0069900089465 0.0330182112618 0.0273625356125
v 0.0070232515926 0.0353082700945 0.0285080721747
v 0.0070417867905 0.0332627906045 0.0274515669516
v 0.0070720241731 0.0355534664146 0.0286030389364
v 0.0070935646346 0.0335073699471 0.0275405982906
v 0.0071207967536 0.0357986627347 0.028698005698
v 0.0071453424786 0.0337519492898 0.0276296296296
v 0.0071695693341 0.0360438590548 0.0287929724596
v 0.0071971203227 0.0339965286325 0.0277186609687
v 0.0072183419146 0.0362890553749 0.0288879392213
v 0.0072488981667 0.0342411079752 0.0278076923077
v 0.0072671144951 0.036534251695 0.0289829059829
v 0.0073006760108 0.0344856873179 0.0278967236467
v 0.0073158870756 0.0367794480151 0.0290747071858
v 0.0073524538548 0.0347302666605 0.0279857549858
v 0.0073646596561 0.0370246443352 0.0291340614118
v 0.0074042316989 0.0349748460032 0.0280747863248
v 0.0074134322366 0.0372698406553 0.014
v 0.0074134322366 0.0372698406553 0.0291538461538
v 0.0074560095429 0.0352194253459 0.0281638176638
v 0.007507787387 0.0354640046886 0.0282528490028
v 0.007559565231 0.0357085840313 0.0283418803419
v 0.0076113430751 0.0359531633739 0.0284309116809
v 0.0076631209191 0.0361977427166 0.0285199430199
v 0.0077148987632 0.0364423220593 0.028608974359
v 0.0077666766072 0.036686901402 0.0286950379867
v 0.0078184544513 0.0369314807447 0.0287506825736
v 0.0078702322953 0.0371760600873 0.014
v 0.0078702322953 0.0371760600873 0.0287692307692
f 29 12 31
f 33 46 36
f 43 33 31
f 3 2 12
f 3 12 9
f 27 12 29
f 27 9 12
f 44 46 33
f 44 33 43
f 44 45 46
f 22 11 45
f 22 45 40
f 6 27 29
f 6 29 31
f 6 31 33
f 6 33 36
f 6 36 35
f 6 35 1
f 42 44 43
f 42 43 31
f 14 12 11
f 14 11 22
f 14 31 12
f 26 42 31
f 26 31 14
f 11 35 45
f 11 1 35
f 2 1 11
f 2 11 12
f 46 45 35
f 46 35 36
f 6 3 9
f 6 9 27
f 6 1 2
f 6 2 3
f 42 45 44
f 42 40 45
f 26 40 42
f 26 22 40
f 26 14 22
