# Parametric PetalDock simulation geometry; SI units
v 0.0196580770483 -0.0265058485389 0.014
v 0.0196580770483 -0.0265058485389 0.0175394112061
v 0.0198070018744 -0.0267066504217 0.017420702754
v 0.0199559267005 -0.0269074523046 0.017301994302
v 0.0199818643663 -0.0262626178521 0.014
v 0.0199818643663 -0.0262626178521 0.0172674318796
v 0.0201048515266 -0.0271082541875 0.01718328585
v 0.0201332421267 -0.0264615770782 0.0171428108335
v 0.0202537763527 -0.0273090560703 0.0170645773979
v 0.020284619887 -0.0266605363044 0.0170181897874
v 0.0204027011789 -0.0275098579532 0.0169458689459
v 0.0204359976474 -0.0268594955305 0.0168935687413
v 0.020551626005 -0.0277106598361 0.0168271604938
v 0.0205873754077 -0.0270584547567 0.0167689476952
v 0.0207005508311 -0.027911461719 0.0167084520418
v 0.0207387531681 -0.0272574139829 0.0166443266491
v 0.0208494756572 -0.0281122636018 0.0165897435897
v 0.0208901309284 -0.027456373209 0.016519705603
v 0.0209984004834 -0.0283130654847 0.0164710351377
v 0.0210415086888 -0.0276553324352 0.0163950845569
v 0.0211473253095 -0.0285138673676 0.0163523266857
v 0.0211928864492 -0.0278542916613 0.0162704635108
v 0.0212962501356 -0.0287146692504 0.0162336182336
v 0.0213442642095 -0.0280532508875 0.0161458424648
v 0.0214451749617 -0.0289154711333 0.0161149097816
v 0.0214956419699 -0.0282522101136 0.0160212214187
v 0.0215940997879 -0.0291162730162 0.0159962013295
v 0.0216470197302 -0.0284511693398 0.0158966003726
v 0.021743024614 -0.029317074899 0.0158774928775
v 0.0217983974906 -0.0286501285659 0.0157719793265
v 0.0218919494401 -0.0295178767819 0.0157587844255
v 0.0219497752509 -0.0288490877921 0.0156473582804
v 0.0220408742662 -0.0297186786648 0.0156400759734
v 0.0221011530113 -0.0290480470182 0.0155227372343
v 0.0221897990923 -0.0299194805477 0.0155213675214
v 0.0222525307716 -0.0292470062444 0.0153981161882
v 0.0223387239185 -0.0301202824305 0.0154066160177
v 0.022403908532 -0.0294459654705 0.0152734951421
v 0.0224876487446 -0.0303210843134 0.0153324232352
v 0.0225552862923 -0.0296449246967 0.015148874096
v 0.0226365735707 -0.0305218861963 0.014
v 0.0226365735707 -0.0305218861963 0.0153076923077
v 0.0227066640527 -0.0298438839228 0.0150284070848
v 0.022858041813 -0.030042843149 0.014950518931
v 0.0230094195734 -0.0302418023751 0.014
v 0.0230094195734 -0.0302418023751 0.014924556213
f 7 2 1
f 7 42 2
f 35 41 42
f 35 42 7
f 35 1 41
f 35 7 1
f 22 46 45
f 22 8 46
f 6 8 5
f 6 2 42
f 6 42 46
f 6 46 8
f 5 41 1
f 5 45 41
f 46 42 41
f 46 41 45
f 22 45 5
f 22 5 8
f 6 5 1
f 6 1 2
