# Parametric PetalDock simulation geometry; SI units
v -0.0454967979432 -0.0181945425036 0.014
v -0.0454967979432 -0.0181945425036 0.0232730294397
v -0.0452700970931 -0.0187514881859 0.014
v -0.0452700970931 -0.0187514881859 0.023
v -0.0452646714231 -0.0181017132052 0.0232789648623
v -0.0450391272099 -0.0186558173278 0.023
v -0.045032544903 -0.0180088839067 0.0232849002849
v -0.0448081573268 -0.0185601464697 0.023
v -0.0448004183828 -0.0179160546082 0.0232908357075
v -0.0445771874437 -0.0184644756116 0.023
v -0.0445682918627 -0.0178232253097 0.0232967711301
v -0.0443462175605 -0.0183688047535 0.023
v -0.0443361653426 -0.0177303960112 0.0233027065527
v -0.0441152476774 -0.0182731338954 0.023
v -0.0441040388225 -0.0176375667127 0.0233086419753
v -0.0438842777943 -0.0181774630373 0.023
v -0.0438719123024 -0.0175447374142 0.0233145773979
v -0.0436533079112 -0.0180817921793 0.023
v -0.0436397857822 -0.0174519081157 0.0233205128205
v -0.043422338028 -0.0179861213212 0.023
v -0.0434076592621 -0.0173590788172 0.0233264482431
v -0.0431913681449 -0.0178904504631 0.023
v -0.043175532742 -0.0172662495188 0.0233323836657
v -0.0429603982618 -0.017794779605 0.023
v -0.0429434062219 -0.0171734202203 0.0233383190883
v -0.0427294283786 -0.0176991087469 0.023
v -0.0427112797018 -0.0170805909218 0.0233442545109
v -0.0424984584955 -0.0176034378888 0.023
v -0.0424791531816 -0.0169877616233 0.0233501899335
v -0.0422674886124 -0.0175077670307 0.023
v -0.0422470266615 -0.0168949323248 0.0233561253561
v -0.0420365187293 -0.0174120961726 0.023
v -0.0420149001414 -0.0168021030263 0.0233620607787
v -0.0418055488461 -0.0173164253145 0.023
v -0.0417827736213 -0.0167092737278 0.0233679962013
v -0.041574578963 -0.0172207544564 0.023
v -0.0415506471012 -0.0166164444293 0.0233739316239
v -0.0413436090799 -0.0171250835983 0.023
v -0.0413185205811 -0.0165236151309 0.0233796691991
v -0.0411126391968 -0.0170294127402 0.023
v -0.0410863940609 -0.0164307858324 0.0233833788382
v -0.0408816693136 -0.0169337418822 0.023
v -0.0408542675408 -0.0163379565339 0.014
v -0.0408542675408 -0.0163379565339 0.0233846153846
v -0.0406506994305 -0.0168380710241 0.014
v -0.0406506994305 -0.0168380710241 0.023
f 20 3 45
f 37 4 39
f 37 43 1
f 37 1 2
f 37 44 43
f 41 4 44
f 41 39 4
f 41 44 37
f 41 37 39
f 42 46 44
f 42 44 20
f 42 45 46
f 42 20 45
f 6 44 4
f 6 20 44
f 6 4 3
f 6 3 20
f 5 2 4
f 5 4 23
f 29 4 37
f 29 23 4
f 7 2 5
f 17 37 2
f 17 2 7
f 43 45 3
f 43 3 1
f 46 45 43
f 46 43 44
f 4 1 3
f 4 2 1
f 27 23 29
f 27 29 37
f 27 37 17
f 27 17 7
f 27 5 23
f 27 7 5
