# Parametric PetalDock simulation geometry; SI units
v -0.046135659194 0.0165076028162 0.014
v -0.046135659194 0.0165076028162 0.0240921177588
v -0.0459296115837 0.0170725153322 0.014
v -0.0459296115837 0.0170725153322 0.0238190883191
v -0.0459002731777 0.0164233803529 0.0241158594492
v -0.0456952768307 0.0169854106622 0.0238368945869
v -0.0456648871614 0.0163391578895 0.0241396011396
v -0.0454609420778 0.0168983059921 0.0238547008547
v -0.0454295011451 0.0162549354262 0.02416334283
v -0.0452266073248 0.016811201322 0.0238725071225
v -0.0451941151288 0.0161707129628 0.0241870845204
v -0.0449922725718 0.016724096652 0.0238903133903
v -0.0449587291125 0.0160864904995 0.0242108262108
v -0.0447579378188 0.0166369919819 0.0239081196581
v -0.0447233430962 0.0160022680361 0.0242345679012
v -0.0445236030658 0.0165498873118 0.0239259259259
v -0.0444879570799 0.0159180455728 0.0242583095916
v -0.0442892683129 0.0164627826418 0.0239437321937
v -0.0442525710636 0.0158338231094 0.0242820512821
v -0.0440549335599 0.0163756779717 0.0239615384615
v -0.0440171850473 0.0157496006461 0.0243057929725
v -0.0438205988069 0.0162885733017 0.0239793447293
v -0.043781799031 0.0156653781827 0.0243295346629
v -0.0435862640539 0.0162014686316 0.0239971509972
v -0.0435464130147 0.0155811557194 0.0243532763533
v -0.043351929301 0.0161143639615 0.024014957265
v -0.0433110269984 0.015496933256 0.0243770180437
v -0.043117594548 0.0160272592915 0.0240327635328
v -0.0430756409821 0.0154127107927 0.0244007597341
v -0.042883259795 0.0159401546214 0.0240505698006
v -0.0428402549658 0.0153284883293 0.0244245014245
v -0.042648925042 0.0158530499513 0.0240683760684
v -0.0426048689495 0.015244265866 0.0244482431149
v -0.042414590289 0.0157659452813 0.0240861823362
v -0.0423694829332 0.0151600434026 0.0244719848053
v -0.0421802555361 0.0156788406112 0.024103988604
v -0.0421340969169 0.0150758209393 0.0244957264957
v -0.0419459207831 0.0155917359412 0.0241217948718
v -0.0418987109006 0.014991598476 0.0245186767965
v -0.0417115860301 0.0155046312711 0.0241390075973
v -0.0416633248843 0.0149073760126 0.024533515353
v -0.0414772512771 0.015417526601 0.0241501365147
v -0.0414279388681 0.0148231535493 0.014
v -0.0414279388681 0.0148231535493 0.0245384615385
v -0.0412429165242 0.015330421931 0.014
v -0.0412429165242 0.015330421931 0.0241538461538
f 35 1 43
f 35 43 44
f 42 44 46
f 42 46 40
f 6 45 3
f 6 3 4
f 5 4 2
f 5 21 4
f 41 44 42
f 41 42 40
f 41 35 44
f 38 40 46
f 38 46 45
f 38 45 6
f 37 35 41
f 39 41 40
f 39 40 38
f 39 6 4
f 39 4 37
f 39 37 41
f 24 6 39
f 28 39 38
f 28 24 39
f 28 38 6
f 28 6 24
f 43 3 45
f 43 1 3
f 46 43 45
f 46 44 43
f 4 3 1
f 4 1 2
f 19 2 1
f 19 1 35
f 19 5 2
f 19 21 5
f 37 19 35
f 37 21 19
f 37 4 21
