# Parametric PetalDock simulation geometry; SI units
v 0.001079814055 0.0439867480226 0.014
v 0.001079814055 0.0439867480226 0.032
v 0.0010859493621 0.0442366727273 0.0319710648148
v 0.0010920846693 0.044486597432 0.0318842592593
v 0.0010982199764 0.0447365221367 0.03175
v 0.0011043552835 0.0449864468413 0.0316111111111
v 0.0011104905907 0.045236371546 0.0314722222222
v 0.0011166258978 0.0454862962507 0.0313333333333
v 0.0011227612049 0.0457362209554 0.0311944444444
v 0.0011288965121 0.04598614566 0.0310555555556
v 0.0011350318192 0.0462360703647 0.0309166666667
v 0.0011411671263 0.0464859950694 0.0307777777778
v 0.0011473024334 0.046735919774 0.0306388888889
v 0.0011534377406 0.0469858444787 0.0305
v 0.0011595730477 0.0472357691834 0.0303611111111
v 0.0011657083548 0.0474856938881 0.0302222222222
v 0.001171843662 0.0477356185927 0.0300833333333
v 0.0011779789691 0.0479855432974 0.0299444444444
v 0.0011841142762 0.0482354680021 0.0298055555556
v 0.0011902495834 0.0484853927068 0.0296666666667
v 0.0011963848905 0.0487353174114 0.0295277777778
v 0.0012025201976 0.0489852421161 0.014
v 0.0012025201976 0.0489852421161 0.0293888888889
v 0.0016195178094 0.0439701849219 0.014
v 0.0016195178094 0.0439701849219 0.032
v 0.0016287196152 0.044220015518 0.0319710648148
v 0.0016379214209 0.0444698461142 0.0318842592593
v 0.0016471232266 0.0447196767103 0.03175
v 0.0016563250324 0.0449695073065 0.0316111111111
v 0.0016655268381 0.0452193379026 0.0314722222222
v 0.0016747286438 0.0454691684988 0.0313333333333
v 0.0016839304496 0.0457189990949 0.0311944444444
v 0.0016931322553 0.0459688296911 0.0310555555556
v 0.001702334061 0.0462186602872 0.0309166666667
v 0.0017115358668 0.0464684908834 0.0307777777778
v 0.0017207376725 0.0467183214795 0.0306388888889
v 0.0017299394782 0.0469681520757 0.0305
v 0.001739141284 0.0472179826718 0.0303611111111
v 0.0017483430897 0.0474678132679 0.0302222222222
v 0.0017575448954 0.0477176438641 0.0300833333333
v 0.0017667467012 0.0479674744602 0.0299444444444
v 0.0017759485069 0.0482173050564 0.0298055555556
v 0.0017851503127 0.0484671356525 0.0296666666667
v 0.0017943521184 0.0487169662487 0.0295277777778
v 0.0018035539241 0.0489667968448 0.014
v 0.0018035539241 0.0489667968448 0.0293888888889
f 3 1 2
f 43 24 45
f 43 45 46
f 13 22 1
f 13 1 3
f 25 3 2
f 16 22 13
f 26 25 24
f 26 24 43
f 26 3 25
f 44 46 23
f 44 23 20
f 44 43 46
f 19 20 23
f 19 16 13
f 27 4 3
f 27 3 26
f 35 43 44
f 42 44 20
f 42 20 33
f 5 33 20
f 5 4 27
f 5 27 28
f 5 3 4
f 29 5 28
f 29 33 5
f 29 35 33
f 29 28 27
f 29 43 35
f 29 27 26
f 29 26 43
f 6 13 3
f 6 3 5
f 24 1 22
f 24 22 45
f 46 22 23
f 46 45 22
f 25 1 24
f 25 2 1
f 19 23 22
f 19 22 16
f 42 33 35
f 42 35 44
f 5 20 19
f 6 5 19
f 6 19 13
