# Parametric PetalDock simulation geometry; SI units
v -0.015940204316 -0.0463347589436 0.014
v -0.015940204316 -0.0463347589436 0.0243651471985
v -0.0158588767429 -0.0460983571123 0.0243948243115
v -0.0157775491699 -0.045861955281 0.0244245014245
v -0.0156962215968 -0.0456255534496 0.0244541785375
v -0.0156148940238 -0.0453891516183 0.0244838556505
v -0.0155335664507 -0.0451527497869 0.0245135327635
v -0.0154522388777 -0.0449163479556 0.0245432098765
v -0.0153709113047 -0.0446799461242 0.0245728869896
v -0.0153704052795 -0.0465268808491 0.014
v -0.0153704052795 -0.0465268808491 0.0246381766382
v -0.0152919848444 -0.0462894988039 0.0246737891738
v -0.0152895837316 -0.0444435442929 0.0246025641026
v -0.0152135644093 -0.0460521167588 0.0247094017094
v -0.0152082561586 -0.0442071424615 0.0246322412156
v -0.0151351439742 -0.0458147347136 0.024745014245
v -0.0151269285855 -0.0439707406302 0.0246619183286
v -0.0150567235391 -0.0455773526685 0.0247806267806
v -0.0150456010125 -0.0437343387988 0.0246915954416
v -0.014978303104 -0.0453399706233 0.0248162393162
v -0.0149642734395 -0.0434979369675 0.0247212725546
v -0.0148998826689 -0.0451025885782 0.0248518518519
v -0.0148829458664 -0.0432615351362 0.0247509496676
v -0.0148214622338 -0.044865206533 0.0248874643875
v -0.0148016182934 -0.0430251333048 0.0247806267806
v -0.0147430417987 -0.0446278244879 0.0249230769231
v -0.0147202907203 -0.0427887314735 0.0248103038936
v -0.0146646213636 -0.0443904424427 0.0249586894587
v -0.0146389631473 -0.0425523296421 0.0248399810066
v -0.0145862009285 -0.0441530603976 0.0249943019943
v -0.0145576355743 -0.0423159278108 0.0248696581197
v -0.0145077804934 -0.0439156783524 0.0250299145299
v -0.0144763080012 -0.0420795259794 0.0248983459956
v -0.0144293600583 -0.0436782963073 0.0250655270655
v -0.0143949804282 -0.0418431241481 0.0249168941912
v -0.0143509396232 -0.0434409142621 0.0251011396011
v -0.0143136528551 -0.0416067223167 0.014
v -0.0143136528551 -0.0416067223167 0.0249230769231
v -0.0142725191881 -0.043203532217 0.0251367521368
v -0.014194098753 -0.0429661501718 0.0251723646724
v -0.014115678318 -0.0427287681267 0.025207977208
v -0.0140372578829 -0.0424913860815 0.0252435897436
v -0.0139588374478 -0.0422540040364 0.0252780151947
v -0.0138804170127 -0.0420166219912 0.0253002730294
v -0.0138019965776 -0.0417792399461 0.014
v -0.0138019965776 -0.0417792399461 0.0253076923077
f 39 10 45
f 31 37 1
f 31 1 2
f 22 2 11
f 22 41 2
f 22 39 41
f 35 38 37
f 35 37 31
f 35 46 38
f 40 46 43
f 9 31 2
f 9 2 43
f 9 43 31
f 33 31 43
f 33 35 31
f 44 43 46
f 44 46 35
f 44 33 43
f 44 35 33
f 42 40 43
f 42 2 41
f 42 43 2
f 37 45 10
f 37 10 1
f 2 10 11
f 2 1 10
f 38 45 37
f 38 46 45
f 22 11 10
f 22 10 39
f 40 45 46
f 40 39 45
f 42 39 40
f 42 41 39
