# Parametric PetalDock simulation geometry; SI units
v -0.000601305376 0.0489963103901 0.014
v -0.000601305376 0.0489963103901 0.0293888888889
v -0.0005982374914 0.0487463292147 0.0295277777778
v -0.0005951696069 0.0484963480392 0.0296666666667
v -0.0005921017223 0.0482463668637 0.0298055555556
v -0.0005890338377 0.0479963856883 0.0299444444444
v -0.0005859659531 0.0477464045128 0.0300833333333
v -0.0005828980686 0.0474964233374 0.0302222222222
v -0.000579830184 0.0472464421619 0.0303611111111
v -0.0005767622994 0.0469964609864 0.0305
v -0.0005736944149 0.046746479811 0.0306388888889
v -0.0005706265303 0.0464964986355 0.0307777777778
v -0.0005675586457 0.0462465174601 0.0309166666667
v -0.0005644907611 0.0459965362846 0.0310555555556
v -0.0005614228766 0.0457465551091 0.0311944444444
v -0.000558354992 0.0454965739337 0.0313333333333
v -0.0005552871074 0.0452465927582 0.0314722222222
v -0.0005522192229 0.0449966115828 0.0316111111111
v -0.0005491513383 0.0447466304073 0.03175
v -0.0005460834537 0.0444966492318 0.0318842592593
v -0.0005430155691 0.0442466680564 0.0319710648148
v -0.0005399476846 0.0439966868809 0.014
v -0.0005399476846 0.0439966868809 0.032
v 0 0.044 0.014
v 0 0.044 0.032
v 0 0.04425 0.0319710648148
v 0 0.0445 0.0318842592593
v 0 0.04475 0.03175
v 0 0.045 0.0316111111111
v 0 0.04525 0.0314722222222
v 0 0.0455 0.0313333333333
v 0 0.04575 0.0311944444444
v 0 0.046 0.0310555555556
v 0 0.04625 0.0309166666667
v 0 0.0465 0.0307777777778
v 0 0.04675 0.0306388888889
v 0 0.047 0.0305
v 0 0.04725 0.0303611111111
v 0 0.0475 0.0302222222222
v 0 0.04775 0.0300833333333
v 0 0.048 0.0299444444444
v 0 0.04825 0.0298055555556
v 0 0.0485 0.0296666666667
v 0 0.04875 0.0295277777778
v 0 0.049 0.014
v 0 0.049 0.0293888888889
f 19 20 27
f 19 23 20
f 21 20 23
f 21 27 20
f 21 23 25
f 28 19 27
f 26 27 21
f 26 21 25
f 3 46 2
f 18 23 19
f 18 22 23
f 18 19 28
f 4 3 2
f 4 2 1
f 4 13 3
f 4 1 22
f 42 46 3
f 42 13 33
f 42 3 13
f 22 45 24
f 22 1 45
f 46 45 1
f 46 1 2
f 25 22 24
f 25 23 22
f 18 28 33
f 18 33 13
f 4 18 13
f 4 22 18
f 42 24 45
f 42 45 46
f 42 25 24
f 42 27 26
f 42 28 27
f 42 26 25
f 42 33 28
