# Parametric PetalDock simulation geometry; SI units
v 0.019305609963 -0.0450365787328 0.014
v 0.019305609963 -0.0450365787328 0.0227269705603
v 0.0194563841892 -0.0453883083763 0.0226991120744
v 0.0195842044063 -0.04568649037 0.0225996457573
v 0.0196696111448 -0.0458857292084 0.0224436144354
v 0.0196996020031 -0.0459556925845 0.014
v 0.0196996020031 -0.0459556925845 0.0222578347578
v 0.0198568243862 -0.0447962780295 0.014
v 0.0198568243862 -0.0447962780295 0.0224539411206
v 0.0200119035232 -0.0451461309567 0.0224362843825
v 0.0201433732674 -0.0454427219472 0.022345738124
v 0.020231218542 -0.0456408977112 0.0221958871547
v 0.0202620657002 -0.0457104877852 0.014
v 0.0202620657002 -0.0457104877852 0.0220156695157
f 3 2 1
f 3 1 6
f 12 13 8
f 12 14 13
f 5 6 7
f 5 3 6
f 5 7 14
f 5 14 12
f 9 12 8
f 4 3 5
f 4 5 12
f 10 9 2
f 10 2 3
f 10 12 9
f 11 3 4
f 11 10 3
f 11 4 12
f 11 12 10
f 8 6 1
f 8 13 6
f 14 7 6
f 14 6 13
f 9 8 1
f 9 1 2
