# Parametric PetalDock simulation geometry; SI units
v -0.0137421754832 -0.030002543442 0.014
v -0.0137421754832 -0.030002543442 0.0221809116809
v -0.0135828147898 -0.0296546199176 0.0221734566906
v -0.0134477153174 -0.0293596645959 0.0220918304908
v -0.0133729633622 -0.0301689219382 0.014
v -0.0133729633622 -0.0301689219382 0.0224539411206
v -0.0133574447359 -0.0291625817508 0.0219481598739
v -0.0133257459231 -0.0290933754589 0.014
v -0.0133257459231 -0.0290933754589 0.0217735042735
v -0.0132178842252 -0.029819069011 0.0224362843825
v -0.013086414481 -0.0295224780205 0.022345738124
v -0.0129985692064 -0.0293243022565 0.0221958871547
v -0.0129677220482 -0.0292547121825 0.014
v -0.0129677220482 -0.0292547121825 0.0220156695157
f 4 8 1
f 4 1 2
f 4 9 8
f 3 2 6
f 3 4 2
f 10 3 6
f 10 4 3
f 12 14 9
f 12 13 14
f 12 5 13
f 12 6 5
f 12 10 6
f 7 9 4
f 7 12 9
f 11 4 10
f 11 10 12
f 11 7 4
f 11 12 7
f 8 13 5
f 8 5 1
f 2 1 5
f 2 5 6
f 14 13 8
f 14 8 9
