# Parametric PetalDock simulation geometry; SI units
v 0.0267450875423 0.0193313292961 0.014
v 0.0267450875423 0.0193313292961 0.0178124406458
v 0.0269477018419 0.0194777787604 0.0176996676163
v 0.026980298834 0.0190016703168 0.014
v 0.026980298834 0.0190016703168 0.0180854700855
v 0.0271503161415 0.0196242282248 0.0175868945869
v 0.0271846950373 0.0191456223646 0.0179786324786
v 0.027352930441 0.0197706776892 0.0174741215575
v 0.0273890912406 0.0192895744125 0.0178717948718
v 0.0275555447406 0.0199171271535 0.017361348528
v 0.0275934874439 0.0194335264604 0.017764957265
v 0.0277581590402 0.0200635766179 0.0172485754986
v 0.0277978836472 0.0195774785082 0.0176581196581
v 0.0279607733397 0.0202100260822 0.0171358024691
v 0.0280022798504 0.0197214305561 0.0175512820513
v 0.0281633876393 0.0203564755466 0.0170230294397
v 0.0282066760537 0.0198653826039 0.0174444444444
v 0.0283660019388 0.020502925011 0.0169102564103
v 0.028411072257 0.0200093346518 0.0173376068376
v 0.0285686162384 0.0206493744753 0.0167974833808
v 0.0286154684603 0.0201532866996 0.0172307692308
v 0.028771230538 0.0207958239397 0.0166847103514
v 0.0288198646636 0.0202972387475 0.0171239316239
v 0.0289738448375 0.0209422734041 0.0165719373219
v 0.0290242608669 0.0204411907953 0.0170170940171
v 0.0291764591371 0.0210887228684 0.0164591642925
v 0.0292286570702 0.0205851428432 0.0169102564103
v 0.0293790734367 0.0212351723328 0.0163463912631
v 0.0294330532735 0.020729094891 0.0168034188034
v 0.0295816877362 0.0213816217972 0.0162336182336
v 0.0296374494767 0.0208730469389 0.0166965811966
v 0.0297843020358 0.0215280712615 0.0161208452042
v 0.02984184568 0.0210169989868 0.0165897435897
v 0.0299869163353 0.0216745207259 0.0160080721747
v 0.0300462418833 0.0211609510346 0.0164829059829
v 0.0301895306349 0.0218209701903 0.0158952991453
v 0.0302506380866 0.0213049030825 0.0163760683761
v 0.0303921449345 0.0219674196546 0.0157862852168
v 0.0304550342899 0.0214488551303 0.0162692307692
v 0.030594759234 0.022113869119 0.0157158020734
v 0.0306594304932 0.0215928071782 0.016165954416
v 0.0307973735336 0.0222603185833 0.014
v 0.0307973735336 0.0222603185833 0.0156923076923
v 0.0308638266965 0.021736759226 0.0160991809117
v 0.0310682228998 0.0218807112739 0.014
v 0.0310682228998 0.0218807112739 0.0160769230769
f 2 5 46
f 29 4 45
f 40 42 1
f 44 45 46
f 44 29 45
f 44 46 29
f 7 5 4
f 7 4 29
f 7 46 5
f 7 29 46
f 36 40 1
f 43 42 40
f 43 2 46
f 43 40 2
f 8 1 2
f 8 36 1
f 8 2 40
f 8 40 36
f 4 42 45
f 4 1 42
f 2 1 4
f 2 4 5
f 43 45 42
f 43 46 45
