# Parametric PetalDock simulation geometry; SI units
v 0.0319783163068 -0.0011778311341 0.014
v 0.0319783163068 -0.0011778311341 0.0281666666667
v 0.0319903621983 -0.0007853193127 0.014
v 0.0319903621983 -0.0007853193127 0.0281666666667
v 0.0320543851939 -0.0011806329171 0.0284881600858
v 0.0320664597397 -0.0007871874025 0.0284881600858
v 0.0322710110567 -0.0011886117201 0.0287949920093
v 0.0322831672031 -0.0007925072721 0.0287949920093
v 0.0325952145712 -0.0012005528427 0.0291121077565
v 0.0326074928417 -0.0008004690197 0.0291121077565
v 0.0329776386914 -0.0012146383571 0.014
v 0.0329776386914 -0.0012146383571 0.0293888888889
v 0.032990061017 -0.0008098605413 0.014
v 0.032990061017 -0.0008098605413 0.0293888888889
f 6 4 2
f 8 13 3
f 8 3 4
f 8 14 13
f 8 4 6
f 10 12 14
f 10 14 8
f 9 1 11
f 9 11 12
f 9 2 1
f 9 12 10
f 9 10 8
f 9 8 7
f 5 6 2
f 5 2 9
f 5 9 7
f 5 8 6
f 5 7 8
f 3 13 11
f 3 11 1
f 2 3 1
f 2 4 3
f 14 11 13
f 14 12 11
