# Parametric PetalDock simulation geometry; SI units
v -0.0498645228339 -0.00367822818 0.014
v -0.0498645228339 -0.00367822818 0.0281666666667
v -0.0498156306091 -0.0042898656172 0.014
v -0.0498156306091 -0.0042898656172 0.0281433815472
v -0.0497886086182 -0.003672628411 0.0284881600858
v -0.0497397908273 -0.0042833346857 0.028464340155
v -0.049572423222 -0.0036566816182 0.0287949920093
v -0.0495238174012 -0.0042647361662 0.0287705778138
v -0.0492488789123 -0.0036328155561 0.0291121077565
v -0.0492005903271 -0.0042369015149 0.029086835863
v -0.0488672323773 -0.0036046636164 0.014
v -0.0488672323773 -0.0036046636164 0.0293888888889
v -0.048819317997 -0.0042040683049 0.014
v -0.048819317997 -0.0042040683049 0.0293626360581
f 10 14 12
f 10 3 13
f 10 13 14
f 5 11 1
f 5 1 2
f 5 12 11
f 5 2 4
f 9 10 12
f 9 12 5
f 9 5 7
f 9 7 8
f 9 8 10
f 6 4 3
f 6 3 10
f 6 10 8
f 6 5 4
f 6 8 7
f 6 7 5
f 11 13 3
f 11 3 1
f 14 13 11
f 14 11 12
f 4 1 3
f 4 2 1
