# Parametric PetalDock simulation geometry; SI units
v -0.0491552743716 0.0091519943978 0.014
v -0.0491552743716 0.0091519943978 0.0266168091168
v -0.0490804399223 0.0091380613159 0.026902705489
v -0.0490392640202 0.0097545161008 0.014
v -0.0490392640202 0.0097545161008 0.0263746438746
v -0.0489646061861 0.0097396657343 0.0266549782082
v -0.0488673294409 0.0090983832558 0.0271699831563
v -0.0487519986624 0.0096973754684 0.026916075523
v -0.0485483870664 0.0090390008424 0.0274300105284
v -0.0484338090173 0.0096340836128 0.0271671828365
v -0.0481721688841 0.0089689545098 0.014
v -0.0481721688841 0.0089689545098 0.0276415004748
v -0.0480584787398 0.0095594257788 0.014
v -0.0480584787398 0.0095594257788 0.0273684710351
f 10 12 14
f 10 14 8
f 9 7 12
f 9 12 10
f 9 8 7
f 9 10 8
f 3 5 2
f 3 2 1
f 3 1 11
f 3 11 12
f 3 12 7
f 6 13 4
f 6 14 13
f 6 4 5
f 6 8 14
f 6 5 3
f 6 7 8
f 6 3 7
f 11 4 13
f 11 1 4
f 14 11 13
f 14 12 11
f 5 4 1
f 5 1 2
