# Parametric PetalDock simulation geometry; SI units
v 0.0157727421514 -0.0278427837155 0.014
v 0.0157727421514 -0.0278427837155 0.0200783475783
v 0.0158102617922 -0.027909015144 0.0202140689087
v 0.0159171086894 -0.028097626295 0.0203144770578
v 0.0160770163716 -0.0283799028304 0.0203336628474
v 0.0161132282792 -0.0276471313959 0.014
v 0.0161132282792 -0.0276471313959 0.0198361823362
v 0.0161515578564 -0.0277128974136 0.0199663416279
v 0.0162607112572 -0.0279001831867 0.0200605694245
v 0.0162656403436 -0.0287128707066 0.014
v 0.0162656403436 -0.0287128707066 0.020269705603
v 0.0164240708659 -0.028180476154 0.0200708351555
v 0.0166167666629 -0.028511104252 0.014
v 0.0166167666629 -0.028511104252 0.0199966761633
f 12 5 11
f 4 2 1
f 4 1 10
f 4 10 11
f 4 11 5
f 14 12 11
f 3 7 2
f 3 2 4
f 9 12 14
f 9 5 12
f 9 4 5
f 8 9 14
f 8 13 6
f 8 6 7
f 8 14 13
f 8 7 3
f 8 3 4
f 8 4 9
f 6 13 10
f 6 10 1
f 2 6 1
f 2 7 6
f 14 10 13
f 14 11 10
