# Parametric PetalDock simulation geometry; SI units
v 0.000601305376 0.0489963103901 0.014
v 0.000601305376 0.0489963103901 0.0293888888889
v 0.0006060014904 0.0493789650071 0.0291121077565
v 0.0006099826639 0.0497033639275 0.0287949920093
v 0.0006126427991 0.0499201203562 0.0284881600858
v 0.0006135769143 0.049996235092 0.014
v 0.0006135769143 0.049996235092 0.0281666666667
v 0.0012025201976 0.0489852421161 0.014
v 0.0012025201976 0.0489852421161 0.0293888888889
v 0.0012119117192 0.0493678102914 0.0291121077565
v 0.0012198734667 0.04969213593 0.0287949920093
v 0.0012251933364 0.0499088433934 0.0284881600858
v 0.0012270614261 0.0499849409348 0.014
v 0.0012270614261 0.0499849409348 0.0281666666667
f 4 1 2
f 4 6 1
f 4 7 6
f 12 8 13
f 12 13 14
f 12 14 7
f 5 7 4
f 5 12 7
f 5 4 12
f 10 9 8
f 10 8 12
f 10 2 9
f 11 12 4
f 11 4 10
f 11 10 12
f 3 4 2
f 3 2 10
f 3 10 4
f 8 1 6
f 8 6 13
f 14 6 7
f 14 13 6
f 9 1 8
f 9 2 1
