# Parametric PetalDock simulation geometry; SI units
v 0.0459296115837 0.0170725153322 0.014
v 0.0459296115837 0.0170725153322 0.0238190883191
v 0.046135659194 0.0165076028162 0.014
v 0.046135659194 0.0165076028162 0.0240921177588
v 0.0462883156941 0.0172058493887 0.0237504228419
v 0.0464959725086 0.0166365249816 0.0240132505338
v 0.0465924103553 0.0173188845437 0.0236152762904
v 0.0467955999118 0.0173944122196 0.0234345235584
v 0.0468014313872 0.0167458199161 0.0238691839237
v 0.0468669505956 0.0174209340125 0.014
v 0.0468669505956 0.0174209340125 0.0232264957265
v 0.0470055324847 0.0168188484565 0.0236822508392
v 0.0470772032592 0.0168444926696 0.014
v 0.0470772032592 0.0168444926696 0.0234686609687
f 5 10 1
f 5 1 2
f 5 2 4
f 11 10 5
f 6 3 13
f 6 13 14
f 6 4 3
f 6 5 4
f 12 14 11
f 12 6 14
f 12 9 6
f 8 12 11
f 8 9 12
f 7 9 8
f 7 5 6
f 7 6 9
f 7 11 5
f 7 8 11
f 3 10 13
f 3 1 10
f 2 1 3
f 2 3 4
f 11 13 10
f 11 14 13
