# Parametric PetalDock simulation geometry; SI units
v -0.0374568197262 0.0331207888795 0.014
v -0.0374568197262 0.0331207888795 0.0168333333333
v -0.0373997951136 0.0330703654808 0.0168945233466
v -0.0372374027563 0.0329267717902 0.0169121147719
v -0.0370475562677 0.0335779477424 0.014
v -0.0370475562677 0.0335779477424 0.0168333333333
v -0.0369943654184 0.0327118686453 0.016811771776
v -0.0369911547217 0.0335268283608 0.0168945233466
v -0.0368305367077 0.0333812526784 0.0169121147719
v -0.0367076833316 0.0324583731019 0.014
v -0.0367076833316 0.0324583731019 0.0166111111111
v -0.0365901548623 0.0331633832734 0.016811771776
v -0.0363066051424 0.0329063887875 0.014
v -0.0363066051424 0.0329063887875 0.0166111111111
f 10 4 1
f 2 1 4
f 12 14 6
f 3 2 4
f 7 10 11
f 7 4 10
f 7 9 4
f 7 12 9
f 7 11 14
f 7 14 12
f 8 9 12
f 8 12 6
f 8 4 9
f 8 3 4
f 8 6 2
f 8 2 3
f 10 5 13
f 10 1 5
f 6 5 1
f 6 1 2
f 6 13 5
f 6 14 13
f 11 10 13
f 11 13 14
