# Parametric PetalDock simulation geometry; SI units
v -0.0141093180832 -0.0298316466731 0.014
v -0.0141093180832 -0.0298316466731 0.0219078822412
v -0.0139456998325 -0.0294857049476 0.0219106289987
v -0.0138069909773 -0.0291924297138 0.0218379228575
v -0.0137421754832 -0.030002543442 0.014
v -0.0137421754832 -0.030002543442 0.0221809116809
v -0.0137143086834 -0.0289964694675 0.0217004325932
v -0.0136817629898 -0.02892765738 0.014
v -0.0136817629898 -0.02892765738 0.0215313390313
v -0.0135828147898 -0.0296546199176 0.0221734566906
v -0.0134477153174 -0.0293596645959 0.0220918304908
v -0.0133574447359 -0.0291625817508 0.0219481598739
v -0.0133257459231 -0.0290933754589 0.014
v -0.0133257459231 -0.0290933754589 0.0217735042735
f 3 2 6
f 3 4 2
f 7 2 4
f 7 8 1
f 7 1 2
f 7 9 8
f 10 3 6
f 10 4 3
f 12 14 9
f 12 9 7
f 12 6 14
f 12 10 6
f 11 7 4
f 11 12 7
f 11 4 10
f 11 10 12
f 8 13 5
f 8 5 1
f 2 1 5
f 2 5 6
f 14 5 13
f 14 6 5
f 14 13 8
f 14 8 9
