# Parametric PetalDock simulation geometry; SI units
v 0.0246733808026 -0.04233466995 0.014
v 0.0246733808026 -0.04233466995 0.0199966761633
v 0.0248660765996 -0.042665298048 0.0200708351555
v 0.0250294362083 -0.0429455910153 0.0200605694245
v 0.0251385896091 -0.0431328767884 0.0199663416279
v 0.0251769191863 -0.0431986428061 0.014
v 0.0251769191863 -0.0431986428061 0.0198361823362
v 0.0251910344655 -0.04202870189 0.014
v 0.0251910344655 -0.04202870189 0.0197236467236
v 0.0253877730682 -0.0423569404185 0.0198080074636
v 0.0255545600021 -0.0426352076066 0.0198066617913
v 0.0256660034684 -0.0428211397972 0.0197186143472
v 0.0257051372097 -0.0428864305 0.014
v 0.0257051372097 -0.0428864305 0.019594017094
f 5 1 6
f 2 1 5
f 7 5 6
f 10 3 11
f 10 9 2
f 10 2 3
f 4 11 3
f 4 3 2
f 4 2 5
f 14 5 7
f 14 9 10
f 12 5 14
f 12 4 5
f 12 11 4
f 12 10 11
f 12 14 10
f 8 13 6
f 8 6 1
f 2 8 1
f 2 9 8
f 14 6 13
f 14 7 6
f 14 13 8
f 14 8 9
