# Parametric PetalDock simulation geometry; SI units
v 0.0259346303441 0.0187455314386 0.014
v 0.0259346303441 0.0187455314386 0.0178988603989
v 0.0259963227249 0.0187901226454 0.0179845233819
v 0.0261627140209 0.0184258621254 0.014
v 0.0261627140209 0.0184258621254 0.018141025641
v 0.0261720077616 0.0189171076587 0.0180293083583
v 0.026224948959 0.0184696929141 0.0182322506626
v 0.0264021790684 0.01859451244 0.0182832159916
v 0.0264349389999 0.0191071541613 0.0179682136204
v 0.0266674226715 0.0187813180617 0.0182310413122
v 0.0267450875423 0.0193313292961 0.014
v 0.0267450875423 0.0193313292961 0.0178124406458
v 0.026980298834 0.0190016703168 0.014
v 0.026980298834 0.0190016703168 0.0180854700855
f 3 11 1
f 3 6 11
f 3 8 6
f 12 11 6
f 10 6 8
f 10 4 13
f 10 13 14
f 10 5 4
f 2 3 1
f 7 8 3
f 7 10 8
f 7 5 10
f 7 2 5
f 7 3 2
f 9 14 12
f 9 10 14
f 9 12 6
f 9 6 10
f 4 11 13
f 4 1 11
f 12 13 11
f 12 14 13
f 2 1 4
f 2 4 5
