# Parametric PetalDock simulation geometry; SI units
v -0.0370475562677 -0.0335779477424 0.014
v -0.0370475562677 -0.0335779477424 0.0168333333333
v -0.0369911547217 -0.0335268283608 0.0168945233466
v -0.0368305367077 -0.0333812526784 0.0169121147719
v -0.0366327135836 -0.0340300498898 0.014
v -0.0366327135836 -0.0340300498898 0.0168333333333
v -0.0365901548623 -0.0331633832734 0.016811771776
v -0.036576943598 -0.0339782422236 0.0168945233466
v -0.0364181241157 -0.0338307064728 0.0169121147719
v -0.0363066051424 -0.0329063887875 0.014
v -0.0363066051424 -0.0329063887875 0.0166111111111
v -0.0361804339634 -0.0336099036179 0.016811771776
v -0.0359000593119 -0.033349448892 0.014
v -0.0359000593119 -0.033349448892 0.0166111111111
f 10 1 4
f 8 6 9
f 14 9 6
f 14 12 9
f 3 2 6
f 3 6 8
f 3 1 2
f 3 4 1
f 3 9 4
f 3 8 9
f 11 10 4
f 7 11 4
f 7 14 11
f 7 12 14
f 10 13 5
f 10 5 1
f 2 1 5
f 2 5 6
f 14 5 13
f 14 6 5
f 11 13 10
f 11 14 13
f 7 9 12
f 7 4 9
