# Parametric PetalDock simulation geometry; SI units
v -0.048819317997 -0.0042040683049 0.014
v -0.048819317997 -0.0042040683049 0.0293626360581
v -0.0487640516069 -0.0048028398761 0.014
v -0.0487640516069 -0.0048028398761 0.0292838775659
v -0.0485702398439 -0.0041826189768 0.0295009542333
v -0.0485152554253 -0.0047783355911 0.0294204836
v -0.0483211616909 -0.0041611696487 0.0296392724085
v -0.0482664592436 -0.004753831306 0.029557089634
v -0.0480720835378 -0.0041397203206 0.0297775905837
v -0.0480176630619 -0.0047293270209 0.0296936956681
v -0.0478230053848 -0.0041182709925 0.0299159087589
v -0.0477688668803 -0.0047048227358 0.0298303017021
v -0.0475739272317 -0.0040968216644 0.030054226934
v -0.0475200706986 -0.0046803184507 0.0299669077361
v -0.0473248490787 -0.0040753723364 0.0301925451092
v -0.0472712745169 -0.0046558141657 0.0301035137702
v -0.0470757709256 -0.0040539230083 0.0303308632844
v -0.0470224783353 -0.0046313098806 0.0302401198042
v -0.0468266927726 -0.0040324736802 0.0304691814596
v -0.0467736821536 -0.0046068055955 0.0303767258383
v -0.0465776146195 -0.0040110243521 0.0306074996347
v -0.0465248859719 -0.0045823013104 0.0305133318723
v -0.0463285364665 -0.003989575024 0.0307458178099
v -0.0462760897903 -0.0045577970253 0.0306499379063
v -0.0460794583135 -0.0039681256959 0.0308841359851
v -0.0460272936086 -0.0045332927402 0.0307865439404
v -0.0458303801604 -0.0039466763678 0.0310224541603
v -0.0457784974269 -0.0045087884552 0.0309231499744
v -0.0455813020074 -0.0039252270398 0.0311607723355
v -0.0455297012453 -0.0044842841701 0.0310597560085
v -0.0453322238543 -0.0039037777117 0.0312990905106
v -0.0452809050636 -0.004459779885 0.0311963620425
v -0.0450831457013 -0.0038823283836 0.0314374086858
v -0.0450321088819 -0.0044352755999 0.0313329680766
v -0.0448340675482 -0.0038608790555 0.031575726861
v -0.0447833127002 -0.0044107713148 0.0314695741106
v -0.0445849893952 -0.0038394297274 0.0317140450362
v -0.0445345165186 -0.0043862670297 0.0316061801446
v -0.0443359112421 -0.0038179803993 0.0318477526055
v -0.0442857203369 -0.0043617627447 0.0317382326442
v -0.0440868330891 -0.0037965310712 0.031934201465
v -0.0440369241552 -0.0043372584596 0.0318236114155
v -0.043837754936 -0.0037750817432 0.014
v -0.043837754936 -0.0037750817432 0.0319630177515
v -0.0437881279736 -0.0043127541745 0.014
v -0.0437881279736 -0.0043127541745 0.0318520710059
f 42 46 44
f 42 45 46
f 42 40 45
f 41 42 44
f 41 44 43
f 41 39 40
f 41 40 42
f 41 43 1
f 6 4 3
f 16 3 45
f 16 6 3
f 38 40 39
f 11 2 4
f 11 4 29
f 11 1 2
f 11 13 1
f 37 38 39
f 37 4 6
f 37 11 29
f 37 29 4
f 30 16 28
f 30 6 16
f 30 37 6
f 27 13 11
f 27 11 37
f 27 37 39
f 27 39 41
f 34 30 28
f 34 38 37
f 34 37 30
f 36 28 40
f 36 34 28
f 36 40 38
f 36 38 34
f 43 45 3
f 43 3 1
f 46 45 43
f 46 43 44
f 4 1 3
f 4 2 1
f 28 16 45
f 28 45 40
f 27 1 13
f 27 41 1
