# Parametric PetalDock simulation geometry; SI units
v -0.0006135769143 -0.049996235092 0.014
v -0.0006135769143 -0.049996235092 0.0281666666667
v -0.0006126427991 -0.0499201203562 0.0284881600858
v -0.0006099826639 -0.0497033639275 0.0287949920093
v -0.0006060014904 -0.0493789650071 0.0291121077565
v -0.000601305376 -0.0489963103901 0.014
v -0.000601305376 -0.0489963103901 0.0293888888889
v -0 -0.05 0.014
v -0 -0.05 0.0281666666667
v -0 -0.0499238795325 0.0284881600858
v -0 -0.0497071067812 0.0287949920093
v -0 -0.0493826834324 0.0291121077565
v -0 -0.049 0.014
v -0 -0.049 0.0293888888889
f 9 10 2
f 3 7 6
f 3 6 1
f 3 1 2
f 3 2 10
f 3 10 4
f 12 14 7
f 5 7 3
f 5 3 4
f 5 12 7
f 5 4 12
f 11 4 10
f 11 12 4
f 13 1 6
f 13 8 1
f 9 2 1
f 9 1 8
f 14 6 7
f 14 13 6
f 11 8 13
f 11 9 8
f 11 10 9
f 11 13 14
f 11 14 12
