# Parametric PetalDock simulation geometry; SI units
v 0.0101484574334 0.0479375511653 0.014
v 0.0101484574334 0.0479375511653 0.0270954415954
v 0.0102277155257 0.0483119370146 0.0269043551446
v 0.010294907292 0.0486293260123 0.0266621678898
v 0.0103398033948 0.0488413985604 0.0264072509275
v 0.0103555688096 0.048915868536 0.014
v 0.0103555688096 0.048915868536 0.0261324786325
v 0.0107359607677 0.0478094043719 0.014
v 0.0107359607677 0.0478094043719 0.0268224121557
v 0.0108198071823 0.048182789412 0.0266415274527
v 0.0108908887404 0.0484993299645 0.0264082602565
v 0.010938383919 0.0487108355997 0.0261595236467
v 0.0109550620078 0.0487851065019 0.014
v 0.0109550620078 0.0487851065019 0.0258903133903
f 5 6 1
f 5 7 6
f 5 14 7
f 11 8 13
f 11 13 14
f 3 1 2
f 3 5 1
f 9 8 11
f 12 14 5
f 12 11 14
f 4 5 3
f 4 3 11
f 4 12 5
f 4 11 12
f 10 2 9
f 10 3 2
f 10 11 3
f 10 9 11
f 8 1 6
f 8 6 13
f 14 6 7
f 14 13 6
f 9 1 8
f 9 2 1
