# Parametric PetalDock simulation geometry; SI units
v 0.0122534674004 0.0306407006556 0.014
v 0.0122534674004 0.0306407006556 0.0232730294397
v 0.0123462966989 0.0308728271757 0.0232789648623
v 0.0124391259974 0.0311049536959 0.0232849002849
v 0.0125319552959 0.031337080216 0.0232908357075
v 0.0126247845944 0.0315692067361 0.0232967711301
v 0.012628553268 0.0304880245729 0.014
v 0.012628553268 0.0304880245729 0.023
v 0.0127176138929 0.0318013332562 0.0233027065527
v 0.0127242241261 0.030718994456 0.023
v 0.0128104431913 0.0320334597763 0.0233086419753
v 0.0128198949842 0.0309499643391 0.023
v 0.0129032724898 0.0322655862964 0.0233145773979
v 0.0129155658423 0.0311809342223 0.023
v 0.0129961017883 0.0324977128166 0.0233205128205
v 0.0130112367004 0.0314119041054 0.023
v 0.0130889310868 0.0327298393367 0.0233264482431
v 0.0131069075585 0.0316428739885 0.023
v 0.0131817603853 0.0329619658568 0.0233323836657
v 0.0132025784166 0.0318738438716 0.023
v 0.0132745896838 0.0331940923769 0.0233383190883
v 0.0132982492747 0.0321048137548 0.023
v 0.0133674189823 0.033426218897 0.0233442545109
v 0.0133939201328 0.0323357836379 0.023
v 0.0134602482808 0.0336583454172 0.0233501899335
v 0.0134895909909 0.032566753521 0.023
v 0.0135530775792 0.0338904719373 0.0233561253561
v 0.013585261849 0.0327977234042 0.023
v 0.0136459068777 0.0341225984574 0.0233620607787
v 0.0136809327071 0.0330286932873 0.023
v 0.0137387361762 0.0343547249775 0.0233679962013
v 0.0137766035651 0.0332596631704 0.023
v 0.0138315654747 0.0345868514976 0.0233739316239
v 0.0138722744232 0.0334906330535 0.023
v 0.0139243947732 0.0348189780177 0.0233796691991
v 0.0139679452813 0.0337216029367 0.023
v 0.0140172240717 0.0350511045379 0.0233833788382
v 0.0140636161394 0.0339525728198 0.023
v 0.0141100533702 0.035283231058 0.014
v 0.0141100533702 0.035283231058 0.0233846153846
v 0.0141592869975 0.0341835427029 0.023
v 0.0142549578556 0.034414512586 0.023
v 0.0143506287137 0.0346454824692 0.023
v 0.0144462995718 0.0348764523523 0.023
v 0.0145419704299 0.0351074222354 0.014
v 0.0145419704299 0.0351074222354 0.023
f 33 8 35
f 37 35 8
f 37 46 40
f 37 33 35
f 37 40 39
f 26 46 37
f 26 7 45
f 26 45 46
f 27 39 1
f 27 37 39
f 27 33 37
f 3 2 8
f 3 8 9
f 23 8 33
f 23 9 8
f 23 3 9
f 12 8 7
f 12 37 8
f 11 1 2
f 11 27 1
f 20 7 26
f 20 12 7
f 20 26 37
f 20 37 12
f 13 3 23
f 13 23 33
f 7 39 45
f 7 1 39
f 2 1 7
f 2 7 8
f 46 45 39
f 46 39 40
f 13 11 2
f 13 2 3
f 13 33 27
f 13 27 11
