# Parametric PetalDock simulation geometry; SI units
v 0.0435237664385 0.006456140876 0.014
v 0.0435237664385 0.006456140876 0.0306923076923
v 0.0435997159588 0.0059215511743 0.014
v 0.0435997159588 0.0059215511743 0.031075443787
v 0.0437710605659 0.0064928234946 0.0306675767648
v 0.0438474416177 0.0059551963514 0.031049481069
v 0.0440183546934 0.0065295061133 0.0305933839823
v 0.0440951672765 0.0059888415286 0.0309715929152
v 0.0442656488209 0.0065661887319 0.0304786324786
v 0.0443428929354 0.0060224867057 0.030851125904
v 0.0445129429484 0.0066028713505 0.0303599240266
v 0.0445906185943 0.0060561318828 0.0307265048579
v 0.0447602370759 0.0066395539691 0.0302412155745
v 0.0448383442531 0.0060897770599 0.0306018838118
v 0.0450075312034 0.0066762365877 0.0301225071225
v 0.045086069912 0.0061234222371 0.0304772627657
v 0.0452548253309 0.0067129192063 0.0300037986705
v 0.0453337955708 0.0061570674142 0.0303526417196
v 0.0455021194584 0.0067496018249 0.0298850902184
v 0.0455815212297 0.0061907125913 0.0302280206735
v 0.0457494135859 0.0067862844436 0.0297663817664
v 0.0458292468885 0.0062243577685 0.0301033996274
v 0.0459967077134 0.0068229670622 0.0296476733143
v 0.0460769725474 0.0062580029456 0.0299787785813
v 0.0462440018409 0.0068596496808 0.0295289648623
v 0.0463246982062 0.0062916481227 0.0298541575352
v 0.0464912959683 0.0068963322994 0.0294102564103
v 0.0465724238651 0.0063252932998 0.0297295364892
v 0.0467385900958 0.006933014918 0.0292915479582
v 0.046820149524 0.006358938477 0.0296049154431
v 0.0469858842233 0.0069696975366 0.0291728395062
v 0.0470678751828 0.0063925836541 0.029480294397
v 0.0472331783508 0.0070063801552 0.0290541310541
v 0.0473156008417 0.0064262288312 0.0293556733509
v 0.0474804724783 0.0070430627739 0.0289354226021
v 0.0475633265005 0.0064598740083 0.0292310523048
v 0.0477277666058 0.0070797453925 0.02881671415
v 0.0478110521594 0.0064935191855 0.0291064312587
v 0.0479750607333 0.0071164280111 0.028698005698
v 0.0480587778182 0.0065271643626 0.0289818102126
v 0.0482223548608 0.0071531106297 0.028579297246
v 0.0483065034771 0.0065608095397 0.0288571891665
v 0.0484696489883 0.0071897932483 0.014
v 0.0484696489883 0.0071897932483 0.0284605887939
v 0.048554229136 0.0065944547168 0.014
v 0.048554229136 0.0065944547168 0.0287325681204
f 7 43 1
f 7 1 2
f 5 2 4
f 5 7 2
f 35 43 7
f 6 5 4
f 6 7 5
f 6 3 45
f 6 4 3
f 14 45 46
f 14 6 45
f 8 44 41
f 8 9 7
f 8 7 6
f 38 46 44
f 38 30 46
f 38 44 30
f 28 14 46
f 28 46 30
f 10 30 44
f 10 44 8
f 10 8 6
f 21 41 35
f 21 8 41
f 21 35 7
f 21 7 9
f 12 28 30
f 12 30 10
f 12 14 28
f 12 6 14
f 12 10 6
f 11 9 8
f 11 21 9
f 11 8 21
f 3 43 45
f 3 1 43
f 2 1 3
f 2 3 4
f 44 45 43
f 44 46 45
f 35 44 43
f 35 41 44
