# Parametric PetalDock simulation geometry; SI units
v 0.0148231535493 -0.0414279388681 0.014
v 0.0148231535493 -0.0414279388681 0.0245384615385
v 0.0149073760126 -0.0416633248843 0.024533515353
v 0.014991598476 -0.0418987109006 0.0245186767965
v 0.0150758209393 -0.0421340969169 0.0244957264957
v 0.0151600434026 -0.0423694829332 0.0244719848053
v 0.015244265866 -0.0426048689495 0.0244482431149
v 0.0153284883293 -0.0428402549658 0.0244245014245
v 0.015330421931 -0.0412429165242 0.014
v 0.015330421931 -0.0412429165242 0.0241538461538
v 0.0154127107927 -0.0430756409821 0.0244007597341
v 0.015417526601 -0.0414772512771 0.0241501365147
v 0.015496933256 -0.0433110269984 0.0243770180437
v 0.0155046312711 -0.0417115860301 0.0241390075973
v 0.0155811557194 -0.0435464130147 0.0243532763533
v 0.0155917359412 -0.0419459207831 0.0241217948718
v 0.0156653781827 -0.043781799031 0.0243295346629
v 0.0156788406112 -0.0421802555361 0.024103988604
v 0.0157496006461 -0.0440171850473 0.0243057929725
v 0.0157659452813 -0.042414590289 0.0240861823362
v 0.0158338231094 -0.0442525710636 0.0242820512821
v 0.0158530499513 -0.042648925042 0.0240683760684
v 0.0159180455728 -0.0444879570799 0.0242583095916
v 0.0159401546214 -0.042883259795 0.0240505698006
v 0.0160022680361 -0.0447233430962 0.0242345679012
v 0.0160272592915 -0.043117594548 0.0240327635328
v 0.0160864904995 -0.0449587291125 0.0242108262108
v 0.0161143639615 -0.043351929301 0.024014957265
v 0.0161707129628 -0.0451941151288 0.0241870845204
v 0.0162014686316 -0.0435862640539 0.0239971509972
v 0.0162549354262 -0.0454295011451 0.02416334283
v 0.0162885733017 -0.0438205988069 0.0239793447293
v 0.0163391578895 -0.0456648871614 0.0241396011396
v 0.0163756779717 -0.0440549335599 0.0239615384615
v 0.0164233803529 -0.0459002731777 0.0241158594492
v 0.0164627826418 -0.0442892683129 0.0239437321937
v 0.0165076028162 -0.046135659194 0.014
v 0.0165076028162 -0.046135659194 0.0240921177588
v 0.0165498873118 -0.0445236030658 0.0239259259259
v 0.0166369919819 -0.0447579378188 0.0239081196581
v 0.016724096652 -0.0449922725718 0.0238903133903
v 0.016811201322 -0.0452266073248 0.0238725071225
v 0.0168983059921 -0.0454609420778 0.0238547008547
v 0.0169854106622 -0.0456952768307 0.0238368945869
v 0.0170725153322 -0.0459296115837 0.014
v 0.0170725153322 -0.0459296115837 0.0238190883191
f 6 2 1
f 6 1 37
f 44 45 9
f 44 46 45
f 4 46 44
f 35 38 46
f 35 46 19
f 5 46 4
f 16 9 10
f 16 44 9
f 30 4 44
f 12 10 2
f 26 16 4
f 26 4 30
f 26 44 16
f 26 30 44
f 3 12 2
f 3 5 4
f 3 6 5
f 3 2 6
f 14 12 3
f 14 16 10
f 14 10 12
f 14 4 16
f 14 3 4
f 9 37 1
f 9 45 37
f 46 38 37
f 46 37 45
f 10 9 1
f 10 1 2
f 21 37 38
f 21 6 37
f 21 38 35
f 21 35 19
f 5 6 21
f 5 21 19
f 5 19 46
