# Parametric PetalDock simulation geometry; SI units
v -0.0499661192294 0.0018403611471 0.014
v -0.0499661192294 0.0018403611471 0.0281666666667
v -0.0499397728103 0.0024533837164 0.014
v -0.0499397728103 0.0024533837164 0.0281666666667
v -0.0498900503423 0.0018375593641 0.0284881600858
v -0.0498637440332 0.0024496486621 0.0284881600858
v -0.0496734244796 0.0018295805611 0.0287949920093
v -0.0496472323942 0.0024390121273 0.0287949920093
v -0.049349220965 0.0018176394385 0.0291121077565
v -0.0493231998275 0.0024230934281 0.0291121077565
v -0.0489667968448 0.0018035539241 0.014
v -0.0489667968448 0.0018035539241 0.0293888888889
v -0.0489409773541 0.002404316042 0.014
v -0.0489409773541 0.002404316042 0.0293888888889
f 10 13 3
f 10 14 13
f 9 1 11
f 9 11 12
f 9 2 1
f 9 12 14
f 9 14 10
f 5 4 2
f 5 2 9
f 6 3 4
f 6 10 3
f 6 8 10
f 6 4 5
f 7 5 9
f 7 10 8
f 7 9 10
f 7 8 6
f 7 6 5
f 11 3 13
f 11 1 3
f 2 3 1
f 2 4 3
f 14 11 13
f 14 12 11
