# Parametric PetalDock simulation geometry; SI units
v -0.0059981230848 0.0486314971953 0.014
v -0.0059981230848 0.0486314971953 0.028968843597
v -0.005967520416 0.0483833773117 0.0290986010665
v -0.0059369177472 0.048135257428 0.0292283585361
v -0.0059063150784 0.0478871375444 0.0293581160056
v -0.0058757124096 0.0476390176607 0.0294878734751
v -0.0058451097408 0.0473908977771 0.0296176309446
v -0.005814507072 0.0471427778934 0.0297473884141
v -0.0057839044032 0.0468946580098 0.0298771458836
v -0.0057533017344 0.0466465381261 0.0300069033531
v -0.0057226990656 0.0463984182425 0.0301366608226
v -0.0056920963968 0.0461502983588 0.0302664182921
v -0.005661493728 0.0459021784752 0.0303961757616
v -0.0056308910592 0.0456540585915 0.0305259332311
v -0.0056002883904 0.0454059387079 0.0306556907006
v -0.0055696857216 0.0451578188242 0.0307854481701
v -0.0055390830528 0.0449096989406 0.0309152056396
v -0.005508480384 0.0446615790569 0.0310449631091
v -0.0054778777152 0.0444134591733 0.0311747205786
v -0.0054472750464 0.0441653392896 0.0313001527991
v -0.0054166723776 0.043917219406 0.0313812512175
v -0.0054008881574 0.0487014415301 0.014
v -0.0054008881574 0.0487014415301 0.0291526134122
v -0.0053860697088 0.0436690995223 0.014
v -0.0053860697088 0.0436690995223 0.0314082840237
v -0.0053733326056 0.0484529647876 0.0292863658777
v -0.0053457770538 0.0482044880451 0.0294201183432
v -0.0053182215019 0.0479560113026 0.0295538708087
v -0.0052906659501 0.0477075345601 0.0296876232742
v -0.0052631103983 0.0474590578176 0.0298213757396
v -0.0052355548465 0.0472105810751 0.0299551282051
v -0.0052079992946 0.0469621043326 0.0300888806706
v -0.0051804437428 0.0467136275901 0.0302226331361
v -0.005152888191 0.0464651508476 0.0303563856016
v -0.0051253326392 0.0462166741051 0.0304901380671
v -0.0050977770873 0.0459681973626 0.0306238905325
v -0.0050702215355 0.0457197206201 0.030757642998
v -0.0050426659837 0.0454712438776 0.0308913954635
v -0.0050151104319 0.0452227671351 0.031025147929
v -0.00498755488 0.0449742903926 0.0311589003945
v -0.0049599993282 0.0447258136501 0.03129265286
v -0.0049324437764 0.0444773369076 0.0314264053254
v -0.0049048882246 0.0442288601651 0.0315556993754
v -0.0048773326728 0.0439803834226 0.0316392946663
v -0.0048497771209 0.0437319066801 0.014
v -0.0048497771209 0.0437319066801 0.0316671597633
f 28 45 22
f 28 22 23
f 40 46 45
f 40 45 28
f 27 23 2
f 44 46 43
f 42 43 46
f 42 2 43
f 20 44 43
f 19 20 43
f 21 20 25
f 21 44 20
f 21 25 46
f 21 46 44
f 41 35 2
f 41 2 42
f 29 27 2
f 29 2 35
f 29 35 41
f 18 20 19
f 5 19 43
f 4 43 2
f 4 5 43
f 24 22 45
f 24 1 22
f 2 23 22
f 2 22 1
f 25 24 45
f 25 45 46
f 41 42 46
f 41 46 40
f 29 23 27
f 29 28 23
f 29 41 40
f 29 40 28
f 4 1 24
f 4 2 1
f 4 24 25
f 4 25 20
f 4 20 18
f 4 18 19
f 4 19 5
