# Parametric PetalDock simulation geometry; SI units
v 0.0367076833316 -0.0324583731019 0.014
v 0.0367076833316 -0.0324583731019 0.0166111111111
v 0.0369943654184 -0.0327118686453 0.016811771776
v 0.0371032334788 -0.0320054693047 0.014
v 0.0371032334788 -0.0320054693047 0.0166111111111
v 0.0372374027563 -0.0329267717902 0.0169121147719
v 0.0373930047592 -0.0322554277302 0.016811771776
v 0.0373997951136 -0.0330703654808 0.0168945233466
v 0.0374568197262 -0.0331207888795 0.014
v 0.0374568197262 -0.0331207888795 0.0168333333333
v 0.037638660989 -0.0324673322513 0.0169121147719
v 0.0378028032339 -0.0326089223255 0.0168945233466
v 0.0378604423253 -0.0326586421477 0.014
v 0.0378604423253 -0.0326586421477 0.0168333333333
f 3 5 2
f 11 4 5
f 11 13 4
f 11 12 13
f 14 13 12
f 14 12 10
f 8 2 10
f 8 3 2
f 8 6 3
f 8 10 12
f 8 11 6
f 8 12 11
f 7 3 6
f 7 6 11
f 7 5 3
f 7 11 5
f 4 13 9
f 4 9 1
f 2 4 1
f 2 5 4
f 2 1 9
f 2 9 10
f 14 9 13
f 14 10 9
