# Parametric PetalDock simulation geometry; SI units
v -0.0246449096115 0.0435043495554 0.014
v -0.0246449096115 0.0435043495554 0.0200783475783
v -0.0246073899707 0.0434381181269 0.0202140689087
v -0.0245005430734 0.043249506976 0.0203144770578
v -0.0243406353913 0.0429672304405 0.0203336628474
v -0.0241520114193 0.0426342625643 0.014
v -0.0241520114193 0.0426342625643 0.020269705603
v -0.024109188604 0.0438035047098 0.014
v -0.024109188604 0.0438035047098 0.0203205128205
v -0.0240724845498 0.0437368178446 0.0204617961894
v -0.0239679602469 0.04354690972 0.0205683846911
v -0.0238115285728 0.0432626921262 0.0205964905392
v -0.0236270048319 0.0429274346156 0.014
v -0.0236270048319 0.0429274346156 0.0205427350427
f 14 13 12
f 11 13 8
f 11 12 13
f 10 8 9
f 10 11 8
f 4 12 11
f 5 12 4
f 5 7 14
f 5 14 12
f 5 1 6
f 5 6 7
f 3 11 10
f 3 4 11
f 3 1 5
f 3 5 4
f 2 10 9
f 2 3 10
f 2 1 3
f 6 8 13
f 6 1 8
f 14 6 13
f 14 7 6
f 2 8 1
f 2 9 8
