# Parametric PetalDock simulation geometry; SI units
v 0.0335130080452 0.0179130759994 0.014
v 0.0335130080452 0.0179130759994 0.0199230769231
v 0.0337303055753 0.0175004710164 0.014
v 0.0337303055753 0.0175004710164 0.0203076923077
v 0.0337334883613 0.0180309251836 0.0199230769231
v 0.0339522154804 0.0176156056942 0.0203076923077
v 0.0339539686774 0.0181487743678 0.0199230769231
v 0.0341741253855 0.0177307403719 0.0203076923077
v 0.0341744489935 0.018266623552 0.0199230769231
v 0.0343949293096 0.0183844727362 0.0199230769231
v 0.0343960352906 0.0178458750496 0.0203076923077
v 0.0346154096257 0.0185023219204 0.0199230769231
v 0.0346179451957 0.0179610097274 0.0203076923077
v 0.0348358899418 0.0186201711046 0.0199230769231
v 0.0348398551008 0.0180761444051 0.0203076923077
v 0.0350563702578 0.0187380202888 0.0199230769231
v 0.0350617650059 0.0181912790829 0.0203076923077
v 0.0352768505739 0.018855869473 0.0199230769231
v 0.035283674911 0.0183064137606 0.0203076923077
v 0.03549733089 0.0189737186572 0.0199230769231
v 0.0355055848161 0.0184215484383 0.0203076923077
v 0.0357178112061 0.0190915678415 0.0199230769231
v 0.0357274947212 0.0185366831161 0.0203076923077
v 0.0359382915222 0.0192094170257 0.0199230769231
v 0.0359494046263 0.0186518177938 0.0203076923077
v 0.0361587718383 0.0193272662099 0.0199230769231
v 0.0361713145314 0.0187669524715 0.0203076923077
v 0.0363792521544 0.0194451153941 0.0199230769231
v 0.0363932244365 0.0188820871493 0.0203076923077
v 0.0365997324705 0.0195629645783 0.0199230769231
v 0.0366151343416 0.018997221827 0.0203076923077
v 0.0368202127865 0.0196808137625 0.0199230769231
v 0.0368370442467 0.0191123565048 0.0203076923077
v 0.0370406931026 0.0197986629467 0.0199230769231
v 0.0370589541518 0.0192274911825 0.0203076923077
v 0.0372611734187 0.0199165121309 0.0199230769231
v 0.0372808640569 0.0193426258602 0.0203076923077
v 0.0374816537348 0.0200343613151 0.0199230769231
v 0.037502773962 0.019457760538 0.0203076923077
v 0.0377021340509 0.0201522104993 0.0199230769231
v 0.0377246838671 0.0195728952157 0.0203076923077
v 0.037922614367 0.0202700596835 0.0199230769231
v 0.0379465937722 0.0196880298935 0.0203076923077
v 0.0381430946831 0.0203879088677 0.0199230769231
v 0.0381685036773 0.0198031645712 0.0203076923077
v 0.0383635749992 0.0205057580519 0.0199230769231
v 0.0383904135824 0.0199182992489 0.0203076923077
v 0.0385840553152 0.0206236072361 0.0199230769231
v 0.0386123234875 0.0200334339267 0.0203076923077
v 0.0388045356313 0.0207414564203 0.014
v 0.0388045356313 0.0207414564203 0.0199230769231
v 0.0388342333926 0.0201485686044 0.0203076923077
v 0.0390561432977 0.0202637032822 0.014
v 0.0390561432977 0.0202637032822 0.0203076923077
f 22 50 1
f 47 3 53
f 2 22 1
f 2 4 22
f 51 4 6
f 52 53 54
f 52 47 53
f 27 3 47
f 32 50 22
f 32 22 4
f 17 54 51
f 17 51 6
f 11 4 3
f 11 3 27
f 48 51 50
f 48 50 32
f 48 4 51
f 48 32 4
f 3 50 53
f 3 1 50
f 2 1 3
f 2 3 4
f 51 53 50
f 51 54 53
f 11 6 4
f 11 52 54
f 11 54 17
f 11 47 52
f 11 27 47
f 11 17 6
