# Parametric PetalDock simulation geometry; SI units
v 0.0292547121825 0.0129677220482 0.014
v 0.0292547121825 0.0129677220482 0.0220156695157
v 0.0293243022565 0.0129985692064 0.0221958871547
v 0.0294116432541 0.012607745282 0.014
v 0.0294116432541 0.012607745282 0.0222578347578
v 0.0294816066301 0.0126377361402 0.0224436144354
v 0.0295224780205 0.013086414481 0.022345738124
v 0.0296808454686 0.0127231428788 0.0225996457573
v 0.029819069011 0.0132178842252 0.0224362843825
v 0.0299790274623 0.0128509630958 0.0226991120744
v 0.0301689219382 0.0133729633622 0.014
v 0.0301689219382 0.0133729633622 0.0224539411206
v 0.0303307571058 0.013001737322 0.014
v 0.0303307571058 0.013001737322 0.0227269705603
f 6 13 14
f 6 4 13
f 5 4 6
f 5 6 2
f 10 6 14
f 10 8 6
f 7 8 10
f 9 12 2
f 9 2 7
f 9 7 10
f 9 14 12
f 9 10 14
f 3 2 6
f 3 7 2
f 3 6 8
f 3 8 7
f 12 14 13
f 12 13 11
f 4 11 13
f 4 1 11
f 2 12 11
f 2 11 1
f 5 1 4
f 5 2 1
