# Parametric PetalDock simulation geometry; SI units
v -0.043256641447 -0.00805375507 0.014
v -0.043256641447 -0.00805375507 0.0295384615385
v -0.0431545523377 -0.0085839741687 0.014
v -0.0431545523377 -0.0085839741687 0.0291538461538
v -0.0430108650751 -0.008007995098 0.0295384615385
v -0.0429093560176 -0.0085352015882 0.0291538461538
v -0.0427650887033 -0.007962235126 0.0295384615385
v -0.0426641596975 -0.0084864290077 0.0291538461538
v -0.0425193123314 -0.0079164751541 0.0295384615385
v -0.0424189633774 -0.0084376564272 0.0291538461538
v -0.0422735359595 -0.0078707151821 0.0295384615385
v -0.0421737670573 -0.0083888838467 0.0291538461538
v -0.0420277595877 -0.0078249552101 0.0295384615385
v -0.0419285707372 -0.0083401112662 0.0291538461538
v -0.0417819832158 -0.0077791952381 0.0295384615385
v -0.0416833744171 -0.0082913386857 0.0291538461538
v -0.041536206844 -0.0077334352661 0.0295384615385
v -0.041438178097 -0.0082425661052 0.0291538461538
v -0.0412904304721 -0.0076876752941 0.0295384615385
v -0.0411929817769 -0.0081937935247 0.0291538461538
v -0.0410446541003 -0.0076419153221 0.0295384615385
v -0.0409477854568 -0.0081450209442 0.0291538461538
v -0.0407988777284 -0.0075961553501 0.0295384615385
v -0.0407025891367 -0.0080962483637 0.0291538461538
v -0.0405531013565 -0.0075503953781 0.0295384615385
v -0.0404573928166 -0.0080474757832 0.0291538461538
v -0.0403073249847 -0.0075046354062 0.0295384615385
v -0.0402121964965 -0.0079987032027 0.0291538461538
v -0.0400615486128 -0.0074588754342 0.0295384615385
v -0.0399670001764 -0.0079499306222 0.0291538461538
v -0.039815772241 -0.0074131154622 0.0295384615385
v -0.0397218038563 -0.0079011580417 0.0291538461538
v -0.0395699958691 -0.0073673554902 0.0295384615385
v -0.0394766075362 -0.0078523854611 0.0291538461538
v -0.0393242194972 -0.0073215955182 0.0295384615385
v -0.0392314112161 -0.0078036128806 0.0291538461538
v -0.0390784431254 -0.0072758355462 0.0295384615385
v -0.038986214896 -0.0077548403001 0.0291538461538
v -0.0388326667535 -0.0072300755742 0.0295384615385
v -0.0387410185759 -0.0077060677196 0.0291538461538
v -0.0385868903817 -0.0071843156022 0.0295384615385
v -0.0384958222558 -0.0076572951391 0.0291538461538
v -0.0383411140098 -0.0071385556303 0.0295384615385
v -0.0382506259357 -0.0076085225586 0.0291538461538
v -0.038095337638 -0.0070927956583 0.0295384615385
v -0.0380054296156 -0.0075597499781 0.0291538461538
v -0.0378495612661 -0.0070470356863 0.0295384615385
v -0.0377602332955 -0.0075109773976 0.0291538461538
v -0.0376037848942 -0.0070012757143 0.0295384615385
v -0.0375150369754 -0.0074622048171 0.0291538461538
v -0.0373580085224 -0.0069555157423 0.014
v -0.0373580085224 -0.0069555157423 0.0295384615385
v -0.0372698406553 -0.0074134322366 0.014
v -0.0372698406553 -0.0074134322366 0.0291538461538
f 32 3 53
f 4 3 32
f 41 51 1
f 7 1 2
f 7 41 1
f 52 51 41
f 52 4 32
f 9 2 4
f 54 32 53
f 54 52 32
f 43 9 4
f 49 4 52
f 49 43 4
f 51 53 3
f 51 3 1
f 4 1 3
f 4 2 1
f 54 53 51
f 54 51 52
f 49 41 7
f 49 7 2
f 49 52 41
f 49 2 9
f 49 9 43
