# Parametric PetalDock simulation geometry; SI units
v -0.0218597206605 -0.0247215010193 0.014
v -0.0218597206605 -0.0247215010193 0.0166111111111
v -0.0216062251171 -0.0244348189325 0.016811771776
v -0.0215547038175 -0.0249878919347 0.014
v -0.0215547038175 -0.0249878919347 0.0166111111111
v -0.0213913219722 -0.0241917815947 0.0169121147719
v -0.021304745392 -0.0246981206543 0.016811771776
v -0.0212477282815 -0.0240293892373 0.0168945233466
v -0.0211973048829 -0.0239723646248 0.014
v -0.0211973048829 -0.0239723646248 0.0168333333333
v -0.0210928408709 -0.0244524644246 0.0169121147719
v -0.0209512507967 -0.0242883221796 0.0168945233466
v -0.0209015309745 -0.0242306830882 0.014
v -0.0209015309745 -0.0242306830882 0.0168333333333
f 11 4 13
f 5 4 11
f 14 11 13
f 7 11 6
f 7 5 11
f 12 11 14
f 3 2 5
f 3 5 7
f 3 7 6
f 3 1 2
f 3 9 1
f 3 10 9
f 3 6 10
f 8 14 10
f 8 12 14
f 8 10 6
f 8 6 11
f 8 11 12
f 9 13 4
f 9 4 1
f 5 1 4
f 5 2 1
f 14 13 9
f 14 9 10
