# Parametric PetalDock simulation geometry; SI units
v 0.0465268808491 0.0153704052795 0.014
v 0.0465268808491 0.0153704052795 0.0246381766382
v 0.0467119959774 0.0147982915166 0.014
v 0.0467119959774 0.0147982915166 0.0249112060779
v 0.0468902495523 0.0154904460846 0.0245389059176
v 0.047076810405 0.0149138641899 0.0248017336095
v 0.0471982986645 0.0155922117653 0.0243769991903
v 0.047386085143 0.0150118419714 0.0246309068235
v 0.0474041305007 0.0156602094192 0.0241777054007
v 0.0474764090297 0.0156840870199 0.014
v 0.0474764090297 0.0156840870199 0.023952991453
v 0.0475927359163 0.0150773086319 0.0244254326815
v 0.0476653020177 0.015100297466 0.014
v 0.0476653020177 0.015100297466 0.0241951566952
f 5 10 1
f 5 1 2
f 5 2 4
f 12 3 13
f 12 13 14
f 12 4 3
f 12 14 11
f 7 10 5
f 6 4 12
f 6 12 8
f 6 5 4
f 6 7 5
f 6 8 7
f 9 11 10
f 9 10 7
f 9 12 11
f 9 8 12
f 9 7 8
f 3 10 13
f 3 1 10
f 2 1 3
f 2 3 4
f 11 13 10
f 11 14 13
