# Parametric PetalDock simulation geometry; SI units
v -0.0282865905392 -0.0412294651393 0.014
v -0.0282865905392 -0.0412294651393 0.0183831908832
v -0.0282435267693 -0.041166697016 0.0184799779434
v -0.0281208915281 -0.0409879485242 0.0185371236249
v -0.0279373549195 -0.0407204325011 0.0184938690041
v -0.027778511651 -0.0415734806151 0.014
v -0.027778511651 -0.0415734806151 0.0186253561254
v -0.0277362213851 -0.0415101887595 0.0187277052241
v -0.0277208587284 -0.0404048758365 0.014
v -0.0277208587284 -0.0404048758365 0.0183584995252
v -0.0276157888972 -0.041329948804 0.0187910312581
v -0.0274355489417 -0.041060200648 0.018756696696
v -0.027222941418 -0.0407420110028 0.014
v -0.027222941418 -0.0407420110028 0.0186315289649
f 3 9 1
f 3 10 9
f 12 13 14
f 8 11 3
f 8 12 11
f 8 7 6
f 8 6 13
f 8 13 12
f 2 3 1
f 2 7 8
f 2 8 3
f 5 14 10
f 5 12 14
f 5 10 3
f 4 3 11
f 4 5 3
f 4 11 12
f 4 12 5
f 9 13 6
f 9 6 1
f 14 13 9
f 14 9 10
f 2 1 6
f 2 6 7
