# Parametric PetalDock simulation geometry; SI units
v -0.0451994646562 -0.0213777546715 0.014
v -0.0451994646562 -0.0213777546715 0.0215313390313
v -0.0451306525686 -0.0213452089779 0.0217004325932
v -0.0449346923223 -0.021252526684 0.0218379228575
v -0.0449337232847 -0.0219308119269 0.014
v -0.0449337232847 -0.0219308119269 0.0212891737892
v -0.0448653157642 -0.0218974242538 0.0214527053124
v -0.0446705076278 -0.021802344205 0.0215840152242
v -0.0446414170886 -0.0211138178288 0.0219106289987
v -0.0443789566481 -0.021660046856 0.0216478013068
v -0.044295475363 -0.0209501995781 0.014
v -0.044295475363 -0.0209501995781 0.0219078822412
v -0.044035048819 -0.0214921956884 0.014
v -0.044035048819 -0.0214921956884 0.0216348528015
f 12 9 10
f 7 5 13
f 14 7 13
f 14 12 10
f 6 5 7
f 3 9 12
f 3 2 6
f 3 6 7
f 3 11 1
f 3 1 2
f 3 12 11
f 8 10 9
f 8 14 10
f 8 7 14
f 4 9 3
f 4 8 9
f 4 3 7
f 4 7 8
f 11 13 5
f 11 5 1
f 14 13 11
f 14 11 12
f 6 1 5
f 6 2 1
