# Parametric PetalDock simulation geometry; SI units
v 0.0306220907434 -0.0092891096721 0.014
v 0.0306220907434 -0.0092891096721 0.0244373219373
v 0.0306949334891 -0.0093112062775 0.0246731599622
v 0.0307337766213 -0.0089126300603 0.014
v 0.0307337766213 -0.0089126300603 0.0246794871795
v 0.0308068850414 -0.0089338311093 0.024920887243
v 0.0309023720786 -0.0093741320856 0.0248848144568
v 0.0310150802076 -0.0089942065886 0.0251387220901
v 0.0312128258669 -0.0094683072127 0.0250645613014
v 0.031326666293 -0.009084564879 0.0253273889933
v 0.0315790310792 -0.0095793943494 0.014
v 0.0315790310792 -0.0095793943494 0.0251842355176
v 0.0316942071407 -0.0091911497497 0.014
v 0.0316942071407 -0.0091911497497 0.0254572649573
f 3 11 12
f 3 1 11
f 8 14 13
f 8 13 4
f 5 8 4
f 9 12 14
f 9 3 12
f 2 1 3
f 6 3 8
f 6 8 5
f 6 5 2
f 6 2 3
f 10 14 8
f 10 9 14
f 7 8 3
f 7 3 9
f 7 10 8
f 7 9 10
f 12 13 14
f 12 11 13
f 4 13 11
f 4 11 1
f 2 4 1
f 2 5 4
