# Parametric PetalDock simulation geometry; SI units
v 0.0054707804403 0.0315288845564 0.014
v 0.0054707804403 0.0315288845564 0.026858974359
v 0.0054837941392 0.0316038843512 0.0271504327697
v 0.0055208540182 0.0318174656966 0.0274238907896
v 0.0055763180467 0.0321371127688 0.0276928382203
v 0.0056417423291 0.0325141621988 0.014
v 0.0056417423291 0.0325141621988 0.0279145299145
v 0.0058572764146 0.0314593755978 0.014
v 0.0058572764146 0.0314593755978 0.0266168091168
v 0.0058712094964 0.0315342100471 0.026902705489
v 0.0059108875565 0.0317473205284 0.0271699831563
v 0.0059702699699 0.0320662629029 0.0274300105284
v 0.0060403163025 0.0324424810852 0.014
v 0.0060403163025 0.0324424810852 0.0276415004748
f 4 6 1
f 4 7 6
f 3 2 9
f 3 1 2
f 3 4 1
f 5 7 4
f 11 9 14
f 11 5 4
f 10 3 9
f 10 9 11
f 10 4 3
f 10 11 4
f 12 11 14
f 12 5 11
f 12 14 7
f 12 7 5
f 8 6 13
f 8 1 6
f 2 1 8
f 2 8 9
f 14 13 6
f 14 6 7
f 14 8 13
f 14 9 8
