# Parametric PetalDock simulation geometry; SI units
v -0.0405228599126 -0.0292898928728 0.014
v -0.0405228599126 -0.0292898928728 0.0178988603989
v -0.0404611675318 -0.0292453016661 0.0179845233819
v -0.0402854824951 -0.0291183166528 0.0180293083583
v -0.040160376574 -0.0297849652246 0.014
v -0.040160376574 -0.0297849652246 0.0176566951567
v -0.0400992360412 -0.0297396203151 0.0177367961011
v -0.0400225512568 -0.0289282701501 0.0179682136204
v -0.0399251225348 -0.0296104889379 0.017775400725
v -0.0397124027144 -0.0287040950154 0.014
v -0.0397124027144 -0.0287040950154 0.0178124406458
v -0.0396645432576 -0.0294172301746 0.0177053859285
v -0.0393571690426 -0.0291892659201 0.014
v -0.0393571690426 -0.0291892659201 0.0175394112061
f 7 6 5
f 7 12 9
f 7 9 4
f 7 5 13
f 14 11 12
f 14 7 13
f 14 12 7
f 8 12 11
f 8 4 9
f 8 9 12
f 8 2 4
f 8 10 1
f 8 1 2
f 8 11 10
f 3 2 6
f 3 6 7
f 3 4 2
f 3 7 4
f 10 13 5
f 10 5 1
f 6 1 5
f 6 2 1
f 14 13 10
f 14 10 11
