# Parametric PetalDock simulation geometry; SI units
v -0.0155560923153 0.0291034017235 0.014
v -0.0155560923153 0.0291034017235 0.0208157644824
v -0.015375696594 0.028765905067 0.0208593182311
v -0.015222764486 0.028479789217 0.0208222923244
v -0.0151977774616 0.0292921074733 0.014
v -0.0151977774616 0.0292921074733 0.0210887939221
v -0.0151205785184 0.0282886127181 0.0207095234702
v -0.0150846955784 0.0282214804591 0.014
v -0.0150846955784 0.0282214804591 0.0205626780627
v -0.015021536927 0.0289524224967 0.021122145923
v -0.0148721274161 0.0286644514785 0.0210761999576
v -0.0147722951726 0.0284720353958 0.0209572507509
v -0.0147372387507 0.0284044678529 0.014
v -0.0147372387507 0.0284044678529 0.0208048433048
f 3 10 6
f 11 6 10
f 2 3 6
f 12 9 14
f 12 14 13
f 12 13 5
f 12 5 6
f 12 6 11
f 4 2 9
f 4 3 2
f 4 10 3
f 4 11 10
f 7 9 12
f 7 4 9
f 7 12 11
f 7 11 4
f 8 5 13
f 8 1 5
f 14 8 13
f 14 9 8
f 2 5 1
f 2 6 5
f 2 1 8
f 2 8 9
