# Parametric PetalDock simulation geometry; SI units
v 0.0363637327578 0.0110308177357 0.014
v 0.0363637327578 0.0110308177357 0.0260769230769
v 0.0364963597378 0.0105837481966 0.014
v 0.0364963597378 0.0105837481966 0.0264615384615
v 0.0366029678418 0.011103388905 0.0260769230769
v 0.0367364673676 0.010653378119 0.0264615384615
v 0.0368422029257 0.0111759600743 0.0260769230769
v 0.0369765749975 0.0107230080413 0.0264615384615
v 0.0370814380096 0.0112485312436 0.0260769230769
v 0.0372166826274 0.0107926379637 0.0264615384615
v 0.0373206730936 0.0113211024129 0.0260769230769
v 0.0374567902572 0.010862267886 0.0264615384615
v 0.0375599081775 0.0113936735822 0.0260769230769
v 0.0376968978871 0.0109318978084 0.0264615384615
v 0.0377991432614 0.0114662447516 0.0260769230769
v 0.0379370055169 0.0110015277307 0.0264615384615
v 0.0380383783454 0.0115388159209 0.0260769230769
v 0.0381771131468 0.0110711576531 0.0264615384615
v 0.0382776134293 0.0116113870902 0.0260769230769
v 0.0384172207766 0.0111407875754 0.0264615384615
v 0.0385168485132 0.0116839582595 0.0260769230769
v 0.0386573284065 0.0112104174977 0.0264615384615
v 0.0387560835972 0.0117565294288 0.0260769230769
v 0.0388974360363 0.0112800474201 0.0264615384615
v 0.0389953186811 0.0118291005981 0.0260769230769
v 0.0391375436662 0.0113496773424 0.0264615384615
v 0.039234553765 0.0119016717674 0.0260769230769
v 0.039377651296 0.0114193072648 0.0264615384615
v 0.039473788849 0.0119742429367 0.0260769230769
v 0.0396177589259 0.0114889371871 0.0264615384615
v 0.0397130239329 0.0120468141061 0.0260769230769
v 0.0398578665557 0.0115585671095 0.0264615384615
v 0.0399522590168 0.0121193852754 0.0260769230769
v 0.0400979741856 0.0116281970318 0.0264615384615
v 0.0401914941008 0.0121919564447 0.0260769230769
v 0.0403380818155 0.0116978269542 0.0264615384615
v 0.0404307291847 0.012264527614 0.0260769230769
v 0.0405781894453 0.0117674568765 0.0264615384615
v 0.0406699642686 0.0123370987833 0.0260769230769
v 0.0408182970752 0.0118370867989 0.0264615384615
v 0.0409091993526 0.0124096699526 0.0260769230769
v 0.041058404705 0.0119067167212 0.0264615384615
v 0.0411484344365 0.0124822411219 0.0260769230769
v 0.0412985123349 0.0119763466436 0.0264615384615
v 0.0413876695204 0.0125548122913 0.0260769230769
v 0.0415386199647 0.0120459765659 0.0264615384615
v 0.0416269046044 0.0126273834606 0.0260769230769
v 0.0417787275946 0.0121156064882 0.0264615384615
v 0.0418661396883 0.0126999546299 0.0260769230769
v 0.0420188352244 0.0121852364106 0.0264615384615
v 0.0421053747722 0.0127725257992 0.014
v 0.0421053747722 0.0127725257992 0.0260769230769
v 0.0422589428543 0.0122548663329 0.014
v 0.0422589428543 0.0122548663329 0.0264615384615
f 45 51 1
f 22 3 53
f 22 4 3
f 52 51 45
f 52 45 4
f 48 53 54
f 48 22 53
f 15 2 4
f 15 4 45
f 15 1 2
f 15 45 1
f 50 54 52
f 50 52 44
f 6 52 4
f 18 44 52
f 18 52 6
f 3 51 53
f 3 1 51
f 2 1 3
f 2 3 4
f 52 53 51
f 52 54 53
f 18 54 50
f 18 4 22
f 18 48 54
f 18 22 48
f 18 50 44
f 18 6 4
