# Parametric PetalDock simulation geometry; SI units
v 0.0438807800939 -0.0032368407984 0.014
v 0.0438807800939 -0.0032368407984 0.032
v 0.0439171969676 -0.0026981123973 0.014
v 0.0439171969676 -0.0026981123973 0.032
v 0.044130102708 -0.0032552319393 0.0319710648148
v 0.0441667264958 -0.0027134425814 0.0319710648148
v 0.0443794253222 -0.0032736230802 0.0318842592593
v 0.0444162560241 -0.0027287727654 0.0318842592593
v 0.0446287479364 -0.0032920142211 0.03175
v 0.0446657855523 -0.0027441029495 0.03175
v 0.0448780705505 -0.003310405362 0.0316111111111
v 0.0449153150805 -0.0027594331336 0.0316111111111
v 0.0451273931647 -0.0033287965029 0.0314722222222
v 0.0451648446087 -0.0027747633177 0.0314722222222
v 0.0453767157789 -0.0033471876438 0.0313333333333
v 0.045414374137 -0.0027900935018 0.0313333333333
v 0.0456260383931 -0.0033655787847 0.0311944444444
v 0.0456639036652 -0.0028054236858 0.0311944444444
v 0.0458753610072 -0.0033839699256 0.0310555555556
v 0.0459134331934 -0.0028207538699 0.0310555555556
v 0.0461246836214 -0.0034023610665 0.0309166666667
v 0.0461629627216 -0.002836084054 0.0309166666667
v 0.0463740062356 -0.0034207522074 0.0307777777778
v 0.0464124922499 -0.0028514142381 0.0307777777778
v 0.0466233288497 -0.0034391433483 0.0306388888889
v 0.0466620217781 -0.0028667444221 0.0306388888889
v 0.0468726514639 -0.0034575344892 0.0305
v 0.0469115513063 -0.0028820746062 0.0305
v 0.0471219740781 -0.0034759256301 0.0303611111111
v 0.0471610808345 -0.0028974047903 0.0303611111111
v 0.0473712966922 -0.003494316771 0.0302222222222
v 0.0474106103628 -0.0029127349744 0.0302222222222
v 0.0476206193064 -0.0035127079119 0.0300833333333
v 0.047660139891 -0.0029280651584 0.0300833333333
v 0.0478699419206 -0.0035310990528 0.0299444444444
v 0.0479096694192 -0.0029433953425 0.0299444444444
v 0.0481192645347 -0.0035494901937 0.0298055555556
v 0.0481591989474 -0.0029587255266 0.0298055555556
v 0.0483685871489 -0.0035678813346 0.0296666666667
v 0.0484087284757 -0.0029740557107 0.0296666666667
v 0.0486179097631 -0.0035862724755 0.0295277777778
v 0.0486582580039 -0.0029893858947 0.0295277777778
v 0.0488672323773 -0.0036046636164 0.014
v 0.0488672323773 -0.0036046636164 0.0293888888889
v 0.0489077875321 -0.0030047160788 0.014
v 0.0489077875321 -0.0030047160788 0.0293888888889
f 37 1 43
f 5 2 1
f 44 37 43
f 11 1 37
f 11 5 1
f 6 4 2
f 6 2 5
f 8 45 3
f 8 3 4
f 8 4 6
f 8 6 5
f 42 46 45
f 42 45 8
f 7 5 11
f 7 11 9
f 7 8 5
f 7 9 8
f 10 8 9
f 10 42 8
f 40 44 46
f 40 46 42
f 23 44 40
f 20 42 10
f 20 40 42
f 20 10 9
f 20 9 23
f 19 23 9
f 19 11 37
f 19 9 11
f 24 23 40
f 24 40 20
f 24 20 23
f 3 45 43
f 3 43 1
f 44 43 45
f 44 45 46
f 4 3 1
f 4 1 2
f 19 44 23
f 19 37 44
