# Parametric PetalDock simulation geometry; SI units
v 0.0426342625643 -0.0241520114193 0.014
v 0.0426342625643 -0.0241520114193 0.020269705603
v 0.0429274346156 -0.0236270048319 0.014
v 0.0429274346156 -0.0236270048319 0.0205427350427
v 0.0429672304405 -0.0243406353913 0.0203336628474
v 0.043249506976 -0.0245005430734 0.0203144770578
v 0.0432626921262 -0.0238115285728 0.0205964905392
v 0.0434381181269 -0.0246073899707 0.0202140689087
v 0.0435043495554 -0.0246449096115 0.014
v 0.0435043495554 -0.0246449096115 0.0200783475783
v 0.04354690972 -0.0239679602469 0.0205683846911
v 0.0437368178446 -0.0240724845498 0.0204617961894
v 0.0438035047098 -0.024109188604 0.014
v 0.0438035047098 -0.024109188604 0.0203205128205
f 5 1 9
f 4 7 3
f 4 5 7
f 2 1 5
f 2 5 4
f 8 9 10
f 8 5 9
f 11 13 3
f 11 3 7
f 6 5 8
f 6 8 11
f 6 7 5
f 6 11 7
f 12 11 8
f 12 10 14
f 12 8 10
f 12 14 13
f 12 13 11
f 3 13 9
f 3 9 1
f 10 9 13
f 10 13 14
f 2 3 1
f 2 4 3
