# Parametric PetalDock simulation geometry; SI units
v 0.0188124241109 0.0397755288974 0.014
v 0.0188124241109 0.0397755288974 0.0214615384615
v 0.0189193128843 0.0400015262207 0.021466484647
v 0.0190262016576 0.040227523544 0.0214813232035
v 0.019133090431 0.0404535208673 0.0215042735043
v 0.0192399792044 0.0406795181906 0.0215280151947
v 0.0192991144957 0.0395416764905 0.014
v 0.0192991144957 0.0395416764905 0.0210769230769
v 0.0193468679777 0.0409055155138 0.0215517568851
v 0.0194087685553 0.039766345107 0.0210831058088
v 0.0194537567511 0.0411315128371 0.0215754985755
v 0.019518422615 0.0399910137234 0.0211016540044
v 0.0195606455244 0.0413575101604 0.0215992402659
v 0.0196280766746 0.0402156823398 0.0211303418803
v 0.0196675342978 0.0415835074837 0.0216229819563
v 0.0197377307342 0.0404403509562 0.0211600189934
v 0.0197744230712 0.041809504807 0.0216467236467
v 0.0198473847939 0.0406650195727 0.0211896961064
v 0.0198813118445 0.0420355021302 0.0216704653371
v 0.0199570388535 0.0408896881891 0.0212193732194
v 0.0199882006179 0.0422614994535 0.0216942070275
v 0.0200666929131 0.0411143568055 0.0212490503324
v 0.0200950893912 0.0424874967768 0.0217179487179
v 0.0201763469728 0.0413390254219 0.0212787274454
v 0.0202019781646 0.0427134941001 0.0217416904084
v 0.0202860010324 0.0415636940383 0.0213084045584
v 0.0203088669379 0.0429394914234 0.0217654320988
v 0.020395655092 0.0417883626548 0.0213380816714
v 0.0204157557113 0.0431654887466 0.0217891737892
v 0.0205053091517 0.0420130312712 0.0213677587844
v 0.0205226444847 0.0433914860699 0.0218129154796
v 0.0206149632113 0.0422376998876 0.0213974358974
v 0.020629533258 0.0436174833932 0.02183665717
v 0.0207246172709 0.042462368504 0.0214271130104
v 0.0207364220314 0.0438434807165 0.0218603988604
v 0.0208342713306 0.0426870371205 0.0214567901235
v 0.0208433108047 0.0440694780398 0.0218841405508
v 0.0209439253902 0.0429117057369 0.0214864672365
v 0.0209501995781 0.044295475363 0.014
v 0.0209501995781 0.044295475363 0.0219078822412
v 0.0210535794498 0.0431363743533 0.0215161443495
v 0.0211632335095 0.0433610429697 0.0215458214625
v 0.0212728875691 0.0435857115862 0.0215754985755
v 0.0213825416288 0.0438103802026 0.0216051756885
v 0.0214921956884 0.044035048819 0.014
v 0.0214921956884 0.044035048819 0.0216348528015
f 46 40 2
f 46 2 8
f 27 39 1
f 44 7 45
f 44 45 46
f 44 46 8
f 37 40 39
f 37 39 27
f 37 2 40
f 37 27 2
f 4 1 2
f 4 27 1
f 4 2 27
f 24 44 8
f 24 7 44
f 12 8 7
f 12 24 8
f 12 7 24
f 7 39 45
f 7 1 39
f 2 1 7
f 2 7 8
f 46 45 39
f 46 39 40
