# Parametric PetalDock simulation geometry; SI units
v 0.0170725153322 0.0459296115837 0.014
v 0.0170725153322 0.0459296115837 0.0238190883191
v 0.0172058493887 0.0462883156941 0.0237504228419
v 0.0173188845437 0.0465924103553 0.0236152762904
v 0.0173944122196 0.0467955999118 0.0234345235584
v 0.0174209340125 0.0468669505956 0.014
v 0.0174209340125 0.0468669505956 0.0232264957265
v 0.0176348567902 0.0457166471429 0.014
v 0.0176348567902 0.0457166471429 0.0235460588794
v 0.0177725826581 0.0460736880295 0.02348759515
v 0.0178893410111 0.0463763726778 0.0233613686572
v 0.0179673564483 0.0465786200937 0.0231867962777
v 0.0179947518267 0.0466496399417 0.014
v 0.0179947518267 0.0466496399417 0.0229843304843
f 5 1 2
f 5 6 1
f 5 7 6
f 5 14 7
f 11 8 13
f 12 13 14
f 12 11 13
f 12 14 5
f 10 9 8
f 10 8 11
f 10 11 3
f 10 2 9
f 10 3 2
f 4 3 11
f 4 12 5
f 4 11 12
f 4 5 2
f 4 2 3
f 8 1 6
f 8 6 13
f 14 6 7
f 14 13 6
f 9 1 8
f 9 2 1
