# Parametric PetalDock simulation geometry; SI units
v 0.0378970373538 0.0027954534168 0.014
v 0.0378970373538 0.0027954534168 0.032
v 0.0379284882902 0.0023301879795 0.014
v 0.0379284882902 0.0023301879795 0.032
v 0.038146359968 0.0028138445577 0.032
v 0.0381780178184 0.0023455181636 0.032
v 0.0383956825821 0.0028322356986 0.032
v 0.0384275473467 0.0023608483476 0.032
v 0.0386450051963 0.0028506268395 0.032
v 0.0386770768749 0.0023761785317 0.032
v 0.0388943278105 0.0028690179804 0.032
v 0.0389266064031 0.0023915087158 0.032
v 0.0391436504246 0.0028874091213 0.032
v 0.0391761359313 0.0024068388999 0.032
v 0.0393929730388 0.0029058002622 0.032
v 0.0394256654596 0.0024221690839 0.032
v 0.039642295653 0.0029241914031 0.032
v 0.0396751949878 0.002437499268 0.032
v 0.0398916182671 0.002942582544 0.032
v 0.039924724516 0.0024528294521 0.032
v 0.0401409408813 0.0029609736849 0.032
v 0.0401742540442 0.0024681596362 0.032
v 0.0403902634955 0.0029793648258 0.032
v 0.0404237835725 0.0024834898202 0.032
v 0.0406395861097 0.0029977559667 0.032
v 0.0406733131007 0.0024988200043 0.032
v 0.0408889087238 0.0030161471076 0.032
v 0.0409228426289 0.0025141501884 0.032
v 0.041138231338 0.0030345382485 0.032
v 0.0411723721571 0.0025294803725 0.032
v 0.0413875539522 0.0030529293894 0.032
v 0.0414219016854 0.0025448105565 0.032
v 0.0416368765663 0.0030713205303 0.032
v 0.0416714312136 0.0025601407406 0.032
v 0.0418861991805 0.0030897116712 0.032
v 0.0419209607418 0.0025754709247 0.032
v 0.0421355217947 0.0031081028121 0.032
v 0.04217049027 0.0025908011088 0.032
v 0.0423848444088 0.003126493953 0.032
v 0.0424200197983 0.0026061312928 0.032
v 0.042634167023 0.0031448850939 0.032
v 0.0426695493265 0.0026214614769 0.032
v 0.0428834896372 0.0031632762348 0.032
v 0.0429190788547 0.002636791661 0.032
v 0.0431328122514 0.0031816673757 0.032
v 0.0431686083829 0.0026521218451 0.032
v 0.0433821348655 0.0032000585166 0.032
v 0.0434181379112 0.0026674520291 0.032
v 0.0436314574797 0.0032184496575 0.032
v 0.0436676674394 0.0026827822132 0.032
v 0.0438807800939 0.0032368407984 0.014
v 0.0438807800939 0.0032368407984 0.032
v 0.0439171969676 0.0026981123973 0.014
v 0.0439171969676 0.0026981123973 0.032
f 39 51 1
f 7 1 2
f 19 39 1
f 19 1 7
f 47 52 51
f 47 51 39
f 48 53 54
f 8 4 3
f 3 51 53
f 3 1 51
f 52 53 51
f 52 54 53
f 4 1 3
f 4 2 1
f 8 7 2
f 8 54 52
f 8 2 4
f 8 39 19
f 8 47 39
f 8 19 7
f 8 52 47
f 8 48 54
f 8 3 53
f 8 53 48
