# Parametric PetalDock simulation geometry; SI units
v 0.0023540660352 -0.0319132946137 0.014
v 0.0023540660352 -0.0319132946137 0.0281666666667
v 0.0023596658042 -0.0319892088295 0.0284881600858
v 0.002375612597 -0.0322053942257 0.0287949920093
v 0.0023994786591 -0.0325289385354 0.0291121077565
v 0.0024276305988 -0.0329105850704 0.014
v 0.0024276305988 -0.0329105850704 0.0293888888889
v 0.002745513995 -0.0318820035898 0.014
v 0.002745513995 -0.0318820035898 0.0281433815472
v 0.0027520449265 -0.0319578433717 0.028464340155
v 0.002770643446 -0.0321738167978 0.0287705778138
v 0.0027984780974 -0.0324970438719 0.029086835863
v 0.0028313113074 -0.032878316202 0.014
v 0.0028313113074 -0.032878316202 0.0293626360581
f 4 1 6
f 4 6 7
f 4 2 1
f 3 9 2
f 3 2 4
f 5 4 7
f 11 4 5
f 10 11 9
f 10 9 3
f 10 3 4
f 10 4 11
f 12 14 11
f 12 11 5
f 12 7 14
f 12 5 7
f 8 13 6
f 8 6 1
f 2 8 1
f 2 9 8
f 14 6 13
f 14 7 6
f 11 13 8
f 11 8 9
f 11 14 13
