# Parametric PetalDock simulation geometry; SI units
v -0.0412294651393 -0.0282865905392 0.014
v -0.0412294651393 -0.0282865905392 0.0183831908832
v -0.041166697016 -0.0282435267693 0.0184799779434
v -0.0409879485242 -0.0281208915281 0.0185371236249
v -0.0408792406576 -0.0287904095709 0.014
v -0.0408792406576 -0.0287904095709 0.018141025641
v -0.0408170057194 -0.0287465787822 0.0182322506626
v -0.0407204325011 -0.0279373549195 0.0184938690041
v -0.04063977561 -0.0286217592563 0.0182832159916
v -0.0404048758365 -0.0277208587284 0.014
v -0.0404048758365 -0.0277208587284 0.0183584995252
v -0.040374532007 -0.0284349536346 0.0182310413122
v -0.0400616558444 -0.0282146013795 0.014
v -0.0400616558444 -0.0282146013795 0.0180854700855
f 10 1 4
f 2 4 1
f 11 10 4
f 7 6 5
f 7 12 9
f 7 9 4
f 7 5 13
f 14 11 12
f 14 7 13
f 14 12 7
f 8 11 4
f 8 12 11
f 8 4 9
f 8 9 12
f 3 2 6
f 3 6 7
f 3 4 2
f 3 7 4
f 10 13 5
f 10 5 1
f 6 1 5
f 6 2 1
f 14 13 10
f 14 10 11
