# Parametric PetalDock simulation geometry; SI units
v -0.0008098605413 -0.032990061017 0.014
v -0.0008098605413 -0.032990061017 0.0293888888889
v -0.0008004690197 -0.0326074928417 0.0291121077565
v -0.0007925072721 -0.0322831672031 0.0287949920093
v -0.0007871874025 -0.0320664597397 0.0284881600858
v -0.0007853193127 -0.0319903621983 0.014
v -0.0007853193127 -0.0319903621983 0.0281666666667
v -0.0004049607634 -0.0329975151607 0.014
v -0.0004049607634 -0.0329975151607 0.0293888888889
v -0.000400264649 -0.0326148605437 0.0291121077565
v -0.0003962834755 -0.0322904616233 0.0287949920093
v -0.0003936233404 -0.0320737051946 0.0284881600858
v -0.0003926892251 -0.0319975904589 0.014
v -0.0003926892251 -0.0319975904589 0.0281666666667
f 10 9 8
f 10 8 13
f 5 1 2
f 5 6 1
f 3 2 9
f 3 9 10
f 3 5 2
f 14 10 13
f 11 3 10
f 11 10 14
f 7 6 5
f 4 5 3
f 4 11 5
f 4 3 11
f 12 5 11
f 12 11 14
f 12 14 7
f 12 7 5
f 9 2 1
f 9 1 8
f 6 8 1
f 6 13 8
f 7 13 6
f 7 14 13
