# Parametric PetalDock simulation geometry; SI units
v -0.0422426782625 -0.0267498809944 0.014
v -0.0422426782625 -0.0267498809944 0.0191096866097
v -0.0421783676141 -0.0267091567254 0.0192231597856
v -0.0419952263823 -0.0265931838194 0.0192988465247
v -0.0419112352777 -0.0272662494211 0.014
v -0.0419112352777 -0.0272662494211 0.0188675213675
v -0.0418474292213 -0.0272247390281 0.0189754325049
v -0.0417211361594 -0.0264196181 0.0192823520798
v -0.0416657249456 -0.0271065274299 0.0190449388914
v -0.0413978246972 -0.0262148833745 0.014
v -0.0413978246972 -0.0262148833745 0.0191775878443
v -0.0413937852796 -0.026929611271 0.0190195243879
v -0.0410730105722 -0.0267209244327 0.014
v -0.0410730105722 -0.0267209244327 0.0189045584046
f 3 1 2
f 3 10 1
f 3 4 10
f 6 3 2
f 11 10 4
f 12 14 11
f 7 5 13
f 7 6 5
f 7 13 14
f 7 14 12
f 7 12 9
f 7 3 6
f 7 9 4
f 7 4 3
f 8 11 4
f 8 12 11
f 8 4 9
f 8 9 12
f 10 13 5
f 10 5 1
f 6 1 5
f 6 2 1
f 11 13 10
f 11 14 13
