# Parametric PetalDock simulation geometry; SI units
v 0.0296562573679 0.0144743358718 0.014
v 0.0296562573679 0.0144743358718 0.0216348528015
v 0.0298316466731 0.0141093180832 0.014
v 0.0298316466731 0.0141093180832 0.0219078822412
v 0.0298809259843 0.0145839899314 0.0216051756885
v 0.0300576439964 0.0142162068566 0.0218841405508
v 0.0301055946007 0.014693643991 0.0215754985755
v 0.0302836413196 0.0143230956299 0.0218603988604
v 0.0303302632172 0.0148032980507 0.0215458214625
v 0.0305096386429 0.0144299844033 0.02183665717
v 0.0305549318336 0.0149129521103 0.0215161443495
v 0.0307356359662 0.0145368731766 0.0218129154796
v 0.03077960045 0.0150226061699 0.0214864672365
v 0.0309616332895 0.01464376195 0.0217891737892
v 0.0310042690664 0.0151322602296 0.0214567901235
v 0.0311876306128 0.0147506507233 0.0217654320988
v 0.0312289376829 0.0152419142892 0.0214271130104
v 0.031413627936 0.0148575394967 0.0217416904084
v 0.0314536062993 0.0153515683488 0.0213974358974
v 0.0316396252593 0.0149644282701 0.0217179487179
v 0.0316782749157 0.0154612224085 0.0213677587844
v 0.0318656225826 0.0150713170434 0.0216942070275
v 0.0319029435321 0.0155708764681 0.0213380816714
v 0.0320916199059 0.0151782058168 0.0216704653371
v 0.0321276121486 0.0156805305278 0.0213084045584
v 0.0323176172292 0.0152850945901 0.0216467236467
v 0.032352280765 0.0157901845874 0.0212787274454
v 0.0325436145524 0.0153919833635 0.0216229819563
v 0.0325769493814 0.015899838647 0.0212490503324
v 0.0327696118757 0.0154988721368 0.0215992402659
v 0.0328016179978 0.0160094927067 0.0212193732194
v 0.032995609199 0.0156057609102 0.0215754985755
v 0.0330262866143 0.0161191467663 0.0211896961064
v 0.0332216065223 0.0157126496836 0.0215517568851
v 0.0332509552307 0.0162288008259 0.0211600189934
v 0.0334476038456 0.0158195384569 0.0215280151947
v 0.0334756238471 0.0163384548856 0.0211303418803
v 0.0336736011688 0.0159264272303 0.0215042735043
v 0.0337002924635 0.0164481089452 0.0211016540044
v 0.0338995984921 0.0160333160036 0.0214813232035
v 0.0339249610799 0.0165577630048 0.0210831058088
v 0.0341255958154 0.016140204777 0.021466484647
v 0.0341496296964 0.0166674170645 0.014
v 0.0341496296964 0.0166674170645 0.0210769230769
v 0.0343515931387 0.0162470935504 0.014
v 0.0343515931387 0.0162470935504 0.0214615384615
f 2 4 46
f 31 43 1
f 31 1 2
f 36 3 45
f 16 4 3
f 16 46 4
f 44 43 31
f 44 2 46
f 44 31 2
f 40 46 36
f 40 45 46
f 40 36 45
f 3 43 45
f 3 1 43
f 2 1 3
f 2 3 4
f 16 3 36
f 16 36 46
f 44 45 43
f 44 46 45
