# Parametric PetalDock simulation geometry; SI units
v -0.002404316042 -0.0489409773541 0.014
v -0.002404316042 -0.0489409773541 0.0293888888889
v -0.0023920491235 -0.04869127849 0.0295277777778
v -0.0023797822049 -0.048441579626 0.0296666666667
v -0.0023675152863 -0.0481918807619 0.0298055555556
v -0.0023552483677 -0.0479421818978 0.0299444444444
v -0.0023429814491 -0.0476924830338 0.0300833333333
v -0.0023307145306 -0.0474427841697 0.0302222222222
v -0.002318447612 -0.0471930853057 0.0303611111111
v -0.0023061806934 -0.0469433864416 0.0305
v -0.0022939137748 -0.0466936875776 0.0306388888889
v -0.0022816468562 -0.0464439887135 0.0307777777778
v -0.0022693799376 -0.0461942898495 0.0309166666667
v -0.0022571130191 -0.0459445909854 0.0310555555556
v -0.0022448461005 -0.0456948921214 0.0311944444444
v -0.0022325791819 -0.0454451932573 0.0313333333333
v -0.0022203122633 -0.0451954943933 0.0314722222222
v -0.0022080453447 -0.0449457955292 0.0316111111111
v -0.0021957784262 -0.0446960966652 0.03175
v -0.0021835115076 -0.0444463978011 0.0318842592593
v -0.002171244589 -0.0441966989371 0.0319710648148
v -0.0021589776704 -0.043947000073 0.014
v -0.0021589776704 -0.043947000073 0.032
v -0.0018035539241 -0.0489667968448 0.014
v -0.0018035539241 -0.0489667968448 0.0293888888889
v -0.0017943521184 -0.0487169662487 0.0295277777778
v -0.0017851503127 -0.0484671356525 0.0296666666667
v -0.0017759485069 -0.0482173050564 0.0298055555556
v -0.0017667467012 -0.0479674744602 0.0299444444444
v -0.0017575448954 -0.0477176438641 0.0300833333333
v -0.0017483430897 -0.0474678132679 0.0302222222222
v -0.001739141284 -0.0472179826718 0.0303611111111
v -0.0017299394782 -0.0469681520757 0.0305
v -0.0017207376725 -0.0467183214795 0.0306388888889
v -0.0017115358668 -0.0464684908834 0.0307777777778
v -0.001702334061 -0.0462186602872 0.0309166666667
v -0.0016931322553 -0.0459688296911 0.0310555555556
v -0.0016839304496 -0.0457189990949 0.0311944444444
v -0.0016747286438 -0.0454691684988 0.0313333333333
v -0.0016655268381 -0.0452193379026 0.0314722222222
v -0.0016563250324 -0.0449695073065 0.0316111111111
v -0.0016471232266 -0.0447196767103 0.03175
v -0.0016379214209 -0.0444698461142 0.0318842592593
v -0.0016287196152 -0.044220015518 0.0319710648148
v -0.0016195178094 -0.0439701849219 0.014
v -0.0016195178094 -0.0439701849219 0.032
f 20 23 22
f 46 43 42
f 21 23 20
f 21 20 43
f 21 46 23
f 19 43 20
f 19 42 43
f 19 20 22
f 30 24 45
f 30 25 24
f 44 43 46
f 44 21 43
f 44 46 21
f 3 1 2
f 3 22 1
f 13 37 19
f 41 37 42
f 41 42 19
f 41 19 37
f 33 30 45
f 33 37 28
f 26 2 25
f 26 25 28
f 4 28 37
f 4 37 13
f 4 2 26
f 4 26 28
f 4 3 2
f 4 13 19
f 8 19 22
f 8 22 3
f 8 3 19
f 39 46 42
f 36 42 37
f 36 37 33
f 14 19 3
f 14 4 19
f 14 3 4
f 22 45 24
f 22 24 1
f 25 1 24
f 25 2 1
f 46 45 22
f 46 22 23
f 33 28 25
f 33 25 30
f 39 45 46
f 39 33 45
f 36 33 39
f 36 39 42
