# Parametric PetalDock simulation geometry; SI units
v 0.0339425234454 -0.0170852305269 0.014
v 0.0339425234454 -0.0170852305269 0.0206923076923
v 0.0341496296964 -0.0166674170645 0.014
v 0.0341496296964 -0.0166674170645 0.0210769230769
v 0.0341658295207 -0.0171976333593 0.0206923076923
v 0.0343742983128 -0.0167770711241 0.0210769230769
v 0.034389135596 -0.0173100361917 0.0206923076923
v 0.0345989669292 -0.0168867251837 0.0210769230769
v 0.0346124416713 -0.0174224390241 0.0206923076923
v 0.0348236355456 -0.0169963792434 0.0210769230769
v 0.0348357477466 -0.0175348418565 0.0206923076923
v 0.0350483041621 -0.017106033303 0.0210769230769
v 0.0350590538219 -0.0176472446889 0.0206923076923
v 0.0352729727785 -0.0172156873626 0.0210769230769
v 0.0352823598972 -0.0177596475214 0.0206923076923
v 0.0354976413949 -0.0173253414223 0.0210769230769
v 0.0355056659725 -0.0178720503538 0.0206923076923
v 0.0357223100113 -0.0174349954819 0.0210769230769
v 0.0357289720478 -0.0179844531862 0.0206923076923
v 0.0359469786278 -0.0175446495415 0.0210769230769
v 0.0359522781231 -0.0180968560186 0.0206923076923
v 0.0361716472442 -0.0176543036012 0.0210769230769
v 0.0361755841984 -0.018209258851 0.0206923076923
v 0.0363963158606 -0.0177639576608 0.0210769230769
v 0.0363988902737 -0.0183216616834 0.0206923076923
v 0.036620984477 -0.0178736117204 0.0210769230769
v 0.036622196349 -0.0184340645158 0.0206923076923
v 0.0368455024243 -0.0185464673483 0.0206923076923
v 0.0368456530935 -0.0179832657801 0.0210769230769
v 0.0370688084996 -0.0186588701807 0.0206923076923
v 0.0370703217099 -0.0180929198397 0.0210769230769
v 0.0372921145749 -0.0187712730131 0.0206923076923
v 0.0372949903263 -0.0182025738993 0.0210769230769
v 0.0375154206502 -0.0188836758455 0.0206923076923
v 0.0375196589427 -0.018312227959 0.0210769230769
v 0.0377387267255 -0.0189960786779 0.0206923076923
v 0.0377443275591 -0.0184218820186 0.0210769230769
v 0.0379620328008 -0.0191084815103 0.0206923076923
v 0.0379689961756 -0.0185315360783 0.0210769230769
v 0.0381853388761 -0.0192208843427 0.0206923076923
v 0.038193664792 -0.0186411901379 0.0210769230769
v 0.0384086449514 -0.0193332871751 0.0206923076923
v 0.0384183334084 -0.0187508441975 0.0210769230769
v 0.0386319510267 -0.0194456900076 0.0206923076923
v 0.0386430020248 -0.0188604982572 0.0210769230769
v 0.038855257102 -0.01955809284 0.0206923076923
v 0.0388676706413 -0.0189701523168 0.0210769230769
v 0.0390785631773 -0.0196704956724 0.0206923076923
v 0.0390923392577 -0.0190798063764 0.0210769230769
v 0.0393018692526 -0.0197828985048 0.014
v 0.0393018692526 -0.0197828985048 0.0206923076923
v 0.0393170078741 -0.0191894604361 0.0210769230769
v 0.0395416764905 -0.0192991144957 0.014
v 0.0395416764905 -0.0192991144957 0.0210769230769
f 20 53 3
f 49 54 53
f 8 3 4
f 8 20 3
f 15 4 2
f 15 28 4
f 15 2 1
f 15 1 28
f 44 50 51
f 44 4 28
f 44 51 4
f 52 51 54
f 52 45 51
f 10 4 51
f 10 51 45
f 33 53 20
f 33 49 53
f 3 53 50
f 3 50 1
f 2 3 1
f 2 4 3
f 51 50 53
f 51 53 54
f 44 1 50
f 44 28 1
f 33 52 54
f 33 54 49
f 33 8 4
f 33 4 10
f 33 20 8
f 33 45 52
f 33 10 45
