# Parametric PetalDock simulation geometry; SI units
v -0.0176549214563 0.0278801676532 0.014
v -0.0176549214563 0.0278801676532 0.0191775878443
v -0.0174501867308 0.027556856191 0.0192823520798
v -0.0173114595284 0.0280947213725 0.014
v -0.0173114595284 0.0280947213725 0.019450617284
v -0.0172766210113 0.0272827659681 0.0192988465247
v -0.0171606481053 0.0270996247363 0.0192231597856
v -0.0171199238364 0.027035314088 0.014
v -0.0171199238364 0.027035314088 0.0191096866097
v -0.017110707748 0.027768921845 0.0195451797717
v -0.0169405186064 0.0274927223422 0.019552754158
v -0.0168268018576 0.0273081717347 0.0194708870664
v -0.0167868698457 0.0272433661794 0.014
v -0.0167868698457 0.0272433661794 0.0193518518519
f 12 9 14
f 10 11 12
f 10 12 14
f 10 13 4
f 10 14 13
f 10 4 5
f 7 12 11
f 7 9 12
f 3 1 8
f 3 8 9
f 3 2 1
f 3 9 7
f 3 5 2
f 3 10 5
f 6 7 11
f 6 3 7
f 6 11 10
f 6 10 3
f 8 4 13
f 8 1 4
f 14 8 13
f 14 9 8
f 2 4 1
f 2 5 4
