# Parametric PetalDock simulation geometry; SI units
v 0.0318050230401 0.0035271106334 0.014
v 0.0318050230401 0.0035271106334 0.0279571005917
v 0.0318459112535 0.0031365484905 0.014
v 0.0318459112535 0.0031365484905 0.0280735261889
v 0.0318806797033 0.0035355007994 0.0282737807082
v 0.0319216651801 0.0031440096011 0.0283928803624
v 0.0320961316517 0.0035593939705 0.0285752642497
v 0.0321373941114 0.0031652570463 0.0286973352273
v 0.0324185782793 0.0035951526281 0.0288846607154
v 0.0324602552731 0.0031970560952 0.0290110201827
v 0.0327989300101 0.0036373328407 0.014
v 0.0327989300101 0.0036373328407 0.0291526134122
v 0.0328410959802 0.0032345656309 0.014
v 0.0328410959802 0.0032345656309 0.0292838775659
f 5 12 11
f 5 11 1
f 9 14 12
f 9 12 5
f 10 14 9
f 10 4 14
f 2 5 1
f 7 9 5
f 7 10 9
f 6 2 4
f 6 5 2
f 8 4 10
f 8 6 4
f 8 10 7
f 8 7 5
f 8 5 6
f 12 14 13
f 12 13 11
f 3 11 13
f 3 1 11
f 4 13 14
f 4 3 13
f 2 1 3
f 2 3 4
