# Parametric PetalDock simulation geometry; SI units
v -0.0175004710164 -0.0337303055753 0.014
v -0.0175004710164 -0.0337303055753 0.0203076923077
v -0.0173853363387 -0.0335083956702 0.0203163481323
v -0.0172702016609 -0.0332864857651 0.0203423156062
v -0.0171550669832 -0.03306457586 0.0203824786325
v -0.0170852305269 -0.0339425234454 0.014
v -0.0170852305269 -0.0339425234454 0.0206923076923
v -0.0170399323055 -0.0328426659549 0.0204240265907
v -0.0169728276945 -0.0337192173701 0.0206997269706
v -0.0169247976277 -0.0326207560498 0.0204655745489
v -0.016860424862 -0.0334959112948 0.0207219848053
v -0.01680966295 -0.0323988461447 0.0205071225071
v -0.0167480220296 -0.0332726052195 0.0207564102564
v -0.0166945282722 -0.0321769362396 0.0205486704653
v -0.0166356191972 -0.0330492991442 0.020792022792
v -0.0165793935945 -0.0319550263345 0.0205902184236
v -0.0165232163648 -0.0328259930689 0.0208276353276
v -0.0164642589168 -0.0317331164294 0.0206317663818
v -0.0164108135324 -0.0326026869936 0.0208632478632
v -0.016349124239 -0.0315112065243 0.02067331434
v -0.0162984107 -0.0323793809183 0.0208988603989
v -0.0162339895613 -0.0312892966192 0.0207148622982
v -0.0161860078676 -0.032156074843 0.0209344729345
v -0.0161188548835 -0.0310673867141 0.0207564102564
v -0.0160736050352 -0.0319327687677 0.0209700854701
v -0.0160037202058 -0.030845476809 0.0207979582146
v -0.0159612022027 -0.0317094626924 0.0210056980057
v -0.0158885855281 -0.0306235669039 0.0208395061728
v -0.0158487993703 -0.0314861566171 0.0210413105413
v -0.0157734508503 -0.0304016569988 0.0208810541311
v -0.0157363965379 -0.0312628505418 0.0210769230769
v -0.0156583161726 -0.0301797470937 0.0209226020893
v -0.0156239937055 -0.0310395444665 0.0211125356125
v -0.0155431814948 -0.0299578371886 0.0209641500475
v -0.0155115908731 -0.0308162383912 0.0211481481481
v -0.0154280468171 -0.0297359272835 0.0210056980057
v -0.0153991880407 -0.0305929323159 0.0211837606838
v -0.0153129121394 -0.0295140173784 0.0210472459639
v -0.0152867852083 -0.0303696262406 0.0212193732194
v -0.0151977774616 -0.0292921074733 0.014
v -0.0151977774616 -0.0292921074733 0.0210887939221
v -0.0151743823758 -0.0301463201653 0.021254985755
v -0.0150619795434 -0.02992301409 0.0212905982906
v -0.014949576711 -0.0296997080148 0.0213262108262
v -0.0148371738786 -0.0294764019395 0.014
v -0.0148371738786 -0.0294764019395 0.0213618233618
f 11 6 45
f 11 7 6
f 44 45 46
f 44 11 45
f 44 46 7
f 44 7 11
f 8 40 1
f 41 7 46
f 41 2 7
f 3 1 2
f 3 8 1
f 38 41 40
f 38 2 41
f 38 3 2
f 40 45 6
f 40 6 1
f 2 6 7
f 2 1 6
f 41 45 40
f 41 46 45
f 38 40 8
f 38 8 3
