# Parametric PetalDock simulation geometry; SI units
v 0.032351497338 -0.0199344079418 0.014
v 0.032351497338 -0.0199344079418 0.018
v 0.0325643361363 -0.0200655553625 0.018
v 0.03259368718 -0.0195359042793 0.014
v 0.03259368718 -0.0195359042793 0.0183846153846
v 0.0327771749346 -0.0201967027831 0.018
v 0.0328081193325 -0.0196644299654 0.0183846153846
v 0.0329900137328 -0.0203278502038 0.018
v 0.033022551485 -0.0197929556514 0.0183846153846
v 0.0332028525311 -0.0204589976245 0.018
v 0.0332369836375 -0.0199214813375 0.0183846153846
v 0.0334156913294 -0.0205901450451 0.018
v 0.03345141579 -0.0200500070235 0.0183846153846
v 0.0336285301277 -0.0207212924658 0.018
v 0.0336658479425 -0.0201785327096 0.0183846153846
v 0.0338413689259 -0.0208524398865 0.018
v 0.033880280095 -0.0203070583956 0.0183846153846
v 0.0340542077242 -0.0209835873071 0.018
v 0.0340947122475 -0.0204355840817 0.0183846153846
v 0.0342670465225 -0.0211147347278 0.018
v 0.0343091444 -0.0205641097677 0.0183846153846
v 0.0344798853208 -0.0212458821485 0.018
v 0.0345235765525 -0.0206926354538 0.0183846153846
v 0.034692724119 -0.0213770295691 0.018
v 0.034738008705 -0.0208211611398 0.0183846153846
v 0.0349055629173 -0.0215081769898 0.018
v 0.0349524408575 -0.0209496868259 0.0183846153846
v 0.0351184017156 -0.0216393244105 0.018
v 0.03516687301 -0.0210782125119 0.0183846153846
v 0.0353312405139 -0.0217704718312 0.018
v 0.0353813051625 -0.021206738198 0.0183846153846
v 0.0355440793121 -0.0219016192518 0.018
v 0.035595737315 -0.021335263884 0.0183846153846
v 0.0357569181104 -0.0220327666725 0.018
v 0.0358101694675 -0.0214637895701 0.0183846153846
v 0.0359697569087 -0.0221639140932 0.018
v 0.03602460162 -0.0215923152561 0.0183846153846
v 0.036182595707 -0.0222950615138 0.018
v 0.0362390337725 -0.0217208409422 0.0183846153846
v 0.0363954345053 -0.0224262089345 0.018
v 0.036453465925 -0.0218493666282 0.0183846153846
v 0.0366082733035 -0.0225573563552 0.018
v 0.0366678980775 -0.0219778923143 0.0183846153846
v 0.0368211121018 -0.0226885037758 0.018
v 0.03688233023 -0.0221064180003 0.0183846153846
v 0.0370339509001 -0.0228196511965 0.018
v 0.0370967623825 -0.0222349436864 0.0183846153846
v 0.0372467896984 -0.0229507986172 0.018
v 0.037311194535 -0.0223634693724 0.0183846153846
v 0.0374596284966 -0.0230819460379 0.014
v 0.0374596284966 -0.0230819460379 0.018
v 0.0375256266875 -0.0224919950585 0.0183846153846
v 0.03774005884 -0.0226205207445 0.014
v 0.03774005884 -0.0226205207445 0.0183846153846
f 16 1 50
f 51 16 50
f 51 5 16
f 3 5 2
f 3 16 5
f 3 2 1
f 3 1 16
f 52 51 54
f 7 5 51
f 4 53 50
f 4 50 1
f 4 54 53
f 4 5 54
f 2 4 1
f 2 5 4
f 51 50 53
f 51 53 54
f 7 54 5
f 7 52 54
f 7 51 52
