# Parametric PetalDock simulation geometry; SI units
v -0.0293743972278 0.0241069447982 0.014
v -0.0293743972278 0.0241069447982 0.0141479289941
v -0.0291811446144 0.0239483464772 0.0141763885845
v -0.0290763560937 0.0244655986298 0.014
v -0.0290763560937 0.0244655986298 0.0140369822485
v -0.0289878920011 0.0237897481561 0.0142617673558
v -0.0288850642772 0.0243046407441 0.014065798535
v -0.0287946393878 0.0236311498351 0.0143938198554
v -0.0286937724608 0.0241436828584 0.0141522473945
v -0.0286013867744 0.0234725515141 0.0145304258894
v -0.0285024806444 0.0239827249726 0.0142859549638
v -0.0284081341611 0.023313953193 0.0146670319234
v -0.028311188828 0.0238217670869 0.014424273139
v -0.0282148815477 0.023155354872 0.0148036379575
v -0.0281198970116 0.0236608092012 0.0145625913142
v -0.0280216289344 0.0229967565509 0.0149402439915
v -0.0279286051952 0.0234998513155 0.0147009094894
v -0.0278283763211 0.0228381582299 0.0150768500256
v -0.0277373133788 0.0233388934298 0.0148392276645
v -0.0276351237077 0.0226795599089 0.0152134560596
v -0.0275460215624 0.023177935544 0.0149775458397
v -0.0274418710944 0.0225209615878 0.0153500620937
v -0.027354729746 0.0230169776583 0.0151158640149
v -0.027248618481 0.0223623632668 0.0154866681277
v -0.0271634379296 0.0228560197726 0.0152541821901
v -0.0270553658677 0.0222037649457 0.0156232741617
v -0.0269721461132 0.0226950618869 0.0153925003653
v -0.0268621132544 0.0220451666247 0.0157598801958
v -0.0267808542968 0.0225341040011 0.0155308185404
v -0.026668860641 0.0218865683036 0.0158964862298
v -0.0265895624804 0.0223731461154 0.0156691367156
v -0.0264756080277 0.0217279699826 0.0160330922639
v -0.026398270664 0.0222121882297 0.0158074548908
v -0.0262823554143 0.0215693716616 0.0161696982979
v -0.0262069788476 0.022051230344 0.015945773066
v -0.026089102801 0.0214107733405 0.0163063043319
v -0.0260156870312 0.0218902724583 0.0160840912411
v -0.0258958501877 0.0212521750195 0.016442910366
v -0.0258243952148 0.0217293145725 0.0162224094163
v -0.0257025975743 0.0210935766984 0.0165795164
v -0.0256331033984 0.0215683566868 0.0163607275915
v -0.025509344961 0.0209349783774 0.014
v -0.025509344961 0.0209349783774 0.0167161224341
v -0.0254418115819 0.0214073988011 0.0164990457667
v -0.0252505197655 0.0212464409154 0.014
v -0.0252505197655 0.0212464409154 0.0166373639419
f 46 2 43
f 40 42 43
f 40 43 2
f 9 46 45
f 5 2 46
f 6 2 1
f 6 1 42
f 7 45 4
f 7 9 45
f 7 4 5
f 7 46 9
f 7 5 46
f 30 40 2
f 30 2 6
f 30 42 40
f 30 6 42
f 42 4 45
f 42 1 4
f 46 42 45
f 46 43 42
f 5 4 1
f 5 1 2
