# Parametric PetalDock simulation geometry; SI units
v 0.0203026424892 0.0260154321117 0.014
v 0.0203026424892 0.0260154321117 0.017031156403
v 0.0204564503868 0.0262125187186 0.0169013989335
v 0.0206102582845 0.0264096053255 0.0167716414639
v 0.0206203631087 0.0257643285429 0.014
v 0.0206203631087 0.0257643285429 0.0168473865878
v 0.0207640661821 0.0266066919324 0.0166418839944
v 0.0207765779807 0.02595951285 0.0167136341223
v 0.0209178740797 0.0268037785393 0.0165121265249
v 0.0209327928528 0.0261546971572 0.0165798816568
v 0.0210716819774 0.0270008651462 0.0163823690554
v 0.0210890077248 0.0263498814643 0.0164461291913
v 0.021225489875 0.0271979517531 0.0162526115859
v 0.0212452225968 0.0265450657715 0.0163123767258
v 0.0213792977727 0.02739503836 0.0161228541164
v 0.0214014374689 0.0267402500786 0.0161786242604
v 0.0215331056703 0.0275921249669 0.0159930966469
v 0.0215576523409 0.0269354343857 0.0160448717949
v 0.021686913568 0.0277892115738 0.0158633391774
v 0.0217138672129 0.0271306186929 0.0159111193294
v 0.0218407214656 0.0279862981807 0.0157335817079
v 0.021870082085 0.027325803 0.0157773668639
v 0.0219945293633 0.0281833847877 0.0156038242384
v 0.022026296957 0.0275209873072 0.0156436143984
v 0.0221483372609 0.0283804713946 0.0154740667689
v 0.0221825118291 0.0277161716143 0.0155098619329
v 0.0223021451585 0.0285775580015 0.0153443092994
v 0.0223387267011 0.0279113559215 0.0153761094675
v 0.0224559530562 0.0287746446084 0.0152145518299
v 0.0224949415731 0.0281065402286 0.015242357002
v 0.0226097609538 0.0289717312153 0.0150847943604
v 0.0226511564452 0.0283017245357 0.0151086045365
v 0.0227635688515 0.0291688178222 0.0149550368909
v 0.0228073713172 0.0284969088429 0.014974852071
v 0.0229173767491 0.0293659044291 0.0148252794214
v 0.0229635861892 0.02869209315 0.0148410996055
v 0.0230711846468 0.029562991036 0.0146998472009
v 0.0231198010613 0.0288872774572 0.01470734714
v 0.0232249925444 0.0297600776429 0.0146187487825
v 0.0232760159333 0.0290824617643 0.0145735946746
v 0.0233788004421 0.0299571642498 0.014
v 0.0233788004421 0.0299571642498 0.0145917159763
v 0.0234322308053 0.0292776460715 0.0144443006246
v 0.0235884456774 0.0294728303786 0.0143607053337
v 0.0237446605494 0.0296680146857 0.014
v 0.0237446605494 0.0296680146857 0.0143328402367
f 32 5 45
f 32 45 46
f 3 1 2
f 3 2 42
f 39 42 41
f 39 27 42
f 39 41 1
f 6 46 42
f 6 42 2
f 9 27 1
f 9 1 3
f 9 42 27
f 9 3 42
f 35 1 27
f 35 39 1
f 35 27 39
f 10 6 5
f 10 46 6
f 26 5 32
f 26 10 5
f 26 32 46
f 26 46 10
f 5 1 41
f 5 41 45
f 46 41 42
f 46 45 41
f 6 1 5
f 6 2 1
