# Parametric PetalDock simulation geometry; SI units
v 0.0379971386699 0.0004663184549 0.014
v 0.0379971386699 0.0004663184549 0.032
v 0.038 0 0.014
v 0.038 0 0.032
v 0.0382471198453 0.0004693863394 0.032
v 0.03825 0 0.032
v 0.0384971010208 0.000472454224 0.032
v 0.0385 0 0.032
v 0.0387470821963 0.0004755221086 0.032
v 0.03875 0 0.032
v 0.0389970633717 0.0004785899931 0.032
v 0.039 0 0.032
v 0.0392470445472 0.0004816578777 0.032
v 0.03925 0 0.032
v 0.0394970257226 0.0004847257623 0.032
v 0.0395 0 0.032
v 0.0397470068981 0.0004877936469 0.032
v 0.03975 0 0.032
v 0.0399969880736 0.0004908615314 0.032
v 0.04 0 0.032
v 0.040246969249 0.000493929416 0.032
v 0.04025 0 0.032
v 0.0404969504245 0.0004969973006 0.032
v 0.0405 0 0.032
v 0.0407469315999 0.0005000651851 0.032
v 0.04075 0 0.032
v 0.0409969127754 0.0005031330697 0.032
v 0.041 0 0.032
v 0.0412468939509 0.0005062009543 0.032
v 0.04125 0 0.032
v 0.0414968751263 0.0005092688389 0.032
v 0.0415 0 0.032
v 0.0417468563018 0.0005123367234 0.032
v 0.04175 0 0.032
v 0.0419968374772 0.000515404608 0.032
v 0.042 0 0.032
v 0.0422468186527 0.0005184724926 0.032
v 0.04225 0 0.032
v 0.0424967998282 0.0005215403771 0.032
v 0.0425 0 0.032
v 0.0427467810036 0.0005246082617 0.032
v 0.04275 0 0.032
v 0.0429967621791 0.0005276761463 0.032
v 0.043 0 0.032
v 0.0432467433545 0.0005307440309 0.032
v 0.04325 0 0.032
v 0.04349672453 0.0005338119154 0.032
v 0.0435 0 0.032
v 0.0437467057055 0.0005368798 0.032
v 0.04375 0 0.032
v 0.0439966868809 0.0005399476846 0.014
v 0.0439966868809 0.0005399476846 0.032
v 0.044 0 0.014
v 0.044 0 0.032
f 45 1 2
f 45 51 1
f 52 51 45
f 3 51 53
f 3 1 51
f 52 53 51
f 52 54 53
f 4 54 52
f 4 52 45
f 4 45 2
f 4 1 3
f 4 2 1
f 4 3 53
f 4 53 54
