# Parametric PetalDock simulation geometry; SI units
v -0 -0.044 0.014
v -0 -0.044 0.032
v -0 -0.04375 0.032
v -0 -0.0435 0.032
v -0 -0.04325 0.032
v -0 -0.043 0.032
v -0 -0.04275 0.032
v -0 -0.0425 0.032
v -0 -0.04225 0.032
v -0 -0.042 0.032
v -0 -0.04175 0.032
v -0 -0.0415 0.032
v -0 -0.04125 0.032
v -0 -0.041 0.032
v -0 -0.04075 0.032
v -0 -0.0405 0.032
v -0 -0.04025 0.032
v -0 -0.04 0.032
v -0 -0.03975 0.032
v -0 -0.0395 0.032
v -0 -0.03925 0.032
v -0 -0.039 0.032
v -0 -0.03875 0.032
v -0 -0.0385 0.032
v -0 -0.03825 0.032
v -0 -0.038 0.014
v -0 -0.038 0.032
v 0.0004663184549 -0.0379971386699 0.014
v 0.0004663184549 -0.0379971386699 0.032
v 0.0004693863394 -0.0382471198453 0.032
v 0.000472454224 -0.0384971010208 0.032
v 0.0004755221086 -0.0387470821963 0.032
v 0.0004785899931 -0.0389970633717 0.032
v 0.0004816578777 -0.0392470445472 0.032
v 0.0004847257623 -0.0394970257226 0.032
v 0.0004877936469 -0.0397470068981 0.032
v 0.0004908615314 -0.0399969880736 0.032
v 0.000493929416 -0.040246969249 0.032
v 0.0004969973006 -0.0404969504245 0.032
v 0.0005000651851 -0.0407469315999 0.032
v 0.0005031330697 -0.0409969127754 0.032
v 0.0005062009543 -0.0412468939509 0.032
v 0.0005092688389 -0.0414968751263 0.032
v 0.0005123367234 -0.0417468563018 0.032
v 0.000515404608 -0.0419968374772 0.032
v 0.0005184724926 -0.0422468186527 0.032
v 0.0005215403771 -0.0424967998282 0.032
v 0.0005246082617 -0.0427467810036 0.032
v 0.0005276761463 -0.0429967621791 0.032
v 0.0005307440309 -0.0432467433545 0.032
v 0.0005338119154 -0.04349672453 0.032
v 0.0005368798 -0.0437467057055 0.032
v 0.0005399476846 -0.0439966868809 0.014
v 0.0005399476846 -0.0439966868809 0.032
f 50 53 28
f 54 53 50
f 29 50 28
f 26 28 53
f 26 53 1
f 54 1 53
f 54 2 1
f 27 26 1
f 27 1 2
f 29 2 54
f 29 54 50
f 29 27 2
f 29 28 26
f 29 26 27
