# Parametric PetalDock simulation geometry; SI units
v -0.0459556925845 -0.0196996020031 0.014
v -0.0459556925845 -0.0196996020031 0.0222578347578
v -0.0458857292084 -0.0196696111448 0.0224436144354
v -0.0457104877852 -0.0202620657002 0.014
v -0.0457104877852 -0.0202620657002 0.0220156695157
v -0.04568649037 -0.0195842044063 0.0225996457573
v -0.0456408977112 -0.020231218542 0.0221958871547
v -0.0454427219472 -0.0201433732674 0.022345738124
v -0.0453883083763 -0.0194563841892 0.0226991120744
v -0.0451461309567 -0.0200119035232 0.0224362843825
v -0.0450365787328 -0.019305609963 0.014
v -0.0450365787328 -0.019305609963 0.0227269705603
v -0.0447962780295 -0.0198568243862 0.014
v -0.0447962780295 -0.0198568243862 0.0224539411206
f 10 14 12
f 3 1 2
f 3 2 5
f 9 10 12
f 9 3 6
f 9 6 8
f 9 8 10
f 9 12 11
f 9 11 1
f 9 1 3
f 7 5 4
f 7 4 13
f 7 3 5
f 7 10 8
f 7 8 6
f 7 6 3
f 7 13 14
f 7 14 10
f 11 13 4
f 11 4 1
f 14 13 11
f 14 11 12
f 5 1 4
f 5 2 1
