# Parametric PetalDock simulation geometry; SI units
v -0.0275213891522 -0.0262025407 0.014
v -0.0273403273814 -0.0260301555638 0.0140289351852
v -0.0271977713608 -0.0265382974775 0.014
v -0.0271592656107 -0.0258577704276 0.0141157407407
v -0.0270188386545 -0.0263637034152 0.0140289351852
v -0.0269782038399 -0.0256853852915 0.01425
v -0.0268399059481 -0.0261891093528 0.0141157407407
v -0.0267971420692 -0.0255130001553 0.0143888888889
v -0.0266609732418 -0.0260145152905 0.01425
v -0.0266160802985 -0.0253406150191 0.0145277777778
v -0.0264820405355 -0.0258399212281 0.0143888888889
v -0.0264350185277 -0.0251682298829 0.0146666666667
v -0.0263031078292 -0.0256653271658 0.0145277777778
v -0.026253956757 -0.0249958447467 0.0148055555556
v -0.0261241751229 -0.0254907331034 0.0146666666667
v -0.0260728949863 -0.0248234596105 0.0149444444444
v -0.0259452424165 -0.0253161390411 0.0148055555556
v -0.0258918332155 -0.0246510744744 0.0150833333333
v -0.0257663097102 -0.0251415449787 0.0149444444444
v -0.0257107714448 -0.0244786893382 0.0152222222222
v -0.0255873770039 -0.0249669509164 0.0150833333333
v -0.025529709674 -0.024306304202 0.0153611111111
v -0.0254084442976 -0.024792356854 0.0152222222222
v -0.0253486479033 -0.0241339190658 0.0155
v -0.0252295115913 -0.0246177627917 0.0153611111111
v -0.0251675861326 -0.0239615339296 0.0156388888889
v -0.0250505788849 -0.0244431687293 0.0155
v -0.0249865243618 -0.0237891487934 0.0157777777778
v -0.0248716461786 -0.024268574667 0.0156388888889
v -0.0248054625911 -0.0236167636572 0.0159166666667
v -0.0246927134723 -0.0240939806046 0.0157777777778
v -0.0246244008203 -0.0234443785211 0.0160555555556
v -0.024513780766 -0.0239193865423 0.0159166666667
v -0.0244433390496 -0.0232719933849 0.0161944444444
v -0.0243348480596 -0.0237447924799 0.0160555555556
v -0.0242622772789 -0.0230996082487 0.0163333333333
v -0.0241559153533 -0.0235701984176 0.0161944444444
v -0.0240812155081 -0.0229272231125 0.0164722222222
v -0.023976982647 -0.0233956043552 0.0163333333333
v -0.0239001537374 -0.0227548379763 0.014
v -0.0239001537374 -0.0227548379763 0.0166111111111
v -0.0237980499407 -0.0232210102928 0.0164722222222
v -0.0236191172344 -0.0230464162305 0.014
v -0.0236191172344 -0.0230464162305 0.0166111111111
f 44 1 3
f 44 41 1
f 37 43 44
f 37 44 3
f 4 40 1
f 4 1 16
f 4 16 40
f 30 41 40
f 30 40 16
f 30 1 41
f 30 16 1
f 5 3 43
f 5 9 3
f 17 43 37
f 17 9 43
f 17 37 3
f 17 3 9
f 7 43 9
f 7 5 43
f 7 9 5
f 40 43 3
f 40 3 1
f 44 43 40
f 44 40 41
