# Parametric PetalDock simulation geometry; SI units
v -0.0249878919347 0.0215547038175 0.014
v -0.0249878919347 0.0215547038175 0.0166111111111
v -0.0247215010193 0.0218597206605 0.014
v -0.0247215010193 0.0218597206605 0.0166111111111
v -0.0246981206543 0.021304745392 0.016811771776
v -0.0244524644246 0.0210928408709 0.0169121147719
v -0.0244348189325 0.0216062251171 0.016811771776
v -0.0242883221796 0.0209512507967 0.0168945233466
v -0.0242306830882 0.0209015309745 0.014
v -0.0242306830882 0.0209015309745 0.0168333333333
v -0.0241917815947 0.0213913219722 0.0169121147719
v -0.0240293892373 0.0212477282815 0.0168945233466
v -0.0239723646248 0.0211973048829 0.014
v -0.0239723646248 0.0211973048829 0.0168333333333
f 2 1 6
f 9 6 1
f 7 13 3
f 10 6 9
f 14 13 7
f 14 12 10
f 4 7 3
f 4 2 7
f 5 2 6
f 5 7 2
f 11 6 12
f 11 5 6
f 11 7 5
f 11 12 14
f 11 14 7
f 8 12 6
f 8 6 10
f 8 10 12
f 9 3 13
f 9 1 3
f 14 9 13
f 14 10 9
f 4 3 1
f 4 1 2
