# Parametric PetalDock simulation geometry; SI units
v -0.0212464409154 0.0252505197655 0.014
v -0.0212464409154 0.0252505197655 0.0166373639419
v -0.0210000572507 0.02495770293 0.0168370436695
v -0.0209349783774 0.025509344961 0.014
v -0.0209349783774 0.025509344961 0.0167161224341
v -0.0207911832654 0.0247094648033 0.0169365289674
v -0.0206922065779 0.0252135266674 0.0169128593498
v -0.0206516181305 0.0245435973899 0.0169183432774
v -0.0206026093725 0.0244853524999 0.014
v -0.0206026093725 0.0244853524999 0.0168566184528
v -0.0204863945842 0.0249627440275 0.0170097715539
v -0.0203488754066 0.0247951764247 0.0169898030699
v -0.0203005850932 0.0247363345076 0.014
v -0.0203005850932 0.0247363345076 0.0169264738111
f 11 13 4
f 5 11 4
f 14 13 11
f 12 10 14
f 12 14 11
f 3 5 2
f 3 2 10
f 7 11 5
f 7 5 3
f 6 11 7
f 6 7 3
f 8 3 10
f 8 6 3
f 8 10 12
f 8 12 11
f 8 11 6
f 9 4 13
f 9 1 4
f 14 9 13
f 14 10 9
f 2 4 1
f 2 5 4
f 2 1 9
f 2 9 10
