# Parametric PetalDock simulation geometry; SI units
v -0.0365846629413 -0.0244450902529 0.014
v -0.0365846629413 -0.0244450902529 0.0168461538462
v -0.0363767955382 -0.0243061976946 0.0168461538462
v -0.0362819293225 -0.0248921996745 0.014
v -0.0362819293225 -0.0248921996745 0.0164615384615
v -0.0361689281352 -0.0241673051364 0.0168461538462
v -0.0360757819968 -0.0247507667218 0.0164615384615
v -0.0359610607321 -0.0240284125781 0.0168461538462
v -0.0358696346711 -0.0246093337691 0.0164615384615
v -0.035753193329 -0.0238895200198 0.0168461538462
v -0.0356634873455 -0.0244679008164 0.0164615384615
v -0.0355453259259 -0.0237506274616 0.0168461538462
v -0.0354573400198 -0.0243264678637 0.0164615384615
v -0.0353374585229 -0.0236117349033 0.0168461538462
v -0.0352511926941 -0.024185034911 0.0164615384615
v -0.0351295911198 -0.0234728423451 0.0168461538462
v -0.0350450453684 -0.0240436019583 0.0164615384615
v -0.0349217237167 -0.0233339497868 0.0168461538462
v -0.0348388980427 -0.0239021690056 0.0164615384615
v -0.0347138563136 -0.0231950572286 0.0168461538462
v -0.034632750717 -0.0237607360529 0.0164615384615
v -0.0345059889106 -0.0230561646703 0.0168461538462
v -0.0344266033913 -0.0236193031002 0.0164615384615
v -0.0342981215075 -0.0229172721121 0.0168461538462
v -0.0342204560656 -0.0234778701475 0.0164615384615
v -0.0340902541044 -0.0227783795538 0.0168461538462
v -0.0340143087399 -0.0233364371948 0.0164615384615
v -0.0338823867013 -0.0226394869955 0.0168461538462
v -0.0338081614142 -0.0231950042421 0.0164615384615
v -0.0336745192983 -0.0225005944373 0.0168461538462
v -0.0336020140885 -0.0230535712894 0.0164615384615
v -0.0334666518952 -0.022361701879 0.0168461538462
v -0.0333958667628 -0.0229121383367 0.0164615384615
v -0.0332587844921 -0.0222228093208 0.0168461538462
v -0.0331897194371 -0.022770705384 0.0164615384615
v -0.033050917089 -0.0220839167625 0.0168461538462
v -0.0329835721114 -0.0226292724313 0.0164615384615
v -0.032843049686 -0.0219450242043 0.0168461538462
v -0.0327774247857 -0.0224878394786 0.0164615384615
v -0.0326351822829 -0.021806131646 0.0168461538462
v -0.03257127746 -0.022346406526 0.0164615384615
v -0.0324273148798 -0.0216672390878 0.0168461538462
v -0.0323651301343 -0.0222049735733 0.0164615384615
v -0.0322194474767 -0.0215283465295 0.0168461538462
v -0.0321589828086 -0.0220635406206 0.0164615384615
v -0.0320115800736 -0.0213894539713 0.0168461538462
v -0.0319528354829 -0.0219221076679 0.0164615384615
v -0.0318037126706 -0.021250561413 0.0168461538462
v -0.0317466881572 -0.0217806747152 0.0164615384615
v -0.0315958452675 -0.0211116688547 0.014
v -0.0315958452675 -0.0211116688547 0.0168461538462
v -0.0315405408315 -0.0216392417625 0.0164615384615
v -0.0313343935058 -0.0214978088098 0.014
v -0.0313343935058 -0.0214978088098 0.0164615384615
f 41 4 53
f 5 4 41
f 51 5 41
f 54 41 53
f 54 51 41
f 46 2 5
f 46 5 51
f 14 50 1
f 14 51 50
f 3 1 2
f 10 14 1
f 10 1 3
f 50 53 4
f 50 4 1
f 5 1 4
f 5 2 1
f 54 53 50
f 54 50 51
f 10 46 51
f 10 2 46
f 10 51 14
f 10 3 2
