# Parametric PetalDock simulation geometry; SI units
v 0.0143875625489 0.0285831776383 0.014
v 0.0143875625489 0.0285831776383 0.021047008547
v 0.0144217871735 0.0286511702896 0.0212049780317
v 0.0145192506585 0.028844796979 0.0213301075909
v 0.0146651150717 0.029134579798 0.0213849736149
v 0.0147372387507 0.0284044678529 0.014
v 0.0147372387507 0.0284044678529 0.0208048433048
v 0.0147722951726 0.0284720353958 0.0209572507509
v 0.0148371738786 0.0294764019395 0.014
v 0.0148371738786 0.0294764019395 0.0213618233618
v 0.0148721274161 0.0286644514785 0.0210761999576
v 0.015021536927 0.0289524224967 0.021122145923
v 0.0151977774616 0.0292921074733 0.014
v 0.0151977774616 0.0292921074733 0.0210887939221
f 2 5 10
f 12 10 5
f 12 6 13
f 12 7 6
f 4 5 2
f 14 12 13
f 14 10 12
f 3 2 7
f 3 4 2
f 11 7 12
f 11 12 5
f 11 5 4
f 8 4 3
f 8 11 4
f 8 3 7
f 8 7 11
f 6 9 13
f 6 1 9
f 2 1 6
f 2 6 7
f 2 9 1
f 2 10 9
f 14 13 9
f 14 9 10
