# Parametric PetalDock simulation geometry; SI units
v 0.0315288845564 0.0054707804403 0.014
v 0.0315288845564 0.0054707804403 0.026858974359
v 0.0315936453811 0.0050834605867 0.014
v 0.0315936453811 0.0050834605867 0.0271011396011
v 0.0316038843512 0.0054837941392 0.0271504327697
v 0.0316687992266 0.0050955529428 0.0273981600505
v 0.0318174656966 0.0055208540182 0.0274238907896
v 0.0318828192714 0.0051299890596 0.0276777984229
v 0.0321371127688 0.0055763180467 0.0276928382203
v 0.0322031229037 0.0051815263505 0.0279556659122
v 0.0325141621988 0.0056417423291 0.014
v 0.0325141621988 0.0056417423291 0.0279145299145
v 0.0325809467992 0.00524231873 0.014
v 0.0325809467992 0.00524231873 0.0281875593542
f 9 12 11
f 9 11 1
f 9 14 12
f 6 3 13
f 8 13 14
f 8 6 13
f 4 3 6
f 10 14 9
f 10 8 14
f 7 10 9
f 7 8 10
f 2 9 1
f 2 4 6
f 5 7 9
f 5 9 2
f 5 2 6
f 5 6 8
f 5 8 7
f 12 14 13
f 12 13 11
f 3 11 13
f 3 1 11
f 2 1 3
f 2 3 4
