# Parametric PetalDock simulation geometry; SI units
v 0.0199344079418 0.032351497338 0.014
v 0.0199344079418 0.032351497338 0.018
v 0.0200655553625 0.0325643361363 0.018
v 0.0201967027831 0.0327771749346 0.018
v 0.0203278502038 0.0329900137328 0.018
v 0.0203299095557 0.0321044354795 0.014
v 0.0203299095557 0.0321044354795 0.0176153846154
v 0.0204589976245 0.0332028525311 0.018
v 0.0204636589607 0.0323156488708 0.0176153846154
v 0.0205901450451 0.0334156913294 0.018
v 0.0205974083657 0.0325268622621 0.0176153846154
v 0.0207212924658 0.0336285301277 0.018
v 0.0207311577706 0.0327380756534 0.0176153846154
v 0.0208524398865 0.0338413689259 0.018
v 0.0208649071756 0.0329492890447 0.0176153846154
v 0.0209835873071 0.0340542077242 0.018
v 0.0209986565806 0.0331605024361 0.0176153846154
v 0.0211147347278 0.0342670465225 0.018
v 0.0211324059855 0.0333717158274 0.0176153846154
v 0.0212458821485 0.0344798853208 0.018
v 0.0212661553905 0.0335829292187 0.0176153846154
v 0.0213770295691 0.034692724119 0.018
v 0.0213999047955 0.03379414261 0.0176153846154
v 0.0215081769898 0.0349055629173 0.018
v 0.0215336542005 0.0340053560013 0.0176153846154
v 0.0216393244105 0.0351184017156 0.018
v 0.0216674036054 0.0342165693926 0.0176153846154
v 0.0217704718312 0.0353312405139 0.018
v 0.0218011530104 0.0344277827839 0.0176153846154
v 0.0219016192518 0.0355440793121 0.018
v 0.0219349024154 0.0346389961752 0.0176153846154
v 0.0220327666725 0.0357569181104 0.018
v 0.0220686518203 0.0348502095666 0.0176153846154
v 0.0221639140932 0.0359697569087 0.018
v 0.0222024012253 0.0350614229579 0.0176153846154
v 0.0222950615138 0.036182595707 0.018
v 0.0223361506303 0.0352726363492 0.0176153846154
v 0.0224262089345 0.0363954345053 0.018
v 0.0224699000353 0.0354838497405 0.0176153846154
v 0.0225573563552 0.0366082733035 0.018
v 0.0226036494402 0.0356950631318 0.0176153846154
v 0.0226885037758 0.0368211121018 0.018
v 0.0227373988452 0.0359062765231 0.0176153846154
v 0.0228196511965 0.0370339509001 0.018
v 0.0228711482502 0.0361174899144 0.0176153846154
v 0.0229507986172 0.0372467896984 0.018
v 0.0230048976551 0.0363287033057 0.0176153846154
v 0.0230819460379 0.0374596284966 0.014
v 0.0230819460379 0.0374596284966 0.018
v 0.0231386470601 0.036539916697 0.0176153846154
v 0.0232723964651 0.0367511300884 0.0176153846154
v 0.0234061458701 0.0369623434797 0.0176153846154
v 0.023539895275 0.037173556871 0.014
v 0.023539895275 0.037173556871 0.0176153846154
f 36 48 1
f 14 54 49
f 31 6 53
f 4 1 2
f 4 36 1
f 46 49 48
f 3 2 54
f 3 54 14
f 52 53 54
f 52 54 2
f 42 48 36
f 42 46 48
f 45 31 53
f 45 53 52
f 45 2 31
f 45 52 2
f 11 7 6
f 11 6 31
f 11 2 7
f 11 31 2
f 6 1 48
f 6 48 53
f 54 48 49
f 54 53 48
f 7 1 6
f 7 2 1
f 42 4 2
f 42 49 46
f 42 14 49
f 42 36 4
f 42 2 3
f 42 3 14
