# Parametric PetalDock simulation geometry; SI units
v -0.0378598792629 0.0032602978691 0.014
v -0.0378598792629 0.0032602978691 0.0319630177515
v -0.0378170196135 0.0037246513325 0.014
v -0.0378170196135 0.0037246513325 0.0318520710059
v -0.0376108011099 0.003238848541 0.031934201465
v -0.0375682234319 0.0037001470474 0.0318236114155
v -0.0373617229569 0.0032173992129 0.0318477526055
v -0.0373194272502 0.0036756427624 0.0317382326442
v -0.0371126448038 0.0031959498848 0.0317140450362
v -0.0370706310685 0.0036511384773 0.0316061801446
v -0.0368635666508 0.0031745005567 0.031575726861
v -0.0368218348869 0.0036266341922 0.0314695741106
v -0.0366144884977 0.0031530512287 0.0314374086858
v -0.0365730387052 0.0036021299071 0.0313329680766
v -0.0363654103447 0.0031316019006 0.0312990905106
v -0.0363242425235 0.003577625622 0.0311963620425
v -0.0361163321916 0.0031101525725 0.0311607723355
v -0.0360754463419 0.0035531213369 0.0310597560085
v -0.0358672540386 0.0030887032444 0.0310224541603
v -0.0358266501602 0.0035286170519 0.0309231499744
v -0.0356181758855 0.0030672539163 0.0308841359851
v -0.0355778539785 0.0035041127668 0.0307865439404
v -0.0353690977325 0.0030458045882 0.0307458178099
v -0.0353290577969 0.0034796084817 0.0306499379063
v -0.0351200195794 0.0030243552601 0.0306074996347
v -0.0350802616152 0.0034551041966 0.0305133318723
v -0.0348709414264 0.0030029059321 0.0304691814596
v -0.0348314654335 0.0034305999115 0.0303767258383
v -0.0346218632734 0.002981456604 0.0303308632844
v -0.0345826692519 0.0034060956265 0.0302401198042
v -0.0343727851203 0.0029600072759 0.0301925451092
v -0.0343338730702 0.0033815913414 0.0301035137702
v -0.0341237069673 0.0029385579478 0.030054226934
v -0.0340850768885 0.0033570870563 0.0299669077361
v -0.0338746288142 0.0029171086197 0.0299159087589
v -0.0338362807069 0.0033325827712 0.0298303017021
v -0.0336255506612 0.0028956592916 0.0297775905837
v -0.0335874845252 0.0033080784861 0.0296936956681
v -0.0333764725081 0.0028742099635 0.0296392724085
v -0.0333386883435 0.003283574201 0.029557089634
v -0.0331273943551 0.0028527606355 0.0295009542333
v -0.0330898921619 0.003259069916 0.0294204836
v -0.032878316202 0.0028313113074 0.014
v -0.032878316202 0.0028313113074 0.0293626360581
v -0.0328410959802 0.0032345656309 0.014
v -0.0328410959802 0.0032345656309 0.0292838775659
f 8 3 4
f 8 45 3
f 39 1 43
f 6 8 4
f 11 1 39
f 44 39 43
f 7 1 11
f 9 7 11
f 9 17 46
f 9 11 39
f 5 4 2
f 5 6 4
f 5 8 6
f 5 7 8
f 42 46 45
f 42 9 46
f 35 9 39
f 35 17 9
f 35 46 17
f 35 44 46
f 35 39 44
f 30 45 8
f 30 42 45
f 38 9 42
f 28 22 14
f 28 14 9
f 28 9 38
f 10 30 8
f 10 14 22
f 10 9 14
f 10 8 7
f 10 7 9
f 4 1 2
f 4 3 1
f 43 1 3
f 43 3 45
f 46 43 45
f 46 44 43
f 5 2 1
f 5 1 7
f 28 42 22
f 28 38 42
f 10 22 42
f 10 42 30
