# Parametric PetalDock simulation geometry; SI units
v -0.0109550620078 -0.0487851065019 0.014
v -0.0109550620078 -0.0487851065019 0.0258903133903
v -0.010938383919 -0.0487108355997 0.0261595236467
v -0.0108908887404 -0.0484993299645 0.0264082602565
v -0.0108198071823 -0.048182789412 0.0266415274527
v -0.0107359607677 -0.0478094043719 0.014
v -0.0107359607677 -0.0478094043719 0.0268224121557
v -0.0103555688096 -0.048915868536 0.014
v -0.0103555688096 -0.048915868536 0.0261324786325
v -0.0103398033948 -0.0488413985604 0.0264072509275
v -0.010294907292 -0.0486293260123 0.0266621678898
v -0.0102277155257 -0.0483119370146 0.0269043551446
v -0.0101484574334 -0.0479375511653 0.014
v -0.0101484574334 -0.0479375511653 0.0270954415954
f 10 8 13
f 10 9 8
f 10 2 9
f 4 6 1
f 4 1 2
f 12 13 14
f 12 10 13
f 7 6 4
f 3 2 10
f 3 4 2
f 11 10 12
f 11 12 4
f 11 3 10
f 11 4 3
f 5 14 7
f 5 12 14
f 5 4 12
f 5 7 4
f 6 13 8
f 6 8 1
f 2 8 9
f 2 1 8
f 7 13 6
f 7 14 13
