# Parametric PetalDock simulation geometry; SI units
v 0.0004049607634 0.0329975151607 0.014
v 0.0004049607634 0.0329975151607 0.0293888888889
v 0.000408028648 0.0332474963362 0.0295277777778
v 0.0004110965326 0.0334974775116 0.0296666666667
v 0.0004141644171 0.0337474586871 0.0298055555556
v 0.0004172323017 0.0339974398625 0.0299444444444
v 0.0004203001863 0.034247421038 0.0300833333333
v 0.0004233680709 0.0344974022135 0.0302222222222
v 0.0004264359554 0.0347473833889 0.0303611111111
v 0.00042950384 0.0349973645644 0.0305
v 0.0004325717246 0.0352473457398 0.0306388888889
v 0.0004356396091 0.0354973269153 0.0307777777778
v 0.0004387074937 0.0357473080907 0.0309166666667
v 0.0004417753783 0.0359972892662 0.0310555555556
v 0.0004448432629 0.0362472704417 0.0311944444444
v 0.0004479111474 0.0364972516171 0.0313333333333
v 0.000450979032 0.0367472327926 0.0314722222222
v 0.0004540469166 0.036997213968 0.0316111111111
v 0.0004571148011 0.0372471951435 0.03175
v 0.0004601826857 0.037497176319 0.0318842592593
v 0.0004632505703 0.0377471574944 0.0319710648148
v 0.0004663184549 0.0379971386699 0.014
v 0.0004663184549 0.0379971386699 0.032
v 0.0008098605413 0.032990061017 0.014
v 0.0008098605413 0.032990061017 0.0293888888889
v 0.0008159958484 0.0332399857216 0.0295277777778
v 0.0008221311555 0.0334899104263 0.0296666666667
v 0.0008282664626 0.033739835131 0.0298055555556
v 0.0008344017698 0.0339897598357 0.0299444444444
v 0.0008405370769 0.0342396845403 0.0300833333333
v 0.000846672384 0.034489609245 0.0302222222222
v 0.0008528076912 0.0347395339497 0.0303611111111
v 0.0008589429983 0.0349894586544 0.0305
v 0.0008650783054 0.035239383359 0.0306388888889
v 0.0008712136126 0.0354893080637 0.0307777777778
v 0.0008773489197 0.0357392327684 0.0309166666667
v 0.0008834842268 0.0359891574731 0.0310555555556
v 0.000889619534 0.0362390821777 0.0311944444444
v 0.0008957548411 0.0364890068824 0.0313333333333
v 0.0009018901482 0.0367389315871 0.0314722222222
v 0.0009080254553 0.0369888562918 0.0316111111111
v 0.0009141607625 0.0372387809964 0.03175
v 0.0009202960696 0.0374887057011 0.0318842592593
v 0.0009264313767 0.0377386304058 0.0319710648148
v 0.0009325666839 0.0379885551105 0.014
v 0.0009325666839 0.0379885551105 0.032
f 20 23 22
f 19 22 1
f 19 20 22
f 21 46 23
f 21 23 20
f 43 20 19
f 43 21 20
f 38 24 45
f 38 25 24
f 38 45 46
f 44 46 21
f 44 43 46
f 44 21 43
f 42 46 43
f 42 38 46
f 42 43 19
f 5 2 4
f 5 4 13
f 5 1 2
f 18 19 13
f 18 42 19
f 18 13 42
f 26 13 4
f 26 2 25
f 26 4 2
f 35 25 38
f 35 38 42
f 35 26 25
f 35 42 26
f 34 42 13
f 34 13 26
f 34 26 42
f 24 22 45
f 24 1 22
f 2 1 24
f 2 24 25
f 46 45 22
f 46 22 23
f 5 13 19
f 5 19 1
