# Parametric PetalDock simulation geometry; SI units
v 0.0241520114193 -0.0426342625643 0.014
v 0.0241520114193 -0.0426342625643 0.020269705603
v 0.0243406353913 -0.0429672304405 0.0203336628474
v 0.0245005430734 -0.043249506976 0.0203144770578
v 0.0246073899707 -0.0434381181269 0.0202140689087
v 0.0246449096115 -0.0435043495554 0.014
v 0.0246449096115 -0.0435043495554 0.0200783475783
v 0.0246733808026 -0.04233466995 0.014
v 0.0246733808026 -0.04233466995 0.0199966761633
v 0.0248660765996 -0.042665298048 0.0200708351555
v 0.0250294362083 -0.0429455910153 0.0200605694245
v 0.0251385896091 -0.0431328767884 0.0199663416279
v 0.0251769191863 -0.0431986428061 0.014
v 0.0251769191863 -0.0431986428061 0.0198361823362
f 4 1 6
f 2 1 4
f 2 4 3
f 7 4 6
f 11 3 4
f 10 3 11
f 10 9 2
f 10 2 3
f 10 8 9
f 10 13 8
f 12 11 4
f 5 4 7
f 5 12 4
f 14 11 12
f 14 13 10
f 14 10 11
f 14 5 7
f 14 12 5
f 8 13 6
f 8 6 1
f 2 8 1
f 2 9 8
f 14 6 13
f 14 7 6
