# Parametric PetalDock simulation geometry; SI units
v 0.0012146383571 -0.0329776386914 0.014
v 0.0012146383571 -0.0329776386914 0.0293888888889
v 0.0012238401628 -0.0332274692876 0.0295277777778
v 0.0012330419685 -0.0334772998837 0.0296666666667
v 0.0012422437743 -0.0337271304799 0.0298055555556
v 0.00125144558 -0.033976961076 0.0299444444444
v 0.0012606473857 -0.0342267916722 0.0300833333333
v 0.0012698491915 -0.0344766222683 0.0302222222222
v 0.0012790509972 -0.0347264528644 0.0303611111111
v 0.0012882528029 -0.0349762834606 0.0305
v 0.0012974546087 -0.0352261140567 0.0306388888889
v 0.0013066564144 -0.0354759446529 0.0307777777778
v 0.0013158582202 -0.035725775249 0.0309166666667
v 0.0013250600259 -0.0359756058452 0.0310555555556
v 0.0013342618316 -0.0362254364413 0.0311944444444
v 0.0013434636374 -0.0364752670375 0.0313333333333
v 0.0013526654431 -0.0367250976336 0.0314722222222
v 0.0013618672488 -0.0369749282298 0.0316111111111
v 0.0013710690546 -0.0372247588259 0.03175
v 0.0013802708603 -0.0374745894221 0.0318842592593
v 0.001389472666 -0.0377244200182 0.0319710648148
v 0.0013986744718 -0.0379742506144 0.014
v 0.0013986744718 -0.0379742506144 0.032
v 0.0016192332528 -0.0329602500548 0.014
v 0.0016192332528 -0.0329602500548 0.0293888888889
v 0.0016315001714 -0.0332099489188 0.0295277777778
v 0.00164376709 -0.0334596477829 0.0296666666667
v 0.0016560340086 -0.0337093466469 0.0298055555556
v 0.0016683009271 -0.033959045511 0.0299444444444
v 0.0016805678457 -0.034208744375 0.0300833333333
v 0.0016928347643 -0.0344584432391 0.0302222222222
v 0.0017051016829 -0.0347081421031 0.0303611111111
v 0.0017173686015 -0.0349578409672 0.0305
v 0.00172963552 -0.0352075398312 0.0306388888889
v 0.0017419024386 -0.0354572386953 0.0307777777778
v 0.0017541693572 -0.0357069375593 0.0309166666667
v 0.0017664362758 -0.0359566364234 0.0310555555556
v 0.0017787031944 -0.0362063352874 0.0311944444444
v 0.001790970113 -0.0364560341515 0.0313333333333
v 0.0018032370315 -0.0367057330155 0.0314722222222
v 0.0018155039501 -0.0369554318796 0.0316111111111
v 0.0018277708687 -0.0372051307436 0.03175
v 0.0018400377873 -0.0374548296077 0.0318842592593
v 0.0018523047059 -0.0377045284717 0.0319710648148
v 0.0018645716244 -0.0379542273358 0.014
v 0.0018645716244 -0.0379542273358 0.032
f 44 46 45
f 21 22 23
f 21 44 20
f 21 23 46
f 21 46 44
f 39 45 24
f 39 44 45
f 10 1 22
f 10 22 21
f 28 39 24
f 43 20 44
f 43 44 39
f 43 19 20
f 18 20 19
f 18 21 20
f 18 10 21
f 7 1 10
f 42 39 28
f 42 13 19
f 42 19 43
f 42 43 39
f 26 25 2
f 26 2 28
f 26 24 25
f 26 28 24
f 4 28 2
f 4 13 28
f 4 7 10
f 4 1 7
f 36 28 13
f 36 13 42
f 36 42 28
f 14 13 4
f 14 19 13
f 14 18 19
f 3 2 1
f 3 1 4
f 3 4 2
f 24 45 22
f 24 22 1
f 2 24 1
f 2 25 24
f 46 22 45
f 46 23 22
f 14 4 10
f 14 10 18
