# Parametric PetalDock simulation geometry; SI units
v 0.0043127541745 -0.0437881279736 0.014
v 0.0043127541745 -0.0437881279736 0.0318520710059
v 0.0043372584596 -0.0440369241552 0.0318236114155
v 0.0043617627447 -0.0442857203369 0.0317382326442
v 0.0043862670297 -0.0445345165186 0.0316061801446
v 0.0044107713148 -0.0447833127002 0.0314695741106
v 0.0044352755999 -0.0450321088819 0.0313329680766
v 0.004459779885 -0.0452809050636 0.0311963620425
v 0.0044842841701 -0.0455297012453 0.0310597560085
v 0.0045087884552 -0.0457784974269 0.0309231499744
v 0.0045332927402 -0.0460272936086 0.0307865439404
v 0.0045577970253 -0.0462760897903 0.0306499379063
v 0.0045823013104 -0.0465248859719 0.0305133318723
v 0.0046068055955 -0.0467736821536 0.0303767258383
v 0.0046313098806 -0.0470224783353 0.0302401198042
v 0.0046558141657 -0.0472712745169 0.0301035137702
v 0.0046803184507 -0.0475200706986 0.0299669077361
v 0.0047048227358 -0.0477688668803 0.0298303017021
v 0.0047293270209 -0.0480176630619 0.0296936956681
v 0.004753831306 -0.0482664592436 0.029557089634
v 0.0047783355911 -0.0485152554253 0.0294204836
v 0.0048028398761 -0.0487640516069 0.014
v 0.0048028398761 -0.0487640516069 0.0292838775659
v 0.0048497771209 -0.0437319066801 0.014
v 0.0048497771209 -0.0437319066801 0.0316671597633
v 0.0048773326728 -0.0439803834226 0.0316392946663
v 0.0049048882246 -0.0442288601651 0.0315556993754
v 0.0049324437764 -0.0444773369076 0.0314264053254
v 0.0049599993282 -0.0447258136501 0.03129265286
v 0.00498755488 -0.0449742903926 0.0311589003945
v 0.0050151104319 -0.0452227671351 0.031025147929
v 0.0050426659837 -0.0454712438776 0.0308913954635
v 0.0050702215355 -0.0457197206201 0.030757642998
v 0.0050977770873 -0.0459681973626 0.0306238905325
v 0.0051253326392 -0.0462166741051 0.0304901380671
v 0.005152888191 -0.0464651508476 0.0303563856016
v 0.0051804437428 -0.0467136275901 0.0302226331361
v 0.0052079992946 -0.0469621043326 0.0300888806706
v 0.0052355548465 -0.0472105810751 0.0299551282051
v 0.0052631103983 -0.0474590578176 0.0298213757396
v 0.0052906659501 -0.0477075345601 0.0296876232742
v 0.0053182215019 -0.0479560113026 0.0295538708087
v 0.0053457770538 -0.0482044880451 0.0294201183432
v 0.0053733326056 -0.0484529647876 0.0292863658777
v 0.0054008881574 -0.0487014415301 0.014
v 0.0054008881574 -0.0487014415301 0.0291526134122
f 5 2 1
f 5 1 22
f 5 22 23
f 26 45 24
f 21 23 46
f 43 46 45
f 43 45 26
f 43 5 46
f 25 2 26
f 25 26 24
f 3 2 5
f 3 26 2
f 11 5 23
f 18 23 21
f 18 11 23
f 9 21 46
f 9 18 21
f 9 11 18
f 29 28 5
f 27 26 3
f 7 46 5
f 7 9 46
f 7 5 11
f 7 11 9
f 41 5 43
f 31 27 28
f 31 28 29
f 31 26 27
f 4 5 28
f 4 28 27
f 4 3 5
f 4 27 3
f 35 41 43
f 35 31 29
f 35 29 5
f 35 5 41
f 24 22 1
f 24 45 22
f 46 23 22
f 46 22 45
f 25 24 1
f 25 1 2
f 35 26 31
f 35 43 26
