# Parametric PetalDock simulation geometry; SI units
v -0.0004049607634 0.0329975151607 0.014
v -0.0004049607634 0.0329975151607 0.0293888888889
v -0.000400264649 0.0326148605437 0.0291121077565
v -0.0003962834755 0.0322904616233 0.0287949920093
v -0.0003936233404 0.0320737051946 0.0284881600858
v -0.0003926892251 0.0319975904589 0.014
v -0.0003926892251 0.0319975904589 0.0281666666667
v 0 0.032 0.014
v 0 0.032 0.0281666666667
v 0 0.0320761204675 0.0284881600858
v 0 0.0322928932188 0.0287949920093
v 0 0.0326173165676 0.0291121077565
v 0 0.033 0.014
v 0 0.033 0.0293888888889
f 5 2 1
f 5 1 6
f 7 5 6
f 7 9 5
f 4 2 5
f 4 3 2
f 10 5 9
f 10 4 5
f 10 11 4
f 12 14 2
f 12 2 3
f 12 3 4
f 12 4 11
f 14 1 2
f 14 13 1
f 6 1 13
f 6 13 8
f 7 6 8
f 7 8 9
f 12 13 14
f 12 8 13
f 12 9 8
f 12 10 9
f 12 11 10
