# Parametric PetalDock simulation geometry; SI units
v 0.004842105657 0.0326428248288 0.014
v 0.004842105657 0.0326428248288 0.0284605887939
v 0.0048787882756 0.0328901189563 0.028579297246
v 0.0049154708943 0.0331374130838 0.028698005698
v 0.0049521535129 0.0333847072113 0.02881671415
v 0.0049888361315 0.0336320013388 0.0289354226021
v 0.0050255187501 0.0338792954663 0.0290541310541
v 0.0050622013687 0.0341265895938 0.0291728395062
v 0.0050988839873 0.0343738837213 0.0292915479582
v 0.0051355666059 0.0346211778488 0.0294102564103
v 0.0051722492246 0.0348684719763 0.0295289648623
v 0.0052089318432 0.0351157661037 0.0296476733143
v 0.00524231873 0.0325809467992 0.014
v 0.00524231873 0.0325809467992 0.0281875593542
v 0.0052456144618 0.0353630602312 0.0297663817664
v 0.0052820332659 0.0328277721537 0.0283003323837
v 0.0052822970804 0.0356103543587 0.0298850902184
v 0.005318979699 0.0358576484862 0.0300037986705
v 0.0053217478017 0.0330745975083 0.0284131054131
v 0.0053556623176 0.0361049426137 0.0301225071225
v 0.0053614623375 0.0333214228628 0.0285258784425
v 0.0053923449362 0.0363522367412 0.0302412155745
v 0.0054011768734 0.0335682482174 0.028638651472
v 0.0054290275548 0.0365995308687 0.0303599240266
v 0.0054408914092 0.0338150735719 0.0287514245014
v 0.0054657101735 0.0368468249962 0.0304786324786
v 0.005480605945 0.0340618989264 0.0288641975309
v 0.0055023927921 0.0370941191237 0.0305933839823
v 0.0055203204809 0.034308724281 0.0289769705603
v 0.0055390754107 0.0373414132512 0.0306675767648
v 0.0055600350167 0.0345555496355 0.0290897435897
v 0.0055757580293 0.0375887073787 0.014
v 0.0055757580293 0.0375887073787 0.0306923076923
v 0.0055997495525 0.0348023749901 0.0292025166192
v 0.0056394640884 0.0350492003446 0.0293152896486
v 0.0056791786242 0.0352960256991 0.0294280626781
v 0.00571889316 0.0355428510537 0.0295408357075
v 0.0057586076959 0.0357896764082 0.0296536087369
v 0.0057983222317 0.0360365017628 0.0297663817664
v 0.0058380367675 0.0362833271173 0.0298791547958
v 0.0058777513034 0.0365301524718 0.0299919278253
v 0.0059174658392 0.0367769778264 0.0301047008547
v 0.005957180375 0.0370238031809 0.0302137147832
v 0.0059968949109 0.0372706285355 0.0302841979266
v 0.0060366094467 0.03751745389 0.014
v 0.0060366094467 0.03751745389 0.0303076923077
f 30 46 33
f 43 30 28
f 24 26 28
f 24 28 30
f 24 30 33
f 24 32 1
f 24 33 32
f 16 13 45
f 16 14 13
f 16 26 14
f 3 2 14
f 3 1 2
f 18 14 26
f 18 15 14
f 18 26 24
f 18 3 15
f 18 24 3
f 41 16 45
f 41 26 16
f 4 14 15
f 4 3 14
f 4 15 3
f 10 24 1
f 10 1 3
f 10 3 24
f 44 43 41
f 44 46 30
f 44 30 43
f 44 45 46
f 44 41 45
f 42 28 26
f 42 26 41
f 42 43 28
f 42 41 43
f 13 32 45
f 13 1 32
f 2 1 13
f 2 13 14
f 46 45 32
f 46 32 33
