# Parametric PetalDock simulation geometry; SI units
v -0.0280947213725 -0.0173114595284 0.014
v -0.0280947213725 -0.0173114595284 0.019450617284
v -0.0278801676532 -0.0176549214563 0.014
v -0.0278801676532 -0.0176549214563 0.0191775878443
v -0.027768921845 -0.017110707748 0.0195451797717
v -0.027556856191 -0.0174501867308 0.0192823520798
v -0.0274927223422 -0.0169405186064 0.019552754158
v -0.0273081717347 -0.0168268018576 0.0194708870664
v -0.0272827659681 -0.0172766210113 0.0192988465247
v -0.0272433661794 -0.0167868698457 0.014
v -0.0272433661794 -0.0167868698457 0.0193518518519
v -0.0270996247363 -0.0171606481053 0.0192231597856
v -0.027035314088 -0.0171199238364 0.014
v -0.027035314088 -0.0171199238364 0.0191096866097
f 6 3 13
f 14 6 13
f 14 11 8
f 4 3 6
f 4 6 2
f 5 9 7
f 5 6 9
f 5 2 6
f 5 7 8
f 5 8 11
f 5 10 1
f 5 1 2
f 5 11 10
f 12 9 6
f 12 6 14
f 12 14 8
f 12 7 9
f 12 8 7
f 10 13 3
f 10 3 1
f 14 13 10
f 14 10 11
f 4 1 3
f 4 2 1
