# Parametric PetalDock simulation geometry; SI units
v 0.0085839741687 0.0431545523377 0.014
v 0.0085839741687 0.0431545523377 0.0291538461538
v 0.0086327467492 0.0433997486578 0.0291340614118
v 0.0086815193297 0.0436449449779 0.0290747071858
v 0.0087302919102 0.043890141298 0.0289829059829
v 0.0087790644907 0.0441353376181 0.0288879392213
v 0.0088278370712 0.0443805339382 0.0287929724596
v 0.0088766096517 0.0446257302583 0.028698005698
v 0.0089253822322 0.0448709265784 0.0286030389364
v 0.0089741548127 0.0451161228985 0.0285080721747
v 0.0090229273932 0.0453613192186 0.0284131054131
v 0.0090716999737 0.0456065155388 0.0283181386515
v 0.0091129005525 0.0430459643117 0.014
v 0.0091129005525 0.0430459643117 0.0287692307692
v 0.0091204725543 0.0458517118589 0.0282231718898
v 0.0091646783965 0.0432905436543 0.0287506825736
v 0.0091692451348 0.046096908179 0.0281282051282
v 0.0092164562406 0.043535122997 0.0286950379867
v 0.0092180177153 0.0463421044991 0.0280332383666
v 0.0092667902958 0.0465873008192 0.0279382716049
v 0.0092682340846 0.0437797023397 0.028608974359
v 0.0093155628763 0.0468324971393 0.0278433048433
v 0.0093200119286 0.0440242816824 0.0285199430199
v 0.0093643354568 0.0470776934594 0.0277483380817
v 0.0093717897727 0.0442688610251 0.0284309116809
v 0.0094131080373 0.0473228897795 0.02765337132
v 0.0094235676167 0.0445134403677 0.0283418803419
v 0.0094618806178 0.0475680860996 0.0275584045584
v 0.0094753454608 0.0447580197104 0.0282528490028
v 0.0095106531983 0.0478132824197 0.0274634377968
v 0.0095271233048 0.0450025990531 0.0281638176638
v 0.0095594257788 0.0480584787398 0.014
v 0.0095594257788 0.0480584787398 0.0273684710351
v 0.0095789011489 0.0452471783958 0.0280747863248
v 0.0096306789929 0.0454917577385 0.0279857549858
v 0.009682456837 0.0457363370811 0.0278967236467
v 0.009734234681 0.0459809164238 0.0278076923077
v 0.0097860125251 0.0462254957665 0.0277186609687
v 0.0098377903691 0.0464700751092 0.0276296296296
v 0.0098895682132 0.0467146544519 0.0275405982906
v 0.0099413460572 0.0469592337945 0.0274515669516
v 0.0099931239013 0.0472038131372 0.0273625356125
v 0.0100449017453 0.0474483924799 0.0272735042735
v 0.0100966795894 0.0476929718226 0.0271844729345
v 0.0101484574334 0.0479375511653 0.014
v 0.0101484574334 0.0479375511653 0.0270954415954
f 12 1 2
f 12 32 1
f 12 33 32
f 44 13 45
f 44 45 46
f 30 46 33
f 30 33 12
f 4 44 46
f 19 46 30
f 19 30 12
f 18 14 13
f 3 12 2
f 3 4 12
f 3 18 4
f 5 4 46
f 5 12 4
f 42 13 44
f 42 18 13
f 16 2 14
f 16 3 2
f 16 14 18
f 16 18 3
f 6 46 19
f 6 5 46
f 6 19 12
f 6 12 5
f 21 4 18
f 36 18 42
f 36 21 18
f 38 44 4
f 38 4 21
f 38 21 36
f 13 1 32
f 13 32 45
f 46 32 33
f 46 45 32
f 14 1 13
f 14 2 1
f 38 36 42
f 38 42 44
