# Parametric PetalDock simulation geometry; SI units
v -0.0024276305988 0.0329105850704 0.014
v -0.0024276305988 0.0329105850704 0.0293888888889
v -0.0023994786591 0.0325289385354 0.0291121077565
v -0.002375612597 0.0322053942257 0.0287949920093
v -0.0023596658042 0.0319892088295 0.0284881600858
v -0.0023540660352 0.0319132946137 0.014
v -0.0023540660352 0.0319132946137 0.0281666666667
v -0.002023584298 0.0329378977257 0.014
v -0.002023584298 0.0329378977257 0.0293888888889
v -0.0020001178681 0.0325559344604 0.0291121077565
v -0.0019802239895 0.0322321216396 0.0287949920093
v -0.0019669313248 0.0320157568302 0.0284881600858
v -0.0019622635617 0.0319397796128 0.014
v -0.0019622635617 0.0319397796128 0.0281666666667
f 10 8 9
f 10 13 8
f 5 2 1
f 5 1 6
f 3 9 2
f 3 10 9
f 3 2 5
f 4 3 5
f 7 5 6
f 7 14 5
f 12 14 13
f 12 13 10
f 12 5 14
f 11 12 10
f 11 10 3
f 11 3 4
f 11 4 5
f 11 5 12
f 9 1 2
f 9 8 1
f 6 1 8
f 6 8 13
f 7 6 13
f 7 13 14
