# Parametric PetalDock simulation geometry; SI units
v -0.00524231873 0.0325809467992 0.014
v -0.00524231873 0.0325809467992 0.0281875593542
v -0.0051815263505 0.0322031229037 0.0279556659122
v -0.0051299890596 0.0318828192714 0.0276777984229
v -0.0050955529428 0.0316687992266 0.0273981600505
v -0.0050834605867 0.0315936453811 0.014
v -0.0050834605867 0.0315936453811 0.0271011396011
v -0.004842105657 0.0326428248288 0.014
v -0.004842105657 0.0326428248288 0.0284605887939
v -0.0047859543354 0.0322642833668 0.028218493604
v -0.0047383515435 0.0319433714109 0.0279317060562
v -0.0047065443749 0.0317289448972 0.0276458873312
v -0.0046953751826 0.0316536483189 0.014
v -0.0046953751826 0.0316536483189 0.0273433048433
f 3 1 6
f 3 2 1
f 3 6 7
f 3 9 2
f 10 9 3
f 10 3 4
f 12 7 14
f 5 7 12
f 5 3 7
f 5 4 3
f 11 10 4
f 11 4 5
f 11 5 12
f 11 12 14
f 11 14 13
f 11 13 8
f 6 8 13
f 6 1 8
f 2 8 1
f 2 9 8
f 14 6 13
f 14 7 6
f 11 8 9
f 11 9 10
