# Parametric PetalDock simulation geometry; SI units
v 0.0470610954514 0.0136474647799 0.014
v 0.0470610954514 0.0136474647799 0.0254572649573
v 0.047225027224 0.0130689251163 0.014
v 0.047225027224 0.0130689251163 0.025730294397
v 0.0474286362991 0.0137540496506 0.0253273889933
v 0.0475938483569 0.0131709916698 0.0255902166852
v 0.0477402223845 0.0138444079409 0.0251387220901
v 0.0479065198156 0.0132575195157 0.0253926297234
v 0.0479484175506 0.0139047834203 0.024920887243
v 0.0480215259708 0.0139259844693 0.014
v 0.0480215259708 0.0139259844693 0.0246794871795
v 0.0481154402051 0.013315335574 0.0251686145237
v 0.0481888032898 0.0133356378737 0.014
v 0.0481888032898 0.0133356378737 0.0249216524217
f 8 4 14
f 5 2 4
f 6 4 8
f 6 5 4
f 6 8 7
f 6 7 5
f 9 5 7
f 9 7 8
f 9 11 2
f 9 2 5
f 12 8 14
f 12 9 8
f 12 14 11
f 12 11 9
f 3 10 13
f 3 1 10
f 3 13 14
f 3 14 4
f 2 1 3
f 2 3 4
f 11 13 10
f 11 14 13
f 11 10 1
f 11 1 2
