# Parametric PetalDock simulation geometry; SI units
v -0.034220436221 0.0350708104389 0.014
v -0.034220436221 0.0350708104389 0.0166111111111
v -0.0340458421587 0.0348918777326 0.0164722222222
v -0.0338712480963 0.0347129450263 0.0163333333333
v -0.0337874866921 0.0354881070646 0.014
v -0.0337874866921 0.0354881070646 0.0166111111111
v -0.033696654034 0.0345340123199 0.0161944444444
v -0.0336151015559 0.0353070452939 0.0164722222222
v -0.0335220599716 0.0343550796136 0.0160555555556
v -0.0334427164197 0.0351259835231 0.0163333333333
v -0.0333474659093 0.0341761469073 0.0159166666667
v -0.0332703312836 0.0349449217524 0.0161944444444
v -0.0331728718469 0.033997214201 0.0157777777778
v -0.0330979461474 0.0347638599817 0.0160555555556
v -0.0329982777846 0.0338182814947 0.0156388888889
v -0.0329255610112 0.0345827982109 0.0159166666667
v -0.0328236837222 0.0336393487883 0.0155
v -0.032753175875 0.0344017364402 0.0157777777778
v -0.0326490896599 0.033460416082 0.0153611111111
v -0.0325807907388 0.0342206746695 0.0156388888889
v -0.0324744955975 0.0332814833757 0.0152222222222
v -0.0324084056026 0.0340396128987 0.0155
v -0.0322999015352 0.0331025506694 0.0150833333333
v -0.0322360204665 0.033858551128 0.0153611111111
v -0.0321253074728 0.0329236179631 0.0149444444444
v -0.0320636353303 0.0336774893572 0.0152222222222
v -0.0319507134105 0.0327446852567 0.0148055555556
v -0.0318912501941 0.0334964275865 0.0150833333333
v -0.0317761193481 0.0325657525504 0.0146666666667
v -0.0317188650579 0.0333153658158 0.0149444444444
v -0.0316015252858 0.0323868198441 0.0145277777778
v -0.0315464799217 0.033134304045 0.0148055555556
v -0.0314269312234 0.0322078871378 0.0143888888889
v -0.0313740947855 0.0329532422743 0.0146666666667
v -0.0312523371611 0.0320289544315 0.01425
v -0.0312017096494 0.0327721805036 0.0145277777778
v -0.0310777430987 0.0318500217251 0.0141157407407
v -0.0310293245132 0.0325911187328 0.0143888888889
v -0.0309031490363 0.0316710890188 0.0140289351852
v -0.030856939377 0.0324100569621 0.01425
v -0.030728554974 0.0314921563125 0.014
v -0.0306845542408 0.0322289951913 0.0141157407407
v -0.0305121691046 0.0320479334206 0.0140289351852
v -0.0303397839684 0.0318668716499 0.014
f 6 2 44
f 41 44 2
f 8 5 6
f 8 6 44
f 20 44 5
f 20 8 44
f 20 5 8
f 3 2 1
f 3 41 2
f 37 1 41
f 37 27 1
f 37 41 27
f 7 1 27
f 7 3 1
f 7 27 41
f 7 41 3
f 6 1 2
f 6 5 1
f 41 1 5
f 41 5 44
