# Parametric PetalDock simulation geometry; SI units
v 0.0107804753086 0.0301294100859 0.014
v 0.0107804753086 0.0301294100859 0.0234686609687
v 0.0108061195217 0.0302010808603 0.0236822508392
v 0.0108791480621 0.0304051819578 0.0238691839237
v 0.0109884429965 0.0307106408365 0.0240132505338
v 0.0111173651619 0.031070954151 0.014
v 0.0111173651619 0.031070954151 0.0240921177588
v 0.011149397768 0.0299948483812 0.014
v 0.011149397768 0.0299948483812 0.0232264957265
v 0.0111759195608 0.030066199065 0.0234345235584
v 0.0112514472367 0.0302693886215 0.0236152762904
v 0.0113644823918 0.0305734832827 0.0237504228419
v 0.0114978164482 0.0309321873931 0.014
v 0.0114978164482 0.0309321873931 0.0238190883191
f 3 2 9
f 3 1 2
f 5 7 6
f 5 3 4
f 5 6 1
f 5 1 3
f 11 5 4
f 12 8 13
f 12 9 8
f 12 13 14
f 12 5 11
f 12 14 7
f 12 7 5
f 10 3 9
f 10 9 12
f 10 12 11
f 10 4 3
f 10 11 4
f 8 6 13
f 8 1 6
f 2 1 8
f 2 8 9
f 14 13 6
f 14 6 7
