# Parametric PetalDock simulation geometry; SI units
v -0.0230464162305 0.0236191172344 0.014
v -0.0230464162305 0.0236191172344 0.0166111111111
v -0.0227791592103 0.0233452189055 0.016811771776
v -0.0227548379763 0.0239001537374 0.014
v -0.0227548379763 0.0239001537374 0.0166111111111
v -0.0225525896487 0.0231130191143 0.0169121147719
v -0.0224909622339 0.0236229963778 0.016811771776
v -0.0224012007077 0.0229578681741 0.0168945233466
v -0.0223480399811 0.0229033864091 0.014
v -0.0223480399811 0.0229033864091 0.0168333333333
v -0.0222672591812 0.0233880337138 0.0169121147719
v -0.0221177855802 0.023231036681 0.0168945233466
v -0.0220652974316 0.0231759066544 0.014
v -0.0220652974316 0.0231759066544 0.0168333333333
f 11 13 4
f 11 12 13
f 11 6 12
f 5 11 4
f 3 6 11
f 3 2 1
f 14 13 12
f 8 12 6
f 8 6 3
f 8 10 14
f 8 14 12
f 8 9 10
f 8 1 9
f 8 3 1
f 7 5 2
f 7 2 3
f 7 11 5
f 7 3 11
f 9 4 13
f 9 1 4
f 5 4 1
f 5 1 2
f 14 9 13
f 14 10 9
