# Parametric PetalDock simulation geometry; SI units
v -0.0159120644786 -0.0289103131084 0.014
v -0.0159120644786 -0.0289103131084 0.0205427350427
v -0.0157275407377 -0.0285750555978 0.0205964905392
v -0.0155711090636 -0.028290838004 0.0205683846911
v -0.0155560923153 -0.0291034017235 0.014
v -0.0155560923153 -0.0291034017235 0.0208157644824
v -0.0154665847607 -0.0281009298794 0.0204617961894
v -0.0154298807065 -0.0280342430143 0.014
v -0.0154298807065 -0.0280342430143 0.0203205128205
v -0.015375696594 -0.028765905067 0.0208593182311
v -0.015222764486 -0.028479789217 0.0208222923244
v -0.0151205785184 -0.0282886127181 0.0207095234702
v -0.0150846955784 -0.0282214804591 0.014
v -0.0150846955784 -0.0282214804591 0.0205626780627
f 10 5 13
f 6 5 10
f 3 6 10
f 2 3 1
f 2 6 3
f 12 14 9
f 12 13 14
f 12 10 13
f 12 11 10
f 4 3 10
f 4 10 11
f 4 8 1
f 4 1 3
f 7 9 8
f 7 8 4
f 7 12 9
f 7 11 12
f 7 4 11
f 8 13 5
f 8 5 1
f 14 13 8
f 14 8 9
f 2 1 5
f 2 5 6
