# Parametric PetalDock simulation geometry; SI units
v 0.00805375507 -0.043256641447 0.014
v 0.00805375507 -0.043256641447 0.0295384615385
v 0.008099515042 -0.0435024178188 0.0295174402501
v 0.008145275014 -0.0437481941907 0.0294543763849
v 0.008191034986 -0.0439939705625 0.0293568376068
v 0.008236794958 -0.0442397469344 0.0292559354226
v 0.00828255493 -0.0444855233063 0.0291550332384
v 0.008328314902 -0.0447312996781 0.0290541310541
v 0.0083740748739 -0.04497707605 0.0289532288699
v 0.0084198348459 -0.0452228524218 0.0288523266857
v 0.0084655948179 -0.0454686287937 0.0287514245014
v 0.0085113547899 -0.0457144051656 0.0286505223172
v 0.0085571147619 -0.0459601815374 0.028549620133
v 0.0085839741687 -0.0431545523377 0.014
v 0.0085839741687 -0.0431545523377 0.0291538461538
v 0.0086028747339 -0.0462059579093 0.0284487179487
v 0.0086327467492 -0.0433997486578 0.0291340614118
v 0.0086486347059 -0.0464517342811 0.0283478157645
v 0.0086815193297 -0.0436449449779 0.0290747071858
v 0.0086943946779 -0.046697510653 0.0282469135802
v 0.0087302919102 -0.043890141298 0.0289829059829
v 0.0087401546499 -0.0469432870248 0.028146011396
v 0.0087790644907 -0.0441353376181 0.0288879392213
v 0.0087859146218 -0.0471890633967 0.0280451092118
v 0.0088278370712 -0.0443805339382 0.0287929724596
v 0.0088316745938 -0.0474348397686 0.0279442070275
v 0.0088766096517 -0.0446257302583 0.028698005698
v 0.0088774345658 -0.0476806161404 0.0278433048433
v 0.0089231945378 -0.0479263925123 0.0277424026591
v 0.0089253822322 -0.0448709265784 0.0286030389364
v 0.0089689545098 -0.0481721688841 0.014
v 0.0089689545098 -0.0481721688841 0.0276415004748
v 0.0089741548127 -0.0451161228985 0.0285080721747
v 0.0090229273932 -0.0453613192186 0.0284131054131
v 0.0090716999737 -0.0456065155388 0.0283181386515
v 0.0091204725543 -0.0458517118589 0.0282231718898
v 0.0091692451348 -0.046096908179 0.0281282051282
v 0.0092180177153 -0.0463421044991 0.0280332383666
v 0.0092667902958 -0.0465873008192 0.0279382716049
v 0.0093155628763 -0.0468324971393 0.0278433048433
v 0.0093643354568 -0.0470776934594 0.0277483380817
v 0.0094131080373 -0.0473228897795 0.02765337132
v 0.0094618806178 -0.0475680860996 0.0275584045584
v 0.0095106531983 -0.0478132824197 0.0274634377968
v 0.0095594257788 -0.0480584787398 0.014
v 0.0095594257788 -0.0480584787398 0.0273684710351
f 24 1 31
f 36 45 14
f 9 2 1
f 9 1 24
f 26 24 31
f 15 36 14
f 4 2 9
f 29 31 32
f 29 26 31
f 29 24 26
f 29 32 46
f 17 15 2
f 17 36 15
f 44 4 46
f 5 46 4
f 5 4 9
f 3 2 4
f 3 17 2
f 19 36 17
f 19 3 4
f 19 17 3
f 38 4 44
f 7 5 9
f 7 46 5
f 7 29 46
f 21 36 19
f 21 19 4
f 23 4 38
f 23 21 4
f 14 31 1
f 14 45 31
f 46 32 31
f 46 31 45
f 15 14 1
f 15 1 2
f 38 46 45
f 38 45 36
f 38 44 46
f 7 24 29
f 7 9 24
f 23 38 36
f 23 36 21
