# Parametric PetalDock simulation geometry; SI units
v -0.0329602500548 0.0016192332528 0.014
v -0.0329602500548 0.0016192332528 0.0293888888889
v -0.0329378977257 0.002023584298 0.014
v -0.0329378977257 0.002023584298 0.0293888888889
v -0.0325780275814 0.0016004558668 0.0291121077565
v -0.0325559344604 0.0020001178681 0.0291121077565
v -0.0322539950147 0.0015845371676 0.0287949920093
v -0.0322321216396 0.0019802239895 0.0287949920093
v -0.0320374833756 0.0015739006328 0.0284881600858
v -0.0320157568302 0.0019669313248 0.0284881600858
v -0.0319614545986 0.0015701655785 0.014
v -0.0319614545986 0.0015701655785 0.0281666666667
v -0.0319397796128 0.0019622635617 0.014
v -0.0319397796128 0.0019622635617 0.0281666666667
f 9 2 1
f 9 1 11
f 12 9 11
f 12 14 9
f 5 4 2
f 5 2 9
f 10 14 4
f 10 4 8
f 10 9 14
f 10 8 9
f 6 4 5
f 6 8 4
f 6 5 8
f 7 5 9
f 7 9 8
f 7 8 5
f 4 1 2
f 4 3 1
f 11 1 3
f 11 3 13
f 14 3 4
f 14 13 3
f 12 11 13
f 12 13 14
