# Parametric PetalDock simulation geometry; SI units
v -0.0302418023751 0.0230094195734 0.014
v -0.0302418023751 0.0230094195734 0.014924556213
v -0.030042843149 0.022858041813 0.014950518931
v -0.0299571642498 0.0233788004421 0.014
v -0.0299571642498 0.0233788004421 0.0145917159763
v -0.0298438839228 0.0227066640527 0.0150284070848
v -0.0297600776429 0.0232249925444 0.0146187487825
v -0.0296449246967 0.0225552862923 0.015148874096
v -0.029562991036 0.0230711846468 0.0146998472009
v -0.0294459654705 0.022403908532 0.0152734951421
v -0.0293659044291 0.0229173767491 0.0148252794214
v -0.0292470062444 0.0222525307716 0.0153981161882
v -0.0291688178222 0.0227635688515 0.0149550368909
v -0.0290480470182 0.0221011530113 0.0155227372343
v -0.0289717312153 0.0226097609538 0.0150847943604
v -0.0288490877921 0.0219497752509 0.0156473582804
v -0.0287746446084 0.0224559530562 0.0152145518299
v -0.0286501285659 0.0217983974906 0.0157719793265
v -0.0285775580015 0.0223021451585 0.0153443092994
v -0.0284511693398 0.0216470197302 0.0158966003726
v -0.0283804713946 0.0221483372609 0.0154740667689
v -0.0282522101136 0.0214956419699 0.0160212214187
v -0.0281833847877 0.0219945293633 0.0156038242384
v -0.0280532508875 0.0213442642095 0.0161458424648
v -0.0279862981807 0.0218407214656 0.0157335817079
v -0.0278542916613 0.0211928864492 0.0162704635108
v -0.0277892115738 0.021686913568 0.0158633391774
v -0.0276553324352 0.0210415086888 0.0163950845569
v -0.0275921249669 0.0215331056703 0.0159930966469
v -0.027456373209 0.0208901309284 0.016519705603
v -0.02739503836 0.0213792977727 0.0161228541164
v -0.0272574139829 0.0207387531681 0.0166443266491
v -0.0271979517531 0.021225489875 0.0162526115859
v -0.0270584547567 0.0205873754077 0.0167689476952
v -0.0270008651462 0.0210716819774 0.0163823690554
v -0.0268594955305 0.0204359976474 0.0168935687413
v -0.0268037785393 0.0209178740797 0.0165121265249
v -0.0266605363044 0.020284619887 0.0170181897874
v -0.0266066919324 0.0207640661821 0.0166418839944
v -0.0264615770782 0.0201332421267 0.0171428108335
v -0.0264096053255 0.0206102582845 0.0167716414639
v -0.0262626178521 0.0199818643663 0.014
v -0.0262626178521 0.0199818643663 0.0172674318796
v -0.0262125187186 0.0204564503868 0.0169013989335
v -0.0260154321117 0.0203026424892 0.014
v -0.0260154321117 0.0203026424892 0.017031156403
f 46 2 43
f 3 1 42
f 3 2 1
f 3 43 2
f 41 46 45
f 30 42 43
f 30 43 3
f 30 3 42
f 5 2 46
f 5 46 41
f 27 4 5
f 27 5 41
f 27 45 4
f 27 41 45
f 42 4 45
f 42 1 4
f 46 42 45
f 46 43 42
f 5 4 1
f 5 1 2
