# Parametric PetalDock simulation geometry; SI units
v -0.0449337232847 -0.0219308119269 0.014
v -0.0449337232847 -0.0219308119269 0.0212891737892
v -0.0448653157642 -0.0218974242538 0.0214527053124
v -0.0446705076278 -0.021802344205 0.0215840152242
v -0.0446612150598 -0.0224805664827 0.014
v -0.0446612150598 -0.0224805664827 0.021047008547
v -0.0445932224084 -0.0224463418581 0.0212049780317
v -0.0443995957191 -0.0223488783732 0.0213301075909
v -0.0443789566481 -0.021660046856 0.0216478013068
v -0.0441098129 -0.0222030139599 0.0213849736149
v -0.044035048819 -0.0214921956884 0.014
v -0.044035048819 -0.0214921956884 0.0216348528015
v -0.0437679907586 -0.0220309551531 0.014
v -0.0437679907586 -0.0220309551531 0.0213618233618
f 2 9 1
f 11 1 9
f 12 11 9
f 12 9 10
f 8 5 13
f 8 10 9
f 14 8 13
f 14 10 8
f 14 12 10
f 6 5 8
f 4 9 2
f 4 8 9
f 3 2 6
f 3 4 2
f 7 6 8
f 7 3 6
f 7 8 4
f 7 4 3
f 11 13 5
f 11 5 1
f 14 13 11
f 14 11 12
f 6 1 5
f 6 2 1
