# Parametric PetalDock simulation geometry; SI units
v 0.0308408341055 -0.0085348082392 0.014
v 0.0308408341055 -0.0085348082392 0.0249216524217
v 0.0309141971901 -0.008555110539 0.0251686145237
v 0.0309432470734 -0.0081557011073 0.014
v 0.0309432470734 -0.0081557011073 0.0251638176638
v 0.0310168537745 -0.0081751016005 0.0254163418045
v 0.0311231175796 -0.0086129265972 0.0253926297234
v 0.0312264679246 -0.0082303495308 0.0256465373567
v 0.0314357890384 -0.0086994544432 0.0255902166852
v 0.0315401776695 -0.0083130339015 0.025853044377
v 0.0318046101712 -0.0088015209967 0.014
v 0.0318046101712 -0.0088015209967 0.025730294397
v 0.0319102235445 -0.0084105667669 0.014
v 0.0319102235445 -0.0084105667669 0.0260033238367
f 3 11 12
f 3 1 11
f 9 12 14
f 9 3 12
f 10 9 14
f 10 14 5
f 2 1 3
f 7 3 9
f 7 9 10
f 6 10 5
f 6 5 2
f 6 2 3
f 8 7 10
f 8 10 6
f 8 3 7
f 8 6 3
f 12 13 14
f 12 11 13
f 4 13 11
f 4 11 1
f 5 14 13
f 5 13 4
f 2 4 1
f 2 5 4
