# Parametric PetalDock simulation geometry; SI units
v -0.0321070184228 0.0076249175733 0.014
v -0.0321070184228 0.0076249175733 0.026549382716
v -0.0320110313554 0.0080183459368 0.014
v -0.0320110313554 0.0080183459368 0.0262763532764
v -0.0317346904224 0.0075364954633 0.0263786997608
v -0.0316398164659 0.0079253614476 0.0261158720689
v -0.0314190459849 0.007461534818 0.0261543526232
v -0.0313251156783 0.0078465330039 0.0259004449899
v -0.0312081391146 0.0074114477162 0.025911796366
v -0.0311340784706 0.007393859465 0.014
v -0.0311340784706 0.007393859465 0.0256481481481
v -0.0311148393347 0.0077938615218 0.0256640690852
v -0.0310410001022 0.0077753657569 0.014
v -0.0310410001022 0.0077753657569 0.025405982906
f 6 3 4
f 6 13 3
f 6 4 2
f 7 1 10
f 5 2 1
f 5 1 7
f 5 6 2
f 12 14 13
f 12 13 6
f 8 12 6
f 8 7 12
f 8 6 5
f 8 5 7
f 9 11 14
f 9 14 12
f 9 12 7
f 9 10 11
f 9 7 10
f 4 1 2
f 4 3 1
f 10 1 3
f 10 3 13
f 14 10 13
f 14 11 10
