# Parametric PetalDock simulation geometry; SI units
v -0.0024533837164 0.0499397728103 0.014
v -0.0024533837164 0.0499397728103 0.0281666666667
v -0.0024496486621 0.0498637440332 0.0284881600858
v -0.0024390121273 0.0496472323942 0.0287949920093
v -0.0024230934281 0.0493231998275 0.0291121077565
v -0.002404316042 0.0489409773541 0.014
v -0.002404316042 0.0489409773541 0.0293888888889
v -0.0018403611471 0.0499661192294 0.014
v -0.0018403611471 0.0499661192294 0.0281666666667
v -0.0018375593641 0.0498900503423 0.0284881600858
v -0.0018295805611 0.0496734244796 0.0287949920093
v -0.0018176394385 0.049349220965 0.0291121077565
v -0.0018035539241 0.0489667968448 0.014
v -0.0018035539241 0.0489667968448 0.0293888888889
f 12 7 14
f 12 13 8
f 12 14 13
f 9 12 8
f 3 2 1
f 3 4 11
f 5 7 12
f 5 4 3
f 5 11 4
f 5 12 11
f 5 6 7
f 5 1 6
f 5 3 1
f 10 9 2
f 10 2 3
f 10 3 11
f 10 11 12
f 10 12 9
f 6 8 13
f 6 1 8
f 14 6 13
f 14 7 6
f 9 8 1
f 9 1 2
