# Parametric PetalDock simulation geometry; SI units
v 0.0026981123973 -0.0439171969676 0.014
v 0.0026981123973 -0.0439171969676 0.032
v 0.0027134425814 -0.0441667264958 0.0319710648148
v 0.0027287727654 -0.0444162560241 0.0318842592593
v 0.0027441029495 -0.0446657855523 0.03175
v 0.0027594331336 -0.0449153150805 0.0316111111111
v 0.0027747633177 -0.0451648446087 0.0314722222222
v 0.0027900935018 -0.045414374137 0.0313333333333
v 0.0028054236858 -0.0456639036652 0.0311944444444
v 0.0028207538699 -0.0459134331934 0.0310555555556
v 0.002836084054 -0.0461629627216 0.0309166666667
v 0.0028514142381 -0.0464124922499 0.0307777777778
v 0.0028667444221 -0.0466620217781 0.0306388888889
v 0.0028820746062 -0.0469115513063 0.0305
v 0.0028974047903 -0.0471610808345 0.0303611111111
v 0.0029127349744 -0.0474106103628 0.0302222222222
v 0.0029280651584 -0.047660139891 0.0300833333333
v 0.0029433953425 -0.0479096694192 0.0299444444444
v 0.0029587255266 -0.0481591989474 0.0298055555556
v 0.0029740557107 -0.0484087284757 0.0296666666667
v 0.0029893858947 -0.0486582580039 0.0295277777778
v 0.0030047160788 -0.0489077875321 0.014
v 0.0030047160788 -0.0489077875321 0.0293888888889
v 0.0032368407984 -0.0438807800939 0.014
v 0.0032368407984 -0.0438807800939 0.032
v 0.0032552319393 -0.044130102708 0.0319710648148
v 0.0032736230802 -0.0443794253222 0.0318842592593
v 0.0032920142211 -0.0446287479364 0.03175
v 0.003310405362 -0.0448780705505 0.0316111111111
v 0.0033287965029 -0.0451273931647 0.0314722222222
v 0.0033471876438 -0.0453767157789 0.0313333333333
v 0.0033655787847 -0.0456260383931 0.0311944444444
v 0.0033839699256 -0.0458753610072 0.0310555555556
v 0.0034023610665 -0.0461246836214 0.0309166666667
v 0.0034207522074 -0.0463740062356 0.0307777777778
v 0.0034391433483 -0.0466233288497 0.0306388888889
v 0.0034575344892 -0.0468726514639 0.0305
v 0.0034759256301 -0.0471219740781 0.0303611111111
v 0.003494316771 -0.0473712966922 0.0302222222222
v 0.0035127079119 -0.0476206193064 0.0300833333333
v 0.0035310990528 -0.0478699419206 0.0299444444444
v 0.0035494901937 -0.0481192645347 0.0298055555556
v 0.0035678813346 -0.0483685871489 0.0296666666667
v 0.0035862724755 -0.0486179097631 0.0295277777778
v 0.0036046636164 -0.0488672323773 0.014
v 0.0036046636164 -0.0488672323773 0.0293888888889
f 4 2 1
f 4 1 22
f 42 45 24
f 42 46 45
f 21 22 23
f 21 4 22
f 20 23 46
f 20 21 23
f 26 24 25
f 10 21 20
f 29 42 24
f 29 24 26
f 3 25 2
f 3 26 25
f 3 2 4
f 3 4 26
f 12 10 20
f 27 26 4
f 27 29 26
f 35 10 12
f 35 20 46
f 35 12 20
f 33 42 29
f 28 5 10
f 28 35 33
f 28 10 35
f 28 33 29
f 28 29 27
f 28 4 5
f 28 27 4
f 24 22 1
f 24 45 22
f 46 23 22
f 46 22 45
f 25 24 1
f 25 1 2
f 5 4 21
f 5 21 10
f 33 35 46
f 33 46 42
