# Parametric PetalDock simulation geometry; SI units
v 0.0247363345076 0.0203005850932 0.014
v 0.0247363345076 0.0203005850932 0.0169264738111
v 0.0247951764247 0.0203488754066 0.0169898030699
v 0.0249627440275 0.0204863945842 0.0170097715539
v 0.0249835913143 0.0199955036206 0.014
v 0.0249835913143 0.0199955036206 0.0170428994083
v 0.0250430213971 0.0200430682169 0.0171089027241
v 0.0252122639542 0.0201785207273 0.0171318425314
v 0.0252135266674 0.0206922065779 0.0169128593498
v 0.0254655533405 0.020381239735 0.0170392188171
v 0.025509344961 0.0209349783774 0.014
v 0.025509344961 0.0209349783774 0.0167161224341
v 0.0257643285429 0.0206203631087 0.014
v 0.0257643285429 0.0206203631087 0.0168473865878
f 3 11 1
f 3 8 4
f 10 4 8
f 10 13 14
f 10 5 13
f 10 8 5
f 12 11 3
f 2 3 1
f 7 8 3
f 7 6 5
f 7 5 8
f 7 2 6
f 7 3 2
f 9 3 4
f 9 12 3
f 9 4 10
f 9 14 12
f 9 10 14
f 5 11 13
f 5 1 11
f 12 13 11
f 12 14 13
f 2 1 5
f 2 5 6
