# Parametric PetalDock simulation geometry; SI units
v -0.0437881279736 0.0043127541745 0.014
v -0.0437881279736 0.0043127541745 0.0318520710059
v -0.0437319066801 0.0048497771209 0.014
v -0.0437319066801 0.0048497771209 0.0316671597633
v -0.0435393317919 0.0042882498894 0.0318520710059
v -0.0434834299376 0.0048222215691 0.0316671597633
v -0.0432905356102 0.0042637456043 0.0318520710059
v -0.0432349531951 0.0047946660173 0.0316671597633
v -0.0430417394286 0.0042392413193 0.0318520710059
v -0.0429864764526 0.0047671104655 0.0316671597633
v -0.0427929432469 0.0042147370342 0.0318520710059
v -0.0427379997101 0.0047395549136 0.0316671597633
v -0.0425441470652 0.0041902327491 0.0318520710059
v -0.0424895229676 0.0047119993618 0.0316671597633
v -0.0422953508836 0.004165728464 0.0318520710059
v -0.0422410462251 0.00468444381 0.0316671597633
v -0.0420465547019 0.0041412241789 0.0318520710059
v -0.0419925694826 0.0046568882582 0.0316671597633
v -0.0417977585202 0.0041167198938 0.0318520710059
v -0.0417440927401 0.0046293327063 0.0316671597633
v -0.0415489623386 0.0040922156088 0.0318520710059
v -0.0414956159976 0.0046017771545 0.0316671597633
v -0.0413001661569 0.0040677113237 0.0318520710059
v -0.0412471392551 0.0045742216027 0.0316671597633
v -0.0410513699752 0.0040432070386 0.0318520710059
v -0.0409986625126 0.0045466660509 0.0316671597633
v -0.0408025737936 0.0040187027535 0.0318520710059
v -0.0407501857701 0.004519110499 0.0316671597633
v -0.0405537776119 0.0039941984684 0.0318520710059
v -0.0405017090276 0.0044915549472 0.0316671597633
v -0.0403049814302 0.0039696941833 0.0318520710059
v -0.0402532322851 0.0044639993954 0.0316671597633
v -0.0400561852486 0.0039451898983 0.0318520710059
v -0.0400047555426 0.0044364438436 0.0316671597633
v -0.0398073890669 0.0039206856132 0.0318520710059
v -0.0397562788001 0.0044088882918 0.0316671597633
v -0.0395585928852 0.0038961813281 0.0318520710059
v -0.0395078020576 0.0043813327399 0.0316671597633
v -0.0393097967036 0.003871677043 0.0318520710059
v -0.0392593253151 0.0043537771881 0.0316671597633
v -0.0390610005219 0.0038471727579 0.0318520710059
v -0.0390108485726 0.0043262216363 0.0316671597633
v -0.0388122043402 0.0038226684729 0.0318520710059
v -0.0387623718301 0.0042986660845 0.0316671597633
v -0.0385634081585 0.0037981641878 0.0318520710059
v -0.0385138950876 0.0042711105326 0.0316671597633
v -0.0383146119769 0.0037736599027 0.0318520710059
v -0.0382654183451 0.0042435549808 0.0316671597633
v -0.0380658157952 0.0037491556176 0.0318520710059
v -0.0380169416026 0.004215999429 0.0316671597633
v -0.0378170196135 0.0037246513325 0.014
v -0.0378170196135 0.0037246513325 0.0318520710059
v -0.0377684648601 0.0041884438772 0.014
v -0.0377684648601 0.0041884438772 0.0316671597633
f 10 53 3
f 4 10 3
f 31 1 51
f 7 2 1
f 7 1 31
f 52 10 4
f 9 4 2
f 41 31 51
f 41 51 52
f 43 4 9
f 36 52 54
f 36 10 52
f 36 54 53
f 36 53 10
f 45 52 4
f 45 4 43
f 51 3 53
f 51 1 3
f 4 3 1
f 4 1 2
f 54 51 53
f 54 52 51
f 45 7 31
f 45 2 7
f 45 9 2
f 45 31 41
f 45 43 9
f 45 41 52
