# Parametric PetalDock simulation geometry; SI units
v 0.0327518246418 -0.0040395522816 0.014
v 0.0327518246418 -0.0040395522816 0.028968843597
v 0.0327989300101 -0.0036373328407 0.014
v 0.0327989300101 -0.0036373328407 0.0291526134122
v 0.0329999445254 -0.0040701549504 0.0290986010665
v 0.0330474067526 -0.0036648883925 0.0292863658777
v 0.0332480644091 -0.0041007576192 0.0292283585361
v 0.0332958834951 -0.0036924439443 0.0294201183432
v 0.0334961842927 -0.004131360288 0.0293581160056
v 0.0335443602376 -0.0037199994962 0.0295538708087
v 0.0337443041764 -0.0041619629568 0.0294878734751
v 0.0337928369801 -0.003747555048 0.0296876232742
v 0.03399242406 -0.0041925656256 0.0296176309446
v 0.0340413137226 -0.0037751105998 0.0298213757396
v 0.0342405439437 -0.0042231682944 0.0297473884141
v 0.0342897904651 -0.0038026661516 0.0299551282051
v 0.0344886638273 -0.0042537709632 0.0298771458836
v 0.0345382672076 -0.0038302217035 0.0300888806706
v 0.034736783711 -0.004284373632 0.0300069033531
v 0.0347867439501 -0.0038577772553 0.0302226331361
v 0.0349849035946 -0.0043149763008 0.0301366608226
v 0.0350352206926 -0.0038853328071 0.0303563856016
v 0.0352330234783 -0.0043455789696 0.0302664182921
v 0.0352836974351 -0.0039128883589 0.0304901380671
v 0.0354811433619 -0.0043761816384 0.0303961757616
v 0.0355321741776 -0.0039404439108 0.0306238905325
v 0.0357292632456 -0.0044067843072 0.0305259332311
v 0.0357806509201 -0.0039679994626 0.030757642998
v 0.0359773831292 -0.004437386976 0.0306556907006
v 0.0360291276626 -0.0039955550144 0.0308913954635
v 0.0362255030129 -0.0044679896448 0.0307854481701
v 0.0362776044051 -0.0040231105662 0.031025147929
v 0.0364736228965 -0.0044985923136 0.0309152056396
v 0.0365260811476 -0.0040506661181 0.0311589003945
v 0.0367217427802 -0.0045291949824 0.0310449631091
v 0.0367745578901 -0.0040782216699 0.03129265286
v 0.0369698626638 -0.0045597976512 0.0311747205786
v 0.0370230346326 -0.0041057772217 0.0314264053254
v 0.0372179825475 -0.00459040032 0.0313001527991
v 0.0372715113751 -0.0041333327735 0.0315556993754
v 0.0374661024311 -0.0046210029888 0.0313812512175
v 0.0375199881176 -0.0041608883253 0.0316392946663
v 0.0377142223148 -0.0046516056576 0.014
v 0.0377142223148 -0.0046516056576 0.0314082840237
v 0.0377684648601 -0.0041884438772 0.014
v 0.0377684648601 -0.0041884438772 0.0316671597633
f 5 1 43
f 42 46 45
f 42 45 3
f 42 44 46
f 41 43 44
f 41 44 42
f 2 1 5
f 39 37 41
f 39 41 42
f 38 9 37
f 8 3 4
f 8 42 3
f 7 38 2
f 7 9 38
f 40 39 42
f 40 37 39
f 40 38 37
f 32 38 40
f 32 40 42
f 10 4 2
f 10 2 12
f 36 12 2
f 36 2 38
f 36 38 32
f 24 8 12
f 24 36 32
f 24 12 36
f 44 45 46
f 44 43 45
f 3 45 43
f 3 43 1
f 2 3 1
f 2 4 3
f 9 43 41
f 9 5 43
f 9 41 37
f 7 5 9
f 7 2 5
f 10 12 8
f 10 8 4
f 24 32 42
f 24 42 8
