# Parametric PetalDock simulation geometry; SI units
v -0.0439701849219 -0.0016195178094 0.014
v -0.0439701849219 -0.0016195178094 0.032
v -0.043947000073 -0.0021589776704 0.014
v -0.043947000073 -0.0021589776704 0.032
v -0.0437203543257 -0.0016103160037 0.032
v -0.043697301209 -0.0021467107518 0.032
v -0.0434705237296 -0.0016011141979 0.032
v -0.0434476023449 -0.0021344438332 0.032
v -0.0432206931334 -0.0015919123922 0.032
v -0.0431979034809 -0.0021221769147 0.032
v -0.0429708625373 -0.0015827105865 0.032
v -0.0429482046168 -0.0021099099961 0.032
v -0.0427210319412 -0.0015735087807 0.032
v -0.0426985057528 -0.0020976430775 0.032
v -0.042471201345 -0.001564306975 0.032
v -0.0424488068887 -0.0020853761589 0.032
v -0.0422213707489 -0.0015551051693 0.032
v -0.0421991080247 -0.0020731092403 0.032
v -0.0419715401527 -0.0015459033635 0.032
v -0.0419494091606 -0.0020608423218 0.032
v -0.0417217095566 -0.0015367015578 0.032
v -0.0416997102966 -0.0020485754032 0.032
v -0.0414718789604 -0.0015274997521 0.032
v -0.0414500114325 -0.0020363084846 0.032
v -0.0412220483643 -0.0015182979463 0.032
v -0.0412003125685 -0.002024041566 0.032
v -0.0409722177681 -0.0015090961406 0.032
v -0.0409506137044 -0.0020117746474 0.032
v -0.040722387172 -0.0014998943349 0.032
v -0.0407009148404 -0.0019995077288 0.032
v -0.0404725565758 -0.0014906925291 0.032
v -0.0404512159763 -0.0019872408103 0.032
v -0.0402227259797 -0.0014814907234 0.032
v -0.0402015171123 -0.0019749738917 0.032
v -0.0399728953835 -0.0014722889177 0.032
v -0.0399518182482 -0.0019627069731 0.032
v -0.0397230647874 -0.0014630871119 0.032
v -0.0397021193842 -0.0019504400545 0.032
v -0.0394732341912 -0.0014538853062 0.032
v -0.0394524205201 -0.0019381731359 0.032
v -0.0392234035951 -0.0014446835004 0.032
v -0.0392027216561 -0.0019259062174 0.032
v -0.0389735729989 -0.0014354816947 0.032
v -0.038953022792 -0.0019136392988 0.032
v -0.0387237424028 -0.001426279889 0.032
v -0.038703323928 -0.0019013723802 0.032
v -0.0384739118067 -0.0014170780832 0.032
v -0.0384536250639 -0.0018891054616 0.032
v -0.0382240812105 -0.0014078762775 0.032
v -0.0382039261998 -0.001876838543 0.032
v -0.0379742506144 -0.0013986744718 0.014
v -0.0379742506144 -0.0013986744718 0.032
v -0.0379542273358 -0.0018645716244 0.014
v -0.0379542273358 -0.0018645716244 0.032
f 42 3 53
f 47 51 1
f 10 4 3
f 7 1 2
f 20 3 42
f 20 10 3
f 41 47 1
f 41 1 7
f 52 51 47
f 50 53 54
f 44 42 53
f 44 53 50
f 51 53 3
f 51 3 1
f 4 1 3
f 4 2 1
f 52 53 51
f 52 54 53
f 44 2 4
f 44 52 47
f 44 7 2
f 44 4 10
f 44 20 42
f 44 47 41
f 44 10 20
f 44 41 7
f 44 54 52
f 44 50 54
