# Parametric PetalDock simulation geometry; SI units
v -0.032351497338 0.0199344079418 0.014
v -0.032351497338 0.0199344079418 0.018
v -0.0321386585397 0.0198032605211 0.0180160751029
v -0.0321044354795 0.0203299095557 0.014
v -0.0321044354795 0.0203299095557 0.0176153846154
v -0.0319258197414 0.0196721131004 0.0180643004115
v -0.0318932220882 0.0201961601507 0.0176326962646
v -0.0317129809432 0.0195409656798 0.0181388888889
v -0.0316820086969 0.0200624107458 0.0176846312124
v -0.0315001421449 0.0194098182591 0.0182160493827
v -0.0314707953056 0.0199286613408 0.017764957265
v -0.0312873033466 0.0192786708384 0.0182932098765
v -0.0312595819142 0.0197949119358 0.0178480531814
v -0.0310744645483 0.0191475234178 0.0183703703704
v -0.0310483685229 0.0196611625309 0.0179311490978
v -0.0308616257501 0.0190163759971 0.0184475308642
v -0.0308371551316 0.0195274131259 0.0180142450142
v -0.0306487869518 0.0188852285764 0.018524691358
v -0.0306259417403 0.0193936637209 0.0180973409307
v -0.0304359481535 0.0187540811558 0.0186018518519
v -0.030414728349 0.0192599143159 0.0181804368471
v -0.0302231093552 0.0186229337351 0.0186790123457
v -0.0302035149577 0.019126164911 0.0182635327635
v -0.030010270557 0.0184917863144 0.0187561728395
v -0.0299923015664 0.018992415506 0.01834662868
v -0.0297974317587 0.0183606388937 0.0188333333333
v -0.0297810881751 0.018858666101 0.0184297245964
v -0.0295845929604 0.0182294914731 0.0189104938272
v -0.0295698747837 0.018724916696 0.0185128205128
v -0.0293717541621 0.0180983440524 0.018987654321
v -0.0293586613924 0.0185911672911 0.0185959164292
v -0.0291589153639 0.0179671966317 0.0190648148148
v -0.0291474480011 0.0184574178861 0.0186790123457
v -0.0289460765656 0.0178360492111 0.0191419753086
v -0.0289362346098 0.0183236684811 0.0187621082621
v -0.0287332377673 0.0177049017904 0.0192191358025
v -0.0287250212185 0.0181899190762 0.0188452041785
v -0.028520398969 0.0175737543697 0.0192962962963
v -0.0285138078272 0.0180561696712 0.018928300095
v -0.0283075601708 0.0174426069491 0.0193734567901
v -0.0283025944359 0.0179224202662 0.0190113960114
v -0.0280947213725 0.0173114595284 0.014
v -0.0280947213725 0.0173114595284 0.019450617284
v -0.0280913810446 0.0177886708612 0.0190944919278
v -0.0278801676532 0.0176549214563 0.014
v -0.0278801676532 0.0176549214563 0.0191775878443
f 46 2 43
f 32 1 42
f 32 43 2
f 32 42 43
f 5 2 46
f 6 2 1
f 15 45 4
f 15 46 45
f 15 4 5
f 15 5 46
f 26 1 32
f 26 6 1
f 26 32 2
f 26 2 6
f 42 4 45
f 42 1 4
f 46 42 45
f 46 43 42
f 5 4 1
f 5 1 2
