# Parametric PetalDock simulation geometry; SI units
v 0.0251910344655 0.04202870189 0.014
v 0.0251910344655 0.04202870189 0.0197236467236
v 0.0253877730682 0.0423569404185 0.0198080074636
v 0.0255545600021 0.0426352076066 0.0198066617913
v 0.0256660034684 0.0428211397972 0.0197186143472
v 0.0257048944512 0.0417164044622 0.014
v 0.0257048944512 0.0417164044622 0.019450617284
v 0.0257051372097 0.0428864305 0.014
v 0.0257051372097 0.0428864305 0.019594017094
v 0.0259056462316 0.0420422039896 0.0195451797717
v 0.0260758353732 0.0423184034924 0.019552754158
v 0.026189552122 0.0425029541 0.0194708870664
v 0.0262294841339 0.0425677596553 0.014
v 0.0262294841339 0.0425677596553 0.0193518518519
f 4 8 1
f 2 4 1
f 2 3 4
f 11 4 3
f 10 11 3
f 10 2 7
f 10 3 2
f 10 7 6
f 10 6 13
f 10 13 11
f 12 4 11
f 5 4 12
f 5 8 4
f 5 9 8
f 14 11 13
f 14 12 11
f 14 9 5
f 14 5 12
f 6 8 13
f 6 1 8
f 2 1 6
f 2 6 7
f 14 13 8
f 14 8 9
