# Parametric PetalDock simulation geometry; SI units
v -0.0302755520702 -0.0397918452304 0.014
v -0.0302755520702 -0.0397918452304 0.0174154613193
v -0.0302294602867 -0.0397312657532 0.0174900216176
v -0.0300982019923 -0.0395587499978 0.0175224696596
v -0.0299017600725 -0.0393005619241 0.0174435691123
v -0.0297849652246 -0.040160376574 0.014
v -0.0297849652246 -0.040160376574 0.0176566951567
v -0.0297396203151 -0.0400992360412 0.0177367961011
v -0.0296700410288 -0.0389960083258 0.014
v -0.0296700410288 -0.0389960083258 0.0172674318796
v -0.0296104889379 -0.0399251225348 0.017775400725
v -0.0294172301746 -0.0396645432576 0.0177053859285
v -0.0291892659201 -0.0393571690426 0.014
v -0.0291892659201 -0.0393571690426 0.0175394112061
f 14 11 7
f 3 9 1
f 3 10 9
f 12 11 14
f 8 7 11
f 8 11 3
f 2 3 1
f 2 7 8
f 2 8 3
f 5 14 10
f 5 12 14
f 5 10 3
f 4 3 11
f 4 5 3
f 4 11 12
f 4 12 5
f 9 13 6
f 9 6 1
f 14 13 9
f 14 9 10
f 14 6 13
f 14 7 6
f 2 1 6
f 2 6 7
