# Parametric PetalDock simulation geometry; SI units
v 0.0315936453811 -0.0050834605867 0.014
v 0.0315936453811 -0.0050834605867 0.0271011396011
v 0.0316536483189 -0.0046953751826 0.014
v 0.0316536483189 -0.0046953751826 0.0273433048433
v 0.0316687992266 -0.0050955529428 0.0273981600505
v 0.0317289448972 -0.0047065443749 0.0276458873312
v 0.0318828192714 -0.0051299890596 0.0276777984229
v 0.0319433714109 -0.0047383515435 0.0279317060562
v 0.0322031229037 -0.0051815263505 0.0279556659122
v 0.0322642833668 -0.0047859543354 0.028218493604
v 0.0325809467992 -0.00524231873 0.014
v 0.0325809467992 -0.00524231873 0.0281875593542
v 0.0326428248288 -0.004842105657 0.014
v 0.0326428248288 -0.004842105657 0.0284605887939
f 9 11 12
f 9 1 11
f 9 12 14
f 8 14 13
f 8 13 3
f 10 9 14
f 10 14 8
f 4 8 3
f 2 1 9
f 5 2 9
f 7 5 9
f 7 8 5
f 7 9 10
f 7 10 8
f 6 4 2
f 6 2 5
f 6 8 4
f 6 5 8
f 12 13 14
f 12 11 13
f 3 13 11
f 3 11 1
f 2 3 1
f 2 4 3
