# Parametric PetalDock simulation geometry; SI units
v 0.0166167666629 -0.028511104252 0.014
v 0.0166167666629 -0.028511104252 0.0199966761633
v 0.0167426512589 -0.028727097466 0.0199313865147
v 0.0168685358548 -0.0289430906801 0.0198660968661
v 0.0169653905584 -0.02830504413 0.014
v 0.0169653905584 -0.02830504413 0.0197236467236
v 0.0169944204507 -0.0291590838941 0.0198008072175
v 0.0170939162444 -0.0285194762825 0.0196524216524
v 0.0171203050467 -0.0293750771081 0.0197355175689
v 0.0172224419305 -0.028733908435 0.0195811965812
v 0.0172461896426 -0.0295910703222 0.0196702279202
v 0.0173509676165 -0.0289483405875 0.01950997151
v 0.0173720742385 -0.0298070635362 0.0196049382716
v 0.0174794933026 -0.02916277274 0.0194387464387
v 0.0174979588345 -0.0300230567502 0.019539648623
v 0.0176080189886 -0.0293772048925 0.0193675213675
v 0.0176238434304 -0.0302390499643 0.0194743589744
v 0.0177365446747 -0.029591637045 0.0192962962963
v 0.0177497280263 -0.0304550431783 0.0194090693257
v 0.0178650703607 -0.0298060691975 0.0192250712251
v 0.0178756126223 -0.0306710363923 0.0193437796771
v 0.0179935960468 -0.03002050135 0.0191538461538
v 0.0180014972182 -0.0308870296063 0.0192784900285
v 0.0181221217328 -0.0302349335025 0.0190826210826
v 0.0181273818141 -0.0311030228204 0.0192132003799
v 0.0182506474189 -0.030449365655 0.0190113960114
v 0.0182532664101 -0.0313190160344 0.0191479107312
v 0.018379151006 -0.0315350092484 0.0190826210826
v 0.0183791731049 -0.0306637978075 0.0189401709402
v 0.0185050356019 -0.0317510024625 0.019017331434
v 0.018507698791 -0.03087822996 0.0188689458689
v 0.0186309201979 -0.0319669956765 0.0189520417854
v 0.018636224477 -0.0310926621125 0.0187977207977
v 0.0187568047938 -0.0321829888905 0.0188867521368
v 0.0187647501631 -0.031307094265 0.0187264957265
v 0.0188826893897 -0.0323989821046 0.0188236388097
v 0.0188932758491 -0.0315215264175 0.0186552706553
v 0.0190085739856 -0.0326149753186 0.0187828327794
v 0.0190218015351 -0.03173595857 0.018584045584
v 0.0191344585816 -0.0328309685326 0.014
v 0.0191344585816 -0.0328309685326 0.0187692307692
v 0.0191503272212 -0.0319503907225 0.0185128205128
v 0.0192788529072 -0.032164822875 0.0184439696106
v 0.0194073785933 -0.0323792550275 0.0183994539411
v 0.0195359042793 -0.03259368718 0.014
v 0.0195359042793 -0.03259368718 0.0183846153846
f 38 2 1
f 38 1 40
f 38 41 2
f 38 40 41
f 35 45 5
f 44 46 45
f 44 45 35
f 44 35 46
f 6 35 5
f 6 46 35
f 6 41 46
f 6 2 41
f 5 40 1
f 5 45 40
f 46 41 40
f 46 40 45
f 6 5 1
f 6 1 2
