# Parametric PetalDock simulation geometry; SI units
v 0.034220436221 0.0350708104389 0.014
v 0.034220436221 0.0350708104389 0.0166111111111
v 0.0344876932412 0.0353447087678 0.016811771776
v 0.0346482322781 0.0346482322781 0.014
v 0.0346482322781 0.0346482322781 0.0166111111111
v 0.0347142628028 0.035576908559 0.0169121147719
v 0.0348656517439 0.0357320594992 0.0168945233466
v 0.0349188124704 0.0357865412642 0.014
v 0.0349188124704 0.0357865412642 0.0168333333333
v 0.0349188303282 0.0349188303282 0.016811771776
v 0.0351482322781 0.0351482322781 0.0169121147719
v 0.0353015137606 0.0353015137606 0.0168945233466
v 0.0353553390593 0.0353553390593 0.014
v 0.0353553390593 0.0353553390593 0.0168333333333
f 3 2 5
f 3 6 9
f 3 8 1
f 3 1 2
f 3 9 8
f 11 12 6
f 11 6 3
f 7 9 6
f 7 6 12
f 14 9 7
f 14 7 12
f 10 3 5
f 10 11 3
f 4 8 13
f 4 1 8
f 2 1 4
f 2 4 5
f 14 13 8
f 14 8 9
f 10 4 13
f 10 5 4
f 10 13 14
f 10 12 11
f 10 14 12
