# Parametric PetalDock simulation geometry; SI units
v 0.0091911497497 -0.0316942071407 0.014
v 0.0091911497497 -0.0316942071407 0.0254572649573
v 0.0092607796721 -0.0319343147706 0.0255106837607
v 0.0093304095944 -0.0321744224004 0.0255641025641
v 0.0094000395167 -0.0324145300303 0.0256175213675
v 0.0094696694391 -0.0326546376601 0.0256709401709
v 0.0095392993614 -0.03289474529 0.0257243589744
v 0.0095793943494 -0.0315790310792 0.014
v 0.0095793943494 -0.0315790310792 0.0251842355176
v 0.0096089292838 -0.0331348529198 0.0257777777778
v 0.0096519655187 -0.0318182661631 0.0252317188984
v 0.0096785592061 -0.0333749605497 0.0258311965812
v 0.009724536688 -0.032057501247 0.0252792022792
v 0.0097481891285 -0.0336150681795 0.0258846153846
v 0.0097971078573 -0.032296736331 0.02532668566
v 0.0098178190508 -0.0338551758094 0.025938034188
v 0.0098696790267 -0.0325359714149 0.0253741690408
v 0.0098874489732 -0.0340952834393 0.0259914529915
v 0.009942250196 -0.0327752064988 0.0254216524217
v 0.0099570788955 -0.0343353910691 0.0260448717949
v 0.0100148213653 -0.0330144415828 0.0254691358025
v 0.0100267088179 -0.034575498699 0.0260982905983
v 0.0100873925346 -0.0332536766667 0.0255166191833
v 0.0100963387402 -0.0348156063288 0.0261517094017
v 0.0101599637039 -0.0334929117506 0.0255641025641
v 0.0101659686626 -0.0350557139587 0.0262051282051
v 0.0102325348732 -0.0337321468346 0.0256115859449
v 0.0102355985849 -0.0352958215885 0.0262585470085
v 0.0103051060425 -0.0339713819185 0.0256590693257
v 0.0103052285072 -0.0355359292184 0.026311965812
v 0.0103748584296 -0.0357760368482 0.0263653846154
v 0.0103776772118 -0.0342106170024 0.0257065527066
v 0.0104444883519 -0.0360161444781 0.026417022792
v 0.0104502483812 -0.0344498520864 0.0257540360874
v 0.0105141182743 -0.0362562521079 0.0264504095442
v 0.0105228195505 -0.0346890871703 0.0258015194682
v 0.0105837481966 -0.0364963597378 0.014
v 0.0105837481966 -0.0364963597378 0.0264615384615
v 0.0105953907198 -0.0349283222542 0.025849002849
v 0.0106679618891 -0.0351675573382 0.0258964862298
v 0.0107405330584 -0.0354067924221 0.0259439696106
v 0.0108131042277 -0.035646027506 0.0259914529915
v 0.010885675397 -0.03588526259 0.0260373535929
v 0.0109582465664 -0.0361244976739 0.0260670307059
v 0.0110308177357 -0.0363637327578 0.014
v 0.0110308177357 -0.0363637327578 0.0260769230769
f 31 33 9
f 35 38 46
f 35 33 38
f 43 33 35
f 18 31 9
f 30 33 31
f 30 31 18
f 10 9 2
f 10 18 9
f 10 2 18
f 5 2 1
f 5 1 37
f 5 37 30
f 44 35 46
f 44 43 35
f 44 46 45
f 17 45 8
f 17 44 45
f 17 34 44
f 17 8 9
f 7 2 5
f 7 5 30
f 7 18 2
f 7 30 18
f 42 43 44
f 42 33 43
f 19 17 9
f 19 34 17
f 19 9 33
f 19 33 42
f 19 42 34
f 39 44 34
f 39 34 42
f 39 42 44
f 8 45 37
f 8 37 1
f 2 8 1
f 2 9 8
f 46 37 45
f 46 38 37
f 30 37 38
f 30 38 33
