# Parametric PetalDock simulation geometry; SI units
v -0.0064379806265 -0.0323659142533 0.014
v -0.0064379806265 -0.0323659142533 0.0273684710351
v -0.0063633227925 -0.0319905839758 0.0271671828365
v -0.0063000309369 -0.0316723943306 0.026916075523
v -0.006257740671 -0.031459786807 0.0266549782082
v -0.0062428903045 -0.0313851289729 0.014
v -0.0062428903045 -0.0313851289729 0.0263746438746
v -0.0060403163025 -0.0324424810852 0.014
v -0.0060403163025 -0.0324424810852 0.0276415004748
v -0.0059702699699 -0.0320662629029 0.0274300105284
v -0.0059108875565 -0.0317473205284 0.0271699831563
v -0.0058712094964 -0.0315342100471 0.026902705489
v -0.0058572764146 -0.0314593755978 0.014
v -0.0058572764146 -0.0314593755978 0.0266168091168
f 4 7 6
f 3 2 9
f 3 1 2
f 3 6 1
f 3 4 6
f 10 9 8
f 10 3 9
f 10 4 3
f 12 14 7
f 12 13 14
f 12 8 13
f 12 10 8
f 5 7 4
f 5 12 7
f 11 4 10
f 11 10 12
f 11 5 4
f 11 12 5
f 6 13 8
f 6 8 1
f 2 1 8
f 2 8 9
f 14 13 6
f 14 6 7
