# Parametric PetalDock simulation geometry; SI units
v 0.0217792319295 0.0234449366935 0.014
v 0.0217792319295 0.0234449366935 0.0168333333333
v 0.0218310395956 0.0235007066792 0.0168945233466
v 0.0219785753464 0.0236595261614 0.0169121147719
v 0.0220652974316 0.0231759066544 0.014
v 0.0220652974316 0.0231759066544 0.0168333333333
v 0.0221177855802 0.023231036681 0.0168945233466
v 0.0221993782013 0.0238972163138 0.016811771776
v 0.0222672591812 0.0233880337138 0.0169121147719
v 0.0224598329272 0.0241775909652 0.014
v 0.0224598329272 0.0241775909652 0.0166111111111
v 0.0224909622339 0.0236229963778 0.016811771776
v 0.0227548379763 0.0239001537374 0.014
v 0.0227548379763 0.0239001537374 0.0166111111111
f 8 10 1
f 8 11 10
f 14 11 8
f 3 2 6
f 3 1 2
f 3 8 1
f 3 4 8
f 9 8 4
f 12 6 14
f 12 9 6
f 12 14 8
f 12 8 9
f 7 3 6
f 7 6 9
f 7 4 3
f 7 9 4
f 5 10 13
f 5 1 10
f 2 1 5
f 2 5 6
f 14 13 10
f 14 10 11
f 14 5 13
f 14 6 5
