# Parametric PetalDock simulation geometry; SI units
v 0.032962001359 0.029146294214 0.014
v 0.0331492854577 0.0293118981584 0.0140289351852
v 0.0333171892463 0.02873960509 0.014
v 0.0333365695563 0.0294775021028 0.0141157407407
v 0.0335064914579 0.0289028983007 0.0140289351852
v 0.0335238536549 0.0296431060472 0.01425
v 0.0336957936695 0.0290661915114 0.0141157407407
v 0.0337111377536 0.0298087099916 0.0143888888889
v 0.0338850958812 0.0292294847222 0.01425
v 0.0338984218522 0.029974313936 0.0145277777778
v 0.0340743980928 0.0293927779329 0.0143888888889
v 0.0340857059508 0.0301399178804 0.0146666666667
v 0.0342637003044 0.0295560711437 0.0145277777778
v 0.0342729900494 0.0303055218248 0.0148055555556
v 0.034453002516 0.0297193643544 0.0146666666667
v 0.0344602741481 0.0304711257691 0.0149444444444
v 0.0346423047277 0.0298826575651 0.0148055555556
v 0.0346475582467 0.0306367297135 0.0150833333333
v 0.0348316069393 0.0300459507759 0.0149444444444
v 0.0348348423453 0.0308023336579 0.0152222222222
v 0.0350209091509 0.0302092439866 0.0150833333333
v 0.035022126444 0.0309679376023 0.0153611111111
v 0.0352094105426 0.0311335415467 0.0155
v 0.0352102113626 0.0303725371974 0.0152222222222
v 0.0353966946412 0.0312991454911 0.0156388888889
v 0.0353995135742 0.0305358304081 0.0153611111111
v 0.0355839787399 0.0314647494355 0.0157777777778
v 0.0355888157858 0.0306991236188 0.0155
v 0.0357712628385 0.0316303533799 0.0159166666667
v 0.0357781179974 0.0308624168296 0.0156388888889
v 0.0359585469371 0.0317959573243 0.0160555555556
v 0.0359674202091 0.0310257100403 0.0157777777778
v 0.0361458310358 0.0319615612687 0.0161944444444
v 0.0361567224207 0.031189003251 0.0159166666667
v 0.0363331151344 0.0321271652131 0.0163333333333
v 0.0363460246323 0.0313522964618 0.0160555555556
v 0.036520399233 0.0322927691575 0.0164722222222
v 0.0365353268439 0.0315155896725 0.0161944444444
v 0.0367076833316 0.0324583731019 0.014
v 0.0367076833316 0.0324583731019 0.0166111111111
v 0.0367246290556 0.0316788828833 0.0163333333333
v 0.0369139312672 0.031842176094 0.0164722222222
v 0.0371032334788 0.0320054693047 0.014
v 0.0371032334788 0.0320054693047 0.0166111111111
f 44 40 1
f 14 40 39
f 14 39 1
f 14 1 40
f 3 44 1
f 7 43 17
f 7 17 3
f 34 44 3
f 34 3 17
f 34 43 44
f 34 17 43
f 5 3 43
f 5 43 7
f 5 7 3
f 44 39 40
f 44 43 39
f 3 39 43
f 3 1 39
