# Parametric PetalDock simulation geometry; SI units
v 0.0015701655785 0.0319614545986 0.014
v 0.0015701655785 0.0319614545986 0.0281666666667
v 0.0015739006328 0.0320374833756 0.0284881600858
v 0.0015845371676 0.0322539950147 0.0287949920093
v 0.0016004558668 0.0325780275814 0.0291121077565
v 0.0016192332528 0.0329602500548 0.014
v 0.0016192332528 0.0329602500548 0.0293888888889
v 0.0019622635617 0.0319397796128 0.014
v 0.0019622635617 0.0319397796128 0.0281666666667
v 0.0019669313248 0.0320157568302 0.0284881600858
v 0.0019802239895 0.0322321216396 0.0287949920093
v 0.0020001178681 0.0325559344604 0.0291121077565
v 0.002023584298 0.0329378977257 0.014
v 0.002023584298 0.0329378977257 0.0293888888889
f 3 2 9
f 3 6 1
f 3 7 6
f 3 1 2
f 5 14 7
f 5 7 3
f 5 3 4
f 11 4 3
f 11 5 4
f 10 9 14
f 10 14 11
f 10 3 9
f 10 11 3
f 12 14 5
f 12 11 14
f 12 5 11
f 8 6 13
f 8 1 6
f 2 1 8
f 2 8 9
f 14 13 6
f 14 6 7
f 14 8 13
f 14 9 8
