# Parametric PetalDock simulation geometry; SI units
v -0.0055757580293 -0.0375887073787 0.014
v -0.0055757580293 -0.0375887073787 0.0306923076923
v -0.0055390754107 -0.0373414132512 0.0306675767648
v -0.0055023927921 -0.0370941191237 0.0305933839823
v -0.0054657101735 -0.0368468249962 0.0304786324786
v -0.0054290275548 -0.0365995308687 0.0303599240266
v -0.0053923449362 -0.0363522367412 0.0302412155745
v -0.0053556623176 -0.0361049426137 0.0301225071225
v -0.005318979699 -0.0358576484862 0.0300037986705
v -0.0052822970804 -0.0356103543587 0.0298850902184
v -0.0052456144618 -0.0353630602312 0.0297663817664
v -0.0052089318432 -0.0351157661037 0.0296476733143
v -0.0051722492246 -0.0348684719763 0.0295289648623
v -0.0051355666059 -0.0346211778488 0.0294102564103
v -0.0051140669233 -0.0376543001463 0.014
v -0.0051140669233 -0.0376543001463 0.031075443787
v -0.0050988839873 -0.0343738837213 0.0292915479582
v -0.0050804217461 -0.0374065744874 0.031049481069
v -0.0050622013687 -0.0341265895938 0.0291728395062
v -0.005046776569 -0.0371588488285 0.0309715929152
v -0.0050255187501 -0.0338792954663 0.0290541310541
v -0.0050131313919 -0.0369111231697 0.030851125904
v -0.0049888361315 -0.0336320013388 0.0289354226021
v -0.0049794862148 -0.0366633975108 0.0307265048579
v -0.0049521535129 -0.0333847072113 0.02881671415
v -0.0049458410376 -0.036415671852 0.0306018838118
v -0.0049154708943 -0.0331374130838 0.028698005698
v -0.0049121958605 -0.0361679461931 0.0304772627657
v -0.0048787882756 -0.0328901189563 0.028579297246
v -0.0048785506834 -0.0359202205343 0.0303526417196
v -0.0048449055063 -0.0356724948754 0.0302280206735
v -0.004842105657 -0.0326428248288 0.014
v -0.004842105657 -0.0326428248288 0.0284605887939
v -0.0048112603291 -0.0354247692165 0.0301033996274
v -0.004777615152 -0.0351770435577 0.0299787785813
v -0.0047439699749 -0.0349293178988 0.0298541575352
v -0.0047103247977 -0.03468159224 0.0297295364892
v -0.0046766796206 -0.0344338665811 0.0296049154431
v -0.0046430344435 -0.0341861409223 0.029480294397
v -0.0046093892664 -0.0339384152634 0.0293556733509
v -0.0045757440892 -0.0336906896045 0.0292310523048
v -0.0045420989121 -0.0334429639457 0.0291064312587
v -0.004508453735 -0.0331952382868 0.0289818102126
v -0.0044748085579 -0.032947512628 0.0288571891665
v -0.0044411633807 -0.0326997869691 0.014
v -0.0044411633807 -0.0326997869691 0.0287325681204
f 18 15 45
f 18 16 15
f 18 2 16
f 18 3 2
f 18 4 3
f 27 33 32
f 27 32 1
f 43 33 40
f 24 33 22
f 24 40 33
f 37 45 46
f 37 18 45
f 29 22 33
f 29 33 27
f 29 27 22
f 11 22 27
f 44 46 33
f 44 33 43
f 44 43 46
f 26 37 22
f 26 18 37
f 41 46 43
f 41 37 46
f 9 5 22
f 9 11 5
f 9 22 11
f 12 5 11
f 12 11 27
f 12 1 5
f 12 27 1
f 20 26 22
f 20 18 26
f 20 4 18
f 20 5 4
f 20 22 5
f 38 40 24
f 38 37 41
f 32 45 15
f 32 15 1
f 2 1 15
f 2 15 16
f 46 45 32
f 46 32 33
f 5 1 2
f 5 2 3
f 5 3 4
f 38 41 43
f 38 43 40
f 38 22 37
f 38 24 22
