# Parametric PetalDock simulation geometry; SI units
v -0.022566396837 -0.0434943413997 0.014
v -0.022566396837 -0.0434943413997 0.0210887939221
v -0.0224512621592 -0.0432724314946 0.0210472459639
v -0.0223361274815 -0.0430505215895 0.0210056980057
v -0.0222209928037 -0.0428286116844 0.0209641500475
v -0.022105858126 -0.0426067017793 0.0209226020893
v -0.0220309551531 -0.0437679907586 0.014
v -0.0220309551531 -0.0437679907586 0.0213618233618
v -0.0219907234483 -0.0423847918742 0.0208810541311
v -0.0219185523207 -0.0435446846833 0.0213262108262
v -0.0218755887705 -0.0421628819691 0.0208395061728
v -0.0218061494882 -0.043321378608 0.0212905982906
v -0.0217604540928 -0.041940972064 0.0207979582146
v -0.0216937466558 -0.0430980725327 0.021254985755
v -0.021645319415 -0.0417190621589 0.0207564102564
v -0.0215813438234 -0.0428747664574 0.0212193732194
v -0.0215301847373 -0.0414971522538 0.0207148622982
v -0.021468940991 -0.0426514603821 0.0211837606838
v -0.0214150500596 -0.0412752423487 0.02067331434
v -0.0213565381586 -0.0424281543068 0.0211481481481
v -0.0212999153818 -0.0410533324436 0.0206317663818
v -0.0212441353262 -0.0422048482315 0.0211125356125
v -0.0211847807041 -0.0408314225385 0.0205902184236
v -0.0211317324938 -0.0419815421562 0.0210769230769
v -0.0210696460263 -0.0406095126334 0.0205486704653
v -0.0210193296614 -0.0417582360809 0.0210413105413
v -0.0209545113486 -0.0403876027283 0.0205071225071
v -0.0209069268289 -0.0415349300056 0.0210056980057
v -0.0208393766709 -0.0401656928232 0.0204655745489
v -0.0207945239965 -0.0413116239303 0.0209700854701
v -0.0207242419931 -0.0399437829181 0.0204240265907
v -0.0206821211641 -0.041088317855 0.0209344729345
v -0.0206091073154 -0.039721873013 0.0203824786325
v -0.0205697183317 -0.0408650117797 0.0208988603989
v -0.0204939726376 -0.0394999631079 0.0203423156062
v -0.0204573154993 -0.0406417057044 0.0208632478632
v -0.0203788379599 -0.0392780532028 0.0203163481323
v -0.0203449126669 -0.0404183996291 0.0208276353276
v -0.0202637032822 -0.0390561432977 0.014
v -0.0202637032822 -0.0390561432977 0.0203076923077
v -0.0202325098345 -0.0401950935538 0.020792022792
v -0.020120107002 -0.0399717874785 0.0207564102564
v -0.0200077041696 -0.0397484814032 0.0207219848053
v -0.0198953013372 -0.0395251753279 0.0206997269706
v -0.0197828985048 -0.0393018692526 0.014
v -0.0197828985048 -0.0393018692526 0.0206923076923
f 46 2 8
f 46 40 2
f 12 7 45
f 12 8 7
f 12 46 8
f 42 45 46
f 42 12 45
f 42 46 12
f 39 45 7
f 39 7 1
f 2 1 7
f 2 7 8
f 2 39 1
f 2 40 39
f 46 45 39
f 46 39 40
