# Parametric PetalDock simulation geometry; SI units
v -0.0262626178521 0.0199818643663 0.014
v -0.0262626178521 0.0199818643663 0.0172674318796
v -0.0260154321117 0.0203026424892 0.014
v -0.0260154321117 0.0203026424892 0.017031156403
v -0.0259580642538 0.0197501453227 0.0174435691123
v -0.0257137449949 0.0200672035524 0.0172161220713
v -0.0256998761801 0.0195537034029 0.0175224696596
v -0.0255273604247 0.0194224451085 0.0174900216176
v -0.0254667809475 0.0193763533249 0.014
v -0.0254667809475 0.0193763533249 0.0174154613193
v -0.0254579870068 0.0198676080595 0.0173027419
v -0.0252870949827 0.0197342426149 0.01727564224
v -0.0252270856841 0.0196874108986 0.014
v -0.0252270856841 0.0196874108986 0.0172058952444
f 11 13 3
f 10 7 2
f 4 11 3
f 5 2 7
f 5 7 11
f 6 4 2
f 6 2 5
f 6 11 4
f 6 5 11
f 12 14 13
f 12 13 11
f 12 11 7
f 8 10 14
f 8 14 12
f 8 7 10
f 8 12 7
f 9 3 13
f 9 1 3
f 10 1 9
f 10 2 1
f 4 3 1
f 4 1 2
f 14 9 13
f 14 10 9
