# Parametric PetalDock simulation geometry; SI units
v -0.0162470935504 -0.0343515931387 0.014
v -0.0162470935504 -0.0343515931387 0.0214615384615
v -0.016140204777 -0.0341255958154 0.021466484647
v -0.0160333160036 -0.0338995984921 0.0214813232035
v -0.0159264272303 -0.0336736011688 0.0215042735043
v -0.0158243232837 -0.0345483833574 0.014
v -0.0158243232837 -0.0345483833574 0.0218461538462
v -0.0158195384569 -0.0334476038456 0.0215280151947
v -0.0157202158937 -0.0343210913617 0.0218498634853
v -0.0157126496836 -0.0332216065223 0.0215517568851
v -0.0156161085037 -0.0340937993659 0.0218609924027
v -0.0156057609102 -0.032995609199 0.0215754985755
v -0.0155120011136 -0.0338665073701 0.0218782051282
v -0.0154988721368 -0.0327696118757 0.0215992402659
v -0.0154078937236 -0.0336392153743 0.021896011396
v -0.0153919833635 -0.0325436145524 0.0216229819563
v -0.0153037863336 -0.0334119233786 0.0219138176638
v -0.0152850945901 -0.0323176172292 0.0216467236467
v -0.0151996789436 -0.0331846313828 0.0219316239316
v -0.0151782058168 -0.0320916199059 0.0216704653371
v -0.0150955715535 -0.032957339387 0.0219494301994
v -0.0150713170434 -0.0318656225826 0.0216942070275
v -0.0149914641635 -0.0327300473913 0.0219672364672
v -0.0149644282701 -0.0316396252593 0.0217179487179
v -0.0148873567735 -0.0325027553955 0.021985042735
v -0.0148575394967 -0.031413627936 0.0217416904084
v -0.0147832493835 -0.0322754633997 0.0220028490028
v -0.0147506507233 -0.0311876306128 0.0217654320988
v -0.0146791419934 -0.0320481714039 0.0220206552707
v -0.01464376195 -0.0309616332895 0.0217891737892
v -0.0145750346034 -0.0318208794082 0.0220384615385
v -0.0145368731766 -0.0307356359662 0.0218129154796
v -0.0144709272134 -0.0315935874124 0.0220562678063
v -0.0144299844033 -0.0305096386429 0.02183665717
v -0.0143668198234 -0.0313662954166 0.0220740740741
v -0.0143230956299 -0.0302836413196 0.0218603988604
v -0.0142627124333 -0.0311390034209 0.0220918803419
v -0.0142162068566 -0.0300576439964 0.0218841405508
v -0.0141586050433 -0.0309117114251 0.0221096866097
v -0.0141093180832 -0.0298316466731 0.014
v -0.0141093180832 -0.0298316466731 0.0219078822412
v -0.0140544976533 -0.0306844194293 0.0221274928775
v -0.0139503902633 -0.0304571274335 0.0221452991453
v -0.0138462828732 -0.0302298354378 0.0221631054131
v -0.0137421754832 -0.030002543442 0.014
v -0.0137421754832 -0.030002543442 0.0221809116809
f 37 6 45
f 44 45 46
f 44 37 45
f 44 46 7
f 44 7 37
f 13 7 6
f 13 6 37
f 13 37 7
f 24 1 2
f 24 2 34
f 24 40 1
f 24 34 40
f 41 7 46
f 41 2 7
f 38 41 40
f 38 40 34
f 38 34 2
f 38 2 41
f 40 45 6
f 40 6 1
f 2 6 7
f 2 1 6
f 41 45 40
f 41 46 45
