# Parametric PetalDock simulation geometry; SI units
v -0.026980298834 0.0190016703168 0.014
v -0.026980298834 0.0190016703168 0.0180854700855
v -0.0267450875423 0.0193313292961 0.014
v -0.0267450875423 0.0193313292961 0.0178124406458
v -0.0266674226715 0.0187813180617 0.0182310413122
v -0.0264349389999 0.0191071541613 0.0179682136204
v -0.0264021790684 0.01859451244 0.0182832159916
v -0.026224948959 0.0184696929141 0.0182322506626
v -0.0261720077616 0.0189171076587 0.0180293083583
v -0.0261627140209 0.0184258621254 0.014
v -0.0261627140209 0.0184258621254 0.018141025641
v -0.0259963227249 0.0187901226454 0.0179845233819
v -0.0259346303441 0.0187455314386 0.014
v -0.0259346303441 0.0187455314386 0.0178988603989
f 12 13 3
f 12 3 9
f 12 9 7
f 4 9 3
f 5 7 9
f 5 1 10
f 5 2 1
f 5 10 11
f 14 13 12
f 8 12 7
f 8 7 5
f 8 5 11
f 8 11 14
f 8 14 12
f 6 4 2
f 6 2 5
f 6 9 4
f 6 5 9
f 10 3 13
f 10 1 3
f 4 3 1
f 4 1 2
f 14 10 13
f 14 11 10
