# Parametric PetalDock simulation geometry; SI units
v -0.0042898656172 -0.0498156306091 0.014
v -0.0042898656172 -0.0498156306091 0.0281433815472
v -0.0042833346857 -0.0497397908273 0.028464340155
v -0.0042647361662 -0.0495238174012 0.0287705778138
v -0.0042369015149 -0.0492005903271 0.029086835863
v -0.0042040683049 -0.048819317997 0.014
v -0.0042040683049 -0.048819317997 0.0293626360581
v -0.00367822818 -0.0498645228339 0.014
v -0.00367822818 -0.0498645228339 0.0281666666667
v -0.003672628411 -0.0497886086182 0.0284881600858
v -0.0036566816182 -0.049572423222 0.0287949920093
v -0.0036328155561 -0.0492488789123 0.0291121077565
v -0.0036046636164 -0.0488672323773 0.014
v -0.0036046636164 -0.0488672323773 0.0293888888889
f 10 13 14
f 10 8 13
f 10 9 8
f 10 2 9
f 5 6 1
f 3 1 2
f 3 5 1
f 3 2 10
f 7 5 14
f 7 6 5
f 12 10 14
f 12 14 5
f 11 3 10
f 11 10 12
f 4 12 5
f 4 11 12
f 4 5 3
f 4 3 11
f 6 13 8
f 6 8 1
f 2 8 9
f 2 1 8
f 7 13 6
f 7 14 13
