# Parametric PetalDock simulation geometry; SI units
v -0.0452700970931 -0.0187514881859 0.014
v -0.0452700970931 -0.0187514881859 0.023
v -0.0450391272099 -0.0186558173278 0.023
v -0.0450365787328 -0.019305609963 0.014
v -0.0450365787328 -0.019305609963 0.0227269705603
v -0.0448081573268 -0.0185601464697 0.023
v -0.0448068002699 -0.019207111953 0.0227210351377
v -0.0445771874437 -0.0184644756116 0.023
v -0.044577021807 -0.019108613943 0.0227150997151
v -0.044347243344 -0.0190101159329 0.0227091642925
v -0.0443462175605 -0.0183688047535 0.023
v -0.0441174648811 -0.0189116179229 0.0227032288699
v -0.0441152476774 -0.0182731338954 0.023
v -0.0438876864182 -0.0188131199129 0.0226972934473
v -0.0438842777943 -0.0181774630373 0.023
v -0.0436579079553 -0.0187146219029 0.0226913580247
v -0.0436533079112 -0.0180817921793 0.023
v -0.0434281294924 -0.0186161238929 0.0226854226021
v -0.043422338028 -0.0179861213212 0.023
v -0.0431983510294 -0.0185176258829 0.0226794871795
v -0.0431913681449 -0.0178904504631 0.023
v -0.0429685725665 -0.0184191278729 0.0226735517569
v -0.0429603982618 -0.017794779605 0.023
v -0.0427387941036 -0.0183206298628 0.0226676163343
v -0.0427294283786 -0.0176991087469 0.023
v -0.0425090156407 -0.0182221318528 0.0226616809117
v -0.0424984584955 -0.0176034378888 0.023
v -0.0422792371777 -0.0181236338428 0.0226557454891
v -0.0422674886124 -0.0175077670307 0.023
v -0.0420494587148 -0.0180251358328 0.0226498100665
v -0.0420365187293 -0.0174120961726 0.023
v -0.0418196802519 -0.0179266378228 0.0226438746439
v -0.0418055488461 -0.0173164253145 0.023
v -0.041589901789 -0.0178281398128 0.0226379392213
v -0.041574578963 -0.0172207544564 0.023
v -0.0413601233261 -0.0177296418027 0.0226320037987
v -0.0413436090799 -0.0171250835983 0.023
v -0.0411303448631 -0.0176311437927 0.0226260683761
v -0.0411126391968 -0.0170294127402 0.023
v -0.0409005664002 -0.0175326457827 0.0226203308009
v -0.0408816693136 -0.0169337418822 0.023
v -0.0406707879373 -0.0174341477727 0.0226166211618
v -0.0406506994305 -0.0168380710241 0.014
v -0.0406506994305 -0.0168380710241 0.023
v -0.0404410094744 -0.0173356497627 0.014
v -0.0404410094744 -0.0173356497627 0.0226153846154
f 22 4 45
f 39 43 1
f 9 5 4
f 9 4 22
f 15 1 2
f 15 39 1
f 44 43 39
f 3 2 5
f 3 5 19
f 46 9 22
f 46 5 9
f 46 44 5
f 41 19 5
f 41 5 44
f 34 45 46
f 34 22 45
f 34 46 22
f 5 2 1
f 5 1 4
f 43 4 1
f 43 45 4
f 46 45 43
f 46 43 44
f 41 39 15
f 41 15 2
f 41 44 39
f 41 2 3
f 41 3 19
