# Parametric PetalDock simulation geometry; SI units
v 0.0030047160788 -0.0489077875321 0.014
v 0.0030047160788 -0.0489077875321 0.0293888888889
v 0.0030281825087 -0.0492897507975 0.0291121077565
v 0.0030480763873 -0.0496135636182 0.0287949920093
v 0.003061369052 -0.0498299284276 0.0284881600858
v 0.0030660368151 -0.049905905645 0.014
v 0.0030660368151 -0.049905905645 0.0281666666667
v 0.0036046636164 -0.0488672323773 0.014
v 0.0036046636164 -0.0488672323773 0.0293888888889
v 0.0036328155561 -0.0492488789123 0.0291121077565
v 0.0036566816182 -0.049572423222 0.0287949920093
v 0.003672628411 -0.0497886086182 0.0284881600858
v 0.00367822818 -0.0498645228339 0.014
v 0.00367822818 -0.0498645228339 0.0281666666667
f 11 13 8
f 11 14 13
f 9 11 8
f 12 7 14
f 12 14 11
f 12 11 4
f 10 11 9
f 5 7 12
f 5 12 4
f 5 2 7
f 5 4 2
f 3 9 2
f 3 10 9
f 3 2 4
f 3 4 11
f 3 11 10
f 7 2 1
f 7 1 6
f 8 6 1
f 8 13 6
f 14 7 6
f 14 6 13
f 9 1 2
f 9 8 1
