# Parametric PetalDock simulation geometry; SI units
v -0.0389960083258 0.0296700410288 0.014
v -0.0389960083258 0.0296700410288 0.0172674318796
v -0.0387970490997 0.0295186632685 0.0171428108335
v -0.0386289749537 0.0301463479385 0.014
v -0.0386289749537 0.0301463479385 0.017031156403
v -0.0385980898735 0.0293672855081 0.0170181897874
v -0.0384318883468 0.0299925400408 0.0169013989335
v -0.0383991306474 0.0292159077478 0.0168935687413
v -0.0382348017399 0.0298387321432 0.0167716414639
v -0.0382001714212 0.0290645299874 0.0167689476952
v -0.038037715133 0.0296849242455 0.0166418839944
v -0.0380012121951 0.0289131522271 0.0166443266491
v -0.0378406285261 0.0295311163479 0.0165121265249
v -0.0378022529689 0.0287617744667 0.016519705603
v -0.0376435419192 0.0293773084502 0.0163823690554
v -0.0376032937428 0.0286103967064 0.0163950845569
v -0.0374464553123 0.0292235005526 0.0162526115859
v -0.0374043345166 0.028459018946 0.0162704635108
v -0.0372493687054 0.0290696926549 0.0161228541164
v -0.0372053752905 0.0283076411857 0.0161458424648
v -0.0370522820985 0.0289158847573 0.0159930966469
v -0.0370064160643 0.0281562634253 0.0160212214187
v -0.0368551954915 0.0287620768596 0.0158633391774
v -0.0368074568382 0.028004885665 0.0158966003726
v -0.0366581088846 0.028608268962 0.0157335817079
v -0.036608497612 0.0278535079046 0.0157719793265
v -0.0364610222777 0.0284544610644 0.0156038242384
v -0.0364095383859 0.0277021301442 0.0156473582804
v -0.0362639356708 0.0283006531667 0.0154740667689
v -0.0362105791597 0.0275507523839 0.0155227372343
v -0.0360668490639 0.0281468452691 0.0153443092994
v -0.0360116199336 0.0273993746235 0.0153981161882
v -0.035869762457 0.0279930373714 0.0152145518299
v -0.0358126607074 0.0272479968632 0.0152734951421
v -0.0356726758501 0.0278392294738 0.0150847943604
v -0.0356137014812 0.0270966191028 0.015148874096
v -0.0354755892432 0.0276854215761 0.0149550368909
v -0.0354147422551 0.0269452413425 0.0150284070848
v -0.0352785026363 0.0275316136785 0.0148252794214
v -0.0352157830289 0.0267938635821 0.014950518931
v -0.0350814160294 0.0273778057808 0.0146998472009
v -0.0350168238028 0.0266424858218 0.014
v -0.0350168238028 0.0266424858218 0.014924556213
v -0.0348843294225 0.0272239978832 0.0146187487825
v -0.0346872428156 0.0270701899855 0.014
v -0.0346872428156 0.0270701899855 0.0145917159763
f 27 4 5
f 32 1 42
f 44 45 4
f 28 2 1
f 28 1 32
f 39 4 27
f 39 44 4
f 39 27 44
f 43 32 42
f 43 28 32
f 43 5 2
f 43 2 28
f 46 45 44
f 46 5 43
f 46 27 5
f 46 44 27
f 5 1 2
f 5 4 1
f 42 1 4
f 42 4 45
f 46 42 45
f 46 43 42
