# Parametric PetalDock simulation geometry; SI units
v -0.0278801676532 0.0176549214563 0.014
v -0.0278801676532 0.0176549214563 0.0191775878443
v -0.0276614152833 0.0179957246179 0.014
v -0.0276614152833 0.0179957246179 0.0189045584046
v -0.027556856191 0.0174501867308 0.0192823520798
v -0.0273406405759 0.0177870377796 0.0190195243879
v -0.0272827659681 0.0172766210113 0.0192988465247
v -0.0270996247363 0.0171606481053 0.0192231597856
v -0.0270687009099 0.0176101216207 0.0190449388914
v -0.027035314088 0.0171199238364 0.014
v -0.027035314088 0.0171199238364 0.0191096866097
v -0.0268869966342 0.0174919100226 0.0189754325049
v -0.0268231905778 0.0174503996295 0.014
v -0.0268231905778 0.0174503996295 0.0188675213675
f 2 1 7
f 10 7 1
f 11 7 10
f 12 13 3
f 12 9 7
f 4 12 3
f 5 2 7
f 5 7 9
f 14 13 12
f 8 7 11
f 8 12 7
f 8 11 14
f 8 14 12
f 6 4 2
f 6 2 5
f 6 5 9
f 6 9 12
f 6 12 4
f 10 3 13
f 10 1 3
f 4 3 1
f 4 1 2
f 14 10 13
f 14 11 10
