# Parametric PetalDock simulation geometry; SI units
v -0.0484696489883 -0.0071897932483 0.014
v -0.0484696489883 -0.0071897932483 0.0284605887939
v -0.0483777694897 -0.0077840490234 0.014
v -0.0483777694897 -0.0077840490234 0.0281875593542
v -0.0482223548608 -0.0071531106297 0.028579297246
v -0.0481309441352 -0.0077443344875 0.0283003323837
v -0.0479750607333 -0.0071164280111 0.028698005698
v -0.0478841187807 -0.0077046199517 0.0284131054131
v -0.0477277666058 -0.0070797453925 0.02881671415
v -0.0476372934261 -0.0076649054159 0.0285258784425
v -0.0474804724783 -0.0070430627739 0.0289354226021
v -0.0473904680716 -0.00762519088 0.028638651472
v -0.0472331783508 -0.0070063801552 0.0290541310541
v -0.047143642717 -0.0075854763442 0.0287514245014
v -0.0469858842233 -0.0069696975366 0.0291728395062
v -0.0468968173625 -0.0075457618084 0.0288641975309
v -0.0467385900958 -0.006933014918 0.0292915479582
v -0.046649992008 -0.0075060472725 0.0289769705603
v -0.0464912959683 -0.0068963322994 0.0294102564103
v -0.0464031666534 -0.0074663327367 0.0290897435897
v -0.0462440018409 -0.0068596496808 0.0295289648623
v -0.0461563412989 -0.0074266182009 0.0292025166192
v -0.0459967077134 -0.0068229670622 0.0296476733143
v -0.0459095159443 -0.007386903665 0.0293152896486
v -0.0457494135859 -0.0067862844436 0.0297663817664
v -0.0456626905898 -0.0073471891292 0.0294280626781
v -0.0455021194584 -0.0067496018249 0.0298850902184
v -0.0454158652353 -0.0073074745934 0.0295408357075
v -0.0452548253309 -0.0067129192063 0.0300037986705
v -0.0451690398807 -0.0072677600575 0.0296536087369
v -0.0450075312034 -0.0066762365877 0.0301225071225
v -0.0449222145262 -0.0072280455217 0.0297663817664
v -0.0447602370759 -0.0066395539691 0.0302412155745
v -0.0446753891716 -0.0071883309859 0.0298791547958
v -0.0445129429484 -0.0066028713505 0.0303599240266
v -0.0444285638171 -0.00714861645 0.0299919278253
v -0.0442656488209 -0.0065661887319 0.0304786324786
v -0.0441817384626 -0.0071089019142 0.0301047008547
v -0.0440183546934 -0.0065295061133 0.0305933839823
v -0.043934913108 -0.0070691873784 0.0302137147832
v -0.0437710605659 -0.0064928234946 0.0306675767648
v -0.0436880877535 -0.0070294728425 0.0302841979266
v -0.0435237664385 -0.006456140876 0.014
v -0.0435237664385 -0.006456140876 0.0306923076923
v -0.0434412623989 -0.0069897583067 0.014
v -0.0434412623989 -0.0069897583067 0.0303076923077
f 40 3 45
f 40 45 46
f 13 43 1
f 13 1 2
f 5 2 4
f 42 46 44
f 42 40 46
f 27 44 43
f 27 43 13
f 41 40 42
f 41 39 40
f 41 42 44
f 41 44 27
f 38 40 39
f 25 5 4
f 37 39 41
f 37 4 39
f 34 40 38
f 34 4 3
f 34 3 40
f 29 5 25
f 29 15 5
f 6 39 4
f 35 29 25
f 35 25 4
f 35 4 37
f 28 34 38
f 28 38 39
f 16 39 6
f 16 6 4
f 16 4 34
f 43 45 3
f 43 3 1
f 46 45 43
f 46 43 44
f 4 1 3
f 4 2 1
f 15 2 5
f 15 13 2
f 29 13 15
f 29 27 13
f 35 37 41
f 35 41 27
f 35 27 29
f 16 28 39
f 16 34 28
