# Parametric PetalDock simulation geometry; SI units
v -0.0289103131084 0.0159120644786 0.014
v -0.0289103131084 0.0159120644786 0.0205427350427
v -0.0287128707066 0.0162656403436 0.014
v -0.0287128707066 0.0162656403436 0.020269705603
v -0.0285750555978 0.0157275407377 0.0205964905392
v -0.0283799028304 0.0160770163716 0.0203336628474
v -0.028290838004 0.0155711090636 0.0205683846911
v -0.0281009298794 0.0154665847607 0.0204617961894
v -0.028097626295 0.0159171086894 0.0203144770578
v -0.0280342430143 0.0154298807065 0.014
v -0.0280342430143 0.0154298807065 0.0203205128205
v -0.027909015144 0.0158102617922 0.0202140689087
v -0.0278427837155 0.0157727421514 0.014
v -0.0278427837155 0.0157727421514 0.0200783475783
f 2 5 6
f 4 2 6
f 9 6 5
f 11 5 2
f 12 6 9
f 12 14 4
f 12 4 6
f 7 9 5
f 7 5 11
f 7 12 9
f 8 7 11
f 8 12 7
f 8 11 14
f 8 14 12
f 10 3 13
f 10 1 3
f 4 3 1
f 4 1 2
f 4 13 3
f 4 14 13
f 11 10 13
f 11 13 14
f 11 1 10
f 11 2 1
