# Parametric PetalDock simulation geometry; SI units
v 0.0237104360114 -0.0214898865551 0.014
v 0.0237104360114 -0.0214898865551 0.0168333333333
v 0.0237668375574 -0.0215410059367 0.0168945233466
v 0.0239274555714 -0.021686581619 0.0169121147719
v 0.0239723646248 -0.0211973048829 0.014
v 0.0239723646248 -0.0211973048829 0.0168333333333
v 0.0240293892373 -0.0212477282815 0.0168945233466
v 0.0241678374168 -0.0219044510241 0.016811771776
v 0.0241917815947 -0.0213913219722 0.0169121147719
v 0.0244348189325 -0.0216062251171 0.016811771776
v 0.0244513871367 -0.02216144551 0.014
v 0.0244513871367 -0.02216144551 0.0166111111111
v 0.0247215010193 -0.0218597206605 0.014
v 0.0247215010193 -0.0218597206605 0.0166111111111
f 8 1 11
f 8 11 12
f 3 2 1
f 3 1 8
f 3 8 4
f 10 12 14
f 10 8 12
f 7 13 5
f 7 5 6
f 7 14 13
f 7 3 4
f 7 6 2
f 7 2 3
f 9 10 14
f 9 14 7
f 9 7 4
f 9 4 8
f 9 8 10
f 5 13 11
f 5 11 1
f 2 5 1
f 2 6 5
f 14 11 13
f 14 12 11
