# Parametric PetalDock simulation geometry; SI units
v 0.0060403163025 0.0324424810852 0.014
v 0.0060403163025 0.0324424810852 0.0276415004748
v 0.0060860762745 0.0326882574571 0.0277424026591
v 0.0061318362465 0.0329340338289 0.0278433048433
v 0.0061775962185 0.0331798102008 0.0279442070275
v 0.0062233561905 0.0334255865727 0.0280451092118
v 0.0062691161625 0.0336713629445 0.028146011396
v 0.0063148761345 0.0339171393164 0.0282469135802
v 0.0063606361064 0.0341629156882 0.0283478157645
v 0.0064063960784 0.0344086920601 0.0284487179487
v 0.0064379806265 0.0323659142533 0.014
v 0.0064379806265 0.0323659142533 0.0273684710351
v 0.0064521560504 0.034654468432 0.028549620133
v 0.006486753207 0.0326111105734 0.0274634377968
v 0.0064979160224 0.0349002448038 0.0286505223172
v 0.0065355257875 0.0328563068935 0.0275584045584
v 0.0065436759944 0.0351460211757 0.0287514245014
v 0.006584298368 0.0331015032136 0.02765337132
v 0.0065894359664 0.0353917975475 0.0288523266857
v 0.0066330709485 0.0333466995337 0.0277483380817
v 0.0066351959384 0.0356375739194 0.0289532288699
v 0.0066809559104 0.0358833502912 0.0290541310541
v 0.0066818435291 0.0335918958538 0.0278433048433
v 0.0067267158824 0.0361291266631 0.0291550332384
v 0.0067306161096 0.0338370921739 0.0279382716049
v 0.0067724758543 0.036374903035 0.0292559354226
v 0.0067793886901 0.034082288494 0.0280332383666
v 0.0068182358263 0.0366206794068 0.0293568376068
v 0.0068281612706 0.0343274848141 0.0281282051282
v 0.0068639957983 0.0368664557787 0.0294543763849
v 0.0068769338511 0.0345726811342 0.0282231718898
v 0.0069097557703 0.0371122321505 0.0295174402501
v 0.0069257064316 0.0348178774543 0.0283181386515
v 0.0069555157423 0.0373580085224 0.014
v 0.0069555157423 0.0373580085224 0.0295384615385
v 0.0069744790121 0.0350630737744 0.0284131054131
v 0.0070232515926 0.0353082700945 0.0285080721747
v 0.0070720241731 0.0355534664146 0.0286030389364
v 0.0071207967536 0.0357986627347 0.028698005698
v 0.0071695693341 0.0360438590548 0.0287929724596
v 0.0072183419146 0.0362890553749 0.0288879392213
v 0.0072671144951 0.036534251695 0.0289829059829
v 0.0073158870756 0.0367794480151 0.0290747071858
v 0.0073646596561 0.0370246443352 0.0291340614118
v 0.0074134322366 0.0372698406553 0.014
v 0.0074134322366 0.0372698406553 0.0291538461538
f 28 12 30
f 32 46 35
f 32 35 30
f 43 32 30
f 24 12 28
f 26 34 1
f 26 24 28
f 26 28 30
f 42 43 30
f 44 46 32
f 44 32 43
f 3 2 12
f 14 30 12
f 23 12 11
f 23 14 12
f 23 11 45
f 19 12 24
f 19 3 12
f 19 24 26
f 9 2 3
f 9 1 2
f 9 26 1
f 9 19 26
f 9 3 19
f 27 30 14
f 27 14 23
f 41 42 30
f 41 30 27
f 11 34 45
f 11 1 34
f 2 1 11
f 2 11 12
f 46 45 34
f 46 34 35
f 26 35 34
f 26 30 35
f 41 45 46
f 41 46 44
f 41 43 42
f 41 44 43
f 41 23 45
f 41 27 23
