# Parametric PetalDock simulation geometry; SI units
v -0.0368818870444 -0.0239942994906 0.014
v -0.0368818870444 -0.0239942994906 0.0172307692308
v -0.036672330868 -0.0238579682435 0.0172307692308
v -0.0365846629413 -0.0244450902529 0.014
v -0.0365846629413 -0.0244450902529 0.0168461538462
v -0.0364627746916 -0.0237216369964 0.0172307692308
v -0.0363767955382 -0.0243061976946 0.0168461538462
v -0.0362532185152 -0.0235853057493 0.0172307692308
v -0.0361689281352 -0.0241673051364 0.0168461538462
v -0.0360436623389 -0.0234489745021 0.0172307692308
v -0.0359610607321 -0.0240284125781 0.0168461538462
v -0.0358341061625 -0.023312643255 0.0172307692308
v -0.035753193329 -0.0238895200198 0.0168461538462
v -0.0356245499861 -0.0231763120079 0.0172307692308
v -0.0355453259259 -0.0237506274616 0.0168461538462
v -0.0354149938097 -0.0230399807608 0.0172307692308
v -0.0353374585229 -0.0236117349033 0.0168461538462
v -0.0352054376333 -0.0229036495137 0.0172307692308
v -0.0351295911198 -0.0234728423451 0.0168461538462
v -0.0349958814569 -0.0227673182666 0.0172307692308
v -0.0349217237167 -0.0233339497868 0.0168461538462
v -0.0347863252805 -0.0226309870195 0.0172307692308
v -0.0347138563136 -0.0231950572286 0.0168461538462
v -0.0345767691041 -0.0224946557724 0.0172307692308
v -0.0345059889106 -0.0230561646703 0.0168461538462
v -0.0343672129277 -0.0223583245253 0.0172307692308
v -0.0342981215075 -0.0229172721121 0.0168461538462
v -0.0341576567514 -0.0222219932782 0.0172307692308
v -0.0340902541044 -0.0227783795538 0.0168461538462
v -0.033948100575 -0.0220856620311 0.0172307692308
v -0.0338823867013 -0.0226394869955 0.0168461538462
v -0.0337385443986 -0.021949330784 0.0172307692308
v -0.0336745192983 -0.0225005944373 0.0168461538462
v -0.0335289882222 -0.0218129995369 0.0172307692308
v -0.0334666518952 -0.022361701879 0.0168461538462
v -0.0333194320458 -0.0216766682898 0.0172307692308
v -0.0332587844921 -0.0222228093208 0.0168461538462
v -0.0331098758694 -0.0215403370427 0.0172307692308
v -0.033050917089 -0.0220839167625 0.0168461538462
v -0.032900319693 -0.0214040057956 0.0172307692308
v -0.032843049686 -0.0219450242043 0.0168461538462
v -0.0326907635166 -0.0212676745485 0.0172307692308
v -0.0326351822829 -0.021806131646 0.0168461538462
v -0.0324812073402 -0.0211313433014 0.0172307692308
v -0.0324273148798 -0.0216672390878 0.0168461538462
v -0.0322716511639 -0.0209950120542 0.0172307692308
v -0.0322194474767 -0.0215283465295 0.0168461538462
v -0.0320620949875 -0.0208586808071 0.0172307692308
v -0.0320115800736 -0.0213894539713 0.0168461538462
v -0.0318525388111 -0.02072234956 0.014
v -0.0318525388111 -0.02072234956 0.0172307692308
v -0.0318037126706 -0.021250561413 0.0168461538462
v -0.0315958452675 -0.0211116688547 0.014
v -0.0315958452675 -0.0211116688547 0.0168461538462
f 49 4 53
f 5 4 49
f 10 50 1
f 10 1 2
f 51 5 49
f 54 49 53
f 54 51 49
f 46 51 50
f 46 50 10
f 44 5 51
f 8 2 5
f 8 5 44
f 50 53 4
f 50 4 1
f 5 1 4
f 5 2 1
f 54 53 50
f 54 50 51
f 8 46 10
f 8 10 2
f 8 51 46
f 8 44 51
