# Parametric PetalDock simulation geometry; SI units
v 0.0296700410288 0.0389960083258 0.014
v 0.0296700410288 0.0389960083258 0.0172674318796
v 0.0299017600725 0.0393005619241 0.0174435691123
v 0.0300982019923 0.0395587499978 0.0175224696596
v 0.0301463479385 0.0386289749537 0.014
v 0.0301463479385 0.0386289749537 0.017031156403
v 0.0302294602867 0.0397312657532 0.0174900216176
v 0.0302755520702 0.0397918452304 0.014
v 0.0302755520702 0.0397918452304 0.0174154613193
v 0.0303817868752 0.0389306620705 0.0172161220713
v 0.0305813823682 0.0391864200586 0.0173027419
v 0.0307147478127 0.0393573120827 0.01727564224
v 0.030761579529 0.0394173213813 0.014
v 0.030761579529 0.0394173213813 0.0172058952444
f 3 9 2
f 3 4 9
f 7 9 4
f 7 4 12
f 14 9 7
f 14 7 12
f 10 2 6
f 10 3 2
f 11 10 6
f 11 14 12
f 11 12 4
f 11 5 13
f 11 6 5
f 11 13 14
f 11 4 3
f 11 3 10
f 5 8 13
f 5 1 8
f 2 1 5
f 2 5 6
f 2 8 1
f 2 9 8
f 14 13 8
f 14 8 9
