# Parametric PetalDock simulation geometry; SI units
v -0.031085270924 -0.0378775122148 0.014
v -0.031085270924 -0.0378775122148 0.0167161224341
v -0.030926672603 -0.0376842596014 0.0165795164
v -0.0307680742819 -0.0374910069881 0.016442910366
v -0.030618114919 -0.0382561242 0.014
v -0.030618114919 -0.0382561242 0.0168473865878
v -0.0306094759609 -0.0372977543748 0.0163063043319
v -0.0304619000469 -0.0380609398929 0.0167136341223
v -0.0304508776399 -0.0371045017614 0.0161696982979
v -0.0303056851749 -0.0378657555857 0.0165798816568
v -0.0302922793188 -0.0369112491481 0.0160330922639
v -0.0301494703029 -0.0376705712786 0.0164461291913
v -0.0301336809978 -0.0367179965347 0.0158964862298
v -0.0299932554308 -0.0374753869715 0.0163123767258
v -0.0299750826767 -0.0365247439214 0.0157598801958
v -0.0298370405588 -0.0372802026643 0.0161786242604
v -0.0298164843557 -0.036331491308 0.0156232741617
v -0.0296808256868 -0.0370850183572 0.0160448717949
v -0.0296578860347 -0.0361382386947 0.0154866681277
v -0.0295246108147 -0.03688983405 0.0159111193294
v -0.0294992877136 -0.0359449860814 0.0153500620937
v -0.0293683959427 -0.0366946497429 0.0157773668639
v -0.0293406893926 -0.035751733468 0.0152134560596
v -0.0292121810707 -0.0364994654357 0.0156436143984
v -0.0291820910715 -0.0355584808547 0.0150768500256
v -0.0290559661986 -0.0363042811286 0.0155098619329
v -0.0290234927505 -0.0353652282413 0.0149402439915
v -0.0288997513266 -0.0361090968215 0.0153761094675
v -0.0288648944294 -0.035171975628 0.0148036379575
v -0.0287435364545 -0.0359139125143 0.015242357002
v -0.0287062961084 -0.0349787230147 0.0146670319234
v -0.0285873215825 -0.0357187282072 0.0151086045365
v -0.0285476977874 -0.0347854704013 0.0145304258894
v -0.0284311067105 -0.0355235439 0.014974852071
v -0.0283890994663 -0.034592217788 0.0143938198554
v -0.0282748918384 -0.0353283595929 0.0148410996055
v -0.0282305011453 -0.0343989651746 0.0142617673558
v -0.0281186769664 -0.0351331752857 0.01470734714
v -0.0280719028242 -0.0342057125613 0.0141763885845
v -0.0279624620944 -0.0349379909786 0.0145735946746
v -0.0279133045032 -0.034012459948 0.014
v -0.0279133045032 -0.034012459948 0.0141479289941
v -0.0278062472223 -0.0347428066715 0.0144443006246
v -0.0276500323503 -0.0345476223643 0.0143607053337
v -0.0274938174783 -0.0343524380572 0.014
v -0.0274938174783 -0.0343524380572 0.0143328402367
f 46 2 6
f 8 6 5
f 8 5 14
f 8 46 6
f 8 14 46
f 43 45 46
f 43 46 14
f 43 5 45
f 43 14 5
f 42 2 46
f 37 41 1
f 37 42 41
f 3 2 42
f 3 42 9
f 3 1 2
f 3 9 1
f 33 37 1
f 33 42 37
f 19 1 9
f 19 33 1
f 19 9 42
f 19 42 33
f 2 5 6
f 2 1 5
f 41 5 1
f 41 45 5
f 42 45 41
f 42 46 45
