# Parametric PetalDock simulation geometry; SI units
v -0.0101665567643 -0.042809357897 0.014
v -0.0101665567643 -0.042809357897 0.028
v -0.0101087922373 -0.042566122909 0.028
v -0.0100510277102 -0.0423228879209 0.028
v -0.0099932631831 -0.0420796529329 0.028
v -0.0099354986561 -0.0418364179448 0.028
v -0.009877734129 -0.0415931829568 0.028
v -0.0098199696019 -0.0413499479687 0.028
v -0.0097622050749 -0.0411067129807 0.028
v -0.0097044405478 -0.0408634779926 0.028
v -0.0096466760207 -0.0406202430046 0.028
v -0.0096404545669 -0.0429308937217 0.014
v -0.0096404545669 -0.0429308937217 0.0283846153846
v -0.0095889114936 -0.0403770080165 0.028
v -0.0095856792569 -0.0426869681892 0.0283846153846
v -0.0095311469666 -0.0401337730285 0.028
v -0.0095309039468 -0.0424430426567 0.0283846153846
v -0.0094761286368 -0.0421991171242 0.0283846153846
v -0.0094733824395 -0.0398905380404 0.028
v -0.0094213533267 -0.0419551915917 0.0283846153846
v -0.0094156179124 -0.0396473030524 0.028
v -0.0093665780167 -0.0417112660591 0.0283846153846
v -0.0093578533854 -0.0394040680643 0.028
v -0.0093118027067 -0.0414673405266 0.0283846153846
v -0.0093000888583 -0.0391608330763 0.028
v -0.0092570273966 -0.0412234149941 0.0283846153846
v -0.0092423243312 -0.0389175980882 0.028
v -0.0092022520866 -0.0409794894616 0.0283846153846
v -0.0091845598042 -0.0386743631002 0.028
v -0.0091474767765 -0.0407355639291 0.0283846153846
v -0.0091267952771 -0.0384311281121 0.028
v -0.0090927014665 -0.0404916383966 0.0283846153846
v -0.00906903075 -0.0381878931241 0.028
v -0.0090379261565 -0.0402477128641 0.0283846153846
v -0.0090112662229 -0.037944658136 0.028
v -0.0089831508464 -0.0400037873316 0.0283846153846
v -0.0089535016959 -0.037701423148 0.028
v -0.0089283755364 -0.0397598617991 0.0283846153846
v -0.0088957371688 -0.0374581881599 0.028
v -0.0088736002264 -0.0395159362666 0.0283846153846
v -0.0088379726417 -0.0372149531719 0.028
v -0.0088188249163 -0.0392720107341 0.0283846153846
v -0.0087802081147 -0.0369717181838 0.014
v -0.0087802081147 -0.0369717181838 0.028
v -0.0087640496063 -0.0390280852015 0.0283846153846
v -0.0087092742962 -0.038784159669 0.0283846153846
v -0.0086544989862 -0.0385402341365 0.0283846153846
v -0.0085997236762 -0.038296308604 0.0283846153846
v -0.0085449483661 -0.0380523830715 0.0283846153846
v -0.0084901730561 -0.037808457539 0.0283846153846
v -0.008435397746 -0.0375645320065 0.0283846153846
v -0.008380622436 -0.037320606474 0.0283846153846
v -0.008325847126 -0.0370766809415 0.014
v -0.008325847126 -0.0370766809415 0.0283846153846
f 6 54 44
f 6 43 1
f 6 44 43
f 51 12 53
f 51 53 54
f 15 2 13
f 15 24 2
f 48 54 2
f 48 2 24
f 3 2 54
f 3 54 6
f 3 1 2
f 3 6 1
f 20 13 12
f 20 12 51
f 43 53 12
f 43 12 1
f 2 1 12
f 2 12 13
f 54 53 43
f 54 43 44
f 20 15 13
f 20 54 48
f 20 51 54
f 20 24 15
f 20 48 24
