# Parametric PetalDock simulation geometry; SI units
v 0.0368818870444 0.0239942994906 0.014
v 0.0368818870444 0.0239942994906 0.0172307692308
v 0.0370914432208 0.0241306307377 0.0172493174264
v 0.037173556871 0.023539895275 0.014
v 0.037173556871 0.023539895275 0.0176153846154
v 0.0373009993972 0.0242669619848 0.0173049620133
v 0.0373847702623 0.02367364468 0.0176326962646
v 0.0375105555736 0.0244032932319 0.017391025641
v 0.0375959836536 0.023807394085 0.0176846312124
v 0.03772011175 0.024539624479 0.0174800569801
v 0.0378071970449 0.0239411434899 0.017764957265
v 0.0379296679264 0.0246759557261 0.0175690883191
v 0.0380184104362 0.0240748928949 0.0178480531814
v 0.0381392241027 0.0248122869732 0.0176581196581
v 0.0382296238275 0.0242086422999 0.0179311490978
v 0.0383487802791 0.0249486182203 0.0177471509972
v 0.0384408372189 0.0243423917049 0.0180142450142
v 0.0385583364555 0.0250849494674 0.0178361823362
v 0.0386520506102 0.0244761411098 0.0180973409307
v 0.0387678926319 0.0252212807145 0.0179252136752
v 0.0388632640015 0.0246098905148 0.0181804368471
v 0.0389774488083 0.0253576119616 0.0180142450142
v 0.0390744773928 0.0247436399198 0.0182635327635
v 0.0391870049847 0.0254939432087 0.0181032763533
v 0.0392856907841 0.0248773893248 0.01834662868
v 0.0393965611611 0.0256302744558 0.0181923076923
v 0.0394969041754 0.0250111387297 0.0184297245964
v 0.0396061173375 0.0257666057029 0.0182813390313
v 0.0397081175667 0.0251448881347 0.0185128205128
v 0.0398156735139 0.02590293695 0.0183703703704
v 0.039919330958 0.0252786375397 0.0185959164292
v 0.0400252296902 0.0260392681972 0.0184594017094
v 0.0401305443494 0.0254123869446 0.0186790123457
v 0.0402347858666 0.0261755994443 0.0185484330484
v 0.0403417577407 0.0255461363496 0.0187621082621
v 0.040444342043 0.0263119306914 0.0186374643875
v 0.040552971132 0.0256798857546 0.0188452041785
v 0.0406538982194 0.0264482619385 0.0187264957265
v 0.0407641845233 0.0258136351596 0.018928300095
v 0.0408634543958 0.0265845931856 0.0188155270655
v 0.0409753979146 0.0259473845645 0.0190113960114
v 0.0410730105722 0.0267209244327 0.014
v 0.0410730105722 0.0267209244327 0.0189045584046
v 0.0411866113059 0.0260811339695 0.0190944919278
v 0.0413978246972 0.0262148833745 0.014
v 0.0413978246972 0.0262148833745 0.0191775878443
f 32 43 42
f 32 42 1
f 33 4 45
f 41 45 46
f 41 33 45
f 2 43 32
f 2 32 1
f 5 4 33
f 5 43 2
f 5 46 43
f 5 41 46
f 5 33 41
f 43 46 45
f 43 45 42
f 4 42 45
f 4 1 42
f 5 1 4
f 5 2 1
