# Parametric PetalDock simulation geometry; SI units
v 0.0141100533702 -0.035283231058 0.014
v 0.0141100533702 -0.035283231058 0.0233846153846
v 0.0142028826687 -0.0355153575781 0.0233846153846
v 0.0142957119671 -0.0357474840982 0.0233846153846
v 0.0143885412656 -0.0359796106183 0.0233846153846
v 0.0144813705641 -0.0362117371385 0.0233846153846
v 0.0145419704299 -0.0351074222354 0.014
v 0.0145419704299 -0.0351074222354 0.023
v 0.0145741998626 -0.0364438636586 0.0233846153846
v 0.014637641288 -0.0353383921186 0.023
v 0.0146670291611 -0.0366759901787 0.0233846153846
v 0.0147333121461 -0.0355693620017 0.023
v 0.0147598584596 -0.0369081166988 0.0233846153846
v 0.0148289830041 -0.0358003318848 0.023
v 0.0148526877581 -0.0371402432189 0.0233846153846
v 0.0149246538622 -0.0360313017679 0.023
v 0.0149455170566 -0.037372369739 0.0233846153846
v 0.0150203247203 -0.0362622716511 0.023
v 0.015038346355 -0.0376044962592 0.0233846153846
v 0.0151159955784 -0.0364932415342 0.023
v 0.0151311756535 -0.0378366227793 0.0233846153846
v 0.0152116664365 -0.0367242114173 0.023
v 0.015224004952 -0.0380687492994 0.0233846153846
v 0.0153073372946 -0.0369551813005 0.023
v 0.0153168342505 -0.0383008758195 0.0233846153846
v 0.0154030081527 -0.0371861511836 0.023
v 0.015409663549 -0.0385330023396 0.0233846153846
v 0.0154986790108 -0.0374171210667 0.023
v 0.0155024928475 -0.0387651288598 0.0233846153846
v 0.0155943498689 -0.0376480909498 0.023
v 0.015595322146 -0.0389972553799 0.0233846153846
v 0.0156881514445 -0.0392293819 0.0233846153846
v 0.015690020727 -0.037879060833 0.023
v 0.015780980743 -0.0394615084201 0.0233846153846
v 0.0157856915851 -0.0381100307161 0.023
v 0.0158738100414 -0.0396936349402 0.0233846153846
v 0.0158813624432 -0.0383410005992 0.023
v 0.0159666393399 -0.0399257614603 0.0233846153846
v 0.0159770333012 -0.0385719704823 0.023
v 0.0160594686384 -0.0401578879805 0.0233846153846
v 0.0160727041593 -0.0388029403655 0.023
v 0.0161522979369 -0.0403900145006 0.0233846153846
v 0.0161683750174 -0.0390339102486 0.023
v 0.0162451272354 -0.0406221410207 0.0233846153846
v 0.0162640458755 -0.0392648801317 0.023
v 0.0163379565339 -0.0408542675408 0.014
v 0.0163379565339 -0.0408542675408 0.0233846153846
v 0.0163597167336 -0.0394958500149 0.023
v 0.0164553875917 -0.039726819898 0.023
v 0.0165510584498 -0.0399577897811 0.023
v 0.0166467293079 -0.0401887596642 0.023
v 0.016742400166 -0.0404197295474 0.023
v 0.0168380710241 -0.0406506994305 0.014
v 0.0168380710241 -0.0406506994305 0.023
f 19 1 46
f 37 53 7
f 37 54 53
f 37 2 54
f 4 2 1
f 4 1 19
f 40 46 47
f 40 19 46
f 34 47 54
f 34 54 17
f 3 54 2
f 3 17 54
f 8 2 37
f 8 37 7
f 7 46 1
f 7 53 46
f 54 47 46
f 54 46 53
f 3 2 4
f 3 47 34
f 3 40 47
f 3 4 19
f 3 19 40
f 3 34 17
f 8 7 1
f 8 1 2
