# Parametric PetalDock simulation geometry; SI units
v 0.0237446605494 -0.0296680146857 0.014
v 0.0237446605494 -0.0296680146857 0.0143328402367
v 0.0239008754214 -0.0298631989929 0.0143328402367
v 0.0240570902935 -0.0300583833 0.0143328402367
v 0.0241069447982 -0.0293743972278 0.014
v 0.0241069447982 -0.0293743972278 0.0141479289941
v 0.0242133051655 -0.0302535676072 0.0143328402367
v 0.0242655431193 -0.0295676498411 0.0141479289941
v 0.0243695200376 -0.0304487519143 0.0143328402367
v 0.0244241414403 -0.0297609024545 0.0141479289941
v 0.0245257349096 -0.0306439362215 0.0143328402367
v 0.0245827397613 -0.0299541550678 0.0141479289941
v 0.0246819497816 -0.0308391205286 0.0143328402367
v 0.0247413380824 -0.0301474076811 0.0141479289941
v 0.0248381646537 -0.0310343048357 0.0143328402367
v 0.0248999364034 -0.0303406602945 0.0141479289941
v 0.0249943795257 -0.0312294891429 0.0143328402367
v 0.0250585347245 -0.0305339129078 0.0141479289941
v 0.0251505943977 -0.03142467345 0.0143328402367
v 0.0252171330455 -0.0307271655212 0.0141479289941
v 0.0253068092698 -0.0316198577572 0.0143328402367
v 0.0253757313665 -0.0309204181345 0.0141479289941
v 0.0254630241418 -0.0318150420643 0.0143328402367
v 0.0255343296876 -0.0311136707479 0.0141479289941
v 0.0256192390138 -0.0320102263715 0.0143328402367
v 0.0256929280086 -0.0313069233612 0.0141479289941
v 0.0257754538859 -0.0322054106786 0.0143328402367
v 0.0258515263297 -0.0315001759745 0.0141479289941
v 0.0259316687579 -0.0324005949857 0.0143328402367
v 0.0260101246507 -0.0316934285879 0.0141479289941
v 0.0260878836299 -0.0325957792929 0.0143328402367
v 0.0261687229718 -0.0318866812012 0.0141479289941
v 0.026244098502 -0.0327909636 0.0143328402367
v 0.0263273212928 -0.0320799338146 0.0141479289941
v 0.026400313374 -0.0329861479072 0.0143328402367
v 0.0264859196138 -0.0322731864279 0.0141479289941
v 0.0265565282461 -0.0331813322143 0.0143328402367
v 0.0266445179349 -0.0324664390412 0.0141479289941
v 0.0267127431181 -0.0333765165215 0.0143328402367
v 0.0268031162559 -0.0326596916546 0.0141479289941
v 0.0268689579901 -0.0335717008286 0.0143328402367
v 0.026961714577 -0.0328529442679 0.0141479289941
v 0.0270251728622 -0.0337668851357 0.0143328402367
v 0.027120312898 -0.0330461968813 0.0141479289941
v 0.0271813877342 -0.0339620694429 0.0143328402367
v 0.027278911219 -0.0332394494946 0.0141479289941
v 0.0273376026062 -0.03415725375 0.0143328402367
v 0.0274375095401 -0.0334327021079 0.0141479289941
v 0.0274938174783 -0.0343524380572 0.014
v 0.0274938174783 -0.0343524380572 0.0143328402367
v 0.0275961078611 -0.0336259547213 0.0141479289941
v 0.0277547061822 -0.0338192073346 0.0141479289941
v 0.0279133045032 -0.034012459948 0.014
v 0.0279133045032 -0.034012459948 0.0141479289941
f 25 1 49
f 3 2 1
f 3 1 25
f 6 2 8
f 6 8 5
f 47 49 50
f 31 25 49
f 31 49 47
f 52 54 53
f 52 2 54
f 43 50 54
f 32 52 53
f 32 8 2
f 32 2 52
f 15 43 54
f 9 54 2
f 9 15 54
f 5 53 49
f 5 49 1
f 6 5 1
f 6 1 2
f 54 49 53
f 54 50 49
f 32 53 5
f 32 5 8
f 9 3 25
f 9 2 3
f 9 25 31
f 9 47 50
f 9 31 47
f 9 50 43
f 9 43 15
