# Parametric PetalDock simulation geometry; SI units
v -0.0018403611471 -0.0499661192294 0.014
v -0.0018403611471 -0.0499661192294 0.0281666666667
v -0.0018375593641 -0.0498900503423 0.0284881600858
v -0.0018295805611 -0.0496734244796 0.0287949920093
v -0.0018176394385 -0.049349220965 0.0291121077565
v -0.0018035539241 -0.0489667968448 0.014
v -0.0018035539241 -0.0489667968448 0.0293888888889
v -0.0012270614261 -0.0499849409348 0.014
v -0.0012270614261 -0.0499849409348 0.0281666666667
v -0.0012251933364 -0.0499088433934 0.0284881600858
v -0.0012198734667 -0.04969213593 0.0287949920093
v -0.0012119117192 -0.0493678102914 0.0291121077565
v -0.0012025201976 -0.0489852421161 0.014
v -0.0012025201976 -0.0489852421161 0.0293888888889
f 4 7 6
f 9 10 2
f 3 2 10
f 3 10 4
f 3 1 2
f 3 6 1
f 3 4 6
f 12 14 7
f 11 9 14
f 11 14 12
f 11 10 9
f 11 4 10
f 11 12 4
f 5 7 4
f 5 12 7
f 5 4 12
f 6 13 8
f 6 8 1
f 9 1 8
f 9 2 1
f 14 13 6
f 14 6 7
f 14 8 13
f 14 9 8
