# Parametric PetalDock simulation geometry; SI units
v -0.0199818643663 0.0262626178521 0.014
v -0.0199818643663 0.0262626178521 0.0172674318796
v -0.0197501453227 0.0259580642538 0.0174435691123
v -0.0196580770483 0.0265058485389 0.014
v -0.0196580770483 0.0265058485389 0.0175394112061
v -0.0195537034029 0.0256998761801 0.0175224696596
v -0.0194301127937 0.0261984743238 0.0177053859285
v -0.0194224451085 0.0255273604247 0.0174900216176
v -0.0193763533249 0.0254667809475 0.014
v -0.0193763533249 0.0254667809475 0.0174154613193
v -0.0192368540305 0.0259378950467 0.017775400725
v -0.0191077226533 0.0257637815402 0.0177367961011
v -0.0190623777438 0.0257026410074 0.014
v -0.0190623777438 0.0257026410074 0.0176566951567
f 7 4 5
f 7 13 4
f 7 11 13
f 12 10 14
f 12 14 13
f 12 13 11
f 3 1 9
f 3 2 1
f 3 5 2
f 3 7 5
f 8 9 10
f 8 12 11
f 8 10 12
f 6 3 9
f 6 9 8
f 6 8 11
f 6 11 7
f 6 7 3
f 9 4 13
f 9 1 4
f 14 9 13
f 14 10 9
f 2 4 1
f 2 5 4
