# Parametric PetalDock simulation geometry; SI units
v 0.0295641450404 -0.0122458698357 0.014
v 0.0295641450404 -0.0122458698357 0.0225
v 0.0296344711823 -0.0122749998775 0.0226913417162
v 0.0297121945751 -0.0118821502065 0.014
v 0.0297121945751 -0.0118821502065 0.0227421652422
v 0.0297828728921 -0.0119104150448 0.0229390689969
v 0.0298347430904 -0.012357955218 0.0228535533906
v 0.0299841477097 -0.0119909064946 0.0231074610239
v 0.0301344711823 -0.0124821066586 0.0229619397663
v 0.0302853767618 -0.0121113704621 0.0232247674581
v 0.0304880245729 -0.012628553268 0.014
v 0.0304880245729 -0.012628553268 0.023
v 0.0306407006556 -0.0122534674004 0.014
v 0.0306407006556 -0.0122534674004 0.0232730294397
f 7 11 12
f 7 1 11
f 6 13 4
f 9 12 14
f 9 7 12
f 10 14 13
f 10 13 6
f 10 9 14
f 10 7 9
f 5 6 4
f 8 7 10
f 8 10 6
f 2 6 5
f 3 2 1
f 3 1 7
f 3 6 2
f 3 7 8
f 3 8 6
f 12 13 14
f 12 11 13
f 4 13 11
f 4 11 1
f 2 4 1
f 2 5 4
