# Parametric PetalDock simulation geometry; SI units
v -0.0369717181838 -0.0087802081147 0.014
v -0.0369717181838 -0.0087802081147 0.028
v -0.0368611876214 -0.0092332468363 0.014
v -0.0368611876214 -0.0092332468363 0.0276153846154
v -0.0367284831958 -0.0087224435876 0.0279839248971
v -0.0366186798081 -0.0091725017913 0.0276005460589
v -0.0364852482077 -0.0086646790605 0.0279356995885
v -0.0363761719948 -0.0091117567464 0.0275560303894
v -0.0362420132197 -0.0086069145335 0.0278611111111
v -0.0361336641815 -0.0090510117014 0.0274871794872
v -0.0359987782316 -0.0085491500064 0.0277839506173
v -0.0358911563682 -0.0089902666564 0.027415954416
v -0.0357555432436 -0.0084913854793 0.0277067901235
v -0.0356486485549 -0.0089295216114 0.0273447293447
v -0.0355123082555 -0.0084336209522 0.0276296296296
v -0.0354061407416 -0.0088687765665 0.0272735042735
v -0.0352690732675 -0.0083758564252 0.0275524691358
v -0.0351636329283 -0.0088080315215 0.0272022792023
v -0.0350258382794 -0.0083180918981 0.027475308642
v -0.034921125115 -0.0087472864765 0.0271310541311
v -0.0347826032913 -0.008260327371 0.0273981481481
v -0.0346786173017 -0.0086865414315 0.0270598290598
v -0.0345393683033 -0.008202562844 0.0273209876543
v -0.0344361094884 -0.0086257963866 0.0269886039886
v -0.0342961333152 -0.0081447983169 0.0272438271605
v -0.0341936016751 -0.0085650513416 0.0269173789174
v -0.0340528983272 -0.0080870337898 0.0271666666667
v -0.0339510938618 -0.0085043062966 0.0268461538462
v -0.0338096633391 -0.0080292692628 0.0270895061728
v -0.0337085860485 -0.0084435612516 0.0267749287749
v -0.0335664283511 -0.0079715047357 0.027012345679
v -0.0334660782352 -0.0083828162067 0.0267037037037
v -0.033323193363 -0.0079137402086 0.0269351851852
v -0.0332235704219 -0.0083220711617 0.0266324786325
v -0.033079958375 -0.0078559756815 0.0268580246914
v -0.0329810626086 -0.0082613261167 0.0265612535613
v -0.0328367233869 -0.0077982111545 0.0267808641975
v -0.0327385547953 -0.0082005810717 0.02649002849
v -0.0325934883989 -0.0077404466274 0.0267037037037
v -0.032496046982 -0.0081398360268 0.0264188034188
v -0.0323502534108 -0.0076826821003 0.0266265432099
v -0.0322535391687 -0.0080790909818 0.0263475783476
v -0.0321070184228 -0.0076249175733 0.014
v -0.0321070184228 -0.0076249175733 0.026549382716
v -0.0320110313554 -0.0080183459368 0.014
v -0.0320110313554 -0.0080183459368 0.0262763532764
f 8 4 3
f 40 3 45
f 7 15 1
f 35 43 1
f 35 1 15
f 5 1 2
f 5 7 1
f 5 2 4
f 5 8 7
f 10 8 16
f 10 7 8
f 46 40 45
f 46 9 7
f 6 4 8
f 6 5 4
f 6 8 5
f 41 46 44
f 41 44 43
f 41 43 35
f 12 7 10
f 12 46 7
f 11 9 46
f 13 35 15
f 13 9 11
f 13 15 7
f 13 7 9
f 25 46 41
f 25 11 46
f 4 2 1
f 4 1 3
f 43 3 1
f 43 45 3
f 40 16 8
f 40 8 3
f 46 45 43
f 46 43 44
f 12 16 40
f 12 10 16
f 12 40 46
f 25 35 13
f 25 41 35
f 25 13 11
