# Parametric PetalDock simulation geometry; SI units
v -0.0114978164482 0.0309321873931 0.014
v -0.0114978164482 0.0309321873931 0.0238190883191
v -0.0113644823918 0.0305734832827 0.0237504228419
v -0.0112514472367 0.0302693886215 0.0236152762904
v -0.0111759195608 0.030066199065 0.0234345235584
v -0.011149397768 0.0299948483812 0.014
v -0.011149397768 0.0299948483812 0.0232264957265
v -0.0111173651619 0.031070954151 0.014
v -0.0111173651619 0.031070954151 0.0240921177588
v -0.0109884429965 0.0307106408365 0.0240132505338
v -0.0108791480621 0.0304051819578 0.0238691839237
v -0.0108061195217 0.0302010808603 0.0236822508392
v -0.0107804753086 0.0301294100859 0.014
v -0.0107804753086 0.0301294100859 0.0234686609687
f 3 1 6
f 3 2 1
f 3 6 7
f 3 9 2
f 10 13 8
f 10 8 9
f 10 9 3
f 10 3 4
f 12 7 14
f 12 14 13
f 12 13 10
f 5 7 12
f 5 3 7
f 5 4 3
f 11 10 4
f 11 12 10
f 11 4 5
f 11 5 12
f 6 8 13
f 6 1 8
f 2 8 1
f 2 9 8
f 14 6 13
f 14 7 6
