# Parametric PetalDock simulation geometry; SI units
v 0.0089689545098 0.0481721688841 0.014
v 0.0089689545098 0.0481721688841 0.0276415004748
v 0.0090390008424 0.0485483870664 0.0274300105284
v 0.0090983832558 0.0488673294409 0.0271699831563
v 0.0091380613159 0.0490804399223 0.026902705489
v 0.0091519943978 0.0491552743716 0.014
v 0.0091519943978 0.0491552743716 0.0266168091168
v 0.0095594257788 0.0480584787398 0.014
v 0.0095594257788 0.0480584787398 0.0273684710351
v 0.0096340836128 0.0484338090173 0.0271671828365
v 0.0096973754684 0.0487519986624 0.026916075523
v 0.0097396657343 0.0489646061861 0.0266549782082
v 0.0097545161008 0.0490392640202 0.014
v 0.0097545161008 0.0490392640202 0.0263746438746
f 5 1 2
f 5 6 1
f 5 7 6
f 5 14 7
f 12 8 13
f 12 13 14
f 12 14 5
f 9 8 12
f 4 12 5
f 4 5 2
f 4 2 3
f 10 2 9
f 10 3 2
f 11 4 3
f 11 3 10
f 11 12 4
f 11 9 12
f 11 10 9
f 8 1 6
f 8 6 13
f 14 6 7
f 14 13 6
f 9 1 8
f 9 2 1
