# Parametric PetalDock simulation geometry; SI units
v 0.0316536483189 -0.0046953751826 0.014
v 0.0316536483189 -0.0046953751826 0.0273433048433
v 0.0317088843337 -0.0043065826722 0.014
v 0.0317088843337 -0.0043065826722 0.0275845386807
v 0.0317289448972 -0.0047065443749 0.0276458873312
v 0.0317843123055 -0.0043168270187 0.0278926618148
v 0.0319433714109 -0.0047383515435 0.0279317060562
v 0.0319991129961 -0.0043460004491 0.0281846371216
v 0.0322642833668 -0.0047859543354 0.028218493604
v 0.0323205849475 -0.0043896615733 0.0284803104202
v 0.0326428248288 -0.004842105657 0.014
v 0.0326428248288 -0.004842105657 0.0284605887939
v 0.0326997869691 -0.0044411633807 0.014
v 0.0326997869691 -0.0044411633807 0.0287325681204
f 5 11 12
f 5 1 11
f 8 14 13
f 8 13 3
f 4 8 3
f 9 12 14
f 9 5 12
f 2 1 5
f 6 5 8
f 6 8 4
f 6 4 2
f 6 2 5
f 10 14 8
f 10 9 14
f 7 8 5
f 7 5 9
f 7 10 8
f 7 9 10
f 12 13 14
f 12 11 13
f 3 13 11
f 3 11 1
f 2 3 1
f 2 4 3
