# Parametric PetalDock simulation geometry; SI units
v -0.0470772032592 -0.0168444926696 0.014
v -0.0470772032592 -0.0168444926696 0.0234686609687
v -0.0470055324847 -0.0168188484565 0.0236822508392
v -0.0468669505956 -0.0174209340125 0.014
v -0.0468669505956 -0.0174209340125 0.0232264957265
v -0.0468014313872 -0.0167458199161 0.0238691839237
v -0.0467955999118 -0.0173944122196 0.0234345235584
v -0.0465924103553 -0.0173188845437 0.0236152762904
v -0.0464959725086 -0.0166365249816 0.0240132505338
v -0.0462883156941 -0.0172058493887 0.0237504228419
v -0.046135659194 -0.0165076028162 0.014
v -0.046135659194 -0.0165076028162 0.0240921177588
v -0.0459296115837 -0.0170725153322 0.014
v -0.0459296115837 -0.0170725153322 0.0238190883191
f 10 14 12
f 10 4 13
f 10 13 14
f 5 4 10
f 5 10 8
f 9 10 12
f 9 6 8
f 9 8 10
f 9 11 1
f 9 1 2
f 9 12 11
f 7 8 6
f 7 5 8
f 3 2 5
f 3 5 7
f 3 7 6
f 3 9 2
f 3 6 9
f 11 13 4
f 11 4 1
f 14 13 11
f 14 11 12
f 5 1 4
f 5 2 1
