# Parametric PetalDock simulation geometry; SI units
v 0.0487640516069 0.0048028398761 0.014
v 0.0487640516069 0.0048028398761 0.0292838775659
v 0.048819317997 0.0042040683049 0.014
v 0.048819317997 0.0042040683049 0.0293626360581
v 0.049144892314 0.0048403494118 0.0290110201827
v 0.0492005903271 0.0042369015149 0.029086835863
v 0.0494677534757 0.0048721484607 0.0286973352273
v 0.0495238174012 0.0042647361662 0.0287705778138
v 0.049683482407 0.0048933959059 0.0283928803624
v 0.0497397908273 0.0042833346857 0.028464340155
v 0.0497592363336 0.0049008570165 0.014
v 0.0497592363336 0.0049008570165 0.0280735261889
v 0.0498156306091 0.0042898656172 0.014
v 0.0498156306091 0.0042898656172 0.0281433815472
f 8 3 13
f 8 13 14
f 8 4 3
f 5 2 4
f 12 5 7
f 12 2 5
f 6 4 8
f 6 5 4
f 6 8 7
f 6 7 5
f 9 7 8
f 9 12 7
f 10 14 12
f 10 12 9
f 10 8 14
f 10 9 8
f 3 11 13
f 3 1 11
f 2 1 3
f 2 3 4
f 12 13 11
f 12 14 13
f 12 11 1
f 12 1 2
