# Parametric PetalDock simulation geometry; SI units
v -0.0287128707066 0.0162656403436 0.014
v -0.0287128707066 0.0162656403436 0.020269705603
v -0.028511104252 0.0166167666629 0.014
v -0.028511104252 0.0166167666629 0.0199966761633
v -0.0283799028304 0.0160770163716 0.0203336628474
v -0.028180476154 0.0164240708659 0.0200708351555
v -0.028097626295 0.0159171086894 0.0203144770578
v -0.027909015144 0.0158102617922 0.0202140689087
v -0.0279001831867 0.0162607112572 0.0200605694245
v -0.0278427837155 0.0157727421514 0.014
v -0.0278427837155 0.0157727421514 0.0200783475783
v -0.0277128974136 0.0161515578564 0.0199663416279
v -0.0276471313959 0.0161132282792 0.014
v -0.0276471313959 0.0161132282792 0.0198361823362
f 2 5 6
f 12 13 3
f 4 2 6
f 4 12 3
f 9 6 5
f 9 4 6
f 9 12 4
f 14 13 12
f 7 12 9
f 7 9 5
f 7 10 11
f 7 1 10
f 7 2 1
f 7 5 2
f 8 12 7
f 8 7 11
f 8 11 14
f 8 14 12
f 10 3 13
f 10 1 3
f 4 3 1
f 4 1 2
f 14 10 13
f 14 11 10
