# Parametric PetalDock simulation geometry; SI units
v 0.0382561242 0.030618114919 0.014
v 0.0382561242 0.030618114919 0.0168473865878
v 0.0385548994024 0.0308572382926 0.0170392188171
v 0.0386289749537 0.0301463479385 0.014
v 0.0386289749537 0.0301463479385 0.017031156403
v 0.0388081887887 0.0310599573003 0.0171318425314
v 0.0389306620705 0.0303817868752 0.0172161220713
v 0.0389774313458 0.0311954098108 0.0171089027241
v 0.0390368614286 0.0312429744071 0.014
v 0.0390368614286 0.0312429744071 0.0170428994083
v 0.0391864200586 0.0305813823682 0.0173027419
v 0.0393573120827 0.0307147478127 0.01727564224
v 0.0394173213813 0.030761579529 0.014
v 0.0394173213813 0.030761579529 0.0172058952444
f 7 4 13
f 7 11 6
f 12 13 14
f 12 7 13
f 12 11 7
f 12 14 10
f 5 4 7
f 3 7 6
f 3 2 5
f 3 5 7
f 8 9 1
f 8 10 9
f 8 1 2
f 8 2 3
f 8 3 6
f 8 12 10
f 8 6 11
f 8 11 12
f 4 9 13
f 4 1 9
f 10 13 9
f 10 14 13
f 5 1 4
f 5 2 1
