# Parametric PetalDock simulation geometry; SI units
v 0.0437319066801 0.0048497771209 0.014
v 0.0437319066801 0.0048497771209 0.0316671597633
v 0.0437881279736 0.0043127541745 0.014
v 0.0437881279736 0.0043127541745 0.0318520710059
v 0.0439803834226 0.0048773326728 0.0316392946663
v 0.0440369241552 0.0043372584596 0.0318236114155
v 0.0442288601651 0.0049048882246 0.0315556993754
v 0.0442857203369 0.0043617627447 0.0317382326442
v 0.0444773369076 0.0049324437764 0.0314264053254
v 0.0445345165186 0.0043862670297 0.0316061801446
v 0.0447258136501 0.0049599993282 0.03129265286
v 0.0447833127002 0.0044107713148 0.0314695741106
v 0.0449742903926 0.00498755488 0.0311589003945
v 0.0450321088819 0.0044352755999 0.0313329680766
v 0.0452227671351 0.0050151104319 0.031025147929
v 0.0452809050636 0.004459779885 0.0311963620425
v 0.0454712438776 0.0050426659837 0.0308913954635
v 0.0455297012453 0.0044842841701 0.0310597560085
v 0.0457197206201 0.0050702215355 0.030757642998
v 0.0457784974269 0.0045087884552 0.0309231499744
v 0.0459681973626 0.0050977770873 0.0306238905325
v 0.0460272936086 0.0045332927402 0.0307865439404
v 0.0462166741051 0.0051253326392 0.0304901380671
v 0.0462760897903 0.0045577970253 0.0306499379063
v 0.0464651508476 0.005152888191 0.0303563856016
v 0.0465248859719 0.0045823013104 0.0305133318723
v 0.0467136275901 0.0051804437428 0.0302226331361
v 0.0467736821536 0.0046068055955 0.0303767258383
v 0.0469621043326 0.0052079992946 0.0300888806706
v 0.0470224783353 0.0046313098806 0.0302401198042
v 0.0472105810751 0.0052355548465 0.0299551282051
v 0.0472712745169 0.0046558141657 0.0301035137702
v 0.0474590578176 0.0052631103983 0.0298213757396
v 0.0475200706986 0.0046803184507 0.0299669077361
v 0.0477075345601 0.0052906659501 0.0296876232742
v 0.0477688668803 0.0047048227358 0.0298303017021
v 0.0479560113026 0.0053182215019 0.0295538708087
v 0.0480176630619 0.0047293270209 0.0296936956681
v 0.0482044880451 0.0053457770538 0.0294201183432
v 0.0482664592436 0.004753831306 0.029557089634
v 0.0484529647876 0.0053733326056 0.0292863658777
v 0.0485152554253 0.0047783355911 0.0294204836
v 0.0487014415301 0.0054008881574 0.014
v 0.0487014415301 0.0054008881574 0.0291526134122
v 0.0487640516069 0.0048028398761 0.014
v 0.0487640516069 0.0048028398761 0.0292838775659
f 5 43 1
f 5 1 2
f 5 2 4
f 10 3 45
f 10 45 46
f 10 4 3
f 9 8 10
f 6 4 10
f 6 10 8
f 6 5 4
f 42 46 44
f 7 8 9
f 7 5 6
f 7 6 8
f 22 10 46
f 35 23 10
f 11 9 10
f 11 10 23
f 39 43 5
f 39 44 43
f 39 23 35
f 39 10 44
f 39 35 10
f 36 46 42
f 36 22 46
f 18 42 44
f 18 36 42
f 18 22 36
f 15 9 11
f 15 11 23
f 15 7 9
f 15 5 7
f 14 44 10
f 14 18 44
f 14 10 22
f 14 22 18
f 3 43 45
f 3 1 43
f 2 1 3
f 2 3 4
f 44 45 43
f 44 46 45
f 15 23 39
f 15 39 5
