# Parametric PetalDock simulation geometry; SI units
v -0.0326586421477 -0.0378604423253 0.014
v -0.0326586421477 -0.0378604423253 0.0168333333333
v -0.0326089223255 -0.0378028032339 0.0168945233466
v -0.0324673322513 -0.037638660989 0.0169121147719
v -0.0322554277302 -0.0373930047592 0.016811771776
v -0.0321915771445 -0.0382583632811 0.014
v -0.0321915771445 -0.0382583632811 0.0168566184528
v -0.0321425683865 -0.0382001183912 0.0169183432774
v -0.0320054693047 -0.0371032334788 0.014
v -0.0320054693047 -0.0371032334788 0.0166111111111
v -0.0320030032515 -0.0380342509778 0.0169365289674
v -0.0317941292663 -0.037786012851 0.0168370436695
v -0.0315477456016 -0.0374931960155 0.014
v -0.0315477456016 -0.0374931960155 0.0166373639419
f 11 6 13
f 14 11 13
f 8 6 11
f 8 7 6
f 12 11 14
f 2 7 8
f 4 11 12
f 5 2 4
f 5 9 1
f 5 10 9
f 5 1 2
f 5 4 12
f 5 14 10
f 5 12 14
f 3 2 8
f 3 4 2
f 3 8 11
f 3 11 4
f 9 13 6
f 9 6 1
f 14 13 9
f 14 9 10
f 2 1 6
f 2 6 7
