# Parametric PetalDock simulation geometry; SI units
v 0.0257026410074 0.0190623777438 0.014
v 0.0257026410074 0.0190623777438 0.0176566951567
v 0.0257637815402 0.0191077226533 0.0177367961011
v 0.0259346303441 0.0187455314386 0.014
v 0.0259346303441 0.0187455314386 0.0178988603989
v 0.0259378950467 0.0192368540305 0.017775400725
v 0.0259963227249 0.0187901226454 0.0179845233819
v 0.0261720077616 0.0189171076587 0.0180293083583
v 0.0261984743238 0.0194301127937 0.0177053859285
v 0.0264349389999 0.0191071541613 0.0179682136204
v 0.0265058485389 0.0196580770483 0.014
v 0.0265058485389 0.0196580770483 0.0175394112061
v 0.0267450875423 0.0193313292961 0.014
v 0.0267450875423 0.0193313292961 0.0178124406458
f 3 8 6
f 3 6 2
f 12 2 6
f 12 6 9
f 12 9 14
f 10 6 8
f 10 9 6
f 10 14 9
f 10 8 5
f 10 4 13
f 10 13 14
f 10 5 4
f 7 5 8
f 7 8 3
f 7 2 5
f 7 3 2
f 4 11 13
f 4 1 11
f 2 1 4
f 2 4 5
f 12 11 1
f 12 1 2
f 12 13 11
f 12 14 13
