# Parametric PetalDock simulation geometry; SI units
v 0.0050834605867 -0.0315936453811 0.014
v 0.0050834605867 -0.0315936453811 0.0271011396011
v 0.0050955529428 -0.0316687992266 0.0273981600505
v 0.0051299890596 -0.0318828192714 0.0276777984229
v 0.0051815263505 -0.0322031229037 0.0279556659122
v 0.00524231873 -0.0325809467992 0.014
v 0.00524231873 -0.0325809467992 0.0281875593542
v 0.0054707804403 -0.0315288845564 0.014
v 0.0054707804403 -0.0315288845564 0.026858974359
v 0.0054837941392 -0.0316038843512 0.0271504327697
v 0.0055208540182 -0.0318174656966 0.0274238907896
v 0.0055763180467 -0.0321371127688 0.0276928382203
v 0.0056417423291 -0.0325141621988 0.014
v 0.0056417423291 -0.0325141621988 0.0279145299145
f 4 6 7
f 3 9 2
f 3 2 1
f 3 1 6
f 3 6 4
f 5 4 7
f 11 4 5
f 12 13 8
f 12 8 9
f 12 14 13
f 12 11 5
f 12 7 14
f 12 5 7
f 10 12 9
f 10 11 12
f 10 9 3
f 10 3 4
f 10 4 11
f 8 13 6
f 8 6 1
f 2 8 1
f 2 9 8
f 14 6 13
f 14 7 6
