# Parametric PetalDock simulation geometry; SI units
v -0.0276614152833 0.0179957246179 0.014
v -0.0276614152833 0.0179957246179 0.0189045584046
v -0.027438497206 0.0183338176896 0.014
v -0.027438497206 0.0183338176896 0.0186315289649
v -0.0273406405759 0.0177870377796 0.0190195243879
v -0.0271203075608 0.018121210166 0.018756696696
v -0.0270687009099 0.0176101216207 0.0190449388914
v -0.0268869966342 0.0174919100226 0.0189754325049
v -0.0268505594048 0.0179409702105 0.0187910312581
v -0.0268231905778 0.0174503996295 0.014
v -0.0268231905778 0.0174503996295 0.0188675213675
v -0.0266703194493 0.0178205377225 0.0187277052241
v -0.0266070275937 0.0177782474566 0.014
v -0.0266070275937 0.0177782474566 0.0186253561254
f 6 13 3
f 6 9 13
f 4 6 3
f 4 2 6
f 5 7 9
f 5 9 6
f 5 6 2
f 5 2 11
f 5 11 7
f 12 14 13
f 12 13 9
f 12 9 7
f 8 11 14
f 8 14 12
f 8 7 11
f 8 12 7
f 10 3 13
f 10 1 3
f 11 1 10
f 11 2 1
f 14 10 13
f 14 11 10
f 4 3 1
f 4 1 2
