# Parametric PetalDock simulation geometry; SI units
v -0.0321915771445 -0.0382583632811 0.014
v -0.0321915771445 -0.0382583632811 0.0168566184528
v -0.0321425683865 -0.0382001183912 0.0169183432774
v -0.0320030032515 -0.0380342509778 0.0169365289674
v -0.0317941292663 -0.037786012851 0.0168370436695
v -0.0317196642082 -0.0386505226681 0.014
v -0.0317196642082 -0.0386505226681 0.0169264738111
v -0.0316713738948 -0.0385916807511 0.0169898030699
v -0.0315477456016 -0.0374931960155 0.014
v -0.0315477456016 -0.0374931960155 0.0166373639419
v -0.0315338547172 -0.0384241131483 0.0170097715539
v -0.0313280427235 -0.0381733305083 0.0169128593498
v -0.031085270924 -0.0378775122148 0.014
v -0.031085270924 -0.0378775122148 0.0167161224341
f 8 7 6
f 8 6 13
f 8 13 14
f 8 14 11
f 12 11 14
f 3 8 11
f 4 11 12
f 4 3 11
f 2 7 8
f 2 8 3
f 5 4 12
f 5 14 10
f 5 12 14
f 5 3 4
f 5 2 3
f 5 9 1
f 5 10 9
f 5 1 2
f 9 13 6
f 9 6 1
f 14 13 9
f 14 9 10
f 2 1 6
f 2 6 7
