# Parametric PetalDock simulation geometry; SI units
v 0.0393571690426 -0.0291892659201 0.014
v 0.0393571690426 -0.0291892659201 0.0175394112061
v 0.0396645432576 -0.0294172301746 0.0177053859285
v 0.0397124027144 -0.0287040950154 0.014
v 0.0397124027144 -0.0287040950154 0.0178124406458
v 0.0399251225348 -0.0296104889379 0.017775400725
v 0.0400225512568 -0.0289282701501 0.0179682136204
v 0.0400992360412 -0.0297396203151 0.0177367961011
v 0.040160376574 -0.0297849652246 0.014
v 0.040160376574 -0.0297849652246 0.0176566951567
v 0.0402854824951 -0.0291183166528 0.0180293083583
v 0.0404611675318 -0.0292453016661 0.0179845233819
v 0.0405228599126 -0.0292898928728 0.014
v 0.0405228599126 -0.0292898928728 0.0178988603989
f 7 13 4
f 7 14 13
f 7 11 14
f 7 6 11
f 7 3 6
f 5 7 4
f 5 3 7
f 8 9 10
f 8 6 3
f 8 11 6
f 8 1 9
f 2 3 5
f 2 1 8
f 2 8 3
f 12 10 14
f 12 8 10
f 12 14 11
f 12 11 8
f 4 13 9
f 4 9 1
f 10 9 13
f 10 13 14
f 2 4 1
f 2 5 4
