# Parametric PetalDock simulation geometry; SI units
v -0.0193313292961 0.0267450875423 0.014
v -0.0193313292961 0.0267450875423 0.0178124406458
v -0.0191071541613 0.0264349389999 0.0179682136204
v -0.0190016703168 0.026980298834 0.014
v -0.0190016703168 0.026980298834 0.0180854700855
v -0.0189171076587 0.0261720077616 0.0180293083583
v -0.0187901226454 0.0259963227249 0.0179845233819
v -0.0187813180617 0.0266674226715 0.0182310413122
v -0.0187455314386 0.0259346303441 0.014
v -0.0187455314386 0.0259346303441 0.0178988603989
v -0.01859451244 0.0264021790684 0.0182832159916
v -0.0184696929141 0.026224948959 0.0182322506626
v -0.0184258621254 0.0261627140209 0.014
v -0.0184258621254 0.0261627140209 0.018141025641
f 12 10 14
f 3 5 2
f 7 1 9
f 7 9 10
f 7 12 11
f 7 10 12
f 8 5 3
f 8 11 12
f 8 12 14
f 8 13 4
f 8 14 13
f 8 4 5
f 6 2 1
f 6 1 7
f 6 3 2
f 6 7 11
f 6 11 8
f 6 8 3
f 9 4 13
f 9 1 4
f 14 9 13
f 14 10 9
f 2 4 1
f 2 5 4
