# Parametric PetalDock simulation geometry; SI units
v 0.0397124027144 0.0287040950154 0.014
v 0.0397124027144 0.0287040950154 0.0178124406458
v 0.0400225512568 0.0289282701501 0.0179682136204
v 0.0400616558444 0.0282146013795 0.014
v 0.0400616558444 0.0282146013795 0.0180854700855
v 0.0402854824951 0.0291183166528 0.0180293083583
v 0.040374532007 0.0284349536346 0.0182310413122
v 0.0404611675318 0.0292453016661 0.0179845233819
v 0.0405228599126 0.0292898928728 0.014
v 0.0405228599126 0.0292898928728 0.0178988603989
v 0.04063977561 0.0286217592563 0.0182832159916
v 0.0408170057194 0.0287465787822 0.0182322506626
v 0.0408792406576 0.0287904095709 0.014
v 0.0408792406576 0.0287904095709 0.018141025641
f 5 14 11
f 7 11 6
f 7 5 11
f 8 10 9
f 8 9 1
f 8 6 11
f 8 1 2
f 8 2 6
f 3 2 5
f 3 5 7
f 3 6 2
f 3 7 6
f 12 14 10
f 12 10 8
f 12 11 14
f 12 8 11
f 4 9 13
f 4 1 9
f 5 4 13
f 5 13 14
f 5 1 4
f 5 2 1
f 10 13 9
f 10 14 13
