# Parametric PetalDock simulation geometry; SI units
v -0.0096404545669 -0.0429308937217 0.014
v -0.0096404545669 -0.0429308937217 0.0283846153846
v -0.0095856792569 -0.0426869681892 0.0283846153846
v -0.0095309039468 -0.0424430426567 0.0283846153846
v -0.0094761286368 -0.0421991171242 0.0283846153846
v -0.0094213533267 -0.0419551915917 0.0283846153846
v -0.0093665780167 -0.0417112660591 0.0283846153846
v -0.0093118027067 -0.0414673405266 0.0283846153846
v -0.0092570273966 -0.0412234149941 0.0283846153846
v -0.0092022520866 -0.0409794894616 0.0283846153846
v -0.0091474767765 -0.0407355639291 0.0283846153846
v -0.0091129005525 -0.0430459643117 0.014
v -0.0091129005525 -0.0430459643117 0.0287692307692
v -0.0090927014665 -0.0404916383966 0.0283846153846
v -0.0090611227084 -0.042801384969 0.0287692307692
v -0.0090379261565 -0.0402477128641 0.0283846153846
v -0.0090093448644 -0.0425568056263 0.0287692307692
v -0.0089831508464 -0.0400037873316 0.0283846153846
v -0.0089575670203 -0.0423122262836 0.0287692307692
v -0.0089283755364 -0.0397598617991 0.0283846153846
v -0.0089057891763 -0.0420676469409 0.0287692307692
v -0.0088736002264 -0.0395159362666 0.0283846153846
v -0.0088540113322 -0.0418230675983 0.0287692307692
v -0.0088188249163 -0.0392720107341 0.0283846153846
v -0.0088022334882 -0.0415784882556 0.0287692307692
v -0.0087640496063 -0.0390280852015 0.0283846153846
v -0.0087504556441 -0.0413339089129 0.0287692307692
v -0.0087092742962 -0.038784159669 0.0283846153846
v -0.0086986778001 -0.0410893295702 0.0287692307692
v -0.0086544989862 -0.0385402341365 0.0283846153846
v -0.008646899956 -0.0408447502275 0.0287692307692
v -0.0085997236762 -0.038296308604 0.0283846153846
v -0.008595122112 -0.0406001708849 0.0287692307692
v -0.0085449483661 -0.0380523830715 0.0283846153846
v -0.0085433442679 -0.0403555915422 0.0287692307692
v -0.0084915664239 -0.0401110121995 0.0287692307692
v -0.0084901730561 -0.037808457539 0.0283846153846
v -0.0084397885798 -0.0398664328568 0.0287692307692
v -0.008435397746 -0.0375645320065 0.0283846153846
v -0.0083880107358 -0.0396218535141 0.0287692307692
v -0.008380622436 -0.037320606474 0.0283846153846
v -0.0083362328917 -0.0393772741715 0.0287692307692
v -0.008325847126 -0.0370766809415 0.014
v -0.008325847126 -0.0370766809415 0.0283846153846
v -0.0082844550477 -0.0391326948288 0.0287692307692
v -0.0082326772036 -0.0388881154861 0.0287692307692
v -0.0081808993596 -0.0386435361434 0.0287692307692
v -0.0081291215155 -0.0383989568007 0.0287692307692
v -0.0080773436715 -0.0381543774581 0.0287692307692
v -0.0080255658274 -0.0379097981154 0.0287692307692
v -0.0079737879834 -0.0376652187727 0.0287692307692
v -0.0079220101394 -0.03742063943 0.0287692307692
v -0.0078702322953 -0.0371760600873 0.014
v -0.0078702322953 -0.0371760600873 0.0287692307692
f 52 54 2
f 8 43 1
f 21 2 13
f 21 52 2
f 15 13 12
f 50 53 54
f 32 54 44
f 32 8 54
f 32 44 43
f 32 43 8
f 3 2 54
f 3 54 8
f 3 1 2
f 3 8 1
f 23 12 42
f 23 15 12
f 43 53 12
f 43 12 1
f 2 1 12
f 2 12 13
f 54 53 43
f 54 43 44
f 50 12 53
f 50 42 12
f 23 54 52
f 23 21 13
f 23 13 15
f 23 52 21
f 23 50 54
f 23 42 50
