# Parametric PetalDock simulation geometry; SI units
v -0.0493650709079 -0.0079429071667 0.014
v -0.0493650709079 -0.0079429071667 0.0271011396011
v -0.0492899170624 -0.0079308148106 0.0273981600505
v -0.0492638821194 -0.008548094438 0.014
v -0.0492638821194 -0.008548094438 0.026858974359
v -0.0491888823247 -0.0085350807391 0.0271504327697
v -0.0490758970176 -0.0078963786938 0.0276777984229
v -0.0489753009793 -0.0084980208601 0.0274238907896
v -0.0487555933852 -0.0078448414029 0.0279556659122
v -0.0486556539071 -0.0084425568316 0.0276928382203
v -0.0483777694897 -0.0077840490234 0.014
v -0.0483777694897 -0.0077840490234 0.0281875593542
v -0.0482786044771 -0.0083771325493 0.014
v -0.0482786044771 -0.0083771325493 0.0279145299145
f 10 14 12
f 10 8 14
f 9 10 12
f 9 7 8
f 9 8 10
f 9 11 1
f 9 1 2
f 9 12 11
f 6 5 14
f 6 14 8
f 6 8 7
f 3 6 7
f 3 9 2
f 3 7 9
f 3 2 5
f 3 5 6
f 11 13 4
f 11 4 1
f 14 13 11
f 14 11 12
f 5 1 4
f 5 2 1
f 5 4 13
f 5 13 14
