# Parametric PetalDock simulation geometry; SI units
v 0.0083771325493 0.0482786044771 0.014
v 0.0083771325493 0.0482786044771 0.0279145299145
v 0.0084425568316 0.0486556539071 0.0276928382203
v 0.0084980208601 0.0489753009793 0.0274238907896
v 0.0085350807391 0.0491888823247 0.0271504327697
v 0.008548094438 0.0492638821194 0.014
v 0.008548094438 0.0492638821194 0.026858974359
v 0.0089689545098 0.0481721688841 0.014
v 0.0089689545098 0.0481721688841 0.0276415004748
v 0.0090390008424 0.0485483870664 0.0274300105284
v 0.0090983832558 0.0488673294409 0.0271699831563
v 0.0091380613159 0.0490804399223 0.026902705489
v 0.0091519943978 0.0491552743716 0.014
v 0.0091519943978 0.0491552743716 0.0266168091168
f 3 1 2
f 3 6 1
f 10 8 13
f 10 13 14
f 10 3 2
f 5 7 6
f 5 6 3
f 5 14 7
f 9 10 2
f 9 8 10
f 12 14 5
f 11 10 14
f 11 14 12
f 11 3 10
f 4 12 5
f 4 11 12
f 4 5 3
f 4 3 11
f 8 1 6
f 8 6 13
f 14 6 7
f 14 13 6
f 9 1 8
f 9 2 1
