# Parametric PetalDock simulation geometry; SI units
v 0.0484696489883 0.0071897932483 0.014
v 0.0484696489883 0.0071897932483 0.0284605887939
v 0.048554229136 0.0065944547168 0.014
v 0.048554229136 0.0065944547168 0.0287325681204
v 0.0488481904503 0.0072459445699 0.028218493604
v 0.0489334311576 0.0066459565243 0.0284803104202
v 0.0491691024063 0.0072935473618 0.0279317060562
v 0.049254903109 0.0066896176485 0.0281846371216
v 0.0493835289199 0.0073253545305 0.0276458873312
v 0.0494588254982 0.0073365237228 0.014
v 0.0494588254982 0.0073365237228 0.0273433048433
v 0.0494697037995 0.0067187910789 0.0278926618148
v 0.0495451317714 0.0067290354254 0.014
v 0.0495451317714 0.0067290354254 0.0275845386807
f 9 10 1
f 9 1 2
f 11 10 9
f 12 3 13
f 12 13 14
f 12 4 3
f 12 14 11
f 12 11 9
f 5 2 4
f 5 9 2
f 6 4 12
f 6 5 4
f 8 12 9
f 8 6 12
f 7 5 6
f 7 6 8
f 7 9 5
f 7 8 9
f 3 10 13
f 3 1 10
f 2 1 3
f 2 3 4
f 11 13 10
f 11 14 13
