# Parametric PetalDock simulation geometry; SI units
v 0.0241069447982 -0.0293743972278 0.014
v 0.0241069447982 -0.0293743972278 0.0141479289941
v 0.0242655431193 -0.0295676498411 0.0141479289941
v 0.0244241414403 -0.0297609024545 0.0141479289941
v 0.0244655986298 -0.0290763560937 0.014
v 0.0244655986298 -0.0290763560937 0.0140369822485
v 0.0245827397613 -0.0299541550678 0.0141479289941
v 0.0246265565155 -0.0292676479101 0.0140369822485
v 0.0247413380824 -0.0301474076811 0.0141479289941
v 0.0247875144013 -0.0294589397265 0.0140369822485
v 0.0248999364034 -0.0303406602945 0.0141479289941
v 0.024948472287 -0.0296502315429 0.0140369822485
v 0.0250585347245 -0.0305339129078 0.0141479289941
v 0.0251094301727 -0.0298415233593 0.0140369822485
v 0.0252171330455 -0.0307271655212 0.0141479289941
v 0.0252703880584 -0.0300328151757 0.0140369822485
v 0.0253757313665 -0.0309204181345 0.0141479289941
v 0.0254313459441 -0.0302241069921 0.0140369822485
v 0.0255343296876 -0.0311136707479 0.0141479289941
v 0.0255923038299 -0.0304153988085 0.0140369822485
v 0.0256929280086 -0.0313069233612 0.0141479289941
v 0.0257532617156 -0.0306066906249 0.0140369822485
v 0.0258515263297 -0.0315001759745 0.0141479289941
v 0.0259142196013 -0.0307979824413 0.0140369822485
v 0.0260101246507 -0.0316934285879 0.0141479289941
v 0.026075177487 -0.0309892742577 0.0140369822485
v 0.0261687229718 -0.0318866812012 0.0141479289941
v 0.0262361353728 -0.0311805660741 0.0140369822485
v 0.0263273212928 -0.0320799338146 0.0141479289941
v 0.0263970932585 -0.0313718578905 0.0140369822485
v 0.0264859196138 -0.0322731864279 0.0141479289941
v 0.0265580511442 -0.0315631497069 0.0140369822485
v 0.0266445179349 -0.0324664390412 0.0141479289941
v 0.0267190090299 -0.0317544415233 0.0140369822485
v 0.0268031162559 -0.0326596916546 0.0141479289941
v 0.0268799669156 -0.0319457333397 0.0140369822485
v 0.026961714577 -0.0328529442679 0.0141479289941
v 0.0270409248014 -0.0321370251561 0.0140369822485
v 0.027120312898 -0.0330461968813 0.0141479289941
v 0.0272018826871 -0.0323283169725 0.0140369822485
v 0.027278911219 -0.0332394494946 0.0141479289941
v 0.0273628405728 -0.032519608789 0.0140369822485
v 0.0274375095401 -0.0334327021079 0.0141479289941
v 0.0275237984585 -0.0327109006054 0.0140369822485
v 0.0275961078611 -0.0336259547213 0.0141479289941
v 0.0276847563443 -0.0329021924218 0.0140369822485
v 0.0277547061822 -0.0338192073346 0.0141479289941
v 0.02784571423 -0.0330934842382 0.0140369822485
v 0.0279133045032 -0.034012459948 0.014
v 0.0279133045032 -0.034012459948 0.0141479289941
v 0.0280066721157 -0.0332847760546 0.0140369822485
v 0.0281676300014 -0.033476067871 0.0140369822485
v 0.0283285878872 -0.0336673596874 0.014
v 0.0283285878872 -0.0336673596874 0.0140369822485
f 28 53 5
f 7 2 1
f 7 1 17
f 41 49 50
f 10 5 6
f 10 28 5
f 10 6 2
f 10 2 28
f 38 54 53
f 38 53 28
f 38 28 2
f 38 2 54
f 3 54 2
f 47 50 54
f 27 54 3
f 27 47 54
f 5 53 49
f 5 49 1
f 6 5 1
f 6 1 2
f 41 1 49
f 41 17 1
f 54 49 53
f 54 50 49
f 27 7 17
f 27 2 7
f 27 17 41
f 27 41 50
f 27 3 2
f 27 50 47
