# Parametric PetalDock simulation geometry; SI units
v 0.0422589428543 -0.0122548663329 0.014
v 0.0422589428543 -0.0122548663329 0.0264615384615
v 0.042406146895 -0.0117353613289 0.014
v 0.042406146895 -0.0117353613289 0.0268461538462
v 0.0424990504841 -0.0123244962553 0.0264504095442
v 0.0426470909114 -0.0118020395183 0.0268337883824
v 0.042739158114 -0.0123941261776 0.026417022792
v 0.0428880349279 -0.0118687177076 0.0267966919911
v 0.0429792657438 -0.0124637561 0.0263653846154
v 0.0431289789443 -0.011935395897 0.0267393162393
v 0.0432193733737 -0.0125333860223 0.026311965812
v 0.0433699229608 -0.0120020740864 0.0266799620133
v 0.0434594810036 -0.0126030159447 0.0262585470085
v 0.0436108669772 -0.0120687522757 0.0266206077873
v 0.0436995886334 -0.012672645867 0.0262051282051
v 0.0438518109937 -0.0121354304651 0.0265612535613
v 0.0439396962633 -0.0127422757894 0.0261517094017
v 0.0440927550101 -0.0122021086545 0.0265018993352
v 0.0441798038931 -0.0128119057117 0.0260982905983
v 0.0443336990266 -0.0122687868438 0.0264425451092
v 0.044419911523 -0.0128815356341 0.0260448717949
v 0.044574643043 -0.0123354650332 0.0263831908832
v 0.0446600191528 -0.0129511655564 0.0259914529915
v 0.0448155870595 -0.0124021432226 0.0263238366572
v 0.0449001267827 -0.0130207954788 0.025938034188
v 0.0450565310759 -0.012468821412 0.0262644824311
v 0.0451402344125 -0.0130904254011 0.0258846153846
v 0.0452974750924 -0.0125354996013 0.0262051282051
v 0.0453803420424 -0.0131600553234 0.0258311965812
v 0.0455384191088 -0.0126021777907 0.0261457739791
v 0.0456204496722 -0.0132296852458 0.0257777777778
v 0.0457793631253 -0.0126688559801 0.0260864197531
v 0.0458605573021 -0.0132993151681 0.0257243589744
v 0.0460203071417 -0.0127355341694 0.0260270655271
v 0.0461006649319 -0.0133689450905 0.0256709401709
v 0.0462612511582 -0.0128022123588 0.025967711301
v 0.0463407725618 -0.0134385750128 0.0256175213675
v 0.0465021951746 -0.0128688905482 0.025908357075
v 0.0465808801917 -0.0135082049352 0.0255641025641
v 0.0467431391911 -0.0129355687375 0.025849002849
v 0.0468209878215 -0.0135778348575 0.0255106837607
v 0.0469840832075 -0.0130022469269 0.025789648623
v 0.0470610954514 -0.0136474647799 0.014
v 0.0470610954514 -0.0136474647799 0.0254572649573
v 0.047225027224 -0.0130689251163 0.014
v 0.047225027224 -0.0130689251163 0.025730294397
f 9 1 43
f 5 2 1
f 5 1 9
f 5 4 2
f 8 3 4
f 25 9 43
f 25 43 35
f 6 4 5
f 6 8 4
f 7 5 9
f 7 9 8
f 7 6 5
f 7 8 6
f 44 35 43
f 44 25 35
f 10 8 44
f 21 9 25
f 21 25 44
f 21 8 9
f 21 44 8
f 16 44 46
f 12 10 44
f 12 44 16
f 40 46 45
f 40 45 3
f 34 16 46
f 34 46 40
f 34 40 16
f 20 16 40
f 20 3 8
f 20 40 3
f 14 16 20
f 14 8 10
f 14 20 8
f 3 45 43
f 3 43 1
f 2 3 1
f 2 4 3
f 44 43 45
f 44 45 46
f 14 12 16
f 14 10 12
