# Parametric PetalDock simulation geometry; SI units
v 0.0212160859715 -0.0385470841446 0.014
v 0.0212160859715 -0.0385470841446 0.0195384615385
v 0.0213366319145 -0.0387661016681 0.0195495904558
v 0.0214571778575 -0.0389851191917 0.019582977208
v 0.0215777238005 -0.0392041367152 0.0196346153846
v 0.0216875204581 -0.0382838276088 0.014
v 0.0216875204581 -0.0382838276088 0.0191538461538
v 0.0216982697436 -0.0394231542388 0.019688034188
v 0.0218107450062 -0.0385013493566 0.0191662116176
v 0.0218188156866 -0.0396421717623 0.0197414529915
v 0.0219339695542 -0.0387188711043 0.0192033080089
v 0.0219393616296 -0.0398611892859 0.0197948717949
v 0.0220571941023 -0.0389363928521 0.0192606837607
v 0.0220599075726 -0.0400802068094 0.0198482905983
v 0.0221804186503 -0.0391539145999 0.0193200379867
v 0.0221804535156 -0.040299224333 0.0199017094017
v 0.0223009994587 -0.0405182418565 0.0199551282051
v 0.0223036431984 -0.0393714363477 0.0193793922127
v 0.0224215454017 -0.0407372593801 0.0200085470085
v 0.0224268677465 -0.0395889580954 0.0194387464387
v 0.0225420913447 -0.0409562769036 0.020061965812
v 0.0225500922945 -0.0398064798432 0.0194981006648
v 0.0226626372877 -0.0411752944272 0.0201153846154
v 0.0226733168426 -0.040024001591 0.0195574548908
v 0.0227831832307 -0.0413943119507 0.0201688034188
v 0.0227965413906 -0.0402415233388 0.0196168091168
v 0.0229037291738 -0.0416133294743 0.0202222222222
v 0.0229197659387 -0.0404590450866 0.0196761633428
v 0.0230242751168 -0.0418323469978 0.0202756410256
v 0.0230429904867 -0.0406765668343 0.0197355175689
v 0.0231448210598 -0.0420513645214 0.0203290598291
v 0.0231662150348 -0.0408940885821 0.0197948717949
v 0.0232653670028 -0.0422703820449 0.0203824786325
v 0.0232894395829 -0.0411116103299 0.0198542260209
v 0.0233859129458 -0.0424893995685 0.0204358974359
v 0.0234126641309 -0.0413291320777 0.0199135802469
v 0.0235064588889 -0.042708417092 0.0204893162393
v 0.023535888679 -0.0415466538254 0.0199729344729
v 0.0236270048319 -0.0429274346156 0.014
v 0.0236270048319 -0.0429274346156 0.0205427350427
v 0.023659113227 -0.0417641755732 0.020032288699
v 0.0237823377751 -0.041981697321 0.020091642925
v 0.0239055623231 -0.0421992190688 0.020150997151
v 0.0240287868712 -0.0424167408165 0.020210351377
v 0.0241520114193 -0.0426342625643 0.014
v 0.0241520114193 -0.0426342625643 0.020269705603
f 46 2 40
f 46 7 2
f 16 1 39
f 20 45 6
f 20 46 45
f 20 7 46
f 35 39 40
f 35 16 39
f 35 40 2
f 35 2 16
f 4 2 1
f 4 1 16
f 4 16 2
f 9 6 7
f 9 7 20
f 9 20 6
f 6 45 39
f 6 39 1
f 2 6 1
f 2 7 6
f 46 39 45
f 46 40 39
