# Parametric PetalDock simulation geometry; SI units
v 0.0198568243862 -0.0447962780295 0.014
v 0.0198568243862 -0.0447962780295 0.0224539411206
v 0.0200119035232 -0.0451461309567 0.0224362843825
v 0.0201433732674 -0.0454427219472 0.022345738124
v 0.020231218542 -0.0456408977112 0.0221958871547
v 0.0202620657002 -0.0457104877852 0.014
v 0.0202620657002 -0.0457104877852 0.0220156695157
v 0.0204050484448 -0.0445492311714 0.014
v 0.0204050484448 -0.0445492311714 0.0221809116809
v 0.0205644091382 -0.0448971546958 0.0221734566906
v 0.0206995086106 -0.0451921100175 0.0220918304908
v 0.0207897791921 -0.0453891928626 0.0219481598739
v 0.0208214780049 -0.0454583991545 0.014
v 0.0208214780049 -0.0454583991545 0.0217735042735
f 3 2 7
f 3 7 4
f 5 7 14
f 5 4 7
f 12 14 9
f 12 5 14
f 12 4 5
f 10 9 2
f 10 2 3
f 10 12 9
f 11 3 4
f 11 10 3
f 11 4 12
f 11 12 10
f 7 2 1
f 7 1 6
f 8 6 1
f 8 13 6
f 14 7 6
f 14 6 13
f 9 1 2
f 9 8 1
f 9 13 8
f 9 14 13
