# Parametric PetalDock simulation geometry; SI units
v 0.0319397796128 0.0019622635617 0.014
v 0.0319397796128 0.0019622635617 0.0281666666667
v 0.0319614545986 0.0015701655785 0.014
v 0.0319614545986 0.0015701655785 0.0281666666667
v 0.0320157568302 0.0019669313248 0.0284881600858
v 0.0320374833756 0.0015739006328 0.0284881600858
v 0.0322321216396 0.0019802239895 0.0287949920093
v 0.0322539950147 0.0015845371676 0.0287949920093
v 0.0325559344604 0.0020001178681 0.0291121077565
v 0.0325780275814 0.0016004558668 0.0291121077565
v 0.0329378977257 0.002023584298 0.014
v 0.0329378977257 0.002023584298 0.0293888888889
v 0.0329602500548 0.0016192332528 0.014
v 0.0329602500548 0.0016192332528 0.0293888888889
f 6 3 13
f 6 4 3
f 6 13 14
f 6 2 4
f 5 12 2
f 5 2 6
f 10 14 12
f 10 12 9
f 10 6 14
f 10 8 6
f 7 9 12
f 7 12 5
f 7 8 10
f 7 10 9
f 7 6 8
f 7 5 6
f 3 11 13
f 3 1 11
f 2 11 1
f 2 12 11
f 2 1 3
f 2 3 4
f 14 13 11
f 14 11 12
