# Parametric PetalDock simulation geometry; SI units
v -0.0168444926696 0.0470772032592 0.014
v -0.0168444926696 0.0470772032592 0.0234686609687
v -0.0168188484565 0.0470055324847 0.0236822508392
v -0.0167458199161 0.0468014313872 0.0238691839237
v -0.0166365249816 0.0464959725086 0.0240132505338
v -0.0165076028162 0.046135659194 0.014
v -0.0165076028162 0.046135659194 0.0240921177588
v -0.0162655146081 0.047280366269 0.014
v -0.0162655146081 0.047280366269 0.0237108262108
v -0.0162407518366 0.0472083861974 0.0239299781199
v -0.0161702334295 0.0470034042958 0.024123091557
v -0.0160646951751 0.0466966272006 0.0242760782257
v -0.015940204316 0.0463347589436 0.014
v -0.015940204316 0.0463347589436 0.0243651471985
f 12 14 13
f 12 13 8
f 4 1 6
f 11 8 9
f 11 12 8
f 11 4 12
f 3 2 1
f 3 1 4
f 3 4 11
f 7 4 6
f 10 9 2
f 10 2 3
f 10 11 9
f 10 3 11
f 5 7 14
f 5 14 12
f 5 12 4
f 5 4 7
f 6 8 13
f 6 1 8
f 2 9 8
f 2 8 1
f 7 6 13
f 7 13 14
