# Parametric PetalDock simulation geometry; SI units
v 0.0488672323773 0.0036046636164 0.014
v 0.0488672323773 0.0036046636164 0.0293888888889
v 0.0489077875321 0.0030047160788 0.014
v 0.0489077875321 0.0030047160788 0.0293888888889
v 0.0492488789123 0.0036328155561 0.0291121077565
v 0.0492897507975 0.0030281825087 0.0291121077565
v 0.049572423222 0.0036566816182 0.0287949920093
v 0.0496135636182 0.0030480763873 0.0287949920093
v 0.0497886086182 0.003672628411 0.0284881600858
v 0.0498299284276 0.003061369052 0.0284881600858
v 0.0498645228339 0.00367822818 0.014
v 0.0498645228339 0.00367822818 0.0281666666667
v 0.049905905645 0.0030660368151 0.014
v 0.049905905645 0.0030660368151 0.0281666666667
f 7 1 2
f 7 11 1
f 5 7 2
f 12 11 7
f 9 14 12
f 9 12 7
f 6 2 4
f 6 5 2
f 6 7 5
f 10 4 14
f 10 14 9
f 8 6 4
f 8 4 10
f 8 7 6
f 8 9 7
f 8 10 9
f 3 11 13
f 3 1 11
f 12 13 11
f 12 14 13
f 4 1 3
f 4 2 1
f 4 3 13
f 4 13 14
