# Parametric PetalDock simulation geometry; SI units
v 0.0318820035898 -0.002745513995 0.014
v 0.0318820035898 -0.002745513995 0.0281433815472
v 0.0319132946137 -0.0023540660352 0.014
v 0.0319132946137 -0.0023540660352 0.0281666666667
v 0.0319578433717 -0.0027520449265 0.028464340155
v 0.0319892088295 -0.0023596658042 0.0284881600858
v 0.0321738167978 -0.002770643446 0.0287705778138
v 0.0322053942257 -0.002375612597 0.0287949920093
v 0.0324970438719 -0.0027984780974 0.029086835863
v 0.0325289385354 -0.0023994786591 0.0291121077565
v 0.032878316202 -0.0028313113074 0.014
v 0.032878316202 -0.0028313113074 0.0293626360581
v 0.0329105850704 -0.0024276305988 0.014
v 0.0329105850704 -0.0024276305988 0.0293888888889
f 8 14 13
f 8 13 3
f 4 8 3
f 10 14 8
f 7 10 8
f 6 4 2
f 6 8 4
f 9 7 12
f 9 10 7
f 9 12 14
f 9 14 10
f 5 2 7
f 5 6 2
f 5 7 8
f 5 8 6
f 12 13 14
f 12 11 13
f 3 13 11
f 3 11 1
f 4 3 1
f 4 1 2
f 7 11 12
f 7 1 11
f 7 2 1
