# Parametric PetalDock simulation geometry; SI units
v 0.047225027224 -0.0130689251163 0.014
v 0.047225027224 -0.0130689251163 0.025730294397
v 0.0473818470812 -0.0124884173206 0.014
v 0.0473818470812 -0.0124884173206 0.0260033238367
v 0.0475938483569 -0.0131709916698 0.0255902166852
v 0.0477518929562 -0.012585950186 0.025853044377
v 0.0479065198156 -0.0132575195157 0.0253926297234
v 0.0480656027011 -0.0126686345568 0.0256465373567
v 0.0481154402051 -0.013315335574 0.0251686145237
v 0.0481888032898 -0.0133356378737 0.014
v 0.0481888032898 -0.0133356378737 0.0249216524217
v 0.0482752168512 -0.0127238824871 0.0254163418045
v 0.0483488235522 -0.0127432829802 0.014
v 0.0483488235522 -0.0127432829802 0.0251638176638
f 9 1 10
f 5 2 1
f 5 1 9
f 5 4 2
f 11 9 10
f 12 11 14
f 12 9 11
f 6 13 3
f 6 14 13
f 6 3 4
f 6 4 5
f 8 12 14
f 8 14 6
f 8 9 12
f 7 6 5
f 7 8 6
f 7 5 9
f 7 9 8
f 3 13 10
f 3 10 1
f 2 3 1
f 2 4 3
f 11 10 13
f 11 13 14
