# Parametric PetalDock simulation geometry; SI units
v -0.0315477456016 -0.0374931960155 0.014
v -0.0315477456016 -0.0374931960155 0.0166373639419
v -0.0313867877159 -0.0373019041991 0.0164990457667
v -0.0312258298302 -0.0371106123827 0.0163607275915
v -0.031085270924 -0.0378775122148 0.014
v -0.031085270924 -0.0378775122148 0.0167161224341
v -0.0310648719444 -0.0369193205663 0.0162224094163
v -0.030926672603 -0.0376842596014 0.0165795164
v -0.0309039140587 -0.0367280287499 0.0160840912411
v -0.0307680742819 -0.0374910069881 0.016442910366
v -0.030742956173 -0.0365367369335 0.015945773066
v -0.0306094759609 -0.0372977543748 0.0163063043319
v -0.0305819982873 -0.0363454451171 0.0158074548908
v -0.0304508776399 -0.0371045017614 0.0161696982979
v -0.0304210404015 -0.0361541533007 0.0156691367156
v -0.0302922793188 -0.0369112491481 0.0160330922639
v -0.0302600825158 -0.0359628614843 0.0155308185404
v -0.0301336809978 -0.0367179965347 0.0158964862298
v -0.0300991246301 -0.0357715696678 0.0153925003653
v -0.0299750826767 -0.0365247439214 0.0157598801958
v -0.0299381667444 -0.0355802778514 0.0152541821901
v -0.0298164843557 -0.036331491308 0.0156232741617
v -0.0297772088587 -0.035388986035 0.0151158640149
v -0.0296578860347 -0.0361382386947 0.0154866681277
v -0.0296162509729 -0.0351976942186 0.0149775458397
v -0.0294992877136 -0.0359449860814 0.0153500620937
v -0.0294552930872 -0.0350064024022 0.0148392276645
v -0.0293406893926 -0.035751733468 0.0152134560596
v -0.0292943352015 -0.0348151105858 0.0147009094894
v -0.0291820910715 -0.0355584808547 0.0150768500256
v -0.0291333773158 -0.0346238187694 0.0145625913142
v -0.0290234927505 -0.0353652282413 0.0149402439915
v -0.02897241943 -0.034432526953 0.014424273139
v -0.0288648944294 -0.035171975628 0.0148036379575
v -0.0288114615443 -0.0342412351366 0.0142859549638
v -0.0287062961084 -0.0349787230147 0.0146670319234
v -0.0286505036586 -0.0340499433202 0.0141522473945
v -0.0285476977874 -0.0347854704013 0.0145304258894
v -0.0284895457729 -0.0338586515038 0.014065798535
v -0.0283890994663 -0.034592217788 0.0143938198554
v -0.0283285878872 -0.0336673596874 0.014
v -0.0283285878872 -0.0336673596874 0.0140369822485
v -0.0282305011453 -0.0343989651746 0.0142617673558
v -0.0280719028242 -0.0342057125613 0.0141763885845
v -0.0279133045032 -0.034012459948 0.014
v -0.0279133045032 -0.034012459948 0.0141479289941
f 46 2 6
f 10 6 5
f 10 5 34
f 10 46 6
f 42 2 46
f 44 10 34
f 44 46 10
f 44 45 46
f 44 5 45
f 44 34 5
f 4 1 2
f 4 23 1
f 4 2 42
f 4 42 23
f 41 1 23
f 41 23 42
f 2 5 6
f 2 1 5
f 41 5 1
f 41 45 5
f 41 46 45
f 41 42 46
