# Parametric PetalDock simulation geometry; SI units
v -0.0306407006556 -0.0122534674004 0.014
v -0.0306407006556 -0.0122534674004 0.0232730294397
v -0.0304880245729 -0.012628553268 0.014
v -0.0304880245729 -0.012628553268 0.023
v -0.0302853767618 -0.0121113704621 0.0232247674581
v -0.0301344711823 -0.0124821066586 0.0229619397663
v -0.0299841477097 -0.0119909064946 0.0231074610239
v -0.0298347430904 -0.012357955218 0.0228535533906
v -0.0297828728921 -0.0119104150448 0.0229390689969
v -0.0297121945751 -0.0118821502065 0.014
v -0.0297121945751 -0.0118821502065 0.0227421652422
v -0.0296344711823 -0.0122749998775 0.0226913417162
v -0.0295641450404 -0.0122458698357 0.014
v -0.0295641450404 -0.0122458698357 0.0225
f 8 4 3
f 8 3 13
f 9 10 1
f 6 2 4
f 6 4 8
f 5 1 2
f 5 9 1
f 5 2 6
f 5 6 8
f 11 10 9
f 7 5 8
f 7 9 5
f 14 11 9
f 12 13 14
f 12 8 13
f 12 14 9
f 12 7 8
f 12 9 7
f 4 2 1
f 4 1 3
f 10 3 1
f 10 13 3
f 14 13 10
f 14 10 11
