# Parametric PetalDock simulation geometry; SI units
v 0.0301294100859 -0.0107804753086 0.014
v 0.0301294100859 -0.0107804753086 0.0234686609687
v 0.0302010808603 -0.0108061195217 0.0236822508392
v 0.0302594344122 -0.0104099293492 0.014
v 0.0302594344122 -0.0104099293492 0.0237108262108
v 0.0303314144838 -0.0104346921207 0.0239299781199
v 0.0304051819578 -0.0108791480621 0.0238691839237
v 0.0305363963854 -0.0105052105278 0.024123091557
v 0.0307106408365 -0.0109884429965 0.0240132505338
v 0.0308431734806 -0.0106107487822 0.0242760782257
v 0.031070954151 -0.0111173651619 0.014
v 0.031070954151 -0.0111173651619 0.0240921177588
v 0.0312050417376 -0.0107352396414 0.014
v 0.0312050417376 -0.0107352396414 0.0243651471985
f 7 2 12
f 9 12 14
f 9 7 12
f 6 14 5
f 6 5 2
f 10 14 6
f 10 6 8
f 10 9 14
f 10 7 9
f 10 8 7
f 3 2 7
f 3 6 2
f 3 7 8
f 3 8 6
f 12 13 14
f 12 11 13
f 4 13 11
f 4 11 1
f 2 11 12
f 2 1 11
f 5 14 13
f 5 13 4
f 5 4 1
f 5 1 2
