# Parametric PetalDock simulation geometry; SI units
v 0.0419454657756 -0.01328826177 0.014
v 0.0419454657756 -0.01328826177 0.0256923076923
v 0.0421053747722 -0.0127725257992 0.014
v 0.0421053747722 -0.0127725257992 0.0260769230769
v 0.0421837922857 -0.0133637632574 0.0256836518677
v 0.0423446098562 -0.0128450969685 0.0260670307059
v 0.0424221187958 -0.0134392647447 0.0256576843938
v 0.0425838449401 -0.0129176681378 0.0260373535929
v 0.0426604453059 -0.013514766232 0.0256175213675
v 0.042823080024 -0.0129902393071 0.0259914529915
v 0.0428987718159 -0.0135902677194 0.0255759734093
v 0.0430623151079 -0.0130628104765 0.0259439696106
v 0.043137098326 -0.0136657692067 0.0255344254511
v 0.0433015501919 -0.0131353816458 0.0258964862298
v 0.0433754248361 -0.013741270694 0.0254928774929
v 0.0435407852758 -0.0132079528151 0.025849002849
v 0.0436137513462 -0.0138167721814 0.0254513295347
v 0.0437800203597 -0.0132805239844 0.0258015194682
v 0.0438520778563 -0.0138922736687 0.0254097815764
v 0.0440192554437 -0.0133530951537 0.0257540360874
v 0.0440904043664 -0.013967775156 0.0253682336182
v 0.0442584905276 -0.013425666323 0.0257065527066
v 0.0443287308765 -0.0140432766433 0.02532668566
v 0.0444977256115 -0.0134982374923 0.0256590693257
v 0.0445670573866 -0.0141187781307 0.0252851377018
v 0.0447369606955 -0.0135708086616 0.0256115859449
v 0.0448053838966 -0.014194279618 0.0252435897436
v 0.0449761957794 -0.013643379831 0.0255641025641
v 0.0450437104067 -0.0142697811053 0.0252020417854
v 0.0452154308633 -0.0137159510003 0.0255166191833
v 0.0452820369168 -0.0143452825927 0.0251604938272
v 0.0454546659473 -0.0137885221696 0.0254691358025
v 0.0455203634269 -0.01442078408 0.0251189458689
v 0.0456939010312 -0.0138610933389 0.0254216524217
v 0.045758689937 -0.0144962855673 0.0250773979107
v 0.0459331361151 -0.0139336645082 0.0253741690408
v 0.0459970164471 -0.0145717870547 0.0250358499525
v 0.0461723711991 -0.0140062356775 0.02532668566
v 0.0462353429572 -0.014647288542 0.0249943019943
v 0.046411606283 -0.0140788068468 0.0252792022792
v 0.0464736694673 -0.0147227900293 0.0249527540361
v 0.0466508413669 -0.0141513780162 0.0252317188984
v 0.0467119959774 -0.0147982915166 0.014
v 0.0467119959774 -0.0147982915166 0.0249112060779
v 0.0468900764509 -0.0142239491855 0.014
v 0.0468900764509 -0.0142239491855 0.0251842355176
f 37 1 43
f 37 17 1
f 5 2 1
f 5 4 2
f 11 1 17
f 11 5 1
f 26 45 3
f 26 3 10
f 6 3 4
f 6 4 5
f 40 46 45
f 40 45 26
f 40 26 10
f 7 5 11
f 7 6 5
f 31 37 44
f 31 17 37
f 34 46 40
f 34 40 10
f 34 44 46
f 34 10 44
f 9 7 11
f 8 6 7
f 8 7 9
f 8 9 11
f 8 11 17
f 8 17 31
f 8 44 10
f 8 31 44
f 3 45 43
f 3 43 1
f 2 3 1
f 2 4 3
f 44 43 45
f 44 45 46
f 44 37 43
f 8 3 6
f 8 10 3
