# Parametric PetalDock simulation geometry; SI units
v 0.0012025201976 -0.0489852421161 0.014
v 0.0012025201976 -0.0489852421161 0.0293888888889
v 0.0012119117192 -0.0493678102914 0.0291121077565
v 0.0012198734667 -0.04969213593 0.0287949920093
v 0.0012251933364 -0.0499088433934 0.0284881600858
v 0.0012270614261 -0.0499849409348 0.014
v 0.0012270614261 -0.0499849409348 0.0281666666667
v 0.0018035539241 -0.0489667968448 0.014
v 0.0018035539241 -0.0489667968448 0.0293888888889
v 0.0018176394385 -0.049349220965 0.0291121077565
v 0.0018295805611 -0.0496734244796 0.0287949920093
v 0.0018375593641 -0.0498900503423 0.0284881600858
v 0.0018403611471 -0.0499661192294 0.014
v 0.0018403611471 -0.0499661192294 0.0281666666667
f 4 2 7
f 5 7 14
f 5 4 7
f 3 9 2
f 3 2 4
f 12 14 13
f 12 13 8
f 12 5 14
f 11 8 9
f 11 12 8
f 11 3 4
f 11 4 5
f 11 5 12
f 10 9 3
f 10 11 9
f 10 3 11
f 7 2 1
f 7 1 6
f 7 13 14
f 7 6 13
f 8 13 6
f 8 6 1
f 9 1 2
f 9 8 1
