# Parametric PetalDock simulation geometry; SI units
v -0.0144743358718 0.0296562573679 0.014
v -0.0144743358718 0.0296562573679 0.0216348528015
v -0.0143064847041 0.0293123495388 0.0216478013068
v -0.0141641873552 0.0290207985591 0.0215840152242
v -0.0141093180832 0.0298316466731 0.014
v -0.0141093180832 0.0298316466731 0.0219078822412
v -0.0140691073064 0.0288259904227 0.0214527053124
v -0.0140357196332 0.0287575829022 0.014
v -0.0140357196332 0.0287575829022 0.0212891737892
v -0.0139456998325 0.0294857049476 0.0219106289987
v -0.0138069909773 0.0291924297138 0.0218379228575
v -0.0137143086834 0.0289964694675 0.0217004325932
v -0.0136817629898 0.02892765738 0.014
v -0.0136817629898 0.02892765738 0.0215313390313
f 10 13 5
f 6 10 5
f 14 13 10
f 3 10 6
f 11 14 10
f 2 3 6
f 12 9 14
f 12 14 11
f 4 3 2
f 4 10 3
f 4 11 10
f 4 1 8
f 4 2 1
f 7 12 11
f 7 11 4
f 7 9 12
f 7 8 9
f 7 4 8
f 8 5 13
f 8 1 5
f 14 8 13
f 14 9 8
f 2 5 1
f 2 6 5
