# Parametric PetalDock simulation geometry; SI units
v -0.0350708104389 -0.034220436221 0.014
v -0.0350708104389 -0.034220436221 0.0166111111111
v -0.0348918777326 -0.0340458421587 0.0164722222222
v -0.0347129450263 -0.0338712480963 0.0163333333333
v -0.0346482322781 -0.0346482322781 0.014
v -0.0346482322781 -0.0346482322781 0.0166111111111
v -0.0345340123199 -0.033696654034 0.0161944444444
v -0.0344714555828 -0.0344714555828 0.0164722222222
v -0.0343550796136 -0.0335220599716 0.0160555555556
v -0.0342946788875 -0.0342946788875 0.0163333333333
v -0.0341761469073 -0.0333474659093 0.0159166666667
v -0.0341179021923 -0.0341179021923 0.0161944444444
v -0.033997214201 -0.0331728718469 0.0157777777778
v -0.033941125497 -0.033941125497 0.0160555555556
v -0.0338182814947 -0.0329982777846 0.0156388888889
v -0.0337643488017 -0.0337643488017 0.0159166666667
v -0.0336393487883 -0.0328236837222 0.0155
v -0.0335875721064 -0.0335875721064 0.0157777777778
v -0.033460416082 -0.0326490896599 0.0153611111111
v -0.0334107954111 -0.0334107954111 0.0156388888889
v -0.0332814833757 -0.0324744955975 0.0152222222222
v -0.0332340187158 -0.0332340187158 0.0155
v -0.0331025506694 -0.0322999015352 0.0150833333333
v -0.0330572420205 -0.0330572420205 0.0153611111111
v -0.0329236179631 -0.0321253074728 0.0149444444444
v -0.0328804653252 -0.0328804653252 0.0152222222222
v -0.0327446852567 -0.0319507134105 0.0148055555556
v -0.0327036886299 -0.0327036886299 0.0150833333333
v -0.0325657525504 -0.0317761193481 0.0146666666667
v -0.0325269119346 -0.0325269119346 0.0149444444444
v -0.0323868198441 -0.0316015252858 0.0145277777778
v -0.0323501352393 -0.0323501352393 0.0148055555556
v -0.0322078871378 -0.0314269312234 0.0143888888889
v -0.032173358544 -0.032173358544 0.0146666666667
v -0.0320289544315 -0.0312523371611 0.01425
v -0.0319965818487 -0.0319965818487 0.0145277777778
v -0.0318500217251 -0.0310777430987 0.0141157407407
v -0.0318198051534 -0.0318198051534 0.0143888888889
v -0.0316710890188 -0.0309031490363 0.0140289351852
v -0.0316430284581 -0.0316430284581 0.01425
v -0.0314921563125 -0.030728554974 0.014
v -0.0314662517628 -0.0314662517628 0.0141157407407
v -0.0312894750675 -0.0312894750675 0.0140289351852
v -0.0311126983722 -0.0311126983722 0.014
f 6 5 44
f 6 44 2
f 41 2 44
f 4 1 2
f 4 2 41
f 39 41 1
f 39 4 41
f 25 1 4
f 25 39 1
f 25 4 39
f 6 2 1
f 6 1 5
f 41 5 1
f 41 44 5
