# Parametric PetalDock simulation geometry; SI units
v -0.0294764019395 -0.0148371738786 0.014
v -0.0294764019395 -0.0148371738786 0.0213618233618
v -0.0292921074733 -0.0151977774616 0.014
v -0.0292921074733 -0.0151977774616 0.0210887939221
v -0.029134579798 -0.0146651150717 0.0213849736149
v -0.0289524224967 -0.015021536927 0.021122145923
v -0.028844796979 -0.0145192506585 0.0213301075909
v -0.0286644514785 -0.0148721274161 0.0210761999576
v -0.0286511702896 -0.0144217871735 0.0212049780317
v -0.0285831776383 -0.0143875625489 0.014
v -0.0285831776383 -0.0143875625489 0.021047008547
v -0.0284720353958 -0.0147722951726 0.0209572507509
v -0.0284044678529 -0.0147372387507 0.014
v -0.0284044678529 -0.0147372387507 0.0208048433048
f 6 3 13
f 2 6 5
f 14 6 13
f 4 3 6
f 4 6 2
f 8 5 6
f 8 6 14
f 11 2 5
f 7 5 8
f 7 11 5
f 9 14 11
f 9 11 7
f 12 8 14
f 12 14 9
f 12 7 8
f 12 9 7
f 10 13 3
f 10 3 1
f 4 1 3
f 4 2 1
f 11 13 10
f 11 14 13
f 11 10 1
f 11 1 2
