# Parametric PetalDock simulation geometry; SI units
v -0.0316942071407 0.0091911497497 0.014
v -0.0316942071407 0.0091911497497 0.0254572649573
v -0.0315790310792 0.0095793943494 0.014
v -0.0315790310792 0.0095793943494 0.0251842355176
v -0.031326666293 0.009084564879 0.0253273889933
v -0.0312128258669 0.0094683072127 0.0250645613014
v -0.0310150802076 0.0089942065886 0.0251387220901
v -0.0309023720786 0.0093741320856 0.0248848144568
v -0.0308068850414 0.0089338311093 0.024920887243
v -0.0307337766213 0.0089126300603 0.014
v -0.0307337766213 0.0089126300603 0.0246794871795
v -0.0306949334891 0.0093112062775 0.0246731599622
v -0.0306220907434 0.0092891096721 0.014
v -0.0306220907434 0.0092891096721 0.0244373219373
f 12 3 4
f 12 13 3
f 7 2 1
f 7 1 10
f 11 7 10
f 6 4 2
f 6 12 4
f 14 13 12
f 9 12 7
f 9 7 11
f 9 11 14
f 9 14 12
f 5 2 7
f 5 6 2
f 8 7 12
f 8 12 6
f 8 5 7
f 8 6 5
f 4 1 2
f 4 3 1
f 10 1 3
f 10 3 13
f 14 10 13
f 14 11 10
