# Parametric PetalDock simulation geometry; SI units
v 0.0145419704299 -0.0351074222354 0.014
v 0.0145419704299 -0.0351074222354 0.023
v 0.014637641288 -0.0353383921186 0.023
v 0.0147333121461 -0.0355693620017 0.023
v 0.0148289830041 -0.0358003318848 0.023
v 0.0149246538622 -0.0360313017679 0.023
v 0.0149716975223 -0.0349263263642 0.014
v 0.0149716975223 -0.0349263263642 0.0226153846154
v 0.0150203247203 -0.0362622716511 0.023
v 0.0150701955323 -0.0351561048271 0.0226153846154
v 0.0151159955784 -0.0364932415342 0.023
v 0.0151686935424 -0.0353858832901 0.0226153846154
v 0.0152116664365 -0.0367242114173 0.023
v 0.0152671915524 -0.035615661753 0.0226153846154
v 0.0153073372946 -0.0369551813005 0.023
v 0.0153656895624 -0.0358454402159 0.0226153846154
v 0.0154030081527 -0.0371861511836 0.023
v 0.0154641875724 -0.0360752186788 0.0226153846154
v 0.0154986790108 -0.0374171210667 0.023
v 0.0155626855824 -0.0363049971418 0.0226153846154
v 0.0155943498689 -0.0376480909498 0.023
v 0.0156611835924 -0.0365347756047 0.0226153846154
v 0.015690020727 -0.037879060833 0.023
v 0.0157596816024 -0.0367645540676 0.0226153846154
v 0.0157856915851 -0.0381100307161 0.023
v 0.0158581796125 -0.0369943325305 0.0226153846154
v 0.0158813624432 -0.0383410005992 0.023
v 0.0159566776225 -0.0372241109934 0.0226153846154
v 0.0159770333012 -0.0385719704823 0.023
v 0.0160551756325 -0.0374538894564 0.0226153846154
v 0.0160727041593 -0.0388029403655 0.023
v 0.0161536736425 -0.0376836679193 0.0226153846154
v 0.0161683750174 -0.0390339102486 0.023
v 0.0162521716525 -0.0379134463822 0.0226153846154
v 0.0162640458755 -0.0392648801317 0.023
v 0.0163506696625 -0.0381432248451 0.0226153846154
v 0.0163597167336 -0.0394958500149 0.023
v 0.0164491676725 -0.0383730033081 0.0226153846154
v 0.0164553875917 -0.039726819898 0.023
v 0.0165476656826 -0.038602781771 0.0226153846154
v 0.0165510584498 -0.0399577897811 0.023
v 0.0166461636926 -0.0388325602339 0.0226153846154
v 0.0166467293079 -0.0401887596642 0.023
v 0.016742400166 -0.0404197295474 0.023
v 0.0167446617026 -0.0390623386968 0.0226153846154
v 0.0168380710241 -0.0406506994305 0.014
v 0.0168380710241 -0.0406506994305 0.023
v 0.0168431597126 -0.0392921171597 0.0226153846154
v 0.0169416577226 -0.0395218956227 0.0226153846154
v 0.0170401557326 -0.0397516740856 0.0226153846154
v 0.0171386537427 -0.0399814525485 0.0226153846154
v 0.0172371517527 -0.0402112310114 0.0226153846154
v 0.0173356497627 -0.0404410094744 0.014
v 0.0173356497627 -0.0404410094744 0.0226153846154
f 27 47 54
f 27 54 2
f 26 53 7
f 5 2 1
f 5 1 9
f 51 53 26
f 51 26 2
f 44 46 47
f 52 54 53
f 52 53 51
f 52 2 54
f 52 51 2
f 12 7 8
f 12 26 7
f 12 8 2
f 12 2 26
f 37 31 46
f 37 46 44
f 7 46 1
f 7 53 46
f 54 47 46
f 54 46 53
f 31 1 46
f 31 9 1
f 8 7 1
f 8 1 2
f 37 2 5
f 37 27 2
f 37 47 27
f 37 5 9
f 37 9 31
f 37 44 47
