# Parametric PetalDock simulation geometry; SI units
v -0.0149716975223 0.0349263263642 0.014
v -0.0149716975223 0.0349263263642 0.0226153846154
v -0.0148731995123 0.0346965479013 0.0226166211618
v -0.0147747015023 0.0344667694384 0.0226203308009
v -0.0146762034923 0.0342369909755 0.0226260683761
v -0.0145777054823 0.0340072125125 0.0226320037987
v -0.0145419704299 0.0351074222354 0.014
v -0.0145419704299 0.0351074222354 0.023
v -0.0144792074722 0.0337774340496 0.0226379392213
v -0.0144462995718 0.0348764523523 0.023
v -0.0143807094622 0.0335476555867 0.0226438746439
v -0.0143506287137 0.0346454824692 0.023
v -0.0142822114522 0.0333178771238 0.0226498100665
v -0.0142549578556 0.034414512586 0.023
v -0.0141837134422 0.0330880986608 0.0226557454891
v -0.0141592869975 0.0341835427029 0.023
v -0.0140852154322 0.0328583201979 0.0226616809117
v -0.0140636161394 0.0339525728198 0.023
v -0.0139867174222 0.032628541735 0.0226676163343
v -0.0139679452813 0.0337216029367 0.023
v -0.0138882194122 0.0323987632721 0.0226735517569
v -0.0138722744232 0.0334906330535 0.023
v -0.0137897214021 0.0321689848092 0.0226794871795
v -0.0137766035651 0.0332596631704 0.023
v -0.0136912233921 0.0319392063462 0.0226854226021
v -0.0136809327071 0.0330286932873 0.023
v -0.0135927253821 0.0317094278833 0.0226913580247
v -0.013585261849 0.0327977234042 0.023
v -0.0134942273721 0.0314796494204 0.0226972934473
v -0.0134895909909 0.032566753521 0.023
v -0.0133957293621 0.0312498709575 0.0227032288699
v -0.0133939201328 0.0323357836379 0.023
v -0.0132982492747 0.0321048137548 0.023
v -0.0132972313521 0.0310200924945 0.0227091642925
v -0.0132025784166 0.0318738438716 0.023
v -0.013198733342 0.0307903140316 0.0227150997151
v -0.0131069075585 0.0316428739885 0.023
v -0.013100235332 0.0305605355687 0.0227210351377
v -0.0130112367004 0.0314119041054 0.023
v -0.013001737322 0.0303307571058 0.014
v -0.013001737322 0.0303307571058 0.0227269705603
v -0.0129155658423 0.0311809342223 0.023
v -0.0128198949842 0.0309499643391 0.023
v -0.0127242241261 0.030718994456 0.023
v -0.012628553268 0.0304880245729 0.014
v -0.012628553268 0.0304880245729 0.023
f 2 41 8
f 34 1 40
f 34 40 41
f 34 41 2
f 30 8 41
f 20 45 7
f 20 46 45
f 6 2 1
f 6 1 34
f 6 34 2
f 43 41 46
f 12 7 8
f 12 20 7
f 35 30 41
f 35 41 43
f 40 7 45
f 40 1 7
f 2 7 1
f 2 8 7
f 46 40 45
f 46 41 40
f 35 43 46
f 35 8 30
f 35 46 20
f 35 12 8
f 35 20 12
