# Parametric PetalDock simulation geometry; SI units
v 0.0363066051424 -0.0329063887875 0.014
v 0.0363066051424 -0.0329063887875 0.0166111111111
v 0.0365901548623 -0.0331633832734 0.016811771776
v 0.0367076833316 -0.0324583731019 0.014
v 0.0367076833316 -0.0324583731019 0.0166111111111
v 0.0368305367077 -0.0333812526784 0.0169121147719
v 0.0369911547217 -0.0335268283608 0.0168945233466
v 0.0369943654184 -0.0327118686453 0.016811771776
v 0.0370475562677 -0.0335779477424 0.014
v 0.0370475562677 -0.0335779477424 0.0168333333333
v 0.0372374027563 -0.0329267717902 0.0169121147719
v 0.0373997951136 -0.0330703654808 0.0168945233466
v 0.0374568197262 -0.0331207888795 0.014
v 0.0374568197262 -0.0331207888795 0.0168333333333
f 3 2 10
f 11 13 4
f 7 6 3
f 7 3 10
f 7 11 6
f 7 12 11
f 14 13 11
f 14 11 12
f 14 7 10
f 14 12 7
f 8 3 6
f 8 6 11
f 8 5 2
f 8 2 3
f 8 4 5
f 8 11 4
f 4 13 9
f 4 9 1
f 2 4 1
f 2 5 4
f 2 1 9
f 2 9 10
f 14 9 13
f 14 10 9
