# Parametric PetalDock simulation geometry; SI units
v 0.0011778311341 -0.0319783163068 0.014
v 0.0011778311341 -0.0319783163068 0.0281666666667
v 0.0011806329171 -0.0320543851939 0.0284881600858
v 0.0011886117201 -0.0322710110567 0.0287949920093
v 0.0012005528427 -0.0325952145712 0.0291121077565
v 0.0012146383571 -0.0329776386914 0.014
v 0.0012146383571 -0.0329776386914 0.0293888888889
v 0.0015701655785 -0.0319614545986 0.014
v 0.0015701655785 -0.0319614545986 0.0281666666667
v 0.0015739006328 -0.0320374833756 0.0284881600858
v 0.0015845371676 -0.0322539950147 0.0287949920093
v 0.0016004558668 -0.0325780275814 0.0291121077565
v 0.0016192332528 -0.0329602500548 0.014
v 0.0016192332528 -0.0329602500548 0.0293888888889
f 10 9 2
f 11 13 8
f 11 8 9
f 11 9 10
f 4 6 7
f 4 11 10
f 3 1 6
f 3 6 4
f 3 2 1
f 3 10 2
f 3 4 10
f 5 4 7
f 5 7 14
f 5 14 12
f 5 12 11
f 5 11 4
f 8 13 6
f 8 6 1
f 2 8 1
f 2 9 8
f 14 6 13
f 14 7 6
f 12 14 13
f 12 13 11
