# Parametric PetalDock simulation geometry; SI units
v 0.030618114919 0.0382561242 0.014
v 0.030618114919 0.0382561242 0.0168473865878
v 0.0308572382926 0.0385548994024 0.0170392188171
v 0.0310599573003 0.0388081887887 0.0171318425314
v 0.031085270924 0.0378775122148 0.014
v 0.031085270924 0.0378775122148 0.0167161224341
v 0.0311954098108 0.0389774313458 0.0171089027241
v 0.0312429744071 0.0390368614286 0.014
v 0.0312429744071 0.0390368614286 0.0170428994083
v 0.0313280427235 0.0381733305083 0.0169128593498
v 0.0315338547172 0.0384241131483 0.0170097715539
v 0.0316713738948 0.0385916807511 0.0169898030699
v 0.0317196642082 0.0386505226681 0.014
v 0.0317196642082 0.0386505226681 0.0169264738111
f 4 8 1
f 9 8 4
f 3 1 2
f 3 4 1
f 7 9 4
f 7 4 12
f 14 9 7
f 14 7 12
f 10 2 6
f 10 3 2
f 10 5 13
f 10 6 5
f 10 13 14
f 11 14 12
f 11 10 14
f 11 12 4
f 11 4 3
f 11 3 10
f 5 8 13
f 5 1 8
f 2 1 5
f 2 5 6
f 14 13 8
f 14 8 9
