# Parametric PetalDock simulation geometry; SI units
v 0.029146294214 0.032962001359 0.014
v 0.0293118981584 0.0331492854577 0.0140289351852
v 0.0294775021028 0.0333365695563 0.0141157407407
v 0.0295485940133 0.0326018495156 0.014
v 0.0296431060472 0.0335238536549 0.01425
v 0.029716483752 0.032787087297 0.0140289351852
v 0.0298087099916 0.0337111377536 0.0143888888889
v 0.0298843734907 0.0329723250783 0.0141157407407
v 0.029974313936 0.0338984218522 0.0145277777778
v 0.0300522632294 0.0331575628596 0.01425
v 0.0301399178804 0.0340857059508 0.0146666666667
v 0.0302201529681 0.033342800641 0.0143888888889
v 0.0303055218248 0.0342729900494 0.0148055555556
v 0.0303880427068 0.0335280384223 0.0145277777778
v 0.0304711257691 0.0344602741481 0.0149444444444
v 0.0305559324455 0.0337132762037 0.0146666666667
v 0.0306367297135 0.0346475582467 0.0150833333333
v 0.0307238221843 0.033898513985 0.0148055555556
v 0.0308023336579 0.0348348423453 0.0152222222222
v 0.030891711923 0.0340837517663 0.0149444444444
v 0.0309679376023 0.035022126444 0.0153611111111
v 0.0310596016617 0.0342689895477 0.0150833333333
v 0.0311335415467 0.0352094105426 0.0155
v 0.0312274914004 0.034454227329 0.0152222222222
v 0.0312991454911 0.0353966946412 0.0156388888889
v 0.0313953811391 0.0346394651103 0.0153611111111
v 0.0314647494355 0.0355839787399 0.0157777777778
v 0.0315632708778 0.0348247028917 0.0155
v 0.0316303533799 0.0357712628385 0.0159166666667
v 0.0317311606165 0.035009940673 0.0156388888889
v 0.0317959573243 0.0359585469371 0.0160555555556
v 0.0318990503552 0.0351951784544 0.0157777777778
v 0.0319615612687 0.0361458310358 0.0161944444444
v 0.0320669400939 0.0353804162357 0.0159166666667
v 0.0321271652131 0.0363331151344 0.0163333333333
v 0.0322348298327 0.035565654017 0.0160555555556
v 0.0322927691575 0.036520399233 0.0164722222222
v 0.0324027195714 0.0357508917984 0.0161944444444
v 0.0324583731019 0.0367076833316 0.014
v 0.0324583731019 0.0367076833316 0.0166111111111
v 0.0325706093101 0.0359361295797 0.0163333333333
v 0.0327384990488 0.0361213673611 0.0164722222222
v 0.0329063887875 0.0363066051424 0.014
v 0.0329063887875 0.0363066051424 0.0166111111111
f 4 44 40
f 4 40 1
f 33 40 39
f 33 39 15
f 33 1 40
f 33 15 1
f 2 39 1
f 2 1 15
f 2 15 39
f 36 43 44
f 36 44 4
f 20 4 43
f 20 43 36
f 20 36 4
f 44 39 40
f 44 43 39
f 4 39 43
f 4 1 39
