# Parametric PetalDock simulation geometry; SI units
v -0.009684895065 -0.0367451058997 0.014
v -0.009684895065 -0.0367451058997 0.0272307692308
v -0.0096211786501 -0.0365033617819 0.0272171672206
v -0.0095574622352 -0.0362616176642 0.0271763611903
v -0.0094937458203 -0.0360198735464 0.0271132478632
v -0.0094300294054 -0.0357781294287 0.0270479582146
v -0.0093663129905 -0.0355363853109 0.026982668566
v -0.0093025965756 -0.0352946411931 0.0269173789174
v -0.0092388801607 -0.0350528970754 0.0268520892688
v -0.0092332468363 -0.0368611876214 0.014
v -0.0092332468363 -0.0368611876214 0.0276153846154
v -0.0091751637458 -0.0348111529576 0.0267867996201
v -0.0091725017913 -0.0366186798081 0.0276005460589
v -0.0091117567464 -0.0363761719948 0.0275560303894
v -0.0091114473309 -0.0345694088399 0.0267215099715
v -0.0090510117014 -0.0361336641815 0.0274871794872
v -0.009047730916 -0.0343276647221 0.0266562203229
v -0.0089902666564 -0.0358911563682 0.027415954416
v -0.0089840145011 -0.0340859206043 0.0265909306743
v -0.0089295216114 -0.0356486485549 0.0273447293447
v -0.0089202980862 -0.0338441764866 0.0265256410256
v -0.0088687765665 -0.0354061407416 0.0272735042735
v -0.0088565816713 -0.0336024323688 0.026460351377
v -0.0088080315215 -0.0351636329283 0.0272022792023
v -0.0087928652564 -0.033360688251 0.0263950617284
v -0.0087472864765 -0.034921125115 0.0271310541311
v -0.0087291488415 -0.0331189441333 0.0263297720798
v -0.0086865414315 -0.0346786173017 0.0270598290598
v -0.0086654324266 -0.0328772000155 0.0262644824311
v -0.0086257963866 -0.0344361094884 0.0269886039886
v -0.0086017160117 -0.0326354558978 0.0261991927825
v -0.0085650513416 -0.0341936016751 0.0269173789174
v -0.0085379995968 -0.03239371178 0.0261339031339
v -0.0085043062966 -0.0339510938618 0.0268461538462
v -0.0084742831819 -0.0321519676622 0.0260686134853
v -0.0084435612516 -0.0337085860485 0.0267749287749
v -0.0084105667669 -0.0319102235445 0.014
v -0.0084105667669 -0.0319102235445 0.0260033238367
v -0.0083828162067 -0.0334660782352 0.0267037037037
v -0.0083220711617 -0.0332235704219 0.0266324786325
v -0.0082613261167 -0.0329810626086 0.0265612535613
v -0.0082005810717 -0.0327385547953 0.02649002849
v -0.0081398360268 -0.032496046982 0.0264188034188
v -0.0080790909818 -0.0322535391687 0.0263475783476
v -0.0080183459368 -0.0320110313554 0.014
v -0.0080183459368 -0.0320110313554 0.0262763532764
f 3 1 2
f 5 3 4
f 14 5 4
f 16 38 14
f 13 4 3
f 13 14 4
f 13 2 11
f 13 3 2
f 13 16 14
f 13 11 10
f 35 38 37
f 35 14 38
f 35 37 1
f 18 46 38
f 18 38 16
f 8 5 14
f 8 3 5
f 19 14 35
f 19 8 14
f 25 3 8
f 25 1 3
f 25 35 1
f 42 45 46
f 42 10 45
f 37 45 10
f 37 10 1
f 2 1 10
f 2 10 11
f 46 45 37
f 46 37 38
f 20 18 16
f 20 16 13
f 25 8 19
f 25 19 35
f 42 18 20
f 42 46 18
f 42 13 10
f 42 20 13
