# Parametric PetalDock simulation geometry; SI units
v 0.0282146013795 -0.0400616558444 0.014
v 0.0282146013795 -0.0400616558444 0.0180854700855
v 0.0284349536346 -0.040374532007 0.0182310413122
v 0.0286217592563 -0.04063977561 0.0182832159916
v 0.0287040950154 -0.0397124027144 0.014
v 0.0287040950154 -0.0397124027144 0.0178124406458
v 0.0287465787822 -0.0408170057194 0.0182322506626
v 0.0287904095709 -0.0408792406576 0.014
v 0.0287904095709 -0.0408792406576 0.018141025641
v 0.0289282701501 -0.0400225512568 0.0179682136204
v 0.0291183166528 -0.0402854824951 0.0180293083583
v 0.0292453016661 -0.0404611675318 0.0179845233819
v 0.0292898928728 -0.0405228599126 0.014
v 0.0292898928728 -0.0405228599126 0.0178988603989
f 2 9 4
f 12 13 5
f 12 5 6
f 3 2 4
f 7 4 9
f 7 12 4
f 14 13 12
f 14 7 9
f 14 12 7
f 10 6 2
f 10 2 3
f 11 12 6
f 11 6 10
f 11 4 12
f 11 3 4
f 11 10 3
f 5 13 8
f 5 8 1
f 2 5 1
f 2 6 5
f 2 1 8
f 2 8 9
f 14 8 13
f 14 9 8
