# Parametric PetalDock simulation geometry; SI units
v 0.0326997869691 0.0044411633807 0.014
v 0.0326997869691 0.0044411633807 0.0287325681204
v 0.0327518246418 0.0040395522816 0.014
v 0.0327518246418 0.0040395522816 0.028968843597
v 0.032947512628 0.0044748085579 0.0288571891665
v 0.0329999445254 0.0040701549504 0.0290986010665
v 0.0331952382868 0.004508453735 0.0289818102126
v 0.0332480644091 0.0041007576192 0.0292283585361
v 0.0334429639457 0.0045420989121 0.0291064312587
v 0.0334961842927 0.004131360288 0.0293581160056
v 0.0336906896045 0.0045757440892 0.0292310523048
v 0.0337443041764 0.0041619629568 0.0294878734751
v 0.0339384152634 0.0046093892664 0.0293556733509
v 0.03399242406 0.0041925656256 0.0296176309446
v 0.0341861409223 0.0046430344435 0.029480294397
v 0.0342405439437 0.0042231682944 0.0297473884141
v 0.0344338665811 0.0046766796206 0.0296049154431
v 0.0344886638273 0.0042537709632 0.0298771458836
v 0.03468159224 0.0047103247977 0.0297295364892
v 0.034736783711 0.004284373632 0.0300069033531
v 0.0349293178988 0.0047439699749 0.0298541575352
v 0.0349849035946 0.0043149763008 0.0301366608226
v 0.0351770435577 0.004777615152 0.0299787785813
v 0.0352330234783 0.0043455789696 0.0302664182921
v 0.0354247692165 0.0048112603291 0.0301033996274
v 0.0354811433619 0.0043761816384 0.0303961757616
v 0.0356724948754 0.0048449055063 0.0302280206735
v 0.0357292632456 0.0044067843072 0.0305259332311
v 0.0359202205343 0.0048785506834 0.0303526417196
v 0.0359773831292 0.004437386976 0.0306556907006
v 0.0361679461931 0.0049121958605 0.0304772627657
v 0.0362255030129 0.0044679896448 0.0307854481701
v 0.036415671852 0.0049458410376 0.0306018838118
v 0.0364736228965 0.0044985923136 0.0309152056396
v 0.0366633975108 0.0049794862148 0.0307265048579
v 0.0367217427802 0.0045291949824 0.0310449631091
v 0.0369111231697 0.0050131313919 0.030851125904
v 0.0369698626638 0.0045597976512 0.0311747205786
v 0.0371588488285 0.005046776569 0.0309715929152
v 0.0372179825475 0.00459040032 0.0313001527991
v 0.0374065744874 0.0050804217461 0.031049481069
v 0.0374661024311 0.0046210029888 0.0313812512175
v 0.0376543001463 0.0051140669233 0.014
v 0.0376543001463 0.0051140669233 0.031075443787
v 0.0377142223148 0.0046516056576 0.014
v 0.0377142223148 0.0046516056576 0.0314082840237
f 5 43 1
f 27 43 5
f 35 44 43
f 35 43 27
f 2 5 1
f 42 46 44
f 42 40 46
f 39 44 35
f 39 40 42
f 38 5 2
f 37 39 35
f 37 40 39
f 37 35 38
f 37 38 40
f 41 42 44
f 41 44 39
f 41 39 42
f 13 38 35
f 10 38 2
f 36 40 38
f 7 13 5
f 7 5 38
f 7 38 13
f 8 2 4
f 8 10 2
f 44 46 45
f 44 45 43
f 3 43 45
f 3 1 43
f 2 1 3
f 2 3 4
f 13 35 27
f 13 27 5
f 8 45 46
f 8 3 45
f 8 4 3
f 8 46 40
f 8 40 36
f 8 38 10
f 8 36 38
