# Parametric PetalDock simulation geometry; SI units
v 0.0305218861963 -0.0226365735707 0.014
v 0.0305218861963 -0.0226365735707 0.0153076923077
v 0.0307226880791 -0.0227854983968 0.0153076923077
v 0.0307973735336 -0.0222603185833 0.014
v 0.0307973735336 -0.0222603185833 0.0156923076923
v 0.030923489962 -0.022934423223 0.0153076923077
v 0.0309999878332 -0.0224067680477 0.0156923076923
v 0.0311242918449 -0.0230833480491 0.0153076923077
v 0.0312026021327 -0.0225532175121 0.0156923076923
v 0.0313250937277 -0.0232322728752 0.0153076923077
v 0.0314052164323 -0.0226996669764 0.0156923076923
v 0.0315258956106 -0.0233811977013 0.0153076923077
v 0.0316078307319 -0.0228461164408 0.0156923076923
v 0.0317266974935 -0.0235301225275 0.0153076923077
v 0.0318104450314 -0.0229925659052 0.0156923076923
v 0.0319274993764 -0.0236790473536 0.0153076923077
v 0.032013059331 -0.0231390153695 0.0156923076923
v 0.0321283012592 -0.0238279721797 0.0153076923077
v 0.0322156736305 -0.0232854648339 0.0156923076923
v 0.0323291031421 -0.0239768970058 0.0153076923077
v 0.0324182879301 -0.0234319142983 0.0156923076923
v 0.032529905025 -0.0241258218319 0.0153076923077
v 0.0326209022297 -0.0235783637626 0.0156923076923
v 0.0327307069078 -0.0242747466581 0.0153076923077
v 0.0328235165292 -0.023724813227 0.0156923076923
v 0.0329315087907 -0.0244236714842 0.0153076923077
v 0.0330261308288 -0.0238712626913 0.0156923076923
v 0.0331323106736 -0.0245725963103 0.0153076923077
v 0.0332287451284 -0.0240177121557 0.0156923076923
v 0.0333331125564 -0.0247215211364 0.0153076923077
v 0.0334313594279 -0.0241641616201 0.0156923076923
v 0.0335339144393 -0.0248704459626 0.0153076923077
v 0.0336339737275 -0.0243106110844 0.0156923076923
v 0.0337347163222 -0.0250193707887 0.0153076923077
v 0.033836588027 -0.0244570605488 0.0156923076923
v 0.0339355182051 -0.0251682956148 0.0153076923077
v 0.0340392023266 -0.0246035100132 0.0156923076923
v 0.0341363200879 -0.0253172204409 0.0153076923077
v 0.0342418166262 -0.0247499594775 0.0156923076923
v 0.0343371219708 -0.0254661452671 0.0153076923077
v 0.0344444309257 -0.0248964089419 0.0156923076923
v 0.0345379238537 -0.0256150700932 0.0153076923077
v 0.0346470452253 -0.0250428584063 0.0156923076923
v 0.0347387257365 -0.0257639949193 0.0153076923077
v 0.0348496595249 -0.0251893078706 0.0156923076923
v 0.0349395276194 -0.0259129197454 0.0153076923077
v 0.0350522738244 -0.025335757335 0.0156923076923
v 0.0351403295023 -0.0260618445715 0.0153076923077
v 0.035254888124 -0.0254822067994 0.0156923076923
v 0.0353411313851 -0.0262107693977 0.014
v 0.0353411313851 -0.0262107693977 0.0153076923077
v 0.0354575024236 -0.0256286562637 0.0156923076923
v 0.0356601167231 -0.0257751057281 0.014
v 0.0356601167231 -0.0257751057281 0.0156923076923
f 6 1 50
f 52 53 4
f 52 54 53
f 2 1 6
f 2 6 5
f 51 9 5
f 27 4 5
f 27 52 4
f 24 50 51
f 24 6 50
f 24 5 6
f 24 51 5
f 49 51 54
f 21 9 51
f 21 51 49
f 4 53 50
f 4 50 1
f 2 4 1
f 2 5 4
f 51 50 53
f 51 53 54
f 21 54 52
f 21 5 9
f 21 27 5
f 21 52 27
f 21 49 54
