# Parametric PetalDock simulation geometry; SI units
v 0.0007853193127 0.0319903621983 0.014
v 0.0007853193127 0.0319903621983 0.0281666666667
v 0.0007871874025 0.0320664597397 0.0284881600858
v 0.0007925072721 0.0322831672031 0.0287949920093
v 0.0008004690197 0.0326074928417 0.0291121077565
v 0.0008098605413 0.032990061017 0.014
v 0.0008098605413 0.032990061017 0.0293888888889
v 0.0011778311341 0.0319783163068 0.014
v 0.0011778311341 0.0319783163068 0.0281666666667
v 0.0011806329171 0.0320543851939 0.0284881600858
v 0.0011886117201 0.0322710110567 0.0287949920093
v 0.0012005528427 0.0325952145712 0.0291121077565
v 0.0012146383571 0.0329776386914 0.014
v 0.0012146383571 0.0329776386914 0.0293888888889
f 4 6 1
f 4 7 6
f 4 1 2
f 3 2 9
f 3 4 2
f 5 14 7
f 5 7 4
f 12 8 13
f 12 9 8
f 12 13 14
f 12 14 5
f 12 5 4
f 12 4 11
f 10 3 9
f 10 9 12
f 10 12 11
f 10 4 3
f 10 11 4
f 8 6 13
f 8 1 6
f 2 1 8
f 2 8 9
f 14 13 6
f 14 6 7
