# Parametric PetalDock simulation geometry; SI units
v 0.0140357196332 0.0287575829022 0.014
v 0.0140357196332 0.0287575829022 0.0212891737892
v 0.0140691073064 0.0288259904227 0.0214527053124
v 0.0141641873552 0.0290207985591 0.0215840152242
v 0.0143064847041 0.0293123495388 0.0216478013068
v 0.0143875625489 0.0285831776383 0.014
v 0.0143875625489 0.0285831776383 0.021047008547
v 0.0144217871735 0.0286511702896 0.0212049780317
v 0.0144743358718 0.0296562573679 0.014
v 0.0144743358718 0.0296562573679 0.0216348528015
v 0.0145192506585 0.028844796979 0.0213301075909
v 0.0146651150717 0.029134579798 0.0213849736149
v 0.0148371738786 0.0294764019395 0.014
v 0.0148371738786 0.0294764019395 0.0213618233618
f 5 9 1
f 10 9 5
f 2 5 1
f 12 10 5
f 14 10 12
f 3 2 7
f 3 5 2
f 3 4 5
f 11 12 5
f 11 5 4
f 11 13 14
f 11 14 12
f 8 7 6
f 8 3 7
f 8 6 13
f 8 13 11
f 8 4 3
f 8 11 4
f 6 9 13
f 6 1 9
f 2 1 6
f 2 6 7
f 14 13 9
f 14 9 10
