# Parametric PetalDock simulation geometry; SI units
v -0.0270701899855 0.0346872428156 0.014
v -0.0270701899855 0.0346872428156 0.0145917159763
v -0.0269163820879 0.0344901562087 0.0145917159763
v -0.0267625741903 0.0342930696018 0.0145917159763
v -0.0266424858218 0.0350168238028 0.014
v -0.0266424858218 0.0350168238028 0.014924556213
v -0.0266087662926 0.0340959829949 0.0145917159763
v -0.0264911080614 0.0348178645766 0.014924556213
v -0.026454958395 0.0338988963879 0.0145917159763
v -0.0263397303011 0.0346189053505 0.014924556213
v -0.0263011504973 0.033701809781 0.0145917159763
v -0.0261883525407 0.0344199461243 0.014924556213
v -0.0261473425997 0.0335047231741 0.0145917159763
v -0.0260369747804 0.0342209868982 0.014924556213
v -0.025993534702 0.0333076365672 0.0145917159763
v -0.02588559702 0.034022027672 0.014924556213
v -0.0258397268044 0.0331105499603 0.0145917159763
v -0.0257342192597 0.0338230684459 0.014924556213
v -0.0256859189067 0.0329134633534 0.0145917159763
v -0.0255828414993 0.0336241092197 0.014924556213
v -0.0255321110091 0.0327163767465 0.0145917159763
v -0.025431463739 0.0334251499936 0.014924556213
v -0.0253783031115 0.0325192901396 0.0145917159763
v -0.0252800859786 0.0332261907674 0.014924556213
v -0.0252244952138 0.0323222035327 0.0145917159763
v -0.0251287082183 0.0330272315413 0.014924556213
v -0.0250706873162 0.0321251169258 0.0145917159763
v -0.0249773304579 0.0328282723151 0.014924556213
v -0.0249168794185 0.0319280303189 0.0145917159763
v -0.0248259526976 0.032629313089 0.014924556213
v -0.0247630715209 0.031730943712 0.0145917159763
v -0.0246745749372 0.0324303538628 0.014924556213
v -0.0246092636232 0.0315338571051 0.0145917159763
v -0.0245231971769 0.0322313946367 0.014924556213
v -0.0244554557256 0.0313367704982 0.0145917159763
v -0.0243718194165 0.0320324354105 0.014924556213
v -0.0243016478279 0.0311396838913 0.0145917159763
v -0.0242204416562 0.0318334761844 0.014924556213
v -0.0241478399303 0.0309425972843 0.0145917159763
v -0.0240690638958 0.0316345169582 0.014924556213
v -0.0239940320326 0.0307455106774 0.0145917159763
v -0.0239176861355 0.0314355577321 0.014924556213
v -0.023840224135 0.0305484240705 0.0145917159763
v -0.0237663083751 0.0312365985059 0.014924556213
v -0.0236864162374 0.0303513374636 0.0145917159763
v -0.0236149306148 0.0310376392797 0.014924556213
v -0.0235326083397 0.0301542508567 0.0145917159763
v -0.0234635528544 0.0308386800536 0.014924556213
v -0.0233788004421 0.0299571642498 0.014
v -0.0233788004421 0.0299571642498 0.0145917159763
v -0.0233121750941 0.0306397208274 0.014924556213
v -0.0231607973337 0.0304407616013 0.014924556213
v -0.0230094195734 0.0302418023751 0.014
v -0.0230094195734 0.0302418023751 0.014924556213
f 46 6 2
f 46 2 54
f 9 1 49
f 52 53 5
f 52 54 53
f 45 50 54
f 45 54 9
f 45 49 50
f 45 9 49
f 4 54 2
f 4 9 54
f 4 2 1
f 4 1 9
f 8 5 6
f 8 52 5
f 49 5 53
f 49 1 5
f 2 5 1
f 2 6 5
f 54 49 53
f 54 50 49
f 8 46 54
f 8 6 46
f 8 54 52
