# Parametric PetalDock simulation geometry; SI units
v 0.0230819460379 0.0374596284966 0.014
v 0.0230819460379 0.0374596284966 0.018
v 0.0232130934585 0.0376724672949 0.0180160751029
v 0.0233442408792 0.0378853060932 0.0180643004115
v 0.0234753882999 0.0380981448915 0.0181388888889
v 0.023539895275 0.037173556871 0.014
v 0.023539895275 0.037173556871 0.0176153846154
v 0.0236065357205 0.0383109836897 0.0182160493827
v 0.02367364468 0.0373847702623 0.0176326962646
v 0.0237376831412 0.038523822488 0.0182932098765
v 0.023807394085 0.0375959836536 0.0176846312124
v 0.0238688305619 0.0387366612863 0.0183703703704
v 0.0239411434899 0.0378071970449 0.017764957265
v 0.0239999779825 0.0389495000846 0.0184475308642
v 0.0240748928949 0.0380184104362 0.0178480531814
v 0.0241311254032 0.0391623388828 0.018524691358
v 0.0242086422999 0.0382296238275 0.0179311490978
v 0.0242622728239 0.0393751776811 0.0186018518519
v 0.0243423917049 0.0384408372189 0.0180142450142
v 0.0243934202445 0.0395880164794 0.0186790123457
v 0.0244761411098 0.0386520506102 0.0180973409307
v 0.0245245676652 0.0398008552777 0.0187561728395
v 0.0246098905148 0.0388632640015 0.0181804368471
v 0.0246557150859 0.0400136940759 0.0188333333333
v 0.0247436399198 0.0390744773928 0.0182635327635
v 0.0247868625066 0.0402265328742 0.0189104938272
v 0.0248773893248 0.0392856907841 0.01834662868
v 0.0249180099272 0.0404393716725 0.018987654321
v 0.0250111387297 0.0394969041754 0.0184297245964
v 0.0250491573479 0.0406522104708 0.0190648148148
v 0.0251448881347 0.0397081175667 0.0185128205128
v 0.0251803047686 0.0408650492691 0.0191419753086
v 0.0252786375397 0.039919330958 0.0185959164292
v 0.0253114521892 0.0410778880673 0.0192191358025
v 0.0254123869446 0.0401305443494 0.0186790123457
v 0.0254425996099 0.0412907268656 0.0192962962963
v 0.0255461363496 0.0403417577407 0.0187621082621
v 0.0255737470306 0.0415035656639 0.0193734567901
v 0.0256798857546 0.040552971132 0.0188452041785
v 0.0257048944512 0.0417164044622 0.014
v 0.0257048944512 0.0417164044622 0.019450617284
v 0.0258136351596 0.0407641845233 0.018928300095
v 0.0259473845645 0.0409753979146 0.0190113960114
v 0.0260811339695 0.0411866113059 0.0190944919278
v 0.0262148833745 0.0413978246972 0.014
v 0.0262148833745 0.0413978246972 0.0191775878443
f 46 41 2
f 46 2 7
f 14 41 40
f 11 6 45
f 11 7 6
f 3 1 2
f 3 40 1
f 3 14 40
f 3 2 41
f 3 41 14
f 33 46 7
f 33 45 46
f 27 11 45
f 27 45 33
f 27 7 11
f 27 33 7
f 6 40 45
f 6 1 40
f 2 1 6
f 2 6 7
f 46 45 40
f 46 40 41
