# Parametric PetalDock simulation geometry; SI units
v 0.0113218473058 0.0476740576581 0.014
v 0.0113218473058 0.0476740576581 0.026549382716
v 0.0114102694157 0.0480463856585 0.0263786997608
v 0.011485230061 0.048362030096 0.0261543526232
v 0.0115353171628 0.0485729369663 0.025911796366
v 0.011552905414 0.0486469976103 0.014
v 0.011552905414 0.0486469976103 0.0256481481481
v 0.0119060288153 0.0475315314065 0.014
v 0.0119060288153 0.0475315314065 0.0262763532764
v 0.0119990133045 0.047902746296 0.0261158720689
v 0.0120778417482 0.0482174470836 0.0259004449899
v 0.0121305132303 0.0484277234273 0.0256640690852
v 0.0121490089952 0.0485015626597 0.014
v 0.0121490089952 0.0485015626597 0.025405982906
f 3 1 2
f 3 6 1
f 3 7 6
f 5 14 7
f 5 7 3
f 10 2 9
f 10 3 2
f 11 9 14
f 11 10 9
f 11 3 10
f 12 14 5
f 12 11 14
f 4 5 3
f 4 3 11
f 4 12 5
f 4 11 12
f 8 1 6
f 8 6 13
f 14 6 7
f 14 13 6
f 9 1 8
f 9 2 1
f 9 8 13
f 9 13 14
