# Parametric PetalDock simulation geometry; SI units
v -0.0446612150598 -0.0224805664827 0.014
v -0.0446612150598 -0.0224805664827 0.021047008547
v -0.0445932224084 -0.0224463418581 0.0212049780317
v -0.0443995957191 -0.0223488783732 0.0213301075909
v -0.0443819810201 -0.0230269355479 0.014
v -0.0443819810201 -0.0230269355479 0.0208048433048
v -0.0443144134773 -0.0229918791259 0.0209572507509
v -0.0441219973946 -0.0228920468825 0.0210761999576
v -0.0441098129 -0.0222030139599 0.0213849736149
v -0.0438340263764 -0.0227426373716 0.021122145923
v -0.0437679907586 -0.0220309551531 0.014
v -0.0437679907586 -0.0220309551531 0.0213618233618
v -0.0434943413997 -0.022566396837 0.014
v -0.0434943413997 -0.022566396837 0.0210887939221
f 2 9 1
f 11 1 9
f 12 11 9
f 12 9 10
f 14 12 10
f 8 14 10
f 8 10 9
f 3 9 2
f 6 14 8
f 6 8 7
f 6 3 2
f 6 7 3
f 4 7 8
f 4 3 7
f 4 8 9
f 4 9 3
f 11 13 5
f 11 5 1
f 14 13 11
f 14 11 12
f 6 5 13
f 6 13 14
f 6 1 5
f 6 2 1
