# Parametric PetalDock simulation geometry; SI units
v 0.0270701899855 -0.0346872428156 0.014
v 0.0270701899855 -0.0346872428156 0.0145917159763
v 0.0272239978832 -0.0348843294225 0.0146187487825
v 0.0273778057808 -0.0350814160294 0.0146998472009
v 0.0274938174783 -0.0343524380572 0.014
v 0.0274938174783 -0.0343524380572 0.0143328402367
v 0.0275316136785 -0.0352785026363 0.0148252794214
v 0.0276500323503 -0.0345476223643 0.0143607053337
v 0.0276854215761 -0.0354755892432 0.0149550368909
v 0.0278062472223 -0.0347428066715 0.0144443006246
v 0.0278392294738 -0.0356726758501 0.0150847943604
v 0.0279624620944 -0.0349379909786 0.0145735946746
v 0.0279930373714 -0.035869762457 0.0152145518299
v 0.0281186769664 -0.0351331752857 0.01470734714
v 0.0281468452691 -0.0360668490639 0.0153443092994
v 0.0282748918384 -0.0353283595929 0.0148410996055
v 0.0283006531667 -0.0362639356708 0.0154740667689
v 0.0284311067105 -0.0355235439 0.014974852071
v 0.0284544610644 -0.0364610222777 0.0156038242384
v 0.0285873215825 -0.0357187282072 0.0151086045365
v 0.028608268962 -0.0366581088846 0.0157335817079
v 0.0287435364545 -0.0359139125143 0.015242357002
v 0.0287620768596 -0.0368551954915 0.0158633391774
v 0.0288997513266 -0.0361090968215 0.0153761094675
v 0.0289158847573 -0.0370522820985 0.0159930966469
v 0.0290559661986 -0.0363042811286 0.0155098619329
v 0.0290696926549 -0.0372493687054 0.0161228541164
v 0.0292121810707 -0.0364994654357 0.0156436143984
v 0.0292235005526 -0.0374464553123 0.0162526115859
v 0.0293683959427 -0.0366946497429 0.0157773668639
v 0.0293773084502 -0.0376435419192 0.0163823690554
v 0.0295246108147 -0.03688983405 0.0159111193294
v 0.0295311163479 -0.0378406285261 0.0165121265249
v 0.0296808256868 -0.0370850183572 0.0160448717949
v 0.0296849242455 -0.038037715133 0.0166418839944
v 0.0298370405588 -0.0372802026643 0.0161786242604
v 0.0298387321432 -0.0382348017399 0.0167716414639
v 0.0299925400408 -0.0384318883468 0.0169013989335
v 0.0299932554308 -0.0374753869715 0.0163123767258
v 0.0301463479385 -0.0386289749537 0.014
v 0.0301463479385 -0.0386289749537 0.017031156403
v 0.0301494703029 -0.0376705712786 0.0164461291913
v 0.0303056851749 -0.0378657555857 0.0165798816568
v 0.0304619000469 -0.0380609398929 0.0167136341223
v 0.030618114919 -0.0382561242 0.014
v 0.030618114919 -0.0382561242 0.0168473865878
f 46 2 41
f 46 6 2
f 27 1 40
f 27 2 1
f 28 45 5
f 28 5 6
f 28 46 45
f 28 6 46
f 38 40 41
f 38 27 40
f 38 41 2
f 38 2 27
f 5 45 40
f 5 40 1
f 2 5 1
f 2 6 5
f 46 40 45
f 46 41 40
