# Parametric PetalDock simulation geometry; SI units
v -0.0230984401045 0.0432141419531 0.014
v -0.0230984401045 0.0432141419531 0.0208157644824
v -0.0229805909203 0.042993661637 0.0207682811016
v -0.0228627417361 0.0427731813209 0.0207207977208
v -0.0227448925519 0.0425527010048 0.02067331434
v -0.0226270433676 0.0423322206887 0.0206258309592
v -0.022566396837 0.0434943413997 0.014
v -0.022566396837 0.0434943413997 0.0210887939221
v -0.0225091941834 0.0421117403726 0.0205783475783
v -0.0224512621592 0.0432724314946 0.0210472459639
v -0.0223913449992 0.0418912600565 0.0205308641975
v -0.0223361274815 0.0430505215895 0.0210056980057
v -0.022273495815 0.0416707797405 0.0204833808167
v -0.0222209928037 0.0428286116844 0.0209641500475
v -0.0221556466308 0.0414502994244 0.0204358974359
v -0.022105858126 0.0426067017793 0.0209226020893
v -0.0220377974466 0.0412298191083 0.0203884140551
v -0.0219907234483 0.0423847918742 0.0208810541311
v -0.0219199482624 0.0410093387922 0.0203409306743
v -0.0218755887705 0.0421628819691 0.0208395061728
v -0.0218020990782 0.0407888584761 0.0202934472934
v -0.0217604540928 0.041940972064 0.0207979582146
v -0.021684249894 0.04056837816 0.0202459639126
v -0.021645319415 0.0417190621589 0.0207564102564
v -0.0215664007098 0.0403478978439 0.0201984805318
v -0.0215301847373 0.0414971522538 0.0207148622982
v -0.0214485515256 0.0401274175279 0.020150997151
v -0.0214150500596 0.0412752423487 0.02067331434
v -0.0213307023414 0.0399069372118 0.0201035137702
v -0.0212999153818 0.0410533324436 0.0206317663818
v -0.0212128531572 0.0396864568957 0.0200560303894
v -0.0211847807041 0.0408314225385 0.0205902184236
v -0.021095003973 0.0394659765796 0.0200085470085
v -0.0210696460263 0.0406095126334 0.0205486704653
v -0.0209771547888 0.0392454962635 0.0199626464071
v -0.0209545113486 0.0403876027283 0.0205071225071
v -0.0208593056046 0.0390250159474 0.0199329692941
v -0.0208393766709 0.0401656928232 0.0204655745489
v -0.0207414564203 0.0388045356313 0.014
v -0.0207414564203 0.0388045356313 0.0199230769231
v -0.0207242419931 0.0399437829181 0.0204240265907
v -0.0206091073154 0.039721873013 0.0203824786325
v -0.0204939726376 0.0394999631079 0.0203423156062
v -0.0203788379599 0.0392780532028 0.0203163481323
v -0.0202637032822 0.0390561432977 0.014
v -0.0202637032822 0.0390561432977 0.0203076923077
f 46 8 2
f 46 2 40
f 37 1 39
f 37 39 40
f 43 45 7
f 43 46 45
f 5 40 2
f 5 37 40
f 5 2 1
f 5 1 37
f 14 43 7
f 14 46 43
f 10 7 8
f 10 14 7
f 10 8 46
f 10 46 14
f 39 7 45
f 39 1 7
f 2 7 1
f 2 8 7
f 46 39 45
f 46 40 39
