# Parametric PetalDock simulation geometry; SI units
v 0.043947000073 0.0021589776704 0.014
v 0.043947000073 0.0021589776704 0.032
v 0.0439701849219 0.0016195178094 0.014
v 0.0439701849219 0.0016195178094 0.032
v 0.0441966989371 0.002171244589 0.0319710648148
v 0.044220015518 0.0016287196152 0.0319710648148
v 0.0444463978011 0.0021835115076 0.0318842592593
v 0.0444698461142 0.0016379214209 0.0318842592593
v 0.0446960966652 0.0021957784262 0.03175
v 0.0447196767103 0.0016471232266 0.03175
v 0.0449457955292 0.0022080453447 0.0316111111111
v 0.0449695073065 0.0016563250324 0.0316111111111
v 0.0451954943933 0.0022203122633 0.0314722222222
v 0.0452193379026 0.0016655268381 0.0314722222222
v 0.0454451932573 0.0022325791819 0.0313333333333
v 0.0454691684988 0.0016747286438 0.0313333333333
v 0.0456948921214 0.0022448461005 0.0311944444444
v 0.0457189990949 0.0016839304496 0.0311944444444
v 0.0459445909854 0.0022571130191 0.0310555555556
v 0.0459688296911 0.0016931322553 0.0310555555556
v 0.0461942898495 0.0022693799376 0.0309166666667
v 0.0462186602872 0.001702334061 0.0309166666667
v 0.0464439887135 0.0022816468562 0.0307777777778
v 0.0464684908834 0.0017115358668 0.0307777777778
v 0.0466936875776 0.0022939137748 0.0306388888889
v 0.0467183214795 0.0017207376725 0.0306388888889
v 0.0469433864416 0.0023061806934 0.0305
v 0.0469681520757 0.0017299394782 0.0305
v 0.0471930853057 0.002318447612 0.0303611111111
v 0.0472179826718 0.001739141284 0.0303611111111
v 0.0474427841697 0.0023307145306 0.0302222222222
v 0.0474678132679 0.0017483430897 0.0302222222222
v 0.0476924830338 0.0023429814491 0.0300833333333
v 0.0477176438641 0.0017575448954 0.0300833333333
v 0.0479421818978 0.0023552483677 0.0299444444444
v 0.0479674744602 0.0017667467012 0.0299444444444
v 0.0481918807619 0.0023675152863 0.0298055555556
v 0.0482173050564 0.0017759485069 0.0298055555556
v 0.048441579626 0.0023797822049 0.0296666666667
v 0.0484671356525 0.0017851503127 0.0296666666667
v 0.04869127849 0.0023920491235 0.0295277777778
v 0.0487169662487 0.0017943521184 0.0295277777778
v 0.0489409773541 0.002404316042 0.014
v 0.0489409773541 0.002404316042 0.0293888888889
v 0.0489667968448 0.0018035539241 0.014
v 0.0489667968448 0.0018035539241 0.0293888888889
f 34 3 45
f 34 45 46
f 9 31 1
f 41 44 43
f 41 43 1
f 41 1 31
f 41 31 9
f 7 1 2
f 7 9 1
f 39 44 41
f 28 3 34
f 5 2 4
f 5 7 2
f 42 46 44
f 42 38 46
f 42 44 39
f 42 39 38
f 19 41 9
f 19 9 39
f 19 39 41
f 21 39 9
f 16 10 4
f 8 7 5
f 8 9 7
f 8 10 9
f 8 4 10
f 20 28 38
f 20 21 9
f 20 38 39
f 20 39 21
f 6 5 4
f 6 4 8
f 6 8 5
f 22 28 20
f 22 20 10
f 12 9 10
f 12 20 9
f 12 10 20
f 3 1 43
f 3 43 45
f 46 43 44
f 46 45 43
f 4 1 3
f 4 2 1
f 28 46 38
f 28 34 46
f 16 4 3
f 16 3 28
f 22 16 28
f 22 10 16
