# Parametric PetalDock simulation geometry; SI units
v -0.0362819293225 -0.0248921996745 0.014
v -0.0362819293225 -0.0248921996745 0.0164615384615
v -0.0360757819968 -0.0247507667218 0.0164615384615
v -0.0359737317787 -0.0253355604224 0.014
v -0.0359737317787 -0.0253355604224 0.0160769230769
v -0.0358696346711 -0.0246093337691 0.0164615384615
v -0.0357693355754 -0.0251916083745 0.0160769230769
v -0.0356634873455 -0.0244679008164 0.0164615384615
v -0.0355649393721 -0.0250476563267 0.0160769230769
v -0.0354573400198 -0.0243264678637 0.0164615384615
v -0.0353605431688 -0.0249037042788 0.0160769230769
v -0.0352511926941 -0.024185034911 0.0164615384615
v -0.0351561469655 -0.024759752231 0.0160769230769
v -0.0350450453684 -0.0240436019583 0.0164615384615
v -0.0349517507622 -0.0246158001831 0.0160769230769
v -0.0348388980427 -0.0239021690056 0.0164615384615
v -0.0347473545589 -0.0244718481353 0.0160769230769
v -0.034632750717 -0.0237607360529 0.0164615384615
v -0.0345429583557 -0.0243278960874 0.0160769230769
v -0.0344266033913 -0.0236193031002 0.0164615384615
v -0.0343385621524 -0.0241839440395 0.0160769230769
v -0.0342204560656 -0.0234778701475 0.0164615384615
v -0.0341341659491 -0.0240399919917 0.0160769230769
v -0.0340143087399 -0.0233364371948 0.0164615384615
v -0.0339297697458 -0.0238960399438 0.0160769230769
v -0.0338081614142 -0.0231950042421 0.0164615384615
v -0.0337253735425 -0.023752087896 0.0160769230769
v -0.0336020140885 -0.0230535712894 0.0164615384615
v -0.0335209773392 -0.0236081358481 0.0160769230769
v -0.0333958667628 -0.0229121383367 0.0164615384615
v -0.0333165811359 -0.0234641838003 0.0160769230769
v -0.0331897194371 -0.022770705384 0.0164615384615
v -0.0331121849326 -0.0233202317524 0.0160769230769
v -0.0329835721114 -0.0226292724313 0.0164615384615
v -0.0329077887294 -0.0231762797046 0.0160769230769
v -0.0327774247857 -0.0224878394786 0.0164615384615
v -0.0327033925261 -0.0230323276567 0.0160769230769
v -0.03257127746 -0.022346406526 0.0164615384615
v -0.0324989963228 -0.0228883756089 0.0160769230769
v -0.0323651301343 -0.0222049735733 0.0164615384615
v -0.0322946001195 -0.022744423561 0.0160769230769
v -0.0321589828086 -0.0220635406206 0.0164615384615
v -0.0320902039162 -0.0226004715132 0.0160769230769
v -0.0319528354829 -0.0219221076679 0.0164615384615
v -0.0318858077129 -0.0224565194653 0.0160769230769
v -0.0317466881572 -0.0217806747152 0.0164615384615
v -0.0316814115096 -0.0223125674174 0.0160769230769
v -0.0315405408315 -0.0216392417625 0.0164615384615
v -0.0314770153063 -0.0221686153696 0.0160769230769
v -0.0313343935058 -0.0214978088098 0.014
v -0.0313343935058 -0.0214978088098 0.0164615384615
v -0.031272619103 -0.0220246633217 0.0160769230769
v -0.0310682228998 -0.0218807112739 0.014
v -0.0310682228998 -0.0218807112739 0.0160769230769
f 17 4 53
f 5 4 17
f 51 5 17
f 38 2 5
f 38 5 51
f 36 50 1
f 36 51 50
f 8 1 2
f 8 36 1
f 49 54 51
f 49 53 54
f 43 51 17
f 43 49 51
f 43 17 53
f 43 53 49
f 50 53 4
f 50 4 1
f 5 1 4
f 5 2 1
f 54 53 50
f 54 50 51
f 8 38 51
f 8 2 38
f 8 51 36
