# Parametric PetalDock simulation geometry; SI units
v -0.0346872428156 -0.0270701899855 0.014
v -0.0346872428156 -0.0270701899855 0.0145917159763
v -0.0344901562087 -0.0269163820879 0.0145917159763
v -0.0343524380572 -0.0274938174783 0.014
v -0.0343524380572 -0.0274938174783 0.0143328402367
v -0.0342930696018 -0.0267625741903 0.0145917159763
v -0.03415725375 -0.0273376026062 0.0143328402367
v -0.0340959829949 -0.0266087662926 0.0145917159763
v -0.0339620694429 -0.0271813877342 0.0143328402367
v -0.0338988963879 -0.026454958395 0.0145917159763
v -0.0337668851357 -0.0270251728622 0.0143328402367
v -0.033701809781 -0.0263011504973 0.0145917159763
v -0.0335717008286 -0.0268689579901 0.0143328402367
v -0.0335047231741 -0.0261473425997 0.0145917159763
v -0.0333765165215 -0.0267127431181 0.0143328402367
v -0.0333076365672 -0.025993534702 0.0145917159763
v -0.0331813322143 -0.0265565282461 0.0143328402367
v -0.0331105499603 -0.0258397268044 0.0145917159763
v -0.0329861479072 -0.026400313374 0.0143328402367
v -0.0329134633534 -0.0256859189067 0.0145917159763
v -0.0327909636 -0.026244098502 0.0143328402367
v -0.0327163767465 -0.0255321110091 0.0145917159763
v -0.0325957792929 -0.0260878836299 0.0143328402367
v -0.0325192901396 -0.0253783031115 0.0145917159763
v -0.0324005949857 -0.0259316687579 0.0143328402367
v -0.0323222035327 -0.0252244952138 0.0145917159763
v -0.0322054106786 -0.0257754538859 0.0143328402367
v -0.0321251169258 -0.0250706873162 0.0145917159763
v -0.0320102263715 -0.0256192390138 0.0143328402367
v -0.0319280303189 -0.0249168794185 0.0145917159763
v -0.0318150420643 -0.0254630241418 0.0143328402367
v -0.031730943712 -0.0247630715209 0.0145917159763
v -0.0316198577572 -0.0253068092698 0.0143328402367
v -0.0315338571051 -0.0246092636232 0.0145917159763
v -0.03142467345 -0.0251505943977 0.0143328402367
v -0.0313367704982 -0.0244554557256 0.0145917159763
v -0.0312294891429 -0.0249943795257 0.0143328402367
v -0.0311396838913 -0.0243016478279 0.0145917159763
v -0.0310343048357 -0.0248381646537 0.0143328402367
v -0.0309425972843 -0.0241478399303 0.0145917159763
v -0.0308391205286 -0.0246819497816 0.0143328402367
v -0.0307455106774 -0.0239940320326 0.0145917159763
v -0.0306439362215 -0.0245257349096 0.0143328402367
v -0.0305484240705 -0.023840224135 0.0145917159763
v -0.0304487519143 -0.0243695200376 0.0143328402367
v -0.0303513374636 -0.0236864162374 0.0145917159763
v -0.0302535676072 -0.0242133051655 0.0143328402367
v -0.0301542508567 -0.0235326083397 0.0145917159763
v -0.0300583833 -0.0240570902935 0.0143328402367
v -0.0299571642498 -0.0233788004421 0.014
v -0.0299571642498 -0.0233788004421 0.0145917159763
v -0.0298631989929 -0.0239008754214 0.0143328402367
v -0.0296680146857 -0.0237446605494 0.014
v -0.0296680146857 -0.0237446605494 0.0143328402367
f 11 4 53
f 5 4 11
f 5 11 51
f 38 50 1
f 38 1 2
f 39 51 11
f 39 11 53
f 48 51 50
f 48 50 38
f 6 2 5
f 6 5 10
f 46 5 51
f 46 10 5
f 45 54 51
f 45 51 39
f 45 53 54
f 45 39 53
f 50 53 4
f 50 4 1
f 5 1 4
f 5 2 1
f 54 53 50
f 54 50 51
f 46 51 48
f 46 38 2
f 46 2 6
f 46 48 38
f 46 6 10
