# Parametric PetalDock simulation geometry; SI units
v 0.002745513995 -0.0318820035898 0.014
v 0.002745513995 -0.0318820035898 0.0281433815472
v 0.0027520449265 -0.0319578433717 0.028464340155
v 0.002770643446 -0.0321738167978 0.0287705778138
v 0.0027984780974 -0.0324970438719 0.029086835863
v 0.0028313113074 -0.032878316202 0.014
v 0.0028313113074 -0.032878316202 0.0293626360581
v 0.0031365484905 -0.0318459112535 0.014
v 0.0031365484905 -0.0318459112535 0.0280735261889
v 0.0031440096011 -0.0319216651801 0.0283928803624
v 0.0031652570463 -0.0321373941114 0.0286973352273
v 0.0031970560952 -0.0324602552731 0.0290110201827
v 0.0032345656309 -0.0328410959802 0.014
v 0.0032345656309 -0.0328410959802 0.0292838775659
f 3 9 2
f 3 1 6
f 3 2 1
f 3 6 7
f 5 3 7
f 5 4 3
f 11 14 13
f 11 4 5
f 10 13 8
f 10 11 13
f 10 8 9
f 10 9 3
f 10 3 4
f 10 4 11
f 12 14 11
f 12 11 5
f 12 7 14
f 12 5 7
f 8 13 6
f 8 6 1
f 2 8 1
f 2 9 8
f 14 6 13
f 14 7 6
